<svg width="1722" height="199" viewBox="0 0 1722 199" fill="none" xmlns="http://www.w3.org/2000/svg">
<path d="M1236.56 169.662C1236.61 168.452 1236.82 167.377 1237.19 166.438C1237.56 165.499 1238.14 164.624 1238.91 163.812C1239.71 163.002 1240.76 162.184 1242.04 161.359C1243.18 160.6 1244.09 159.923 1244.78 159.328C1245.5 158.735 1246.03 158.134 1246.35 157.523C1246.7 156.914 1246.9 156.224 1246.93 155.454C1246.98 154.28 1246.58 153.381 1245.73 152.755C1244.91 152.095 1243.73 151.731 1242.19 151.664C1240.65 151.596 1239.12 151.768 1237.6 152.179C1236.07 152.59 1234.5 153.165 1232.89 153.903L1230.23 147.889C1232.07 146.977 1234.05 146.255 1236.17 145.723C1238.29 145.191 1240.59 144.979 1243.09 145.088C1246.9 145.255 1249.81 146.301 1251.82 148.226C1253.87 150.153 1254.83 152.529 1254.71 155.353C1254.64 156.857 1254.35 158.148 1253.82 159.228C1253.3 160.307 1252.54 161.303 1251.54 162.215C1250.55 163.09 1249.31 164.028 1247.84 165.029C1246.74 165.753 1245.89 166.377 1245.27 166.902C1244.66 167.426 1244.24 167.94 1243.99 168.444C1243.79 168.95 1243.67 169.588 1243.64 170.358L1243.57 171.953L1236.47 171.643L1236.56 169.662ZM1235.19 180.792C1235.26 179.105 1235.77 177.951 1236.72 177.331C1237.66 176.675 1238.8 176.375 1240.12 176.433C1241.4 176.489 1242.49 176.885 1243.37 177.622C1244.26 178.323 1244.67 179.516 1244.59 181.204C1244.52 182.817 1244.01 183.971 1243.07 184.664C1242.12 185.321 1241 185.622 1239.72 185.565C1238.4 185.508 1237.29 185.11 1236.41 184.373C1235.52 183.6 1235.12 182.406 1235.19 180.792Z" fill="white"/>
<path d="M1197.39 152.902L1206.36 153.294L1211.28 170.432C1211.44 170.99 1211.57 171.546 1211.65 172.101C1211.78 172.658 1211.86 173.231 1211.91 173.821C1211.99 174.413 1212.04 175.04 1212.05 175.702L1212.21 175.709C1212.36 174.76 1212.55 173.868 1212.77 173.032C1213.03 172.162 1213.3 171.328 1213.6 170.533L1219.89 153.886L1228.69 154.271L1214.5 187.605C1213.64 189.625 1212.56 191.305 1211.25 192.644C1209.98 193.985 1208.52 194.968 1206.88 195.595C1205.23 196.221 1203.46 196.493 1201.55 196.409C1200.63 196.369 1199.83 196.279 1199.14 196.138C1198.48 196.036 1197.9 195.919 1197.39 195.786L1197.67 189.294C1198.07 189.385 1198.55 189.48 1199.09 189.577C1199.68 189.676 1200.28 189.739 1200.9 189.766C1202.04 189.816 1203.02 189.62 1203.85 189.179C1204.71 188.739 1205.44 188.109 1206.03 187.289C1206.61 186.507 1207.09 185.646 1207.46 184.706L1208.02 183.243L1197.39 152.902Z" fill="white"/>
<path d="M1173.86 148.622C1173.8 150.089 1173.68 151.498 1173.51 152.851C1173.38 154.204 1173.26 155.155 1173.17 155.702L1173.61 155.721C1174.31 154.723 1175.12 153.931 1176.02 153.346C1176.93 152.725 1177.93 152.29 1179 152.043C1180.12 151.761 1181.28 151.647 1182.49 151.7C1184.65 151.794 1186.53 152.262 1188.11 153.103C1189.69 153.944 1190.88 155.19 1191.69 156.843C1192.54 158.496 1192.9 160.607 1192.79 163.174L1191.94 182.76L1183.74 182.402L1184.51 164.852C1184.6 162.688 1184.27 161.056 1183.51 159.957C1182.79 158.823 1181.6 158.22 1179.95 158.148C1178.3 158.076 1176.98 158.404 1175.99 159.133C1175.04 159.863 1174.33 160.953 1173.86 162.402C1173.4 163.852 1173.12 165.64 1173.02 167.767L1172.41 181.906L1164.21 181.548L1166.04 139.736L1174.23 140.094L1173.86 148.622Z" fill="white"/>
<path d="M1161.64 142.079L1149.91 180.922L1140.45 180.509L1136.02 159.644C1135.92 159.236 1135.8 158.624 1135.66 157.809C1135.54 156.996 1135.4 156.108 1135.22 155.145C1135.08 154.183 1134.95 153.277 1134.84 152.427C1134.74 151.541 1134.66 150.857 1134.6 150.377C1134.55 150.852 1134.41 151.526 1134.18 152.398C1134 153.236 1133.8 154.127 1133.57 155.073C1133.35 155.981 1133.13 156.854 1132.91 157.689C1132.69 158.488 1132.51 159.105 1132.38 159.541L1126.2 179.886L1116.74 179.472L1108.44 139.753L1116.64 140.111L1120.71 161.786C1120.83 162.416 1120.96 163.194 1121.1 164.119C1121.25 165.007 1121.39 165.95 1121.53 166.948C1121.67 167.91 1121.8 168.853 1121.9 169.776C1122.05 170.701 1122.14 171.495 1122.19 172.158C1122.29 171.465 1122.43 170.681 1122.62 169.807C1122.81 168.897 1123.01 167.987 1123.23 167.078C1123.46 166.132 1123.66 165.259 1123.85 164.459C1124.07 163.623 1124.26 162.97 1124.43 162.5L1131.11 140.744L1138.98 141.088L1143.74 163.344C1143.83 163.826 1143.94 164.492 1144.09 165.344C1144.24 166.159 1144.38 167.047 1144.53 168.009C1144.67 168.97 1144.79 169.913 1144.9 170.836C1145.01 171.723 1145.08 172.498 1145.13 173.161C1145.28 172.249 1145.49 171.175 1145.76 169.937C1146.04 168.663 1146.34 167.39 1146.65 166.117C1147 164.846 1147.28 163.793 1147.5 162.958L1153.45 141.72L1161.64 142.079Z" fill="white"/>
<path d="M1074.3 162.569C1074.35 161.359 1074.56 160.284 1074.94 159.345C1075.31 158.406 1075.88 157.53 1076.65 156.719C1077.46 155.909 1078.5 155.091 1079.79 154.265C1080.92 153.506 1081.84 152.83 1082.52 152.235C1083.25 151.642 1083.77 151.04 1084.09 150.429C1084.45 149.82 1084.64 149.131 1084.68 148.361C1084.73 147.187 1084.33 146.287 1083.47 145.662C1082.66 145.002 1081.48 144.638 1079.94 144.57C1078.4 144.503 1076.86 144.675 1075.34 145.086C1073.81 145.497 1072.25 146.072 1070.63 146.81L1067.98 140.795C1069.82 139.884 1071.79 139.162 1073.91 138.63C1076.03 138.097 1078.34 137.886 1080.83 137.995C1084.65 138.162 1087.56 139.208 1089.57 141.133C1091.62 143.06 1092.58 145.435 1092.45 148.26C1092.39 149.763 1092.09 151.055 1091.57 152.134C1091.04 153.214 1090.28 154.21 1089.29 155.122C1088.29 155.997 1087.06 156.935 1085.58 157.936C1084.48 158.66 1083.63 159.284 1083.02 159.808C1082.41 160.333 1081.98 160.847 1081.74 161.351C1081.53 161.856 1081.41 162.494 1081.38 163.264L1081.31 164.86L1074.21 164.55L1074.3 162.569ZM1072.93 173.699C1073 172.012 1073.51 170.858 1074.46 170.238C1075.41 169.581 1076.54 169.282 1077.86 169.339C1079.15 169.395 1080.23 169.792 1081.12 170.529C1082.01 171.229 1082.41 172.423 1082.34 174.11C1082.27 175.724 1081.76 176.878 1080.81 177.571C1079.86 178.228 1078.75 178.528 1077.46 178.472C1076.14 178.414 1075.04 178.017 1074.15 177.28C1073.27 176.506 1072.86 175.313 1072.93 173.699Z" fill="white"/>
<path d="M1046.77 145.766C1048.6 145.846 1050.24 146.285 1051.67 147.083C1053.11 147.881 1054.31 149.035 1055.27 150.547L1055.49 150.557L1056.32 146.735L1063.25 147.038L1061.93 177.132C1061.81 179.992 1061.14 182.37 1059.91 184.264C1058.73 186.16 1057 187.554 1054.71 188.447C1052.43 189.376 1049.64 189.768 1046.34 189.624C1044.21 189.531 1042.24 189.316 1040.42 188.979C1038.63 188.644 1036.89 188.108 1035.19 187.373L1035.48 180.826C1036.7 181.394 1037.93 181.87 1039.17 182.255C1040.43 182.678 1041.72 182.991 1043.04 183.196C1044.39 183.438 1045.74 183.589 1047.1 183.649C1049.22 183.742 1050.83 183.242 1051.9 182.15C1053.02 181.06 1053.62 179.377 1053.72 177.103L1053.75 176.498C1053.78 175.875 1053.82 175.234 1053.89 174.575C1053.99 173.918 1054.07 173.334 1054.13 172.822L1053.91 172.812C1052.81 174.344 1051.54 175.428 1050.07 176.062C1048.61 176.696 1046.98 176.974 1045.19 176.896C1041.63 176.74 1038.9 175.261 1037 172.459C1035.14 169.621 1034.32 165.764 1034.53 160.886C1034.68 157.585 1035.26 154.799 1036.28 152.528C1037.3 150.221 1038.69 148.5 1040.47 147.365C1042.29 146.195 1044.39 145.662 1046.77 145.766ZM1049.06 152.536C1047.78 152.48 1046.68 152.781 1045.77 153.439C1044.9 154.063 1044.21 155.043 1043.71 156.381C1043.25 157.684 1042.98 159.344 1042.89 161.361C1042.76 164.369 1043.14 166.645 1044.02 168.191C1044.91 169.699 1046.37 170.498 1048.39 170.586C1049.45 170.633 1050.37 170.544 1051.15 170.321C1051.94 170.062 1052.58 169.63 1053.08 169.028C1053.63 168.39 1054.05 167.563 1054.35 166.547C1054.65 165.532 1054.83 164.29 1054.9 162.823L1054.94 161.833C1055.04 159.669 1054.89 157.917 1054.51 156.578C1054.13 155.238 1053.49 154.255 1052.6 153.628C1051.71 152.964 1050.53 152.6 1049.06 152.536Z" fill="white"/>
<path d="M1017.93 144.505C1021.16 144.646 1023.7 145.639 1025.57 147.485C1027.44 149.294 1028.29 152.124 1028.12 155.975L1027.26 175.56L1019.07 175.202L1019.83 157.652C1019.93 155.488 1019.61 153.857 1018.89 152.76C1018.17 151.626 1016.96 151.022 1015.28 150.948C1012.78 150.839 1011.04 151.627 1010.05 153.31C1009.06 154.958 1008.49 157.377 1008.35 160.567L1007.73 174.707L999.537 174.348L1000.85 144.309L1007.12 144.584L1008.05 148.483L1008.49 148.502C1009.2 147.504 1010.04 146.714 1011.02 146.132C1012.01 145.514 1013.09 145.083 1014.28 144.841C1015.46 144.563 1016.68 144.45 1017.93 144.505Z" fill="white"/>
<path d="M992.283 143.935L990.97 173.974L982.772 173.616L984.086 143.577L992.283 143.935ZM988.727 131.984C989.937 132.037 990.97 132.376 991.824 133.001C992.68 133.59 993.075 134.654 993.007 136.195C992.942 137.699 992.456 138.725 991.55 139.273C990.644 139.821 989.586 140.069 988.376 140.016C987.129 139.962 986.078 139.622 985.223 138.996C984.405 138.373 984.029 137.309 984.095 135.805C984.162 134.265 984.63 133.238 985.497 132.725C986.403 132.176 987.48 131.929 988.727 131.984Z" fill="white"/>
<path d="M974.209 173.241L966.012 172.882L967.84 131.07L976.037 131.428L974.209 173.241Z" fill="white"/>
<path d="M958.757 142.469L957.444 172.508L949.246 172.15L950.559 142.111L958.757 142.469ZM955.2 130.518C956.411 130.571 957.443 130.91 958.298 131.535C959.154 132.124 959.548 133.188 959.481 134.729C959.415 136.233 958.929 137.259 958.024 137.807C957.118 138.355 956.06 138.603 954.849 138.55C953.602 138.496 952.551 138.156 951.697 137.53C950.879 136.907 950.503 135.843 950.569 134.339C950.636 132.799 951.103 131.772 951.971 131.259C952.877 130.71 953.953 130.463 955.2 130.518Z" fill="white"/>
<path d="M929.708 140.593C933.743 140.769 936.785 141.784 938.836 143.638C940.924 145.456 941.89 148.163 941.733 151.757L940.857 171.783L935.136 171.533L933.718 167.392L933.498 167.382C932.608 168.409 931.689 169.251 930.742 169.908C929.831 170.566 928.783 171.016 927.596 171.258C926.445 171.539 925.025 171.642 923.338 171.568C921.578 171.491 919.997 171.091 918.595 170.369C917.232 169.611 916.177 168.517 915.431 167.088C914.687 165.623 914.362 163.808 914.457 161.644C914.596 158.453 915.817 156.155 918.121 154.749C920.425 153.306 923.818 152.609 928.299 152.658L933.533 152.722L933.591 151.401C933.66 149.824 933.288 148.65 932.477 147.88C931.702 147.111 930.581 146.695 929.114 146.63C927.647 146.566 926.207 146.724 924.794 147.103C923.382 147.445 921.966 147.898 920.545 148.461L918.092 142.786C919.743 142.013 921.551 141.431 923.515 141.039C925.517 140.649 927.581 140.5 929.708 140.593ZM930.128 157.478C927.484 157.436 925.629 157.833 924.564 158.668C923.498 159.504 922.934 160.637 922.872 162.067C922.817 163.314 923.145 164.229 923.854 164.811C924.565 165.356 925.508 165.655 926.681 165.706C928.442 165.783 929.95 165.335 931.205 164.361C932.462 163.35 933.132 161.891 933.215 159.984L933.324 157.508L930.128 157.478Z" fill="white"/>
<path d="M912.428 146.617L905.33 146.307L904.287 170.184L896.089 169.826L897.133 145.949L892.622 145.751L892.795 141.79L897.402 139.787L897.499 137.586C897.611 135.019 898.119 133.057 899.024 131.7C899.967 130.308 901.239 129.353 902.842 128.835C904.482 128.319 906.383 128.108 908.547 128.202C910.161 128.273 911.604 128.465 912.877 128.778C914.186 129.092 915.237 129.432 916.029 129.797L913.676 135.703C913.061 135.492 912.39 135.297 911.663 135.119C910.937 134.903 910.097 134.775 909.144 134.733C908.007 134.683 907.148 134.995 906.567 135.668C906.023 136.342 905.728 137.211 905.682 138.275L905.6 140.145L912.697 140.455L912.428 146.617Z" fill="white"/>
<path d="M863.031 137.732C866.442 137.882 868.971 138.874 870.618 140.71C872.303 142.511 873.061 145.337 872.893 149.188L872.037 168.774L863.839 168.415L864.606 150.865C864.701 148.701 864.405 147.071 863.718 145.976C863.032 144.843 861.919 144.243 860.379 144.176C858.215 144.081 856.641 144.784 855.657 146.285C854.672 147.785 854.117 149.984 853.99 152.881L853.331 167.956L845.134 167.597L845.901 150.047C845.964 148.617 845.851 147.418 845.562 146.45C845.274 145.482 844.81 144.745 844.171 144.239C843.533 143.697 842.701 143.403 841.674 143.358C840.17 143.292 838.961 143.625 838.047 144.357C837.133 145.089 836.461 146.18 836.03 147.631C835.599 149.082 835.337 150.872 835.244 152.999L834.626 167.138L826.428 166.78L827.742 136.741L834.013 137.015L834.945 140.914L835.385 140.934C836.054 139.934 836.86 139.142 837.804 138.559C838.75 137.939 839.78 137.506 840.893 137.261C842.044 136.98 843.188 136.865 844.325 136.915C846.526 137.011 848.381 137.459 849.889 138.26C851.399 139.025 852.525 140.176 853.266 141.715L853.981 141.747C854.965 140.246 856.279 139.183 857.924 138.556C859.605 137.932 861.307 137.657 863.031 137.732Z" fill="white"/>
<path d="M807.639 135.311C810.427 135.433 812.788 136.069 814.722 137.22C816.693 138.371 818.184 139.98 819.196 142.045C820.208 144.111 820.65 146.61 820.522 149.545L820.349 153.506L800.983 152.659C800.955 154.973 801.555 156.818 802.78 158.195C804.043 159.573 805.83 160.312 808.14 160.413C810.084 160.498 811.853 160.392 813.446 160.094C815.041 159.76 816.699 159.226 818.422 158.493L818.145 164.82C816.646 165.489 815.064 165.953 813.399 166.211C811.769 166.507 809.799 166.604 807.488 166.503C804.481 166.372 801.846 165.705 799.583 164.504C797.322 163.266 795.581 161.481 794.36 159.149C793.139 156.818 792.604 153.928 792.755 150.48C792.909 146.959 793.623 144.069 794.898 141.81C796.211 139.515 797.957 137.828 800.135 136.747C802.314 135.666 804.815 135.188 807.639 135.311ZM807.439 141.145C805.862 141.077 804.52 141.532 803.411 142.513C802.339 143.495 801.664 145.064 801.386 147.22L812.885 147.722C812.937 146.512 812.765 145.421 812.366 144.448C812.005 143.476 811.414 142.697 810.594 142.11C809.775 141.523 808.723 141.202 807.439 141.145Z" fill="white"/>
<path d="M782.986 158.872C783.903 158.913 784.787 158.859 785.639 158.713C786.491 158.566 787.344 158.383 788.199 158.163L787.932 164.27C787.035 164.598 785.921 164.862 784.59 165.061C783.293 165.298 781.875 165.383 780.334 165.316C778.537 165.237 776.936 164.873 775.531 164.224C774.163 163.576 773.089 162.519 772.308 161.051C771.565 159.549 771.25 157.514 771.362 154.947L771.994 140.477L768.088 140.307L768.24 136.841L772.871 134.287L775.514 128.064L780.74 128.292L780.461 134.674L788.879 135.042L788.609 141.204L780.192 140.836L779.559 155.305C779.51 156.442 779.802 157.318 780.436 157.934C781.073 158.513 781.923 158.826 782.986 158.872Z" fill="white"/>
<path d="M764.075 155.125C763.987 157.142 763.435 158.845 762.419 160.233C761.404 161.586 759.927 162.587 757.988 163.237C756.048 163.887 753.667 164.15 750.843 164.027C748.752 163.935 746.961 163.71 745.47 163.351C743.978 163.029 742.493 162.523 741.017 161.833L741.312 155.066C742.894 155.87 744.61 156.552 746.46 157.11C748.309 157.669 749.949 157.98 751.38 158.042C752.994 158.113 754.141 157.924 754.822 157.476C755.54 157.03 755.916 156.421 755.949 155.651C755.972 155.138 755.845 154.673 755.569 154.257C755.33 153.842 754.763 153.358 753.869 152.804C752.974 152.251 751.573 151.528 749.664 150.636C747.829 149.747 746.323 148.891 745.146 148.068C743.971 147.208 743.114 146.216 742.576 145.09C742.038 143.927 741.807 142.502 741.88 140.815C742.002 138.027 743.176 135.984 745.401 134.685C747.626 133.386 750.535 132.815 754.13 132.972C756 133.054 757.771 133.315 759.442 133.755C761.113 134.196 762.829 134.877 764.589 135.799L761.856 141.578C760.885 141.095 759.948 140.668 759.046 140.298C758.143 139.927 757.256 139.631 756.384 139.409C755.548 139.189 754.672 139.059 753.755 139.019C752.545 138.966 751.62 139.091 750.982 139.394C750.381 139.698 750.066 140.181 750.037 140.841C750.016 141.318 750.144 141.764 750.42 142.18C750.734 142.562 751.321 142.991 752.182 143.47C753.08 143.95 754.393 144.596 756.122 145.406C757.815 146.178 759.268 146.977 760.482 147.802C761.697 148.59 762.609 149.567 763.22 150.733C763.868 151.863 764.154 153.327 764.075 155.125Z" fill="white"/>
<path d="M708.421 131.525L717.389 131.917L722.317 149.054C722.476 149.612 722.599 150.169 722.685 150.724C722.807 151.281 722.893 151.854 722.94 152.444C723.025 153.036 723.071 153.662 723.079 154.324L723.244 154.331C723.395 153.383 723.581 152.49 723.802 151.655C724.06 150.784 724.335 149.951 724.627 149.155L730.922 132.508L739.725 132.893L725.535 166.227C724.675 168.248 723.591 169.927 722.283 171.267C721.011 172.607 719.554 173.591 717.909 174.217C716.265 174.844 714.489 175.115 712.582 175.032C711.665 174.992 710.861 174.901 710.169 174.761C709.512 174.659 708.929 174.541 708.42 174.409L708.704 167.917C709.104 168.008 709.578 168.102 710.125 168.2C710.708 168.299 711.312 168.362 711.935 168.389C713.072 168.439 714.055 168.243 714.883 167.801C715.747 167.361 716.473 166.732 717.06 165.912C717.645 165.129 718.124 164.268 718.496 163.329L719.056 161.865L708.421 131.525Z" fill="white"/>
<path d="M705.405 152.559C705.317 154.577 704.765 156.28 703.749 157.668C702.734 159.02 701.257 160.022 699.318 160.672C697.379 161.322 694.997 161.585 692.173 161.462C690.082 161.37 688.291 161.145 686.8 160.786C685.308 160.463 683.823 159.958 682.347 159.268L682.643 152.501C684.224 153.305 685.94 153.987 687.79 154.545C689.639 155.104 691.28 155.415 692.71 155.477C694.324 155.548 695.471 155.359 696.152 154.911C696.87 154.465 697.246 153.856 697.279 153.086C697.302 152.573 697.175 152.108 696.899 151.691C696.66 151.277 696.093 150.793 695.199 150.239C694.304 149.686 692.903 148.963 690.994 148.071C689.159 147.182 687.653 146.326 686.476 145.503C685.301 144.643 684.444 143.65 683.906 142.524C683.368 141.362 683.137 139.937 683.211 138.25C683.332 135.462 684.506 133.419 686.731 132.12C688.956 130.821 691.865 130.25 695.46 130.407C697.33 130.489 699.101 130.75 700.772 131.19C702.443 131.631 704.159 132.312 705.919 133.234L703.186 139.013C702.215 138.529 701.278 138.103 700.376 137.732C699.473 137.362 698.586 137.066 697.714 136.844C696.878 136.624 696.002 136.494 695.085 136.454C693.875 136.401 692.95 136.526 692.313 136.829C691.711 137.133 691.396 137.615 691.367 138.276C691.347 138.752 691.474 139.199 691.75 139.615C692.064 139.996 692.651 140.426 693.512 140.905C694.41 141.385 695.723 142.031 697.452 142.841C699.145 143.613 700.598 144.412 701.812 145.237C703.027 146.025 703.939 147.002 704.55 148.167C705.199 149.298 705.484 150.762 705.405 152.559Z" fill="white"/>
<path d="M651.997 128.506C655.225 128.648 657.772 129.641 659.639 131.486C661.508 133.295 662.358 136.125 662.189 139.976L661.333 159.562L653.136 159.204L653.903 141.653C653.998 139.489 653.683 137.859 652.959 136.762C652.237 135.628 651.033 135.024 649.345 134.95C646.851 134.841 645.108 135.628 644.116 137.312C643.125 138.959 642.56 141.378 642.421 144.569L641.802 158.708L633.605 158.35L634.918 128.311L641.19 128.585L642.122 132.484L642.562 132.504C643.267 131.505 644.11 130.716 645.091 130.134C646.074 129.515 647.158 129.085 648.345 128.843C649.533 128.564 650.75 128.452 651.997 128.506Z" fill="white"/>
<path d="M627.489 142.979C627.38 145.473 626.934 147.677 626.152 149.59C625.407 151.505 624.363 153.113 623.02 154.414C621.715 155.68 620.149 156.622 618.321 157.241C616.495 157.822 614.445 158.063 612.171 157.964C610.081 157.872 608.151 157.457 606.383 156.719C604.653 155.945 603.175 154.87 601.949 153.493C600.724 152.08 599.788 150.385 599.139 148.409C598.528 146.435 598.276 144.201 598.385 141.707C598.531 138.369 599.241 135.589 600.514 133.366C601.788 131.107 603.553 129.42 605.806 128.306C608.06 127.192 610.69 126.7 613.698 126.832C616.522 126.955 618.99 127.67 621.101 128.975C623.212 130.28 624.84 132.115 625.986 134.48C627.134 136.808 627.635 139.641 627.489 142.979ZM606.748 142.072C606.661 144.053 606.79 145.73 607.134 147.105C607.516 148.445 608.151 149.483 609.037 150.22C609.925 150.92 611.103 151.303 612.57 151.367C614.037 151.431 615.225 151.152 616.134 150.53C617.082 149.874 617.786 148.894 618.247 147.591C618.747 146.253 619.04 144.594 619.126 142.613C619.213 140.633 619.065 138.973 618.683 137.633C618.337 136.295 617.72 135.276 616.832 134.576C615.944 133.875 614.766 133.493 613.299 133.429C611.135 133.334 609.525 134.017 608.469 135.478C607.451 136.903 606.877 139.101 606.748 142.072Z" fill="white"/>
<path d="M592.288 126.447L590.975 156.486L582.777 156.128L584.091 126.089L592.288 126.447ZM588.732 114.496C589.942 114.549 590.975 114.888 591.829 115.513C592.685 116.102 593.08 117.166 593.012 118.707C592.947 120.211 592.461 121.237 591.555 121.785C590.649 122.333 589.591 122.581 588.381 122.528C587.134 122.474 586.083 122.134 585.228 121.508C584.41 120.885 584.034 119.821 584.1 118.317C584.167 116.777 584.635 115.75 585.502 115.237C586.408 114.688 587.485 114.441 588.732 114.496Z" fill="white"/>
<path d="M571.84 149.641C572.757 149.681 573.641 149.628 574.492 149.481C575.344 149.335 576.197 149.152 577.052 148.932L576.785 155.038C575.889 155.367 574.775 155.63 573.443 155.829C572.147 156.067 570.728 156.152 569.188 156.084C567.391 156.006 565.79 155.642 564.385 154.992C563.017 154.345 561.942 153.287 561.161 151.82C560.418 150.317 560.103 148.283 560.215 145.715L560.848 131.246L556.942 131.075L557.093 127.609L561.725 125.056L564.367 118.832L569.594 119.061L569.315 125.443L577.732 125.811L577.463 131.972L569.045 131.604L568.413 146.074C568.363 147.211 568.655 148.087 569.29 148.703C569.926 149.282 570.776 149.594 571.84 149.641Z" fill="white"/>
<path d="M539.382 123.527C543.417 123.704 546.459 124.719 548.51 126.572C550.598 128.391 551.564 131.097 551.407 134.692L550.531 154.717L544.81 154.467L543.392 150.326L543.172 150.317C542.282 151.343 541.363 152.185 540.416 152.842C539.505 153.5 538.456 153.951 537.27 154.193C536.118 154.473 534.699 154.576 533.012 154.503C531.252 154.426 529.67 154.026 528.269 153.303C526.906 152.545 525.851 151.452 525.105 150.023C524.361 148.557 524.036 146.742 524.13 144.578C524.27 141.387 525.491 139.089 527.794 137.683C530.099 136.24 533.492 135.544 537.973 135.593L543.207 135.656L543.264 134.336C543.333 132.758 542.962 131.585 542.151 130.814C541.376 130.045 540.255 129.629 538.788 129.565C537.321 129.501 535.881 129.658 534.468 130.037C533.056 130.38 531.64 130.832 530.219 131.395L527.766 125.721C529.417 124.948 531.224 124.365 533.189 123.973C535.191 123.583 537.255 123.434 539.382 123.527ZM539.802 140.413C537.158 140.371 535.303 140.767 534.237 141.603C533.172 142.438 532.608 143.571 532.545 145.001C532.491 146.248 532.818 147.163 533.528 147.745C534.239 148.291 535.181 148.589 536.355 148.641C538.116 148.718 539.623 148.269 540.879 147.295C542.136 146.284 542.806 144.825 542.889 142.918L542.997 140.442L539.802 140.413Z" fill="white"/>
<path d="M509.651 153.482C506.68 153.352 504.173 152.709 502.129 151.554C500.086 150.363 498.564 148.606 497.564 146.284C496.563 143.961 496.14 141.022 496.295 137.464C496.456 133.796 497.21 130.834 498.558 128.578C499.906 126.322 501.705 124.692 503.953 123.688C506.239 122.685 508.83 122.247 511.728 122.374C513.782 122.464 515.552 122.743 517.038 123.212C518.561 123.683 519.878 124.218 520.991 124.818L518.294 131.039C517.033 130.47 515.841 129.995 514.718 129.615C513.632 129.237 512.539 129.024 511.439 128.976C510.009 128.913 508.801 129.21 507.817 129.865C506.835 130.483 506.076 131.461 505.539 132.797C505.042 134.098 504.748 135.757 504.66 137.774C504.574 139.755 504.74 141.416 505.159 142.757C505.616 144.063 506.307 145.067 507.232 145.769C508.159 146.434 509.3 146.797 510.657 146.856C512.381 146.931 513.913 146.778 515.253 146.395C516.594 145.976 517.906 145.391 519.188 144.638L518.882 151.625C517.6 152.378 516.255 152.888 514.847 153.158C513.474 153.465 511.742 153.573 509.651 153.482Z" fill="white"/>
<path d="M490.179 121.983L488.866 152.022L482.594 151.747L481.662 147.848L481.222 147.829C480.554 148.829 479.71 149.637 478.691 150.254C477.71 150.836 476.626 151.248 475.44 151.49C474.252 151.768 473.034 151.881 471.787 151.826C469.66 151.733 467.806 151.266 466.226 150.425C464.646 149.585 463.451 148.338 462.641 146.686C461.831 145.033 461.483 142.924 461.595 140.356L462.451 120.771L470.649 121.129L469.881 138.679C469.788 140.806 470.103 142.437 470.825 143.571C471.547 144.705 472.752 145.309 474.439 145.383C476.126 145.456 477.445 145.128 478.396 144.398C479.383 143.669 480.092 142.58 480.523 141.129C480.99 139.679 481.271 137.891 481.364 135.764L481.982 121.624L490.179 121.983Z" fill="white"/>
<path d="M435.982 150.261C432.645 150.115 429.969 148.693 427.956 145.996C425.98 143.264 425.104 139.349 425.327 134.251C425.552 129.116 426.785 125.275 429.028 122.727C431.271 120.179 434.116 118.98 437.564 119.131C438.994 119.194 440.251 119.451 441.333 119.902C442.418 120.317 443.33 120.872 444.072 121.565C444.85 122.261 445.495 123.043 446.009 123.91L446.284 123.922C446.199 123.331 446.108 122.481 446.009 121.375C445.912 120.231 445.89 119.073 445.941 117.899L446.362 108.271L454.559 108.63L452.731 150.442L446.459 150.168L445.035 146.192L444.705 146.177C444.156 146.962 443.463 147.685 442.625 148.346C441.826 148.973 440.886 149.465 439.805 149.821C438.723 150.178 437.449 150.325 435.982 150.261ZM439.129 143.839C441.403 143.938 443.028 143.348 444.002 142.068C444.979 140.751 445.544 138.754 445.697 136.078L445.736 135.198C445.864 132.264 445.503 130.006 444.654 128.426C443.841 126.847 442.224 126.005 439.803 125.899C438.006 125.82 436.56 126.547 435.464 128.079C434.369 129.575 433.758 131.79 433.63 134.724C433.502 137.658 433.918 139.9 434.879 141.448C435.842 142.96 437.259 143.757 439.129 143.839Z" fill="white"/>
<path d="M407.699 117.826C410.486 117.948 412.847 118.584 414.781 119.734C416.752 120.886 418.244 122.494 419.256 124.56C420.268 126.625 420.71 129.125 420.581 132.059L420.408 136.02L401.043 135.173C401.015 137.487 401.614 139.332 402.84 140.709C404.103 142.087 405.889 142.827 408.2 142.928C410.144 143.013 411.912 142.906 413.506 142.608C415.1 142.274 416.759 141.74 418.481 141.007L418.205 147.334C416.706 148.003 415.124 148.467 413.459 148.725C411.829 149.021 409.859 149.119 407.548 149.018C404.54 148.886 401.905 148.22 399.643 147.018C397.382 145.78 395.641 143.996 394.42 141.664C393.199 139.332 392.664 136.442 392.815 132.995C392.968 129.474 393.683 126.583 394.958 124.324C396.27 122.03 398.016 120.342 400.195 119.261C402.373 118.181 404.875 117.702 407.699 117.826ZM407.499 123.66C405.922 123.591 404.579 124.047 403.471 125.027C402.399 126.009 401.724 127.578 401.446 129.734L412.944 130.237C412.997 129.026 412.824 127.935 412.426 126.962C412.064 125.991 411.473 125.212 410.654 124.625C409.834 124.037 408.783 123.716 407.499 123.66Z" fill="white"/>
<path d="M368.755 140.762C369.672 140.802 370.556 140.749 371.408 140.602C372.259 140.456 373.112 140.273 373.967 140.053L373.7 146.16C372.804 146.488 371.69 146.752 370.358 146.951C369.062 147.188 367.643 147.273 366.103 147.205C364.306 147.127 362.705 146.763 361.3 146.114C359.932 145.466 358.857 144.408 358.076 142.941C357.333 141.439 357.018 139.404 357.13 136.836L357.763 122.367L353.857 122.196L354.008 118.73L358.64 116.177L361.282 109.953L366.509 110.182L366.23 116.564L374.647 116.932L374.378 123.093L365.96 122.725L365.328 137.195C365.278 138.332 365.571 139.208 366.205 139.824C366.841 140.403 367.691 140.715 368.755 140.762Z" fill="white"/>
<path d="M338.072 114.781C341.299 114.922 343.846 115.916 345.713 117.761C347.582 119.57 348.432 122.4 348.264 126.251L347.407 145.837L339.21 145.478L339.977 127.928C340.072 125.764 339.757 124.134 339.034 123.036C338.311 121.902 337.107 121.299 335.42 121.225C332.926 121.116 331.182 121.903 330.19 123.587C329.199 125.234 328.634 127.653 328.495 130.844L327.877 144.983L319.679 144.625L320.993 114.586L327.264 114.86L328.196 118.759L328.636 118.778C329.342 117.78 330.185 116.99 331.165 116.409C332.148 115.79 333.232 115.36 334.419 115.118C335.607 114.839 336.825 114.727 338.072 114.781Z" fill="white"/>
<path d="M300.892 113.156C303.68 113.278 306.041 113.914 307.975 115.064C309.945 116.216 311.437 117.824 312.449 119.89C313.461 121.955 313.903 124.455 313.775 127.389L313.602 131.35L294.236 130.503C294.208 132.817 294.807 134.663 296.033 136.039C297.296 137.417 299.083 138.157 301.393 138.258C303.337 138.343 305.106 138.236 306.699 137.939C308.294 137.604 309.952 137.07 311.675 136.337L311.398 142.664C309.899 143.333 308.317 143.797 306.652 144.055C305.022 144.351 303.052 144.449 300.741 144.348C297.734 144.216 295.099 143.55 292.836 142.348C290.575 141.11 288.834 139.326 287.613 136.994C286.392 134.662 285.857 131.772 286.008 128.325C286.162 124.804 286.876 121.914 288.151 119.654C289.464 117.36 291.21 115.672 293.388 114.592C295.567 113.511 298.068 113.032 300.892 113.156ZM300.692 118.99C299.115 118.921 297.772 119.377 296.664 120.357C295.592 121.339 294.917 122.908 294.639 125.064L306.137 125.567C306.19 124.356 306.018 123.265 305.619 122.292C305.257 121.321 304.667 120.542 303.847 119.955C303.028 119.368 301.976 119.046 300.692 118.99Z" fill="white"/>
<path d="M281.384 112.303C281.788 112.321 282.264 112.36 282.812 112.421C283.361 112.481 283.799 112.555 284.126 112.643L283.184 120.319C282.93 120.234 282.547 120.163 282.036 120.104C281.562 120.009 281.142 119.954 280.775 119.938C279.711 119.892 278.678 119.993 277.675 120.244C276.673 120.457 275.756 120.84 274.924 121.391C274.128 121.944 273.47 122.706 272.95 123.675C272.468 124.609 272.196 125.792 272.133 127.222L271.465 142.517L263.267 142.158L264.58 112.119L270.797 112.391L271.786 117.506L272.171 117.523C272.803 116.521 273.578 115.618 274.495 114.813C275.412 114.008 276.45 113.373 277.61 112.91C278.806 112.447 280.064 112.245 281.384 112.303Z" fill="white"/>
<path d="M256.4 111.211C256.803 111.229 257.279 111.268 257.828 111.328C258.377 111.389 258.814 111.463 259.141 111.551L258.199 119.227C257.946 119.142 257.563 119.071 257.051 119.011C256.578 118.917 256.157 118.862 255.791 118.846C254.727 118.8 253.694 118.901 252.69 119.152C251.689 119.365 250.772 119.747 249.939 120.299C249.143 120.852 248.485 121.614 247.965 122.583C247.484 123.517 247.211 124.7 247.149 126.13L246.48 141.425L238.283 141.066L239.596 111.027L245.813 111.299L246.802 116.414L247.187 116.43C247.819 115.429 248.593 114.526 249.51 113.721C250.428 112.916 251.466 112.281 252.625 111.818C253.821 111.355 255.08 111.153 256.4 111.211Z" fill="white"/>
<path d="M231.003 110.652L229.69 140.69L223.418 140.416L222.486 136.517L222.046 136.498C221.378 137.498 220.534 138.306 219.515 138.923C218.534 139.505 217.45 139.917 216.264 140.159C215.076 140.437 213.858 140.55 212.611 140.495C210.484 140.402 208.63 139.935 207.05 139.094C205.47 138.254 204.275 137.007 203.465 135.355C202.656 133.702 202.307 131.593 202.419 129.025L203.275 109.439L211.473 109.798L210.705 127.348C210.612 129.475 210.927 131.106 211.649 132.24C212.371 133.374 213.576 133.978 215.263 134.052C216.95 134.125 218.269 133.797 219.22 133.067C220.207 132.338 220.916 131.249 221.347 129.798C221.815 128.348 222.095 126.56 222.188 124.432L222.806 110.293L231.003 110.652Z" fill="white"/>
<path d="M186.056 139.334C183.085 139.204 180.578 138.562 178.534 137.407C176.491 136.215 174.97 134.458 173.969 132.136C172.968 129.814 172.545 126.874 172.701 123.316C172.861 119.648 173.615 116.686 174.963 114.43C176.311 112.174 178.11 110.544 180.359 109.54C182.644 108.537 185.235 108.099 188.133 108.226C190.187 108.316 191.957 108.595 193.443 109.065C194.966 109.535 196.284 110.071 197.397 110.671L194.699 116.892C193.438 116.322 192.246 115.847 191.124 115.468C190.038 115.089 188.945 114.876 187.844 114.828C186.414 114.766 185.207 115.062 184.223 115.717C183.24 116.336 182.481 117.313 181.945 118.649C181.447 119.95 181.154 121.609 181.066 123.627C180.979 125.607 181.145 127.268 181.564 128.609C182.022 129.916 182.713 130.92 183.637 131.622C184.564 132.287 185.706 132.649 187.063 132.708C188.786 132.784 190.318 132.63 191.658 132.248C192.999 131.829 194.311 131.243 195.593 130.491L195.288 137.478C194.005 138.23 192.66 138.741 191.252 139.01C189.879 139.317 188.147 139.425 186.056 139.334Z" fill="white"/>
<path d="M140.787 106.156C143.574 106.278 145.935 106.914 147.869 108.064C149.84 109.216 151.331 110.825 152.344 112.89C153.356 114.955 153.798 117.455 153.669 120.389L153.496 124.35L134.13 123.504C134.103 125.818 134.702 127.663 135.928 129.039C137.191 130.417 138.977 131.157 141.288 131.258C143.232 131.343 145 131.237 146.594 130.939C148.188 130.604 149.847 130.07 151.569 129.337L151.293 135.664C149.794 136.334 148.212 136.797 146.547 137.055C144.917 137.351 142.947 137.449 140.636 137.348C137.628 137.216 134.993 136.55 132.731 135.349C130.47 134.111 128.729 132.326 127.508 129.994C126.287 127.662 125.752 124.773 125.902 121.325C126.056 117.804 126.771 114.914 128.045 112.654C129.358 110.36 131.104 108.672 133.283 107.592C135.461 106.511 137.963 106.032 140.787 106.156ZM140.587 111.99C139.01 111.921 137.667 112.377 136.558 113.357C135.487 114.339 134.812 115.908 134.534 118.064L146.032 118.567C146.085 117.357 145.912 116.265 145.514 115.292C145.152 114.321 144.561 113.542 143.742 112.955C142.922 112.368 141.871 112.046 140.587 111.99Z" fill="white"/>
<path d="M100.564 101.697C100.5 103.164 100.383 104.574 100.214 105.926C100.081 107.28 99.9658 108.23 99.8684 108.777L100.309 108.796C101.014 107.798 101.82 107.007 102.727 106.422C103.637 105.8 104.629 105.366 105.706 105.119C106.821 104.837 107.983 104.722 109.194 104.775C111.357 104.87 113.23 105.337 114.81 106.178C116.39 107.019 117.585 108.266 118.394 109.918C119.241 111.572 119.608 113.682 119.496 116.25L118.639 135.836L110.442 135.477L111.209 117.927C111.304 115.763 110.971 114.132 110.211 113.033C109.488 111.899 108.302 111.296 106.652 111.223C105.001 111.151 103.682 111.479 102.695 112.208C101.744 112.938 101.035 114.028 100.568 115.477C100.1 116.927 99.8198 118.715 99.7268 120.843L99.1086 134.982L90.9112 134.623L92.7393 92.811L100.937 93.1694L100.564 101.697Z" fill="white"/>
<path d="M79.9725 128.137C80.8894 128.177 81.7737 128.124 82.6253 127.977C83.4769 127.831 84.3301 127.647 85.1849 127.428L84.9179 133.534C84.0216 133.863 82.9076 134.126 81.576 134.325C80.2795 134.563 78.861 134.648 77.3206 134.58C75.5234 134.502 73.9224 134.138 72.5176 133.488C71.1496 132.841 70.075 131.783 69.294 130.316C68.5512 128.813 68.2359 126.778 68.3482 124.211L68.9808 109.742L65.0746 109.571L65.2262 106.105L69.8578 103.551L72.5001 97.328L77.7266 97.5565L77.4476 103.938L85.865 104.306L85.5956 110.468L77.1782 110.1L76.5456 124.569C76.4959 125.706 76.7883 126.583 77.4228 127.198C78.0589 127.777 78.9088 128.09 79.9725 128.137Z" fill="white"/>
<path d="M46.7694 123.763C46.6812 125.781 46.129 127.484 45.1129 128.872C44.0983 130.224 42.6214 131.226 40.6821 131.876C38.7428 132.526 36.3611 132.789 33.5369 132.666C31.4463 132.574 29.6555 132.349 28.1646 131.99C26.6721 131.667 25.1875 131.162 23.711 130.472L24.0069 123.705C25.5886 124.509 27.3043 125.191 29.154 125.749C31.0037 126.308 32.6438 126.618 34.0742 126.681C35.688 126.752 36.8354 126.563 37.5164 126.115C38.2342 125.669 38.6099 125.06 38.6435 124.29C38.666 123.777 38.5393 123.312 38.2635 122.895C38.0244 122.481 37.4576 121.997 36.5632 121.443C35.6687 120.89 34.2671 120.167 32.3585 119.275C30.5232 118.386 29.0173 117.53 27.8406 116.707C26.6655 115.847 25.8086 114.854 25.2699 113.728C24.7327 112.566 24.5011 111.141 24.5748 109.454C24.6967 106.666 25.8701 104.623 28.095 103.324C30.3199 102.025 33.2295 101.454 36.8239 101.611C38.6944 101.693 40.4653 101.954 42.1364 102.394C43.8075 102.835 45.5232 103.516 47.2835 104.438L44.5505 110.217C43.5794 109.733 42.6426 109.307 41.7401 108.936C40.8376 108.566 39.9503 108.27 39.078 108.048C38.2425 107.828 37.3662 107.698 36.4493 107.658C35.2389 107.605 34.3148 107.73 33.6768 108.033C33.0756 108.337 32.7605 108.819 32.7316 109.48C32.7108 109.956 32.8382 110.403 33.114 110.819C33.4281 111.2 34.0156 111.63 34.8766 112.109C35.7743 112.589 37.0874 113.235 38.8158 114.045C40.5092 114.817 41.9626 115.616 43.1759 116.441C44.3909 117.229 45.3036 118.206 45.9141 119.371C46.5629 120.502 46.848 121.966 46.7694 123.763Z" fill="white"/>
<path d="M19.3855 131.496L1.50527 130.714L1.71212 125.982L6.59473 123.991L7.70598 98.5737L3.0158 96.1638L3.22266 91.4324L21.1029 92.2141L20.896 96.9455L16.0134 98.9369L14.9022 124.354L19.5923 126.764L19.3855 131.496Z" fill="white"/>
<path d="M1702.36 96.9705C1706.04 97.3333 1709.12 98.3456 1711.59 100.008C1714.12 101.675 1715.98 103.911 1717.17 106.718C1718.36 109.525 1718.76 112.865 1718.38 116.739L1717.86 121.969L1692.29 119.449C1692.09 122.509 1692.75 124.995 1694.27 126.905C1695.84 128.82 1698.16 129.928 1701.21 130.229C1703.77 130.482 1706.12 130.469 1708.25 130.19C1710.39 129.862 1712.62 129.276 1714.95 128.43L1714.13 136.783C1712.1 137.561 1709.97 138.06 1707.75 138.281C1705.57 138.556 1702.95 138.542 1699.9 138.242C1695.93 137.85 1692.49 136.778 1689.59 135.025C1686.68 133.223 1684.51 130.735 1683.06 127.56C1681.61 124.386 1681.11 120.523 1681.56 115.971C1682.02 111.322 1683.17 107.549 1685.02 104.65C1686.93 101.709 1689.36 99.6014 1692.32 98.3285C1695.28 97.0557 1698.63 96.603 1702.36 96.9705ZM1701.67 104.677C1699.59 104.472 1697.78 104.978 1696.24 106.196C1694.75 107.418 1693.74 109.446 1693.22 112.279L1708.4 113.775C1708.56 112.177 1708.41 110.72 1707.95 109.404C1707.54 108.092 1706.82 107.018 1705.78 106.182C1704.73 105.346 1703.37 104.844 1701.67 104.677Z" fill="#F15C30"/>
<path d="M1651.06 89.935C1650.92 91.4362 1650.72 92.9084 1650.48 94.3517C1650.24 95.7949 1650.03 96.9234 1649.86 97.7371L1650.29 97.78C1651.52 96.2385 1653.08 94.9992 1654.99 94.062C1656.89 93.0763 1659.27 92.7243 1662.13 93.0059C1666.59 93.445 1670.02 95.5439 1672.44 99.3026C1674.86 103.013 1675.74 108.234 1675.08 114.965C1674.63 119.468 1673.6 123.205 1671.99 126.176C1670.43 129.103 1668.44 131.229 1666.01 132.554C1663.58 133.879 1660.84 134.392 1657.79 134.091C1654.88 133.805 1652.63 133.069 1651.04 131.885C1649.5 130.658 1648.26 129.338 1647.32 127.925L1646.59 127.854L1644.35 132.033L1636.07 131.217L1641.51 76.0112L1652.33 77.0779L1651.06 89.935ZM1657.79 101.306C1655.9 101.12 1654.36 101.36 1653.17 102.025C1651.98 102.69 1651.04 103.795 1650.35 105.341C1649.72 106.843 1649.26 108.778 1648.97 111.146L1648.86 112.308C1648.48 116.134 1648.75 119.142 1649.66 121.334C1650.62 123.483 1652.6 124.705 1655.6 125.001C1657.83 125.221 1659.7 124.378 1661.21 122.473C1662.72 120.519 1663.67 117.605 1664.05 113.731C1664.43 109.857 1664.04 106.885 1662.87 104.814C1661.76 102.7 1660.07 101.531 1657.79 101.306Z" fill="#F15C30"/>
<path d="M1628.63 90.4374L1624.72 130.098L1616.44 129.282L1615.49 124.054L1614.91 123.997C1613.95 125.272 1612.77 126.281 1611.38 127.023C1610.04 127.723 1608.58 128.19 1606.99 128.424C1605.4 128.707 1603.78 128.768 1602.13 128.605C1599.32 128.329 1596.9 127.577 1594.87 126.35C1592.84 125.123 1591.35 123.387 1590.4 121.142C1589.44 118.896 1589.14 116.079 1589.47 112.689L1592.02 86.8293L1602.84 87.896L1600.56 111.068C1600.28 113.877 1600.58 116.057 1601.45 117.61C1602.33 119.163 1603.88 120.05 1606.11 120.269C1608.33 120.489 1610.1 120.15 1611.41 119.252C1612.77 118.359 1613.79 116.968 1614.46 115.079C1615.19 113.194 1615.69 110.848 1615.97 108.039L1617.81 89.3708L1628.63 90.4374Z" fill="#F15C30"/>
<path d="M1570.73 124.777L1559.76 123.696L1563.97 80.984L1549.87 79.5951L1550.78 70.4426L1589.93 74.3013L1589.03 83.4538L1574.93 82.065L1570.73 124.777Z" fill="#F15C30"/>
<path d="M1542.44 81.9435L1538.53 121.604L1530.25 120.788L1529.3 115.56L1528.72 115.503C1527.76 116.778 1526.59 117.787 1525.19 118.53C1523.85 119.229 1522.39 119.696 1520.8 119.93C1519.21 120.213 1517.59 120.274 1515.94 120.112C1513.13 119.835 1510.71 119.083 1508.68 117.856C1506.65 116.629 1505.16 114.893 1504.21 112.648C1503.26 110.402 1502.95 107.585 1503.28 104.195L1505.83 78.3354L1516.65 79.4021L1514.37 102.574C1514.09 105.383 1514.39 107.564 1515.27 109.117C1516.14 110.67 1517.69 111.556 1519.92 111.775C1522.15 111.995 1523.91 111.656 1525.23 110.758C1526.59 109.865 1527.6 108.474 1528.28 106.585C1529 104.7 1529.5 102.354 1529.78 99.5451L1531.62 80.8769L1542.44 81.9435Z" fill="#F15C30"/>
<path d="M1495.16 97.2329C1494.83 100.526 1494.08 103.41 1492.91 105.886C1491.78 108.367 1490.29 110.42 1488.41 112.044C1486.6 113.625 1484.46 114.759 1481.99 115.445C1479.53 116.083 1476.8 116.254 1473.8 115.958C1471.04 115.686 1468.52 114.997 1466.23 113.892C1464 112.743 1462.12 111.213 1460.59 109.302C1459.08 107.344 1457.96 105.033 1457.24 102.371C1456.58 99.714 1456.4 96.7388 1456.73 93.4459C1457.16 89.0391 1458.3 85.4109 1460.15 82.5612C1462 79.6631 1464.46 77.5582 1467.52 76.2465C1470.58 74.9348 1474.1 74.4746 1478.07 74.8659C1481.8 75.2334 1485.01 76.357 1487.71 78.2366C1490.41 80.1163 1492.44 82.6627 1493.78 85.8758C1495.13 89.0404 1495.59 92.8262 1495.16 97.2329ZM1467.77 94.534C1467.51 97.149 1467.56 99.3787 1467.92 101.223C1468.33 103.024 1469.09 104.444 1470.21 105.483C1471.34 106.474 1472.87 107.065 1474.8 107.256C1476.74 107.447 1478.33 107.164 1479.58 106.406C1480.88 105.606 1481.89 104.36 1482.59 102.669C1483.35 100.935 1483.86 98.7598 1484.11 96.1448C1484.37 93.5298 1484.3 91.322 1483.89 89.5214C1483.53 87.7255 1482.78 86.3321 1481.66 85.3411C1480.53 84.3502 1479 83.7592 1477.07 83.5683C1474.21 83.2867 1472.03 84.0742 1470.53 85.9308C1469.08 87.7438 1468.16 90.6115 1467.77 94.534Z" fill="#F15C30"/>
<path d="M1435.46 80.6415L1448.39 60.3523L1460.23 61.5192L1439.89 91.4931L1437.9 111.687L1427 110.613L1428.96 90.7825L1414.9 57.052L1426.81 58.2261L1435.46 80.6415Z" fill="#F15C30"/>
<path d="M1374.85 100.338C1375.07 98.1105 1375.82 96.6205 1377.12 95.8682C1378.42 95.0674 1379.95 94.7529 1381.69 94.9247C1383.38 95.0918 1384.79 95.695 1385.91 96.7344C1387.04 97.7254 1387.49 99.3347 1387.27 101.562C1387.06 103.693 1386.3 105.183 1384.99 106.032C1383.69 106.833 1382.19 107.15 1380.5 106.983C1378.76 106.811 1377.32 106.205 1376.2 105.166C1375.09 104.078 1374.64 102.469 1374.85 100.338Z" fill="#F15C30"/>
<path d="M1368.6 92.9752C1368.34 95.6386 1367.48 97.8526 1366.04 99.6171C1364.6 101.333 1362.57 102.551 1359.96 103.272C1357.34 103.992 1354.17 104.169 1350.44 103.801C1347.68 103.529 1345.33 103.101 1343.38 102.518C1341.43 101.984 1339.5 101.207 1337.6 100.188L1338.48 91.2534C1340.51 92.4319 1342.73 93.4576 1345.14 94.3306C1347.55 95.2035 1349.7 95.7331 1351.59 95.9192C1353.72 96.1292 1355.25 95.9624 1356.18 95.4187C1357.16 94.8799 1357.71 94.102 1357.81 93.085C1357.87 92.4071 1357.74 91.7827 1357.4 91.2118C1357.12 90.6457 1356.4 89.964 1355.26 89.1667C1354.11 88.3694 1352.31 87.3116 1349.85 85.9933C1347.49 84.6846 1345.55 83.4429 1344.06 82.2685C1342.56 81.0456 1341.5 79.6696 1340.87 78.1405C1340.24 76.5629 1340.04 74.6603 1340.26 72.4327C1340.62 68.7524 1342.32 66.1329 1345.36 64.5743C1348.4 63.0157 1352.29 62.4702 1357.04 62.9379C1359.51 63.1813 1361.83 63.6549 1364.01 64.3587C1366.19 65.0625 1368.41 66.0883 1370.68 67.4359L1366.64 74.8861C1365.39 74.1762 1364.18 73.5436 1363.01 72.9885C1361.85 72.4333 1360.69 71.9774 1359.55 71.6207C1358.46 71.2688 1357.31 71.0332 1356.1 70.9139C1354.51 70.7564 1353.27 70.855 1352.41 71.2097C1351.59 71.5692 1351.14 72.1847 1351.05 73.0564C1350.99 73.686 1351.13 74.2862 1351.46 74.857C1351.85 75.3842 1352.6 75.9957 1353.7 76.6913C1354.85 77.3918 1356.55 78.3408 1358.77 79.5384C1360.96 80.6828 1362.83 81.8446 1364.37 83.0238C1365.92 84.1546 1367.06 85.5136 1367.78 87.1007C1368.56 88.6441 1368.83 90.6023 1368.6 92.9752Z" fill="#F15C30"/>
<path d="M1307.85 98.8702L1296.65 57.7202L1307.98 58.837L1313.38 82.1794C1313.59 83.0797 1313.74 84.0237 1313.84 85.0113C1313.98 86.0037 1314.06 86.9647 1314.07 87.8943C1314.12 88.8287 1314.14 89.6857 1314.11 90.4653L1314.4 90.494C1314.53 89.6755 1314.71 88.8134 1314.95 87.9076C1315.18 87.0018 1315.44 86.0984 1315.73 85.1974C1316.06 84.2528 1316.42 83.3589 1316.8 82.5159L1326.65 60.6768L1337.98 61.7936L1318.97 99.9655L1307.85 98.8702Z" fill="#F15C30"/>
<path d="M1236.43 51.7847L1248.27 52.9516L1253.55 75.9891C1253.72 76.7394 1253.84 77.4849 1253.92 78.2256C1254.04 78.971 1254.11 79.736 1254.13 80.5203C1254.2 81.3095 1254.22 82.1422 1254.18 83.0187L1254.4 83.0402C1254.67 81.7954 1254.98 80.6281 1255.33 79.5381C1255.73 78.4045 1256.16 77.3218 1256.6 76.2898L1266.14 54.7127L1277.76 55.8581L1256.57 98.95C1255.28 101.562 1253.73 103.706 1251.9 105.384C1250.12 107.067 1248.12 108.263 1245.9 108.974C1243.68 109.684 1241.31 109.915 1238.79 109.666C1237.58 109.547 1236.52 109.369 1235.62 109.134C1234.75 108.951 1233.99 108.753 1233.33 108.541L1234.17 99.9698C1234.69 100.119 1235.31 100.278 1236.03 100.447C1236.8 100.62 1237.59 100.747 1238.41 100.828C1239.92 100.976 1241.23 100.788 1242.36 100.263C1243.53 99.7434 1244.54 98.9624 1245.38 97.9202C1246.21 96.9264 1246.9 95.8215 1247.46 94.6053L1248.31 92.7085L1236.43 51.7847Z" fill="#F15C30"/>
<path d="M1231.33 50.5487C1231.86 50.6012 1232.49 50.6875 1233.21 50.8075C1233.93 50.9275 1234.51 51.0574 1234.93 51.1972L1233.13 61.2879C1232.8 61.1577 1232.3 61.0349 1231.63 60.9197C1231.01 60.7608 1230.46 60.6575 1229.97 60.6097C1228.57 60.4713 1227.19 60.5314 1225.85 60.7899C1224.51 61.0001 1223.27 61.44 1222.12 62.1099C1221.03 62.7844 1220.11 63.7445 1219.35 64.9899C1218.64 66.1917 1218.2 67.737 1218.01 69.6256L1216.02 89.8192L1205.2 88.7525L1209.11 49.0916L1217.31 49.9006L1218.25 56.7409L1218.76 56.791C1219.67 55.5114 1220.76 54.372 1222.03 53.3728C1223.3 52.3735 1224.72 51.6089 1226.29 51.0788C1227.91 50.5536 1229.59 50.3769 1231.33 50.5487Z" fill="#F15C30"/>
<path d="M1181.62 45.5754C1186.94 46.1004 1190.9 47.6635 1193.48 50.2648C1196.11 52.8224 1197.19 56.4741 1196.72 61.2198L1194.12 87.6604L1186.56 86.9159L1184.99 81.333L1184.7 81.3044C1183.44 82.599 1182.17 83.6466 1180.87 84.4474C1179.61 85.253 1178.19 85.7731 1176.6 86.0078C1175.06 86.2957 1173.17 86.3298 1170.95 86.1103C1168.62 85.8812 1166.56 85.2378 1164.76 84.18C1163.01 83.0785 1161.69 81.5552 1160.81 79.61C1159.93 77.6164 1159.63 75.191 1159.91 72.3339C1160.32 68.1208 1162.11 65.1671 1165.26 63.4728C1168.41 61.73 1172.95 61.0529 1178.88 61.4415L1185.8 61.9037L1185.97 60.1603C1186.18 58.078 1185.77 56.4977 1184.75 55.4194C1183.78 54.3459 1182.33 53.7137 1180.39 53.5228C1178.46 53.3319 1176.54 53.4363 1174.64 53.836C1172.75 54.1874 1170.84 54.684 1168.92 55.3259L1166.08 47.6385C1168.32 46.7347 1170.76 46.0945 1173.39 45.7179C1176.06 45.3461 1178.81 45.2986 1181.62 45.5754ZM1180.95 67.9533C1177.45 67.7065 1174.97 68.0974 1173.5 69.126C1172.03 70.1546 1171.2 71.6132 1171.02 73.5018C1170.85 75.1483 1171.22 76.3825 1172.12 77.2043C1173.02 77.9778 1174.24 78.4408 1175.79 78.5935C1178.12 78.8226 1180.15 78.338 1181.88 77.1395C1183.62 75.8927 1184.61 74.0102 1184.86 71.492L1185.18 68.2232L1180.95 67.9533Z" fill="#F15C30"/>
<path d="M1155.93 43.1171C1156.46 43.1696 1157.09 43.2558 1157.81 43.3758C1158.53 43.4958 1159.11 43.6258 1159.53 43.7656L1157.73 53.8563C1157.4 53.726 1156.9 53.6033 1156.23 53.488C1155.61 53.3291 1155.05 53.2258 1154.57 53.1781C1153.17 53.0397 1151.79 53.0998 1150.45 53.3583C1149.1 53.5684 1147.86 54.0084 1146.72 54.6782C1145.63 55.3528 1144.7 56.3128 1143.94 57.5583C1143.24 58.7601 1142.79 60.3053 1142.61 62.1939L1140.62 82.3876L1129.79 81.3209L1133.7 41.66L1141.91 42.4689L1142.85 49.3092L1143.36 49.3593C1144.27 48.0798 1145.36 46.9404 1146.63 45.9411C1147.9 44.9419 1149.32 44.1772 1150.89 43.6472C1152.51 43.122 1154.18 42.9452 1155.93 43.1171Z" fill="#F15C30"/>
<path d="M1098.82 35.5085C1098.67 37.0097 1098.48 38.4819 1098.24 39.9252C1098 41.3684 1097.79 42.4969 1097.61 43.3106L1098.05 43.3535C1099.28 41.812 1100.84 40.5727 1102.74 39.6355C1104.65 38.6498 1107.03 38.2978 1109.89 38.5794C1114.34 39.0185 1117.78 41.1174 1120.2 44.8761C1122.62 48.5864 1123.5 53.8071 1122.83 60.5383C1122.39 65.0419 1121.36 68.779 1119.75 71.7494C1118.19 74.6761 1116.19 76.8022 1113.76 78.1275C1111.34 79.4528 1108.6 79.9651 1105.54 79.6644C1102.64 79.3781 1100.39 78.6429 1098.79 77.4589C1097.25 76.2313 1096.01 74.9112 1095.08 73.4987L1094.35 73.4271L1092.11 77.6065L1083.82 76.7904L1089.27 21.5847L1100.09 22.6514L1098.82 35.5085ZM1105.55 46.8798C1103.66 46.6937 1102.12 46.9331 1100.93 47.5982C1099.74 48.2632 1098.8 49.3685 1098.11 50.9141C1097.47 52.416 1097.01 54.351 1096.73 56.7191L1096.62 57.8813C1096.24 61.707 1096.51 64.7159 1097.41 66.9079C1098.38 69.0564 1100.36 70.2785 1103.36 70.5745C1105.59 70.794 1107.46 69.9512 1108.96 68.0462C1110.48 66.0928 1111.42 63.179 1111.81 59.3049C1112.19 55.4308 1111.8 52.4584 1110.63 50.3878C1109.52 48.2734 1107.82 47.1041 1105.55 46.8798Z" fill="#F15C30"/>
<path d="M1076.43 36.0157L1072.52 75.6766L1061.69 74.61L1065.6 34.949L1076.43 36.0157ZM1072.58 19.9412C1074.18 20.0987 1075.52 20.6221 1076.61 21.5115C1077.7 22.3524 1078.14 23.7898 1077.94 25.8237C1077.75 27.8092 1077.03 29.1321 1075.79 29.7923C1074.55 30.4526 1073.13 30.704 1071.54 30.5465C1069.89 30.3842 1068.52 29.8584 1067.44 28.9691C1066.4 28.0845 1065.98 26.6494 1066.18 24.664C1066.38 22.6301 1067.07 21.3048 1068.25 20.6882C1069.49 20.0279 1070.94 19.7789 1072.58 19.9412Z" fill="#F15C30"/>
<path d="M1021.49 70.6477L1026.6 18.7834L1037.57 19.8644L1033.35 62.6488L1054.42 64.7249L1053.52 73.8048L1021.49 70.6477Z" fill="#F15C30"/>
<path d="M979.159 25.6966C982.839 26.0593 985.918 27.0717 988.394 28.7338C990.919 30.4006 992.777 32.6374 993.967 35.444C995.158 38.2506 995.562 41.5909 995.18 45.465L994.665 50.695L969.096 48.1751C968.892 51.2355 969.551 53.7209 971.075 55.6312C972.646 57.5464 974.957 58.6543 978.008 58.955C980.575 59.2079 982.923 59.1949 985.053 58.9158C987.188 58.5884 989.422 58.0017 991.754 57.1559L990.931 65.5094C988.898 66.287 986.771 66.7863 984.549 67.0074C982.37 67.2817 979.756 67.2685 976.705 66.9678C972.734 66.5764 969.295 65.504 966.387 63.7506C963.484 61.9487 961.309 59.4606 959.862 56.2864C958.414 53.1122 957.915 49.2491 958.363 44.697C958.822 40.0481 959.976 36.2746 961.826 33.3765C963.73 30.4347 966.162 28.3274 969.123 27.0546C972.085 25.7818 975.43 25.3291 979.159 25.6966ZM978.473 33.4035C976.39 33.1983 974.58 33.7044 973.042 34.922C971.553 36.1442 970.546 38.172 970.022 41.0053L985.204 42.5015C985.361 40.9035 985.212 39.4463 984.755 38.1299C984.346 36.8183 983.621 35.7445 982.578 34.9083C981.536 34.0721 980.168 33.5705 978.473 33.4035Z" fill="#F15C30"/>
<path d="M926.249 16.8868C926.058 18.8238 925.801 20.681 925.48 22.4585C925.206 24.2407 924.985 25.4902 924.817 26.2071L925.398 26.2644C926.403 24.9943 927.528 24.005 928.771 23.2963C930.019 22.5391 931.364 22.0361 932.807 21.7871C934.303 21.4944 935.85 21.4268 937.448 21.5843C940.305 21.8659 942.749 22.6202 944.779 23.8471C946.81 25.0741 948.301 26.8102 949.253 29.0555C950.254 31.3055 950.587 34.1255 950.253 37.5153L947.704 63.3748L936.881 62.3081L939.165 39.1363C939.447 36.2791 939.124 34.0959 938.197 32.5865C937.323 31.0335 935.797 30.1496 933.617 29.9349C931.438 29.7201 929.669 30.0592 928.31 30.952C926.999 31.8496 925.982 33.2407 925.258 35.1253C924.534 37.0098 924.034 39.3564 923.757 42.1652L921.918 60.8334L911.094 59.7667L916.535 4.56104L927.358 5.62771L926.249 16.8868Z" fill="#F15C30"/>
<path d="M889.876 57.6766L878.907 56.5956L883.117 13.8839L869.025 12.4951L869.927 3.34253L909.079 7.20118L908.177 16.3537L894.085 14.9649L889.876 57.6766Z" fill="#F15C30"/>
</svg>
