<svg width="1208" height="98" viewBox="0 0 1208 98" fill="none" xmlns="http://www.w3.org/2000/svg">
<path d="M1189.34 28.2692C1189.3 27.0584 1189.43 25.9704 1189.73 25.0051C1190.03 24.0398 1190.53 23.1227 1191.23 22.2537C1191.97 21.3834 1192.95 20.4866 1194.17 19.5632C1195.24 18.7183 1196.1 17.9727 1196.74 17.3263C1197.41 16.6787 1197.89 16.038 1198.16 15.4042C1198.47 14.7691 1198.61 14.0663 1198.58 13.2958C1198.54 12.1217 1198.07 11.2562 1197.17 10.6993C1196.31 10.1045 1195.1 9.83347 1193.56 9.88627C1192.02 9.93907 1190.51 10.2297 1189.02 10.7583C1187.53 11.2868 1186.01 11.9817 1184.46 12.8429L1181.34 7.05399C1183.11 6.00174 1185.02 5.12791 1187.09 4.43251C1189.16 3.73711 1191.45 3.34666 1193.94 3.26118C1197.76 3.13043 1200.74 3.9465 1202.9 5.70939C1205.09 7.47101 1206.23 9.76443 1206.33 12.5896C1206.38 14.094 1206.19 15.4046 1205.75 16.5217C1205.31 17.6388 1204.63 18.6906 1203.71 19.6773C1202.78 20.6272 1201.63 21.6588 1200.23 22.7718C1199.19 23.5788 1198.39 24.2675 1197.82 24.838C1197.25 25.4085 1196.87 25.9543 1196.67 26.4755C1196.5 26.9955 1196.43 27.6407 1196.46 28.4112L1196.51 30.0073L1189.41 30.2505L1189.34 28.2692ZM1188.85 39.4718C1188.79 37.784 1189.21 36.5942 1190.1 35.9023C1191 35.1738 1192.1 34.7868 1193.42 34.7416C1194.71 34.6976 1195.82 35.0084 1196.76 35.6741C1197.7 36.3031 1198.2 37.4615 1198.26 39.1493C1198.31 40.7637 1197.89 41.9535 1197 42.7188C1196.11 43.4473 1195.02 43.8336 1193.74 43.8776C1192.42 43.9229 1191.28 43.6127 1190.34 42.947C1189.4 42.2446 1188.9 41.0862 1188.85 39.4718Z" fill="white"/>
<path d="M1165.54 13.491C1168.33 13.3955 1170.73 13.8458 1172.75 14.8419C1174.81 15.8368 1176.42 17.3244 1177.59 19.3047C1178.76 21.285 1179.39 23.7428 1179.49 26.678L1179.63 30.6406L1160.26 31.3044C1160.41 33.6134 1161.15 35.4064 1162.48 36.6832C1163.85 37.9588 1165.68 38.5571 1168 38.4779C1169.94 38.4112 1171.7 38.1674 1173.26 37.7465C1174.82 37.2888 1176.44 36.6275 1178.1 35.7624L1178.31 42.0916C1176.87 42.8757 1175.33 43.4612 1173.69 43.848C1172.09 44.2702 1170.13 44.5209 1167.82 44.6001C1164.81 44.7032 1162.13 44.244 1159.78 43.2224C1157.43 42.1642 1155.56 40.5203 1154.16 38.2907C1152.76 36.0612 1152 33.2219 1151.88 29.773C1151.76 26.2506 1152.25 23.3136 1153.34 20.9618C1154.48 18.5721 1156.08 16.7538 1158.17 15.5068C1160.26 14.2597 1162.72 13.5878 1165.54 13.491ZM1165.8 19.323C1164.22 19.377 1162.92 19.936 1161.89 20.9998C1160.89 22.0623 1160.34 23.6791 1160.23 25.8502L1171.74 25.456C1171.7 24.2452 1171.44 23.1704 1170.97 22.2315C1170.53 21.2914 1169.88 20.5606 1169.02 20.0392C1168.15 19.5177 1167.08 19.279 1165.8 19.323Z" fill="white"/>
<path d="M1146.03 14.16C1146.43 14.1461 1146.91 14.1481 1147.46 14.166C1148.01 14.1838 1148.45 14.2237 1148.79 14.2858L1148.45 22.0116C1148.19 21.9471 1147.8 21.9052 1147.28 21.8861C1146.8 21.8291 1146.38 21.8069 1146.01 21.8194C1144.95 21.8559 1143.93 22.0379 1142.95 22.3653C1141.97 22.6561 1141.08 23.1088 1140.29 23.7236C1139.54 24.337 1138.95 25.1472 1138.5 26.1542C1138.1 27.1233 1137.92 28.3233 1137.97 29.7542L1138.49 45.0543L1130.29 45.3353L1129.26 15.2855L1135.48 15.0724L1136.86 20.0942L1137.25 20.081C1137.8 19.0336 1138.5 18.0728 1139.35 17.1988C1140.21 16.3247 1141.19 15.6113 1142.31 15.0587C1143.47 14.5048 1144.71 14.2052 1146.03 14.16Z" fill="white"/>
<path d="M1120.66 15.5799L1121.69 45.6297L1115.42 45.8447L1114.18 42.0298L1113.74 42.0449C1113.15 43.0936 1112.38 43.9652 1111.41 44.6596C1110.48 45.316 1109.43 45.8111 1108.26 46.1448C1107.1 46.5153 1105.9 46.7219 1104.65 46.7646C1102.52 46.8375 1100.64 46.5164 1098.99 45.8012C1097.35 45.086 1096.07 43.9363 1095.13 42.3521C1094.19 40.7679 1093.68 38.6916 1093.59 36.1232L1092.92 16.5303L1101.12 16.2493L1101.72 33.8059C1101.8 35.9339 1102.24 37.5351 1103.05 38.6095C1103.85 39.6838 1105.1 40.192 1106.79 40.1342C1108.48 40.0764 1109.77 39.6465 1110.66 38.8446C1111.59 38.0414 1112.21 36.8997 1112.52 35.4195C1112.88 33.938 1113.02 32.1332 1112.94 30.0052L1112.46 15.8608L1120.66 15.5799Z" fill="white"/>
<path d="M1082.71 40.9592C1083.62 40.9277 1084.5 40.8058 1085.34 40.5935C1086.18 40.3811 1087.01 40.132 1087.85 39.8463L1088.06 45.9553C1087.19 46.3524 1086.1 46.702 1084.79 47.0041C1083.51 47.3416 1082.11 47.5368 1080.57 47.5896C1078.77 47.6512 1077.14 47.413 1075.69 46.8749C1074.28 46.3357 1073.12 45.365 1072.23 43.963C1071.37 42.523 1070.9 40.5188 1070.81 37.9505L1070.32 23.4759L1066.41 23.6098L1066.29 20.1425L1070.71 17.2361L1072.86 10.8258L1078.09 10.6467L1078.31 17.0309L1086.73 16.7424L1086.94 22.9064L1078.52 23.1949L1079.01 37.6695C1079.05 38.8069 1079.41 39.6578 1080.09 40.2223C1080.77 40.75 1081.64 40.9956 1082.71 40.9592Z" fill="white"/>
<path d="M1060.63 17.637L1061.66 47.6868L1055.38 47.9018L1054.15 44.087L1053.71 44.102C1053.12 45.1508 1052.34 46.0223 1051.37 46.7167C1050.44 47.3731 1049.39 47.8682 1048.23 48.202C1047.07 48.5724 1045.86 48.779 1044.61 48.8218C1042.49 48.8947 1040.6 48.5735 1038.96 47.8583C1037.32 47.1431 1036.03 45.9934 1035.1 44.4092C1034.16 42.825 1033.65 40.7487 1033.56 38.1803L1032.89 18.5874L1041.09 18.3064L1041.69 35.863C1041.76 37.9911 1042.2 39.5923 1043.01 40.6666C1043.82 41.7409 1045.07 42.2492 1046.76 42.1913C1048.44 42.1335 1049.73 41.7036 1050.62 40.9017C1051.55 40.0985 1052.17 38.9568 1052.49 37.4766C1052.84 35.9951 1052.98 34.1904 1052.91 32.0623L1052.43 17.918L1060.63 17.637Z" fill="white"/>
<path d="M1028.6 24.9056L1021.5 25.1488L1022.32 49.0346L1014.12 49.3156L1013.3 25.4298L1008.79 25.5844L1008.65 21.6218L1013.09 19.2658L1013.01 17.0643C1012.93 14.4959 1013.28 12.5002 1014.08 11.077C1014.91 9.61589 1016.1 8.56478 1017.66 7.92367C1019.25 7.2813 1021.13 6.92303 1023.3 6.84886C1024.91 6.79354 1026.37 6.8723 1027.66 7.08514C1028.99 7.29672 1030.06 7.55379 1030.88 7.85635L1029 13.927C1028.37 13.7649 1027.68 13.623 1026.94 13.5014C1026.2 13.3431 1025.36 13.2803 1024.4 13.313C1023.26 13.3519 1022.43 13.7294 1021.91 14.4454C1021.42 15.1601 1021.19 16.0495 1021.23 17.1135L1021.29 18.9848L1028.39 18.7415L1028.6 24.9056Z" fill="white"/>
<path d="M977.321 19.9402C980.11 19.8447 982.513 20.295 984.531 21.2911C986.585 22.286 988.197 23.7736 989.367 25.7539C990.537 27.7342 991.172 30.192 991.273 33.1272L991.409 37.0899L972.036 37.7536C972.188 40.0626 972.929 41.8556 974.259 43.1325C975.625 44.4081 977.464 45.0063 979.775 44.9271C981.72 44.8604 983.475 44.6166 985.04 44.1957C986.604 43.738 988.216 43.0767 989.876 42.2117L990.093 48.5408C988.65 49.3249 987.109 49.9104 985.469 50.2972C983.867 50.7194 981.911 50.9701 979.599 51.0493C976.591 51.1524 973.912 50.6932 971.562 49.6716C969.212 48.6134 967.337 46.9695 965.938 44.74C964.54 42.5104 963.781 39.6711 963.663 36.2222C963.542 32.6999 964.029 29.7628 965.124 27.4111C966.255 25.0214 967.864 23.203 969.952 21.956C972.039 20.709 974.496 20.037 977.321 19.9402ZM977.576 25.7722C975.998 25.8263 974.695 26.3852 973.666 27.449C972.674 28.5115 972.123 30.1283 972.014 32.2994L983.517 31.9053C983.475 30.6945 983.218 29.6196 982.745 28.6807C982.309 27.7406 981.659 27.0098 980.796 26.4884C979.934 25.9669 978.86 25.7282 977.576 25.7722Z" fill="white"/>
<path d="M936.875 18.6261C936.925 20.0938 936.919 21.5082 936.855 22.8696C936.828 24.2296 936.787 25.1861 936.733 25.739L937.173 25.7239C937.798 24.6739 938.541 23.822 939.4 23.1681C940.258 22.4775 941.214 21.9672 942.268 21.6372C943.357 21.2693 944.507 21.0646 945.718 21.0231C947.883 20.9489 949.786 21.2694 951.426 21.9846C953.067 22.6998 954.355 23.8495 955.291 25.4337C956.264 27.0167 956.794 29.0924 956.882 31.6607L957.554 51.2536L949.353 51.5346L948.752 33.978C948.677 31.8133 948.218 30.2127 947.375 29.1763C946.567 28.102 945.337 27.5931 943.686 27.6497C942.035 27.7063 940.746 28.1362 939.818 28.9393C938.927 29.7413 938.305 30.883 937.952 32.3644C937.598 33.8459 937.458 35.6507 937.531 37.7788L938.016 51.9231L929.815 52.2041L928.382 10.3765L936.582 10.0955L936.875 18.6261Z" fill="white"/>
<path d="M918.404 46.5888C919.321 46.5574 920.199 46.4355 921.037 46.2231C921.874 46.0107 922.71 45.7617 923.546 45.4759L923.755 51.585C922.887 51.982 921.797 52.3316 920.485 52.6337C919.211 52.9713 917.803 53.1664 916.262 53.2192C914.464 53.2808 912.84 53.0426 911.389 52.5046C909.974 51.9653 908.821 50.9946 907.928 49.5926C907.07 48.1526 906.597 46.1485 906.509 43.5801L906.014 29.1056L902.106 29.2394L901.987 25.7722L906.406 22.8657L908.556 16.4554L913.784 16.2763L914.003 22.6605L922.423 22.372L922.634 28.5361L914.214 28.8246L914.71 43.2991C914.749 44.4365 915.109 45.2875 915.789 45.8519C916.468 46.3796 917.34 46.6253 918.404 46.5888Z" fill="white"/>
<path d="M886.173 29.7852L879.073 30.0285L879.891 53.9142L871.691 54.1952L870.872 30.3095L866.36 30.4641L866.224 26.5015L870.661 24.1454L870.586 21.9439C870.498 19.3756 870.852 17.3798 871.648 15.9566C872.48 14.4955 873.674 13.4444 875.232 12.8033C876.826 12.1609 878.706 11.8027 880.87 11.7285C882.485 11.6732 883.938 11.7519 885.231 11.9648C886.561 12.1764 887.635 12.4334 888.454 12.736L886.568 18.8066C885.938 18.6445 885.253 18.5027 884.515 18.381C883.774 18.2227 882.927 18.1599 881.973 18.1926C880.836 18.2316 880.004 18.6091 879.478 19.325C878.988 20.0398 878.761 20.9291 878.798 21.9932L878.862 23.8644L885.961 23.6212L886.173 29.7852Z" fill="white"/>
<path d="M863.078 39.3933C863.164 41.8883 862.891 44.12 862.261 46.0885C861.667 48.0558 860.751 49.7402 859.514 51.1417C858.311 52.5053 856.823 53.5665 855.049 54.3252C853.274 55.0473 851.249 55.4473 848.974 55.5252C846.883 55.5969 844.927 55.3333 843.106 54.7344C841.321 54.0977 839.764 53.1408 838.435 51.864C837.104 50.5504 836.038 48.9339 835.238 47.0144C834.474 45.0937 834.05 42.8858 833.964 40.3908C833.85 37.052 834.341 34.225 835.437 31.9099C836.532 29.5582 838.159 27.7392 840.319 26.453C842.479 25.1667 845.063 24.4721 848.072 24.369C850.897 24.2722 853.413 24.7921 855.619 25.9287C857.825 27.0654 859.592 28.7681 860.919 31.0369C862.244 33.2689 862.964 36.0544 863.078 39.3933ZM842.33 40.1042C842.398 42.0855 842.657 43.748 843.107 45.0918C843.592 46.3976 844.306 47.3833 845.247 48.049C846.187 48.678 847.39 48.9674 848.858 48.9171C850.326 48.8668 851.488 48.4963 852.346 47.8057C853.24 47.0772 853.866 46.0456 854.224 44.7109C854.618 43.3382 854.781 41.6612 854.713 39.6799C854.645 37.6986 854.368 36.0551 853.883 34.7493C853.434 33.4422 852.739 32.4742 851.8 31.8452C850.86 31.2162 849.656 30.9268 848.188 30.9771C846.023 31.0513 844.472 31.8575 843.532 33.3958C842.629 34.8961 842.228 37.1323 842.33 40.1042Z" fill="white"/>
<path d="M802.159 25.9416C805.571 25.8247 808.17 26.6173 809.955 28.3194C811.775 29.9835 812.751 32.7418 812.883 36.5944L813.554 56.1873L805.354 56.4683L804.752 38.9117C804.678 36.7469 804.256 35.1451 803.486 34.1062C802.714 33.0306 801.558 32.5192 800.017 32.572C797.852 32.6462 796.338 33.4695 795.473 35.042C794.609 36.6144 794.226 38.8499 794.325 41.7485L794.842 56.8285L786.642 57.1094L786.04 39.5528C785.991 38.1219 785.785 36.9351 785.422 35.9925C785.059 35.0498 784.539 34.3513 783.863 33.897C783.185 33.4059 782.332 33.178 781.305 33.2132C779.8 33.2647 778.621 33.6908 777.767 34.4915C776.913 35.2922 776.327 36.4327 776.011 37.9129C775.694 39.3931 775.572 41.1972 775.645 43.3253L776.13 57.4696L767.929 57.7506L766.9 27.7008L773.174 27.4858L774.407 31.3006L774.847 31.2855C775.435 30.2368 776.178 29.3849 777.074 28.7297C777.968 28.0378 778.961 27.5263 780.052 27.195C781.178 26.8258 782.309 26.6218 783.447 26.5828C785.648 26.5074 787.532 26.8102 789.098 27.4912C790.663 28.1355 791.875 29.196 792.734 30.6727L793.449 30.6481C794.314 29.0757 795.541 27.9133 797.132 27.1608C798.759 26.4071 800.435 26.0007 802.159 25.9416Z" fill="white"/>
<path d="M760.637 42.9031C760.722 45.398 760.45 47.6298 759.819 49.5983C759.226 51.5655 758.31 53.2499 757.072 54.6515C755.87 56.0151 754.382 57.0763 752.608 57.835C750.833 58.557 748.808 58.957 746.533 59.035C744.441 59.1066 742.486 58.843 740.665 58.2442C738.88 57.6074 737.323 56.6506 735.993 55.3737C734.663 54.0602 733.597 52.4436 732.797 50.5242C732.033 48.6034 731.608 46.3956 731.523 43.9006C731.408 40.5617 731.899 37.7348 732.995 35.4197C734.09 33.068 735.718 31.249 737.878 29.9627C740.038 28.6765 742.622 27.9819 745.631 27.8788C748.456 27.782 750.972 28.3019 753.178 29.4385C755.384 30.5751 757.151 32.2778 758.477 34.5466C759.803 36.7787 760.523 39.5642 760.637 42.9031ZM739.888 43.614C739.956 45.5953 740.215 47.2578 740.665 48.6015C741.151 49.9073 741.864 50.8931 742.805 51.5588C743.745 52.1878 744.949 52.4771 746.417 52.4268C747.884 52.3766 749.047 52.0061 749.905 51.3155C750.798 50.587 751.424 49.5553 751.783 48.2206C752.176 46.848 752.339 45.171 752.271 43.1897C752.204 41.2084 751.927 39.5648 751.441 38.2591C750.992 36.952 750.298 35.984 749.358 35.355C748.418 34.726 747.214 34.4366 745.747 34.4869C743.582 34.5611 742.03 35.3673 741.091 36.9056C740.187 38.4059 739.786 40.642 739.888 43.614Z" fill="white"/>
<path d="M726.561 44.0708C726.647 46.5658 726.374 48.7975 725.744 50.766C725.15 52.7333 724.234 54.4177 722.997 55.8192C721.794 57.1828 720.306 58.244 718.532 59.0027C716.757 59.7248 714.732 60.1248 712.457 60.2027C710.366 60.2744 708.41 60.0108 706.589 59.4119C704.804 58.7752 703.247 57.8183 701.918 56.5415C700.587 55.2279 699.521 53.6114 698.721 51.6919C697.957 49.7712 697.533 47.5633 697.447 45.0683C697.333 41.7295 697.824 38.9025 698.92 36.5874C700.015 34.2357 701.642 32.4167 703.802 31.1305C705.962 29.8442 708.546 29.1496 711.555 29.0465C714.38 28.9497 716.896 29.4696 719.102 30.6062C721.308 31.7429 723.075 33.4456 724.402 35.7143C725.727 37.9464 726.447 40.7319 726.561 44.0708ZM705.813 44.7817C705.88 46.763 706.139 48.4255 706.59 49.7693C707.075 51.0751 707.788 52.0608 708.73 52.7265C709.67 53.3555 710.873 53.6449 712.341 53.5946C713.809 53.5443 714.971 53.1738 715.829 52.4832C716.723 51.7547 717.349 50.723 717.707 49.3883C718.101 48.0157 718.264 46.3387 718.196 44.3574C718.128 42.3761 717.851 40.7326 717.366 39.4268C716.917 38.1197 716.222 37.1517 715.282 36.5227C714.343 35.8937 713.139 35.6043 711.671 35.6546C709.506 35.7288 707.954 36.535 707.015 38.0733C706.112 39.5736 705.711 41.8097 705.813 44.7817Z" fill="white"/>
<path d="M691.601 29.7298C692.004 29.716 692.482 29.718 693.033 29.7358C693.585 29.7536 694.027 29.7936 694.36 29.8556L694.018 37.5815C693.759 37.5169 693.372 37.4751 692.857 37.456C692.378 37.3989 691.954 37.3767 691.587 37.3893C690.523 37.4257 689.501 37.6077 688.521 37.9351C687.539 38.2259 686.654 38.6787 685.867 39.2934C685.117 39.9068 684.52 40.7171 684.077 41.7241C683.669 42.6931 683.49 43.8931 683.539 45.3241L684.063 60.6241L675.863 60.9051L674.833 30.8553L681.052 30.6422L682.437 35.6641L682.822 35.6509C683.374 34.6034 684.076 33.6426 684.927 32.7686C685.779 31.8945 686.765 31.1812 687.884 30.6285C689.041 30.0746 690.28 29.775 691.601 29.7298Z" fill="white"/>
<path d="M669.169 52.2078C669.238 54.2258 668.82 55.9666 667.915 57.4303C667.009 58.8572 665.615 59.9703 663.732 60.7694C661.849 61.5686 659.495 62.0166 656.67 62.1134C654.579 62.1851 652.776 62.0999 651.261 61.8579C649.748 61.6526 648.229 61.2639 646.703 60.6917L646.471 53.9222C648.111 54.6007 649.874 55.1464 651.762 55.5593C653.649 55.9722 655.309 56.1541 656.74 56.105C658.354 56.0497 659.483 55.7723 660.127 55.2727C660.808 54.7718 661.135 54.1361 661.109 53.3656C661.091 52.8519 660.929 52.3983 660.622 52.0048C660.351 51.61 659.748 51.1715 658.813 50.6892C657.878 50.207 656.425 49.5956 654.453 48.855C652.554 48.1119 650.986 47.3759 649.748 46.6468C648.51 45.8811 647.578 44.958 646.954 43.8773C646.327 42.76 645.986 41.3575 645.928 39.6697C645.832 36.8812 646.843 34.7527 648.96 33.2843C651.077 31.8159 653.933 31.0201 657.529 30.8969C659.4 30.8328 661.186 30.9553 662.886 31.2643C664.587 31.5734 666.35 32.1191 668.177 32.9014L665.902 38.8751C664.896 38.4688 663.929 38.1162 663.001 37.8174C662.072 37.5186 661.164 37.2926 660.277 37.1393C659.427 36.9848 658.544 36.9232 657.626 36.9547C656.416 36.9961 655.504 37.1927 654.891 37.5443C654.316 37.8946 654.039 38.4 654.062 39.0604C654.078 39.5374 654.24 39.9727 654.547 40.3662C654.89 40.7218 655.509 41.1046 656.405 41.5148C657.337 41.9236 658.697 42.4648 660.483 43.1383C662.231 43.7763 663.743 44.4592 665.016 45.187C666.289 45.8781 667.275 46.781 667.974 47.8958C668.709 48.9726 669.107 50.41 669.169 52.2078Z" fill="white"/>
<path d="M641.812 53.1456C641.881 55.1636 641.463 56.9044 640.558 58.368C639.652 59.7949 638.258 60.908 636.375 61.7072C634.492 62.5064 632.138 62.9544 629.313 63.0512C627.221 63.1228 625.419 63.0377 623.904 62.7957C622.391 62.5904 620.872 62.2017 619.346 61.6295L619.114 54.86C620.754 55.5385 622.517 56.0842 624.405 56.497C626.292 56.9099 627.952 57.0918 629.382 57.0428C630.997 56.9875 632.126 56.71 632.77 56.2104C633.451 55.7095 633.778 55.0738 633.752 54.3033C633.734 53.7897 633.572 53.3361 633.264 52.9425C632.994 52.5477 632.391 52.1092 631.456 51.627C630.521 51.1447 629.068 50.5333 627.095 49.7927C625.196 49.0497 623.628 48.3136 622.391 47.5846C621.153 46.8189 620.221 45.8957 619.596 44.8151C618.97 43.6978 618.628 42.2952 618.571 40.6075C618.475 37.819 619.486 35.6905 621.603 34.2221C623.72 32.7536 626.576 31.9578 630.172 31.8346C632.043 31.7705 633.829 31.893 635.529 32.2021C637.229 32.5112 638.993 33.0568 640.82 33.8391L638.545 39.8129C637.539 39.4065 636.572 39.054 635.643 38.7552C634.715 38.4564 633.807 38.2303 632.92 38.0771C632.07 37.9225 631.186 37.861 630.269 37.8924C629.058 37.9339 628.147 38.1304 627.534 38.482C626.959 38.8323 626.682 39.3377 626.705 39.9982C626.721 40.4751 626.883 40.9104 627.19 41.3039C627.533 41.6595 628.152 42.0424 629.048 42.4525C629.98 42.8614 631.34 43.4025 633.126 44.076C634.874 44.7141 636.385 45.397 637.659 46.1247C638.932 46.8158 639.918 47.7187 640.617 48.8335C641.352 49.9104 641.75 51.3477 641.812 53.1456Z" fill="white"/>
<path d="M599.21 32.8403C603.246 32.702 606.359 33.477 608.547 35.1652C610.771 36.8155 611.944 39.4385 612.068 43.0342L612.754 63.0674L607.03 63.2636L605.295 59.2456L605.074 59.2531C604.267 60.346 603.417 61.2568 602.523 61.9854C601.666 62.7127 600.656 63.2432 599.492 63.5769C598.366 63.9461 596.959 64.1596 595.271 64.2175C593.51 64.2778 591.903 64.0023 590.449 63.3909C589.031 62.7415 587.894 61.7335 587.039 60.3669C586.183 58.9637 585.718 57.1796 585.644 55.0149C585.534 51.8228 586.573 49.4362 588.76 47.8552C590.945 46.2375 594.273 45.2786 598.745 44.9784L603.967 44.6342L603.922 43.3133C603.868 41.7356 603.407 40.5943 602.537 39.8894C601.705 39.1832 600.555 38.8553 599.088 38.9056C597.62 38.9559 596.197 39.225 594.817 39.7131C593.437 40.1645 592.06 40.7259 590.687 41.3974L587.8 35.9312C589.386 35.032 591.142 34.3106 593.071 33.767C595.036 33.2221 597.082 32.9132 599.21 32.8403ZM600.943 49.6418C598.304 49.8057 596.486 50.3455 595.488 51.2613C594.491 52.1771 594.017 53.3504 594.066 54.7814C594.109 56.0289 594.507 56.9152 595.259 57.4405C596.011 57.929 596.974 58.1531 598.148 58.1129C599.909 58.0526 601.377 57.488 602.553 56.4191C603.727 55.3136 604.282 53.8069 604.216 51.899L604.131 49.4223L600.943 49.6418Z" fill="white"/>
<path d="M579.364 64.2119L571.164 64.4929L569.731 22.6653L577.931 22.3843L579.364 64.2119Z" fill="white"/>
<path d="M555.13 65.5928C552.158 65.6946 549.609 65.2493 547.481 64.257C545.352 63.2279 543.698 61.5948 542.519 59.3577C541.34 57.1206 540.69 54.2225 540.568 50.6635C540.442 46.9944 540.964 43.9827 542.132 41.6284C543.3 39.2742 544.966 37.509 547.13 36.3328C549.33 35.1554 551.88 34.517 554.779 34.4177C556.833 34.3473 558.62 34.4881 560.138 34.8402C561.693 35.191 563.048 35.6221 564.204 36.1335L562 42.5456C560.698 42.076 559.473 41.6955 558.324 41.4043C557.212 41.1118 556.106 40.9844 555.005 41.0221C553.574 41.0711 552.393 41.4605 551.463 42.1903C550.532 42.8835 549.851 43.917 549.421 45.2909C549.026 46.6268 548.863 48.3038 548.932 50.3218C549 52.3031 549.295 53.946 549.817 55.2506C550.375 56.5171 551.142 57.4643 552.118 58.0921C553.094 58.6831 554.26 58.9554 555.618 58.9089C557.342 58.8498 558.857 58.5775 560.163 58.0919C561.468 57.5697 562.73 56.8836 563.95 56.0337L564.189 63.0233C562.969 63.8732 561.668 64.4872 560.285 64.8652C558.94 65.2786 557.222 65.5211 555.13 65.5928Z" fill="white"/>
<path d="M507.418 36.0411C510.206 35.9455 512.609 36.3958 514.627 37.392C516.681 38.3869 518.294 39.8745 519.463 41.8547C520.633 43.835 521.269 46.2928 521.369 49.2281L521.505 53.1907L502.132 53.8545C502.285 56.1635 503.026 57.9564 504.355 59.2333C505.721 60.5089 507.56 61.1071 509.872 61.0279C511.816 60.9613 513.571 60.7175 515.136 60.2965C516.7 59.8389 518.312 59.1775 519.972 58.3125L520.189 64.6417C518.747 65.4258 517.206 66.0112 515.566 66.398C513.964 66.8202 512.007 67.0709 509.696 67.1501C506.687 67.2532 504.008 66.794 501.659 65.7725C499.308 64.7143 497.434 63.0704 496.035 60.8408C494.636 58.6112 493.878 55.7719 493.759 52.323C493.639 48.8007 494.126 45.8636 495.221 43.5119C496.351 41.1222 497.96 39.3038 500.048 38.0568C502.136 36.8098 504.592 36.1379 507.418 36.0411ZM507.673 41.873C506.095 41.9271 504.792 42.486 503.763 43.5498C502.771 44.6124 502.22 46.2292 502.111 48.4002L513.613 48.0061C513.572 46.7953 513.314 45.7205 512.841 44.7816C512.405 43.8414 511.756 43.1107 510.893 42.5892C510.03 42.0678 508.957 41.829 507.673 41.873Z" fill="white"/>
<path d="M466.969 34.7269C467.019 36.1946 467.013 37.6091 466.949 38.9704C466.922 40.3305 466.882 41.287 466.827 41.8398L467.267 41.8247C467.893 40.7748 468.635 39.9228 469.494 39.2689C470.352 38.5783 471.308 38.068 472.362 37.738C473.451 37.3701 474.601 37.1654 475.812 37.1239C477.977 37.0497 479.88 37.3702 481.521 38.0854C483.161 38.8006 484.45 39.9503 485.386 41.5346C486.358 43.1175 486.888 45.1932 486.976 47.7616L487.648 67.3545L479.447 67.6355L478.846 50.0789C478.772 47.9141 478.313 46.3135 477.469 45.2772C476.661 44.2028 475.431 43.694 473.78 43.7505C472.129 43.8071 470.84 44.237 469.912 45.0402C469.021 45.8421 468.399 46.9838 468.046 48.4653C467.693 49.9467 467.552 51.7515 467.625 53.8796L468.11 68.0239L459.909 68.3049L458.476 26.4773L466.677 26.1963L466.969 34.7269Z" fill="white"/>
<path d="M448.498 62.6896C449.416 62.6582 450.293 62.5363 451.131 62.3239C451.968 62.1116 452.805 61.8625 453.64 61.5768L453.849 67.6858C452.981 68.0829 451.891 68.4325 450.579 68.7345C449.305 69.0721 447.897 69.2672 446.356 69.32C444.558 69.3816 442.934 69.1434 441.483 68.6054C440.069 68.0661 438.915 67.0955 438.022 65.6934C437.165 64.2535 436.692 62.2493 436.604 59.6809L436.108 45.2064L432.2 45.3403L432.081 41.873L436.5 38.9665L438.65 32.5563L443.878 32.3771L444.097 38.7613L452.518 38.4728L452.729 44.6369L444.308 44.9254L444.804 59.4C444.843 60.5374 445.203 61.3883 445.883 61.9527C446.563 62.4805 447.434 62.7261 448.498 62.6896Z" fill="white"/>
<path d="M395.616 39.8713C397.451 39.8085 399.114 40.1188 400.607 40.8023C402.1 41.4859 403.385 42.5439 404.463 43.9763L404.683 43.9687L405.211 40.0936L412.146 39.856L413.177 69.9608C413.275 72.8227 412.789 75.2455 411.718 77.229C410.684 79.2114 409.065 80.7362 406.861 81.8036C404.658 82.9076 401.905 83.5162 398.603 83.6293C396.475 83.7022 394.489 83.6417 392.646 83.4477C390.839 83.2525 389.062 82.8542 387.315 82.2528L387.091 75.7035C388.356 76.1745 389.618 76.5537 390.877 76.8411C392.173 77.164 393.485 77.3762 394.811 77.4778C396.175 77.6147 397.535 77.6599 398.893 77.6134C401.021 77.5405 402.579 76.9177 403.567 75.7451C404.592 74.5712 405.066 72.8469 404.988 70.572L404.967 69.9666C404.946 69.3429 404.942 68.7002 404.956 68.0385C405.007 67.3755 405.042 66.7866 405.061 66.2717L404.841 66.2792C403.868 67.8921 402.678 69.0716 401.271 69.8178C399.863 70.5639 398.261 70.9678 396.463 71.0294C392.904 71.1514 390.069 69.8893 387.958 67.2434C385.882 64.5594 384.761 60.7775 384.594 55.8976C384.481 52.5955 384.843 49.7729 385.681 47.4299C386.518 45.0503 387.778 43.2255 389.461 41.9557C391.179 40.6478 393.231 39.953 395.616 39.8713ZM398.431 46.4421C397.147 46.4861 396.076 46.8717 395.22 47.599C394.398 48.2884 393.791 49.3194 393.397 50.692C393.039 52.0267 392.894 53.7031 392.963 55.7211C393.066 58.7297 393.621 60.9699 394.626 62.4415C395.63 63.8765 397.141 64.5594 399.159 64.4902C400.223 64.4538 401.136 64.2939 401.898 64.0107C402.659 63.6908 403.267 63.2108 403.722 62.5707C404.213 61.8926 404.57 61.0355 404.791 59.9994C405.013 58.9633 405.098 57.7114 405.048 56.2437L405.014 55.2531C404.94 53.0883 404.66 51.353 404.175 50.0473C403.689 48.7415 402.978 47.8108 402.04 47.2551C401.102 46.6628 399.898 46.3918 398.431 46.4421Z" fill="#6BC06C"/>
<path d="M366.764 40.8598C369.992 40.7491 372.609 41.5411 374.614 43.2356C376.618 44.8935 377.686 47.6486 377.818 51.5012L378.489 71.0941L370.289 71.3751L369.687 53.8185C369.613 51.6537 369.172 50.0525 368.365 49.0149C367.557 47.9406 366.309 47.4323 364.621 47.4902C362.127 47.5757 360.45 48.4963 359.592 50.2522C358.732 51.9715 358.357 54.4271 358.467 57.6192L358.951 71.7635L350.751 72.0445L349.721 41.9947L355.995 41.7797L357.228 45.5946L357.668 45.5795C358.294 44.5295 359.073 43.6763 360.005 43.0199C360.936 42.3267 361.984 41.8133 363.148 41.4795C364.311 41.1091 365.516 40.9025 366.764 40.8598Z" fill="#6BC06C"/>
<path d="M341.152 42.2887L342.182 72.3385L333.981 72.6195L332.952 42.5697L341.152 42.2887ZM336.676 30.6505C337.887 30.609 338.942 30.8667 339.843 31.4236C340.742 31.9438 341.219 32.9744 341.271 34.5154C341.323 36.0197 340.918 37.0805 340.058 37.6977C339.197 38.3149 338.162 38.6443 336.951 38.6858C335.704 38.7285 334.629 38.4715 333.729 37.9146C332.865 37.3564 332.407 36.3252 332.355 34.8209C332.303 33.2799 332.689 32.2197 333.514 31.6404C334.374 31.0232 335.428 30.6932 336.676 30.6505Z" fill="#6BC06C"/>
<path d="M314.837 42.6391C318.213 42.5235 320.992 43.7507 323.173 46.3208C325.354 48.8542 326.532 52.6709 326.706 57.7709C326.823 61.1832 326.427 64.0804 325.517 66.4625C324.605 68.808 323.307 70.5973 321.623 71.8305C319.939 73.0637 317.959 73.7193 315.684 73.7972C314.253 73.8463 313 73.7055 311.923 73.3751C310.883 73.0434 309.986 72.5966 309.232 72.0347C308.478 71.4728 307.815 70.871 307.242 70.2294L306.802 70.2445C306.972 70.9366 307.107 71.6667 307.207 72.4347C307.306 73.166 307.368 73.8985 307.393 74.6323L307.808 86.7403L299.607 87.0213L298.125 43.7628L304.784 43.5346L306.074 47.4026L306.459 47.3894C306.982 46.5633 307.617 45.8069 308.365 45.12C309.112 44.3965 310.01 43.8147 311.06 43.3747C312.147 42.9333 313.406 42.6882 314.837 42.6391ZM312.42 49.279C310.989 49.328 309.862 49.6605 309.038 50.2765C308.214 50.8924 307.621 51.8127 307.259 53.0374C306.932 54.224 306.781 55.7169 306.806 57.5161L306.837 58.3966C306.903 60.3412 307.143 61.9861 307.557 63.331C307.969 64.6393 308.627 65.627 309.532 66.2939C310.436 66.9609 311.64 67.2686 313.145 67.217C314.392 67.1743 315.408 66.7905 316.191 66.0657C316.974 65.341 317.544 64.2929 317.902 62.9215C318.259 61.5501 318.404 59.8921 318.337 57.9475C318.237 55.0122 317.703 52.8265 316.735 51.3903C315.803 49.9161 314.365 49.2123 312.42 49.279Z" fill="#6BC06C"/>
<path d="M277.217 43.873C281.253 43.7347 284.365 44.5097 286.553 46.1979C288.777 47.8482 289.951 50.4712 290.074 54.0669L290.76 74.1002L285.037 74.2963L283.301 70.2783L283.081 70.2858C282.273 71.3788 281.423 72.2895 280.53 73.0181C279.673 73.7454 278.662 74.2759 277.498 74.6097C276.372 74.9788 274.965 75.1924 273.278 75.2502C271.516 75.3105 269.909 75.035 268.455 74.4236C267.037 73.7742 265.901 72.7663 265.046 71.3997C264.19 69.9964 263.724 68.2123 263.65 66.0476C263.541 62.8555 264.579 60.4689 266.766 58.8879C268.951 57.2702 272.28 56.3113 276.751 56.0112L281.974 55.6669L281.928 54.346C281.874 52.7683 281.413 51.627 280.544 50.9221C279.712 50.2159 278.562 49.888 277.094 49.9383C275.626 49.9886 274.203 50.2578 272.824 50.7458C271.443 51.1972 270.067 51.7586 268.694 52.4302L265.806 46.9639C267.392 46.0647 269.149 45.3433 271.077 44.7997C273.042 44.2548 275.089 43.9459 277.217 43.873ZM278.949 60.6745C276.31 60.8384 274.492 61.3782 273.495 62.294C272.498 63.2098 272.024 64.3832 272.073 65.8141C272.115 67.0616 272.513 67.9479 273.266 68.4732C274.017 68.9617 274.98 69.1859 276.154 69.1456C277.915 69.0853 279.384 68.5207 280.559 67.4519C281.734 66.3463 282.288 64.8396 282.223 62.9317L282.138 60.4551L278.949 60.6745Z" fill="#6BC06C"/>
<path d="M236.827 42.6124C236.878 44.0801 236.871 45.4946 236.808 46.8559C236.781 48.216 236.74 49.1725 236.685 49.7253L237.126 49.7102C237.751 48.6603 238.493 47.8083 239.352 47.1544C240.21 46.4638 241.166 45.9535 242.22 45.6235C243.31 45.2556 244.46 45.0509 245.671 45.0094C247.835 44.9352 249.738 45.2557 251.379 45.9709C253.02 46.6861 254.308 47.8358 255.244 49.4201C256.217 51.003 256.747 53.0787 256.835 55.6471L257.506 75.24L249.306 75.5209L248.704 57.9644C248.63 55.7996 248.171 54.199 247.327 53.1627C246.519 52.0883 245.29 51.5795 243.639 51.636C241.987 51.6926 240.698 52.1225 239.771 52.9257C238.88 53.7276 238.258 54.8693 237.904 56.3508C237.551 57.8322 237.411 59.637 237.484 61.7651L237.968 75.9094L229.768 76.1904L228.335 34.3628L236.535 34.0818L236.827 42.6124Z" fill="#6BC06C"/>
<path d="M223.073 67.4927C223.143 69.5107 222.725 71.2515 221.82 72.7152C220.914 74.1421 219.519 75.2552 217.636 76.0544C215.753 76.8535 213.4 77.3015 210.574 77.3983C208.483 77.47 206.68 77.3848 205.166 77.1429C203.653 76.9376 202.133 76.5488 200.607 75.9766L200.375 69.2072C202.015 69.8857 203.779 70.4313 205.666 70.8442C207.554 71.2571 209.213 71.439 210.644 71.39C212.258 71.3346 213.388 71.0572 214.032 70.5576C214.712 70.0567 215.04 69.421 215.013 68.6505C214.996 68.1368 214.833 67.6832 214.526 67.2897C214.255 66.8949 213.652 66.4564 212.718 65.9741C211.783 65.4919 210.329 64.8805 208.357 64.1399C206.458 63.3968 204.89 62.6608 203.653 61.9317C202.414 61.166 201.483 60.2429 200.858 59.1623C200.232 58.045 199.89 56.6424 199.832 54.9546C199.736 52.1661 200.747 50.0377 202.864 48.5692C204.981 47.1008 207.838 46.305 211.433 46.1818C213.304 46.1177 215.09 46.2402 216.791 46.5492C218.491 46.8583 220.255 47.404 222.081 48.1863L219.806 54.16C218.801 53.7537 217.834 53.4011 216.905 53.1023C215.976 52.8035 215.069 52.5775 214.182 52.4242C213.332 52.2697 212.448 52.2081 211.531 52.2396C210.32 52.281 209.408 52.4776 208.796 52.8292C208.22 53.1795 207.943 53.6849 207.966 54.3453C207.982 54.8223 208.144 55.2576 208.452 55.6511C208.794 56.0067 209.414 56.3896 210.309 56.7997C211.242 57.2085 212.601 57.7497 214.387 58.4232C216.136 59.0612 217.647 59.7441 218.921 60.4719C220.193 61.163 221.179 62.0659 221.879 63.1807C222.614 64.2575 223.012 65.6949 223.073 67.4927Z" fill="#6BC06C"/>
<path d="M181.421 68.9202C181.49 70.9382 181.073 72.679 180.168 74.1427C179.261 75.5696 177.867 76.6827 175.984 77.4819C174.101 78.281 171.747 78.729 168.922 78.8258C166.831 78.8975 165.028 78.8123 163.514 78.5703C162 78.3651 160.481 77.9763 158.955 77.4041L158.723 70.6346C160.363 71.3131 162.126 71.8588 164.014 72.2717C165.902 72.6846 167.561 72.8665 168.992 72.8175C170.606 72.7621 171.735 72.4847 172.38 71.9851C173.06 71.4842 173.388 70.8485 173.361 70.078C173.344 69.5643 173.181 69.1107 172.874 68.7172C172.603 68.3224 172 67.8839 171.065 67.4016C170.131 66.9194 168.677 66.308 166.705 65.5674C164.806 64.8243 163.238 64.0883 162.001 63.3592C160.762 62.5935 159.83 61.6704 159.206 60.5897C158.58 59.4724 158.238 58.0699 158.18 56.3821C158.084 53.5936 159.095 51.4652 161.212 49.9967C163.329 48.5283 166.185 47.7325 169.781 47.6093C171.652 47.5452 173.438 47.6677 175.139 47.9767C176.839 48.2858 178.602 48.8315 180.429 49.6138L178.154 55.5875C177.149 55.1812 176.181 54.8286 175.253 54.5298C174.324 54.231 173.417 54.005 172.53 53.8517C171.679 53.6972 170.796 53.6356 169.879 53.6671C168.668 53.7085 167.756 53.9051 167.144 54.2567C166.568 54.607 166.291 55.1124 166.314 55.7728C166.33 56.2498 166.492 56.6851 166.8 57.0786C167.142 57.4342 167.762 57.8171 168.657 58.2272C169.59 58.636 170.949 59.1772 172.735 59.8507C174.484 60.4887 175.995 61.1716 177.269 61.8994C178.541 62.5905 179.527 63.4934 180.227 64.6082C180.961 65.685 181.36 67.1224 181.421 68.9202Z" fill="white"/>
<path d="M151.159 48.7982L152.188 78.848L143.988 79.129L142.958 49.0792L151.159 48.7982ZM146.682 37.16C147.893 37.1185 148.949 37.3762 149.85 37.9331C150.749 38.4533 151.225 39.4839 151.278 41.0249C151.329 42.5292 150.925 43.59 150.065 44.2072C149.204 44.8245 148.168 45.1538 146.958 45.1953C145.71 45.238 144.636 44.981 143.735 44.4241C142.871 43.866 142.414 42.8347 142.362 41.3304C142.309 39.7894 142.695 38.7292 143.52 38.15C144.381 37.5327 145.435 37.2027 146.682 37.16Z" fill="white"/>
<path d="M122.397 64.7712C122.483 67.2662 122.21 69.4979 121.58 71.4664C120.986 73.4337 120.07 75.1181 118.832 76.5197C117.63 77.8833 116.142 78.9444 114.368 79.7032C112.593 80.4252 110.568 80.8252 108.293 80.9031C106.202 80.9748 104.246 80.7112 102.425 80.1124C100.64 79.4756 99.083 78.5188 97.7536 77.2419C96.4229 75.9283 95.3573 74.3118 94.5569 72.3923C93.7931 70.4716 93.3685 68.2638 93.283 65.7688C93.1686 62.4299 93.6595 59.6029 94.7556 57.2879C95.8506 54.9361 97.478 53.1171 99.638 51.8309C101.798 50.5447 104.382 49.85 107.391 49.7469C110.216 49.6501 112.732 50.17 114.938 51.3067C117.144 52.4433 118.911 54.146 120.237 56.4148C121.563 58.6469 122.283 61.4324 122.397 64.7712ZM101.649 65.4821C101.716 67.4635 101.975 69.126 102.426 70.4697C102.911 71.7755 103.624 72.7612 104.566 73.4269C105.505 74.0559 106.709 74.3453 108.177 74.295C109.645 74.2447 110.807 73.8743 111.665 73.1837C112.559 72.4551 113.185 71.4235 113.543 70.0888C113.937 68.7161 114.1 67.0392 114.032 65.0579C113.964 63.0765 113.687 61.433 113.202 60.1272C112.753 58.8202 112.058 57.8522 111.118 57.2231C110.179 56.5941 108.975 56.3048 107.507 56.3551C105.342 56.4292 103.79 57.2355 102.851 58.7737C101.948 60.274 101.547 62.5102 101.649 65.4821Z" fill="white"/>
<path d="M66.5059 48.4481C66.5562 49.9158 66.5495 51.3303 66.486 52.6916C66.4591 54.0517 66.4184 55.0081 66.3639 55.561L66.8042 55.5459C67.4294 54.496 68.1716 53.644 69.0308 52.9901C69.8888 52.2995 70.8448 51.7892 71.8987 51.4592C72.9881 51.0913 74.1383 50.8866 75.3491 50.8451C77.5138 50.7709 79.4166 51.0914 81.0574 51.8066C82.6982 52.5218 83.9865 53.6715 84.9224 55.2557C85.895 56.8387 86.4253 58.9144 86.5133 61.4827L87.1846 81.0757L78.9842 81.3566L78.3827 63.8001C78.3085 61.6353 77.8496 60.0347 77.0059 58.9984C76.1977 57.924 74.9681 57.4151 73.317 57.4717C71.6659 57.5283 70.3766 57.9582 69.449 58.7614C68.5581 59.5633 67.936 60.705 67.5827 62.1865C67.2294 63.6679 67.0892 65.4727 67.1621 67.6008L67.6468 81.7451L59.4463 82.0261L58.0132 40.1985L66.2136 39.9175L66.5059 48.4481Z" fill="white"/>
<path d="M53.8163 42.8767L45.1461 82.5158L35.6799 82.8402L29.6342 62.3845C29.5103 61.9846 29.3428 61.3843 29.1317 60.5834C28.9572 59.7812 28.7436 58.9069 28.4908 57.9605C28.2746 57.0128 28.0787 56.1195 27.9031 55.2807C27.7261 54.4051 27.5928 53.7301 27.5031 53.2556C27.4827 53.7339 27.3959 54.4164 27.2426 55.3033C27.1248 56.1522 26.9905 57.0568 26.8397 58.017C26.6877 58.9406 26.5344 59.8275 26.3799 60.6776C26.2241 61.4911 26.0987 62.1199 26.0037 62.564L21.4255 83.3286L11.9592 83.6529L0.596191 44.7002L8.7966 44.4192L14.5403 65.7118C14.7085 66.3305 14.9 67.0953 15.1149 68.0063C15.3285 68.8806 15.544 69.81 15.7614 70.7943C15.9775 71.742 16.1747 72.672 16.3529 73.5842C16.5678 74.4952 16.7232 75.2796 16.8192 75.9376C16.8687 75.2379 16.9518 74.4453 17.0684 73.5597C17.1837 72.6374 17.3174 71.7145 17.4694 70.7909C17.6202 69.8307 17.7551 68.9444 17.8742 68.1322C18.0288 67.282 18.1712 66.6159 18.3017 66.1339L23.2711 43.9233L31.1413 43.6536L37.6194 65.472C37.7458 65.9452 37.9152 66.6006 38.1276 67.4382C38.3387 68.2392 38.5523 69.1134 38.7685 70.0611C38.9846 71.0088 39.1818 71.9388 39.36 72.851C39.5369 73.7266 39.6734 74.4933 39.7694 75.1512C39.848 74.2302 39.976 73.1421 40.1534 71.8871C40.3296 70.5954 40.5241 69.303 40.7369 68.01C40.9864 66.7158 41.1885 65.6436 41.343 64.7934L45.6159 43.1577L53.8163 42.8767Z" fill="white"/>
</svg>
