<svg width="1256" height="111" viewBox="0 0 1256 111" fill="none" xmlns="http://www.w3.org/2000/svg">
<path d="M1236.56 81.8382C1236.61 80.6279 1236.82 79.5531 1237.19 78.6139C1237.56 77.6748 1238.14 76.7994 1238.91 75.9879C1239.71 75.178 1240.76 74.3602 1242.04 73.5344C1243.18 72.7756 1244.09 72.0989 1244.78 71.5043C1245.5 70.9112 1246.03 70.3094 1246.35 69.6987C1246.7 69.0896 1246.9 68.3999 1246.93 67.6297C1246.98 66.456 1246.58 65.5565 1245.73 64.9312C1244.91 64.2708 1243.73 63.9069 1242.19 63.8396C1240.65 63.7722 1239.12 63.9441 1237.6 64.3552C1236.07 64.7662 1234.5 65.3407 1232.89 66.0787L1230.23 60.0645C1232.07 59.1528 1234.05 58.4308 1236.17 57.8987C1238.29 57.3666 1240.59 57.1551 1243.09 57.2641C1246.9 57.4309 1249.81 58.4769 1251.82 60.4022C1253.87 62.3291 1254.83 64.7046 1254.71 67.5287C1254.64 69.0325 1254.35 70.3241 1253.82 71.4036C1253.3 72.4831 1252.54 73.4788 1251.54 74.3907C1250.55 75.2659 1249.31 76.2041 1247.84 77.2052C1246.74 77.9289 1245.89 78.553 1245.28 79.0775C1244.66 79.602 1244.24 80.1162 1243.99 80.6201C1243.79 81.1256 1243.67 81.7634 1243.64 82.5336L1243.57 84.1291L1236.47 83.8188L1236.56 81.8382ZM1235.19 92.968C1235.26 91.2808 1235.77 90.1272 1236.72 89.5071C1237.66 88.8503 1238.8 88.5508 1240.12 88.6085C1241.4 88.6647 1242.49 89.0612 1243.37 89.7981C1244.26 90.4984 1244.67 91.6922 1244.59 93.3793C1244.52 94.9931 1244.01 96.1467 1243.07 96.8402C1242.12 97.497 1241 97.7973 1239.72 97.7412C1238.4 97.6835 1237.29 97.2861 1236.41 96.5492C1235.52 95.7755 1235.12 94.5818 1235.19 92.968Z" fill="white"/>
<path d="M1197.39 65.0779L1206.36 65.4699L1211.28 82.6076C1211.44 83.1658 1211.57 83.7224 1211.65 84.2773C1211.77 84.8339 1211.86 85.4072 1211.91 85.9973C1211.99 86.5889 1212.04 87.2156 1212.05 87.8774L1212.21 87.8847C1212.36 86.9359 1212.55 86.0437 1212.77 85.2081C1213.03 84.3375 1213.3 83.5043 1213.59 82.7086L1219.89 66.0617L1228.69 66.4465L1214.5 99.7808C1213.64 101.801 1212.56 103.481 1211.25 104.82C1209.98 106.161 1208.52 107.144 1206.88 107.771C1205.23 108.397 1203.46 108.668 1201.55 108.585C1200.63 108.545 1199.83 108.455 1199.14 108.314C1198.48 108.212 1197.9 108.095 1197.39 107.962L1197.67 101.47C1198.07 101.561 1198.55 101.655 1199.09 101.753C1199.68 101.852 1200.28 101.915 1200.9 101.942C1202.04 101.992 1203.02 101.796 1203.85 101.355C1204.71 100.915 1205.44 100.285 1206.03 99.4654C1206.61 98.6825 1207.09 97.8215 1207.46 96.8823L1208.02 95.4185L1197.39 65.0779Z" fill="white"/>
<path d="M1173.86 60.7975C1173.8 62.2646 1173.68 63.6743 1173.51 65.0265C1173.38 66.3804 1173.26 67.3308 1173.17 67.8777L1173.61 67.897C1174.31 66.8989 1175.12 66.1073 1176.02 65.5223C1176.93 64.9006 1177.93 64.4663 1179 64.2193C1180.12 63.9374 1181.28 63.8228 1182.49 63.8757C1184.65 63.9703 1186.53 64.438 1188.11 65.2788C1189.69 66.1196 1190.88 67.3661 1191.69 69.0184C1192.54 70.6723 1192.9 72.783 1192.79 75.3504L1191.94 94.9361L1183.74 94.5777L1184.51 77.0276C1184.6 74.8636 1184.27 73.2322 1183.51 72.1333C1182.79 70.9993 1181.6 70.3962 1179.95 70.324C1178.3 70.2519 1176.98 70.5801 1175.99 71.3086C1175.04 72.0387 1174.33 73.1285 1173.86 74.578C1173.4 76.0274 1173.12 77.8158 1173.02 79.9431L1172.41 94.0822L1164.21 93.7238L1166.04 51.9116L1174.23 52.27L1173.86 60.7975Z" fill="white"/>
<path d="M1161.64 54.2544L1149.91 93.0981L1140.45 92.6844L1136.02 71.82C1135.92 71.4118 1135.8 70.8002 1135.66 69.9853C1135.54 69.172 1135.4 68.2837 1135.22 67.3204C1135.08 66.3588 1134.95 65.453 1134.84 64.603C1134.74 63.7163 1134.66 63.033 1134.6 62.553C1134.55 63.0282 1134.41 63.7019 1134.18 64.5742C1134 65.4113 1133.8 66.3027 1133.57 67.2483C1133.35 68.1572 1133.13 69.0295 1132.91 69.865C1132.69 70.6639 1132.51 71.281 1132.38 71.7163L1126.2 92.0614L1116.74 91.6477L1108.44 51.9285L1116.64 52.2869L1120.71 73.962C1120.83 74.5919 1120.96 75.3694 1121.1 76.2943C1121.25 77.1826 1121.39 78.1259 1121.53 79.1242C1121.67 80.0858 1121.8 81.0283 1121.9 81.9517C1122.05 82.8766 1122.14 83.6708 1122.19 84.3342C1122.29 83.6405 1122.43 82.8568 1122.62 81.9829C1122.81 81.0724 1123.01 80.1627 1123.23 79.2538C1123.46 78.3082 1123.66 77.4351 1123.85 76.6347C1124.07 75.7991 1124.26 75.1461 1124.43 74.6757L1131.11 52.9195L1138.98 53.2634L1143.74 75.52C1143.83 76.0016 1143.94 76.6682 1144.09 77.5198C1144.24 78.3347 1144.38 79.223 1144.53 80.1846C1144.67 81.1463 1144.79 82.0887 1144.9 83.0121C1145.01 83.8988 1145.08 84.6738 1145.13 85.3372C1145.28 84.4251 1145.49 83.3503 1145.76 82.1129C1146.04 80.8388 1146.34 79.5655 1146.65 78.293C1147 77.0222 1147.28 75.9689 1147.5 75.1334L1153.45 53.896L1161.64 54.2544Z" fill="white"/>
<path d="M1074.3 74.745C1074.35 73.5346 1074.57 72.4598 1074.94 71.5207C1075.31 70.5815 1075.88 69.7061 1076.65 68.8946C1077.46 68.0847 1078.5 67.2669 1079.79 66.4412C1080.92 65.6824 1081.84 65.0057 1082.52 64.411C1083.25 63.818 1083.77 63.2161 1084.09 62.6054C1084.45 61.9963 1084.64 61.3067 1084.68 60.5364C1084.73 59.3628 1084.33 58.4633 1083.47 57.8379C1082.66 57.1775 1081.48 56.8137 1079.94 56.7463C1078.4 56.679 1076.86 56.8508 1075.34 57.2619C1073.82 57.673 1072.25 58.2475 1070.63 58.9854L1067.98 52.9712C1069.82 52.0595 1071.8 51.3376 1073.91 50.8055C1076.03 50.2734 1078.34 50.0618 1080.83 50.1709C1084.65 50.3376 1087.56 51.3836 1089.57 53.3089C1091.62 55.2358 1092.58 57.6113 1092.45 60.4355C1092.39 61.9392 1092.09 63.2309 1091.57 64.3103C1091.04 65.3898 1090.28 66.3855 1089.29 67.2974C1088.29 68.1727 1087.06 69.1108 1085.58 70.1119C1084.48 70.8357 1083.63 71.4598 1083.02 71.9843C1082.41 72.5088 1081.98 73.023 1081.74 73.5268C1081.53 74.0323 1081.41 74.6701 1081.38 75.4404L1081.31 77.0358L1074.21 76.7255L1074.3 74.745ZM1072.93 85.8747C1073.01 84.1876 1073.51 83.0339 1074.46 82.4138C1075.41 81.7571 1076.54 81.4575 1077.86 81.5153C1079.15 81.5714 1080.23 81.9679 1081.12 82.7049C1082.01 83.4052 1082.41 84.5989 1082.34 86.2861C1082.27 87.8999 1081.76 89.0535 1080.81 89.7469C1079.86 90.4037 1078.75 90.7041 1077.46 90.6479C1076.14 90.5902 1075.04 90.1929 1074.15 89.4559C1073.27 88.6823 1072.86 87.4885 1072.93 85.8747Z" fill="white"/>
<path d="M1046.77 57.9419C1048.6 58.0221 1050.24 58.461 1051.67 59.2587C1053.11 60.0564 1054.31 61.2112 1055.27 62.7232L1055.49 62.7328L1056.32 58.9106L1063.25 59.2136L1061.93 89.3074C1061.81 92.1683 1061.14 94.5458 1059.91 96.4399C1058.73 98.3357 1057 99.7299 1054.71 100.622C1052.43 101.552 1049.64 101.944 1046.34 101.8C1044.21 101.707 1042.24 101.492 1040.41 101.155C1038.63 100.819 1036.89 100.284 1035.19 99.5484L1035.48 93.0015C1036.7 93.5695 1037.93 94.0458 1039.17 94.4304C1040.43 94.8533 1041.72 95.167 1043.04 95.3714C1044.39 95.6141 1045.74 95.7652 1047.1 95.8245C1049.22 95.9175 1050.83 95.418 1051.9 94.3259C1053.02 93.2354 1053.62 91.5531 1053.72 89.2791L1053.75 88.6739C1053.78 88.0504 1053.82 87.4094 1053.89 86.7508C1053.99 86.0938 1054.07 85.5094 1054.13 84.9975L1053.91 84.9879C1052.81 86.5201 1051.54 87.6034 1050.07 88.2377C1048.61 88.872 1046.98 89.1499 1045.19 89.0713C1041.63 88.9158 1038.9 87.4369 1037 84.6346C1035.14 81.7972 1034.32 77.9394 1034.53 73.0613C1034.68 69.7604 1035.26 66.9746 1036.28 64.704C1037.3 62.3967 1038.69 60.6756 1040.47 59.5406C1042.29 58.3706 1044.38 57.8377 1046.77 57.9419ZM1049.06 64.7119C1047.78 64.6557 1046.68 64.9569 1045.77 65.6153C1044.9 66.2386 1044.21 67.2191 1043.71 68.557C1043.25 69.8597 1042.98 71.5197 1042.89 73.537C1042.76 76.5445 1043.14 78.821 1044.02 80.3665C1044.91 81.8753 1046.37 82.6738 1048.38 82.762C1049.45 82.8085 1050.37 82.7202 1051.15 82.4971C1051.94 82.2374 1052.58 81.8062 1053.08 81.2035C1053.63 80.5657 1054.05 79.739 1054.35 78.7233C1054.65 77.7075 1054.83 76.4661 1054.9 74.999L1054.94 74.0087C1055.04 71.8447 1054.89 70.0929 1054.51 68.7533C1054.13 67.4137 1053.49 66.4304 1052.6 65.8035C1051.71 65.1399 1050.53 64.776 1049.06 64.7119Z" fill="white"/>
<path d="M1017.93 56.6807C1021.16 56.8218 1023.7 57.8151 1025.57 59.6606C1027.44 61.4694 1028.29 64.2994 1028.12 68.1505L1027.27 87.7363L1019.07 87.3779L1019.84 69.8278C1019.93 67.6638 1019.62 66.0331 1018.89 64.9358C1018.17 63.8018 1016.96 63.1979 1015.28 63.1242C1012.78 63.0151 1011.04 63.8025 1010.05 65.4863C1009.06 67.1333 1008.49 69.5523 1008.35 72.7433L1007.73 86.8824L999.537 86.524L1000.85 56.4852L1007.12 56.7594L1008.05 60.6587L1008.49 60.6779C1009.2 59.6798 1010.04 58.8898 1011.02 58.308C1012.01 57.6895 1013.09 57.2592 1014.28 57.0171C1015.46 56.7383 1016.68 56.6262 1017.93 56.6807Z" fill="white"/>
<path d="M992.283 56.1111L990.97 86.1499L982.772 85.7915L984.086 55.7527L992.283 56.1111ZM988.727 44.1597C989.937 44.2126 990.97 44.5517 991.824 45.177C992.68 45.7657 993.075 46.8302 993.007 48.3707C992.942 49.8744 992.456 50.9005 991.55 51.4489C990.644 51.9972 989.586 52.2449 988.376 52.192C987.129 52.1375 986.078 51.7976 985.223 51.1722C984.405 50.5485 984.029 49.4848 984.095 47.981C984.162 46.4406 984.63 45.4137 985.497 44.9004C986.403 44.3521 987.48 44.1052 988.727 44.1597Z" fill="white"/>
<path d="M974.209 85.4164L966.012 85.058L967.84 43.2458L976.037 43.6042L974.209 85.4164Z" fill="white"/>
<path d="M958.757 54.645L957.444 84.6838L949.246 84.3254L950.56 54.2866L958.757 54.645ZM955.201 42.6936C956.411 42.7465 957.443 43.0856 958.298 43.711C959.154 44.2996 959.549 45.3642 959.481 46.9046C959.416 48.4084 958.93 49.4344 958.024 49.9828C957.118 50.5311 956.06 50.7789 954.849 50.726C953.602 50.6714 952.552 50.3315 951.697 49.7062C950.879 49.0825 950.503 48.0187 950.569 46.515C950.636 44.9745 951.104 43.9476 951.971 43.4344C952.877 42.886 953.954 42.6391 955.201 42.6936Z" fill="white"/>
<path d="M929.708 52.7689C933.743 52.9453 936.785 53.9603 938.835 55.8138C940.924 57.6322 941.89 60.3387 941.733 63.933L940.857 83.9589L935.135 83.7087L933.718 79.5678L933.498 79.5582C932.608 80.5849 931.689 81.4267 930.742 82.0835C929.831 82.7419 928.782 83.1921 927.596 83.4342C926.444 83.7146 925.025 83.8179 923.338 83.7442C921.577 83.6672 919.996 83.2673 918.595 82.5446C917.232 81.7868 916.177 80.6934 915.431 79.2644C914.687 77.7987 914.362 75.9838 914.456 73.8199C914.596 70.6289 915.817 68.3305 918.12 66.9246C920.425 65.4819 923.818 64.7851 928.299 64.834L933.533 64.8974L933.59 63.5771C933.659 61.9999 933.288 60.8261 932.476 60.0557C931.702 59.2869 930.581 58.8704 929.114 58.8063C927.646 58.7421 926.206 58.8997 924.793 59.2788C923.382 59.6214 921.966 60.0739 920.545 60.6365L918.092 54.962C919.743 54.189 921.55 53.6066 923.515 53.2148C925.517 52.8245 927.581 52.6759 929.708 52.7689ZM930.128 69.6544C927.484 69.6123 925.629 70.0089 924.563 70.8442C923.498 71.6796 922.934 72.8125 922.871 74.2429C922.817 75.4899 923.144 76.4046 923.854 76.9868C924.565 77.5324 925.507 77.8308 926.681 77.8821C928.442 77.9591 929.949 77.5105 931.205 76.5365C932.462 75.5258 933.132 74.0668 933.215 72.1596L933.323 69.6838L930.128 69.6544Z" fill="white"/>
<path d="M912.427 58.793L905.33 58.4827L904.286 82.3597L896.089 82.0013L897.133 58.1243L892.622 57.9271L892.795 53.966L897.402 51.9625L897.498 49.7619C897.611 47.1945 898.119 45.2324 899.024 43.8755C899.966 42.4836 901.239 41.5287 902.842 41.0108C904.481 40.4945 906.383 40.2836 908.547 40.3783C910.161 40.4488 911.604 40.6405 912.877 40.9534C914.186 41.2679 915.236 41.6078 916.029 41.9732L913.676 47.8785C913.061 47.6679 912.389 47.4731 911.662 47.2944C910.937 47.0789 910.097 46.9503 909.144 46.9086C908.007 46.8589 907.148 47.1705 906.567 47.8433C906.023 48.5177 905.728 49.3867 905.681 50.4504L905.6 52.3209L912.697 52.6312L912.427 58.793Z" fill="white"/>
<path d="M863.031 49.9083C866.442 50.0574 868.971 51.0499 870.618 52.8858C872.303 54.6866 873.061 57.5125 872.893 61.3637L872.037 80.9494L863.839 80.591L864.607 63.0409C864.701 60.8769 864.405 59.2471 863.718 58.1514C863.033 57.019 861.92 56.4191 860.379 56.3517C858.215 56.2571 856.641 56.96 855.657 58.4604C854.673 59.9607 854.117 62.1597 853.99 65.0572L853.331 80.1316L845.134 79.7732L845.901 62.2231C845.964 60.7926 845.851 59.5934 845.562 58.6254C845.274 57.6573 844.81 56.9205 844.171 56.4148C843.533 55.8725 842.701 55.5788 841.674 55.5339C840.17 55.4682 838.961 55.8012 838.047 56.5329C837.133 57.2647 836.461 58.3561 836.03 59.8071C835.599 61.2582 835.337 63.0474 835.244 65.1746L834.626 79.3138L826.429 78.9554L827.742 48.9166L834.014 49.1908L834.946 53.0901L835.386 53.1093C836.054 52.1096 836.86 51.318 837.805 50.7346C838.75 50.1145 839.78 49.6818 840.893 49.4365C842.045 49.1561 843.189 49.0407 844.326 49.0905C846.526 49.1867 848.381 49.6352 849.889 50.4361C851.399 51.2003 852.525 52.352 853.266 53.891L853.981 53.9223C854.965 52.4219 856.28 51.3586 857.924 50.7323C859.605 50.1076 861.307 49.8329 863.031 49.9083Z" fill="white"/>
<path d="M807.64 47.4873C810.427 47.6091 812.788 48.2452 814.722 49.3954C816.693 50.5473 818.184 52.1559 819.196 54.2212C820.208 56.2866 820.65 58.7864 820.522 61.7206L820.349 65.6817L800.983 64.835C800.956 67.1489 801.555 68.9941 802.781 70.3706C804.043 71.7487 805.83 72.4883 808.141 72.5893C810.085 72.6743 811.853 72.5679 813.446 72.2701C815.041 71.9356 816.7 71.4018 818.422 70.6686L818.146 76.9955C816.646 77.6649 815.064 78.1285 813.399 78.3865C811.77 78.6827 809.799 78.7803 807.489 78.6793C804.481 78.5478 801.846 77.8814 799.583 76.68C797.323 75.442 795.582 73.6571 794.361 71.3254C793.14 68.9937 792.605 66.104 792.755 62.6563C792.909 59.1353 793.623 56.2451 794.898 53.9857C796.211 51.6913 797.957 50.0037 800.136 48.9231C802.314 47.8424 804.816 47.3638 807.64 47.4873ZM807.44 53.3214C805.863 53.2524 804.52 53.7082 803.411 54.6886C802.339 55.6707 801.664 57.2397 801.386 59.3957L812.885 59.8984C812.938 58.688 812.765 57.5964 812.367 56.6236C812.005 55.6523 811.414 54.8732 810.595 54.2861C809.775 53.6991 808.723 53.3775 807.44 53.3214Z" fill="white"/>
<path d="M782.986 71.0484C783.903 71.0884 784.787 71.0352 785.638 70.8887C786.49 70.7422 787.343 70.559 788.198 70.3392L787.931 76.446C787.035 76.7743 785.921 77.0379 784.589 77.2369C783.293 77.4742 781.874 77.5592 780.334 77.4918C778.537 77.4133 776.936 77.0493 775.531 76.3999C774.163 75.7521 773.088 74.6946 772.307 73.2273C771.564 71.7249 771.249 69.69 771.361 67.1226L771.994 52.6534L768.088 52.4826L768.239 49.0166L772.871 46.463L775.513 40.2396L780.74 40.4681L780.461 46.85L788.878 47.218L788.609 53.3798L780.191 53.0118L779.559 67.481C779.509 68.618 779.801 69.4944 780.436 70.1101C781.072 70.6891 781.922 71.0018 782.986 71.0484Z" fill="white"/>
<path d="M764.075 67.3003C763.987 69.3176 763.435 71.0205 762.419 72.4093C761.404 73.7613 759.927 74.7624 757.988 75.4126C756.049 76.0627 753.667 76.3261 750.843 76.2026C748.752 76.1112 746.961 75.8859 745.471 75.5268C743.978 75.2043 742.493 74.6984 741.017 74.0092L741.313 67.2422C742.894 68.0463 744.61 68.7276 746.46 69.2862C748.31 69.8448 749.95 70.1554 751.38 70.2179C752.994 70.2885 754.141 70.0998 754.822 69.6518C755.54 69.2055 755.916 68.5972 755.949 67.827C755.972 67.3135 755.845 66.8486 755.569 66.4323C755.33 66.0177 754.764 65.5335 753.869 64.98C752.975 64.4264 751.573 63.7037 749.664 62.8118C747.829 61.9231 746.323 61.0672 745.146 60.244C743.971 59.3842 743.114 58.3913 742.576 57.2653C742.039 56.1027 741.807 54.6778 741.881 52.9906C742.003 50.2031 743.176 48.1598 745.401 46.8607C747.626 45.5616 750.535 44.9906 754.13 45.1477C756 45.2295 757.771 45.4907 759.442 45.9312C761.113 46.3717 762.829 47.0531 764.589 47.9752L761.856 53.7537C760.885 53.2703 759.949 52.8435 759.046 52.4733C758.144 52.1031 757.256 51.8071 756.384 51.5852C755.548 51.3649 754.672 51.2348 753.755 51.1947C752.545 51.1418 751.621 51.2667 750.983 51.5696C750.381 51.874 750.066 52.3563 750.038 53.0165C750.017 53.4933 750.144 53.9399 750.42 54.3561C750.734 54.7373 751.322 55.1672 752.183 55.6459C753.08 56.1261 754.393 56.7714 756.122 57.582C757.815 58.3542 759.269 59.1527 760.482 59.9774C761.697 60.7655 762.609 61.7425 763.22 62.9083C763.869 64.0391 764.154 65.5031 764.075 67.3003Z" fill="white"/>
<path d="M708.421 43.7004L717.389 44.0925L722.317 61.2302C722.476 61.7884 722.599 62.3449 722.685 62.8999C722.808 63.4565 722.893 64.0298 722.94 64.6198C723.025 65.2115 723.071 65.8382 723.079 66.5L723.244 66.5072C723.396 65.5584 723.582 64.6662 723.802 63.8307C724.06 62.96 724.336 62.1269 724.628 61.3312L730.923 44.6842L739.725 45.0691L725.535 78.4033C724.675 80.4236 723.591 82.1033 722.283 83.4425C721.012 84.7834 719.554 85.7669 717.91 86.3932C716.265 87.0196 714.49 87.291 712.582 87.2076C711.665 87.1675 710.861 87.0773 710.169 86.9368C709.512 86.8345 708.929 86.7172 708.42 86.5847L708.704 80.0928C709.104 80.1838 709.578 80.278 710.125 80.3754C710.709 80.4744 711.312 80.5376 711.936 80.5648C713.073 80.6145 714.055 80.4186 714.883 79.9771C715.747 79.5372 716.473 78.9074 717.06 78.0879C717.645 77.3051 718.124 76.4441 718.496 75.5049L719.056 74.0411L708.421 43.7004Z" fill="white"/>
<path d="M705.405 64.7351C705.317 66.7524 704.765 68.4554 703.749 69.8441C702.734 71.1961 701.257 72.1972 699.318 72.8474C697.379 73.4976 694.997 73.7609 692.173 73.6374C690.082 73.546 688.291 73.3207 686.8 72.9616C685.308 72.6391 683.823 72.1332 682.347 71.444L682.643 64.677C684.224 65.4811 685.94 66.1624 687.79 66.721C689.639 67.2796 691.28 67.5902 692.71 67.6527C694.324 67.7233 695.471 67.5346 696.152 67.0866C696.87 66.6403 697.246 66.032 697.279 65.2618C697.302 64.7483 697.175 64.2834 696.899 63.8671C696.66 63.4525 696.093 62.9683 695.199 62.4148C694.304 61.8612 692.903 61.1385 690.994 60.2466C689.159 59.3579 687.653 58.502 686.476 57.6788C685.301 56.819 684.444 55.8261 683.906 54.7001C683.368 53.5375 683.137 52.1126 683.211 50.4254C683.332 47.6379 684.506 45.5946 686.731 44.2955C688.956 42.9964 691.865 42.4254 695.46 42.5825C697.33 42.6643 699.101 42.9255 700.772 43.366C702.443 43.8065 704.159 44.4879 705.919 45.41L703.186 51.1885C702.215 50.7051 701.278 50.2783 700.376 49.9081C699.473 49.5379 698.586 49.2419 697.714 49.02C696.878 48.7998 696.002 48.6696 695.085 48.6295C693.875 48.5766 692.95 48.7015 692.313 49.0044C691.711 49.3088 691.396 49.7911 691.367 50.4513C691.347 50.9281 691.474 51.3747 691.75 51.7909C692.064 52.1722 692.651 52.6021 693.512 53.0807C694.41 53.5609 695.723 54.2063 697.452 55.0168C699.145 55.789 700.598 56.5875 701.812 57.4122C703.027 58.2003 703.939 59.1773 704.55 60.3431C705.199 61.4739 705.484 62.9379 705.405 64.7351Z" fill="white"/>
<path d="M651.997 40.6822C655.225 40.8233 657.772 41.8166 659.639 43.6621C661.507 45.4709 662.358 48.3009 662.189 52.152L661.333 71.7377L653.135 71.3793L653.903 53.8292C653.997 51.6652 653.683 50.0346 652.959 48.9373C652.237 47.8033 651.032 47.1994 649.345 47.1257C646.851 47.0166 645.108 47.804 644.116 49.4877C643.125 51.1348 642.56 53.5538 642.42 56.7447L641.802 70.8838L633.605 70.5254L634.918 40.4867L641.19 40.7609L642.122 44.6601L642.562 44.6794C643.267 43.6813 644.11 42.8913 645.091 42.3095C646.073 41.691 647.158 41.2607 648.344 41.0186C649.533 40.7398 650.75 40.6276 651.997 40.6822Z" fill="white"/>
<path d="M627.489 55.1549C627.38 57.6489 626.934 59.8527 626.153 61.7661C625.407 63.6811 624.363 65.2891 623.02 66.5901C621.715 67.8559 620.149 68.798 618.322 69.4163C616.496 69.9979 614.446 70.239 612.172 70.1396C610.081 70.0482 608.151 69.6331 606.383 68.8943C604.653 68.1205 603.175 67.0453 601.949 65.6688C600.725 64.2556 599.788 62.5611 599.14 60.5851C598.528 58.6107 598.276 56.3765 598.385 53.8824C598.531 50.5448 599.241 47.7646 600.514 45.542C601.789 43.2826 603.553 41.5958 605.806 40.4817C608.06 39.3676 610.69 38.8762 613.698 39.0077C616.522 39.1312 618.99 39.8454 621.101 41.1504C623.212 42.4553 624.84 44.2904 625.986 46.6556C627.134 48.9841 627.635 51.8172 627.489 55.1549ZM606.748 54.2481C606.661 56.2286 606.79 57.9063 607.134 59.281C607.517 60.6206 608.151 61.6589 609.037 62.3959C609.926 63.0961 611.103 63.4783 612.57 63.5425C614.037 63.6066 615.225 63.3278 616.135 62.7061C617.082 62.0494 617.786 61.0696 618.247 59.7668C618.747 58.429 619.04 56.7698 619.126 54.7892C619.213 52.8087 619.065 51.1486 618.683 49.8089C618.337 48.4709 617.72 47.4518 616.832 46.7515C615.944 46.0512 614.766 45.669 613.299 45.6049C611.135 45.5102 609.525 46.1932 608.469 47.6537C607.452 49.0791 606.878 51.2772 606.748 54.2481Z" fill="white"/>
<path d="M592.288 38.6231L590.975 68.6618L582.778 68.3034L584.091 38.2647L592.288 38.6231ZM588.732 26.6716C589.942 26.7246 590.975 27.0637 591.829 27.689C592.686 28.2776 593.08 29.3422 593.013 30.8826C592.947 32.3864 592.461 33.4125 591.555 33.9608C590.649 34.5092 589.591 34.7569 588.381 34.704C587.134 34.6495 586.083 34.3095 585.228 33.6842C584.41 33.0605 584.034 31.9968 584.1 30.493C584.167 28.9525 584.635 27.9257 585.503 27.4124C586.408 26.864 587.485 26.6171 588.732 26.6716Z" fill="white"/>
<path d="M571.84 61.8167C572.757 61.8568 573.641 61.8035 574.493 61.657C575.344 61.5105 576.198 61.3274 577.052 61.1075L576.785 67.2143C575.889 67.5426 574.775 67.8062 573.443 68.0052C572.147 68.2425 570.728 68.3275 569.188 68.2601C567.391 68.1816 565.79 67.8176 564.385 67.1682C563.017 66.5204 561.942 65.4629 561.161 63.9956C560.419 62.4932 560.103 60.4583 560.216 57.8909L560.848 43.4217L556.942 43.2509L557.094 39.7849L561.725 37.2314L564.367 31.0079L569.594 31.2364L569.315 37.6183L577.732 37.9863L577.463 44.1481L569.046 43.7801L568.413 58.2493C568.363 59.3863 568.656 60.2627 569.29 60.8784C569.926 61.4574 570.776 61.7702 571.84 61.8167Z" fill="white"/>
<path d="M539.383 35.7033C543.417 35.8797 546.46 36.8946 548.51 38.7481C550.599 40.5666 551.564 43.273 551.407 46.8674L550.532 66.8932L544.81 66.6431L543.393 62.5021L543.172 62.4925C542.282 63.5193 541.364 64.361 540.416 65.0178C539.506 65.6762 538.457 66.1264 537.27 66.3685C536.119 66.6489 534.7 66.7522 533.013 66.6785C531.252 66.6015 529.671 66.2017 528.269 65.4789C526.906 64.7211 525.852 63.6277 525.106 62.1987C524.361 60.733 524.036 58.9182 524.131 56.7542C524.27 53.5633 525.492 51.2648 527.795 49.8589C530.099 48.4162 533.492 47.7194 537.973 47.7683L543.207 47.8318L543.265 46.5114C543.334 44.9343 542.963 43.7605 542.151 42.99C541.376 42.2212 540.255 41.8047 538.788 41.7406C537.321 41.6765 535.881 41.834 534.468 42.2132C533.057 42.5557 531.64 43.0082 530.219 43.5708L527.767 37.8963C529.417 37.1233 531.225 36.5409 533.19 36.1491C535.191 35.7589 537.256 35.6103 539.383 35.7033ZM539.802 52.5887C537.158 52.5466 535.303 52.9432 534.238 53.7786C533.172 54.6139 532.609 55.7468 532.546 57.1772C532.491 58.4243 532.819 59.3389 533.528 59.9211C534.24 60.4667 535.182 60.7651 536.356 60.8164C538.116 60.8934 539.624 60.4449 540.879 59.4708C542.136 58.4601 542.806 57.0011 542.89 55.0939L542.998 52.6182L539.802 52.5887Z" fill="white"/>
<path d="M509.651 65.6575C506.68 65.5276 504.173 64.8851 502.129 63.7301C500.086 62.5383 498.565 60.7814 497.564 58.4593C496.563 56.1372 496.14 53.1973 496.296 49.6396C496.456 45.9719 497.21 43.0099 498.558 40.7538C499.906 38.4976 501.705 36.8675 503.954 35.8634C506.239 34.8609 508.83 34.423 511.728 34.5497C513.782 34.6394 515.552 34.9189 517.038 35.3881C518.561 35.8589 519.879 36.3943 520.992 36.9941L518.294 43.2152C517.033 42.6456 515.841 42.1708 514.719 41.791C513.633 41.4128 512.54 41.1997 511.439 41.1516C510.009 41.089 508.802 41.3854 507.818 42.0405C506.835 42.659 506.076 43.6364 505.54 44.9726C505.042 46.2738 504.749 47.933 504.661 49.9502C504.574 51.9308 504.74 53.5917 505.159 54.9329C505.617 56.2391 506.308 57.2431 507.232 57.945C508.159 58.6102 509.3 58.9725 510.658 59.0318C512.381 59.1072 513.913 58.9536 515.253 58.5712C516.594 58.1522 517.906 57.5664 519.188 56.8141L518.883 63.8011C517.6 64.5535 516.255 65.0642 514.847 65.3334C513.474 65.6408 511.742 65.7489 509.651 65.6575Z" fill="white"/>
<path d="M490.179 34.1586L488.866 64.1973L482.594 63.9231L481.662 60.0239L481.222 60.0046C480.553 61.0044 479.709 61.8127 478.69 62.4295C477.709 63.0114 476.626 63.4233 475.439 63.6654C474.251 63.9442 473.033 64.0564 471.786 64.0018C469.659 63.9088 467.805 63.4419 466.225 62.6012C464.645 61.7604 463.45 60.5138 462.641 58.8616C461.831 57.2093 461.482 55.0994 461.594 52.532L462.451 32.9463L470.648 33.3047L469.881 50.8548C469.788 52.9821 470.102 54.6127 470.824 55.7467C471.547 56.8807 472.751 57.4846 474.438 57.5584C476.126 57.6321 477.444 57.3039 478.395 56.5738C479.382 55.8453 480.091 54.7555 480.522 53.3044C480.99 51.855 481.27 50.0666 481.363 47.9393L481.981 33.8002L490.179 34.1586Z" fill="white"/>
<path d="M435.982 62.4365C432.644 62.2905 429.969 60.869 427.955 58.1719C425.98 55.4398 425.104 51.5246 425.327 46.4264C425.551 41.2916 426.785 37.4503 429.028 34.9026C431.271 32.3548 434.116 31.1563 437.563 31.307C438.994 31.3695 440.25 31.6266 441.333 32.0781C442.417 32.493 443.33 33.0474 444.072 33.7413C444.85 34.4367 445.495 35.2183 446.008 36.0859L446.284 36.0979C446.199 35.5063 446.108 34.6571 446.009 33.5504C445.912 32.407 445.889 31.2484 445.941 30.0747L446.362 20.4469L454.559 20.8053L452.731 62.6175L446.459 62.3433L445.034 58.3674L444.704 58.353C444.156 59.1374 443.462 59.8605 442.625 60.5221C441.826 61.1486 440.886 61.6403 439.805 61.9973C438.723 62.3542 437.449 62.5006 435.982 62.4365ZM439.129 56.0146C441.403 56.114 443.027 55.5236 444.002 54.2433C444.978 52.9263 445.543 50.9299 445.697 48.2541L445.736 47.3738C445.864 44.4396 445.503 42.1823 444.654 40.6017C443.841 39.0228 442.224 38.1804 439.803 38.0746C438.006 37.996 436.559 38.7228 435.463 40.2551C434.369 41.7506 433.758 43.9655 433.63 46.8997C433.501 49.8339 433.918 52.0753 434.879 53.624C435.842 55.136 437.258 55.9328 439.129 56.0146Z" fill="white"/>
<path d="M407.7 30.0014C410.487 30.1233 412.848 30.7594 414.782 31.9096C416.753 33.0614 418.244 34.67 419.256 36.7354C420.268 38.8007 420.71 41.3005 420.582 44.2347L420.409 48.1959L401.043 47.3492C401.015 49.6631 401.615 51.5083 402.841 52.8848C404.103 54.2629 405.89 55.0025 408.201 55.1035C410.144 55.1885 411.913 55.0821 413.506 54.7842C415.101 54.4497 416.76 53.9159 418.482 53.1828L418.205 59.5096C416.706 60.179 415.124 60.6427 413.459 60.9006C411.829 61.1969 409.859 61.2945 407.548 61.1934C404.541 61.0619 401.906 60.3955 399.643 59.1942C397.382 57.9562 395.641 56.1713 394.42 53.8396C393.199 51.5078 392.664 48.6181 392.815 45.1705C392.969 41.6494 393.683 38.7592 394.958 36.4999C396.271 34.2055 398.017 32.5179 400.195 31.4372C402.374 30.3566 404.875 29.878 407.7 30.0014ZM407.5 35.8355C405.922 35.7666 404.58 36.2223 403.471 37.2028C402.399 38.1849 401.724 39.7539 401.446 41.9098L412.945 42.4125C412.998 41.2022 412.825 40.1106 412.426 39.1377C412.065 38.1665 411.474 37.3873 410.654 36.8003C409.835 36.2132 408.783 35.8917 407.5 35.8355Z" fill="white"/>
<path d="M368.754 52.9378C369.671 52.9778 370.556 52.9246 371.407 52.7781C372.259 52.6316 373.112 52.4484 373.967 52.2286L373.7 58.3354C372.804 58.6637 371.69 58.9273 370.358 59.1263C369.061 59.3636 367.643 59.4486 366.103 59.3812C364.305 59.3027 362.704 58.9387 361.3 58.2893C359.932 57.6415 358.857 56.584 358.076 55.1167C357.333 53.6143 357.018 51.5794 357.13 49.012L357.763 34.5428L353.857 34.372L354.008 30.906L358.64 28.3525L361.282 22.129L366.509 22.3575L366.23 28.7394L374.647 29.1074L374.378 35.2692L365.96 34.9012L365.328 49.3704C365.278 50.5074 365.57 51.3838 366.205 51.9995C366.841 52.5785 367.691 52.8913 368.754 52.9378Z" fill="white"/>
<path d="M338.071 26.9571C341.299 27.0982 343.846 28.0915 345.713 29.937C347.582 31.7458 348.432 34.5758 348.263 38.4269L347.407 58.0126L339.21 57.6542L339.977 40.1041C340.072 37.9402 339.757 36.3095 339.033 35.2122C338.311 34.0782 337.107 33.4743 335.419 33.4006C332.925 33.2915 331.182 34.0789 330.19 35.7626C329.199 37.4097 328.634 39.8287 328.495 43.0196L327.876 57.1587L319.679 56.8003L320.992 26.7616L327.264 27.0358L328.196 30.935L328.636 30.9543C329.341 29.9562 330.184 29.1662 331.165 28.5844C332.148 27.9659 333.232 27.5356 334.419 27.2935C335.607 27.0147 336.824 26.9026 338.071 26.9571Z" fill="white"/>
<path d="M300.892 25.3315C303.68 25.4534 306.04 26.0894 307.974 27.2397C309.945 28.3915 311.437 30.0001 312.449 32.0655C313.461 34.1308 313.903 36.6306 313.775 39.5648L313.601 43.5259L294.236 42.6793C294.208 44.9932 294.807 46.8384 296.033 48.2149C297.296 49.593 299.082 50.3325 301.393 50.4336C303.337 50.5186 305.106 50.4121 306.699 50.1143C308.294 49.7798 309.952 49.246 311.675 48.5129L311.398 54.8397C309.899 55.5091 308.317 55.9728 306.652 56.2307C305.022 56.5269 303.052 56.6245 300.741 56.5235C297.734 56.392 295.098 55.7256 292.836 54.5243C290.575 53.2862 288.834 51.5014 287.613 49.1696C286.392 46.8379 285.857 43.9482 286.008 40.5005C286.162 36.9795 286.876 34.0893 288.151 31.83C289.464 29.5355 291.209 27.848 293.388 26.7673C295.567 25.6866 298.068 25.208 300.892 25.3315ZM300.692 31.1656C299.115 31.0967 297.772 31.5524 296.664 32.5329C295.592 33.5149 294.917 35.084 294.639 37.2399L306.137 37.7426C306.19 36.5323 306.017 35.4407 305.619 34.4678C305.257 33.4965 304.667 32.7174 303.847 32.1304C303.028 31.5433 301.976 31.2217 300.692 31.1656Z" fill="white"/>
<path d="M281.384 24.4787C281.788 24.4964 282.264 24.5356 282.812 24.5963C283.361 24.657 283.798 24.7313 284.125 24.8191L283.183 32.4949C282.93 32.4103 282.547 32.3384 282.035 32.2793C281.562 32.1851 281.142 32.13 280.775 32.1139C279.711 32.0674 278.678 32.1692 277.675 32.4194C276.673 32.6328 275.756 33.0153 274.923 33.5669C274.128 34.12 273.47 34.8813 272.949 35.8508C272.468 36.7852 272.196 37.9676 272.133 39.398L271.464 54.6924L263.267 54.334L264.58 24.2953L270.797 24.5671L271.786 29.6815L272.171 29.6983C272.803 28.697 273.577 27.7938 274.495 26.9887C275.412 26.1836 276.45 25.5492 277.609 25.0854C278.805 24.6232 280.064 24.421 281.384 24.4787Z" fill="white"/>
<path d="M256.4 23.3867C256.803 23.4043 257.279 23.4435 257.828 23.5043C258.377 23.565 258.814 23.6392 259.141 23.727L258.199 31.4028C257.946 31.3182 257.563 31.2464 257.051 31.1873C256.578 31.0931 256.157 31.0379 255.791 31.0219C254.727 30.9754 253.694 31.0772 252.69 31.3273C251.689 31.5408 250.772 31.9233 249.939 32.4748C249.143 33.028 248.485 33.7893 247.965 34.7587C247.484 35.6931 247.211 36.8755 247.149 38.3059L246.48 53.6004L238.283 53.242L239.596 23.2032L245.813 23.475L246.802 28.5894L247.187 28.6063C247.819 27.605 248.593 26.7018 249.51 25.8967C250.428 25.0916 251.466 24.4571 252.625 23.9934C253.821 23.5312 255.08 23.329 256.4 23.3867Z" fill="white"/>
<path d="M231.003 22.8275L229.69 52.8663L223.418 52.5921L222.486 48.6928L222.046 48.6736C221.377 49.6733 220.534 50.4816 219.514 51.0985C218.534 51.6803 217.45 52.0923 216.263 52.3344C215.075 52.6132 213.858 52.7253 212.611 52.6708C210.483 52.5778 208.63 52.1109 207.05 51.2701C205.469 50.4293 204.274 49.1828 203.465 47.5305C202.655 45.8782 202.306 43.7684 202.419 41.2009L203.275 21.6152L211.472 21.9736L210.705 39.5237C210.612 41.651 210.927 43.2817 211.649 44.4157C212.371 45.5497 213.575 46.1535 215.263 46.2273C216.95 46.3011 218.269 45.9729 219.219 45.2427C220.207 44.5142 220.916 43.4244 221.347 41.9734C221.814 40.5239 222.094 38.7355 222.187 36.6082L222.806 22.4691L231.003 22.8275Z" fill="white"/>
<path d="M186.056 51.5098C183.085 51.3799 180.578 50.7374 178.534 49.5824C176.491 48.3906 174.969 46.6337 173.969 44.3116C172.968 41.9895 172.545 39.0496 172.701 35.4919C172.861 31.8242 173.615 28.8622 174.963 26.6061C176.311 24.3499 178.11 22.7198 180.358 21.7157C182.644 20.7132 185.235 20.2753 188.133 20.4019C190.187 20.4917 191.957 20.7712 193.443 21.2404C194.966 21.7112 196.284 22.2466 197.396 22.8464L194.699 29.0675C193.438 28.4978 192.246 28.0231 191.123 27.6433C190.038 27.2651 188.944 27.052 187.844 27.0039C186.414 26.9413 185.206 27.2377 184.222 27.8928C183.24 28.5113 182.481 29.4887 181.944 30.8249C181.447 32.1261 181.154 33.7853 181.065 35.8025C180.979 37.7831 181.145 39.444 181.564 40.7852C182.021 42.0914 182.712 43.0954 183.637 43.7973C184.564 44.4625 185.705 44.8248 187.062 44.8841C188.786 44.9595 190.318 44.8059 191.658 44.4235C192.999 44.0045 194.311 43.4187 195.593 42.6664L195.287 49.6534C194.005 50.4058 192.66 50.9165 191.252 51.1857C189.879 51.4931 188.147 51.6012 186.056 51.5098Z" fill="white"/>
<path d="M140.787 18.3318C143.575 18.4536 145.935 19.0897 147.869 20.2399C149.84 21.3917 151.332 23.0003 152.344 25.0657C153.356 27.1311 153.798 29.6308 153.67 32.565L153.496 36.5262L134.131 35.6795C134.103 37.9934 134.702 39.8386 135.928 41.2151C137.191 42.5932 138.978 43.3328 141.288 43.4338C143.232 43.5188 145.001 43.4124 146.594 43.1146C148.189 42.7801 149.847 42.2462 151.57 41.5131L151.293 47.8399C149.794 48.5093 148.212 48.973 146.547 49.231C144.917 49.5272 142.947 49.6248 140.636 49.5238C137.629 49.3923 134.994 48.7258 132.731 47.5245C130.47 46.2865 128.729 44.5016 127.508 42.1699C126.287 39.8382 125.752 36.9485 125.903 33.5008C126.057 29.9798 126.771 27.0896 128.046 24.8302C129.359 22.5358 131.104 20.8482 133.283 19.7675C135.462 18.6869 137.963 18.2083 140.787 18.3318ZM140.587 24.1659C139.01 24.0969 137.667 24.5527 136.559 25.5331C135.487 26.5152 134.812 28.0842 134.534 30.2401L146.032 30.7429C146.085 29.5325 145.912 28.4409 145.514 27.468C145.152 26.4968 144.562 25.7176 143.742 25.1306C142.923 24.5436 141.871 24.222 140.587 24.1659Z" fill="white"/>
<path d="M100.564 13.8727C100.5 15.3398 100.383 16.7495 100.214 18.1017C100.081 19.4556 99.9661 20.406 99.8687 20.9529L100.309 20.9722C101.014 19.9741 101.82 19.1825 102.728 18.5975C103.637 17.9758 104.63 17.5415 105.706 17.2945C106.821 17.0125 107.983 16.898 109.194 16.9509C111.358 17.0455 113.23 17.5132 114.81 18.354C116.39 19.1948 117.585 20.4413 118.395 22.0936C119.241 23.7475 119.608 25.8582 119.496 28.4256L118.64 48.0113L110.442 47.6529L111.209 30.1028C111.304 27.9388 110.971 26.3074 110.211 25.2084C109.489 24.0745 108.302 23.4714 106.652 23.3992C105.001 23.3271 103.683 23.6552 102.695 24.3838C101.745 25.1139 101.036 26.2037 100.568 27.6532C100.1 29.1026 99.82 30.891 99.727 33.0183L99.1089 47.1574L90.9115 46.799L92.7395 4.98682L100.937 5.34521L100.564 13.8727Z" fill="white"/>
<path d="M79.9727 40.3125C80.8897 40.3526 81.7739 40.2994 82.6255 40.1529C83.4771 40.0064 84.3303 39.8232 85.1851 39.6033L84.9181 45.7101C84.0218 46.0384 82.9079 46.3021 81.5763 46.5011C80.2797 46.7384 78.8613 46.8233 77.3208 46.756C75.5236 46.6774 73.9226 46.3134 72.5179 45.6641C71.1498 45.0163 70.0752 43.9588 69.2942 42.4915C68.5514 40.9891 68.2362 38.9542 68.3484 36.3868L68.981 21.9176L65.0749 21.7468L65.2264 18.2808L69.858 15.7272L72.5003 9.50379L77.7268 9.73229L77.4478 16.1142L85.8653 16.4822L85.5959 22.644L77.1784 22.276L76.5458 36.7452C76.4961 37.8822 76.7885 38.7585 77.4231 39.3742C78.0592 39.9532 78.9091 40.266 79.9727 40.3125Z" fill="white"/>
<path d="M46.7691 35.9392C46.6809 37.9565 46.1288 39.6595 45.1126 41.0482C44.0981 42.4002 42.6212 43.4013 40.6819 44.0515C38.7426 44.7017 36.3608 44.965 33.5367 44.8415C31.4461 44.7501 29.6553 44.5249 28.1644 44.1657C26.6718 43.8432 25.1873 43.3373 23.7108 42.6481L24.0066 35.8811C25.5884 36.6852 27.3041 37.3665 29.1538 37.9251C31.0035 38.4837 32.6435 38.7943 34.0739 38.8568C35.6877 38.9274 36.8352 38.7387 37.5162 38.2907C38.2339 37.8444 38.6096 37.2361 38.6433 36.4659C38.6657 35.9524 38.5391 35.4875 38.2633 35.0712C38.0242 34.6566 37.4574 34.1724 36.5629 33.6189C35.6684 33.0653 34.2669 32.3426 32.3583 31.4507C30.523 30.562 29.017 29.7061 27.8403 28.8829C26.6653 28.0231 25.8084 27.0302 25.2696 25.9043C24.7325 24.7416 24.5008 23.3167 24.5746 21.6295C24.6964 18.842 25.8698 16.7987 28.0947 15.4996C30.3196 14.2005 33.2293 13.6295 36.8237 13.7866C38.6942 13.8684 40.465 14.1296 42.1362 14.5701C43.8073 15.0107 45.523 15.692 47.2833 16.6141L44.5502 22.3926C43.5792 21.9092 42.6424 21.4824 41.7399 21.1122C40.8374 20.742 39.95 20.446 39.0778 20.2241C38.2422 20.0039 37.366 19.8737 36.449 19.8336C35.2387 19.7807 34.3145 19.9056 33.6766 20.2085C33.0753 20.5129 32.7602 20.9952 32.7314 21.6554C32.7105 22.1322 32.838 22.5788 33.1138 22.995C33.4278 23.3763 34.0154 23.8062 34.8764 24.2848C35.7741 24.765 37.0872 25.4104 38.8156 26.2209C40.509 26.9931 41.9623 27.7916 43.1757 28.6163C44.3906 29.4044 45.3034 30.3814 45.9139 31.5472C46.5626 32.678 46.8477 34.142 46.7691 35.9392Z" fill="white"/>
<path d="M19.3858 43.6713L1.50563 42.8896L1.71249 38.1582L6.5951 36.1669L7.70635 10.7494L3.01617 8.33954L3.22302 3.60815L21.1032 4.38988L20.8964 9.12126L16.0138 11.1126L14.9025 36.5301L19.5927 38.94L19.3858 43.6713Z" fill="white"/>
</svg>
