<svg width="859" height="157" viewBox="0 0 859 157" fill="none" xmlns="http://www.w3.org/2000/svg">
<path d="M839.357 97.1463C843.037 97.509 846.116 98.5214 848.593 100.184C851.118 101.85 852.975 104.087 854.165 106.894C855.356 109.7 855.76 113.041 855.378 116.915L854.863 122.145L829.294 119.625C829.09 122.685 829.75 125.171 831.273 127.081C832.844 128.996 835.155 130.104 838.206 130.405C840.773 130.658 843.121 130.645 845.251 130.366C847.386 130.038 849.62 129.451 851.952 128.606L851.129 136.959C849.097 137.737 846.969 138.236 844.747 138.457C842.569 138.731 839.954 138.718 836.903 138.417C832.932 138.026 829.493 136.954 826.585 135.2C823.682 133.398 821.507 130.91 820.06 127.736C818.612 124.562 818.113 120.699 818.562 116.147C819.02 111.498 820.174 107.724 822.024 104.826C823.928 101.884 826.36 99.7771 829.322 98.5043C832.283 97.2315 835.628 96.7788 839.357 97.1463ZM838.671 104.853C836.589 104.648 834.778 105.154 833.24 106.372C831.751 107.594 830.744 109.622 830.221 112.455L845.402 113.951C845.56 112.353 845.41 110.896 844.953 109.58C844.544 108.268 843.819 107.194 842.777 106.358C841.734 105.522 840.366 105.02 838.671 104.853Z" fill="#F15C30"/>
<path d="M788.065 90.1108C787.917 91.612 787.723 93.0842 787.483 94.5275C787.243 95.9707 787.034 97.0992 786.856 97.9129L787.291 97.9558C788.519 96.4143 790.084 95.175 791.985 94.2378C793.892 93.2521 796.273 92.9001 799.13 93.1817C803.586 93.6208 807.022 95.7197 809.438 99.4784C811.86 103.189 812.739 108.409 812.075 115.141C811.631 119.644 810.603 123.381 808.99 126.352C807.43 129.278 805.436 131.404 803.007 132.73C800.579 134.055 797.839 134.567 794.788 134.267C791.882 133.98 789.632 133.245 788.038 132.061C786.496 130.834 785.257 129.514 784.321 128.101L783.594 128.029L781.349 132.209L773.068 131.393L778.509 76.187L789.332 77.2537L788.065 90.1108ZM794.792 101.482C792.903 101.296 791.364 101.535 790.174 102.2C788.984 102.866 788.043 103.971 787.353 105.516C786.716 107.018 786.257 108.953 785.974 111.321L785.86 112.484C785.483 116.309 785.748 119.318 786.657 121.51C787.619 123.659 789.601 124.881 792.603 125.177C794.831 125.396 796.699 124.554 798.207 122.649C799.719 120.695 800.667 117.781 801.048 113.907C801.43 110.033 801.039 107.061 799.874 104.99C798.762 102.876 797.068 101.706 794.792 101.482Z" fill="#F15C30"/>
<path d="M765.628 90.6132L761.72 130.274L753.439 129.458L752.487 124.23L751.906 124.173C750.949 125.448 749.774 126.456 748.381 127.199C747.04 127.898 745.576 128.365 743.989 128.6C742.396 128.883 740.776 128.944 739.13 128.781C736.321 128.504 733.902 127.753 731.871 126.526C729.841 125.299 728.349 123.563 727.397 121.317C726.445 119.072 726.136 116.254 726.47 112.865L729.018 87.0051L739.842 88.0718L737.558 111.244C737.281 114.052 737.58 116.233 738.453 117.786C739.327 119.339 740.878 120.226 743.105 120.445C745.333 120.665 747.102 120.326 748.413 119.428C749.772 118.535 750.79 117.144 751.465 115.255C752.188 113.37 752.689 111.023 752.965 108.215L754.805 89.5465L765.628 90.6132Z" fill="#F15C30"/>
<path d="M707.725 124.952L696.757 123.871L700.966 81.1598L686.874 79.7709L687.776 70.6184L726.929 74.4771L726.027 83.6296L711.935 82.2407L707.725 124.952Z" fill="#F15C30"/>
<path d="M679.441 82.1193L675.532 121.78L667.251 120.964L666.3 115.736L665.719 115.679C664.762 116.954 663.586 117.963 662.193 118.705C660.853 119.404 659.389 119.871 657.801 120.106C656.208 120.389 654.589 120.45 652.942 120.287C650.134 120.011 647.714 119.259 645.684 118.032C643.653 116.805 642.162 115.069 641.209 112.823C640.257 110.578 639.948 107.761 640.282 104.371L642.831 78.5112L653.654 79.5779L651.37 102.75C651.094 105.558 651.392 107.739 652.266 109.292C653.14 110.845 654.69 111.732 656.918 111.951C659.145 112.171 660.915 111.832 662.226 110.934C663.585 110.041 664.602 108.65 665.277 106.761C666.001 104.876 666.501 102.53 666.778 99.7209L668.618 81.0526L679.441 82.1193Z" fill="#F15C30"/>
<path d="M632.155 97.4087C631.83 100.702 631.081 103.586 629.908 106.062C628.784 108.543 627.286 110.595 625.414 112.22C623.596 113.801 621.455 114.935 618.991 115.621C616.533 116.259 613.802 116.43 610.8 116.134C608.039 115.862 605.516 115.173 603.229 114.068C600.995 112.918 599.117 111.389 597.594 109.478C596.075 107.519 594.958 105.209 594.243 102.547C593.576 99.8897 593.404 96.9146 593.729 93.6217C594.163 89.2149 595.303 85.5867 597.148 82.737C598.999 79.8389 601.455 77.7339 604.519 76.4222C607.582 75.1105 611.099 74.6504 615.07 75.0417C618.798 75.4092 622.013 76.5328 624.712 78.4124C627.412 80.2921 629.435 82.8384 630.78 86.0515C632.131 89.2162 632.589 93.0019 632.155 97.4087ZM604.77 94.7098C604.512 97.3248 604.561 99.5545 604.917 101.399C605.327 103.199 606.091 104.619 607.211 105.659C608.336 106.65 609.867 107.241 611.804 107.432C613.741 107.622 615.334 107.339 616.582 106.582C617.883 105.781 618.886 104.536 619.591 102.845C620.348 101.11 620.856 98.9356 621.114 96.3206C621.371 93.7056 621.296 91.4978 620.886 89.6971C620.525 87.9013 619.783 86.5079 618.658 85.5169C617.533 84.5259 616.002 83.935 614.065 83.7441C611.208 83.4625 609.028 84.25 607.525 86.1066C606.075 87.9196 605.156 90.7873 604.77 94.7098Z" fill="#F15C30"/>
<path d="M572.458 80.8172L585.386 60.528L597.226 61.6949L576.889 91.6689L574.899 111.863L564.003 110.789L565.958 90.9583L551.899 57.2278L563.812 58.4018L572.458 80.8172Z" fill="#F15C30"/>
<path d="M511.847 100.514C512.067 98.2863 512.825 96.7963 514.121 96.044C515.423 95.2432 516.945 94.9287 518.688 95.1005C520.383 95.2676 521.791 95.8708 522.911 96.9102C524.035 97.9012 524.488 99.5105 524.268 101.738C524.058 103.869 523.3 105.359 521.994 106.208C520.693 107.009 519.195 107.326 517.5 107.159C515.757 106.987 514.325 106.381 513.205 105.342C512.09 104.254 511.637 102.645 511.847 100.514Z" fill="#F15C30"/>
<path d="M505.599 93.1509C505.336 95.8144 504.483 98.0284 503.037 99.7929C501.597 101.509 499.57 102.727 496.956 103.448C494.343 104.168 491.171 104.344 487.443 103.977C484.682 103.705 482.329 103.277 480.381 102.694C478.429 102.159 476.501 101.383 474.597 100.364L475.477 91.4292C477.513 92.6077 479.734 93.6334 482.142 94.5064C484.549 95.3793 486.698 95.9088 488.586 96.095C490.717 96.305 492.249 96.1382 493.183 95.5945C494.165 95.0557 494.706 94.2778 494.806 93.2608C494.873 92.5828 494.739 91.9584 494.404 91.3876C494.118 90.8215 493.403 90.1398 492.259 89.3425C491.115 88.5452 489.312 87.4874 486.851 86.1691C484.486 84.8603 482.555 83.6187 481.057 82.4443C479.564 81.2214 478.501 79.8454 477.87 78.3163C477.243 76.7387 477.039 74.8361 477.259 72.6085C477.621 68.9281 479.322 66.3086 482.361 64.75C485.399 63.1914 489.291 62.646 494.037 63.1137C496.507 63.3571 498.831 63.8307 501.011 64.5345C503.191 65.2383 505.413 66.264 507.676 67.6117L503.641 75.0619C502.391 74.3519 501.182 73.7194 500.014 73.1642C498.846 72.6091 497.693 72.1532 496.555 71.7965C495.465 71.4446 494.315 71.209 493.104 71.0897C491.506 70.9322 490.274 71.0308 489.408 71.3855C488.59 71.745 488.138 72.3605 488.052 73.2322C487.99 73.8617 488.127 74.4619 488.462 75.0328C488.85 75.56 489.596 76.1715 490.701 76.8671C491.855 77.5675 493.546 78.5166 495.775 79.7142C497.96 80.8586 499.826 82.0204 501.372 83.1996C502.923 84.3304 504.061 85.6893 504.784 87.2764C505.561 88.8199 505.833 90.7781 505.599 93.1509Z" fill="#F15C30"/>
<path d="M444.852 99.046L433.652 57.896L444.984 59.0128L450.384 82.3552C450.589 83.2555 450.74 84.1995 450.839 85.1871C450.985 86.1795 451.062 87.1405 451.068 88.0701C451.122 89.0045 451.136 89.8615 451.108 90.6411L451.398 90.6698C451.528 89.8513 451.711 88.9892 451.947 88.0834C452.183 87.1776 452.443 86.2742 452.727 85.3732C453.065 84.4286 453.422 83.5347 453.798 82.6917L463.652 60.8526L474.983 61.9694L455.966 100.141L444.852 99.046Z" fill="#F15C30"/>
<path d="M373.427 51.9604L385.267 53.1274L390.551 76.1649C390.722 76.9152 390.844 77.6606 390.918 78.4013C391.04 79.1468 391.111 79.9117 391.131 80.6961C391.2 81.4852 391.216 82.318 391.179 83.1945L391.397 83.2159C391.666 81.9712 391.977 80.8038 392.328 79.7139C392.734 78.5803 393.158 77.4975 393.602 76.4656L403.136 54.8884L414.759 56.0339L393.569 99.1258C392.285 101.737 390.729 103.882 388.901 105.56C387.122 107.243 385.121 108.439 382.9 109.149C380.678 109.859 378.309 110.09 375.79 109.842C374.58 109.723 373.522 109.545 372.616 109.309C371.754 109.127 370.991 108.929 370.327 108.717L371.172 100.146C371.695 100.295 372.315 100.454 373.032 100.622C373.797 100.796 374.591 100.923 375.415 101.004C376.916 101.152 378.23 100.963 379.358 100.439C380.533 99.9192 381.539 99.1382 382.376 98.096C383.207 97.1022 383.903 95.9972 384.463 94.7811L385.31 92.8843L373.427 51.9604Z" fill="#F15C30"/>
<path d="M368.332 50.7245C368.865 50.777 369.492 50.8632 370.213 50.9833C370.935 51.1033 371.509 51.2332 371.935 51.373L370.134 61.4637C369.805 61.3334 369.303 61.2107 368.63 61.0954C368.01 60.9365 367.458 60.8332 366.974 60.7855C365.569 60.6471 364.194 60.7072 362.849 60.9657C361.508 61.1758 360.266 61.6158 359.125 62.2856C358.031 62.9602 357.105 63.9203 356.347 65.1657C355.642 66.3675 355.196 67.9127 355.01 69.8013L353.02 89.995L342.197 88.9283L346.105 49.2674L354.314 50.0764L355.253 56.9167L355.762 56.9668C356.67 55.6872 357.76 54.5478 359.032 53.5485C360.304 52.5493 361.724 51.7846 363.292 51.2546C364.909 50.7294 366.589 50.5527 368.332 50.7245Z" fill="#F15C30"/>
<path d="M318.616 45.7512C323.943 46.2762 327.896 47.8393 330.476 50.4406C333.108 52.9982 334.191 56.6499 333.723 61.3956L331.117 87.8362L323.563 87.0917L321.986 81.5088L321.696 81.4802C320.443 82.7748 319.167 83.8224 317.865 84.6232C316.612 85.4288 315.192 85.9489 313.604 86.1836C312.06 86.4715 310.174 86.5056 307.947 86.2861C305.622 86.057 303.559 85.4136 301.756 84.3558C300.006 83.2543 298.69 81.731 297.806 79.7858C296.926 77.7922 296.628 75.3668 296.909 72.5097C297.324 68.2966 299.107 65.3429 302.256 63.6486C305.411 61.9058 309.952 61.2287 315.879 61.6173L322.801 62.0794L322.973 60.3361C323.178 58.2538 322.771 56.6735 321.753 55.5952C320.783 54.5217 319.33 53.8895 317.393 53.6985C315.456 53.5076 313.538 53.6121 311.641 54.0118C309.748 54.3631 307.841 54.8598 305.92 55.5016L303.084 47.8143C305.324 46.9105 307.759 46.2703 310.387 45.8937C313.064 45.5219 315.807 45.4744 318.616 45.7512ZM317.951 68.1291C314.454 67.8823 311.971 68.2732 310.501 69.3018C309.03 70.3304 308.202 71.789 308.016 73.6776C307.854 75.3241 308.221 76.5583 309.118 77.3801C310.019 78.1535 311.245 78.6166 312.795 78.7693C315.119 78.9984 317.147 78.5137 318.879 77.3153C320.615 76.0684 321.608 74.1859 321.856 71.6678L322.178 68.399L317.951 68.1291Z" fill="#F15C30"/>
<path d="M292.928 43.2928C293.461 43.3453 294.088 43.4316 294.809 43.5516C295.531 43.6716 296.105 43.8015 296.531 43.9413L294.73 54.0321C294.4 53.9018 293.899 53.779 293.226 53.6638C292.606 53.5049 292.054 53.4016 291.57 53.3539C290.165 53.2155 288.79 53.2755 287.445 53.5341C286.104 53.7442 284.862 54.1842 283.721 54.854C282.627 55.5286 281.701 56.4886 280.943 57.7341C280.238 58.9359 279.792 60.4811 279.606 62.3697L277.616 82.5634L266.793 81.4967L270.701 41.8358L278.91 42.6447L279.849 49.485L280.357 49.5351C281.266 48.2556 282.356 47.1161 283.628 46.1169C284.9 45.1176 286.32 44.353 287.888 43.823C289.505 43.2977 291.185 43.121 292.928 43.2928Z" fill="#F15C30"/>
<path d="M235.822 35.6843C235.674 37.1855 235.48 38.6577 235.24 40.1009C235 41.5442 234.791 42.6727 234.613 43.4863L235.049 43.5293C236.277 41.9878 237.841 40.7485 239.743 39.8113C241.649 38.8256 244.031 38.4736 246.888 38.7552C251.343 39.1942 254.779 41.2931 257.196 45.0519C259.617 48.7621 260.496 53.9829 259.833 60.7141C259.389 65.2177 258.361 68.9547 256.748 71.9252C255.188 74.8519 253.194 76.9779 250.765 78.3033C248.336 79.6286 245.596 80.1409 242.545 79.8402C239.64 79.5539 237.39 78.8187 235.795 77.6347C234.254 76.4071 233.015 75.087 232.078 73.6745L231.352 73.6029L229.106 77.7823L220.825 76.9662L226.266 21.7605L237.089 22.8272L235.822 35.6843ZM242.549 47.0556C240.661 46.8695 239.121 47.1089 237.931 47.774C236.741 48.439 235.801 49.5443 235.111 51.0899C234.474 52.5918 234.014 54.5268 233.732 56.8949L233.617 58.0571C233.24 61.8828 233.506 64.8916 234.415 67.0837C235.376 69.2322 237.358 70.4543 240.361 70.7502C242.588 70.9698 244.456 70.127 245.964 68.222C247.477 66.2685 248.424 63.3548 248.806 59.4807C249.188 55.6066 248.796 52.6342 247.631 50.5635C246.519 48.4492 244.825 47.2799 242.549 47.0556Z" fill="#F15C30"/>
<path d="M213.425 36.1915L209.517 75.8524L198.693 74.7857L202.602 35.1248L213.425 36.1915ZM209.582 20.117C211.18 20.2745 212.522 20.7979 213.608 21.6873C214.699 22.5282 215.144 23.9656 214.943 25.9995C214.747 27.985 214.03 29.3078 212.792 29.9681C211.553 30.6284 210.135 30.8798 208.537 30.7223C206.89 30.56 205.524 30.0342 204.438 29.1448C203.401 28.2603 202.98 26.8252 203.176 24.8398C203.376 22.8059 204.069 21.4806 205.254 20.864C206.493 20.2037 207.936 19.9547 209.582 20.117Z" fill="#F15C30"/>
<path d="M158.491 70.8235L163.602 18.9592L174.571 20.0402L170.354 62.8246L191.42 64.9007L190.525 73.9806L158.491 70.8235Z" fill="#F15C30"/>
<path d="M116.159 25.8724C119.839 26.2351 122.917 27.2475 125.394 28.9096C127.919 30.5764 129.777 32.8132 130.967 35.6198C132.157 38.4264 132.562 41.7667 132.18 45.6408L131.664 50.8708L106.095 48.3509C105.892 51.4113 106.551 53.8966 108.074 55.807C109.646 57.7222 111.957 58.8301 115.008 59.1308C117.574 59.3837 119.923 59.3707 122.053 59.0916C124.188 58.7642 126.421 58.1775 128.754 57.3317L127.931 65.6852C125.898 66.4628 123.771 66.9621 121.549 67.1832C119.37 67.4575 116.756 67.4442 113.705 67.1436C109.734 66.7522 106.294 65.6798 103.387 63.9264C100.484 62.1245 98.3088 59.6364 96.8613 56.4622C95.4139 53.288 94.9145 49.4248 95.3631 44.8728C95.8213 40.2239 96.9755 36.4504 98.8258 33.5523C100.729 30.6105 103.162 28.5032 106.123 27.2304C109.085 25.9576 112.43 25.5049 116.159 25.8724ZM115.472 33.5793C113.39 33.3741 111.58 33.8802 110.042 35.0977C108.552 36.32 107.546 38.3478 107.022 41.1811L122.204 42.6773C122.361 41.0792 122.211 39.622 121.754 38.3057C121.346 36.9941 120.62 35.9202 119.578 35.0841C118.536 34.2479 117.167 33.7463 115.472 33.5793Z" fill="#F15C30"/>
<path d="M63.2492 17.0625C63.0583 18.9996 62.8019 20.8568 62.4801 22.6343C62.2066 24.4165 61.9857 25.666 61.8173 26.3829L62.3984 26.4401C63.4037 25.1701 64.528 24.1808 65.7714 23.4721C67.0195 22.7149 68.3648 22.2119 69.8074 21.9629C71.3031 21.6702 72.85 21.6026 74.4481 21.7601C77.3052 22.0417 79.749 22.796 81.7795 24.0229C83.8101 25.2499 85.3014 26.986 86.2537 29.2313C87.2543 31.4813 87.5876 34.3013 87.2535 37.6911L84.705 63.5506L73.8817 62.4839L76.1654 39.312C76.447 36.4549 76.1243 34.2717 75.1973 32.7623C74.3236 31.2093 72.7971 30.3254 70.6179 30.1107C68.4388 29.8959 66.6695 30.2349 65.3102 31.1278C63.9994 32.0254 62.9821 33.4165 62.2585 35.3011C61.5349 37.1856 61.0347 39.5322 60.7579 42.3409L58.9181 61.0092L48.0949 59.9425L53.5356 4.73682L64.3589 5.80349L63.2492 17.0625Z" fill="#F15C30"/>
<path d="M26.8755 57.8524L15.907 56.7714L20.1165 14.0597L6.02449 12.6708L6.92651 3.51831L46.079 7.37696L45.1769 16.5295L31.085 15.1407L26.8755 57.8524Z" fill="#F15C30"/>
</svg>
