<svg width="161" height="190" viewBox="0 0 161 190" fill="none" xmlns="http://www.w3.org/2000/svg">
<g clip-path="url(#clip0_1049_5601)">
<path d="M146.725 160.373C133.433 157.284 110.079 151.027 94.4088 142.554C74.3188 131.467 64.2145 120.32 54.0022 99.9618C43.8499 79.838 36.6012 53.4774 53.0449 30.7897C77.0692 -2.32851 123.083 12.3598 128.547 45.42C132.184 66.4626 122.414 84.9447 109.006 93.1216C85.4697 107.637 66.3449 101.297 50.1452 92.709C40.6022 87.6611 29.9299 80.1555 20.7255 72.5238" stroke="#3E3CEB" stroke-width="5" stroke-miterlimit="10"/>
<path d="M7.86009 61.3351L19.5562 84.5594L21.6694 73.2813L32.5176 69.7549L7.86009 61.3351Z" fill="#3E3CEB"/>
</g>
<defs>
<clipPath id="clip0_1049_5601">
<rect width="164.25" height="123.527" fill="white" transform="matrix(-0.248011 -0.968757 -0.968757 0.248011 160.404 159.119)"/>
</clipPath>
</defs>
</svg>
