<svg width="168" height="125" viewBox="0 0 168 125" fill="none" xmlns="http://www.w3.org/2000/svg">
<g clip-path="url(#clip0_1049_5595)">
<path d="M165.773 13.7246C159.34 25.9795 147.217 47.303 134.846 60.5383C118.763 77.4501 105.155 84.5579 82.392 89.4599C59.8765 94.3618 31.9178 94.852 13.6085 73.0383C-13.1132 41.1755 13.1136 -0.246029 47.258 2.69515C69.0312 4.41083 84.8662 18.6265 89.5672 33.8226C97.9796 60.5383 86.8456 77.6951 74.227 91.4206C66.8044 99.5089 56.66 108.087 46.7631 115.195" stroke="#3E3CEB" stroke-width="5" stroke-miterlimit="10"/>
<path d="M32.4132 125L58.3926 119.363L47.7534 114.461L47.0111 102.941L32.4132 125Z" fill="#3E3CEB"/>
</g>
<defs>
<clipPath id="clip0_1049_5595">
<rect width="168" height="125" fill="white" transform="matrix(-1 0 0 1 168 0)"/>
</clipPath>
</defs>
</svg>
