<svg width="160" height="191" viewBox="0 0 160 191" fill="none" xmlns="http://www.w3.org/2000/svg">
<g clip-path="url(#clip0_1049_5598)">
<path d="M14.4586 162.967C27.7721 159.579 51.1463 152.792 66.7409 143.936C86.729 132.356 96.6653 120.925 106.517 100.221C116.314 79.7537 123.058 53.0702 106.032 30.5798C81.1579 -2.2501 35.1529 13.4975 30.3466 46.8866C27.1268 68.142 37.3471 86.5393 51.0134 94.4884C75.0065 108.605 94.1226 101.823 110.247 92.8401C119.747 87.5595 130.331 79.7817 139.435 71.9077" stroke="#3E3CEB" stroke-width="5" stroke-miterlimit="10"/>
<path d="M152.15 60.3768L140.864 83.9969L138.501 72.6899L127.509 69.3679L152.15 60.3768Z" fill="#3E3CEB"/>
</g>
<defs>
<clipPath id="clip0_1049_5598">
<rect width="165.352" height="124.356" fill="white" transform="translate(0.664062 161.99) rotate(-76.8325)"/>
</clipPath>
</defs>
</svg>
