<svg width="1920" height="1080" viewBox="0 0 1920 1080" fill="none" xmlns="http://www.w3.org/2000/svg">
<rect width="1920" height="1080" fill="#6BC06C"/>
<g clip-path="url(#clip0_915_5793)">
<mask id="mask0_915_5793" style="mask-type:luminance" maskUnits="userSpaceOnUse" x="753" y="-143" width="1082" height="610">
<path d="M1834.94 -142.559H753.875V467H1834.94V-142.559Z" fill="white"/>
</mask>
<g mask="url(#mask0_915_5793)">
<path d="M1831.94 375.753L1834.94 358.821C1835.32 356.752 1834 354.87 1831.94 354.494L1813.73 351.296C1811.67 350.919 1809.79 352.236 1809.42 354.306L1806.41 371.238L1800.97 401.716L1786.14 399.082L1766.81 296.172C1766.62 295.231 1766.25 294.291 1766.06 293.35C1775.63 286.201 1782.58 275.665 1784.83 263.06C1788.77 241.048 1776.95 219.977 1757.62 210.947L1761.93 186.113C1763.06 180.28 1760.05 174.072 1754.42 172.003C1747.1 169.369 1739.41 173.884 1738.28 181.221L1733.78 206.619C1712.57 208.313 1694.18 224.116 1690.24 246.128C1687.98 258.357 1690.8 270.397 1696.99 280.18C1696.24 281.121 1695.49 282.062 1694.93 283.003L1629.05 393.438C1624.55 401.152 1625.67 410.558 1631.12 416.955L1628.49 423.916C1627.17 427.679 1631.68 430.689 1634.49 427.867L1639.75 422.787C1640.69 423.164 1641.81 423.352 1642.75 423.54C1650.82 425.045 1659.27 421.47 1663.59 413.945L1727.77 306.331L1751.05 429.56C1752.74 438.026 1759.3 444.235 1767.37 445.74C1769.63 446.116 1772.25 446.116 1774.69 445.74C1784.45 443.858 1791.21 435.204 1791.02 425.609L1796.47 426.55L1793.84 441.225C1793.65 441.789 1793.84 442.353 1793.84 442.918L1799.47 463.801C1800.22 466.811 1804.16 467.564 1806.04 464.93L1818.43 447.245C1818.8 446.869 1818.99 446.304 1818.99 445.74L1821.62 431.065L1825.18 431.63C1827.25 432.006 1829.12 430.689 1829.5 428.619L1832.69 410.37C1833.06 408.301 1831.75 406.419 1829.69 406.043C1827.62 405.667 1826.31 403.786 1826.68 401.716L1831.94 375.753ZM1735.66 235.028C1751.05 233.711 1761.93 249.326 1755.36 263.436C1752.55 269.645 1746.35 273.972 1739.6 274.536C1724.21 275.853 1713.32 260.238 1719.89 246.128C1722.71 239.919 1728.9 235.592 1735.66 235.028Z" fill="#E65729"/>
</g>
<mask id="mask1_915_5793" style="mask-type:luminance" maskUnits="userSpaceOnUse" x="753" y="-143" width="1082" height="610">
<path d="M1834.94 -142.559H753.875V467H1834.94V-142.559Z" fill="white"/>
</mask>
<g mask="url(#mask1_915_5793)">
<path d="M1544.78 430.502C1544.21 430.314 1543.84 430.69 1543.65 431.255C1543.46 431.819 1543.84 432.195 1544.4 432.383C1544.96 432.572 1545.34 432.195 1545.53 431.631C1545.53 431.255 1545.34 430.69 1544.78 430.502Z" fill="#F15C30"/>
</g>
<mask id="mask2_915_5793" style="mask-type:luminance" maskUnits="userSpaceOnUse" x="753" y="-143" width="1082" height="610">
<path d="M1834.94 -142.559H753.875V467H1834.94V-142.559Z" fill="white"/>
</mask>
<g mask="url(#mask2_915_5793)">
<path d="M1533.14 413.948C1533.14 413.948 1532.96 414.136 1532.96 414.324C1532.58 426.177 1539.9 436.712 1550.79 439.346C1561.48 441.98 1573.12 436.336 1578.19 425.612C1578.19 425.424 1578.19 425.236 1578.19 425.236L1533.14 413.948ZM1541.78 423.166C1540.65 422.79 1539.9 421.661 1540.27 420.532C1540.65 419.404 1541.78 418.651 1542.9 419.027C1544.03 419.404 1544.78 420.533 1544.4 421.661C1544.03 422.602 1542.9 423.355 1541.78 423.166ZM1550.03 429.375C1549.1 429.187 1548.53 428.246 1548.72 427.305C1548.91 426.365 1549.85 425.8 1550.79 425.988C1551.72 426.177 1552.29 427.117 1552.1 428.058C1551.91 428.999 1550.97 429.563 1550.03 429.375ZM1560.54 435.583C1557.54 434.831 1555.67 431.633 1556.42 428.622C1557.17 425.612 1560.36 423.731 1563.36 424.483C1566.36 425.236 1568.24 428.434 1567.49 431.444C1566.74 434.455 1563.55 436.336 1560.54 435.583Z" fill="#F15C30"/>
</g>
<mask id="mask3_915_5793" style="mask-type:luminance" maskUnits="userSpaceOnUse" x="753" y="-143" width="1082" height="610">
<path d="M1834.94 -142.559H753.875V467H1834.94V-142.559Z" fill="white"/>
</mask>
<g mask="url(#mask3_915_5793)">
<path d="M1588.51 381.209C1587.2 380.081 1586.82 378.387 1587.2 376.882L1592.45 355.811C1598.65 355.999 1604.28 351.86 1605.78 345.652C1607.65 338.503 1603.15 330.977 1596.02 329.284L1562.99 321.006C1555.85 319.125 1548.35 323.64 1546.66 330.789C1545.16 336.997 1548.16 343.394 1553.6 346.216L1548.35 367.287C1547.97 368.981 1546.66 370.109 1544.97 370.486C1526.57 374.813 1512.12 389.864 1508.37 408.489C1503.3 433.887 1518.69 458.909 1543.65 465.494C1543.84 465.494 1544.22 465.682 1544.4 465.682C1556.98 468.881 1569.93 466.999 1581 460.414C1592.45 453.642 1600.34 442.918 1603.53 430.125C1608.03 412.064 1602.21 393.438 1588.51 381.209ZM1560.36 331.165L1593.39 339.443C1594.89 339.82 1596.02 341.513 1595.64 343.018C1595.27 344.523 1593.58 345.652 1592.08 345.275L1559.04 336.997C1557.54 336.621 1556.42 334.928 1556.79 333.423C1557.17 331.73 1558.86 330.789 1560.36 331.165ZM1571.62 404.35C1571.24 406.043 1569.37 407.172 1567.68 406.796C1565.99 406.42 1564.86 404.538 1565.24 402.845C1565.61 401.152 1567.49 400.023 1569.18 400.399C1571.06 400.775 1572.18 402.657 1571.62 404.35ZM1563.36 391.557C1562.61 394.567 1559.61 396.448 1556.6 395.696C1553.6 394.943 1551.72 391.933 1552.48 388.923C1553.23 385.913 1556.23 384.031 1559.23 384.784C1562.23 385.536 1564.11 388.547 1563.36 391.557ZM1587.57 430.125C1580.25 445.175 1563.74 453.453 1548.16 449.503C1532.58 445.552 1521.88 430.689 1522.45 413.757C1522.63 410.37 1524.13 407.36 1526.76 405.479C1529.39 403.597 1532.58 402.845 1535.58 403.597L1580.82 414.886C1583.82 415.638 1586.45 417.708 1587.76 420.718C1589.07 423.728 1589.07 427.303 1587.57 430.125Z" fill="#F15C30"/>
</g>
<mask id="mask4_915_5793" style="mask-type:luminance" maskUnits="userSpaceOnUse" x="753" y="-143" width="1082" height="610">
<path d="M1834.94 -142.559H753.875V467H1834.94V-142.559Z" fill="white"/>
</mask>
<g mask="url(#mask4_915_5793)">
<path d="M1623.98 275.668C1614.97 275.668 1606.34 279.431 1600.33 286.015C1594.33 292.6 1591.32 301.631 1592.26 310.473C1593.2 318.939 1597.14 326.465 1603.71 331.732C1606.15 333.802 1607.65 336.624 1608.03 339.634L1608.97 347.912C1609.91 356.566 1617.6 362.963 1626.42 362.022L1632.24 361.458C1640.87 360.517 1647.25 352.804 1646.32 343.961L1645.38 335.495C1645 332.485 1646.13 329.663 1648.01 327.029C1654.2 319.315 1656.45 309.532 1654.2 299.937C1651.01 286.015 1638.25 275.856 1623.98 275.668ZM1631.11 351.863L1625.3 352.427C1621.92 352.804 1618.73 350.17 1618.35 346.783L1617.98 342.644L1636.37 340.763L1636.74 344.902C1637.12 348.476 1634.49 351.487 1631.11 351.863Z" fill="#F7F29B"/>
</g>
<mask id="mask5_915_5793" style="mask-type:luminance" maskUnits="userSpaceOnUse" x="753" y="-143" width="1082" height="610">
<path d="M1834.94 -142.559H753.875V467H1834.94V-142.559Z" fill="white"/>
</mask>
<g mask="url(#mask5_915_5793)">
<path d="M1620.98 272.28C1623.61 272.092 1625.49 269.646 1625.3 267.012L1623.61 250.832C1623.42 248.198 1620.98 246.317 1618.35 246.505C1615.73 246.693 1613.85 249.139 1614.04 251.773L1615.73 267.953C1615.91 270.586 1618.35 272.468 1620.98 272.28Z" fill="#F7F29B"/>
</g>
<mask id="mask6_915_5793" style="mask-type:luminance" maskUnits="userSpaceOnUse" x="753" y="-143" width="1082" height="610">
<path d="M1834.94 -142.559H753.875V467H1834.94V-142.559Z" fill="white"/>
</mask>
<g mask="url(#mask6_915_5793)">
<path d="M1641.25 276.417C1642.18 276.982 1643.12 277.17 1644.25 276.982C1645.75 276.794 1647.06 276.041 1647.81 274.724L1656.07 260.802C1657.39 258.544 1656.64 255.534 1654.38 254.217C1652.13 252.9 1649.13 253.653 1647.81 255.911L1639.56 269.833C1638.24 272.09 1638.99 275.1 1641.25 276.417Z" fill="#F7F29B"/>
</g>
<mask id="mask7_915_5793" style="mask-type:luminance" maskUnits="userSpaceOnUse" x="753" y="-143" width="1082" height="610">
<path d="M1834.94 -142.559H753.875V467H1834.94V-142.559Z" fill="white"/>
</mask>
<g mask="url(#mask7_915_5793)">
<path d="M1672.41 279.429L1657.58 285.637C1655.14 286.578 1654.01 289.4 1654.95 291.846C1655.7 293.915 1657.77 295.044 1659.83 294.668C1660.21 294.668 1660.77 294.48 1661.14 294.292L1675.97 288.083C1678.41 287.142 1679.54 284.32 1678.6 281.875C1677.66 279.617 1674.84 278.488 1672.41 279.429Z" fill="#F7F29B"/>
</g>
<mask id="mask8_915_5793" style="mask-type:luminance" maskUnits="userSpaceOnUse" x="753" y="-143" width="1082" height="610">
<path d="M1834.94 -142.559H753.875V467H1834.94V-142.559Z" fill="white"/>
</mask>
<g mask="url(#mask8_915_5793)">
<path d="M1593.2 280.371C1594.32 281.5 1595.82 282.065 1597.14 281.876C1598.08 281.688 1599.01 281.312 1599.95 280.559C1601.83 278.866 1602.02 275.668 1600.33 273.787L1589.44 261.746C1587.75 259.865 1584.56 259.676 1582.69 261.37C1580.81 263.063 1580.62 266.261 1582.31 268.143L1593.2 280.371Z" fill="#F7F29B"/>
</g>
<mask id="mask9_915_5793" style="mask-type:luminance" maskUnits="userSpaceOnUse" x="753" y="-143" width="1082" height="610">
<path d="M1834.94 -142.559H753.875V467H1834.94V-142.559Z" fill="white"/>
</mask>
<g mask="url(#mask9_915_5793)">
<path d="M1568.24 299.37L1584 302.569C1584.57 302.569 1584.94 302.757 1585.32 302.569C1587.38 302.381 1589.07 300.875 1589.45 298.806C1590.01 296.172 1588.32 293.726 1585.69 293.162L1569.74 289.964C1567.11 289.399 1564.67 291.092 1564.11 293.726C1563.92 296.36 1565.61 298.806 1568.24 299.37Z" fill="#F7F29B"/>
</g>
</g>
<g clip-path="url(#clip1_915_5793)">
<mask id="mask10_915_5793" style="mask-type:luminance" maskUnits="userSpaceOnUse" x="85" y="-88" width="922" height="520">
<path d="M1006.09 -87.3994H85.3945V431.001H1006.09V-87.3994Z" fill="white"/>
</mask>
<g mask="url(#mask10_915_5793)">
<path d="M206.556 336.281C206.556 335.961 206.236 335.641 205.917 335.641C205.597 335.641 205.277 335.961 205.277 336.281C205.277 336.601 205.597 336.921 205.917 336.921C206.396 336.921 206.556 336.601 206.556 336.281Z" fill="#3E3CEB"/>
</g>
<mask id="mask11_915_5793" style="mask-type:luminance" maskUnits="userSpaceOnUse" x="85" y="-88" width="922" height="520">
<path d="M1006.09 -87.3994H85.3945V431.001H1006.09V-87.3994Z" fill="white"/>
</mask>
<g mask="url(#mask11_915_5793)">
<path d="M214.71 325.719C214.71 325.719 214.55 325.719 214.39 325.719C206.877 327.799 201.762 334.519 202.242 341.879C202.722 349.239 208.636 355.319 216.308 356.439C216.468 356.439 216.468 356.439 216.468 356.439L214.71 325.719ZM210.714 332.919C210.714 332.119 211.193 331.479 211.992 331.479C212.792 331.479 213.431 331.959 213.431 332.759C213.431 333.559 212.951 334.199 212.152 334.199C211.353 334.359 210.714 333.719 210.714 332.919ZM208.476 339.319C208.476 338.679 208.955 338.199 209.595 338.039C210.234 338.039 210.714 338.519 210.874 339.159C211.033 339.799 210.394 340.279 209.755 340.439C208.955 340.439 208.476 339.959 208.476 339.319ZM206.558 347.159C206.398 345.079 207.996 343.319 210.074 343.159C212.152 342.999 213.911 344.599 214.07 346.679C214.23 348.759 212.632 350.519 210.554 350.679C208.476 350.839 206.718 349.239 206.558 347.159Z" fill="#3E3CEB"/>
</g>
<mask id="mask12_915_5793" style="mask-type:luminance" maskUnits="userSpaceOnUse" x="85" y="-88" width="922" height="520">
<path d="M1006.09 -87.3994H85.3945V431.001H1006.09V-87.3994Z" fill="white"/>
</mask>
<g mask="url(#mask12_915_5793)">
<path d="M246.2 354.042C246.68 353.082 247.639 352.442 248.758 352.282L262.984 351.482C264.103 355.322 267.779 358.202 272.095 357.882C277.05 357.562 280.726 353.402 280.407 348.442L279.128 326.042C278.808 321.082 274.652 317.402 269.697 317.722C265.541 318.042 262.185 321.082 261.385 325.242L247.159 326.042C246.04 326.042 245.081 325.562 244.442 324.602C238.048 313.882 225.9 307.802 213.433 309.082C196.489 310.842 183.862 325.562 184.661 342.522C184.661 342.682 184.661 342.842 184.661 343.002C185.14 351.482 188.977 359.322 195.211 365.082C201.604 370.842 210.076 373.882 218.707 373.242C230.696 372.442 241.245 365.242 246.2 354.042ZM272.095 326.362L273.374 348.762C273.374 349.882 272.574 350.842 271.455 350.842C270.337 350.842 269.377 350.042 269.377 348.922L268.099 326.522C268.099 325.402 268.898 324.442 270.017 324.442C271.136 324.442 272.095 325.402 272.095 326.362ZM228.298 348.122C227.019 348.122 226.06 347.322 226.06 346.042C226.06 344.762 226.859 343.802 228.138 343.802C229.417 343.802 230.376 344.602 230.376 345.882C230.536 347.002 229.577 347.962 228.298 348.122ZM234.851 340.282C232.774 340.442 231.015 338.842 231.015 336.762C230.855 334.682 232.454 332.922 234.532 332.922C236.61 332.922 238.368 334.362 238.368 336.442C238.368 338.362 236.77 340.122 234.851 340.282ZM215.351 363.162C204.481 361.562 196.01 352.762 195.37 342.202C194.731 331.642 202.084 321.882 212.633 319.002C214.711 318.362 216.949 318.842 218.707 320.122C220.466 321.402 221.425 323.162 221.585 325.242L223.503 355.962C223.663 358.042 222.863 359.962 221.265 361.402C219.666 362.842 217.429 363.482 215.351 363.162Z" fill="#3E3CEB"/>
</g>
<mask id="mask13_915_5793" style="mask-type:luminance" maskUnits="userSpaceOnUse" x="85" y="-88" width="922" height="520">
<path d="M1006.09 -87.3994H85.3945V431.001H1006.09V-87.3994Z" fill="white"/>
</mask>
<g mask="url(#mask13_915_5793)">
<path d="M316.843 299L304.535 301.56C303.096 301.88 302.137 303.32 302.457 304.76L305.174 317.88C305.494 319.32 306.932 320.28 308.371 319.96L320.679 317.4L342.577 312.92L344.815 323.48L280.718 363.96C280.079 364.28 279.599 364.76 279.12 365.24C271.767 360.76 262.816 358.84 253.865 360.6C238.04 363.8 227.011 377.4 226.052 392.76L208.309 396.44C204.154 397.24 200.797 400.92 200.797 405.24C200.957 410.84 206.072 414.84 211.346 413.72L229.569 410.04C236.442 423.96 251.787 432.12 267.611 428.92C276.402 427.16 283.755 422.04 288.71 415.32C289.509 415.64 290.309 415.8 291.268 415.96L383.017 431C389.411 432.12 395.485 428.76 398.202 423.32L403.637 423.16C406.514 423.16 407.313 419.16 404.756 418.04L399.961 415.8C399.961 415 399.801 414.2 399.641 413.56C398.522 407.8 393.887 403 387.653 402.04L298.301 387.48L374.865 339.16C380.14 335.8 382.538 329.72 381.419 323.8C381.099 322.04 380.46 320.44 379.501 318.84C375.665 312.76 368.152 310.52 361.598 313.08L360.799 309.08L371.349 307C371.669 307 372.148 306.68 372.468 306.52L384.935 297.24C386.694 295.96 386.214 293.08 383.976 292.44L368.791 288.76C368.472 288.6 367.992 288.6 367.672 288.76L357.123 290.84L356.643 288.28C356.324 286.84 354.885 285.88 353.446 286.2L340.339 288.92C338.901 289.24 337.942 290.68 338.261 292.12C338.581 293.56 337.622 295 336.183 295.32L316.843 299ZM247.791 401.24C242.835 391.16 250.348 379.64 261.537 380.44C266.492 380.76 270.968 383.8 273.206 388.12C278.161 398.2 270.648 409.72 259.459 408.92C254.504 408.6 250.028 405.72 247.791 401.24Z" fill="#F15C30"/>
</g>
<mask id="mask14_915_5793" style="mask-type:luminance" maskUnits="userSpaceOnUse" x="85" y="-88" width="922" height="520">
<path d="M1006.09 -87.3994H85.3945V431.001H1006.09V-87.3994Z" fill="white"/>
</mask>
<g mask="url(#mask14_915_5793)">
<path d="M411.953 309.721L384.46 324.281C383.821 324.601 383.501 325.561 383.821 326.201L384.94 328.441C385.259 329.081 386.218 329.401 386.858 329.081L414.351 314.521C414.99 314.201 415.31 313.241 414.99 312.601L413.871 310.361C413.551 309.561 412.592 309.401 411.953 309.721Z" fill="#3E3CEB"/>
</g>
<mask id="mask15_915_5793" style="mask-type:luminance" maskUnits="userSpaceOnUse" x="85" y="-88" width="922" height="520">
<path d="M1006.09 -87.3994H85.3945V431.001H1006.09V-87.3994Z" fill="white"/>
</mask>
<g mask="url(#mask15_915_5793)">
<path d="M388.77 296.92L386.692 298.04C379.499 301.88 376.462 310.52 379.499 318.04C379.819 318.84 380.778 319.16 381.417 318.84L408.75 304.28C409.549 303.96 409.709 303 409.23 302.2C404.914 295.32 395.963 292.92 388.77 296.92Z" fill="#3E3CEB"/>
</g>
<mask id="mask16_915_5793" style="mask-type:luminance" maskUnits="userSpaceOnUse" x="85" y="-88" width="922" height="520">
<path d="M1006.09 -87.3994H85.3945V431.001H1006.09V-87.3994Z" fill="white"/>
</mask>
<g mask="url(#mask16_915_5793)">
<path d="M459.905 429.72L460.704 424.12C460.864 423 459.585 422.2 458.626 422.68L452.872 425.72C451.913 426.2 451.913 427.8 452.872 428.28L457.987 430.68C458.786 431.32 459.745 430.68 459.905 429.72Z" fill="#3E3CEB"/>
</g>
<mask id="mask17_915_5793" style="mask-type:luminance" maskUnits="userSpaceOnUse" x="85" y="-88" width="922" height="520">
<path d="M1006.09 -87.3994H85.3945V431.001H1006.09V-87.3994Z" fill="white"/>
</mask>
<g mask="url(#mask17_915_5793)">
<path d="M389.418 336.6L430.657 414.04C430.817 414.2 430.977 414.52 431.136 414.68L447.76 423.96C448.24 424.12 448.719 424.12 449.039 423.96L458.31 419C458.789 418.84 458.949 418.36 459.109 417.88L460.707 399C460.707 398.68 460.707 398.52 460.547 398.2L419.308 320.6C418.988 319.96 418.029 319.641 417.39 319.961L389.897 334.521C389.418 335.001 389.098 335.8 389.418 336.6Z" fill="#3E3CEB"/>
</g>
<mask id="mask18_915_5793" style="mask-type:luminance" maskUnits="userSpaceOnUse" x="85" y="-88" width="922" height="520">
<path d="M1006.09 -87.3994H85.3945V431.001H1006.09V-87.3994Z" fill="white"/>
</mask>
<g mask="url(#mask18_915_5793)">
<path d="M129.67 148.601L89.3894 163.961C88.4303 164.281 87.9508 165.401 88.2705 166.521L89.5492 169.721C89.8689 170.681 90.9878 171.161 92.1067 170.841L132.387 155.481C133.346 155.161 133.826 154.041 133.506 152.921L132.227 149.721C131.748 148.601 130.629 148.121 129.67 148.601Z" fill="#F7F29B"/>
</g>
<mask id="mask19_915_5793" style="mask-type:luminance" maskUnits="userSpaceOnUse" x="85" y="-88" width="922" height="520">
<path d="M1006.09 -87.3994H85.3945V431.001H1006.09V-87.3994Z" fill="white"/>
</mask>
<g mask="url(#mask19_915_5793)">
<path d="M100.101 126.841L97.2241 127.961C86.6745 131.961 80.9202 143.481 83.9572 154.201C84.2769 155.321 85.3958 155.961 86.5147 155.481L126.475 140.121C127.594 139.641 128.074 138.361 127.594 137.401C122.479 127.641 110.651 122.841 100.101 126.841Z" fill="#F7F29B"/>
</g>
<mask id="mask20_915_5793" style="mask-type:luminance" maskUnits="userSpaceOnUse" x="85" y="-88" width="922" height="520">
<path d="M1006.09 -87.3994H85.3945V431.001H1006.09V-87.3994Z" fill="white"/>
</mask>
<g mask="url(#mask20_915_5793)">
<path d="M175.063 322.041L177.141 314.521C177.62 312.921 176.022 311.641 174.583 312.121L166.111 315.321C164.673 315.961 164.353 317.881 165.792 318.841L172.345 323.161C173.144 323.801 174.743 323.321 175.063 322.041Z" fill="#F7F29B"/>
</g>
<mask id="mask21_915_5793" style="mask-type:luminance" maskUnits="userSpaceOnUse" x="85" y="-88" width="922" height="520">
<path d="M1006.09 -87.3994H85.3945V431.001H1006.09V-87.3994Z" fill="white"/>
</mask>
<g mask="url(#mask21_915_5793)">
<path d="M94.0286 181.561L137.346 295.161C137.506 295.481 137.666 295.801 137.985 295.961L159.084 311.481C159.564 311.801 160.363 311.961 161.003 311.801L174.749 306.521C175.388 306.361 175.868 305.721 176.028 305.081L181.462 279.321C181.462 279.001 181.462 278.521 181.303 278.201L137.985 164.601C137.666 163.641 136.547 163.161 135.428 163.481L95.1475 178.841C94.1884 179.481 93.7089 180.601 94.0286 181.561Z" fill="#F7F29B"/>
</g>
<mask id="mask22_915_5793" style="mask-type:luminance" maskUnits="userSpaceOnUse" x="85" y="-88" width="922" height="520">
<path d="M1006.09 -87.3994H85.3945V431.001H1006.09V-87.3994Z" fill="white"/>
</mask>
<g mask="url(#mask22_915_5793)">
<path d="M264.579 210.841C254.189 207.001 242.68 207.641 233.09 212.761C223.34 217.881 216.306 226.841 213.589 237.561C211.032 247.481 212.63 257.881 217.905 266.841C219.983 270.201 220.462 274.041 219.663 277.721L217.106 287.641C214.548 298.041 220.782 308.601 231.172 311.321L238.045 313.081C248.435 315.641 258.984 309.401 261.702 299.001L264.259 288.921C265.058 285.401 267.456 282.361 270.973 280.281C281.203 274.041 287.916 263.641 289.355 251.641C291.432 234.041 281.043 216.921 264.579 210.841ZM240.922 301.561L234.049 299.801C229.893 298.681 227.336 294.521 228.454 290.361L229.733 285.401L251.632 290.841L250.353 295.801C249.394 299.961 245.078 302.521 240.922 301.561Z" fill="#3E3CEB"/>
</g>
<mask id="mask23_915_5793" style="mask-type:luminance" maskUnits="userSpaceOnUse" x="85" y="-88" width="922" height="520">
<path d="M1006.09 -87.3994H85.3945V431.001H1006.09V-87.3994Z" fill="white"/>
</mask>
<g mask="url(#mask23_915_5793)">
<path d="M262.501 205.561C265.698 206.361 268.735 204.441 269.534 201.241L274.329 182.041C275.129 178.841 273.211 175.801 270.014 175.001C266.817 174.201 263.78 176.121 262.981 179.321L258.185 198.521C257.546 201.561 259.464 204.761 262.501 205.561Z" fill="#3E3CEB"/>
</g>
<mask id="mask24_915_5793" style="mask-type:luminance" maskUnits="userSpaceOnUse" x="85" y="-88" width="922" height="520">
<path d="M1006.09 -87.3994H85.3945V431.001H1006.09V-87.3994Z" fill="white"/>
</mask>
<g mask="url(#mask24_915_5793)">
<path d="M284.078 219C284.878 219.96 285.996 220.6 287.115 220.92C288.874 221.4 290.792 220.92 292.23 219.8L307.575 207.16C310.133 205.08 310.452 201.4 308.374 199C306.296 196.44 302.62 196.12 300.222 198.2L284.878 210.84C282.48 212.76 282 216.44 284.078 219Z" fill="#3E3CEB"/>
</g>
<mask id="mask25_915_5793" style="mask-type:luminance" maskUnits="userSpaceOnUse" x="85" y="-88" width="922" height="520">
<path d="M1006.09 -87.3994H85.3945V431.001H1006.09V-87.3994Z" fill="white"/>
</mask>
<g mask="url(#mask25_915_5793)">
<path d="M318.762 235.48L298.941 236.44C295.744 236.6 293.187 239.32 293.347 242.52C293.507 245.08 295.265 247.32 297.822 247.96C298.302 248.12 298.941 248.12 299.581 248.12L319.401 247.16C322.598 247 325.155 244.28 324.996 241.08C324.836 237.72 322.118 235.32 318.762 235.48Z" fill="#3E3CEB"/>
</g>
<mask id="mask26_915_5793" style="mask-type:luminance" maskUnits="userSpaceOnUse" x="85" y="-88" width="922" height="520">
<path d="M1006.09 -87.3994H85.3945V431.001H1006.09V-87.3994Z" fill="white"/>
</mask>
<g mask="url(#mask26_915_5793)">
<path d="M227.175 203.32C227.974 205.08 229.413 206.36 231.171 206.84C232.29 207.16 233.569 207 234.847 206.52C237.884 205.24 239.323 201.88 238.044 198.84L230.532 180.44C229.253 177.4 225.896 175.96 222.859 177.24C219.822 178.52 218.384 181.88 219.662 184.92L227.175 203.32Z" fill="#3E3CEB"/>
</g>
<mask id="mask27_915_5793" style="mask-type:luminance" maskUnits="userSpaceOnUse" x="85" y="-88" width="922" height="520">
<path d="M1006.09 -87.3994H85.3945V431.001H1006.09V-87.3994Z" fill="white"/>
</mask>
<g mask="url(#mask27_915_5793)">
<path d="M190.412 214.68L207.355 224.92C207.835 225.24 208.474 225.4 208.954 225.56C211.351 226.2 214.069 225.24 215.347 222.84C216.946 220.12 216.146 216.44 213.429 214.84L196.486 204.6C193.769 203 190.092 203.8 188.494 206.52C186.895 209.24 187.694 213.08 190.412 214.68Z" fill="#3E3CEB"/>
</g>
<mask id="mask28_915_5793" style="mask-type:luminance" maskUnits="userSpaceOnUse" x="85" y="-88" width="922" height="520">
<path d="M1006.09 -87.3994H85.3945V431.001H1006.09V-87.3994Z" fill="white"/>
</mask>
<g mask="url(#mask28_915_5793)">
<path d="M124.239 309.241C124.719 309.081 125.038 309.081 125.518 308.921C125.838 308.761 126.317 308.761 126.637 308.601C125.838 308.761 125.038 308.921 124.239 309.241ZM89.0737 359.001C88.9139 356.281 88.9139 353.401 89.2336 350.841C89.0737 353.561 88.9139 356.281 89.0737 359.001Z" fill="#3E3CEB"/>
</g>
<mask id="mask29_915_5793" style="mask-type:luminance" maskUnits="userSpaceOnUse" x="85" y="-88" width="922" height="520">
<path d="M1006.09 -87.3994H85.3945V431.001H1006.09V-87.3994Z" fill="white"/>
</mask>
<g mask="url(#mask29_915_5793)">
<path d="M185.455 346.199C185.295 345.399 184.976 344.599 184.816 343.799C183.058 337.239 180.18 331.319 176.024 325.879C175.865 325.719 175.865 325.559 175.705 325.399C169.95 318.199 162.278 312.919 153.806 309.879C151.728 309.239 149.65 308.759 147.573 308.119C147.253 307.959 146.933 307.319 146.773 306.839C145.814 303.159 144.216 299.639 141.339 297.079C137.183 293.239 132.387 291.479 126.633 291.959C125.994 291.959 125.354 292.119 124.715 292.279L118.321 293.879C117.202 294.199 116.084 294.679 115.124 295.159C114.006 295.799 112.887 296.439 111.928 297.239C105.854 302.359 103.776 308.919 105.694 316.599C106.013 317.879 105.854 318.679 105.214 319.479C105.054 319.639 104.735 319.959 104.575 320.119C104.095 320.439 103.616 320.919 103.296 321.239C103.136 321.399 102.976 321.559 102.817 321.719C102.657 321.879 102.657 321.879 102.497 322.039C95.6237 329.239 90.9883 338.359 89.3898 348.279C89.3898 348.439 89.3898 348.439 89.3898 348.599C89.5497 349.399 89.3898 349.879 89.3898 350.519V350.679C89.0702 353.399 89.0702 356.119 89.23 358.839C89.23 358.999 89.23 359.159 89.23 359.319C89.23 359.479 89.23 359.799 89.23 359.959C89.3898 362.679 89.8694 365.399 90.6686 368.119V368.279L90.8284 368.919C95.4639 386.519 100.099 403.959 104.735 421.559C106.653 428.759 112.727 432.279 119.92 430.519C143.257 424.439 166.434 418.359 189.771 412.119C195.845 410.519 199.361 406.199 199.361 400.119C199.361 398.999 199.042 397.719 198.722 396.599C194.247 379.799 189.771 362.999 185.455 346.199ZM112.407 314.359C111.608 310.359 112.407 306.839 115.284 303.959C116.563 302.679 118.321 301.719 120.08 301.079C123.117 299.959 126.313 298.999 129.67 299.159C134.146 299.479 138.302 302.839 139.421 307.319C135.584 307.159 131.748 307.479 128.072 308.279C127.752 308.279 127.592 308.439 127.273 308.439C127.113 308.439 126.953 308.439 126.953 308.599C126.793 308.599 126.793 308.599 126.633 308.599C126.313 308.759 125.834 308.759 125.514 308.919C125.035 309.079 124.715 309.079 124.236 309.239C123.756 309.399 123.436 309.399 122.957 309.559C122.797 309.559 122.637 309.719 122.317 309.719C122.158 309.719 121.998 309.879 121.678 309.879C121.358 310.039 120.879 310.199 120.559 310.359C120.399 310.359 120.239 310.519 119.92 310.519C119.76 310.519 119.6 310.679 119.28 310.679C118.801 310.839 118.321 311.159 117.842 311.319C117.682 311.479 117.362 311.479 117.202 311.639H117.043C116.883 311.799 116.723 311.799 116.403 311.959C116.243 311.959 116.084 312.119 116.084 312.119C114.965 312.919 113.686 313.559 112.407 314.359ZM99.9394 366.359C98.5009 359.479 98.6607 352.599 100.898 345.879C104.735 334.519 112.087 326.359 123.117 321.559C124.875 320.759 126.633 320.279 127.752 319.799C146.294 314.999 165.315 323.799 173.307 340.439C174.426 342.679 175.225 345.079 176.024 347.479C176.664 349.559 175.705 351.479 173.787 352.119C172.028 352.759 170.11 351.799 169.311 349.879C168.192 347.319 167.393 344.439 166.114 342.039C160.04 330.839 147.093 324.279 134.465 325.879C117.682 327.959 105.374 342.359 106.013 359.319C106.013 361.239 106.493 363.319 106.813 365.239C107.292 367.959 106.333 369.879 104.255 370.359C102.177 370.519 100.579 369.079 99.9394 366.359ZM183.058 374.039C184.816 380.919 186.574 387.799 188.492 394.679C189.291 397.559 188.332 399.159 185.455 399.959C174.266 402.839 162.917 405.879 151.728 408.759C140.539 411.639 129.35 414.679 118.161 417.559C114.965 418.359 113.526 417.559 112.567 414.359C110.809 407.639 109.05 400.759 107.292 393.879L106.653 391.479C105.854 388.439 106.653 386.839 109.85 386.039C132.387 380.119 154.765 374.359 177.303 368.439C180.34 367.639 181.939 368.599 182.738 371.479L183.058 374.039Z" fill="#3E3CEB"/>
</g>
<mask id="mask30_915_5793" style="mask-type:luminance" maskUnits="userSpaceOnUse" x="-34" y="-289" width="1022" height="735">
<path d="M857.328 -288.999L-33.6797 -56.1846L96.8906 445.216L987.898 212.401L857.328 -288.999Z" fill="white"/>
</mask>
<g mask="url(#mask30_915_5793)">
<path d="M176.202 376.125L114.023 392.367L118.619 410.008L180.797 393.767L176.202 376.125Z" fill="#3E3CEB"/>
</g>
</g>
<mask id="mask31_915_5793" style="mask-type:alpha" maskUnits="userSpaceOnUse" x="0" y="0" width="1920" height="1080">
<rect width="1920" height="1080" fill="#D9D9D9"/>
</mask>
<g mask="url(#mask31_915_5793)">
<path d="M-456.987 1217.68C-358.646 1302.84 -223.001 1348.96 -88.4832 1342.86C46.0348 1336.77 177.933 1278.64 269.724 1184.89C324.807 1128.71 366.242 1058.11 373.926 982.669C381.609 907.232 351.772 827.023 287.238 782.041C222.703 737.059 123.672 736.123 63.5437 787.543C-6.2396 847.435 -1.54684 960.423 59.9212 1025.89C121.427 1091.71 224.932 1113.02 317.628 1097.32C410.325 1081.61 493.901 1034.02 568.433 979.623C642.966 925.227 711.364 863.011 788.515 811.868C976.225 686.868 1209.62 631.521 1438.47 628.289C1667.32 625.056 1893.18 670.941 2111.68 732.473" stroke="white" stroke-width="15" stroke-miterlimit="10"/>
</g>
<defs>
<clipPath id="clip0_915_5793">
<rect width="381" height="333" fill="white" transform="translate(1453 134)"/>
</clipPath>
<clipPath id="clip1_915_5793">
<rect width="406" height="320" fill="white" transform="translate(83 111)"/>
</clipPath>
</defs>
</svg>
