<svg width="1920" height="1080" viewBox="0 0 1920 1080" fill="none" xmlns="http://www.w3.org/2000/svg">
<g clip-path="url(#clip0_979_5504)">
<rect width="1920" height="1080" fill="#6BC06C"/>
<path d="M2212.24 785.473C2149.22 899.274 2037.73 989.251 1909.33 1029.82C1780.93 1070.39 1637.08 1061.2 1518.63 1004.77C1447.58 970.975 1384.38 918.938 1351.21 850.753C1318.03 782.568 1318.45 696.989 1363.56 632.547C1408.67 568.105 1501.33 533.147 1575.49 560.735C1661.62 592.954 1696.09 700.656 1660.91 783.278C1625.81 866.241 1535.96 921.87 1443.52 939.025C1351.08 956.181 1256.23 940.252 1167.53 914.828C1078.83 889.403 993.202 854.525 903.164 833.055C683.902 780.285 445.715 808.636 229.731 884.354C13.7477 960.071 -182.532 1080.88 -366.51 1213.84" stroke="#3E3CEB" stroke-width="15" stroke-miterlimit="10"/>
</g>
<defs>
<clipPath id="clip0_979_5504">
<rect width="1920" height="1080" fill="white"/>
</clipPath>
</defs>
</svg>
