<svg width="207" height="135" viewBox="0 0 207 135" fill="none" xmlns="http://www.w3.org/2000/svg">
<g clip-path="url(#clip0_1044_5388)">
<path d="M98.4764 79.6475C98.853 82.0953 101.112 82.4719 102.619 82.4719C104.125 82.4719 106.196 82.0953 106.196 80.2124C106.196 76.2583 95.2754 78.8944 95.2754 71.9276C95.2754 68.1617 98.853 66.2788 102.242 66.2788C106.008 66.2788 109.586 67.9734 109.586 72.3042L105.443 71.551C104.878 69.4798 102.995 69.2915 101.866 69.2915C100.548 69.2915 99.0413 69.8564 99.0413 71.3627C99.0413 72.6807 99.9827 73.0573 104.502 74.1871C105.82 74.5637 109.962 75.3168 109.962 79.6475C109.962 83.0368 107.326 85.4846 102.242 85.4846C98.0998 85.4846 94.334 83.4134 94.334 78.8944L98.4764 79.6475Z" fill="white"/>
<path d="M116.553 66.6553H112.41V85.1079H116.553V66.6553Z" fill="white"/>
<path d="M130.674 78.3294L135.758 85.1079H130.862L126.155 78.5177H124.084V85.1079H119.941V66.6553H128.226C132.934 66.6553 134.628 69.6679 134.628 72.4923C134.816 75.1284 133.498 77.5762 130.674 78.3294ZM124.084 69.8562V75.505H127.285C129.168 75.505 130.862 75.1284 130.862 72.6806C130.862 70.2328 129.168 69.8562 127.285 69.8562H124.084Z" fill="white"/>
<path d="M35.9636 104.125C35.9636 106.573 35.3987 110.339 29.75 110.339C27.6787 110.339 25.7958 109.586 24.6661 107.891C24.1012 107.138 23.7246 105.82 23.7246 105.255L27.4904 104.69C27.4904 106.008 27.867 106.95 29.75 106.95C31.8212 106.95 31.8212 105.255 31.8212 103.937V91.5098H35.9636V104.125Z" fill="white"/>
<path d="M47.638 110.151C42.3659 110.151 38.0352 105.82 38.0352 100.548C38.0352 95.2758 42.3659 90.9451 47.638 90.9451C52.9102 90.9451 57.2409 95.2758 57.2409 100.548C57.2409 105.82 52.9102 110.151 47.638 110.151ZM41.9893 100.548C41.9893 103.561 44.6254 106.197 47.638 106.197C50.6507 106.197 53.2868 103.561 53.2868 100.548C53.2868 97.5353 50.839 94.8992 47.638 94.8992C44.4371 94.8992 41.9893 97.5353 41.9893 100.548Z" fill="white"/>
<path d="M71.7398 102.054H63.2666V109.774H59.3125V91.3215H63.2666V98.1H71.7398V91.3215H75.6939V109.774H71.7398V102.054Z" fill="white"/>
<path d="M81.9076 97.1586V109.962H78.3301V91.3215H83.0374L91.3222 102.807V91.3215H94.7115V109.962H91.3222L81.9076 97.1586Z" fill="white"/>
<path d="M123.331 109.962H119.377L116.176 97.3469L113.163 109.962H109.021L104.125 91.3215H108.079L110.715 104.125L111.092 103.937L114.293 91.3215H118.059L121.26 104.125H121.636L124.272 91.3215H128.415L123.331 109.962Z" fill="white"/>
<path d="M134.441 91.3215H130.299V109.774H134.441V91.3215Z" fill="white"/>
<path d="M137.453 109.774V91.3215H141.407V106.385H150.822V109.774H137.453Z" fill="white"/>
<path d="M155.906 104.314C156.283 106.762 158.542 107.138 160.049 107.138C161.555 107.138 163.626 106.762 163.626 104.879C163.626 100.925 152.705 103.561 152.705 96.5938C152.705 92.828 156.283 90.9451 159.672 90.9451C163.438 90.9451 167.015 92.6397 167.015 96.9704L163.061 96.4055C162.496 94.146 160.613 94.146 159.295 94.146C157.977 94.146 156.471 94.7109 156.471 96.2172C156.471 97.5353 157.412 97.9119 161.931 99.0416C163.249 99.4182 167.392 100.171 167.392 104.502C167.392 107.891 164.756 110.339 159.672 110.339C155.53 110.339 151.764 108.268 151.764 103.749L155.906 104.314Z" fill="white"/>
<path d="M178.312 110.151C173.04 110.151 168.709 105.82 168.709 100.548C168.709 95.2758 173.04 90.9451 178.312 90.9451C183.584 90.9451 187.915 95.2758 187.915 100.548C187.726 105.82 183.396 110.151 178.312 110.151ZM172.663 100.548C172.663 103.561 175.299 106.197 178.312 106.197C181.325 106.197 183.961 103.561 183.961 100.548C183.961 97.5353 181.513 94.8992 178.312 94.8992C175.111 94.8992 172.663 97.5353 172.663 100.548Z" fill="white"/>
<path d="M193.376 97.1586V109.962H189.799V91.3215H194.506L202.603 102.807V91.3215H206.18V109.962H202.603L193.376 97.1586Z" fill="white"/>
<path d="M98.4764 129.168C98.853 131.616 101.112 131.993 102.619 131.993C104.125 131.993 106.196 131.616 106.196 129.733C106.196 125.779 95.2754 128.415 95.2754 121.448C95.2754 117.682 98.853 115.8 102.242 115.8C106.008 115.8 109.586 117.494 109.586 121.825L105.443 121.072C104.878 119.001 102.995 118.812 101.866 118.812C100.548 118.812 99.0413 119.377 99.0413 120.883C99.0413 122.201 99.9827 122.578 104.502 123.708C105.82 124.084 109.962 124.838 109.962 129.168C109.962 132.558 107.326 135.005 102.242 135.005C98.0998 135.005 94.334 132.934 94.334 128.415L98.4764 129.168Z" fill="white"/>
<path d="M120.883 134.629C115.799 134.629 111.469 130.486 111.469 125.214C111.469 120.13 115.611 115.8 120.883 115.8C124.461 115.8 127.474 117.682 128.98 120.507C127.474 121.26 127.285 121.448 125.591 122.201C124.649 120.695 122.955 119.565 120.883 119.565C117.871 119.565 115.423 122.013 115.423 125.026C115.423 128.039 117.871 130.486 120.883 130.486C122.955 130.486 124.837 129.357 125.779 127.662C127.474 128.603 127.662 128.603 129.168 129.357C127.474 132.558 124.461 134.629 120.883 134.629Z" fill="white"/>
<path d="M143.668 126.72H135.194V134.629H131.24V115.988H135.194V122.766H143.668V115.988H147.81V134.629H143.668V126.72Z" fill="white"/>
<path d="M158.919 134.817C153.647 134.817 149.316 130.486 149.316 125.214C149.316 119.942 153.647 115.611 158.919 115.611C164.191 115.611 168.522 119.942 168.522 125.214C168.522 130.486 164.191 134.817 158.919 134.817ZM153.271 125.214C153.271 128.227 155.907 130.863 158.919 130.863C161.932 130.863 164.568 128.227 164.568 125.214C164.568 122.202 162.12 119.565 158.919 119.565C155.907 119.565 153.271 122.202 153.271 125.214Z" fill="white"/>
<path d="M179.066 134.817C173.794 134.817 169.463 130.486 169.463 125.214C169.463 119.942 173.794 115.611 179.066 115.611C184.338 115.611 188.669 119.942 188.669 125.214C188.669 130.486 184.338 134.817 179.066 134.817ZM173.417 125.214C173.417 128.227 176.053 130.863 179.066 130.863C182.078 130.863 184.715 128.227 184.715 125.214C184.715 122.202 182.267 119.565 179.066 119.565C176.053 119.565 173.417 122.202 173.417 125.214Z" fill="white"/>
<path d="M190.74 134.44V115.988H194.694V131.051H204.109V134.44H190.74Z" fill="white"/>
<path d="M108.832 35.3988C108.832 34.8339 108.456 34.269 107.703 34.269C105.631 34.6456 104.313 35.3988 103.56 35.7754C103.372 35.9637 103.184 36.152 102.995 36.152C102.619 36.5285 102.43 37.0934 102.242 37.6583C102.242 37.8466 102.242 37.8466 102.242 38.0349C102.242 38.788 102.619 39.5412 103.372 40.1061C103.749 40.4827 104.313 40.4827 104.878 40.4827C105.631 40.4827 106.196 40.2944 106.573 39.7295C108.079 38.4115 108.644 36.5285 108.832 35.3988Z" fill="white"/>
<path d="M81.53 38.9764C83.4129 36.9052 85.4841 35.2106 87.7436 33.5159C87.9319 33.3276 88.1202 33.1393 88.1202 32.7628C88.1202 26.5491 89.6265 20.7121 92.0743 15.4399C93.2041 13.3687 94.3338 11.2975 95.6519 9.41456C96.2168 8.66139 95.2753 7.53164 94.3338 8.09652C92.4509 9.41456 90.7563 10.7326 89.25 12.2389C86.049 15.2516 83.2246 19.0174 81.1534 22.9716C79.2705 26.5491 77.9524 30.5033 77.011 34.4574C76.8227 35.7754 76.6344 37.0935 76.4461 38.4115C76.2578 39.7296 76.2578 41.0476 76.2578 42.3656C76.2578 43.3071 77.3876 43.6837 77.9524 42.9305C79.2705 41.6125 80.4002 40.2944 81.53 38.9764Z" fill="white"/>
<path d="M31.8207 74.187C32.3856 74.187 32.9505 73.9987 33.1388 73.8105C33.3271 73.6222 33.3271 73.4339 33.3271 73.2456C33.3271 72.869 33.1388 72.1158 31.0676 72.1158C21.4647 71.9275 12.8032 66.8437 6.21302 60.2534C4.89497 58.9354 3.57693 57.4291 2.25889 55.7344C2.0706 55.5461 1.69401 54.793 1.12914 54.793C0.375968 54.793 -0.188908 55.3578 -0.000615615 55.9227C-0.000615615 55.9227 -0.000615615 56.111 0.187676 56.6759C0.56426 57.9939 1.8823 61.1949 4.89497 64.3959C9.41398 69.668 16.9457 74.9402 31.8207 74.187Z" fill="white"/>
<path d="M22.0301 19.9588C23.3481 21.6535 24.8545 23.5364 26.5491 25.0427C27.114 25.6076 26.5491 26.3608 25.7959 26.1725C24.2896 25.7959 22.2184 25.0427 20.1472 23.913C19.2057 23.3481 18.0759 22.7832 16.9462 22.03C16.3813 21.6535 15.6282 22.2183 16.0047 22.7832C16.5696 23.913 17.5111 25.6076 18.8291 27.4905C20.9003 30.1266 23.913 33.3276 28.6203 36.1519C28.8086 36.3402 29.1852 36.5285 29.3735 36.7168C32.3861 38.4114 35.9637 39.9178 40.1061 41.2358C40.8593 41.4241 40.671 42.5539 39.9178 42.5539C37.6583 42.7422 34.2691 42.9304 30.3149 42.5539C29.5618 42.5539 28.8086 42.3656 27.8671 42.1773C27.114 41.989 26.7374 42.9304 27.3023 43.4953C28.432 44.2485 30.1266 45.3782 32.3861 46.3197C36.7168 48.3909 43.1188 50.4621 51.5919 51.027C52.3451 51.027 52.5334 51.9685 51.7802 52.345C50.0856 53.0982 47.4495 54.228 44.0602 54.6045C43.4954 54.7928 43.3071 55.546 43.6837 55.7343C43.6837 55.7343 43.8719 55.7343 43.8719 55.9226C45.0017 56.4875 46.508 57.0523 48.2027 57.4289C50.0856 57.9938 52.1568 58.1821 54.0397 58.1821C54.228 58.1821 54.228 58.1821 54.4163 58.1821C54.6046 58.1821 54.7929 58.1821 54.9812 58.1821C55.3578 58.1821 55.7343 58.1821 56.1109 58.1821C56.2992 58.1821 56.4875 58.1821 56.6758 58.1821C56.8641 58.1821 57.0524 58.1821 57.2407 58.1821C57.429 58.1821 57.6173 58.1821 57.8055 58.1821C57.9938 58.1821 58.1821 58.1821 58.3704 58.1821C60.2533 57.9938 62.1363 57.6172 64.2075 56.864C66.2787 56.1109 68.1616 55.1694 69.8562 54.0397C70.986 53.2865 71.9274 52.5333 72.8689 51.7802C74.1869 50.6504 75.505 49.3324 76.6347 47.826C76.6347 47.826 76.6347 47.826 76.6347 47.6377C76.2582 47.2612 75.8816 46.8846 75.505 46.508C75.1284 46.1314 74.7518 45.7548 74.3752 45.3782C69.8562 41.0475 64.5841 37.6583 58.5587 35.5871H58.3704C56.2992 34.8339 42.1773 29.9383 29.9383 19.9588C29.5618 19.5822 28.9969 19.2057 28.6203 18.8291C27.114 17.6993 25.7959 16.193 24.6662 14.8749C19.0174 8.66131 15.6282 1.50622 14.1218 -0.188408C14.1218 -0.3767 13.1804 0.188176 13.3686 0.753052C14.1218 4.51889 16.3813 12.4272 22.0301 19.9588Z" fill="white"/>
<path d="M34.2691 75.6934C33.1393 76.07 26.7374 78.1412 11.8623 73.8105C7.34331 72.4924 10.356 76.2583 14.1218 77.7646C19.2057 79.6475 28.0554 81.5304 34.2691 77.388C36.152 75.8817 34.6456 75.5051 34.2691 75.6934Z" fill="white"/>
<path d="M35.5868 78.5176C33.8921 79.6474 33.139 81.1537 25.9839 82.0952C23.9127 82.2835 27.1136 86.0493 31.4443 84.3547C36.7165 82.66 37.0931 77.5762 35.5868 78.5176Z" fill="white"/>
<path d="M38.977 81.1537C38.977 81.1537 39.3536 83.9781 36.3409 85.6727C34.2697 86.8025 37.4707 88.4971 39.1653 86.9908C41.2365 85.2962 40.8599 82.8484 40.6717 82.0952C40.1068 80.9654 39.1653 80.2123 38.977 81.1537Z" fill="white"/>
<path d="M80.4012 75.6933C80.4012 76.0699 80.2129 76.2582 79.8364 76.2582C79.4598 76.2582 79.2715 76.0699 79.2715 75.6933C79.2715 75.3167 79.4598 75.1284 79.8364 75.1284C80.2129 75.1284 80.4012 75.3167 80.4012 75.6933Z" fill="#F7C76A"/>
<path d="M102.995 42.1773C101.489 41.4241 100.359 39.9178 100.359 38.2232V38.0349C100.359 37.47 100.359 37.0934 100.547 36.7168C100.736 36.152 100.547 35.5871 99.9825 35.2105C98.4762 34.269 96.7816 33.5159 94.8987 33.5159C94.1455 33.5159 93.3923 33.5159 92.8274 33.7042C91.5094 33.8925 90.0031 34.6456 88.4967 35.7754C83.0363 39.7295 77.1992 48.0144 77.1992 48.0144C78.329 49.3324 79.4587 50.8387 80.5885 52.3451C83.9777 57.4289 86.2372 63.4543 87.1787 69.8562C87.1787 70.0445 87.1787 70.2328 87.1787 70.2328V70.6094C87.367 70.4211 87.367 70.4211 87.5553 70.2328C90.3797 67.4084 93.0157 64.2075 94.8987 60.6299C95.4635 59.8767 96.0284 58.9353 96.5933 57.9938C99.606 53.2865 101.865 48.5792 102.807 46.1314C103.184 45.3783 103.372 44.8134 103.372 44.8134C103.56 44.2485 103.748 43.6836 103.748 43.1188C103.748 42.9305 103.372 42.3656 102.995 42.1773ZM96.2167 42.3656C95.087 42.3656 94.1455 41.4241 94.1455 40.2944C94.1455 39.1646 95.087 38.2232 96.2167 38.2232C97.3465 38.2232 98.2879 39.1646 98.2879 40.2944C98.2879 41.4241 97.3465 42.3656 96.2167 42.3656Z" fill="white"/>
<path d="M79.6473 75.1285C79.0824 75.3168 78.3292 75.3168 77.576 75.3168C74.94 75.3168 72.3039 74.3754 70.421 72.869C67.7849 70.7978 65.9019 67.4086 65.9019 63.6427C65.9019 62.1364 66.0902 60.8184 66.6551 59.5003C66.6551 59.312 66.6551 59.1237 66.4668 59.1237C66.2785 58.9354 66.0902 59.1237 65.9019 59.1237C59.5 65.9022 51.0269 70.4212 41.6123 71.7393C39.9177 71.9276 38.5996 73.2456 38.5996 75.1285C38.5996 76.4466 39.3528 77.5763 40.2942 78.1412C40.2942 78.1412 40.4825 78.1412 40.4825 78.3295C45.7547 80.7773 51.78 82.2836 58.182 82.2836C62.8893 82.2836 67.4083 81.5305 71.5507 80.0241C74.3751 79.0827 77.1995 77.7646 79.8355 76.2583C80.0238 76.2583 80.0238 76.07 80.0238 75.8817C80.4004 75.3168 80.0238 75.1285 79.6473 75.1285Z" fill="white"/>
</g>
<defs>
<clipPath id="clip0_1044_5388">
<rect width="206.18" height="135.005" fill="white"/>
</clipPath>
</defs>
</svg>
