<svg width="375" height="53" viewBox="0 0 375 53" fill="none" xmlns="http://www.w3.org/2000/svg">
<path d="M31.1253 45.9704V51.4772H0V0.718994H6.46451V45.9704H31.1253Z" fill="white"/>
<path d="M74.2201 34.4772C73.9807 36.3926 73.5019 38.0686 72.7836 39.7445C72.0653 41.4205 71.347 43.0965 70.3893 44.5331C69.4316 45.9696 68.2344 47.4062 67.0373 48.3639C65.8402 49.561 64.1642 50.2793 62.4883 50.9976C60.8123 51.7158 58.8969 51.9553 56.7421 51.9553C54.5872 51.9553 52.6718 51.7158 50.9959 50.9976C49.3199 50.2793 47.8833 49.561 46.4468 48.3639C45.2497 47.1667 44.0525 45.9696 43.0948 44.5331C42.1371 43.0965 41.4188 41.4205 40.7005 39.7445C39.9823 38.0686 39.5035 36.1532 39.264 34.4772C39.0246 32.5618 38.7852 30.8858 38.7852 28.9704V23.2242C38.7852 21.3088 39.0246 19.6329 39.264 17.7175C39.5035 15.8021 39.9823 14.1261 40.7005 12.4501C41.4188 10.7741 42.1371 9.09812 43.0948 7.66157C44.0525 6.22502 45.2497 4.78851 46.4468 3.59138C47.6439 2.39425 49.3199 1.67596 50.9959 0.957687C52.6718 0.239411 54.5872 0 56.7421 0C58.8969 0 60.8123 0.239411 62.4883 0.957687C64.1642 1.67596 65.6008 2.39425 67.0373 3.59138C68.2344 4.78851 69.4316 5.98558 70.3893 7.42213C71.347 8.85868 72.0653 10.5347 72.7836 12.2106C73.5019 13.8866 73.7412 15.802 74.2201 17.478C74.4595 19.3934 74.699 21.0694 74.699 22.9848V28.731C74.699 30.8859 74.6989 32.8013 74.2201 34.4772ZM68.2344 19.3934C67.995 18.1963 67.7556 16.7598 67.5162 15.5626C67.2768 14.3655 66.7979 13.1684 66.0796 11.9713C65.6008 10.7741 64.8825 9.8164 63.9248 8.85869C63.2065 7.90099 62.0094 7.18273 61.0517 6.70388C59.8546 6.22503 58.6575 5.98563 56.9815 5.98563C55.5449 5.98563 54.1084 6.22503 53.1507 6.70388C51.9536 7.18273 50.9958 7.90099 50.2775 8.85869C49.5593 9.8164 48.841 10.7741 48.1227 11.9713C47.6439 13.1684 47.165 14.3655 46.6862 15.5626C46.4467 16.7598 46.2073 18.1963 45.9679 19.3934C45.7285 20.5905 45.7285 22.0271 45.7285 23.2242V28.9704C45.7285 30.1675 45.7285 31.3647 45.9679 32.8012C46.2073 34.2378 46.4467 35.4349 46.6862 36.632C46.9256 37.8292 47.4045 39.2657 48.1227 40.4629C48.6016 41.66 49.3198 42.6177 50.2775 43.5754C50.9958 44.5331 52.193 45.2513 53.1507 45.7302C54.3478 46.209 55.545 46.4485 57.2209 46.4485C58.6575 46.4485 60.094 46.209 61.2911 45.7302C62.4883 45.2513 63.446 44.5331 64.1643 43.5754C64.8825 42.6177 65.6008 41.66 66.3191 40.4629C67.0374 39.2657 67.2768 38.0686 67.7556 36.8715C67.9951 35.6744 68.2345 34.2378 68.4739 33.0407C68.7133 31.6041 68.7133 30.407 68.7133 29.2098V23.4637C68.4739 22.0271 68.2344 20.8299 68.2344 19.3934Z" fill="white"/>
<path d="M116.601 35.1973C116.601 37.5915 116.122 39.7464 115.404 41.9012C114.686 44.0561 113.489 45.732 112.052 47.408C110.616 48.8445 108.94 50.2811 106.785 50.9994C104.869 51.9571 102.475 52.4359 100.081 52.4359C97.6866 52.4359 95.2923 51.9571 93.3769 50.9994C91.4615 50.0417 89.5462 48.8445 88.1096 47.408C86.6731 45.9714 85.476 44.0561 84.7577 41.9012C84.0394 39.7464 83.5605 37.5915 83.5605 35.1973V0.959473H89.7855L90.025 35.1973C90.025 36.6338 90.2645 38.0704 90.7433 39.507C91.2222 40.9435 91.9404 42.1407 92.6587 43.0984C93.377 44.0561 94.5741 45.0137 95.7712 45.732C96.9683 46.4502 98.4049 46.6897 100.081 46.6897C101.757 46.6897 103.193 46.4502 104.391 45.732C105.588 45.0137 106.785 44.2955 107.503 43.0984C108.221 42.1407 108.94 40.7041 109.418 39.507C109.897 38.0704 110.137 36.6338 110.137 35.1973V0.959473H116.362L116.601 35.1973Z" fill="white"/>
<path d="M126.659 0.718994H138.391C140.307 0.718994 142.222 0.95839 143.898 1.43724C145.574 1.91609 147.25 2.39497 148.686 3.11325C150.841 4.07095 152.517 5.26809 154.193 6.94407C155.869 8.38062 157.066 10.296 158.024 12.2114C158.982 13.8874 159.461 15.8028 159.939 17.9576C160.418 20.1125 160.658 22.2673 160.658 24.4221V28.2529C160.658 30.4077 160.418 32.5626 159.939 34.478C159.461 36.3934 158.982 38.3088 158.024 39.9847C157.306 41.6607 156.109 43.3367 154.912 44.7732C153.714 46.2098 152.278 47.4069 150.602 48.3646C148.926 49.3223 147.01 50.28 144.856 50.7589C142.701 51.2377 140.546 51.7166 138.152 51.7166H126.42V0.718994H126.659ZM133.363 46.2098H138.631C140.546 46.2098 142.222 45.9704 143.659 45.4916C145.095 45.0127 146.532 44.5338 147.729 43.5761C148.926 42.8578 150.123 41.6607 151.081 40.4636C152.038 39.2665 152.757 37.8299 153.236 36.3934C153.714 35.1962 153.954 33.7597 154.193 32.3232C154.433 30.8866 154.672 29.45 154.672 27.774V23.9433C154.672 22.2673 154.433 20.8307 154.193 19.3941C153.954 17.9576 153.475 16.5211 152.996 15.324C152.278 13.648 151.56 12.2114 150.362 11.0143C149.405 9.81713 147.968 8.62003 146.532 7.90175C145.335 7.18348 144.137 6.94404 142.94 6.46519C141.504 6.22576 140.067 5.98638 138.631 5.98638H133.363V46.2098Z" fill="white"/>
<path d="M166.641 0.715514H172.866L176.457 35.6716L176.696 37.587L177.175 35.4322L183.4 0.476074H188.907L195.132 35.4322L195.611 37.587L195.85 35.4322L199.442 0.476074H205.427L199.202 51.2343H192.499L186.273 15.081L186.034 12.9262L185.555 15.081L179.33 51.2343H172.866L166.641 0.715514Z" fill="white"/>
<path d="M245.41 34.4772C245.17 36.3926 244.691 38.0686 243.973 39.7445C243.255 41.4205 242.536 43.0965 241.579 44.5331C240.621 45.9696 239.424 47.4062 238.227 48.3639C237.03 49.561 235.354 50.2793 233.678 50.9976C232.002 51.7158 230.086 51.9553 227.932 51.9553C225.777 51.9553 223.861 51.7158 222.185 50.9976C220.509 50.2793 219.073 49.561 217.636 48.3639C216.439 47.1667 215.242 45.9696 214.284 44.5331C213.327 43.0965 212.608 41.4205 211.89 39.7445C211.172 38.0686 210.693 36.1532 210.453 34.4772C210.214 32.5618 209.975 30.8858 209.975 28.9704V23.2242C209.975 21.3088 210.214 19.6329 210.453 17.7175C210.693 15.8021 211.172 14.1261 211.89 12.4501C212.608 10.7741 213.327 9.09812 214.284 7.66157C215.242 6.22502 216.439 4.78851 217.636 3.59138C218.833 2.39425 220.509 1.67596 222.185 0.957687C223.861 0.239411 225.777 0 227.932 0C230.086 0 232.002 0.239411 233.678 0.957687C235.354 1.67596 236.79 2.39425 238.227 3.59138C239.424 4.78851 240.621 5.98558 241.579 7.42213C242.536 8.85868 243.255 10.5347 243.973 12.2106C244.691 13.8866 244.931 15.802 245.41 17.478C245.649 19.3934 245.888 21.0694 245.888 22.9848V28.731C245.888 30.8859 245.888 32.8013 245.41 34.4772ZM239.424 19.3934C239.184 18.1963 238.945 16.7598 238.706 15.5626C238.466 14.3655 237.987 13.1684 237.269 11.9713C236.79 10.7741 236.072 9.8164 235.114 8.85869C234.396 7.90099 233.199 7.18273 232.241 6.70388C231.044 6.22503 229.847 5.98563 228.171 5.98563C226.734 5.98563 225.298 6.22503 224.34 6.70388C223.143 7.18273 222.185 7.90099 221.467 8.85869C220.749 9.8164 220.031 10.7741 219.312 11.9713C218.833 13.1684 218.354 14.3655 217.876 15.5626C217.636 16.7598 217.397 18.1963 217.157 19.3934C216.918 20.5905 216.918 22.0271 216.918 23.2242V28.9704C216.918 30.1675 216.918 31.3647 217.157 32.8012C217.397 34.2378 217.636 35.4349 217.876 36.632C218.115 37.8292 218.594 39.2657 219.312 40.4629C219.791 41.66 220.509 42.6177 221.467 43.5754C222.185 44.5331 223.382 45.2513 224.34 45.7302C225.537 46.209 226.734 46.4485 228.41 46.4485C230.086 46.4485 231.284 46.209 232.481 45.7302C233.678 45.2513 234.635 44.5331 235.354 43.5754C236.072 42.6177 236.79 41.66 237.509 40.4629C237.987 39.2657 238.466 38.0686 238.945 36.8715C239.184 35.6744 239.424 34.2378 239.663 33.0407C239.903 31.8435 239.903 30.407 239.903 29.2098V23.4637C239.663 22.0271 239.424 20.8299 239.424 19.3934Z" fill="white"/>
<path d="M262.412 30.8868V51.4774H255.947V0.719238H270.792C273.186 0.719238 275.341 1.19807 277.496 1.67693C279.65 2.3952 281.326 3.35293 283.002 4.55006C284.678 5.74719 285.875 7.42316 286.594 9.33857C287.551 11.254 288.03 13.4088 288.03 16.0424C288.03 17.7184 287.791 19.155 287.312 20.5915C286.833 22.0281 286.115 23.2252 285.397 24.4223C284.678 25.6195 283.481 26.5772 282.523 27.2955C281.326 28.2532 280.129 28.9714 278.693 29.4503L289.467 50.9986V51.4774H282.763L272.707 30.8868H262.412ZM271.031 25.6195C272.468 25.6195 273.904 25.3801 275.101 24.9012C276.298 24.4224 277.495 23.9435 278.453 22.9858C279.411 22.2675 280.129 21.0704 280.608 20.1127C281.087 18.9156 281.326 17.479 281.326 16.0424C281.326 14.3665 281.087 12.9299 280.608 11.7328C280.129 10.5357 279.411 9.57795 278.453 8.62025C277.495 7.90197 276.298 7.18372 275.101 6.70487C273.904 6.22602 272.468 5.98663 270.792 5.98663H262.412V25.38H271.031V25.6195Z" fill="white"/>
<path d="M305.027 34.478V51.7166H298.562V0.958434H305.027V25.6192L310.055 19.3941L324.899 0.718994H332.8L315.083 22.9855L333.997 51.4772H326.096L310.773 28.0135L305.027 34.478Z" fill="white"/>
<path d="M366.8 34.7167C366.082 33.759 365.124 32.8013 364.166 32.083C362.969 31.3647 361.772 30.6464 360.575 30.1675C359.138 29.6887 357.941 29.2099 356.744 28.731C355.068 28.2522 353.153 27.5339 351.237 26.5762C349.322 25.8579 347.646 24.6608 346.21 23.7031C344.773 22.506 343.336 21.0694 342.379 19.3934C341.421 17.7174 340.942 15.802 340.942 13.6472C340.942 11.4924 341.421 9.57699 342.379 7.90101C343.336 6.22503 344.534 4.78851 346.21 3.59138C347.885 2.39425 349.561 1.43654 351.477 0.957687C353.392 0.239411 355.547 0 357.462 0C359.617 0 361.772 0.478851 363.927 1.19713C366.082 1.9154 367.758 2.87308 369.434 4.30963C371.11 5.74618 372.307 7.18273 373.265 9.09813C374.222 11.0135 374.701 13.1684 374.701 15.3232H367.997C367.758 13.8867 367.518 12.4501 366.8 11.2529C366.321 10.0558 365.603 9.09815 364.645 8.14045C363.687 7.18275 362.73 6.70385 361.533 6.225C360.336 5.74615 358.899 5.50675 357.462 5.50675C356.265 5.50675 355.068 5.74621 353.871 5.98563C352.674 6.22506 351.716 6.94329 350.759 7.66157C349.801 8.37984 349.083 9.09813 348.604 10.2953C348.125 11.253 347.885 12.4501 347.885 13.8866C347.885 15.3232 348.364 16.5203 349.083 17.478C349.801 18.4357 350.759 19.3934 351.716 20.1117C352.913 20.83 354.111 21.3088 355.308 21.7877C356.505 22.2665 357.702 22.7454 358.899 22.9848C360.814 23.4636 362.73 24.182 364.645 25.1397C366.561 25.8579 368.237 27.055 369.913 28.2522C371.349 29.4493 372.786 30.8858 373.504 32.5618C374.462 34.2378 374.941 36.1532 374.941 38.5474C374.941 40.9417 374.462 42.8571 373.504 44.5331C372.546 46.209 371.11 47.6456 369.673 48.8428C367.997 50.0399 366.321 50.7582 364.166 51.4765C362.251 51.9553 360.096 52.4341 358.181 52.4341C355.787 52.4341 353.392 51.9553 350.998 51.237C348.604 50.5187 346.688 49.3216 345.012 47.6456C343.576 46.2091 342.379 44.7725 341.421 43.0966C340.463 41.4206 339.984 39.2658 339.984 37.1109H346.449C346.688 38.7869 347.167 39.984 347.646 41.4206C348.125 42.8571 349.083 43.5754 350.04 44.5331C350.998 45.4908 352.195 45.9697 353.632 46.4485C355.068 46.9274 356.505 47.1668 357.941 47.1668C359.138 47.1668 360.336 46.9274 361.533 46.6879C362.73 46.4485 363.927 45.9697 364.885 45.2514C365.842 44.5331 366.561 43.8148 367.279 42.8571C367.997 41.8994 368.237 40.7023 368.237 39.2657C367.997 37.1109 367.518 35.9138 366.8 34.7167Z" fill="white"/>
</svg>
