<svg width="349" height="157" viewBox="0 0 349 157" fill="none" xmlns="http://www.w3.org/2000/svg">
<mask id="mask0_1044_5309" style="mask-type:luminance" maskUnits="userSpaceOnUse" x="0" y="0" width="349" height="157">
<path d="M348.16 0H0V156.166H348.16V0Z" fill="white"/>
</mask>
<g mask="url(#mask0_1044_5309)">
<path d="M164.921 54.4291C162.186 51.9676 160.818 48.1388 160.818 43.2159V21.3362C160.818 21.0627 160.818 20.5157 161.092 20.2422C161.365 19.9687 161.639 19.9688 161.912 19.9688H166.835C167.109 19.9688 167.656 19.9687 167.656 20.2422C167.929 20.5157 167.929 20.7892 167.929 21.3362V43.2159C167.929 45.9508 168.476 48.1387 169.844 49.5062C171.211 50.8737 173.126 51.6941 175.587 51.6941C178.049 51.6941 179.963 50.8737 181.331 49.5062C182.698 48.1387 183.245 45.9508 183.245 43.2159V21.3362C183.245 21.0627 183.245 20.5157 183.518 20.2422C183.792 19.9687 184.065 19.9688 184.339 19.9688H189.262C189.535 19.9688 190.082 19.9687 190.082 20.2422C190.356 20.5157 190.356 20.7892 190.356 21.3362V43.2159C190.356 48.1388 188.988 51.9676 186.527 54.4291C183.792 56.8906 180.236 57.9845 175.314 57.9845C171.211 57.9845 167.656 56.8906 164.921 54.4291Z" fill="white"/>
</g>
<mask id="mask1_1044_5309" style="mask-type:luminance" maskUnits="userSpaceOnUse" x="0" y="0" width="349" height="157">
<path d="M348.16 0H0V156.166H348.16V0Z" fill="white"/>
</mask>
<g mask="url(#mask1_1044_5309)">
<path d="M199.653 57.1641C199.379 56.8906 199.379 56.6171 199.379 56.3436V21.6097C199.379 21.3362 199.379 20.7893 199.653 20.5158C199.926 20.2423 200.199 20.2422 200.473 20.2422H204.575C205.122 20.2422 205.669 20.5156 206.216 21.0626L221.259 44.8568V21.6097C221.259 21.3362 221.259 20.7893 221.532 20.5158C221.806 20.2423 222.079 20.2422 222.353 20.2422H227.002C227.276 20.2422 227.822 20.2423 227.822 20.5158C228.096 20.7893 228.096 21.0627 228.096 21.6097V56.3436C228.096 56.6171 228.096 57.1642 227.822 57.4377C227.549 57.7112 227.276 57.7111 227.002 57.7111H222.9C222.079 57.7111 221.532 57.4376 221.259 56.8906L206.216 33.6435V56.3436C206.216 56.6171 206.216 56.8906 205.943 57.1641C205.669 57.4376 205.396 57.4377 205.122 57.4377H200.473C199.926 57.4377 199.653 57.4376 199.653 57.1641Z" fill="white"/>
</g>
<mask id="mask2_1044_5309" style="mask-type:luminance" maskUnits="userSpaceOnUse" x="0" y="0" width="349" height="157">
<path d="M348.16 0H0V156.166H348.16V0Z" fill="white"/>
</mask>
<g mask="url(#mask2_1044_5309)">
<path d="M237.119 57.162C236.846 56.8885 236.846 56.615 236.846 56.3415V21.6076C236.846 21.3341 236.846 20.7871 237.119 20.7871C237.393 20.5136 237.666 20.5137 237.94 20.5137H243.136C243.41 20.5137 243.957 20.5136 243.957 20.7871C244.23 21.0606 244.23 21.3341 244.23 21.6076V56.3415C244.23 56.615 244.23 56.8885 243.957 57.162C243.683 57.4354 243.41 57.4355 243.136 57.4355H237.94C237.666 57.4355 237.119 57.4354 237.119 57.162Z" fill="white"/>
</g>
<mask id="mask3_1044_5309" style="mask-type:luminance" maskUnits="userSpaceOnUse" x="0" y="0" width="349" height="157">
<path d="M348.16 0H0V156.166H348.16V0Z" fill="white"/>
</mask>
<g mask="url(#mask3_1044_5309)">
<path d="M261.19 57.1641C260.916 56.8906 260.916 56.6171 260.916 56.3436V26.8061H251.071C250.797 26.8061 250.524 26.806 250.25 26.5325C249.977 26.259 249.977 25.9856 249.977 25.4387V21.3362C249.977 21.0627 249.977 20.5157 250.25 20.2422C250.524 19.9687 250.797 19.9688 251.071 19.9688H278.147C278.42 19.9688 278.967 19.9687 278.967 20.2422C279.241 20.5157 279.241 20.7892 279.241 21.3362V25.4387C279.241 25.7122 279.241 26.259 278.967 26.5325C278.694 26.806 278.42 26.8061 278.147 26.8061H268.301V56.3436C268.301 56.6171 268.301 56.8906 268.027 57.1641C267.754 57.4375 267.48 57.4376 267.207 57.4376H262.284C261.737 57.4376 261.19 57.4375 261.19 57.1641Z" fill="white"/>
</g>
<mask id="mask4_1044_5309" style="mask-type:luminance" maskUnits="userSpaceOnUse" x="0" y="0" width="349" height="157">
<path d="M348.16 0H0V156.166H348.16V0Z" fill="white"/>
</mask>
<g mask="url(#mask4_1044_5309)">
<path d="M284.981 57.1641C284.707 56.8906 284.707 56.6171 284.707 56.3436V21.6097C284.707 21.3362 284.707 20.7893 284.981 20.5158C285.254 20.2423 285.528 20.2422 285.801 20.2422H309.048C309.322 20.2422 309.869 20.2423 309.869 20.5158C310.142 20.7893 310.142 21.0627 310.142 21.6097V25.1651C310.142 25.4386 310.142 25.9857 309.869 25.9857C309.595 26.2592 309.322 26.2591 309.048 26.2591H291.544V35.558H307.681C307.954 35.558 308.501 35.558 308.501 35.8315C308.775 36.105 308.775 36.3785 308.775 36.9255V40.2073C308.775 40.4808 308.775 41.0279 308.501 41.0279C308.228 41.3014 307.954 41.3014 307.681 41.3014H291.544V50.8737H309.322C309.595 50.8737 310.142 50.8736 310.142 51.1471C310.416 51.4206 310.416 51.6943 310.416 51.9677V55.5232C310.416 55.7967 310.416 56.3436 310.142 56.3436C309.869 56.6171 309.595 56.617 309.322 56.617H285.527C285.527 57.4375 285.254 57.4376 284.981 57.1641Z" fill="white"/>
</g>
<mask id="mask5_1044_5309" style="mask-type:luminance" maskUnits="userSpaceOnUse" x="0" y="0" width="349" height="157">
<path d="M348.16 0H0V156.166H348.16V0Z" fill="white"/>
</mask>
<g mask="url(#mask5_1044_5309)">
<path d="M318.072 57.1641C317.799 56.8906 317.799 56.6171 317.799 56.3436V21.6097C317.799 21.3362 317.799 20.7893 318.072 20.5158C318.346 20.2423 318.619 20.2422 318.893 20.2422H331.747C342.14 20.2422 347.61 25.1651 347.61 34.7374C347.61 36.9254 347.61 38.2928 347.61 38.8398C347.61 39.3868 347.61 41.0278 347.61 42.9423C347.336 47.8652 346.242 51.6941 343.507 53.8821C341.046 56.3435 337.217 57.4377 331.747 57.4377H318.619C318.619 57.4377 318.346 57.4376 318.072 57.1641ZM331.747 51.4207C334.755 51.4207 336.67 50.8737 338.037 49.5062C339.405 48.1387 339.952 45.9507 340.225 42.9423C340.225 40.7543 340.225 39.3868 340.225 38.8398C340.225 38.2928 340.225 36.9255 340.225 35.011C340.225 32.0026 339.405 29.8145 338.037 28.447C336.67 27.0796 334.482 26.2591 331.474 26.2591H324.91V51.1471H331.747V51.4207Z" fill="white"/>
</g>
<mask id="mask6_1044_5309" style="mask-type:luminance" maskUnits="userSpaceOnUse" x="0" y="0" width="349" height="157">
<path d="M348.16 0H0V156.166H348.16V0Z" fill="white"/>
</mask>
<g mask="url(#mask6_1044_5309)">
<path d="M170.661 105.298C167.926 102.837 166.559 99.2814 166.285 94.632C166.285 93.538 166.285 91.8971 166.285 89.7091C166.285 87.5212 166.285 85.8802 166.285 84.7862C166.559 80.4103 167.926 76.8547 170.661 74.3933C173.396 71.9318 177.225 70.5645 181.874 70.5645C185.156 70.5645 187.891 71.1114 190.353 72.2054C192.814 73.2993 194.455 74.6668 195.549 76.3078C196.643 77.9488 197.464 79.5897 197.464 81.2307C197.464 81.5042 197.464 81.7778 197.19 82.0513C196.917 82.3248 196.643 82.3247 196.37 82.3247H190.9C190.626 82.3247 190.353 82.3248 190.079 82.0513C189.806 81.7778 189.806 81.7777 189.532 81.2307C188.985 79.8632 188.165 78.7693 186.797 77.9489C185.43 77.1284 183.789 76.5814 181.874 76.5814C179.413 76.5814 177.498 77.1282 176.131 78.4957C174.763 79.8632 173.943 81.7778 173.943 84.7862C173.943 85.8802 173.943 87.2476 173.943 89.4355C173.943 91.6235 173.943 92.991 173.943 94.085C173.943 97.0934 174.763 99.0079 176.131 100.375C177.498 101.743 179.413 102.563 181.874 102.563C184.336 102.563 186.524 102.016 187.891 100.649C189.532 99.2815 190.079 97.367 190.079 94.632V92.9911H183.515C183.242 92.9911 182.968 92.991 182.695 92.7175C182.421 92.444 182.421 92.1706 182.421 91.8971V88.8887C182.421 88.6152 182.421 88.3416 182.695 88.0681C182.968 87.7946 183.242 87.7946 183.515 87.7946H196.37C196.643 87.7946 197.19 87.7946 197.19 88.0681C197.464 88.3416 197.464 88.6152 197.464 88.8887V94.632C197.464 97.6405 196.917 100.102 195.549 102.29C194.182 104.478 192.267 106.119 190.079 107.213C187.618 108.307 184.883 108.854 181.601 108.854C176.951 109.127 173.396 107.76 170.661 105.298Z" fill="white"/>
</g>
<mask id="mask7_1044_5309" style="mask-type:luminance" maskUnits="userSpaceOnUse" x="0" y="0" width="349" height="157">
<path d="M348.16 0H0V156.166H348.16V0Z" fill="white"/>
</mask>
<g mask="url(#mask7_1044_5309)">
<path d="M205.123 108.033C204.85 107.76 204.85 107.486 204.85 107.213V72.4788C204.85 72.2053 204.85 71.6583 205.123 71.3848C205.397 71.1113 205.67 71.1113 205.944 71.1113H219.618C223.994 71.1113 227.276 72.2052 229.738 74.1197C232.199 76.0342 233.293 79.0427 233.293 82.8716C233.293 85.3331 232.746 87.7944 231.379 89.4354C230.011 91.0764 228.37 92.4439 226.182 93.2644L233.84 106.939C233.84 107.213 234.114 107.486 234.114 107.486C234.114 107.76 234.114 108.033 233.84 108.307C233.567 108.58 233.293 108.58 233.02 108.58H228.097C227.55 108.58 227.003 108.58 226.729 108.307C226.456 108.033 226.182 107.76 225.909 107.213L219.071 94.6319H211.687V107.486C211.687 107.76 211.687 108.033 211.414 108.307C211.14 108.58 210.867 108.58 210.593 108.58H205.944C205.67 108.58 205.123 108.307 205.123 108.033ZM219.345 88.3415C221.533 88.3415 223.174 87.7945 223.994 86.974C225.088 86.1535 225.635 84.7861 225.635 82.8716C225.635 80.9571 225.088 79.5897 223.994 78.7692C222.9 77.6752 221.259 77.4017 219.345 77.4017H211.961V88.6149H219.345V88.3415Z" fill="white"/>
</g>
<mask id="mask8_1044_5309" style="mask-type:luminance" maskUnits="userSpaceOnUse" x="0" y="0" width="349" height="157">
<path d="M348.16 0H0V156.166H348.16V0Z" fill="white"/>
</mask>
<g mask="url(#mask8_1044_5309)">
<path d="M243.141 105.297C240.407 102.835 239.039 99.2797 238.766 94.3568C238.766 93.2628 238.766 91.8953 238.766 89.7073C238.766 87.7929 238.766 86.1519 238.766 85.0579C239.039 80.4085 240.407 76.5795 243.141 74.1181C245.876 71.6566 249.705 70.2891 254.355 70.2891C259.004 70.2891 262.833 71.6566 265.568 74.1181C268.303 76.5795 269.671 80.4085 269.944 85.0579C269.944 87.2458 269.944 88.6134 269.944 89.7073C269.944 90.8013 269.944 92.1688 269.944 94.3568C269.671 99.2797 268.303 102.835 265.568 105.297C262.833 107.758 259.004 108.852 254.355 108.852C249.705 109.126 245.876 107.758 243.141 105.297ZM260.098 100.647C261.466 99.2797 262.286 97.0916 262.286 94.0832C262.286 91.8952 262.286 90.5278 262.286 89.7073C262.286 88.8868 262.286 87.5193 262.286 85.3313C262.286 82.3229 261.466 80.135 260.098 78.7675C258.731 77.4 256.816 76.5796 254.628 76.5796C252.167 76.5796 250.526 77.4 248.885 78.7675C247.518 80.135 246.697 82.3229 246.697 85.3313C246.697 86.4253 246.697 87.7929 246.697 89.7073C246.697 91.6218 246.697 92.9892 246.697 94.0832C246.697 97.0916 247.518 99.2797 248.885 100.647C250.252 102.015 252.167 102.835 254.628 102.835C256.816 102.835 258.731 102.015 260.098 100.647Z" fill="white"/>
</g>
<mask id="mask9_1044_5309" style="mask-type:luminance" maskUnits="userSpaceOnUse" x="0" y="0" width="349" height="157">
<path d="M348.16 0H0V156.166H348.16V0Z" fill="white"/>
</mask>
<g mask="url(#mask9_1044_5309)">
<path d="M280.878 105.298C278.143 102.837 276.775 99.0079 276.775 94.085V72.2054C276.775 71.9319 276.775 71.385 277.049 71.1115C277.322 70.838 277.596 70.8379 277.869 70.8379H282.792C283.066 70.8379 283.613 70.838 283.613 71.1115C283.886 71.385 283.886 71.6584 283.886 72.2054V94.085C283.886 96.82 284.433 99.0079 285.801 100.375C287.168 101.743 289.083 102.563 291.544 102.563C294.005 102.563 295.92 101.743 297.288 100.375C298.655 99.0079 299.202 96.82 299.202 94.085V72.2054C299.202 71.9319 299.202 71.385 299.475 71.1115C299.749 70.838 300.022 70.8379 300.296 70.8379H305.219C305.492 70.8379 306.039 70.838 306.039 71.1115C306.313 71.385 306.313 71.6584 306.313 72.2054V94.085C306.313 99.0079 304.945 102.837 302.484 105.298C299.749 107.76 296.194 108.854 291.271 108.854C287.168 109.127 283.339 107.76 280.878 105.298Z" fill="white"/>
</g>
<mask id="mask10_1044_5309" style="mask-type:luminance" maskUnits="userSpaceOnUse" x="0" y="0" width="349" height="157">
<path d="M348.16 0H0V156.166H348.16V0Z" fill="white"/>
</mask>
<g mask="url(#mask10_1044_5309)">
<path d="M315.338 108.033C315.064 107.76 315.064 107.486 315.064 107.213V72.4788C315.064 72.2053 315.064 71.6583 315.338 71.3848C315.611 71.1113 315.885 71.1113 316.158 71.1113H330.38C334.756 71.1113 338.038 72.2052 340.499 74.1197C342.961 76.0342 344.055 79.0427 344.055 82.8716C344.055 86.7005 342.961 89.709 340.499 91.6235C338.038 93.5379 334.756 94.6319 330.38 94.6319H322.449V107.213C322.449 107.486 322.449 108.033 322.175 108.033C321.902 108.307 321.628 108.307 321.355 108.307H316.158C315.885 108.58 315.611 108.307 315.338 108.033ZM330.107 88.6149C332.295 88.6149 333.662 88.0679 334.756 87.2475C335.85 86.1535 336.397 84.7861 336.397 82.8716C336.397 80.9571 335.85 79.5896 334.756 78.4956C333.662 77.4016 332.021 76.8547 330.107 76.8547H322.449V88.6149H330.107Z" fill="white"/>
</g>
<mask id="mask11_1044_5309" style="mask-type:luminance" maskUnits="userSpaceOnUse" x="0" y="0" width="349" height="157">
<path d="M348.16 0H0V156.166H348.16V0Z" fill="white"/>
</mask>
<g mask="url(#mask11_1044_5309)">
<path d="M300.566 131.824H208.398V135.38H300.566V131.824Z" fill="white"/>
</g>
<mask id="mask12_1044_5309" style="mask-type:luminance" maskUnits="userSpaceOnUse" x="0" y="0" width="349" height="157">
<path d="M348.16 0H0V156.166H348.16V0Z" fill="white"/>
</mask>
<g mask="url(#mask12_1044_5309)">
<path d="M68.3724 152.613C77.6712 152.613 87.2435 150.425 95.9953 146.323C119.789 135.11 132.37 115.965 132.37 88.8889V5.19922C131.55 5.19922 130.456 5.19922 129.635 5.19922C124.439 5.19922 119.516 6.5668 114.867 8.20777C95.7219 15.0452 83.4146 32.8224 83.4146 53.3345V92.1707C83.4146 98.4611 82.5941 104.478 79.8591 110.222C73.0217 125.537 57.9795 132.648 43.4843 132.648C38.0143 132.648 32.8179 131.828 28.1685 129.913C18.3227 126.084 12.0322 118.973 7.10932 113.23C6.83583 113.23 21.0577 152.066 68.3724 152.613ZM125.259 88.8889C125.259 100.649 122.798 110.768 117.328 119.247C111.858 127.725 103.653 134.563 92.9869 139.759C85.3291 143.588 76.8507 145.229 68.3724 145.502C59.6205 145.502 50.8686 143.588 42.9372 139.759H43.4843C62.6289 139.759 79.0386 129.366 86.423 113.23C89.1579 106.939 90.5254 100.102 90.5254 92.1707V53.3345C90.5254 35.8308 100.918 20.7886 117.328 15.0452C120.336 13.9512 123.071 13.404 125.533 12.8571L125.259 88.8889Z" fill="white"/>
</g>
<mask id="mask13_1044_5309" style="mask-type:luminance" maskUnits="userSpaceOnUse" x="0" y="0" width="349" height="157">
<path d="M348.16 0H0V156.166H348.16V0Z" fill="white"/>
</mask>
<g mask="url(#mask13_1044_5309)">
<path d="M92.9885 53.3341C92.9885 58.5305 92.9885 63.4534 92.9885 68.6498C92.9885 76.5812 92.9885 84.239 92.9885 92.1703C92.9885 100.375 91.621 107.486 88.6126 114.324C82.3222 128.272 70.2883 137.844 55.2461 141.126C59.3485 142.22 63.7245 142.494 68.1004 142.494C76.3053 142.494 84.2366 140.579 91.621 137.024C102.014 132.101 109.672 125.537 114.868 117.606C120.065 109.674 122.253 99.8282 122.253 88.6149V15.8652C120.885 16.1387 119.244 16.6857 117.877 17.2327C102.834 22.9761 92.9885 37.1979 92.9885 53.3341ZM115.415 26.805V88.8885C115.415 98.7344 113.501 106.939 109.125 113.777C104.749 120.614 97.9114 126.357 88.8861 130.733C87.7921 131.28 86.4246 131.827 85.3306 132.374C89.433 127.998 92.9885 122.802 95.4499 117.332C98.7319 109.674 100.373 101.469 100.373 92.1703V53.3341C100.099 42.1208 106.116 32.275 115.415 26.805Z" fill="white"/>
</g>
<mask id="mask14_1044_5309" style="mask-type:luminance" maskUnits="userSpaceOnUse" x="0" y="0" width="349" height="157">
<path d="M348.16 0H0V156.166H348.16V0Z" fill="white"/>
</mask>
<g mask="url(#mask14_1044_5309)">
<path d="M94.9004 124.172C99.8233 120.89 103.926 116.787 106.661 112.411C110.763 106.121 112.678 98.1898 112.678 88.8909V32.2773C106.661 37.4738 103.105 45.1317 103.105 53.3365V92.1727C103.105 101.745 101.464 110.497 97.9089 118.428C96.8149 120.343 95.9944 122.257 94.9004 124.172Z" fill="white"/>
</g>
<mask id="mask15_1044_5309" style="mask-type:luminance" maskUnits="userSpaceOnUse" x="0" y="0" width="349" height="157">
<path d="M348.16 0H0V156.166H348.16V0Z" fill="white"/>
</mask>
<g mask="url(#mask15_1044_5309)">
<path d="M69.1941 119.518C68.6471 119.518 67.8266 119.518 67.2796 119.518C57.9807 119.518 55.7928 117.056 55.7928 107.21C55.7928 91.3475 55.7928 77.3994 55.7928 61.5367C55.7928 41.0245 46.2204 25.9821 28.9902 15.5893C20.7854 10.6664 12.0335 8.20508 2.18771 8.20508C1.91422 8.20508 1.36725 8.20508 1.09375 8.20508V86.4247C1.09375 88.6126 1.3672 90.5271 1.64069 92.715C4.92264 110.219 20.2384 125.535 38.0156 128.543C55.7928 131.825 69.1941 119.518 69.1941 119.518ZM9.0251 86.6981V16.6834C14.7685 17.5039 19.9649 19.4183 25.1613 22.4267C32.8192 27.0761 38.2891 32.5461 42.1181 39.11C45.947 45.6739 47.8615 53.0583 47.8615 61.8101V107.484C47.8615 112.133 48.4084 117.33 51.1434 121.159C49.5024 121.432 48.135 121.706 46.2205 121.706C44.0325 121.706 41.5711 121.432 39.1096 121.159C24.8878 118.697 12.0336 106.116 9.29861 91.6212C9.29861 90.2537 9.0251 88.6126 9.0251 86.6981Z" fill="white"/>
</g>
<mask id="mask16_1044_5309" style="mask-type:luminance" maskUnits="userSpaceOnUse" x="0" y="0" width="349" height="157">
<path d="M348.16 0H0V156.166H348.16V0Z" fill="white"/>
</mask>
<g mask="url(#mask16_1044_5309)">
<path d="M39.6583 117.878C42.1197 118.151 44.3077 118.425 46.2221 118.425C44.8547 114.87 44.5812 110.767 44.5812 107.485V61.8114C44.5812 45.4017 37.7438 33.9148 23.2486 25.163C19.4196 22.975 15.8641 21.3342 11.7617 20.5137V86.6994C11.7617 88.6139 12.0352 89.9815 12.0352 91.0754C14.7702 103.93 26.804 115.69 39.6583 117.878ZM19.9666 86.6994V32.2739C25.71 35.8294 29.8124 39.9318 32.5474 44.5812C35.2823 49.5041 36.9233 54.974 36.9233 61.8114V108.853C28.7185 105.844 21.6076 97.6392 20.2401 89.4344C19.9666 88.8874 19.9666 88.0669 19.9666 86.6994Z" fill="white"/>
</g>
<mask id="mask17_1044_5309" style="mask-type:luminance" maskUnits="userSpaceOnUse" x="0" y="0" width="349" height="157">
<path d="M348.16 0H0V156.166H348.16V0Z" fill="white"/>
</mask>
<g mask="url(#mask17_1044_5309)">
<path d="M33.9144 104.205V62.0869C33.9144 51.6941 30.359 44.3099 22.9746 38.293V86.7015C22.9746 88.069 23.2481 88.8896 23.2481 88.8896C24.3421 94.9065 28.4445 100.65 33.9144 104.205Z" fill="white"/>
</g>
</svg>
