<svg width="476" height="183" viewBox="0 0 476 183" fill="none" xmlns="http://www.w3.org/2000/svg">
<g clip-path="url(#clip0_1045_5419)">
<path d="M39.6652 21.8026C35.4962 20.7603 31.6748 20.4129 27.5058 20.4129C21.2525 20.4129 17.7784 22.4974 17.7784 26.3189C17.7784 28.4033 18.8206 30.1404 20.9051 31.53C22.9895 32.9197 26.4636 34.3093 31.6748 36.0463C37.5807 38.1308 42.097 40.2152 45.5711 41.9523C49.0452 44.0367 51.4771 46.4686 53.2141 49.2479C54.9511 52.0271 55.646 55.8486 55.646 60.0175C55.646 64.8813 54.2563 69.0502 51.8245 72.5243C49.0452 75.9984 45.5711 78.4302 41.0548 79.8199C36.5385 81.5569 31.6748 82.2517 26.4636 82.2517C20.9051 82.2517 16.0414 81.5569 11.1776 80.5147C7.00872 79.4724 3.18723 78.0828 0.0605469 76.3458L0.755365 59.3227C4.22945 61.0598 8.05095 62.7968 12.9147 64.1865C17.7784 65.5761 22.2947 66.2709 26.811 66.2709C30.9799 66.2709 34.1066 65.5761 36.1911 64.5339C38.2755 63.4916 39.3177 61.7546 39.3177 60.0175C39.3177 57.5857 38.2755 55.8486 35.8437 54.459C33.7592 53.0694 29.5903 51.6797 24.0318 49.9427C18.4732 48.2056 14.3043 46.4686 11.1776 44.3841C7.70354 42.6471 5.27168 40.2152 3.53464 37.436C1.79759 34.3093 1.10277 30.8352 1.10277 26.6663C1.10277 19.7181 3.53464 14.1596 8.39836 10.3381C12.9147 6.51658 19.5154 4.43213 28.2007 4.43213C36.8859 4.43213 44.5289 6.16917 50.7822 9.29585L49.74 25.6241C46.9607 24.2344 43.8341 22.8448 39.6652 21.8026Z" fill="white"/>
<path d="M94.903 41.2574C92.4711 40.5626 90.0393 40.2152 87.6074 40.2152C83.7859 40.2152 80.6592 41.2574 78.2274 43.3419C75.7955 45.4263 74.7533 48.9004 74.7533 53.7641C74.7533 58.6279 75.7955 62.102 78.2274 64.1864C80.6592 66.2709 83.7859 67.3131 87.6074 67.3131C90.0393 67.3131 92.4711 66.9657 94.903 66.2709C97.3349 65.576 99.4193 64.8812 101.504 63.839L102.199 78.4302C98.3771 80.862 93.1659 81.9043 86.9126 81.9043C82.0489 81.9043 77.5326 80.862 73.7111 79.125C69.5422 77.3879 66.4155 74.2613 63.9836 70.0924C61.5517 65.9234 60.1621 60.3649 60.1621 53.7641C60.1621 47.1634 61.5517 41.6048 63.9836 37.4359C66.4155 33.6144 69.5422 30.4878 73.7111 28.7507C77.88 27.0137 82.0489 25.9714 86.9126 25.9714C89.6919 25.9714 92.4711 26.3188 95.2504 26.6663C98.0297 27.3611 100.114 28.0559 102.199 29.0981L101.504 43.6893C99.4193 42.6471 97.3349 41.9522 94.903 41.2574Z" fill="white"/>
<path d="M141.803 42.9945C140.414 41.2574 138.329 40.2152 135.55 40.2152C133.118 40.2152 131.381 40.91 129.644 42.6471C127.907 44.3841 126.517 46.4686 125.822 48.9004C125.128 51.3323 124.433 54.1116 124.433 56.5434V80.1672H109.494V0.958008H124.433V32.5722L123.738 48.9004H124.433C124.433 42.6471 125.822 37.4359 128.254 32.9196C130.686 28.4033 135.202 26.3189 141.456 26.3189C146.667 26.3189 150.836 28.4033 153.962 32.5722C157.089 36.7411 158.479 42.2997 158.479 49.5952V81.2095H143.54V51.3323C143.888 47.5108 143.193 44.7315 141.803 42.9945Z" fill="white"/>
<path d="M333.226 0.958008H318.287V80.5146H333.226V0.958008Z" fill="white"/>
<path d="M359.628 80.5147H344.69V41.2575H339.826V27.3611H359.628V80.5147ZM344.69 18.3285C343.3 16.9388 342.605 14.8544 342.605 12.0751C342.605 9.29585 343.3 7.5588 344.69 5.82176C346.08 4.43212 348.164 3.7373 350.943 3.7373C353.375 3.7373 355.46 4.43212 356.849 5.82176C358.239 7.21139 358.934 9.29585 358.934 12.0751C358.934 14.8544 358.239 16.5914 356.849 18.3285C355.46 19.7181 353.375 20.4129 350.943 20.4129C348.164 20.4129 346.08 19.7181 344.69 18.3285Z" fill="white"/>
<path d="M378.735 27.3611L383.599 48.553H384.294C384.294 42.2997 385.684 37.0885 388.116 32.5722C390.547 28.0559 395.064 25.9714 401.317 25.9714C406.528 25.9714 410.697 28.0559 413.824 32.2248C416.95 36.3937 418.688 41.9522 418.688 49.2478V80.862H403.749V50.9849C403.749 47.5108 403.054 45.0789 401.664 43.3419C400.275 41.6048 398.19 40.5626 395.411 40.5626C392.979 40.5626 391.242 41.2574 389.505 42.9945C387.768 44.7315 386.378 46.816 385.684 49.2478C384.989 51.6797 384.294 54.459 384.294 56.8908V80.5146H369.355V27.3611H378.735Z" fill="white"/>
<path d="M443.702 69.0501C442.659 69.3975 441.965 69.7449 441.965 70.7871C441.965 71.4819 442.312 72.1768 443.007 72.5242C443.702 72.8716 445.091 73.219 446.828 73.5664L458.64 75.3034C463.851 75.9983 467.673 77.7353 470.8 79.4723C473.926 81.5568 475.316 84.6835 475.316 89.1998C475.316 93.7161 474.274 97.885 471.842 101.707H455.166C457.945 97.885 459.335 94.7583 459.335 92.3265C459.335 91.2843 458.988 90.5894 458.293 89.8946C457.598 89.1998 456.556 88.8524 454.819 88.505L437.796 85.3783C433.974 84.6835 430.848 83.6413 428.416 82.2516C426.331 80.862 425.289 78.7775 425.289 75.9983C425.289 72.8716 427.026 70.7871 430.153 69.3975C433.279 68.0079 438.491 67.313 444.744 67.313V66.9656C438.143 66.2708 433.279 64.1864 430.153 60.7123C427.026 57.2382 425.636 52.7219 425.636 46.8159C425.636 42.9944 426.331 39.1729 427.721 36.0462C429.111 32.9196 431.195 30.1403 434.322 28.4033C437.101 26.3188 440.575 25.624 444.397 25.624C449.608 25.624 453.082 27.361 455.514 30.8351C457.598 34.3092 458.988 38.4781 458.988 43.6892H459.683L462.809 21.1077H472.537V47.5107C472.537 53.7641 470.452 58.6278 466.631 62.4493C462.809 66.2708 456.903 68.0079 449.26 68.0079C446.481 68.7027 444.744 68.7027 443.702 69.0501ZM443.354 54.1115C444.744 55.5011 447.176 56.5434 449.955 56.5434C452.734 56.5434 454.819 55.8486 456.556 54.1115C457.945 52.7219 458.64 50.29 458.64 47.5107C458.64 44.7315 457.945 42.647 456.208 40.91C454.471 39.1729 452.387 38.4781 449.608 38.4781C446.828 38.4781 444.744 39.1729 443.007 40.91C441.617 42.2996 440.575 44.7315 440.575 47.5107C440.922 50.29 441.617 52.3745 443.354 54.1115Z" fill="white"/>
<path d="M221.36 101.707L240.12 170.841H240.467V101.707H255.058V172.578H224.834L206.074 102.749H205.726V172.578H191.482V101.707H221.36Z" fill="white"/>
<path d="M314.813 101.707V115.95H281.462V130.541H306.822V143.743H281.462V158.334H315.855V172.578H265.828V101.707H314.813Z" fill="white"/>
<path d="M352.334 136.795L337.048 172.578H319.33L337.048 136.1L320.372 101.707H338.09L352.334 135.405L366.578 101.707H384.296L367.62 136.1L385.338 172.578H367.62L352.334 136.795Z" fill="white"/>
<path d="M406.529 115.95H387.422V101.707H441.618V115.95H422.163V172.578H406.529V115.95Z" fill="white"/>
<path d="M271.04 108.655C260.617 108.655 250.89 104.833 243.247 97.5376C227.266 81.9042 225.529 61.4071 230.74 47.8582C237.341 31.1826 248.111 22.8447 259.575 18.3284C247.068 13.4647 236.646 13.1173 221.708 14.1595C216.844 14.5069 212.327 15.2017 207.464 16.5914C213.717 20.7603 218.581 26.3188 221.708 33.267C225.876 42.647 225.876 53.4167 221.708 62.4494C217.191 72.1768 207.464 78.7776 197.042 79.4724C182.45 80.5146 168.207 68.3553 165.775 52.7219C164.385 42.9945 167.164 32.5722 173.765 24.5818C162.648 29.0981 158.827 39.8678 157.437 48.553L145.625 46.816C148.752 25.624 161.606 12.4225 181.061 10.338C184.535 9.99062 187.661 9.99062 191.136 10.6854C200.168 6.16912 210.59 3.04244 221.013 2.34762C241.162 0.957986 254.711 2.00021 274.166 11.7277C275.556 12.4225 276.946 13.1173 278.335 13.8121C290.842 12.0751 307.518 12.0751 321.066 13.8121L319.677 25.624C311.686 24.5818 302.654 24.2344 293.969 24.5818C306.823 35.6989 313.423 48.9004 313.423 64.5338C313.423 82.9465 304.043 98.2325 287.715 105.181C282.504 107.613 276.598 108.655 271.04 108.655ZM275.903 26.6662C262.354 29.0981 249.5 34.3092 242.205 52.3745C238.383 61.7545 239.773 77.3879 251.932 89.1998C259.923 97.1902 272.429 99.2747 283.199 94.411C294.663 89.5472 301.612 78.4302 301.612 64.8812C301.264 49.5952 292.926 36.7411 275.903 26.6662ZM192.873 23.1922C191.83 23.887 190.788 24.5818 189.746 25.2766C181.408 31.53 176.544 41.6048 177.934 50.6375C179.324 60.0175 188.009 67.6605 196.694 66.9657C202.6 66.6183 208.506 62.4494 211.285 56.8908C214.065 51.3323 214.065 44.0367 211.285 37.7833C207.464 30.8351 200.516 25.2766 192.873 23.1922Z" fill="#3E3CEB"/>
<path d="M459.336 114.908C459.336 114.908 453.083 131.236 453.43 154.513" stroke="#3E3CEB" stroke-width="3.445" stroke-miterlimit="10"/>
<path d="M460.377 173.62C460.377 177.094 457.25 179.526 454.471 179.526C451.692 179.526 449.607 176.052 449.26 173.273C448.913 170.146 451.692 167.02 454.471 167.02C458.64 167.02 460.377 170.494 460.377 173.62Z" stroke="#3E3CEB" stroke-width="2.099" stroke-miterlimit="10"/>
</g>
<defs>
<clipPath id="clip0_1045_5419">
<rect width="475.255" height="182.042" fill="white" transform="translate(0.0605469 0.958008)"/>
</clipPath>
</defs>
</svg>
