<svg width="1920" height="1080" viewBox="0 0 1920 1080" fill="none" xmlns="http://www.w3.org/2000/svg">
<path d="M-474.287 -633.555C-697.604 221.947 -318.131 484.451 -203.413 559.981C-88.9711 635.526 56.2929 663.319 190.558 635.398C271.062 618.648 349.341 581.041 403.115 518.806C456.89 456.572 482.71 367.135 457.796 288.708C432.882 210.28 352.071 149.487 270.357 159.126C175.204 170.315 108.153 273.01 117.416 368.288C126.679 463.566 198.375 544.722 284.508 586.459C370.641 628.197 469.321 636.415 564.888 632.931C660.455 629.448 755.734 615.491 851.538 616.411C1084.83 618.494 1311.05 709.832 1501.52 844.495C1691.99 979.158 1849.12 1155.64 1989.92 1341.55" stroke="#6BC06C" stroke-width="15" stroke-miterlimit="10"/>
</svg>
