<svg width="2567" height="2234" viewBox="0 0 2567 2234" fill="none" xmlns="http://www.w3.org/2000/svg">
<path d="M96.7134 126.445C-126.604 981.947 252.869 1244.45 367.587 1319.98C482.029 1395.53 627.293 1423.32 761.558 1395.4C842.062 1378.65 920.341 1341.04 974.115 1278.81C1027.89 1216.57 1053.71 1127.14 1028.8 1048.71C1003.88 970.281 923.071 909.488 841.357 919.126C746.204 930.316 679.153 1033.01 688.416 1128.29C697.679 1223.57 769.375 1304.72 855.508 1346.46C941.641 1388.2 1040.32 1396.42 1135.89 1392.93C1231.45 1389.45 1326.73 1375.49 1422.54 1376.41C1655.83 1378.49 1882.05 1469.83 2072.52 1604.5C2262.99 1739.16 2420.12 1915.64 2560.92 2101.55" stroke="#6BC06C" stroke-width="15" stroke-miterlimit="10"/>
</svg>
