<svg width="539" height="539" viewBox="0 0 539 539" fill="none" xmlns="http://www.w3.org/2000/svg">
<circle cx="269.5" cy="269.5" r="269.5" fill="#F04C23"/>
<path d="M360.614 138.808C360.614 141.048 360.194 142.924 359.354 144.436C358.514 145.948 357.3 147.087 355.714 147.852C354.146 148.617 352.251 149 350.03 149H344.43V129.008H350.618C352.652 129.008 354.416 129.381 355.91 130.128C357.403 130.875 358.56 131.976 359.382 133.432C360.203 134.869 360.614 136.661 360.614 138.808ZM357.45 138.892C357.45 137.212 357.179 135.831 356.638 134.748C356.096 133.665 355.294 132.863 354.23 132.34C353.184 131.817 351.915 131.556 350.422 131.556H347.454V146.452H349.89C352.41 146.452 354.295 145.817 355.546 144.548C356.815 143.279 357.45 141.393 357.45 138.892ZM370.565 133.628C371.89 133.628 373.029 133.908 373.981 134.468C374.933 135.009 375.661 135.793 376.165 136.82C376.687 137.847 376.949 139.06 376.949 140.46V142.084H366.813C366.85 143.633 367.251 144.819 368.017 145.64C368.801 146.461 369.893 146.872 371.293 146.872C372.263 146.872 373.122 146.788 373.869 146.62C374.634 146.433 375.418 146.163 376.221 145.808V148.272C375.474 148.608 374.709 148.86 373.925 149.028C373.159 149.196 372.245 149.28 371.181 149.28C369.725 149.28 368.437 148.991 367.317 148.412C366.197 147.833 365.319 146.975 364.685 145.836C364.069 144.679 363.761 143.26 363.761 141.58C363.761 139.881 364.041 138.444 364.601 137.268C365.179 136.092 365.973 135.196 366.981 134.58C368.007 133.945 369.202 133.628 370.565 133.628ZM370.565 135.924C369.501 135.924 368.642 136.269 367.989 136.96C367.354 137.651 366.981 138.631 366.869 139.9H373.981C373.981 139.116 373.859 138.425 373.617 137.828C373.374 137.231 373.001 136.764 372.497 136.428C371.993 136.092 371.349 135.924 370.565 135.924ZM385.832 149.28C384.021 149.28 382.556 148.627 381.436 147.32C380.335 146.013 379.784 144.072 379.784 141.496C379.784 138.901 380.344 136.941 381.464 135.616C382.584 134.291 384.059 133.628 385.888 133.628C386.653 133.628 387.316 133.731 387.876 133.936C388.455 134.123 388.949 134.384 389.36 134.72C389.789 135.056 390.153 135.429 390.452 135.84H390.62C390.583 135.579 390.536 135.205 390.48 134.72C390.424 134.216 390.396 133.768 390.396 133.376V127.72H393.364V149H391.04L390.536 146.984H390.396C390.116 147.413 389.761 147.805 389.332 148.16C388.921 148.496 388.427 148.767 387.848 148.972C387.269 149.177 386.597 149.28 385.832 149.28ZM386.532 146.844C387.988 146.844 389.015 146.443 389.612 145.64C390.209 144.819 390.508 143.596 390.508 141.972V141.524C390.508 139.751 390.219 138.397 389.64 137.464C389.08 136.531 388.035 136.064 386.504 136.064C385.291 136.064 384.376 136.559 383.76 137.548C383.144 138.519 382.836 139.853 382.836 141.552C382.836 143.251 383.144 144.557 383.76 145.472C384.376 146.387 385.3 146.844 386.532 146.844ZM400.983 133.908V149H398.015V133.908H400.983ZM399.527 128.168C399.975 128.168 400.367 128.299 400.703 128.56C401.039 128.821 401.207 129.26 401.207 129.876C401.207 130.473 401.039 130.912 400.703 131.192C400.367 131.453 399.975 131.584 399.527 131.584C399.042 131.584 398.631 131.453 398.295 131.192C397.978 130.912 397.819 130.473 397.819 129.876C397.819 129.26 397.978 128.821 398.295 128.56C398.631 128.299 399.042 128.168 399.527 128.168ZM411.72 149.28C410.339 149.28 409.126 149.009 408.08 148.468C407.035 147.927 406.223 147.087 405.644 145.948C405.066 144.791 404.776 143.325 404.776 141.552C404.776 139.685 405.084 138.173 405.7 137.016C406.335 135.859 407.184 135.009 408.248 134.468C409.331 133.908 410.563 133.628 411.944 133.628C412.784 133.628 413.568 133.721 414.296 133.908C415.043 134.076 415.659 134.272 416.144 134.496L415.248 136.904C414.726 136.699 414.166 136.521 413.568 136.372C412.99 136.223 412.439 136.148 411.916 136.148C410.983 136.148 410.208 136.353 409.592 136.764C408.995 137.156 408.547 137.753 408.248 138.556C407.968 139.34 407.828 140.329 407.828 141.524C407.828 142.663 407.978 143.624 408.276 144.408C408.575 145.192 409.014 145.789 409.592 146.2C410.19 146.592 410.927 146.788 411.804 146.788C412.644 146.788 413.382 146.695 414.016 146.508C414.651 146.321 415.248 146.079 415.808 145.78V148.356C415.267 148.673 414.679 148.907 414.044 149.056C413.41 149.205 412.635 149.28 411.72 149.28ZM425.223 133.628C427.127 133.628 428.546 134.048 429.479 134.888C430.412 135.709 430.879 137.007 430.879 138.78V149H428.779L428.191 146.9H428.079C427.65 147.441 427.202 147.889 426.735 148.244C426.287 148.599 425.764 148.86 425.167 149.028C424.588 149.196 423.879 149.28 423.039 149.28C422.143 149.28 421.331 149.121 420.603 148.804C419.894 148.468 419.334 147.964 418.923 147.292C418.512 146.601 418.307 145.743 418.307 144.716C418.307 143.185 418.886 142.019 420.043 141.216C421.219 140.413 423.002 139.975 425.391 139.9L427.967 139.816V138.976C427.967 137.856 427.715 137.072 427.211 136.624C426.707 136.176 425.998 135.952 425.083 135.952C424.299 135.952 423.552 136.064 422.843 136.288C422.134 136.512 421.462 136.783 420.827 137.1L419.875 134.944C420.584 134.571 421.396 134.263 422.311 134.02C423.244 133.759 424.215 133.628 425.223 133.628ZM425.923 141.804C424.206 141.879 423.011 142.168 422.339 142.672C421.686 143.157 421.359 143.848 421.359 144.744C421.359 145.528 421.592 146.097 422.059 146.452C422.544 146.807 423.151 146.984 423.879 146.984C425.055 146.984 426.026 146.657 426.791 146.004C427.556 145.351 427.939 144.371 427.939 143.064V141.748L425.923 141.804ZM440.881 146.872C441.273 146.872 441.674 146.835 442.085 146.76C442.496 146.685 442.85 146.601 443.149 146.508V148.748C442.832 148.897 442.402 149.019 441.861 149.112C441.32 149.224 440.778 149.28 440.237 149.28C439.416 149.28 438.66 149.14 437.969 148.86C437.297 148.58 436.756 148.095 436.345 147.404C435.934 146.713 435.729 145.752 435.729 144.52V136.176H433.629V134.832L435.841 133.712L436.877 130.52H438.697V133.908H443.009V136.176H438.697V144.464C438.697 145.285 438.893 145.892 439.285 146.284C439.696 146.676 440.228 146.872 440.881 146.872ZM452.104 133.628C453.429 133.628 454.568 133.908 455.52 134.468C456.472 135.009 457.2 135.793 457.704 136.82C458.226 137.847 458.488 139.06 458.488 140.46V142.084H448.352C448.389 143.633 448.79 144.819 449.556 145.64C450.34 146.461 451.432 146.872 452.832 146.872C453.802 146.872 454.661 146.788 455.408 146.62C456.173 146.433 456.957 146.163 457.76 145.808V148.272C457.013 148.608 456.248 148.86 455.464 149.028C454.698 149.196 453.784 149.28 452.72 149.28C451.264 149.28 449.976 148.991 448.856 148.412C447.736 147.833 446.858 146.975 446.224 145.836C445.608 144.679 445.3 143.26 445.3 141.58C445.3 139.881 445.58 138.444 446.14 137.268C446.718 136.092 447.512 135.196 448.52 134.58C449.546 133.945 450.741 133.628 452.104 133.628ZM452.104 135.924C451.04 135.924 450.181 136.269 449.528 136.96C448.893 137.651 448.52 138.631 448.408 139.9H455.52C455.52 139.116 455.398 138.425 455.156 137.828C454.913 137.231 454.54 136.764 454.036 136.428C453.532 136.092 452.888 135.924 452.104 135.924ZM467.371 149.28C465.561 149.28 464.095 148.627 462.975 147.32C461.874 146.013 461.323 144.072 461.323 141.496C461.323 138.901 461.883 136.941 463.003 135.616C464.123 134.291 465.598 133.628 467.427 133.628C468.193 133.628 468.855 133.731 469.415 133.936C469.994 134.123 470.489 134.384 470.899 134.72C471.329 135.056 471.693 135.429 471.991 135.84H472.159C472.122 135.579 472.075 135.205 472.019 134.72C471.963 134.216 471.935 133.768 471.935 133.376V127.72H474.903V149H472.579L472.075 146.984H471.935C471.655 147.413 471.301 147.805 470.871 148.16C470.461 148.496 469.966 148.767 469.387 148.972C468.809 149.177 468.137 149.28 467.371 149.28ZM468.071 146.844C469.527 146.844 470.554 146.443 471.151 145.64C471.749 144.819 472.047 143.596 472.047 141.972V141.524C472.047 139.751 471.758 138.397 471.179 137.464C470.619 136.531 469.574 136.064 468.043 136.064C466.83 136.064 465.915 136.559 465.299 137.548C464.683 138.519 464.375 139.853 464.375 141.552C464.375 143.251 464.683 144.557 465.299 145.472C465.915 146.387 466.839 146.844 468.071 146.844ZM357.508 171.628C358.833 171.628 359.972 171.908 360.924 172.468C361.876 173.009 362.604 173.793 363.108 174.82C363.631 175.847 363.892 177.06 363.892 178.46V180.084H353.756C353.793 181.633 354.195 182.819 354.96 183.64C355.744 184.461 356.836 184.872 358.236 184.872C359.207 184.872 360.065 184.788 360.812 184.62C361.577 184.433 362.361 184.163 363.164 183.808V186.272C362.417 186.608 361.652 186.86 360.868 187.028C360.103 187.196 359.188 187.28 358.124 187.28C356.668 187.28 355.38 186.991 354.26 186.412C353.14 185.833 352.263 184.975 351.628 183.836C351.012 182.679 350.704 181.26 350.704 179.58C350.704 177.881 350.984 176.444 351.544 175.268C352.123 174.092 352.916 173.196 353.924 172.58C354.951 171.945 356.145 171.628 357.508 171.628ZM357.508 173.924C356.444 173.924 355.585 174.269 354.932 174.96C354.297 175.651 353.924 176.631 353.812 177.9H360.924C360.924 177.116 360.803 176.425 360.56 175.828C360.317 175.231 359.944 174.764 359.44 174.428C358.936 174.092 358.292 173.924 357.508 173.924ZM372.775 187.28C370.965 187.28 369.499 186.627 368.379 185.32C367.278 184.013 366.727 182.072 366.727 179.496C366.727 176.901 367.287 174.941 368.407 173.616C369.527 172.291 371.002 171.628 372.831 171.628C373.597 171.628 374.259 171.731 374.819 171.936C375.398 172.123 375.893 172.384 376.303 172.72C376.733 173.056 377.097 173.429 377.395 173.84H377.563C377.526 173.579 377.479 173.205 377.423 172.72C377.367 172.216 377.339 171.768 377.339 171.376V165.72H380.307V187H377.983L377.479 184.984H377.339C377.059 185.413 376.705 185.805 376.275 186.16C375.865 186.496 375.37 186.767 374.791 186.972C374.213 187.177 373.541 187.28 372.775 187.28ZM373.475 184.844C374.931 184.844 375.958 184.443 376.555 183.64C377.153 182.819 377.451 181.596 377.451 179.972V179.524C377.451 177.751 377.162 176.397 376.583 175.464C376.023 174.531 374.978 174.064 373.447 174.064C372.234 174.064 371.319 174.559 370.703 175.548C370.087 176.519 369.779 177.853 369.779 179.552C369.779 181.251 370.087 182.557 370.703 183.472C371.319 184.387 372.243 184.844 373.475 184.844ZM397.951 171.908V187H395.571L395.151 185.012H395.011C394.693 185.535 394.283 185.964 393.779 186.3C393.275 186.636 392.724 186.879 392.127 187.028C391.529 187.196 390.913 187.28 390.279 187.28C389.103 187.28 388.104 187.093 387.283 186.72C386.48 186.328 385.864 185.731 385.435 184.928C385.024 184.107 384.819 183.061 384.819 181.792V171.908H387.815V181.344C387.815 182.52 388.057 183.397 388.543 183.976C389.047 184.555 389.821 184.844 390.867 184.844C391.912 184.844 392.733 184.639 393.331 184.228C393.928 183.817 394.348 183.22 394.591 182.436C394.852 181.633 394.983 180.672 394.983 179.552V171.908H397.951ZM408.671 187.28C407.29 187.28 406.077 187.009 405.031 186.468C403.986 185.927 403.174 185.087 402.595 183.948C402.017 182.791 401.727 181.325 401.727 179.552C401.727 177.685 402.035 176.173 402.651 175.016C403.286 173.859 404.135 173.009 405.199 172.468C406.282 171.908 407.514 171.628 408.895 171.628C409.735 171.628 410.519 171.721 411.247 171.908C411.994 172.076 412.61 172.272 413.095 172.496L412.199 174.904C411.677 174.699 411.117 174.521 410.519 174.372C409.941 174.223 409.39 174.148 408.867 174.148C407.934 174.148 407.159 174.353 406.543 174.764C405.946 175.156 405.498 175.753 405.199 176.556C404.919 177.34 404.779 178.329 404.779 179.524C404.779 180.663 404.929 181.624 405.227 182.408C405.526 183.192 405.965 183.789 406.543 184.2C407.141 184.592 407.878 184.788 408.755 184.788C409.595 184.788 410.333 184.695 410.967 184.508C411.602 184.321 412.199 184.079 412.759 183.78V186.356C412.218 186.673 411.63 186.907 410.995 187.056C410.361 187.205 409.586 187.28 408.671 187.28ZM422.174 171.628C424.078 171.628 425.497 172.048 426.43 172.888C427.363 173.709 427.83 175.007 427.83 176.78V187H425.73L425.142 184.9H425.03C424.601 185.441 424.153 185.889 423.686 186.244C423.238 186.599 422.715 186.86 422.118 187.028C421.539 187.196 420.83 187.28 419.99 187.28C419.094 187.28 418.282 187.121 417.554 186.804C416.845 186.468 416.285 185.964 415.874 185.292C415.463 184.601 415.258 183.743 415.258 182.716C415.258 181.185 415.837 180.019 416.994 179.216C418.17 178.413 419.953 177.975 422.342 177.9L424.918 177.816V176.976C424.918 175.856 424.666 175.072 424.162 174.624C423.658 174.176 422.949 173.952 422.034 173.952C421.25 173.952 420.503 174.064 419.794 174.288C419.085 174.512 418.413 174.783 417.778 175.1L416.826 172.944C417.535 172.571 418.347 172.263 419.262 172.02C420.195 171.759 421.166 171.628 422.174 171.628ZM422.874 179.804C421.157 179.879 419.962 180.168 419.29 180.672C418.637 181.157 418.31 181.848 418.31 182.744C418.31 183.528 418.543 184.097 419.01 184.452C419.495 184.807 420.102 184.984 420.83 184.984C422.006 184.984 422.977 184.657 423.742 184.004C424.507 183.351 424.89 182.371 424.89 181.064V179.748L422.874 179.804ZM437.832 184.872C438.224 184.872 438.626 184.835 439.036 184.76C439.447 184.685 439.802 184.601 440.1 184.508V186.748C439.783 186.897 439.354 187.019 438.812 187.112C438.271 187.224 437.73 187.28 437.188 187.28C436.367 187.28 435.611 187.14 434.92 186.86C434.248 186.58 433.707 186.095 433.296 185.404C432.886 184.713 432.68 183.752 432.68 182.52V174.176H430.58V172.832L432.792 171.712L433.828 168.52H435.648V171.908H439.96V174.176H435.648V182.464C435.648 183.285 435.844 183.892 436.236 184.284C436.647 184.676 437.179 184.872 437.832 184.872ZM456.419 179.44C456.419 180.691 456.251 181.801 455.915 182.772C455.579 183.743 455.103 184.564 454.487 185.236C453.871 185.908 453.124 186.421 452.247 186.776C451.37 187.112 450.38 187.28 449.279 187.28C448.271 187.28 447.338 187.112 446.479 186.776C445.62 186.421 444.874 185.908 444.239 185.236C443.623 184.564 443.138 183.743 442.783 182.772C442.428 181.801 442.251 180.681 442.251 179.412C442.251 177.751 442.531 176.341 443.091 175.184C443.67 174.027 444.491 173.149 445.555 172.552C446.638 171.936 447.907 171.628 449.363 171.628C450.744 171.628 451.958 171.936 453.003 172.552C454.067 173.149 454.898 174.027 455.495 175.184C456.111 176.341 456.419 177.76 456.419 179.44ZM445.303 179.44C445.303 180.56 445.443 181.531 445.723 182.352C446.003 183.155 446.442 183.771 447.039 184.2C447.636 184.629 448.402 184.844 449.335 184.844C450.268 184.844 451.034 184.629 451.631 184.2C452.228 183.771 452.667 183.155 452.947 182.352C453.227 181.531 453.367 180.56 453.367 179.44C453.367 178.283 453.218 177.312 452.919 176.528C452.639 175.744 452.2 175.147 451.603 174.736C451.024 174.307 450.259 174.092 449.307 174.092C447.907 174.092 446.89 174.559 446.255 175.492C445.62 176.425 445.303 177.741 445.303 179.44ZM467.629 171.628C467.891 171.628 468.18 171.647 468.497 171.684C468.815 171.703 469.076 171.731 469.281 171.768L468.973 174.54C468.768 174.484 468.525 174.437 468.245 174.4C467.965 174.363 467.704 174.344 467.461 174.344C466.901 174.344 466.36 174.456 465.837 174.68C465.333 174.885 464.876 175.193 464.465 175.604C464.055 175.996 463.728 176.481 463.485 177.06C463.261 177.639 463.149 178.301 463.149 179.048V187H460.181V171.908H462.533L462.925 174.596H463.037C463.355 174.055 463.737 173.56 464.185 173.112C464.633 172.664 465.147 172.309 465.725 172.048C466.304 171.768 466.939 171.628 467.629 171.628ZM360.758 209.628C362.569 209.628 364.025 210.281 365.126 211.588C366.246 212.895 366.806 214.845 366.806 217.44C366.806 219.139 366.554 220.576 366.05 221.752C365.546 222.928 364.837 223.815 363.922 224.412C363.008 224.991 361.944 225.28 360.73 225.28C359.965 225.28 359.293 225.187 358.714 225C358.136 224.795 357.641 224.533 357.23 224.216C356.838 223.88 356.493 223.525 356.194 223.152H355.998C356.054 223.488 356.101 223.889 356.138 224.356C356.176 224.804 356.194 225.205 356.194 225.56V231.72H353.226V209.908H355.634L356.054 211.924H356.194C356.493 211.513 356.848 211.131 357.258 210.776C357.669 210.421 358.164 210.141 358.742 209.936C359.321 209.731 359.993 209.628 360.758 209.628ZM360.058 212.064C359.125 212.064 358.378 212.251 357.818 212.624C357.258 212.979 356.848 213.52 356.586 214.248C356.344 214.957 356.213 215.863 356.194 216.964V217.412C356.194 218.569 356.316 219.559 356.558 220.38C356.801 221.183 357.202 221.799 357.762 222.228C358.341 222.639 359.125 222.844 360.114 222.844C360.954 222.844 361.636 222.62 362.158 222.172C362.7 221.705 363.101 221.061 363.362 220.24C363.624 219.419 363.754 218.467 363.754 217.384C363.754 215.741 363.456 214.444 362.858 213.492C362.261 212.54 361.328 212.064 360.058 212.064ZM373.558 209.908V225H370.59V209.908H373.558ZM372.102 204.168C372.55 204.168 372.942 204.299 373.278 204.56C373.614 204.821 373.782 205.26 373.782 205.876C373.782 206.473 373.614 206.912 373.278 207.192C372.942 207.453 372.55 207.584 372.102 207.584C371.616 207.584 371.206 207.453 370.87 207.192C370.552 206.912 370.394 206.473 370.394 205.876C370.394 205.26 370.552 204.821 370.87 204.56C371.206 204.299 371.616 204.168 372.102 204.168ZM391.519 217.44C391.519 218.691 391.351 219.801 391.015 220.772C390.679 221.743 390.203 222.564 389.587 223.236C388.971 223.908 388.224 224.421 387.347 224.776C386.469 225.112 385.48 225.28 384.379 225.28C383.371 225.28 382.437 225.112 381.579 224.776C380.72 224.421 379.973 223.908 379.339 223.236C378.723 222.564 378.237 221.743 377.883 220.772C377.528 219.801 377.351 218.681 377.351 217.412C377.351 215.751 377.631 214.341 378.191 213.184C378.769 212.027 379.591 211.149 380.655 210.552C381.737 209.936 383.007 209.628 384.463 209.628C385.844 209.628 387.057 209.936 388.103 210.552C389.167 211.149 389.997 212.027 390.595 213.184C391.211 214.341 391.519 215.76 391.519 217.44ZM380.403 217.44C380.403 218.56 380.543 219.531 380.823 220.352C381.103 221.155 381.541 221.771 382.139 222.2C382.736 222.629 383.501 222.844 384.435 222.844C385.368 222.844 386.133 222.629 386.731 222.2C387.328 221.771 387.767 221.155 388.047 220.352C388.327 219.531 388.467 218.56 388.467 217.44C388.467 216.283 388.317 215.312 388.019 214.528C387.739 213.744 387.3 213.147 386.703 212.736C386.124 212.307 385.359 212.092 384.407 212.092C383.007 212.092 381.989 212.559 381.355 213.492C380.72 214.425 380.403 215.741 380.403 217.44ZM402.925 209.628C404.68 209.628 406.024 210.067 406.957 210.944C407.89 211.821 408.357 213.231 408.357 215.172V225H405.417V215.592C405.417 214.416 405.165 213.539 404.661 212.96C404.176 212.363 403.392 212.064 402.309 212.064C400.778 212.064 399.714 212.521 399.117 213.436C398.538 214.351 398.249 215.667 398.249 217.384V225H395.281V209.908H397.633L398.053 211.924H398.221C398.557 211.401 398.968 210.972 399.453 210.636C399.938 210.3 400.48 210.048 401.077 209.88C401.674 209.712 402.29 209.628 402.925 209.628ZM418.854 209.628C420.179 209.628 421.318 209.908 422.27 210.468C423.222 211.009 423.95 211.793 424.454 212.82C424.976 213.847 425.238 215.06 425.238 216.46V218.084H415.102C415.139 219.633 415.54 220.819 416.306 221.64C417.09 222.461 418.182 222.872 419.582 222.872C420.552 222.872 421.411 222.788 422.158 222.62C422.923 222.433 423.707 222.163 424.51 221.808V224.272C423.763 224.608 422.998 224.86 422.214 225.028C421.448 225.196 420.534 225.28 419.47 225.28C418.014 225.28 416.726 224.991 415.606 224.412C414.486 223.833 413.608 222.975 412.974 221.836C412.358 220.679 412.05 219.26 412.05 217.58C412.05 215.881 412.33 214.444 412.89 213.268C413.468 212.092 414.262 211.196 415.27 210.58C416.296 209.945 417.491 209.628 418.854 209.628ZM418.854 211.924C417.79 211.924 416.931 212.269 416.278 212.96C415.643 213.651 415.27 214.631 415.158 215.9H422.27C422.27 215.116 422.148 214.425 421.906 213.828C421.663 213.231 421.29 212.764 420.786 212.428C420.282 212.092 419.638 211.924 418.854 211.924ZM434.877 209.628C436.203 209.628 437.341 209.908 438.293 210.468C439.245 211.009 439.973 211.793 440.477 212.82C441 213.847 441.261 215.06 441.261 216.46V218.084H431.125C431.163 219.633 431.564 220.819 432.329 221.64C433.113 222.461 434.205 222.872 435.605 222.872C436.576 222.872 437.435 222.788 438.181 222.62C438.947 222.433 439.731 222.163 440.533 221.808V224.272C439.787 224.608 439.021 224.86 438.237 225.028C437.472 225.196 436.557 225.28 435.493 225.28C434.037 225.28 432.749 224.991 431.629 224.412C430.509 223.833 429.632 222.975 428.997 221.836C428.381 220.679 428.073 219.26 428.073 217.58C428.073 215.881 428.353 214.444 428.913 213.268C429.492 212.092 430.285 211.196 431.293 210.58C432.32 209.945 433.515 209.628 434.877 209.628ZM434.877 211.924C433.813 211.924 432.955 212.269 432.301 212.96C431.667 213.651 431.293 214.631 431.181 215.9H438.293C438.293 215.116 438.172 214.425 437.929 213.828C437.687 213.231 437.313 212.764 436.809 212.428C436.305 212.092 435.661 211.924 434.877 211.924ZM452.413 209.628C452.674 209.628 452.963 209.647 453.281 209.684C453.598 209.703 453.859 209.731 454.065 209.768L453.757 212.54C453.551 212.484 453.309 212.437 453.029 212.4C452.749 212.363 452.487 212.344 452.245 212.344C451.685 212.344 451.143 212.456 450.621 212.68C450.117 212.885 449.659 213.193 449.249 213.604C448.838 213.996 448.511 214.481 448.269 215.06C448.045 215.639 447.933 216.301 447.933 217.048V225H444.965V209.908H447.317L447.709 212.596H447.821C448.138 212.055 448.521 211.56 448.969 211.112C449.417 210.664 449.93 210.309 450.509 210.048C451.087 209.768 451.722 209.628 452.413 209.628ZM466.883 220.744C466.883 221.733 466.64 222.564 466.155 223.236C465.67 223.908 464.97 224.421 464.055 224.776C463.14 225.112 462.039 225.28 460.751 225.28C459.687 225.28 458.772 225.196 458.007 225.028C457.26 224.879 456.57 224.655 455.935 224.356V221.752C456.607 222.069 457.382 222.359 458.259 222.62C459.136 222.863 459.995 222.984 460.835 222.984C461.955 222.984 462.758 222.807 463.243 222.452C463.747 222.097 463.999 221.621 463.999 221.024C463.999 220.688 463.906 220.389 463.719 220.128C463.532 219.848 463.178 219.568 462.655 219.288C462.151 218.989 461.404 218.653 460.415 218.28C459.463 217.888 458.651 217.505 457.979 217.132C457.307 216.74 456.794 216.283 456.439 215.76C456.084 215.219 455.907 214.528 455.907 213.688C455.907 212.381 456.43 211.383 457.475 210.692C458.539 209.983 459.939 209.628 461.675 209.628C462.59 209.628 463.448 209.721 464.251 209.908C465.072 210.076 465.866 210.337 466.631 210.692L465.651 212.96C465.222 212.755 464.774 212.587 464.307 212.456C463.859 212.307 463.402 212.185 462.935 212.092C462.487 211.999 462.02 211.952 461.535 211.952C460.639 211.952 459.958 212.092 459.491 212.372C459.024 212.652 458.791 213.044 458.791 213.548C458.791 213.903 458.894 214.211 459.099 214.472C459.323 214.733 459.706 214.995 460.247 215.256C460.788 215.517 461.526 215.835 462.459 216.208C463.392 216.563 464.186 216.927 464.839 217.3C465.511 217.673 466.015 218.131 466.351 218.672C466.706 219.213 466.883 219.904 466.883 220.744ZM317.219 260.872C317.611 260.872 318.012 260.835 318.423 260.76C318.834 260.685 319.188 260.601 319.487 260.508V262.748C319.17 262.897 318.74 263.019 318.199 263.112C317.658 263.224 317.116 263.28 316.575 263.28C315.754 263.28 314.998 263.14 314.307 262.86C313.635 262.58 313.094 262.095 312.683 261.404C312.272 260.713 312.067 259.752 312.067 258.52V250.176H309.967V248.832L312.179 247.712L313.215 244.52H315.035V247.908H319.347V250.176H315.035V258.464C315.035 259.285 315.231 259.892 315.623 260.284C316.034 260.676 316.566 260.872 317.219 260.872ZM329.954 247.628C330.215 247.628 330.504 247.647 330.822 247.684C331.139 247.703 331.4 247.731 331.606 247.768L331.298 250.54C331.092 250.484 330.85 250.437 330.57 250.4C330.29 250.363 330.028 250.344 329.786 250.344C329.226 250.344 328.684 250.456 328.162 250.68C327.658 250.885 327.2 251.193 326.79 251.604C326.379 251.996 326.052 252.481 325.81 253.06C325.586 253.639 325.474 254.301 325.474 255.048V263H322.506V247.908H324.858L325.25 250.596H325.362C325.679 250.055 326.062 249.56 326.51 249.112C326.958 248.664 327.471 248.309 328.05 248.048C328.628 247.768 329.263 247.628 329.954 247.628ZM339.705 247.628C341.609 247.628 343.028 248.048 343.961 248.888C344.895 249.709 345.361 251.007 345.361 252.78V263H343.261L342.673 260.9H342.561C342.132 261.441 341.684 261.889 341.217 262.244C340.769 262.599 340.247 262.86 339.649 263.028C339.071 263.196 338.361 263.28 337.521 263.28C336.625 263.28 335.813 263.121 335.085 262.804C334.376 262.468 333.816 261.964 333.405 261.292C332.995 260.601 332.789 259.743 332.789 258.716C332.789 257.185 333.368 256.019 334.525 255.216C335.701 254.413 337.484 253.975 339.873 253.9L342.449 253.816V252.976C342.449 251.856 342.197 251.072 341.693 250.624C341.189 250.176 340.48 249.952 339.565 249.952C338.781 249.952 338.035 250.064 337.325 250.288C336.616 250.512 335.944 250.783 335.309 251.1L334.357 248.944C335.067 248.571 335.879 248.263 336.793 248.02C337.727 247.759 338.697 247.628 339.705 247.628ZM340.405 255.804C338.688 255.879 337.493 256.168 336.821 256.672C336.168 257.157 335.841 257.848 335.841 258.744C335.841 259.528 336.075 260.097 336.541 260.452C337.027 260.807 337.633 260.984 338.361 260.984C339.537 260.984 340.508 260.657 341.273 260.004C342.039 259.351 342.421 258.371 342.421 257.064V255.748L340.405 255.804ZM357.575 247.628C359.33 247.628 360.674 248.067 361.607 248.944C362.541 249.821 363.007 251.231 363.007 253.172V263H360.067V253.592C360.067 252.416 359.815 251.539 359.311 250.96C358.826 250.363 358.042 250.064 356.959 250.064C355.429 250.064 354.365 250.521 353.767 251.436C353.189 252.351 352.899 253.667 352.899 255.384V263H349.931V247.908H352.283L352.703 249.924H352.871C353.207 249.401 353.618 248.972 354.103 248.636C354.589 248.3 355.13 248.048 355.727 247.88C356.325 247.712 356.941 247.628 357.575 247.628ZM377.592 258.744C377.592 259.733 377.349 260.564 376.864 261.236C376.379 261.908 375.679 262.421 374.764 262.776C373.849 263.112 372.748 263.28 371.46 263.28C370.396 263.28 369.481 263.196 368.716 263.028C367.969 262.879 367.279 262.655 366.644 262.356V259.752C367.316 260.069 368.091 260.359 368.968 260.62C369.845 260.863 370.704 260.984 371.544 260.984C372.664 260.984 373.467 260.807 373.952 260.452C374.456 260.097 374.708 259.621 374.708 259.024C374.708 258.688 374.615 258.389 374.428 258.128C374.241 257.848 373.887 257.568 373.364 257.288C372.86 256.989 372.113 256.653 371.124 256.28C370.172 255.888 369.36 255.505 368.688 255.132C368.016 254.74 367.503 254.283 367.148 253.76C366.793 253.219 366.616 252.528 366.616 251.688C366.616 250.381 367.139 249.383 368.184 248.692C369.248 247.983 370.648 247.628 372.384 247.628C373.299 247.628 374.157 247.721 374.96 247.908C375.781 248.076 376.575 248.337 377.34 248.692L376.36 250.96C375.931 250.755 375.483 250.587 375.016 250.456C374.568 250.307 374.111 250.185 373.644 250.092C373.196 249.999 372.729 249.952 372.244 249.952C371.348 249.952 370.667 250.092 370.2 250.372C369.733 250.652 369.5 251.044 369.5 251.548C369.5 251.903 369.603 252.211 369.808 252.472C370.032 252.733 370.415 252.995 370.956 253.256C371.497 253.517 372.235 253.835 373.168 254.208C374.101 254.563 374.895 254.927 375.548 255.3C376.22 255.673 376.724 256.131 377.06 256.672C377.415 257.213 377.592 257.904 377.592 258.744ZM388.495 250.176H384.771V263H381.803V250.176H379.255V248.776L381.803 247.852V246.9C381.803 245.612 381.999 244.585 382.391 243.82C382.801 243.036 383.38 242.467 384.127 242.112C384.873 241.757 385.779 241.58 386.843 241.58C387.496 241.58 388.093 241.636 388.635 241.748C389.176 241.86 389.633 241.981 390.007 242.112L389.251 244.38C388.952 244.287 388.607 244.203 388.215 244.128C387.823 244.035 387.412 243.988 386.983 243.988C386.236 243.988 385.676 244.231 385.303 244.716C384.948 245.201 384.771 245.939 384.771 246.928V247.908H388.495V250.176ZM404.438 255.44C404.438 256.691 404.27 257.801 403.934 258.772C403.598 259.743 403.122 260.564 402.506 261.236C401.89 261.908 401.144 262.421 400.266 262.776C399.389 263.112 398.4 263.28 397.298 263.28C396.29 263.28 395.357 263.112 394.498 262.776C393.64 262.421 392.893 261.908 392.258 261.236C391.642 260.564 391.157 259.743 390.802 258.772C390.448 257.801 390.27 256.681 390.27 255.412C390.27 253.751 390.55 252.341 391.11 251.184C391.689 250.027 392.51 249.149 393.574 248.552C394.657 247.936 395.926 247.628 397.382 247.628C398.764 247.628 399.977 247.936 401.022 248.552C402.086 249.149 402.917 250.027 403.514 251.184C404.13 252.341 404.438 253.76 404.438 255.44ZM393.322 255.44C393.322 256.56 393.462 257.531 393.742 258.352C394.022 259.155 394.461 259.771 395.058 260.2C395.656 260.629 396.421 260.844 397.354 260.844C398.288 260.844 399.053 260.629 399.65 260.2C400.248 259.771 400.686 259.155 400.966 258.352C401.246 257.531 401.386 256.56 401.386 255.44C401.386 254.283 401.237 253.312 400.938 252.528C400.658 251.744 400.22 251.147 399.622 250.736C399.044 250.307 398.278 250.092 397.326 250.092C395.926 250.092 394.909 250.559 394.274 251.492C393.64 252.425 393.322 253.741 393.322 255.44ZM415.649 247.628C415.91 247.628 416.2 247.647 416.517 247.684C416.834 247.703 417.096 247.731 417.301 247.768L416.993 250.54C416.788 250.484 416.545 250.437 416.265 250.4C415.985 250.363 415.724 250.344 415.481 250.344C414.921 250.344 414.38 250.456 413.857 250.68C413.353 250.885 412.896 251.193 412.485 251.604C412.074 251.996 411.748 252.481 411.505 253.06C411.281 253.639 411.169 254.301 411.169 255.048V263H408.201V247.908H410.553L410.945 250.596H411.057C411.374 250.055 411.757 249.56 412.205 249.112C412.653 248.664 413.166 248.309 413.745 248.048C414.324 247.768 414.958 247.628 415.649 247.628ZM437.007 247.628C438.706 247.628 439.985 248.067 440.843 248.944C441.702 249.821 442.131 251.231 442.131 253.172V263H439.163V253.564C439.163 252.407 438.93 251.539 438.463 250.96C438.015 250.363 437.306 250.064 436.335 250.064C434.991 250.064 434.03 250.484 433.451 251.324C432.873 252.145 432.583 253.34 432.583 254.908V263H429.643V253.564C429.643 252.799 429.531 252.155 429.307 251.632C429.102 251.109 428.794 250.717 428.383 250.456C427.973 250.195 427.441 250.064 426.787 250.064C425.854 250.064 425.117 250.269 424.575 250.68C424.034 251.091 423.642 251.697 423.399 252.5C423.175 253.284 423.063 254.245 423.063 255.384V263H420.095V247.908H422.447L422.867 249.924H423.035C423.353 249.401 423.735 248.972 424.183 248.636C424.65 248.3 425.163 248.048 425.723 247.88C426.283 247.712 426.862 247.628 427.459 247.628C428.598 247.628 429.559 247.833 430.343 248.244C431.127 248.636 431.697 249.243 432.051 250.064H432.275C432.761 249.224 433.433 248.608 434.291 248.216C435.15 247.824 436.055 247.628 437.007 247.628ZM452.526 247.628C454.43 247.628 455.848 248.048 456.782 248.888C457.715 249.709 458.182 251.007 458.182 252.78V263H456.082L455.494 260.9H455.382C454.952 261.441 454.504 261.889 454.038 262.244C453.59 262.599 453.067 262.86 452.47 263.028C451.891 263.196 451.182 263.28 450.342 263.28C449.446 263.28 448.634 263.121 447.906 262.804C447.196 262.468 446.636 261.964 446.226 261.292C445.815 260.601 445.61 259.743 445.61 258.716C445.61 257.185 446.188 256.019 447.346 255.216C448.522 254.413 450.304 253.975 452.694 253.9L455.27 253.816V252.976C455.27 251.856 455.018 251.072 454.514 250.624C454.01 250.176 453.3 249.952 452.386 249.952C451.602 249.952 450.855 250.064 450.146 250.288C449.436 250.512 448.764 250.783 448.13 251.1L447.178 248.944C447.887 248.571 448.699 248.263 449.614 248.02C450.547 247.759 451.518 247.628 452.526 247.628ZM453.226 255.804C451.508 255.879 450.314 256.168 449.642 256.672C448.988 257.157 448.662 257.848 448.662 258.744C448.662 259.528 448.895 260.097 449.362 260.452C449.847 260.807 450.454 260.984 451.182 260.984C452.358 260.984 453.328 260.657 454.094 260.004C454.859 259.351 455.242 258.371 455.242 257.064V255.748L453.226 255.804ZM468.184 260.872C468.576 260.872 468.977 260.835 469.388 260.76C469.798 260.685 470.153 260.601 470.452 260.508V262.748C470.134 262.897 469.705 263.019 469.164 263.112C468.622 263.224 468.081 263.28 467.54 263.28C466.718 263.28 465.962 263.14 465.272 262.86C464.6 262.58 464.058 262.095 463.648 261.404C463.237 260.713 463.032 259.752 463.032 258.52V250.176H460.932V248.832L463.144 247.712L464.18 244.52H466V247.908H470.312V250.176H466V258.464C466 259.285 466.196 259.892 466.588 260.284C466.998 260.676 467.53 260.872 468.184 260.872ZM476.438 247.908V263H473.47V247.908H476.438ZM474.982 242.168C475.43 242.168 475.822 242.299 476.158 242.56C476.494 242.821 476.662 243.26 476.662 243.876C476.662 244.473 476.494 244.912 476.158 245.192C475.822 245.453 475.43 245.584 474.982 245.584C474.497 245.584 474.086 245.453 473.75 245.192C473.433 244.912 473.274 244.473 473.274 243.876C473.274 243.26 473.433 242.821 473.75 242.56C474.086 242.299 474.497 242.168 474.982 242.168ZM484.487 263L478.775 247.908H481.911L485.047 256.728C485.178 257.101 485.309 257.521 485.439 257.988C485.589 258.455 485.719 258.903 485.831 259.332C485.943 259.761 486.018 260.135 486.055 260.452H486.167C486.223 260.135 486.307 259.761 486.419 259.332C486.55 258.884 486.69 258.436 486.839 257.988C486.989 257.521 487.119 257.101 487.231 256.728L490.367 247.908H493.503L487.763 263H484.487ZM501.774 247.628C503.099 247.628 504.238 247.908 505.19 248.468C506.142 249.009 506.87 249.793 507.374 250.82C507.896 251.847 508.158 253.06 508.158 254.46V256.084H498.022C498.059 257.633 498.46 258.819 499.226 259.64C500.01 260.461 501.102 260.872 502.502 260.872C503.472 260.872 504.331 260.788 505.078 260.62C505.843 260.433 506.627 260.163 507.43 259.808V262.272C506.683 262.608 505.918 262.86 505.134 263.028C504.368 263.196 503.454 263.28 502.39 263.28C500.934 263.28 499.646 262.991 498.526 262.412C497.406 261.833 496.528 260.975 495.894 259.836C495.278 258.679 494.97 257.26 494.97 255.58C494.97 253.881 495.25 252.444 495.81 251.268C496.388 250.092 497.182 249.196 498.19 248.58C499.216 247.945 500.411 247.628 501.774 247.628ZM501.774 249.924C500.71 249.924 499.851 250.269 499.198 250.96C498.563 251.651 498.19 252.631 498.078 253.9H505.19C505.19 253.116 505.068 252.425 504.826 251.828C504.583 251.231 504.21 250.764 503.706 250.428C503.202 250.092 502.558 249.924 501.774 249.924ZM364.839 301.28C363.458 301.28 362.245 301.009 361.199 300.468C360.154 299.927 359.342 299.087 358.763 297.948C358.185 296.791 357.895 295.325 357.895 293.552C357.895 291.685 358.203 290.173 358.819 289.016C359.454 287.859 360.303 287.009 361.367 286.468C362.45 285.908 363.682 285.628 365.063 285.628C365.903 285.628 366.687 285.721 367.415 285.908C368.162 286.076 368.778 286.272 369.263 286.496L368.367 288.904C367.845 288.699 367.285 288.521 366.687 288.372C366.109 288.223 365.558 288.148 365.035 288.148C364.102 288.148 363.327 288.353 362.711 288.764C362.114 289.156 361.666 289.753 361.367 290.556C361.087 291.34 360.947 292.329 360.947 293.524C360.947 294.663 361.097 295.624 361.395 296.408C361.694 297.192 362.133 297.789 362.711 298.2C363.309 298.592 364.046 298.788 364.923 298.788C365.763 298.788 366.501 298.695 367.135 298.508C367.77 298.321 368.367 298.079 368.927 297.78V300.356C368.386 300.673 367.798 300.907 367.163 301.056C366.529 301.205 365.754 301.28 364.839 301.28ZM375.458 285.404C375.458 285.871 375.439 286.337 375.402 286.804C375.365 287.271 375.327 287.653 375.29 287.952H375.486C375.803 287.429 376.195 287 376.662 286.664C377.147 286.328 377.679 286.076 378.258 285.908C378.855 285.74 379.462 285.656 380.078 285.656C381.273 285.656 382.271 285.852 383.074 286.244C383.895 286.617 384.511 287.215 384.922 288.036C385.351 288.839 385.566 289.884 385.566 291.172V301H382.626V291.592C382.626 290.416 382.374 289.539 381.87 288.96C381.385 288.363 380.601 288.064 379.518 288.064C378.491 288.064 377.679 288.269 377.082 288.68C376.503 289.091 376.083 289.697 375.822 290.5C375.579 291.284 375.458 292.255 375.458 293.412V301H372.49V279.72H375.458V285.404ZM395.979 285.628C397.883 285.628 399.301 286.048 400.235 286.888C401.168 287.709 401.635 289.007 401.635 290.78V301H399.535L398.947 298.9H398.835C398.405 299.441 397.957 299.889 397.491 300.244C397.043 300.599 396.52 300.86 395.923 301.028C395.344 301.196 394.635 301.28 393.795 301.28C392.899 301.28 392.087 301.121 391.359 300.804C390.649 300.468 390.089 299.964 389.679 299.292C389.268 298.601 389.063 297.743 389.063 296.716C389.063 295.185 389.641 294.019 390.799 293.216C391.975 292.413 393.757 291.975 396.147 291.9L398.723 291.816V290.976C398.723 289.856 398.471 289.072 397.967 288.624C397.463 288.176 396.753 287.952 395.839 287.952C395.055 287.952 394.308 288.064 393.599 288.288C392.889 288.512 392.217 288.783 391.583 289.1L390.631 286.944C391.34 286.571 392.152 286.263 393.067 286.02C394 285.759 394.971 285.628 395.979 285.628ZM396.679 293.804C394.961 293.879 393.767 294.168 393.095 294.672C392.441 295.157 392.115 295.848 392.115 296.744C392.115 297.528 392.348 298.097 392.815 298.452C393.3 298.807 393.907 298.984 394.635 298.984C395.811 298.984 396.781 298.657 397.547 298.004C398.312 297.351 398.695 296.371 398.695 295.064V293.748L396.679 293.804ZM413.849 285.628C415.604 285.628 416.948 286.067 417.881 286.944C418.814 287.821 419.281 289.231 419.281 291.172V301H416.341V291.592C416.341 290.416 416.089 289.539 415.585 288.96C415.1 288.363 414.316 288.064 413.233 288.064C411.702 288.064 410.638 288.521 410.041 289.436C409.462 290.351 409.173 291.667 409.173 293.384V301H406.205V285.908H408.557L408.977 287.924H409.145C409.481 287.401 409.892 286.972 410.377 286.636C410.862 286.3 411.404 286.048 412.001 285.88C412.598 285.712 413.214 285.628 413.849 285.628ZM429.05 285.628C430.02 285.628 430.898 285.815 431.682 286.188C432.466 286.561 433.128 287.131 433.67 287.896H433.81L434.146 285.908H436.554V301.196C436.554 302.615 436.302 303.809 435.798 304.78C435.294 305.751 434.519 306.479 433.474 306.964C432.447 307.468 431.15 307.72 429.582 307.72C428.499 307.72 427.5 307.645 426.586 307.496C425.671 307.347 424.831 307.113 424.066 306.796V304.192C424.607 304.453 425.176 304.668 425.774 304.836C426.371 305.023 427.006 305.153 427.678 305.228C428.35 305.321 429.04 305.368 429.75 305.368C430.982 305.368 431.934 305.013 432.606 304.304C433.278 303.613 433.614 302.633 433.614 301.364V300.86C433.614 300.617 433.623 300.3 433.642 299.908C433.66 299.497 433.679 299.199 433.698 299.012H433.586C433.063 299.796 432.419 300.375 431.654 300.748C430.907 301.103 430.039 301.28 429.05 301.28C427.146 301.28 425.652 300.599 424.57 299.236C423.506 297.855 422.974 295.941 422.974 293.496C422.974 291.853 423.216 290.453 423.702 289.296C424.187 288.12 424.878 287.215 425.774 286.58C426.688 285.945 427.78 285.628 429.05 285.628ZM429.666 288.092C428.882 288.092 428.219 288.307 427.678 288.736C427.136 289.147 426.726 289.753 426.446 290.556C426.166 291.359 426.026 292.348 426.026 293.524C426.026 295.279 426.334 296.613 426.95 297.528C427.584 298.443 428.508 298.9 429.722 298.9C430.431 298.9 431.028 298.807 431.514 298.62C432.018 298.433 432.428 298.144 432.746 297.752C433.082 297.36 433.324 296.865 433.474 296.268C433.642 295.652 433.726 294.915 433.726 294.056V293.496C433.726 292.208 433.576 291.172 433.278 290.388C432.998 289.585 432.559 289.007 431.962 288.652C431.364 288.279 430.599 288.092 429.666 288.092ZM447.141 285.628C448.466 285.628 449.605 285.908 450.557 286.468C451.509 287.009 452.237 287.793 452.741 288.82C453.264 289.847 453.525 291.06 453.525 292.46V294.084H443.389C443.426 295.633 443.828 296.819 444.593 297.64C445.377 298.461 446.469 298.872 447.869 298.872C448.84 298.872 449.698 298.788 450.445 298.62C451.21 298.433 451.994 298.163 452.797 297.808V300.272C452.05 300.608 451.285 300.86 450.501 301.028C449.736 301.196 448.821 301.28 447.757 301.28C446.301 301.28 445.013 300.991 443.893 300.412C442.773 299.833 441.896 298.975 441.261 297.836C440.645 296.679 440.337 295.26 440.337 293.58C440.337 291.881 440.617 290.444 441.177 289.268C441.756 288.092 442.549 287.196 443.557 286.58C444.584 285.945 445.778 285.628 447.141 285.628ZM447.141 287.924C446.077 287.924 445.218 288.269 444.565 288.96C443.93 289.651 443.557 290.631 443.445 291.9H450.557C450.557 291.116 450.436 290.425 450.193 289.828C449.95 289.231 449.577 288.764 449.073 288.428C448.569 288.092 447.925 287.924 447.141 287.924ZM460.532 298.06C460.364 298.713 460.15 299.423 459.888 300.188C459.627 300.953 459.347 301.709 459.048 302.456C458.75 303.221 458.442 303.94 458.124 304.612H455.968C456.155 303.884 456.332 303.109 456.5 302.288C456.687 301.485 456.855 300.692 457.004 299.908C457.154 299.124 457.275 298.405 457.368 297.752H460.336L460.532 298.06ZM308.215 323.628C308.477 323.628 308.766 323.647 309.083 323.684C309.401 323.703 309.662 323.731 309.867 323.768L309.559 326.54C309.354 326.484 309.111 326.437 308.831 326.4C308.551 326.363 308.29 326.344 308.047 326.344C307.487 326.344 306.946 326.456 306.423 326.68C305.919 326.885 305.462 327.193 305.051 327.604C304.641 327.996 304.314 328.481 304.071 329.06C303.847 329.639 303.735 330.301 303.735 331.048V339H300.767V323.908H303.119L303.511 326.596H303.623C303.941 326.055 304.323 325.56 304.771 325.112C305.219 324.664 305.733 324.309 306.311 324.048C306.89 323.768 307.525 323.628 308.215 323.628ZM318.051 323.628C319.376 323.628 320.515 323.908 321.467 324.468C322.419 325.009 323.147 325.793 323.651 326.82C324.174 327.847 324.435 329.06 324.435 330.46V332.084H314.299C314.336 333.633 314.738 334.819 315.503 335.64C316.287 336.461 317.379 336.872 318.779 336.872C319.75 336.872 320.608 336.788 321.355 336.62C322.12 336.433 322.904 336.163 323.707 335.808V338.272C322.96 338.608 322.195 338.86 321.411 339.028C320.646 339.196 319.731 339.28 318.667 339.28C317.211 339.28 315.923 338.991 314.803 338.412C313.683 337.833 312.806 336.975 312.171 335.836C311.555 334.679 311.247 333.26 311.247 331.58C311.247 329.881 311.527 328.444 312.087 327.268C312.666 326.092 313.459 325.196 314.467 324.58C315.494 323.945 316.688 323.628 318.051 323.628ZM318.051 325.924C316.987 325.924 316.128 326.269 315.475 326.96C314.84 327.651 314.467 328.631 314.355 329.9H321.467C321.467 329.116 321.346 328.425 321.103 327.828C320.86 327.231 320.487 326.764 319.983 326.428C319.479 326.092 318.835 325.924 318.051 325.924ZM326.542 345.72C326.076 345.72 325.646 345.683 325.254 345.608C324.844 345.552 324.489 345.477 324.19 345.384V343.004C324.489 343.079 324.788 343.144 325.086 343.2C325.385 343.256 325.721 343.284 326.094 343.284C326.673 343.284 327.158 343.116 327.55 342.78C327.942 342.463 328.138 341.847 328.138 340.932V323.908H331.106V341.072C331.106 342.005 330.948 342.817 330.63 343.508C330.313 344.217 329.818 344.759 329.146 345.132C328.493 345.524 327.625 345.72 326.542 345.72ZM327.942 319.876C327.942 319.26 328.101 318.821 328.418 318.56C328.754 318.299 329.165 318.168 329.65 318.168C330.098 318.168 330.49 318.299 330.826 318.56C331.162 318.821 331.33 319.26 331.33 319.876C331.33 320.473 331.162 320.912 330.826 321.192C330.49 321.453 330.098 321.584 329.65 321.584C329.165 321.584 328.754 321.453 328.418 321.192C328.101 320.912 327.942 320.473 327.942 319.876ZM348.759 323.908V339H346.379L345.959 337.012H345.819C345.502 337.535 345.091 337.964 344.587 338.3C344.083 338.636 343.533 338.879 342.935 339.028C342.338 339.196 341.722 339.28 341.087 339.28C339.911 339.28 338.913 339.093 338.091 338.72C337.289 338.328 336.673 337.731 336.243 336.928C335.833 336.107 335.627 335.061 335.627 333.792V323.908H338.623V333.344C338.623 334.52 338.866 335.397 339.351 335.976C339.855 336.555 340.63 336.844 341.675 336.844C342.721 336.844 343.542 336.639 344.139 336.228C344.737 335.817 345.157 335.22 345.399 334.436C345.661 333.633 345.791 332.672 345.791 331.552V323.908H348.759ZM356.792 339L351.08 323.908H354.216L357.352 332.728C357.483 333.101 357.613 333.521 357.744 333.988C357.893 334.455 358.024 334.903 358.136 335.332C358.248 335.761 358.323 336.135 358.36 336.452H358.472C358.528 336.135 358.612 335.761 358.724 335.332C358.855 334.884 358.995 334.436 359.144 333.988C359.293 333.521 359.424 333.101 359.536 332.728L362.672 323.908H365.808L360.068 339H356.792ZM374.078 323.628C375.404 323.628 376.542 323.908 377.494 324.468C378.446 325.009 379.174 325.793 379.678 326.82C380.201 327.847 380.462 329.06 380.462 330.46V332.084H370.326C370.364 333.633 370.765 334.819 371.53 335.64C372.314 336.461 373.406 336.872 374.806 336.872C375.777 336.872 376.636 336.788 377.382 336.62C378.148 336.433 378.932 336.163 379.734 335.808V338.272C378.988 338.608 378.222 338.86 377.438 339.028C376.673 339.196 375.758 339.28 374.694 339.28C373.238 339.28 371.95 338.991 370.83 338.412C369.71 337.833 368.833 336.975 368.198 335.836C367.582 334.679 367.274 333.26 367.274 331.58C367.274 329.881 367.554 328.444 368.114 327.268C368.693 326.092 369.486 325.196 370.494 324.58C371.521 323.945 372.716 323.628 374.078 323.628ZM374.078 325.924C373.014 325.924 372.156 326.269 371.502 326.96C370.868 327.651 370.494 328.631 370.382 329.9H377.494C377.494 329.116 377.373 328.425 377.13 327.828C376.888 327.231 376.514 326.764 376.01 326.428C375.506 326.092 374.862 325.924 374.078 325.924ZM391.81 323.628C393.564 323.628 394.908 324.067 395.842 324.944C396.775 325.821 397.242 327.231 397.242 329.172V339H394.302V329.592C394.302 328.416 394.05 327.539 393.546 326.96C393.06 326.363 392.276 326.064 391.194 326.064C389.663 326.064 388.599 326.521 388.002 327.436C387.423 328.351 387.134 329.667 387.134 331.384V339H384.166V323.908H386.518L386.938 325.924H387.106C387.442 325.401 387.852 324.972 388.338 324.636C388.823 324.3 389.364 324.048 389.962 323.88C390.559 323.712 391.175 323.628 391.81 323.628ZM407.655 323.628C409.559 323.628 410.977 324.048 411.911 324.888C412.844 325.709 413.311 327.007 413.311 328.78V339H411.211L410.623 336.9H410.511C410.081 337.441 409.633 337.889 409.167 338.244C408.719 338.599 408.196 338.86 407.599 339.028C407.02 339.196 406.311 339.28 405.471 339.28C404.575 339.28 403.763 339.121 403.035 338.804C402.325 338.468 401.765 337.964 401.355 337.292C400.944 336.601 400.739 335.743 400.739 334.716C400.739 333.185 401.317 332.019 402.475 331.216C403.651 330.413 405.433 329.975 407.823 329.9L410.399 329.816V328.976C410.399 327.856 410.147 327.072 409.643 326.624C409.139 326.176 408.429 325.952 407.515 325.952C406.731 325.952 405.984 326.064 405.275 326.288C404.565 326.512 403.893 326.783 403.259 327.1L402.307 324.944C403.016 324.571 403.828 324.263 404.743 324.02C405.676 323.759 406.647 323.628 407.655 323.628ZM408.355 331.804C406.637 331.879 405.443 332.168 404.771 332.672C404.117 333.157 403.791 333.848 403.791 334.744C403.791 335.528 404.024 336.097 404.491 336.452C404.976 336.807 405.583 336.984 406.311 336.984C407.487 336.984 408.457 336.657 409.223 336.004C409.988 335.351 410.371 334.371 410.371 333.064V331.748L408.355 331.804ZM423.313 336.872C423.705 336.872 424.106 336.835 424.517 336.76C424.927 336.685 425.282 336.601 425.581 336.508V338.748C425.263 338.897 424.834 339.019 424.293 339.112C423.751 339.224 423.21 339.28 422.669 339.28C421.847 339.28 421.091 339.14 420.401 338.86C419.729 338.58 419.187 338.095 418.777 337.404C418.366 336.713 418.161 335.752 418.161 334.52V326.176H416.061V324.832L418.273 323.712L419.309 320.52H421.129V323.908H425.441V326.176H421.129V334.464C421.129 335.285 421.325 335.892 421.717 336.284C422.127 336.676 422.659 336.872 423.313 336.872ZM431.567 323.908V339H428.599V323.908H431.567ZM430.111 318.168C430.559 318.168 430.951 318.299 431.287 318.56C431.623 318.821 431.791 319.26 431.791 319.876C431.791 320.473 431.623 320.912 431.287 321.192C430.951 321.453 430.559 321.584 430.111 321.584C429.626 321.584 429.215 321.453 428.879 321.192C428.562 320.912 428.403 320.473 428.403 319.876C428.403 319.26 428.562 318.821 428.879 318.56C429.215 318.299 429.626 318.168 430.111 318.168ZM443.872 323.628C445.627 323.628 446.971 324.067 447.904 324.944C448.838 325.821 449.304 327.231 449.304 329.172V339H446.364V329.592C446.364 328.416 446.112 327.539 445.608 326.96C445.123 326.363 444.339 326.064 443.256 326.064C441.726 326.064 440.662 326.521 440.064 327.436C439.486 328.351 439.196 329.667 439.196 331.384V339H436.228V323.908H438.58L439 325.924H439.168C439.504 325.401 439.915 324.972 440.4 324.636C440.886 324.3 441.427 324.048 442.024 323.88C442.622 323.712 443.238 323.628 443.872 323.628ZM459.073 323.628C460.044 323.628 460.921 323.815 461.705 324.188C462.489 324.561 463.152 325.131 463.693 325.896H463.833L464.169 323.908H466.577V339.196C466.577 340.615 466.325 341.809 465.821 342.78C465.317 343.751 464.542 344.479 463.497 344.964C462.47 345.468 461.173 345.72 459.605 345.72C458.522 345.72 457.524 345.645 456.609 345.496C455.694 345.347 454.854 345.113 454.089 344.796V342.192C454.63 342.453 455.2 342.668 455.797 342.836C456.394 343.023 457.029 343.153 457.701 343.228C458.373 343.321 459.064 343.368 459.773 343.368C461.005 343.368 461.957 343.013 462.629 342.304C463.301 341.613 463.637 340.633 463.637 339.364V338.86C463.637 338.617 463.646 338.3 463.665 337.908C463.684 337.497 463.702 337.199 463.721 337.012H463.609C463.086 337.796 462.442 338.375 461.677 338.748C460.93 339.103 460.062 339.28 459.073 339.28C457.169 339.28 455.676 338.599 454.593 337.236C453.529 335.855 452.997 333.941 452.997 331.496C452.997 329.853 453.24 328.453 453.725 327.296C454.21 326.12 454.901 325.215 455.797 324.58C456.712 323.945 457.804 323.628 459.073 323.628ZM459.689 326.092C458.905 326.092 458.242 326.307 457.701 326.736C457.16 327.147 456.749 327.753 456.469 328.556C456.189 329.359 456.049 330.348 456.049 331.524C456.049 333.279 456.357 334.613 456.973 335.528C457.608 336.443 458.532 336.9 459.745 336.9C460.454 336.9 461.052 336.807 461.537 336.62C462.041 336.433 462.452 336.144 462.769 335.752C463.105 335.36 463.348 334.865 463.497 334.268C463.665 333.652 463.749 332.915 463.749 332.056V331.496C463.749 330.208 463.6 329.172 463.301 328.388C463.021 327.585 462.582 327.007 461.985 326.652C461.388 326.279 460.622 326.092 459.689 326.092ZM483.934 336.872C484.326 336.872 484.727 336.835 485.138 336.76C485.548 336.685 485.903 336.601 486.202 336.508V338.748C485.884 338.897 485.455 339.019 484.914 339.112C484.372 339.224 483.831 339.28 483.29 339.28C482.468 339.28 481.712 339.14 481.022 338.86C480.35 338.58 479.808 338.095 479.398 337.404C478.987 336.713 478.782 335.752 478.782 334.52V326.176H476.682V324.832L478.894 323.712L479.93 320.52H481.75V323.908H486.062V326.176H481.75V334.464C481.75 335.285 481.946 335.892 482.338 336.284C482.748 336.676 483.28 336.872 483.934 336.872ZM492.188 323.404C492.188 323.871 492.17 324.337 492.132 324.804C492.095 325.271 492.058 325.653 492.02 325.952H492.216C492.534 325.429 492.926 325 493.392 324.664C493.878 324.328 494.41 324.076 494.988 323.908C495.586 323.74 496.192 323.656 496.808 323.656C498.003 323.656 499.002 323.852 499.804 324.244C500.626 324.617 501.242 325.215 501.652 326.036C502.082 326.839 502.296 327.884 502.296 329.172V339H499.356V329.592C499.356 328.416 499.104 327.539 498.6 326.96C498.115 326.363 497.331 326.064 496.248 326.064C495.222 326.064 494.41 326.269 493.812 326.68C493.234 327.091 492.814 327.697 492.552 328.5C492.31 329.284 492.188 330.255 492.188 331.412V339H489.22V317.72H492.188V323.404ZM512.793 323.628C514.119 323.628 515.257 323.908 516.209 324.468C517.161 325.009 517.889 325.793 518.393 326.82C518.916 327.847 519.177 329.06 519.177 330.46V332.084H509.041C509.079 333.633 509.48 334.819 510.245 335.64C511.029 336.461 512.121 336.872 513.521 336.872C514.492 336.872 515.351 336.788 516.097 336.62C516.863 336.433 517.647 336.163 518.449 335.808V338.272C517.703 338.608 516.937 338.86 516.153 339.028C515.388 339.196 514.473 339.28 513.409 339.28C511.953 339.28 510.665 338.991 509.545 338.412C508.425 337.833 507.548 336.975 506.913 335.836C506.297 334.679 505.989 333.26 505.989 331.58C505.989 329.881 506.269 328.444 506.829 327.268C507.408 326.092 508.201 325.196 509.209 324.58C510.236 323.945 511.431 323.628 512.793 323.628ZM512.793 325.924C511.729 325.924 510.871 326.269 510.217 326.96C509.583 327.651 509.209 328.631 509.097 329.9H516.209C516.209 329.116 516.088 328.425 515.845 327.828C515.603 327.231 515.229 326.764 514.725 326.428C514.221 326.092 513.577 325.924 512.793 325.924ZM327.266 372.744C327.266 373.733 327.023 374.564 326.538 375.236C326.053 375.908 325.353 376.421 324.438 376.776C323.523 377.112 322.422 377.28 321.134 377.28C320.07 377.28 319.155 377.196 318.39 377.028C317.643 376.879 316.953 376.655 316.318 376.356V373.752C316.99 374.069 317.765 374.359 318.642 374.62C319.519 374.863 320.378 374.984 321.218 374.984C322.338 374.984 323.141 374.807 323.626 374.452C324.13 374.097 324.382 373.621 324.382 373.024C324.382 372.688 324.289 372.389 324.102 372.128C323.915 371.848 323.561 371.568 323.038 371.288C322.534 370.989 321.787 370.653 320.798 370.28C319.846 369.888 319.034 369.505 318.362 369.132C317.69 368.74 317.177 368.283 316.822 367.76C316.467 367.219 316.29 366.528 316.29 365.688C316.29 364.381 316.813 363.383 317.858 362.692C318.922 361.983 320.322 361.628 322.058 361.628C322.973 361.628 323.831 361.721 324.634 361.908C325.455 362.076 326.249 362.337 327.014 362.692L326.034 364.96C325.605 364.755 325.157 364.587 324.69 364.456C324.242 364.307 323.785 364.185 323.318 364.092C322.87 363.999 322.403 363.952 321.918 363.952C321.022 363.952 320.341 364.092 319.874 364.372C319.407 364.652 319.174 365.044 319.174 365.548C319.174 365.903 319.277 366.211 319.482 366.472C319.706 366.733 320.089 366.995 320.63 367.256C321.171 367.517 321.909 367.835 322.842 368.208C323.775 368.563 324.569 368.927 325.222 369.3C325.894 369.673 326.398 370.131 326.734 370.672C327.089 371.213 327.266 371.904 327.266 372.744ZM336.88 377.28C335.499 377.28 334.286 377.009 333.24 376.468C332.195 375.927 331.383 375.087 330.804 373.948C330.226 372.791 329.936 371.325 329.936 369.552C329.936 367.685 330.244 366.173 330.86 365.016C331.495 363.859 332.344 363.009 333.408 362.468C334.491 361.908 335.723 361.628 337.104 361.628C337.944 361.628 338.728 361.721 339.456 361.908C340.203 362.076 340.819 362.272 341.304 362.496L340.408 364.904C339.886 364.699 339.326 364.521 338.728 364.372C338.15 364.223 337.599 364.148 337.076 364.148C336.143 364.148 335.368 364.353 334.752 364.764C334.155 365.156 333.707 365.753 333.408 366.556C333.128 367.34 332.988 368.329 332.988 369.524C332.988 370.663 333.138 371.624 333.436 372.408C333.735 373.192 334.174 373.789 334.752 374.2C335.35 374.592 336.087 374.788 336.964 374.788C337.804 374.788 338.542 374.695 339.176 374.508C339.811 374.321 340.408 374.079 340.968 373.78V376.356C340.427 376.673 339.839 376.907 339.204 377.056C338.57 377.205 337.795 377.28 336.88 377.28ZM347.499 361.404C347.499 361.871 347.48 362.337 347.443 362.804C347.406 363.271 347.368 363.653 347.331 363.952H347.527C347.844 363.429 348.236 363 348.703 362.664C349.188 362.328 349.72 362.076 350.299 361.908C350.896 361.74 351.503 361.656 352.119 361.656C353.314 361.656 354.312 361.852 355.115 362.244C355.936 362.617 356.552 363.215 356.963 364.036C357.392 364.839 357.607 365.884 357.607 367.172V377H354.667V367.592C354.667 366.416 354.415 365.539 353.911 364.96C353.426 364.363 352.642 364.064 351.559 364.064C350.532 364.064 349.72 364.269 349.123 364.68C348.544 365.091 348.124 365.697 347.863 366.5C347.62 367.284 347.499 368.255 347.499 369.412V377H344.531V355.72H347.499V361.404ZM375.468 369.44C375.468 370.691 375.3 371.801 374.964 372.772C374.628 373.743 374.152 374.564 373.536 375.236C372.92 375.908 372.173 376.421 371.296 376.776C370.418 377.112 369.429 377.28 368.328 377.28C367.32 377.28 366.386 377.112 365.528 376.776C364.669 376.421 363.922 375.908 363.288 375.236C362.672 374.564 362.186 373.743 361.832 372.772C361.477 371.801 361.3 370.681 361.3 369.412C361.3 367.751 361.58 366.341 362.14 365.184C362.718 364.027 363.54 363.149 364.604 362.552C365.686 361.936 366.956 361.628 368.412 361.628C369.793 361.628 371.006 361.936 372.052 362.552C373.116 363.149 373.946 364.027 374.544 365.184C375.16 366.341 375.468 367.76 375.468 369.44ZM364.352 369.44C364.352 370.56 364.492 371.531 364.772 372.352C365.052 373.155 365.49 373.771 366.088 374.2C366.685 374.629 367.45 374.844 368.384 374.844C369.317 374.844 370.082 374.629 370.68 374.2C371.277 373.771 371.716 373.155 371.996 372.352C372.276 371.531 372.416 370.56 372.416 369.44C372.416 368.283 372.266 367.312 371.968 366.528C371.688 365.744 371.249 365.147 370.652 364.736C370.073 364.307 369.308 364.092 368.356 364.092C366.956 364.092 365.938 364.559 365.304 365.492C364.669 366.425 364.352 367.741 364.352 369.44ZM392.53 369.44C392.53 370.691 392.362 371.801 392.026 372.772C391.69 373.743 391.214 374.564 390.598 375.236C389.982 375.908 389.236 376.421 388.358 376.776C387.481 377.112 386.492 377.28 385.39 377.28C384.382 377.28 383.449 377.112 382.59 376.776C381.732 376.421 380.985 375.908 380.35 375.236C379.734 374.564 379.249 373.743 378.894 372.772C378.54 371.801 378.362 370.681 378.362 369.412C378.362 367.751 378.642 366.341 379.202 365.184C379.781 364.027 380.602 363.149 381.666 362.552C382.749 361.936 384.018 361.628 385.474 361.628C386.856 361.628 388.069 361.936 389.114 362.552C390.178 363.149 391.009 364.027 391.606 365.184C392.222 366.341 392.53 367.76 392.53 369.44ZM381.414 369.44C381.414 370.56 381.554 371.531 381.834 372.352C382.114 373.155 382.553 373.771 383.15 374.2C383.748 374.629 384.513 374.844 385.446 374.844C386.38 374.844 387.145 374.629 387.742 374.2C388.34 373.771 388.778 373.155 389.058 372.352C389.338 371.531 389.478 370.56 389.478 369.44C389.478 368.283 389.329 367.312 389.03 366.528C388.75 365.744 388.312 365.147 387.714 364.736C387.136 364.307 386.37 364.092 385.418 364.092C384.018 364.092 383.001 364.559 382.366 365.492C381.732 366.425 381.414 367.741 381.414 369.44ZM399.261 377H396.293V355.72H399.261V377ZM421.219 372.744C421.219 373.733 420.976 374.564 420.491 375.236C420.006 375.908 419.306 376.421 418.391 376.776C417.476 377.112 416.375 377.28 415.087 377.28C414.023 377.28 413.108 377.196 412.343 377.028C411.596 376.879 410.906 376.655 410.271 376.356V373.752C410.943 374.069 411.718 374.359 412.595 374.62C413.472 374.863 414.331 374.984 415.171 374.984C416.291 374.984 417.094 374.807 417.579 374.452C418.083 374.097 418.335 373.621 418.335 373.024C418.335 372.688 418.242 372.389 418.055 372.128C417.868 371.848 417.514 371.568 416.991 371.288C416.487 370.989 415.74 370.653 414.751 370.28C413.799 369.888 412.987 369.505 412.315 369.132C411.643 368.74 411.13 368.283 410.775 367.76C410.42 367.219 410.243 366.528 410.243 365.688C410.243 364.381 410.766 363.383 411.811 362.692C412.875 361.983 414.275 361.628 416.011 361.628C416.926 361.628 417.784 361.721 418.587 361.908C419.408 362.076 420.202 362.337 420.967 362.692L419.987 364.96C419.558 364.755 419.11 364.587 418.643 364.456C418.195 364.307 417.738 364.185 417.271 364.092C416.823 363.999 416.356 363.952 415.871 363.952C414.975 363.952 414.294 364.092 413.827 364.372C413.36 364.652 413.127 365.044 413.127 365.548C413.127 365.903 413.23 366.211 413.435 366.472C413.659 366.733 414.042 366.995 414.583 367.256C415.124 367.517 415.862 367.835 416.795 368.208C417.728 368.563 418.522 368.927 419.175 369.3C419.847 369.673 420.351 370.131 420.687 370.672C421.042 371.213 421.219 371.904 421.219 372.744ZM422.462 361.908H425.654L428.79 370.476C428.958 370.905 429.107 371.325 429.238 371.736C429.368 372.147 429.48 372.557 429.574 372.968C429.686 373.36 429.77 373.752 429.826 374.144H429.938C430.031 373.659 430.18 373.089 430.386 372.436C430.591 371.764 430.806 371.101 431.03 370.448L433.998 361.908H437.19L430.722 379.044C430.367 380.015 429.928 380.845 429.406 381.536C428.883 382.245 428.258 382.787 427.53 383.16C426.82 383.533 425.98 383.72 425.01 383.72C424.543 383.72 424.142 383.692 423.806 383.636C423.47 383.599 423.18 383.552 422.938 383.496V381.144C423.143 381.181 423.386 381.219 423.666 381.256C423.964 381.293 424.272 381.312 424.59 381.312C425.168 381.312 425.663 381.2 426.074 380.976C426.503 380.752 426.858 380.435 427.138 380.024C427.436 379.613 427.688 379.147 427.894 378.624L428.51 377L422.462 361.908ZM449.547 372.744C449.547 373.733 449.305 374.564 448.819 375.236C448.334 375.908 447.634 376.421 446.719 376.776C445.805 377.112 444.703 377.28 443.415 377.28C442.351 377.28 441.437 377.196 440.671 377.028C439.925 376.879 439.234 376.655 438.599 376.356V373.752C439.271 374.069 440.046 374.359 440.923 374.62C441.801 374.863 442.659 374.984 443.499 374.984C444.619 374.984 445.422 374.807 445.907 374.452C446.411 374.097 446.663 373.621 446.663 373.024C446.663 372.688 446.57 372.389 446.383 372.128C446.197 371.848 445.842 371.568 445.319 371.288C444.815 370.989 444.069 370.653 443.079 370.28C442.127 369.888 441.315 369.505 440.643 369.132C439.971 368.74 439.458 368.283 439.103 367.76C438.749 367.219 438.571 366.528 438.571 365.688C438.571 364.381 439.094 363.383 440.139 362.692C441.203 361.983 442.603 361.628 444.339 361.628C445.254 361.628 446.113 361.721 446.915 361.908C447.737 362.076 448.53 362.337 449.295 362.692L448.315 364.96C447.886 364.755 447.438 364.587 446.971 364.456C446.523 364.307 446.066 364.185 445.599 364.092C445.151 363.999 444.685 363.952 444.199 363.952C443.303 363.952 442.622 364.092 442.155 364.372C441.689 364.652 441.455 365.044 441.455 365.548C441.455 365.903 441.558 366.211 441.763 366.472C441.987 366.733 442.37 366.995 442.911 367.256C443.453 367.517 444.19 367.835 445.123 368.208C446.057 368.563 446.85 368.927 447.503 369.3C448.175 369.673 448.679 370.131 449.015 370.672C449.37 371.213 449.547 371.904 449.547 372.744ZM458.518 374.872C458.91 374.872 459.311 374.835 459.722 374.76C460.132 374.685 460.487 374.601 460.786 374.508V376.748C460.468 376.897 460.039 377.019 459.498 377.112C458.956 377.224 458.415 377.28 457.874 377.28C457.052 377.28 456.296 377.14 455.606 376.86C454.934 376.58 454.392 376.095 453.982 375.404C453.571 374.713 453.366 373.752 453.366 372.52V364.176H451.266V362.832L453.478 361.712L454.514 358.52H456.334V361.908H460.646V364.176H456.334V372.464C456.334 373.285 456.53 373.892 456.922 374.284C457.332 374.676 457.864 374.872 458.518 374.872ZM469.74 361.628C471.066 361.628 472.204 361.908 473.156 362.468C474.108 363.009 474.836 363.793 475.34 364.82C475.863 365.847 476.124 367.06 476.124 368.46V370.084H465.988C466.026 371.633 466.427 372.819 467.192 373.64C467.976 374.461 469.068 374.872 470.468 374.872C471.439 374.872 472.298 374.788 473.044 374.62C473.81 374.433 474.594 374.163 475.396 373.808V376.272C474.65 376.608 473.884 376.86 473.1 377.028C472.335 377.196 471.42 377.28 470.356 377.28C468.9 377.28 467.612 376.991 466.492 376.412C465.372 375.833 464.495 374.975 463.86 373.836C463.244 372.679 462.936 371.26 462.936 369.58C462.936 367.881 463.216 366.444 463.776 365.268C464.355 364.092 465.148 363.196 466.156 362.58C467.183 361.945 468.378 361.628 469.74 361.628ZM469.74 363.924C468.676 363.924 467.818 364.269 467.164 364.96C466.53 365.651 466.156 366.631 466.044 367.9H473.156C473.156 367.116 473.035 366.425 472.792 365.828C472.55 365.231 472.176 364.764 471.672 364.428C471.168 364.092 470.524 363.924 469.74 363.924ZM496.74 361.628C498.439 361.628 499.717 362.067 500.576 362.944C501.435 363.821 501.864 365.231 501.864 367.172V377H498.896V367.564C498.896 366.407 498.663 365.539 498.196 364.96C497.748 364.363 497.039 364.064 496.068 364.064C494.724 364.064 493.763 364.484 493.184 365.324C492.605 366.145 492.316 367.34 492.316 368.908V377H489.376V367.564C489.376 366.799 489.264 366.155 489.04 365.632C488.835 365.109 488.527 364.717 488.116 364.456C487.705 364.195 487.173 364.064 486.52 364.064C485.587 364.064 484.849 364.269 484.308 364.68C483.767 365.091 483.375 365.697 483.132 366.5C482.908 367.284 482.796 368.245 482.796 369.384V377H479.828V361.908H482.18L482.6 363.924H482.768C483.085 363.401 483.468 362.972 483.916 362.636C484.383 362.3 484.896 362.048 485.456 361.88C486.016 361.712 486.595 361.628 487.192 361.628C488.331 361.628 489.292 361.833 490.076 362.244C490.86 362.636 491.429 363.243 491.784 364.064H492.008C492.493 363.224 493.165 362.608 494.024 362.216C494.883 361.824 495.788 361.628 496.74 361.628Z" fill="white"/>
<path d="M90.663 317H75.795V314.256L85.371 300.508H76.047V297.008H90.411V299.752L80.835 313.5H90.663V317ZM99.7939 301.404C101.847 301.404 103.415 301.852 104.498 302.748C105.599 303.625 106.15 304.979 106.15 306.808V317H103.238L102.426 314.928H102.314C101.885 315.469 101.437 315.917 100.97 316.272C100.522 316.627 99.9992 316.879 99.4019 317.028C98.8232 317.196 98.1046 317.28 97.2459 317.28C96.3499 317.28 95.5379 317.112 94.8099 316.776C94.1006 316.421 93.5406 315.889 93.1299 315.18C92.7192 314.452 92.5139 313.537 92.5139 312.436C92.5139 310.812 93.0832 309.617 94.2219 308.852C95.3606 308.068 97.0686 307.639 99.3459 307.564L102.006 307.48V306.808C102.006 306.005 101.791 305.417 101.362 305.044C100.951 304.671 100.373 304.484 99.6259 304.484C98.8792 304.484 98.1512 304.596 97.4419 304.82C96.7326 305.025 96.0232 305.287 95.3139 305.604L93.9419 302.776C94.7632 302.347 95.6686 302.011 96.6579 301.768C97.6659 301.525 98.7112 301.404 99.7939 301.404ZM100.382 309.972C99.0379 310.009 98.1046 310.252 97.5819 310.7C97.0592 311.148 96.7979 311.736 96.7979 312.464C96.7979 313.099 96.9846 313.556 97.3579 313.836C97.7312 314.097 98.2166 314.228 98.8139 314.228C99.7099 314.228 100.466 313.967 101.082 313.444C101.698 312.903 102.006 312.147 102.006 311.176V309.916L100.382 309.972ZM118.96 301.432C119.166 301.432 119.408 301.441 119.688 301.46C119.968 301.479 120.192 301.507 120.36 301.544L120.052 305.464C119.922 305.427 119.726 305.399 119.464 305.38C119.222 305.343 119.007 305.324 118.82 305.324C118.279 305.324 117.756 305.399 117.252 305.548C116.748 305.679 116.291 305.893 115.88 306.192C115.488 306.491 115.171 306.892 114.928 307.396C114.704 307.881 114.592 308.488 114.592 309.216V317H110.42V301.712H113.584L114.2 304.288H114.396C114.695 303.765 115.068 303.289 115.516 302.86C115.964 302.431 116.478 302.085 117.056 301.824C117.654 301.563 118.288 301.432 118.96 301.432ZM128.888 301.432C130.307 301.432 131.52 301.703 132.528 302.244C133.555 302.785 134.348 303.569 134.908 304.596C135.468 305.623 135.748 306.883 135.748 308.376V310.392H125.892C125.93 311.568 126.275 312.492 126.928 313.164C127.6 313.836 128.524 314.172 129.7 314.172C130.69 314.172 131.586 314.079 132.388 313.892C133.191 313.687 134.022 313.379 134.88 312.968V316.188C134.134 316.561 133.34 316.832 132.5 317C131.679 317.187 130.68 317.28 129.504 317.28C127.974 317.28 126.62 317 125.444 316.44C124.268 315.861 123.344 314.993 122.672 313.836C122 312.679 121.664 311.223 121.664 309.468C121.664 307.676 121.963 306.192 122.56 305.016C123.176 303.821 124.026 302.925 125.108 302.328C126.191 301.731 127.451 301.432 128.888 301.432ZM128.916 304.4C128.114 304.4 127.442 304.661 126.9 305.184C126.378 305.707 126.07 306.519 125.976 307.62H131.828C131.828 307.004 131.716 306.453 131.492 305.968C131.287 305.483 130.97 305.1 130.54 304.82C130.111 304.54 129.57 304.4 128.916 304.4ZM145.431 301.432C146.85 301.432 148.063 301.703 149.071 302.244C150.098 302.785 150.891 303.569 151.451 304.596C152.011 305.623 152.291 306.883 152.291 308.376V310.392H142.435C142.473 311.568 142.818 312.492 143.471 313.164C144.143 313.836 145.067 314.172 146.243 314.172C147.233 314.172 148.129 314.079 148.931 313.892C149.734 313.687 150.565 313.379 151.423 312.968V316.188C150.677 316.561 149.883 316.832 149.043 317C148.222 317.187 147.223 317.28 146.047 317.28C144.517 317.28 143.163 317 141.987 316.44C140.811 315.861 139.887 314.993 139.215 313.836C138.543 312.679 138.207 311.223 138.207 309.468C138.207 307.676 138.506 306.192 139.103 305.016C139.719 303.821 140.569 302.925 141.651 302.328C142.734 301.731 143.994 301.432 145.431 301.432ZM145.459 304.4C144.657 304.4 143.985 304.661 143.443 305.184C142.921 305.707 142.613 306.519 142.519 307.62H148.371C148.371 307.004 148.259 306.453 148.035 305.968C147.83 305.483 147.513 305.1 147.083 304.82C146.654 304.54 146.113 304.4 145.459 304.4ZM164.354 301.432C165.997 301.432 167.313 301.88 168.302 302.776C169.292 303.653 169.786 305.072 169.786 307.032V317H165.614V308.068C165.614 306.967 165.418 306.145 165.026 305.604C164.634 305.044 164.009 304.764 163.15 304.764C161.881 304.764 161.013 305.203 160.546 306.08C160.08 306.939 159.846 308.18 159.846 309.804V317H155.674V301.712H158.866L159.426 303.672H159.65C159.986 303.149 160.397 302.729 160.882 302.412C161.368 302.076 161.909 301.833 162.506 301.684C163.104 301.516 163.72 301.432 164.354 301.432ZM178.165 314.06C177.997 314.713 177.782 315.423 177.521 316.188C177.259 316.935 176.979 317.681 176.681 318.428C176.382 319.193 176.074 319.921 175.757 320.612H172.761C172.947 319.865 173.125 319.081 173.293 318.26C173.461 317.457 173.619 316.664 173.769 315.88C173.918 315.096 174.039 314.387 174.133 313.752H177.969L178.165 314.06ZM56.412 344.976C56.412 346.525 56.216 347.935 55.824 349.204C55.4507 350.455 54.872 351.537 54.088 352.452C53.3227 353.367 52.3334 354.067 51.12 354.552C49.9254 355.037 48.516 355.28 46.892 355.28C45.268 355.28 43.8494 355.037 42.636 354.552C41.4414 354.048 40.452 353.348 39.668 352.452C38.9027 351.537 38.324 350.445 37.932 349.176C37.5587 347.907 37.372 346.497 37.372 344.948C37.372 342.876 37.708 341.075 38.38 339.544C39.0707 338.013 40.116 336.828 41.516 335.988C42.9347 335.129 44.736 334.7 46.92 334.7C49.0854 334.7 50.868 335.129 52.268 335.988C53.668 336.828 54.704 338.023 55.376 339.572C56.0667 341.103 56.412 342.904 56.412 344.976ZM41.824 344.976C41.824 346.376 42.0014 347.58 42.356 348.588C42.7107 349.596 43.2614 350.371 44.008 350.912C44.7547 351.453 45.716 351.724 46.892 351.724C48.1054 351.724 49.076 351.453 49.804 350.912C50.5507 350.371 51.092 349.596 51.428 348.588C51.7827 347.58 51.96 346.376 51.96 344.976C51.96 342.867 51.568 341.215 50.784 340.02C50 338.825 48.712 338.228 46.92 338.228C45.7254 338.228 44.7547 338.499 44.008 339.04C43.2614 339.581 42.7107 340.356 42.356 341.364C42.0014 342.372 41.824 343.576 41.824 344.976ZM68.7572 339.432C68.9625 339.432 69.2052 339.441 69.4852 339.46C69.7652 339.479 69.9892 339.507 70.1572 339.544L69.8492 343.464C69.7185 343.427 69.5225 343.399 69.2612 343.38C69.0185 343.343 68.8039 343.324 68.6172 343.324C68.0759 343.324 67.5532 343.399 67.0492 343.548C66.5452 343.679 66.0879 343.893 65.6772 344.192C65.2852 344.491 64.9679 344.892 64.7252 345.396C64.5012 345.881 64.3892 346.488 64.3892 347.216V355H60.2172V339.712H63.3812L63.9972 342.288H64.1932C64.4919 341.765 64.8652 341.289 65.3132 340.86C65.7612 340.431 66.2745 340.085 66.8532 339.824C67.4505 339.563 68.0852 339.432 68.7572 339.432ZM77.6146 339.432C78.5479 339.432 79.3879 339.619 80.1346 339.992C80.8813 340.365 81.5159 340.925 82.0386 341.672H82.1506L82.4866 339.712H86.0146V355.028C86.0146 356.484 85.7253 357.707 85.1466 358.696C84.5866 359.685 83.7373 360.432 82.5986 360.936C81.4599 361.459 80.0506 361.72 78.3706 361.72C77.2879 361.72 76.2799 361.655 75.3466 361.524C74.4319 361.393 73.5359 361.16 72.6586 360.824V357.492C73.2933 357.753 73.9279 357.968 74.5626 358.136C75.2159 358.323 75.8786 358.453 76.5506 358.528C77.2413 358.621 77.9319 358.668 78.6226 358.668C79.7053 358.668 80.5079 358.379 81.0306 357.8C81.5719 357.221 81.8426 356.353 81.8426 355.196V354.888C81.8426 354.571 81.8519 354.244 81.8706 353.908C81.9079 353.572 81.9359 353.273 81.9546 353.012H81.8426C81.3199 353.815 80.6946 354.393 79.9666 354.748C79.2386 355.103 78.4173 355.28 77.5026 355.28C75.6919 355.28 74.2733 354.589 73.2466 353.208C72.2386 351.808 71.7346 349.867 71.7346 347.384C71.7346 345.704 71.9679 344.276 72.4346 343.1C72.9013 341.905 73.5733 341 74.4506 340.384C75.3466 339.749 76.4013 339.432 77.6146 339.432ZM78.9306 342.82C78.2773 342.82 77.7266 342.997 77.2786 343.352C76.8493 343.688 76.5226 344.201 76.2986 344.892C76.0933 345.564 75.9906 346.413 75.9906 347.44C75.9906 348.971 76.2333 350.119 76.7186 350.884C77.2039 351.631 77.9599 352.004 78.9866 352.004C79.5279 352.004 79.9946 351.939 80.3866 351.808C80.7786 351.659 81.0959 351.425 81.3386 351.108C81.5999 350.772 81.7959 350.343 81.9266 349.82C82.0573 349.297 82.1226 348.663 82.1226 347.916V347.412C82.1226 346.311 82.0106 345.424 81.7866 344.752C81.5626 344.08 81.2173 343.595 80.7506 343.296C80.2839 342.979 79.6773 342.82 78.9306 342.82ZM96.6494 339.404C98.7027 339.404 100.271 339.852 101.353 340.748C102.455 341.625 103.005 342.979 103.005 344.808V355H100.093L99.2814 352.928H99.1694C98.74 353.469 98.292 353.917 97.8254 354.272C97.3774 354.627 96.8547 354.879 96.2574 355.028C95.6787 355.196 94.96 355.28 94.1014 355.28C93.2054 355.28 92.3934 355.112 91.6654 354.776C90.956 354.421 90.396 353.889 89.9854 353.18C89.5747 352.452 89.3694 351.537 89.3694 350.436C89.3694 348.812 89.9387 347.617 91.0774 346.852C92.216 346.068 93.924 345.639 96.2014 345.564L98.8614 345.48V344.808C98.8614 344.005 98.6467 343.417 98.2174 343.044C97.8067 342.671 97.228 342.484 96.4814 342.484C95.7347 342.484 95.0067 342.596 94.2974 342.82C93.588 343.025 92.8787 343.287 92.1694 343.604L90.7974 340.776C91.6187 340.347 92.524 340.011 93.5134 339.768C94.5214 339.525 95.5667 339.404 96.6494 339.404ZM97.2374 347.972C95.8934 348.009 94.96 348.252 94.4374 348.7C93.9147 349.148 93.6534 349.736 93.6534 350.464C93.6534 351.099 93.84 351.556 94.2134 351.836C94.5867 352.097 95.072 352.228 95.6694 352.228C96.5654 352.228 97.3214 351.967 97.9374 351.444C98.5534 350.903 98.8614 350.147 98.8614 349.176V347.916L97.2374 347.972ZM115.956 339.432C117.598 339.432 118.914 339.88 119.904 340.776C120.893 341.653 121.388 343.072 121.388 345.032V355H117.216V346.068C117.216 344.967 117.02 344.145 116.628 343.604C116.236 343.044 115.61 342.764 114.752 342.764C113.482 342.764 112.614 343.203 112.148 344.08C111.681 344.939 111.448 346.18 111.448 347.804V355H107.276V339.712H110.468L111.028 341.672H111.252C111.588 341.149 111.998 340.729 112.484 340.412C112.969 340.076 113.51 339.833 114.108 339.684C114.705 339.516 115.321 339.432 115.956 339.432ZM129.85 339.712V355H125.678V339.712H129.85ZM127.778 333.72C128.394 333.72 128.926 333.869 129.374 334.168C129.822 334.448 130.046 334.98 130.046 335.764C130.046 336.529 129.822 337.061 129.374 337.36C128.926 337.659 128.394 337.808 127.778 337.808C127.143 337.808 126.602 337.659 126.154 337.36C125.725 337.061 125.51 336.529 125.51 335.764C125.51 334.98 125.725 334.448 126.154 334.168C126.602 333.869 127.143 333.72 127.778 333.72ZM144.877 350.464C144.877 351.491 144.635 352.368 144.149 353.096C143.664 353.805 142.936 354.347 141.965 354.72C140.995 355.093 139.791 355.28 138.353 355.28C137.289 355.28 136.375 355.205 135.609 355.056C134.844 354.925 134.079 354.701 133.313 354.384V350.94C134.135 351.313 135.021 351.621 135.973 351.864C136.925 352.107 137.765 352.228 138.493 352.228C139.315 352.228 139.893 352.107 140.229 351.864C140.584 351.621 140.761 351.304 140.761 350.912C140.761 350.651 140.687 350.417 140.537 350.212C140.407 350.007 140.108 349.773 139.641 349.512C139.175 349.251 138.447 348.915 137.457 348.504C136.505 348.093 135.721 347.692 135.105 347.3C134.489 346.889 134.032 346.404 133.733 345.844C133.435 345.265 133.285 344.547 133.285 343.688C133.285 342.269 133.836 341.205 134.937 340.496C136.039 339.787 137.504 339.432 139.333 339.432C140.285 339.432 141.191 339.525 142.049 339.712C142.908 339.899 143.795 340.207 144.709 340.636L143.449 343.632C142.945 343.408 142.46 343.212 141.993 343.044C141.527 342.876 141.069 342.745 140.621 342.652C140.192 342.559 139.744 342.512 139.277 342.512C138.661 342.512 138.195 342.596 137.877 342.764C137.579 342.932 137.429 343.184 137.429 343.52C137.429 343.763 137.504 343.987 137.653 344.192C137.821 344.379 138.129 344.584 138.577 344.808C139.044 345.032 139.725 345.331 140.621 345.704C141.499 346.059 142.255 346.432 142.889 346.824C143.524 347.197 144.009 347.673 144.345 348.252C144.7 348.812 144.877 349.549 144.877 350.464ZM154.399 339.404C156.453 339.404 158.021 339.852 159.103 340.748C160.205 341.625 160.755 342.979 160.755 344.808V355H157.843L157.031 352.928H156.919C156.49 353.469 156.042 353.917 155.575 354.272C155.127 354.627 154.605 354.879 154.007 355.028C153.429 355.196 152.71 355.28 151.851 355.28C150.955 355.28 150.143 355.112 149.415 354.776C148.706 354.421 148.146 353.889 147.735 353.18C147.325 352.452 147.119 351.537 147.119 350.436C147.119 348.812 147.689 347.617 148.827 346.852C149.966 346.068 151.674 345.639 153.951 345.564L156.611 345.48V344.808C156.611 344.005 156.397 343.417 155.967 343.044C155.557 342.671 154.978 342.484 154.231 342.484C153.485 342.484 152.757 342.596 152.047 342.82C151.338 343.025 150.629 343.287 149.919 343.604L148.547 340.776C149.369 340.347 150.274 340.011 151.263 339.768C152.271 339.525 153.317 339.404 154.399 339.404ZM154.987 347.972C153.643 348.009 152.71 348.252 152.187 348.7C151.665 349.148 151.403 349.736 151.403 350.464C151.403 351.099 151.59 351.556 151.963 351.836C152.337 352.097 152.822 352.228 153.419 352.228C154.315 352.228 155.071 351.967 155.687 351.444C156.303 350.903 156.611 350.147 156.611 349.176V347.916L154.987 347.972ZM171.466 351.948C171.932 351.948 172.38 351.901 172.81 351.808C173.239 351.715 173.668 351.603 174.098 351.472V354.58C173.65 354.767 173.09 354.925 172.418 355.056C171.764 355.205 171.046 355.28 170.262 355.28C169.347 355.28 168.526 355.131 167.798 354.832C167.088 354.533 166.519 354.02 166.09 353.292C165.679 352.545 165.474 351.519 165.474 350.212V342.848H163.486V341.084L165.782 339.684L166.986 336.464H169.646V339.712H173.93V342.848H169.646V350.212C169.646 350.791 169.814 351.229 170.15 351.528C170.486 351.808 170.924 351.948 171.466 351.948ZM181.338 339.712V355H177.166V339.712H181.338ZM179.266 333.72C179.882 333.72 180.414 333.869 180.862 334.168C181.31 334.448 181.534 334.98 181.534 335.764C181.534 336.529 181.31 337.061 180.862 337.36C180.414 337.659 179.882 337.808 179.266 337.808C178.632 337.808 178.09 337.659 177.642 337.36C177.213 337.061 176.998 336.529 176.998 335.764C176.998 334.98 177.213 334.448 177.642 334.168C178.09 333.869 178.632 333.72 179.266 333.72ZM199.586 347.328C199.586 348.597 199.408 349.727 199.054 350.716C198.718 351.705 198.223 352.545 197.57 353.236C196.935 353.908 196.16 354.421 195.246 354.776C194.331 355.112 193.295 355.28 192.138 355.28C191.074 355.28 190.084 355.112 189.17 354.776C188.274 354.421 187.499 353.908 186.846 353.236C186.192 352.545 185.679 351.705 185.306 350.716C184.951 349.727 184.774 348.597 184.774 347.328C184.774 345.629 185.072 344.201 185.67 343.044C186.267 341.868 187.126 340.972 188.246 340.356C189.366 339.74 190.691 339.432 192.222 339.432C193.659 339.432 194.928 339.74 196.03 340.356C197.131 340.972 197.999 341.868 198.634 343.044C199.268 344.201 199.586 345.629 199.586 347.328ZM189.03 347.328C189.03 348.336 189.132 349.185 189.338 349.876C189.562 350.548 189.907 351.061 190.374 351.416C190.84 351.752 191.447 351.92 192.194 351.92C192.94 351.92 193.538 351.752 193.986 351.416C194.452 351.061 194.788 350.548 194.994 349.876C195.218 349.185 195.33 348.336 195.33 347.328C195.33 346.32 195.218 345.48 194.994 344.808C194.788 344.136 194.452 343.632 193.986 343.296C193.519 342.96 192.912 342.792 192.166 342.792C191.064 342.792 190.262 343.175 189.758 343.94C189.272 344.687 189.03 345.816 189.03 347.328ZM211.714 339.432C213.356 339.432 214.672 339.88 215.662 340.776C216.651 341.653 217.146 343.072 217.146 345.032V355H212.974V346.068C212.974 344.967 212.778 344.145 212.386 343.604C211.994 343.044 211.368 342.764 210.51 342.764C209.24 342.764 208.372 343.203 207.906 344.08C207.439 344.939 207.206 346.18 207.206 347.804V355H203.034V339.712H206.226L206.786 341.672H207.01C207.346 341.149 207.756 340.729 208.242 340.412C208.727 340.076 209.268 339.833 209.866 339.684C210.463 339.516 211.079 339.432 211.714 339.432Z" fill="white"/>
<path d="M224.02 193.373C214.631 193.373 207.02 185.762 207.02 176.373C207.02 173.145 207.02 169.93 207.02 166.713C207.02 148.733 207.04 130.743 207 112.763C207 109.213 207.29 105.893 211.6 105.133C216.06 104.343 217.8 107.173 218.86 110.903C220.67 117.303 222.71 123.633 224.43 130.053C225.2 132.923 226.55 133.993 229.63 133.953C236.176 133.856 242.722 133.843 249.32 133.852C258.709 133.865 266.32 141.494 266.32 150.883L266.32 176.373C266.32 185.762 258.709 193.373 249.32 193.373L224.02 193.373Z" fill="white"/>
<path d="M290.02 193.373C280.631 193.373 273.02 185.762 273.02 176.373C273.02 173.145 273.02 169.93 273.02 166.713C273.02 148.733 273.04 130.743 273 112.763C273 109.213 273.29 105.893 277.6 105.133C282.06 104.343 283.8 107.173 284.86 110.903C286.67 117.303 288.71 123.633 290.43 130.053C291.2 132.923 292.55 133.993 295.63 133.953C302.176 133.856 308.722 133.843 315.32 133.852C324.709 133.865 332.32 141.494 332.32 150.883L332.32 176.373C332.32 185.762 324.709 193.373 315.32 193.373L290.02 193.373Z" fill="white"/>
</svg>
