<svg width="539" height="539" viewBox="0 0 539 539" fill="none" xmlns="http://www.w3.org/2000/svg">
<circle cx="269.5" cy="269.5" r="269.5" fill="#F04C23"/>
<path d="M336.012 161.008C338.625 161.008 340.529 161.54 341.724 162.604C342.919 163.649 343.516 165.115 343.516 167C343.516 167.84 343.376 168.643 343.096 169.408C342.835 170.173 342.396 170.864 341.78 171.48C341.164 172.077 340.343 172.553 339.316 172.908C338.308 173.244 337.067 173.412 335.592 173.412H333.436V181H330.412V161.008H336.012ZM335.788 163.556H333.436V170.864H335.256C336.395 170.864 337.347 170.743 338.112 170.5C338.877 170.239 339.447 169.837 339.82 169.296C340.212 168.736 340.408 168.008 340.408 167.112C340.408 165.917 340.035 165.031 339.288 164.452C338.56 163.855 337.393 163.556 335.788 163.556ZM353.072 165.628C354.976 165.628 356.395 166.048 357.328 166.888C358.262 167.709 358.728 169.007 358.728 170.78V181H356.628L356.04 178.9H355.928C355.499 179.441 355.051 179.889 354.584 180.244C354.136 180.599 353.614 180.86 353.016 181.028C352.438 181.196 351.728 181.28 350.888 181.28C349.992 181.28 349.18 181.121 348.452 180.804C347.743 180.468 347.183 179.964 346.772 179.292C346.362 178.601 346.156 177.743 346.156 176.716C346.156 175.185 346.735 174.019 347.892 173.216C349.068 172.413 350.851 171.975 353.24 171.9L355.816 171.816V170.976C355.816 169.856 355.564 169.072 355.06 168.624C354.556 168.176 353.847 167.952 352.932 167.952C352.148 167.952 351.402 168.064 350.692 168.288C349.983 168.512 349.311 168.783 348.676 169.1L347.724 166.944C348.434 166.571 349.246 166.263 350.16 166.02C351.094 165.759 352.064 165.628 353.072 165.628ZM353.772 173.804C352.055 173.879 350.86 174.168 350.188 174.672C349.535 175.157 349.208 175.848 349.208 176.744C349.208 177.528 349.442 178.097 349.908 178.452C350.394 178.807 351 178.984 351.728 178.984C352.904 178.984 353.875 178.657 354.64 178.004C355.406 177.351 355.788 176.371 355.788 175.064V173.748L353.772 173.804ZM373.323 176.744C373.323 177.733 373.08 178.564 372.595 179.236C372.109 179.908 371.409 180.421 370.495 180.776C369.58 181.112 368.479 181.28 367.191 181.28C366.127 181.28 365.212 181.196 364.447 181.028C363.7 180.879 363.009 180.655 362.375 180.356V177.752C363.047 178.069 363.821 178.359 364.699 178.62C365.576 178.863 366.435 178.984 367.275 178.984C368.395 178.984 369.197 178.807 369.683 178.452C370.187 178.097 370.439 177.621 370.439 177.024C370.439 176.688 370.345 176.389 370.159 176.128C369.972 175.848 369.617 175.568 369.095 175.288C368.591 174.989 367.844 174.653 366.855 174.28C365.903 173.888 365.091 173.505 364.419 173.132C363.747 172.74 363.233 172.283 362.879 171.76C362.524 171.219 362.347 170.528 362.347 169.688C362.347 168.381 362.869 167.383 363.915 166.692C364.979 165.983 366.379 165.628 368.115 165.628C369.029 165.628 369.888 165.721 370.691 165.908C371.512 166.076 372.305 166.337 373.071 166.692L372.091 168.96C371.661 168.755 371.213 168.587 370.747 168.456C370.299 168.307 369.841 168.185 369.375 168.092C368.927 167.999 368.46 167.952 367.975 167.952C367.079 167.952 366.397 168.092 365.931 168.372C365.464 168.652 365.231 169.044 365.231 169.548C365.231 169.903 365.333 170.211 365.539 170.472C365.763 170.733 366.145 170.995 366.687 171.256C367.228 171.517 367.965 171.835 368.899 172.208C369.832 172.563 370.625 172.927 371.279 173.3C371.951 173.673 372.455 174.131 372.791 174.672C373.145 175.213 373.323 175.904 373.323 176.744ZM386.885 176.744C386.885 177.733 386.642 178.564 386.157 179.236C385.672 179.908 384.972 180.421 384.057 180.776C383.142 181.112 382.041 181.28 380.753 181.28C379.689 181.28 378.774 181.196 378.009 181.028C377.262 180.879 376.572 180.655 375.937 180.356V177.752C376.609 178.069 377.384 178.359 378.261 178.62C379.138 178.863 379.997 178.984 380.837 178.984C381.957 178.984 382.76 178.807 383.245 178.452C383.749 178.097 384.001 177.621 384.001 177.024C384.001 176.688 383.908 176.389 383.721 176.128C383.534 175.848 383.18 175.568 382.657 175.288C382.153 174.989 381.406 174.653 380.417 174.28C379.465 173.888 378.653 173.505 377.981 173.132C377.309 172.74 376.796 172.283 376.441 171.76C376.086 171.219 375.909 170.528 375.909 169.688C375.909 168.381 376.432 167.383 377.477 166.692C378.541 165.983 379.941 165.628 381.677 165.628C382.592 165.628 383.45 165.721 384.253 165.908C385.074 166.076 385.868 166.337 386.633 166.692L385.653 168.96C385.224 168.755 384.776 168.587 384.309 168.456C383.861 168.307 383.404 168.185 382.937 168.092C382.489 167.999 382.022 167.952 381.537 167.952C380.641 167.952 379.96 168.092 379.493 168.372C379.026 168.652 378.793 169.044 378.793 169.548C378.793 169.903 378.896 170.211 379.101 170.472C379.325 170.733 379.708 170.995 380.249 171.256C380.79 171.517 381.528 171.835 382.461 172.208C383.394 172.563 384.188 172.927 384.841 173.3C385.513 173.673 386.017 174.131 386.353 174.672C386.708 175.213 386.885 175.904 386.885 176.744ZM393.392 165.908V181H390.424V165.908H393.392ZM391.936 160.168C392.384 160.168 392.776 160.299 393.112 160.56C393.448 160.821 393.616 161.26 393.616 161.876C393.616 162.473 393.448 162.912 393.112 163.192C392.776 163.453 392.384 163.584 391.936 163.584C391.45 163.584 391.04 163.453 390.704 163.192C390.386 162.912 390.228 162.473 390.228 161.876C390.228 161.26 390.386 160.821 390.704 160.56C391.04 160.299 391.45 160.168 391.936 160.168ZM411.353 173.44C411.353 174.691 411.185 175.801 410.849 176.772C410.513 177.743 410.037 178.564 409.421 179.236C408.805 179.908 408.058 180.421 407.181 180.776C406.303 181.112 405.314 181.28 404.213 181.28C403.205 181.28 402.271 181.112 401.413 180.776C400.554 180.421 399.807 179.908 399.173 179.236C398.557 178.564 398.071 177.743 397.717 176.772C397.362 175.801 397.185 174.681 397.185 173.412C397.185 171.751 397.465 170.341 398.025 169.184C398.603 168.027 399.425 167.149 400.489 166.552C401.571 165.936 402.841 165.628 404.297 165.628C405.678 165.628 406.891 165.936 407.937 166.552C409.001 167.149 409.831 168.027 410.429 169.184C411.045 170.341 411.353 171.76 411.353 173.44ZM400.237 173.44C400.237 174.56 400.377 175.531 400.657 176.352C400.937 177.155 401.375 177.771 401.973 178.2C402.57 178.629 403.335 178.844 404.269 178.844C405.202 178.844 405.967 178.629 406.565 178.2C407.162 177.771 407.601 177.155 407.881 176.352C408.161 175.531 408.301 174.56 408.301 173.44C408.301 172.283 408.151 171.312 407.853 170.528C407.573 169.744 407.134 169.147 406.537 168.736C405.958 168.307 405.193 168.092 404.241 168.092C402.841 168.092 401.823 168.559 401.189 169.492C400.554 170.425 400.237 171.741 400.237 173.44ZM422.759 165.628C424.514 165.628 425.858 166.067 426.791 166.944C427.724 167.821 428.191 169.231 428.191 171.172V181H425.251V171.592C425.251 170.416 424.999 169.539 424.495 168.96C424.01 168.363 423.226 168.064 422.143 168.064C420.612 168.064 419.548 168.521 418.951 169.436C418.372 170.351 418.083 171.667 418.083 173.384V181H415.115V165.908H417.467L417.887 167.924H418.055C418.391 167.401 418.802 166.972 419.287 166.636C419.772 166.3 420.314 166.048 420.911 165.88C421.508 165.712 422.124 165.628 422.759 165.628ZM438.604 165.628C440.508 165.628 441.926 166.048 442.86 166.888C443.793 167.709 444.26 169.007 444.26 170.78V181H442.16L441.572 178.9H441.46C441.03 179.441 440.582 179.889 440.116 180.244C439.668 180.599 439.145 180.86 438.548 181.028C437.969 181.196 437.26 181.28 436.42 181.28C435.524 181.28 434.712 181.121 433.984 180.804C433.274 180.468 432.714 179.964 432.304 179.292C431.893 178.601 431.688 177.743 431.688 176.716C431.688 175.185 432.266 174.019 433.424 173.216C434.6 172.413 436.382 171.975 438.772 171.9L441.348 171.816V170.976C441.348 169.856 441.096 169.072 440.592 168.624C440.088 168.176 439.378 167.952 438.464 167.952C437.68 167.952 436.933 168.064 436.224 168.288C435.514 168.512 434.842 168.783 434.208 169.1L433.256 166.944C433.965 166.571 434.777 166.263 435.692 166.02C436.625 165.759 437.596 165.628 438.604 165.628ZM439.304 173.804C437.586 173.879 436.392 174.168 435.72 174.672C435.066 175.157 434.74 175.848 434.74 176.744C434.74 177.528 434.973 178.097 435.44 178.452C435.925 178.807 436.532 178.984 437.26 178.984C438.436 178.984 439.406 178.657 440.172 178.004C440.937 177.351 441.32 176.371 441.32 175.064V173.748L439.304 173.804ZM454.262 178.872C454.654 178.872 455.055 178.835 455.466 178.76C455.877 178.685 456.231 178.601 456.53 178.508V180.748C456.213 180.897 455.783 181.019 455.242 181.112C454.701 181.224 454.159 181.28 453.618 181.28C452.797 181.28 452.041 181.14 451.35 180.86C450.678 180.58 450.137 180.095 449.726 179.404C449.315 178.713 449.11 177.752 449.11 176.52V168.176H447.01V166.832L449.222 165.712L450.258 162.52H452.078V165.908H456.39V168.176H452.078V176.464C452.078 177.285 452.274 177.892 452.666 178.284C453.077 178.676 453.609 178.872 454.262 178.872ZM465.485 165.628C466.81 165.628 467.949 165.908 468.901 166.468C469.853 167.009 470.581 167.793 471.085 168.82C471.607 169.847 471.869 171.06 471.869 172.46V174.084H461.733C461.77 175.633 462.171 176.819 462.937 177.64C463.721 178.461 464.813 178.872 466.213 178.872C467.183 178.872 468.042 178.788 468.789 178.62C469.554 178.433 470.338 178.163 471.141 177.808V180.272C470.394 180.608 469.629 180.86 468.845 181.028C468.079 181.196 467.165 181.28 466.101 181.28C464.645 181.28 463.357 180.991 462.237 180.412C461.117 179.833 460.239 178.975 459.605 177.836C458.989 176.679 458.681 175.26 458.681 173.58C458.681 171.881 458.961 170.444 459.521 169.268C460.099 168.092 460.893 167.196 461.901 166.58C462.927 165.945 464.122 165.628 465.485 165.628ZM465.485 167.924C464.421 167.924 463.562 168.269 462.909 168.96C462.274 169.651 461.901 170.631 461.789 171.9H468.901C468.901 171.116 468.779 170.425 468.537 169.828C468.294 169.231 467.921 168.764 467.417 168.428C466.913 168.092 466.269 167.924 465.485 167.924ZM299.59 203.628C300.915 203.628 302.054 203.908 303.006 204.468C303.958 205.009 304.686 205.793 305.19 206.82C305.713 207.847 305.974 209.06 305.974 210.46V212.084H295.838C295.875 213.633 296.277 214.819 297.042 215.64C297.826 216.461 298.918 216.872 300.318 216.872C301.289 216.872 302.147 216.788 302.894 216.62C303.659 216.433 304.443 216.163 305.246 215.808V218.272C304.499 218.608 303.734 218.86 302.95 219.028C302.185 219.196 301.27 219.28 300.206 219.28C298.75 219.28 297.462 218.991 296.342 218.412C295.222 217.833 294.345 216.975 293.71 215.836C293.094 214.679 292.786 213.26 292.786 211.58C292.786 209.881 293.066 208.444 293.626 207.268C294.205 206.092 294.998 205.196 296.006 204.58C297.033 203.945 298.227 203.628 299.59 203.628ZM299.59 205.924C298.526 205.924 297.667 206.269 297.014 206.96C296.379 207.651 296.006 208.631 295.894 209.9H303.006C303.006 209.116 302.885 208.425 302.642 207.828C302.399 207.231 302.026 206.764 301.522 206.428C301.018 206.092 300.374 205.924 299.59 205.924ZM314.858 219.28C313.047 219.28 311.582 218.627 310.462 217.32C309.36 216.013 308.81 214.072 308.81 211.496C308.81 208.901 309.37 206.941 310.49 205.616C311.61 204.291 313.084 203.628 314.914 203.628C315.679 203.628 316.342 203.731 316.902 203.936C317.48 204.123 317.975 204.384 318.386 204.72C318.815 205.056 319.179 205.429 319.478 205.84H319.646C319.608 205.579 319.562 205.205 319.506 204.72C319.45 204.216 319.422 203.768 319.422 203.376V197.72H322.39V219H320.066L319.562 216.984H319.422C319.142 217.413 318.787 217.805 318.358 218.16C317.947 218.496 317.452 218.767 316.874 218.972C316.295 219.177 315.623 219.28 314.858 219.28ZM315.558 216.844C317.014 216.844 318.04 216.443 318.638 215.64C319.235 214.819 319.534 213.596 319.534 211.972V211.524C319.534 209.751 319.244 208.397 318.666 207.464C318.106 206.531 317.06 206.064 315.53 206.064C314.316 206.064 313.402 206.559 312.786 207.548C312.17 208.519 311.862 209.853 311.862 211.552C311.862 213.251 312.17 214.557 312.786 215.472C313.402 216.387 314.326 216.844 315.558 216.844ZM340.033 203.908V219H337.653L337.233 217.012H337.093C336.775 217.535 336.365 217.964 335.861 218.3C335.357 218.636 334.806 218.879 334.209 219.028C333.611 219.196 332.995 219.28 332.361 219.28C331.185 219.28 330.186 219.093 329.365 218.72C328.562 218.328 327.946 217.731 327.517 216.928C327.106 216.107 326.901 215.061 326.901 213.792V203.908H329.897V213.344C329.897 214.52 330.139 215.397 330.625 215.976C331.129 216.555 331.903 216.844 332.949 216.844C333.994 216.844 334.815 216.639 335.413 216.228C336.01 215.817 336.43 215.22 336.673 214.436C336.934 213.633 337.065 212.672 337.065 211.552V203.908H340.033ZM350.754 219.28C349.372 219.28 348.159 219.009 347.114 218.468C346.068 217.927 345.256 217.087 344.678 215.948C344.099 214.791 343.81 213.325 343.81 211.552C343.81 209.685 344.118 208.173 344.734 207.016C345.368 205.859 346.218 205.009 347.282 204.468C348.364 203.908 349.596 203.628 350.978 203.628C351.818 203.628 352.602 203.721 353.33 203.908C354.076 204.076 354.692 204.272 355.178 204.496L354.282 206.904C353.759 206.699 353.199 206.521 352.602 206.372C352.023 206.223 351.472 206.148 350.95 206.148C350.016 206.148 349.242 206.353 348.626 206.764C348.028 207.156 347.58 207.753 347.282 208.556C347.002 209.34 346.862 210.329 346.862 211.524C346.862 212.663 347.011 213.624 347.31 214.408C347.608 215.192 348.047 215.789 348.626 216.2C349.223 216.592 349.96 216.788 350.838 216.788C351.678 216.788 352.415 216.695 353.05 216.508C353.684 216.321 354.282 216.079 354.842 215.78V218.356C354.3 218.673 353.712 218.907 353.078 219.056C352.443 219.205 351.668 219.28 350.754 219.28ZM364.256 203.628C366.16 203.628 367.579 204.048 368.512 204.888C369.445 205.709 369.912 207.007 369.912 208.78V219H367.812L367.224 216.9H367.112C366.683 217.441 366.235 217.889 365.768 218.244C365.32 218.599 364.797 218.86 364.2 219.028C363.621 219.196 362.912 219.28 362.072 219.28C361.176 219.28 360.364 219.121 359.636 218.804C358.927 218.468 358.367 217.964 357.956 217.292C357.545 216.601 357.34 215.743 357.34 214.716C357.34 213.185 357.919 212.019 359.076 211.216C360.252 210.413 362.035 209.975 364.424 209.9L367 209.816V208.976C367 207.856 366.748 207.072 366.244 206.624C365.74 206.176 365.031 205.952 364.116 205.952C363.332 205.952 362.585 206.064 361.876 206.288C361.167 206.512 360.495 206.783 359.86 207.1L358.908 204.944C359.617 204.571 360.429 204.263 361.344 204.02C362.277 203.759 363.248 203.628 364.256 203.628ZM364.956 211.804C363.239 211.879 362.044 212.168 361.372 212.672C360.719 213.157 360.392 213.848 360.392 214.744C360.392 215.528 360.625 216.097 361.092 216.452C361.577 216.807 362.184 216.984 362.912 216.984C364.088 216.984 365.059 216.657 365.824 216.004C366.589 215.351 366.972 214.371 366.972 213.064V211.748L364.956 211.804ZM379.914 216.872C380.306 216.872 380.708 216.835 381.118 216.76C381.529 216.685 381.884 216.601 382.182 216.508V218.748C381.865 218.897 381.436 219.019 380.894 219.112C380.353 219.224 379.812 219.28 379.27 219.28C378.449 219.28 377.693 219.14 377.002 218.86C376.33 218.58 375.789 218.095 375.378 217.404C374.968 216.713 374.762 215.752 374.762 214.52V206.176H372.662V204.832L374.874 203.712L375.91 200.52H377.73V203.908H382.042V206.176H377.73V214.464C377.73 215.285 377.926 215.892 378.318 216.284C378.729 216.676 379.261 216.872 379.914 216.872ZM398.501 211.44C398.501 212.691 398.333 213.801 397.997 214.772C397.661 215.743 397.185 216.564 396.569 217.236C395.953 217.908 395.206 218.421 394.329 218.776C393.452 219.112 392.462 219.28 391.361 219.28C390.353 219.28 389.42 219.112 388.561 218.776C387.702 218.421 386.956 217.908 386.321 217.236C385.705 216.564 385.22 215.743 384.865 214.772C384.51 213.801 384.333 212.681 384.333 211.412C384.333 209.751 384.613 208.341 385.173 207.184C385.752 206.027 386.573 205.149 387.637 204.552C388.72 203.936 389.989 203.628 391.445 203.628C392.826 203.628 394.04 203.936 395.085 204.552C396.149 205.149 396.98 206.027 397.577 207.184C398.193 208.341 398.501 209.76 398.501 211.44ZM387.385 211.44C387.385 212.56 387.525 213.531 387.805 214.352C388.085 215.155 388.524 215.771 389.121 216.2C389.718 216.629 390.484 216.844 391.417 216.844C392.35 216.844 393.116 216.629 393.713 216.2C394.31 215.771 394.749 215.155 395.029 214.352C395.309 213.531 395.449 212.56 395.449 211.44C395.449 210.283 395.3 209.312 395.001 208.528C394.721 207.744 394.282 207.147 393.685 206.736C393.106 206.307 392.341 206.092 391.389 206.092C389.989 206.092 388.972 206.559 388.337 207.492C387.702 208.425 387.385 209.741 387.385 211.44ZM409.711 203.628C409.973 203.628 410.262 203.647 410.579 203.684C410.897 203.703 411.158 203.731 411.363 203.768L411.055 206.54C410.85 206.484 410.607 206.437 410.327 206.4C410.047 206.363 409.786 206.344 409.543 206.344C408.983 206.344 408.442 206.456 407.919 206.68C407.415 206.885 406.958 207.193 406.547 207.604C406.137 207.996 405.81 208.481 405.567 209.06C405.343 209.639 405.231 210.301 405.231 211.048V219H402.263V203.908H404.615L405.007 206.596H405.119C405.437 206.055 405.819 205.56 406.267 205.112C406.715 204.664 407.229 204.309 407.807 204.048C408.386 203.768 409.021 203.628 409.711 203.628ZM424.399 203.908V219H421.431V203.908H424.399ZM422.943 198.168C423.391 198.168 423.783 198.299 424.119 198.56C424.455 198.821 424.623 199.26 424.623 199.876C424.623 200.473 424.455 200.912 424.119 201.192C423.783 201.453 423.391 201.584 422.943 201.584C422.458 201.584 422.047 201.453 421.711 201.192C421.394 200.912 421.235 200.473 421.235 199.876C421.235 199.26 421.394 198.821 421.711 198.56C422.047 198.299 422.458 198.168 422.943 198.168ZM434.268 203.628C435.239 203.628 436.116 203.815 436.9 204.188C437.684 204.561 438.347 205.131 438.888 205.896H439.028L439.364 203.908H441.772V219.196C441.772 220.615 441.52 221.809 441.016 222.78C440.512 223.751 439.738 224.479 438.692 224.964C437.666 225.468 436.368 225.72 434.8 225.72C433.718 225.72 432.719 225.645 431.804 225.496C430.89 225.347 430.05 225.113 429.284 224.796V222.192C429.826 222.453 430.395 222.668 430.992 222.836C431.59 223.023 432.224 223.153 432.896 223.228C433.568 223.321 434.259 223.368 434.968 223.368C436.2 223.368 437.152 223.013 437.824 222.304C438.496 221.613 438.832 220.633 438.832 219.364V218.86C438.832 218.617 438.842 218.3 438.86 217.908C438.879 217.497 438.898 217.199 438.916 217.012H438.804C438.282 217.796 437.638 218.375 436.872 218.748C436.126 219.103 435.258 219.28 434.268 219.28C432.364 219.28 430.871 218.599 429.788 217.236C428.724 215.855 428.192 213.941 428.192 211.496C428.192 209.853 428.435 208.453 428.92 207.296C429.406 206.12 430.096 205.215 430.992 204.58C431.907 203.945 432.999 203.628 434.268 203.628ZM434.884 206.092C434.1 206.092 433.438 206.307 432.896 206.736C432.355 207.147 431.944 207.753 431.664 208.556C431.384 209.359 431.244 210.348 431.244 211.524C431.244 213.279 431.552 214.613 432.168 215.528C432.803 216.443 433.727 216.9 434.94 216.9C435.65 216.9 436.247 216.807 436.732 216.62C437.236 216.433 437.647 216.144 437.964 215.752C438.3 215.36 438.543 214.865 438.692 214.268C438.86 213.652 438.944 212.915 438.944 212.056V211.496C438.944 210.208 438.795 209.172 438.496 208.388C438.216 207.585 437.778 207.007 437.18 206.652C436.583 206.279 435.818 206.092 434.884 206.092ZM454.068 203.628C455.822 203.628 457.166 204.067 458.1 204.944C459.033 205.821 459.5 207.231 459.5 209.172V219H456.56V209.592C456.56 208.416 456.308 207.539 455.804 206.96C455.318 206.363 454.534 206.064 453.452 206.064C451.921 206.064 450.857 206.521 450.26 207.436C449.681 208.351 449.392 209.667 449.392 211.384V219H446.424V203.908H448.776L449.196 205.924H449.364C449.7 205.401 450.11 204.972 450.596 204.636C451.081 204.3 451.622 204.048 452.22 203.88C452.817 203.712 453.433 203.628 454.068 203.628ZM467.028 203.908V219H464.06V203.908H467.028ZM465.572 198.168C466.02 198.168 466.412 198.299 466.748 198.56C467.084 198.821 467.252 199.26 467.252 199.876C467.252 200.473 467.084 200.912 466.748 201.192C466.412 201.453 466.02 201.584 465.572 201.584C465.087 201.584 464.676 201.453 464.34 201.192C464.023 200.912 463.864 200.473 463.864 199.876C463.864 199.26 464.023 198.821 464.34 198.56C464.676 198.299 465.087 198.168 465.572 198.168ZM477.121 216.872C477.513 216.872 477.915 216.835 478.325 216.76C478.736 216.685 479.091 216.601 479.389 216.508V218.748C479.072 218.897 478.643 219.019 478.101 219.112C477.56 219.224 477.019 219.28 476.477 219.28C475.656 219.28 474.9 219.14 474.209 218.86C473.537 218.58 472.996 218.095 472.585 217.404C472.175 216.713 471.969 215.752 471.969 214.52V206.176H469.869V204.832L472.081 203.712L473.117 200.52H474.937V203.908H479.249V206.176H474.937V214.464C474.937 215.285 475.133 215.892 475.525 216.284C475.936 216.676 476.468 216.872 477.121 216.872ZM488.344 203.628C489.669 203.628 490.808 203.908 491.76 204.468C492.712 205.009 493.44 205.793 493.944 206.82C494.467 207.847 494.728 209.06 494.728 210.46V212.084H484.592C484.629 213.633 485.031 214.819 485.796 215.64C486.58 216.461 487.672 216.872 489.072 216.872C490.043 216.872 490.901 216.788 491.648 216.62C492.413 216.433 493.197 216.163 494 215.808V218.272C493.253 218.608 492.488 218.86 491.704 219.028C490.939 219.196 490.024 219.28 488.96 219.28C487.504 219.28 486.216 218.991 485.096 218.412C483.976 217.833 483.099 216.975 482.464 215.836C481.848 214.679 481.54 213.26 481.54 211.58C481.54 209.881 481.82 208.444 482.38 207.268C482.959 206.092 483.752 205.196 484.76 204.58C485.787 203.945 486.981 203.628 488.344 203.628ZM488.344 205.924C487.28 205.924 486.421 206.269 485.768 206.96C485.133 207.651 484.76 208.631 484.648 209.9H491.76C491.76 209.116 491.639 208.425 491.396 207.828C491.153 207.231 490.78 206.764 490.276 206.428C489.772 206.092 489.128 205.924 488.344 205.924ZM508.455 214.744C508.455 215.733 508.213 216.564 507.727 217.236C507.242 217.908 506.542 218.421 505.627 218.776C504.713 219.112 503.611 219.28 502.323 219.28C501.259 219.28 500.345 219.196 499.579 219.028C498.833 218.879 498.142 218.655 497.507 218.356V215.752C498.179 216.069 498.954 216.359 499.831 216.62C500.709 216.863 501.567 216.984 502.407 216.984C503.527 216.984 504.33 216.807 504.815 216.452C505.319 216.097 505.571 215.621 505.571 215.024C505.571 214.688 505.478 214.389 505.291 214.128C505.105 213.848 504.75 213.568 504.227 213.288C503.723 212.989 502.977 212.653 501.987 212.28C501.035 211.888 500.223 211.505 499.551 211.132C498.879 210.74 498.366 210.283 498.011 209.76C497.657 209.219 497.479 208.528 497.479 207.688C497.479 206.381 498.002 205.383 499.047 204.692C500.111 203.983 501.511 203.628 503.247 203.628C504.162 203.628 505.021 203.721 505.823 203.908C506.645 204.076 507.438 204.337 508.203 204.692L507.223 206.96C506.794 206.755 506.346 206.587 505.879 206.456C505.431 206.307 504.974 206.185 504.507 206.092C504.059 205.999 503.593 205.952 503.107 205.952C502.211 205.952 501.53 206.092 501.063 206.372C500.597 206.652 500.363 207.044 500.363 207.548C500.363 207.903 500.466 208.211 500.671 208.472C500.895 208.733 501.278 208.995 501.819 209.256C502.361 209.517 503.098 209.835 504.031 210.208C504.965 210.563 505.758 210.927 506.411 211.3C507.083 211.673 507.587 212.131 507.923 212.672C508.278 213.213 508.455 213.904 508.455 214.744ZM289.03 241.628C289.291 241.628 289.58 241.647 289.898 241.684C290.215 241.703 290.476 241.731 290.682 241.768L290.374 244.54C290.168 244.484 289.926 244.437 289.646 244.4C289.366 244.363 289.104 244.344 288.862 244.344C288.302 244.344 287.76 244.456 287.238 244.68C286.734 244.885 286.276 245.193 285.866 245.604C285.455 245.996 285.128 246.481 284.886 247.06C284.662 247.639 284.55 248.301 284.55 249.048V257H281.582V241.908H283.934L284.326 244.596H284.438C284.755 244.055 285.138 243.56 285.586 243.112C286.034 242.664 286.547 242.309 287.126 242.048C287.704 241.768 288.339 241.628 289.03 241.628ZM298.865 241.628C300.191 241.628 301.329 241.908 302.281 242.468C303.233 243.009 303.961 243.793 304.465 244.82C304.988 245.847 305.249 247.06 305.249 248.46V250.084H295.113C295.151 251.633 295.552 252.819 296.317 253.64C297.101 254.461 298.193 254.872 299.593 254.872C300.564 254.872 301.423 254.788 302.169 254.62C302.935 254.433 303.719 254.163 304.521 253.808V256.272C303.775 256.608 303.009 256.86 302.225 257.028C301.46 257.196 300.545 257.28 299.481 257.28C298.025 257.28 296.737 256.991 295.617 256.412C294.497 255.833 293.62 254.975 292.985 253.836C292.369 252.679 292.061 251.26 292.061 249.58C292.061 247.881 292.341 246.444 292.901 245.268C293.48 244.092 294.273 243.196 295.281 242.58C296.308 241.945 297.503 241.628 298.865 241.628ZM298.865 243.924C297.801 243.924 296.943 244.269 296.289 244.96C295.655 245.651 295.281 246.631 295.169 247.9H302.281C302.281 247.116 302.16 246.425 301.917 245.828C301.675 245.231 301.301 244.764 300.797 244.428C300.293 244.092 299.649 243.924 298.865 243.924ZM316.317 244.176H312.593V257H309.625V244.176H307.077V242.776L309.625 241.852V240.9C309.625 239.612 309.821 238.585 310.213 237.82C310.624 237.036 311.202 236.467 311.949 236.112C312.696 235.757 313.601 235.58 314.665 235.58C315.318 235.58 315.916 235.636 316.457 235.748C316.998 235.86 317.456 235.981 317.829 236.112L317.073 238.38C316.774 238.287 316.429 238.203 316.037 238.128C315.645 238.035 315.234 237.988 314.805 237.988C314.058 237.988 313.498 238.231 313.125 238.716C312.77 239.201 312.593 239.939 312.593 240.928V241.908H316.317V244.176ZM332.261 249.44C332.261 250.691 332.093 251.801 331.757 252.772C331.421 253.743 330.945 254.564 330.329 255.236C329.713 255.908 328.966 256.421 328.089 256.776C327.211 257.112 326.222 257.28 325.121 257.28C324.113 257.28 323.179 257.112 322.321 256.776C321.462 256.421 320.715 255.908 320.081 255.236C319.465 254.564 318.979 253.743 318.625 252.772C318.27 251.801 318.093 250.681 318.093 249.412C318.093 247.751 318.373 246.341 318.933 245.184C319.511 244.027 320.333 243.149 321.397 242.552C322.479 241.936 323.749 241.628 325.205 241.628C326.586 241.628 327.799 241.936 328.845 242.552C329.909 243.149 330.739 244.027 331.337 245.184C331.953 246.341 332.261 247.76 332.261 249.44ZM321.145 249.44C321.145 250.56 321.285 251.531 321.565 252.352C321.845 253.155 322.283 253.771 322.881 254.2C323.478 254.629 324.243 254.844 325.177 254.844C326.11 254.844 326.875 254.629 327.473 254.2C328.07 253.771 328.509 253.155 328.789 252.352C329.069 251.531 329.209 250.56 329.209 249.44C329.209 248.283 329.059 247.312 328.761 246.528C328.481 245.744 328.042 245.147 327.445 244.736C326.866 244.307 326.101 244.092 325.149 244.092C323.749 244.092 322.731 244.559 322.097 245.492C321.462 246.425 321.145 247.741 321.145 249.44ZM343.471 241.628C343.733 241.628 344.022 241.647 344.339 241.684C344.657 241.703 344.918 241.731 345.123 241.768L344.815 244.54C344.61 244.484 344.367 244.437 344.087 244.4C343.807 244.363 343.546 244.344 343.303 244.344C342.743 244.344 342.202 244.456 341.679 244.68C341.175 244.885 340.718 245.193 340.307 245.604C339.897 245.996 339.57 246.481 339.327 247.06C339.103 247.639 338.991 248.301 338.991 249.048V257H336.023V241.908H338.375L338.767 244.596H338.879C339.197 244.055 339.579 243.56 340.027 243.112C340.475 242.664 340.989 242.309 341.567 242.048C342.146 241.768 342.781 241.628 343.471 241.628ZM364.83 241.628C366.528 241.628 367.807 242.067 368.666 242.944C369.524 243.821 369.954 245.231 369.954 247.172V257H366.986V247.564C366.986 246.407 366.752 245.539 366.286 244.96C365.838 244.363 365.128 244.064 364.158 244.064C362.814 244.064 361.852 244.484 361.274 245.324C360.695 246.145 360.406 247.34 360.406 248.908V257H357.466V247.564C357.466 246.799 357.354 246.155 357.13 245.632C356.924 245.109 356.616 244.717 356.206 244.456C355.795 244.195 355.263 244.064 354.61 244.064C353.676 244.064 352.939 244.269 352.398 244.68C351.856 245.091 351.464 245.697 351.222 246.5C350.998 247.284 350.886 248.245 350.886 249.384V257H347.918V241.908H350.27L350.69 243.924H350.858C351.175 243.401 351.558 242.972 352.006 242.636C352.472 242.3 352.986 242.048 353.546 241.88C354.106 241.712 354.684 241.628 355.282 241.628C356.42 241.628 357.382 241.833 358.166 242.244C358.95 242.636 359.519 243.243 359.874 244.064H360.098C360.583 243.224 361.255 242.608 362.114 242.216C362.972 241.824 363.878 241.628 364.83 241.628ZM377.8 254.06C377.632 254.713 377.417 255.423 377.156 256.188C376.895 256.953 376.615 257.709 376.316 258.456C376.017 259.221 375.709 259.94 375.392 260.612H373.236C373.423 259.884 373.6 259.109 373.768 258.288C373.955 257.485 374.123 256.692 374.272 255.908C374.421 255.124 374.543 254.405 374.636 253.752H377.604L377.8 254.06ZM396.874 241.628C397.135 241.628 397.424 241.647 397.742 241.684C398.059 241.703 398.32 241.731 398.526 241.768L398.218 244.54C398.012 244.484 397.77 244.437 397.49 244.4C397.21 244.363 396.948 244.344 396.706 244.344C396.146 244.344 395.604 244.456 395.082 244.68C394.578 244.885 394.12 245.193 393.71 245.604C393.299 245.996 392.972 246.481 392.73 247.06C392.506 247.639 392.394 248.301 392.394 249.048V257H389.426V241.908H391.778L392.17 244.596H392.282C392.599 244.055 392.982 243.56 393.43 243.112C393.878 242.664 394.391 242.309 394.97 242.048C395.548 241.768 396.183 241.628 396.874 241.628ZM406.709 241.628C408.035 241.628 409.173 241.908 410.125 242.468C411.077 243.009 411.805 243.793 412.309 244.82C412.832 245.847 413.093 247.06 413.093 248.46V250.084H402.957C402.995 251.633 403.396 252.819 404.161 253.64C404.945 254.461 406.037 254.872 407.437 254.872C408.408 254.872 409.267 254.788 410.013 254.62C410.779 254.433 411.563 254.163 412.365 253.808V256.272C411.619 256.608 410.853 256.86 410.069 257.028C409.304 257.196 408.389 257.28 407.325 257.28C405.869 257.28 404.581 256.991 403.461 256.412C402.341 255.833 401.464 254.975 400.829 253.836C400.213 252.679 399.905 251.26 399.905 249.58C399.905 247.881 400.185 246.444 400.745 245.268C401.324 244.092 402.117 243.196 403.125 242.58C404.152 241.945 405.347 241.628 406.709 241.628ZM406.709 243.924C405.645 243.924 404.787 244.269 404.133 244.96C403.499 245.651 403.125 246.631 403.013 247.9H410.125C410.125 247.116 410.004 246.425 409.761 245.828C409.519 245.231 409.145 244.764 408.641 244.428C408.137 244.092 407.493 243.924 406.709 243.924ZM426.821 252.744C426.821 253.733 426.578 254.564 426.093 255.236C425.607 255.908 424.907 256.421 423.993 256.776C423.078 257.112 421.977 257.28 420.689 257.28C419.625 257.28 418.71 257.196 417.945 257.028C417.198 256.879 416.507 256.655 415.873 256.356V253.752C416.545 254.069 417.319 254.359 418.197 254.62C419.074 254.863 419.933 254.984 420.773 254.984C421.893 254.984 422.695 254.807 423.181 254.452C423.685 254.097 423.937 253.621 423.937 253.024C423.937 252.688 423.843 252.389 423.657 252.128C423.47 251.848 423.115 251.568 422.593 251.288C422.089 250.989 421.342 250.653 420.353 250.28C419.401 249.888 418.589 249.505 417.917 249.132C417.245 248.74 416.731 248.283 416.377 247.76C416.022 247.219 415.845 246.528 415.845 245.688C415.845 244.381 416.367 243.383 417.413 242.692C418.477 241.983 419.877 241.628 421.613 241.628C422.527 241.628 423.386 241.721 424.189 241.908C425.01 242.076 425.803 242.337 426.569 242.692L425.589 244.96C425.159 244.755 424.711 244.587 424.245 244.456C423.797 244.307 423.339 244.185 422.873 244.092C422.425 243.999 421.958 243.952 421.473 243.952C420.577 243.952 419.895 244.092 419.429 244.372C418.962 244.652 418.729 245.044 418.729 245.548C418.729 245.903 418.831 246.211 419.037 246.472C419.261 246.733 419.643 246.995 420.185 247.256C420.726 247.517 421.463 247.835 422.397 248.208C423.33 248.563 424.123 248.927 424.777 249.3C425.449 249.673 425.953 250.131 426.289 250.672C426.643 251.213 426.821 251.904 426.821 252.744ZM433.327 241.404C433.327 241.871 433.308 242.337 433.271 242.804C433.234 243.271 433.196 243.653 433.159 243.952H433.355C433.672 243.429 434.064 243 434.531 242.664C435.016 242.328 435.548 242.076 436.127 241.908C436.724 241.74 437.331 241.656 437.947 241.656C439.142 241.656 440.14 241.852 440.943 242.244C441.764 242.617 442.38 243.215 442.791 244.036C443.22 244.839 443.435 245.884 443.435 247.172V257H440.495V247.592C440.495 246.416 440.243 245.539 439.739 244.96C439.254 244.363 438.47 244.064 437.387 244.064C436.36 244.064 435.548 244.269 434.951 244.68C434.372 245.091 433.952 245.697 433.691 246.5C433.448 247.284 433.327 248.255 433.327 249.412V257H430.359V235.72H433.327V241.404ZM453.848 241.628C455.752 241.628 457.171 242.048 458.104 242.888C459.037 243.709 459.504 245.007 459.504 246.78V257H457.404L456.816 254.9H456.704C456.275 255.441 455.827 255.889 455.36 256.244C454.912 256.599 454.389 256.86 453.792 257.028C453.213 257.196 452.504 257.28 451.664 257.28C450.768 257.28 449.956 257.121 449.228 256.804C448.519 256.468 447.959 255.964 447.548 255.292C447.137 254.601 446.932 253.743 446.932 252.716C446.932 251.185 447.511 250.019 448.668 249.216C449.844 248.413 451.627 247.975 454.016 247.9L456.592 247.816V246.976C456.592 245.856 456.34 245.072 455.836 244.624C455.332 244.176 454.623 243.952 453.708 243.952C452.924 243.952 452.177 244.064 451.468 244.288C450.759 244.512 450.087 244.783 449.452 245.1L448.5 242.944C449.209 242.571 450.021 242.263 450.936 242.02C451.869 241.759 452.84 241.628 453.848 241.628ZM454.548 249.804C452.831 249.879 451.636 250.168 450.964 250.672C450.311 251.157 449.984 251.848 449.984 252.744C449.984 253.528 450.217 254.097 450.684 254.452C451.169 254.807 451.776 254.984 452.504 254.984C453.68 254.984 454.651 254.657 455.416 254.004C456.181 253.351 456.564 252.371 456.564 251.064V249.748L454.548 249.804ZM471.606 241.628C473.417 241.628 474.873 242.281 475.974 243.588C477.094 244.895 477.654 246.845 477.654 249.44C477.654 251.139 477.402 252.576 476.898 253.752C476.394 254.928 475.685 255.815 474.77 256.412C473.855 256.991 472.791 257.28 471.578 257.28C470.813 257.28 470.141 257.187 469.562 257C468.983 256.795 468.489 256.533 468.078 256.216C467.686 255.88 467.341 255.525 467.042 255.152H466.846C466.902 255.488 466.949 255.889 466.986 256.356C467.023 256.804 467.042 257.205 467.042 257.56V263.72H464.074V241.908H466.482L466.902 243.924H467.042C467.341 243.513 467.695 243.131 468.106 242.776C468.517 242.421 469.011 242.141 469.59 241.936C470.169 241.731 470.841 241.628 471.606 241.628ZM470.906 244.064C469.973 244.064 469.226 244.251 468.666 244.624C468.106 244.979 467.695 245.52 467.434 246.248C467.191 246.957 467.061 247.863 467.042 248.964V249.412C467.042 250.569 467.163 251.559 467.406 252.38C467.649 253.183 468.05 253.799 468.61 254.228C469.189 254.639 469.973 254.844 470.962 254.844C471.802 254.844 472.483 254.62 473.006 254.172C473.547 253.705 473.949 253.061 474.21 252.24C474.471 251.419 474.602 250.467 474.602 249.384C474.602 247.741 474.303 246.444 473.706 245.492C473.109 244.54 472.175 244.064 470.906 244.064ZM484.405 241.908V257H481.437V241.908H484.405ZM482.949 236.168C483.397 236.168 483.789 236.299 484.125 236.56C484.461 236.821 484.629 237.26 484.629 237.876C484.629 238.473 484.461 238.912 484.125 239.192C483.789 239.453 483.397 239.584 482.949 239.584C482.464 239.584 482.053 239.453 481.717 239.192C481.4 238.912 481.241 238.473 481.241 237.876C481.241 237.26 481.4 236.821 481.717 236.56C482.053 236.299 482.464 236.168 482.949 236.168ZM496.71 241.628C498.465 241.628 499.809 242.067 500.742 242.944C501.676 243.821 502.142 245.231 502.142 247.172V257H499.202V247.592C499.202 246.416 498.95 245.539 498.446 244.96C497.961 244.363 497.177 244.064 496.094 244.064C494.564 244.064 493.5 244.521 492.902 245.436C492.324 246.351 492.034 247.667 492.034 249.384V257H489.066V241.908H491.418L491.838 243.924H492.006C492.342 243.401 492.753 242.972 493.238 242.636C493.724 242.3 494.265 242.048 494.862 241.88C495.46 241.712 496.076 241.628 496.71 241.628ZM511.911 241.628C512.882 241.628 513.759 241.815 514.543 242.188C515.327 242.561 515.99 243.131 516.531 243.896H516.671L517.007 241.908H519.415V257.196C519.415 258.615 519.163 259.809 518.659 260.78C518.155 261.751 517.38 262.479 516.335 262.964C515.308 263.468 514.011 263.72 512.443 263.72C511.36 263.72 510.362 263.645 509.447 263.496C508.532 263.347 507.692 263.113 506.927 262.796V260.192C507.468 260.453 508.038 260.668 508.635 260.836C509.232 261.023 509.867 261.153 510.539 261.228C511.211 261.321 511.902 261.368 512.611 261.368C513.843 261.368 514.795 261.013 515.467 260.304C516.139 259.613 516.475 258.633 516.475 257.364V256.86C516.475 256.617 516.484 256.3 516.503 255.908C516.522 255.497 516.54 255.199 516.559 255.012H516.447C515.924 255.796 515.28 256.375 514.515 256.748C513.768 257.103 512.9 257.28 511.911 257.28C510.007 257.28 508.514 256.599 507.431 255.236C506.367 253.855 505.835 251.941 505.835 249.496C505.835 247.853 506.078 246.453 506.563 245.296C507.048 244.12 507.739 243.215 508.635 242.58C509.55 241.945 510.642 241.628 511.911 241.628ZM512.527 244.092C511.743 244.092 511.08 244.307 510.539 244.736C509.998 245.147 509.587 245.753 509.307 246.556C509.027 247.359 508.887 248.348 508.887 249.524C508.887 251.279 509.195 252.613 509.811 253.528C510.446 254.443 511.37 254.9 512.583 254.9C513.292 254.9 513.89 254.807 514.375 254.62C514.879 254.433 515.29 254.144 515.607 253.752C515.943 253.36 516.186 252.865 516.335 252.268C516.503 251.652 516.587 250.915 516.587 250.056V249.496C516.587 248.208 516.438 247.172 516.139 246.388C515.859 245.585 515.42 245.007 514.823 244.652C514.226 244.279 513.46 244.092 512.527 244.092ZM287.848 292.872C288.24 292.872 288.641 292.835 289.052 292.76C289.462 292.685 289.817 292.601 290.116 292.508V294.748C289.798 294.897 289.369 295.019 288.828 295.112C288.286 295.224 287.745 295.28 287.204 295.28C286.382 295.28 285.626 295.14 284.936 294.86C284.264 294.58 283.722 294.095 283.312 293.404C282.901 292.713 282.696 291.752 282.696 290.52V282.176H280.596V280.832L282.808 279.712L283.844 276.52H285.664V279.908H289.976V282.176H285.664V290.464C285.664 291.285 285.86 291.892 286.252 292.284C286.662 292.676 287.194 292.872 287.848 292.872ZM296.103 279.404C296.103 279.871 296.084 280.337 296.047 280.804C296.009 281.271 295.972 281.653 295.935 281.952H296.131C296.448 281.429 296.84 281 297.307 280.664C297.792 280.328 298.324 280.076 298.903 279.908C299.5 279.74 300.107 279.656 300.723 279.656C301.917 279.656 302.916 279.852 303.719 280.244C304.54 280.617 305.156 281.215 305.567 282.036C305.996 282.839 306.211 283.884 306.211 285.172V295H303.271V285.592C303.271 284.416 303.019 283.539 302.515 282.96C302.029 282.363 301.245 282.064 300.163 282.064C299.136 282.064 298.324 282.269 297.727 282.68C297.148 283.091 296.728 283.697 296.467 284.5C296.224 285.284 296.103 286.255 296.103 287.412V295H293.135V273.72H296.103V279.404ZM316.707 279.628C318.033 279.628 319.171 279.908 320.123 280.468C321.075 281.009 321.803 281.793 322.307 282.82C322.83 283.847 323.091 285.06 323.091 286.46V288.084H312.955C312.993 289.633 313.394 290.819 314.159 291.64C314.943 292.461 316.035 292.872 317.435 292.872C318.406 292.872 319.265 292.788 320.011 292.62C320.777 292.433 321.561 292.163 322.363 291.808V294.272C321.617 294.608 320.851 294.86 320.067 295.028C319.302 295.196 318.387 295.28 317.323 295.28C315.867 295.28 314.579 294.991 313.459 294.412C312.339 293.833 311.462 292.975 310.827 291.836C310.211 290.679 309.903 289.26 309.903 287.58C309.903 285.881 310.183 284.444 310.743 283.268C311.322 282.092 312.115 281.196 313.123 280.58C314.15 279.945 315.345 279.628 316.707 279.628ZM316.707 281.924C315.643 281.924 314.785 282.269 314.131 282.96C313.497 283.651 313.123 284.631 313.011 285.9H320.123C320.123 285.116 320.002 284.425 319.759 283.828C319.517 283.231 319.143 282.764 318.639 282.428C318.135 282.092 317.491 281.924 316.707 281.924ZM344.092 290.744C344.092 291.733 343.849 292.564 343.364 293.236C342.879 293.908 342.179 294.421 341.264 294.776C340.349 295.112 339.248 295.28 337.96 295.28C336.896 295.28 335.981 295.196 335.216 295.028C334.469 294.879 333.779 294.655 333.144 294.356V291.752C333.816 292.069 334.591 292.359 335.468 292.62C336.345 292.863 337.204 292.984 338.044 292.984C339.164 292.984 339.967 292.807 340.452 292.452C340.956 292.097 341.208 291.621 341.208 291.024C341.208 290.688 341.115 290.389 340.928 290.128C340.741 289.848 340.387 289.568 339.864 289.288C339.36 288.989 338.613 288.653 337.624 288.28C336.672 287.888 335.86 287.505 335.188 287.132C334.516 286.74 334.003 286.283 333.648 285.76C333.293 285.219 333.116 284.528 333.116 283.688C333.116 282.381 333.639 281.383 334.684 280.692C335.748 279.983 337.148 279.628 338.884 279.628C339.799 279.628 340.657 279.721 341.46 279.908C342.281 280.076 343.075 280.337 343.84 280.692L342.86 282.96C342.431 282.755 341.983 282.587 341.516 282.456C341.068 282.307 340.611 282.185 340.144 282.092C339.696 281.999 339.229 281.952 338.744 281.952C337.848 281.952 337.167 282.092 336.7 282.372C336.233 282.652 336 283.044 336 283.548C336 283.903 336.103 284.211 336.308 284.472C336.532 284.733 336.915 284.995 337.456 285.256C337.997 285.517 338.735 285.835 339.668 286.208C340.601 286.563 341.395 286.927 342.048 287.3C342.72 287.673 343.224 288.131 343.56 288.672C343.915 289.213 344.092 289.904 344.092 290.744ZM353.707 295.28C352.325 295.28 351.112 295.009 350.067 294.468C349.021 293.927 348.209 293.087 347.631 291.948C347.052 290.791 346.763 289.325 346.763 287.552C346.763 285.685 347.071 284.173 347.687 283.016C348.321 281.859 349.171 281.009 350.235 280.468C351.317 279.908 352.549 279.628 353.931 279.628C354.771 279.628 355.555 279.721 356.283 279.908C357.029 280.076 357.645 280.272 358.131 280.496L357.235 282.904C356.712 282.699 356.152 282.521 355.555 282.372C354.976 282.223 354.425 282.148 353.903 282.148C352.969 282.148 352.195 282.353 351.579 282.764C350.981 283.156 350.533 283.753 350.235 284.556C349.955 285.34 349.815 286.329 349.815 287.524C349.815 288.663 349.964 289.624 350.263 290.408C350.561 291.192 351 291.789 351.579 292.2C352.176 292.592 352.913 292.788 353.791 292.788C354.631 292.788 355.368 292.695 356.003 292.508C356.637 292.321 357.235 292.079 357.795 291.78V294.356C357.253 294.673 356.665 294.907 356.031 295.056C355.396 295.205 354.621 295.28 353.707 295.28ZM364.325 279.404C364.325 279.871 364.307 280.337 364.269 280.804C364.232 281.271 364.195 281.653 364.157 281.952H364.353C364.671 281.429 365.063 281 365.529 280.664C366.015 280.328 366.547 280.076 367.125 279.908C367.723 279.74 368.329 279.656 368.945 279.656C370.14 279.656 371.139 279.852 371.941 280.244C372.763 280.617 373.379 281.215 373.789 282.036C374.219 282.839 374.433 283.884 374.433 285.172V295H371.493V285.592C371.493 284.416 371.241 283.539 370.737 282.96C370.252 282.363 369.468 282.064 368.385 282.064C367.359 282.064 366.547 282.269 365.949 282.68C365.371 283.091 364.951 283.697 364.689 284.5C364.447 285.284 364.325 286.255 364.325 287.412V295H361.357V273.72H364.325V279.404ZM392.294 287.44C392.294 288.691 392.126 289.801 391.79 290.772C391.454 291.743 390.978 292.564 390.362 293.236C389.746 293.908 388.999 294.421 388.122 294.776C387.245 295.112 386.255 295.28 385.154 295.28C384.146 295.28 383.213 295.112 382.354 294.776C381.495 294.421 380.749 293.908 380.114 293.236C379.498 292.564 379.013 291.743 378.658 290.772C378.303 289.801 378.126 288.681 378.126 287.412C378.126 285.751 378.406 284.341 378.966 283.184C379.545 282.027 380.366 281.149 381.43 280.552C382.513 279.936 383.782 279.628 385.238 279.628C386.619 279.628 387.833 279.936 388.878 280.552C389.942 281.149 390.773 282.027 391.37 283.184C391.986 284.341 392.294 285.76 392.294 287.44ZM381.178 287.44C381.178 288.56 381.318 289.531 381.598 290.352C381.878 291.155 382.317 291.771 382.914 292.2C383.511 292.629 384.277 292.844 385.21 292.844C386.143 292.844 386.909 292.629 387.506 292.2C388.103 291.771 388.542 291.155 388.822 290.352C389.102 289.531 389.242 288.56 389.242 287.44C389.242 286.283 389.093 285.312 388.794 284.528C388.514 283.744 388.075 283.147 387.478 282.736C386.899 282.307 386.134 282.092 385.182 282.092C383.782 282.092 382.765 282.559 382.13 283.492C381.495 284.425 381.178 285.741 381.178 287.44ZM409.356 287.44C409.356 288.691 409.188 289.801 408.852 290.772C408.516 291.743 408.04 292.564 407.424 293.236C406.808 293.908 406.062 294.421 405.184 294.776C404.307 295.112 403.318 295.28 402.216 295.28C401.208 295.28 400.275 295.112 399.416 294.776C398.558 294.421 397.811 293.908 397.176 293.236C396.56 292.564 396.075 291.743 395.72 290.772C395.366 289.801 395.188 288.681 395.188 287.412C395.188 285.751 395.468 284.341 396.028 283.184C396.607 282.027 397.428 281.149 398.492 280.552C399.575 279.936 400.844 279.628 402.3 279.628C403.682 279.628 404.895 279.936 405.94 280.552C407.004 281.149 407.835 282.027 408.432 283.184C409.048 284.341 409.356 285.76 409.356 287.44ZM398.24 287.44C398.24 288.56 398.38 289.531 398.66 290.352C398.94 291.155 399.379 291.771 399.976 292.2C400.574 292.629 401.339 292.844 402.272 292.844C403.206 292.844 403.971 292.629 404.568 292.2C405.166 291.771 405.604 291.155 405.884 290.352C406.164 289.531 406.304 288.56 406.304 287.44C406.304 286.283 406.155 285.312 405.856 284.528C405.576 283.744 405.138 283.147 404.54 282.736C403.962 282.307 403.196 282.092 402.244 282.092C400.844 282.092 399.827 282.559 399.192 283.492C398.558 284.425 398.24 285.741 398.24 287.44ZM416.087 295H413.119V273.72H416.087V295ZM438.045 290.744C438.045 291.733 437.803 292.564 437.317 293.236C436.832 293.908 436.132 294.421 435.217 294.776C434.303 295.112 433.201 295.28 431.913 295.28C430.849 295.28 429.935 295.196 429.169 295.028C428.423 294.879 427.732 294.655 427.097 294.356V291.752C427.769 292.069 428.544 292.359 429.421 292.62C430.299 292.863 431.157 292.984 431.997 292.984C433.117 292.984 433.92 292.807 434.405 292.452C434.909 292.097 435.161 291.621 435.161 291.024C435.161 290.688 435.068 290.389 434.881 290.128C434.695 289.848 434.34 289.568 433.817 289.288C433.313 288.989 432.567 288.653 431.577 288.28C430.625 287.888 429.813 287.505 429.141 287.132C428.469 286.74 427.956 286.283 427.601 285.76C427.247 285.219 427.069 284.528 427.069 283.688C427.069 282.381 427.592 281.383 428.637 280.692C429.701 279.983 431.101 279.628 432.837 279.628C433.752 279.628 434.611 279.721 435.413 279.908C436.235 280.076 437.028 280.337 437.793 280.692L436.813 282.96C436.384 282.755 435.936 282.587 435.469 282.456C435.021 282.307 434.564 282.185 434.097 282.092C433.649 281.999 433.183 281.952 432.697 281.952C431.801 281.952 431.12 282.092 430.653 282.372C430.187 282.652 429.953 283.044 429.953 283.548C429.953 283.903 430.056 284.211 430.261 284.472C430.485 284.733 430.868 284.995 431.409 285.256C431.951 285.517 432.688 285.835 433.621 286.208C434.555 286.563 435.348 286.927 436.001 287.3C436.673 287.673 437.177 288.131 437.513 288.672C437.868 289.213 438.045 289.904 438.045 290.744ZM439.288 279.908H442.48L445.616 288.476C445.784 288.905 445.933 289.325 446.064 289.736C446.194 290.147 446.306 290.557 446.4 290.968C446.512 291.36 446.596 291.752 446.652 292.144H446.764C446.857 291.659 447.006 291.089 447.212 290.436C447.417 289.764 447.632 289.101 447.856 288.448L450.824 279.908H454.016L447.548 297.044C447.193 298.015 446.754 298.845 446.232 299.536C445.709 300.245 445.084 300.787 444.356 301.16C443.646 301.533 442.806 301.72 441.836 301.72C441.369 301.72 440.968 301.692 440.632 301.636C440.296 301.599 440.006 301.552 439.764 301.496V299.144C439.969 299.181 440.212 299.219 440.492 299.256C440.79 299.293 441.098 299.312 441.416 299.312C441.994 299.312 442.489 299.2 442.9 298.976C443.329 298.752 443.684 298.435 443.964 298.024C444.262 297.613 444.514 297.147 444.72 296.624L445.336 295L439.288 279.908ZM466.373 290.744C466.373 291.733 466.131 292.564 465.645 293.236C465.16 293.908 464.46 294.421 463.545 294.776C462.631 295.112 461.529 295.28 460.241 295.28C459.177 295.28 458.263 295.196 457.497 295.028C456.751 294.879 456.06 294.655 455.425 294.356V291.752C456.097 292.069 456.872 292.359 457.749 292.62C458.627 292.863 459.485 292.984 460.325 292.984C461.445 292.984 462.248 292.807 462.733 292.452C463.237 292.097 463.489 291.621 463.489 291.024C463.489 290.688 463.396 290.389 463.209 290.128C463.023 289.848 462.668 289.568 462.145 289.288C461.641 288.989 460.895 288.653 459.905 288.28C458.953 287.888 458.141 287.505 457.469 287.132C456.797 286.74 456.284 286.283 455.929 285.76C455.575 285.219 455.397 284.528 455.397 283.688C455.397 282.381 455.92 281.383 456.965 280.692C458.029 279.983 459.429 279.628 461.165 279.628C462.08 279.628 462.939 279.721 463.741 279.908C464.563 280.076 465.356 280.337 466.121 280.692L465.141 282.96C464.712 282.755 464.264 282.587 463.797 282.456C463.349 282.307 462.892 282.185 462.425 282.092C461.977 281.999 461.511 281.952 461.025 281.952C460.129 281.952 459.448 282.092 458.981 282.372C458.515 282.652 458.281 283.044 458.281 283.548C458.281 283.903 458.384 284.211 458.589 284.472C458.813 284.733 459.196 284.995 459.737 285.256C460.279 285.517 461.016 285.835 461.949 286.208C462.883 286.563 463.676 286.927 464.329 287.3C465.001 287.673 465.505 288.131 465.841 288.672C466.196 289.213 466.373 289.904 466.373 290.744ZM475.344 292.872C475.736 292.872 476.137 292.835 476.548 292.76C476.959 292.685 477.313 292.601 477.612 292.508V294.748C477.295 294.897 476.865 295.019 476.324 295.112C475.783 295.224 475.241 295.28 474.7 295.28C473.879 295.28 473.123 295.14 472.432 294.86C471.76 294.58 471.219 294.095 470.808 293.404C470.397 292.713 470.192 291.752 470.192 290.52V282.176H468.092V280.832L470.304 279.712L471.34 276.52H473.16V279.908H477.472V282.176H473.16V290.464C473.16 291.285 473.356 291.892 473.748 292.284C474.159 292.676 474.691 292.872 475.344 292.872ZM486.567 279.628C487.892 279.628 489.031 279.908 489.983 280.468C490.935 281.009 491.663 281.793 492.167 282.82C492.689 283.847 492.951 285.06 492.951 286.46V288.084H482.815C482.852 289.633 483.253 290.819 484.019 291.64C484.803 292.461 485.895 292.872 487.295 292.872C488.265 292.872 489.124 292.788 489.871 292.62C490.636 292.433 491.42 292.163 492.223 291.808V294.272C491.476 294.608 490.711 294.86 489.927 295.028C489.161 295.196 488.247 295.28 487.183 295.28C485.727 295.28 484.439 294.991 483.319 294.412C482.199 293.833 481.321 292.975 480.687 291.836C480.071 290.679 479.763 289.26 479.763 287.58C479.763 285.881 480.043 284.444 480.603 283.268C481.181 282.092 481.975 281.196 482.983 280.58C484.009 279.945 485.204 279.628 486.567 279.628ZM486.567 281.924C485.503 281.924 484.644 282.269 483.991 282.96C483.356 283.651 482.983 284.631 482.871 285.9H489.983C489.983 285.116 489.861 284.425 489.619 283.828C489.376 283.231 489.003 282.764 488.499 282.428C487.995 282.092 487.351 281.924 486.567 281.924ZM513.566 279.628C515.265 279.628 516.543 280.067 517.402 280.944C518.261 281.821 518.69 283.231 518.69 285.172V295H515.722V285.564C515.722 284.407 515.489 283.539 515.022 282.96C514.574 282.363 513.865 282.064 512.894 282.064C511.55 282.064 510.589 282.484 510.01 283.324C509.431 284.145 509.142 285.34 509.142 286.908V295H506.202V285.564C506.202 284.799 506.09 284.155 505.866 283.632C505.661 283.109 505.353 282.717 504.942 282.456C504.531 282.195 503.999 282.064 503.346 282.064C502.413 282.064 501.675 282.269 501.134 282.68C500.593 283.091 500.201 283.697 499.958 284.5C499.734 285.284 499.622 286.245 499.622 287.384V295H496.654V279.908H499.006L499.426 281.924H499.594C499.911 281.401 500.294 280.972 500.742 280.636C501.209 280.3 501.722 280.048 502.282 279.88C502.842 279.712 503.421 279.628 504.018 279.628C505.157 279.628 506.118 279.833 506.902 280.244C507.686 280.636 508.255 281.243 508.61 282.064H508.834C509.319 281.224 509.991 280.608 510.85 280.216C511.709 279.824 512.614 279.628 513.566 279.628ZM330.162 330.872C330.554 330.872 330.956 330.835 331.366 330.76C331.777 330.685 332.132 330.601 332.43 330.508V332.748C332.113 332.897 331.684 333.019 331.142 333.112C330.601 333.224 330.06 333.28 329.518 333.28C328.697 333.28 327.941 333.14 327.25 332.86C326.578 332.58 326.037 332.095 325.626 331.404C325.216 330.713 325.01 329.752 325.01 328.52V320.176H322.91V318.832L325.122 317.712L326.158 314.52H327.978V317.908H332.29V320.176H327.978V328.464C327.978 329.285 328.174 329.892 328.566 330.284C328.977 330.676 329.509 330.872 330.162 330.872ZM348.749 325.44C348.749 326.691 348.581 327.801 348.245 328.772C347.909 329.743 347.433 330.564 346.817 331.236C346.201 331.908 345.454 332.421 344.577 332.776C343.7 333.112 342.71 333.28 341.609 333.28C340.601 333.28 339.668 333.112 338.809 332.776C337.95 332.421 337.204 331.908 336.569 331.236C335.953 330.564 335.468 329.743 335.113 328.772C334.758 327.801 334.581 326.681 334.581 325.412C334.581 323.751 334.861 322.341 335.421 321.184C336 320.027 336.821 319.149 337.885 318.552C338.968 317.936 340.237 317.628 341.693 317.628C343.074 317.628 344.288 317.936 345.333 318.552C346.397 319.149 347.228 320.027 347.825 321.184C348.441 322.341 348.749 323.76 348.749 325.44ZM337.633 325.44C337.633 326.56 337.773 327.531 338.053 328.352C338.333 329.155 338.772 329.771 339.369 330.2C339.966 330.629 340.732 330.844 341.665 330.844C342.598 330.844 343.364 330.629 343.961 330.2C344.558 329.771 344.997 329.155 345.277 328.352C345.557 327.531 345.697 326.56 345.697 325.44C345.697 324.283 345.548 323.312 345.249 322.528C344.969 321.744 344.53 321.147 343.933 320.736C343.354 320.307 342.589 320.092 341.637 320.092C340.237 320.092 339.22 320.559 338.585 321.492C337.95 322.425 337.633 323.741 337.633 325.44ZM367.317 317.628C369.128 317.628 370.584 318.281 371.685 319.588C372.805 320.895 373.365 322.845 373.365 325.44C373.365 327.139 373.113 328.576 372.609 329.752C372.105 330.928 371.396 331.815 370.481 332.412C369.566 332.991 368.502 333.28 367.289 333.28C366.524 333.28 365.852 333.187 365.273 333C364.694 332.795 364.2 332.533 363.789 332.216C363.397 331.88 363.052 331.525 362.753 331.152H362.557C362.613 331.488 362.66 331.889 362.697 332.356C362.734 332.804 362.753 333.205 362.753 333.56V339.72H359.785V317.908H362.193L362.613 319.924H362.753C363.052 319.513 363.406 319.131 363.817 318.776C364.228 318.421 364.722 318.141 365.301 317.936C365.88 317.731 366.552 317.628 367.317 317.628ZM366.617 320.064C365.684 320.064 364.937 320.251 364.377 320.624C363.817 320.979 363.406 321.52 363.145 322.248C362.902 322.957 362.772 323.863 362.753 324.964V325.412C362.753 326.569 362.874 327.559 363.117 328.38C363.36 329.183 363.761 329.799 364.321 330.228C364.9 330.639 365.684 330.844 366.673 330.844C367.513 330.844 368.194 330.62 368.717 330.172C369.258 329.705 369.66 329.061 369.921 328.24C370.182 327.419 370.313 326.467 370.313 325.384C370.313 323.741 370.014 322.444 369.417 321.492C368.82 320.54 367.886 320.064 366.617 320.064ZM384.596 317.628C384.858 317.628 385.147 317.647 385.464 317.684C385.782 317.703 386.043 317.731 386.248 317.768L385.94 320.54C385.735 320.484 385.492 320.437 385.212 320.4C384.932 320.363 384.671 320.344 384.428 320.344C383.868 320.344 383.327 320.456 382.804 320.68C382.3 320.885 381.843 321.193 381.432 321.604C381.022 321.996 380.695 322.481 380.452 323.06C380.228 323.639 380.116 324.301 380.116 325.048V333H377.148V317.908H379.5L379.892 320.596H380.004C380.322 320.055 380.704 319.56 381.152 319.112C381.6 318.664 382.114 318.309 382.692 318.048C383.271 317.768 383.906 317.628 384.596 317.628ZM392.011 317.908V333H389.043V317.908H392.011ZM390.555 312.168C391.003 312.168 391.395 312.299 391.731 312.56C392.067 312.821 392.235 313.26 392.235 313.876C392.235 314.473 392.067 314.912 391.731 315.192C391.395 315.453 391.003 315.584 390.555 315.584C390.069 315.584 389.659 315.453 389.323 315.192C389.005 314.912 388.847 314.473 388.847 313.876C388.847 313.26 389.005 312.821 389.323 312.56C389.659 312.299 390.069 312.168 390.555 312.168ZM409.972 325.44C409.972 326.691 409.804 327.801 409.468 328.772C409.132 329.743 408.656 330.564 408.04 331.236C407.424 331.908 406.677 332.421 405.8 332.776C404.922 333.112 403.933 333.28 402.832 333.28C401.824 333.28 400.89 333.112 400.032 332.776C399.173 332.421 398.426 331.908 397.792 331.236C397.176 330.564 396.69 329.743 396.336 328.772C395.981 327.801 395.804 326.681 395.804 325.412C395.804 323.751 396.084 322.341 396.644 321.184C397.222 320.027 398.044 319.149 399.108 318.552C400.19 317.936 401.46 317.628 402.916 317.628C404.297 317.628 405.51 317.936 406.556 318.552C407.62 319.149 408.45 320.027 409.048 321.184C409.664 322.341 409.972 323.76 409.972 325.44ZM398.856 325.44C398.856 326.56 398.996 327.531 399.276 328.352C399.556 329.155 399.994 329.771 400.592 330.2C401.189 330.629 401.954 330.844 402.888 330.844C403.821 330.844 404.586 330.629 405.184 330.2C405.781 329.771 406.22 329.155 406.5 328.352C406.78 327.531 406.92 326.56 406.92 325.44C406.92 324.283 406.77 323.312 406.472 322.528C406.192 321.744 405.753 321.147 405.156 320.736C404.577 320.307 403.812 320.092 402.86 320.092C401.46 320.092 400.442 320.559 399.808 321.492C399.173 322.425 398.856 323.741 398.856 325.44ZM421.182 317.628C421.443 317.628 421.733 317.647 422.05 317.684C422.367 317.703 422.629 317.731 422.834 317.768L422.526 320.54C422.321 320.484 422.078 320.437 421.798 320.4C421.518 320.363 421.257 320.344 421.014 320.344C420.454 320.344 419.913 320.456 419.39 320.68C418.886 320.885 418.429 321.193 418.018 321.604C417.607 321.996 417.281 322.481 417.038 323.06C416.814 323.639 416.702 324.301 416.702 325.048V333H413.734V317.908H416.086L416.478 320.596H416.59C416.907 320.055 417.29 319.56 417.738 319.112C418.186 318.664 418.699 318.309 419.278 318.048C419.857 317.768 420.491 317.628 421.182 317.628ZM428.597 317.908V333H425.629V317.908H428.597ZM427.141 312.168C427.589 312.168 427.981 312.299 428.317 312.56C428.653 312.821 428.821 313.26 428.821 313.876C428.821 314.473 428.653 314.912 428.317 315.192C427.981 315.453 427.589 315.584 427.141 315.584C426.655 315.584 426.245 315.453 425.909 315.192C425.591 314.912 425.433 314.473 425.433 313.876C425.433 313.26 425.591 312.821 425.909 312.56C426.245 312.299 426.655 312.168 427.141 312.168ZM438.69 330.872C439.082 330.872 439.483 330.835 439.894 330.76C440.304 330.685 440.659 330.601 440.958 330.508V332.748C440.64 332.897 440.211 333.019 439.67 333.112C439.128 333.224 438.587 333.28 438.046 333.28C437.224 333.28 436.468 333.14 435.778 332.86C435.106 332.58 434.564 332.095 434.154 331.404C433.743 330.713 433.538 329.752 433.538 328.52V320.176H431.438V318.832L433.65 317.712L434.686 314.52H436.506V317.908H440.818V320.176H436.506V328.464C436.506 329.285 436.702 329.892 437.094 330.284C437.504 330.676 438.036 330.872 438.69 330.872ZM446.944 317.908V333H443.976V317.908H446.944ZM445.488 312.168C445.936 312.168 446.328 312.299 446.664 312.56C447 312.821 447.168 313.26 447.168 313.876C447.168 314.473 447 314.912 446.664 315.192C446.328 315.453 445.936 315.584 445.488 315.584C445.003 315.584 444.592 315.453 444.256 315.192C443.939 314.912 443.78 314.473 443.78 313.876C443.78 313.26 443.939 312.821 444.256 312.56C444.592 312.299 445.003 312.168 445.488 312.168ZM461.573 333H450.261V331.124L458.045 320.204H450.737V317.908H461.349V320.008L453.733 330.704H461.573V333ZM470.83 317.628C472.156 317.628 473.294 317.908 474.246 318.468C475.198 319.009 475.926 319.793 476.43 320.82C476.953 321.847 477.214 323.06 477.214 324.46V326.084H467.078C467.116 327.633 467.517 328.819 468.282 329.64C469.066 330.461 470.158 330.872 471.558 330.872C472.529 330.872 473.388 330.788 474.134 330.62C474.9 330.433 475.684 330.163 476.486 329.808V332.272C475.74 332.608 474.974 332.86 474.19 333.028C473.425 333.196 472.51 333.28 471.446 333.28C469.99 333.28 468.702 332.991 467.582 332.412C466.462 331.833 465.585 330.975 464.95 329.836C464.334 328.679 464.026 327.26 464.026 325.58C464.026 323.881 464.306 322.444 464.866 321.268C465.445 320.092 466.238 319.196 467.246 318.58C468.273 317.945 469.468 317.628 470.83 317.628ZM470.83 319.924C469.766 319.924 468.908 320.269 468.254 320.96C467.62 321.651 467.246 322.631 467.134 323.9H474.246C474.246 323.116 474.125 322.425 473.882 321.828C473.64 321.231 473.266 320.764 472.762 320.428C472.258 320.092 471.614 319.924 470.83 319.924ZM324.579 355.628C326.389 355.628 327.845 356.281 328.947 357.588C330.067 358.895 330.627 360.845 330.627 363.44C330.627 365.139 330.375 366.576 329.871 367.752C329.367 368.928 328.657 369.815 327.743 370.412C326.828 370.991 325.764 371.28 324.551 371.28C323.785 371.28 323.113 371.187 322.535 371C321.956 370.795 321.461 370.533 321.051 370.216C320.659 369.88 320.313 369.525 320.015 369.152H319.819C319.875 369.488 319.921 369.889 319.959 370.356C319.996 370.804 320.015 371.205 320.015 371.56V377.72H317.047V355.908H319.455L319.875 357.924H320.015C320.313 357.513 320.668 357.131 321.079 356.776C321.489 356.421 321.984 356.141 322.563 355.936C323.141 355.731 323.813 355.628 324.579 355.628ZM323.879 358.064C322.945 358.064 322.199 358.251 321.639 358.624C321.079 358.979 320.668 359.52 320.407 360.248C320.164 360.957 320.033 361.863 320.015 362.964V363.412C320.015 364.569 320.136 365.559 320.379 366.38C320.621 367.183 321.023 367.799 321.583 368.228C322.161 368.639 322.945 368.844 323.935 368.844C324.775 368.844 325.456 368.62 325.979 368.172C326.52 367.705 326.921 367.061 327.183 366.24C327.444 365.419 327.575 364.467 327.575 363.384C327.575 361.741 327.276 360.444 326.679 359.492C326.081 358.54 325.148 358.064 323.879 358.064ZM340.346 355.628C341.671 355.628 342.81 355.908 343.762 356.468C344.714 357.009 345.442 357.793 345.946 358.82C346.469 359.847 346.73 361.06 346.73 362.46V364.084H336.594C336.631 365.633 337.033 366.819 337.798 367.64C338.582 368.461 339.674 368.872 341.074 368.872C342.045 368.872 342.903 368.788 343.65 368.62C344.415 368.433 345.199 368.163 346.002 367.808V370.272C345.255 370.608 344.49 370.86 343.706 371.028C342.941 371.196 342.026 371.28 340.962 371.28C339.506 371.28 338.218 370.991 337.098 370.412C335.978 369.833 335.101 368.975 334.466 367.836C333.85 366.679 333.542 365.26 333.542 363.58C333.542 361.881 333.822 360.444 334.382 359.268C334.961 358.092 335.754 357.196 336.762 356.58C337.789 355.945 338.983 355.628 340.346 355.628ZM340.346 357.924C339.282 357.924 338.423 358.269 337.77 358.96C337.135 359.651 336.762 360.631 336.65 361.9H343.762C343.762 361.116 343.641 360.425 343.398 359.828C343.155 359.231 342.782 358.764 342.278 358.428C341.774 358.092 341.13 357.924 340.346 357.924ZM357.881 355.628C358.143 355.628 358.432 355.647 358.749 355.684C359.067 355.703 359.328 355.731 359.533 355.768L359.225 358.54C359.02 358.484 358.777 358.437 358.497 358.4C358.217 358.363 357.956 358.344 357.713 358.344C357.153 358.344 356.612 358.456 356.089 358.68C355.585 358.885 355.128 359.193 354.717 359.604C354.307 359.996 353.98 360.481 353.737 361.06C353.513 361.639 353.401 362.301 353.401 363.048V371H350.433V355.908H352.785L353.177 358.596H353.289C353.607 358.055 353.989 357.56 354.437 357.112C354.885 356.664 355.399 356.309 355.977 356.048C356.556 355.768 357.191 355.628 357.881 355.628ZM372.352 366.744C372.352 367.733 372.109 368.564 371.624 369.236C371.139 369.908 370.439 370.421 369.524 370.776C368.609 371.112 367.508 371.28 366.22 371.28C365.156 371.28 364.241 371.196 363.476 371.028C362.729 370.879 362.039 370.655 361.404 370.356V367.752C362.076 368.069 362.851 368.359 363.728 368.62C364.605 368.863 365.464 368.984 366.304 368.984C367.424 368.984 368.227 368.807 368.712 368.452C369.216 368.097 369.468 367.621 369.468 367.024C369.468 366.688 369.375 366.389 369.188 366.128C369.001 365.848 368.647 365.568 368.124 365.288C367.62 364.989 366.873 364.653 365.884 364.28C364.932 363.888 364.12 363.505 363.448 363.132C362.776 362.74 362.263 362.283 361.908 361.76C361.553 361.219 361.376 360.528 361.376 359.688C361.376 358.381 361.899 357.383 362.944 356.692C364.008 355.983 365.408 355.628 367.144 355.628C368.059 355.628 368.917 355.721 369.72 355.908C370.541 356.076 371.335 356.337 372.1 356.692L371.12 358.96C370.691 358.755 370.243 358.587 369.776 358.456C369.328 358.307 368.871 358.185 368.404 358.092C367.956 357.999 367.489 357.952 367.004 357.952C366.108 357.952 365.427 358.092 364.96 358.372C364.493 358.652 364.26 359.044 364.26 359.548C364.26 359.903 364.363 360.211 364.568 360.472C364.792 360.733 365.175 360.995 365.716 361.256C366.257 361.517 366.995 361.835 367.928 362.208C368.861 362.563 369.655 362.927 370.308 363.3C370.98 363.673 371.484 364.131 371.82 364.672C372.175 365.213 372.352 365.904 372.352 366.744ZM389.19 363.44C389.19 364.691 389.022 365.801 388.686 366.772C388.35 367.743 387.874 368.564 387.258 369.236C386.642 369.908 385.896 370.421 385.018 370.776C384.141 371.112 383.152 371.28 382.05 371.28C381.042 371.28 380.109 371.112 379.25 370.776C378.392 370.421 377.645 369.908 377.01 369.236C376.394 368.564 375.909 367.743 375.554 366.772C375.2 365.801 375.022 364.681 375.022 363.412C375.022 361.751 375.302 360.341 375.862 359.184C376.441 358.027 377.262 357.149 378.326 356.552C379.409 355.936 380.678 355.628 382.134 355.628C383.516 355.628 384.729 355.936 385.774 356.552C386.838 357.149 387.669 358.027 388.266 359.184C388.882 360.341 389.19 361.76 389.19 363.44ZM378.074 363.44C378.074 364.56 378.214 365.531 378.494 366.352C378.774 367.155 379.213 367.771 379.81 368.2C380.408 368.629 381.173 368.844 382.106 368.844C383.04 368.844 383.805 368.629 384.402 368.2C385 367.771 385.438 367.155 385.718 366.352C385.998 365.531 386.138 364.56 386.138 363.44C386.138 362.283 385.989 361.312 385.69 360.528C385.41 359.744 384.972 359.147 384.374 358.736C383.796 358.307 383.03 358.092 382.078 358.092C380.678 358.092 379.661 358.559 379.026 359.492C378.392 360.425 378.074 361.741 378.074 363.44ZM400.597 355.628C402.352 355.628 403.696 356.067 404.629 356.944C405.562 357.821 406.029 359.231 406.029 361.172V371H403.089V361.592C403.089 360.416 402.837 359.539 402.333 358.96C401.848 358.363 401.064 358.064 399.981 358.064C398.45 358.064 397.386 358.521 396.789 359.436C396.21 360.351 395.921 361.667 395.921 363.384V371H392.953V355.908H395.305L395.725 357.924H395.893C396.229 357.401 396.64 356.972 397.125 356.636C397.61 356.3 398.152 356.048 398.749 355.88C399.346 355.712 399.962 355.628 400.597 355.628ZM416.442 355.628C418.346 355.628 419.764 356.048 420.698 356.888C421.631 357.709 422.098 359.007 422.098 360.78V371H419.998L419.41 368.9H419.298C418.868 369.441 418.42 369.889 417.954 370.244C417.506 370.599 416.983 370.86 416.386 371.028C415.807 371.196 415.098 371.28 414.258 371.28C413.362 371.28 412.55 371.121 411.822 370.804C411.112 370.468 410.552 369.964 410.142 369.292C409.731 368.601 409.526 367.743 409.526 366.716C409.526 365.185 410.104 364.019 411.262 363.216C412.438 362.413 414.22 361.975 416.61 361.9L419.186 361.816V360.976C419.186 359.856 418.934 359.072 418.43 358.624C417.926 358.176 417.216 357.952 416.302 357.952C415.518 357.952 414.771 358.064 414.062 358.288C413.352 358.512 412.68 358.783 412.046 359.1L411.094 356.944C411.803 356.571 412.615 356.263 413.53 356.02C414.463 355.759 415.434 355.628 416.442 355.628ZM417.142 363.804C415.424 363.879 414.23 364.168 413.558 364.672C412.904 365.157 412.578 365.848 412.578 366.744C412.578 367.528 412.811 368.097 413.278 368.452C413.763 368.807 414.37 368.984 415.098 368.984C416.274 368.984 417.244 368.657 418.01 368.004C418.775 367.351 419.158 366.371 419.158 365.064V363.748L417.142 363.804ZM429.636 371H426.668V349.72H429.636V371ZM437.265 355.908V371H434.297V355.908H437.265ZM435.809 350.168C436.257 350.168 436.649 350.299 436.985 350.56C437.321 350.821 437.489 351.26 437.489 351.876C437.489 352.473 437.321 352.912 436.985 353.192C436.649 353.453 436.257 353.584 435.809 353.584C435.323 353.584 434.913 353.453 434.577 353.192C434.259 352.912 434.101 352.473 434.101 351.876C434.101 351.26 434.259 350.821 434.577 350.56C434.913 350.299 435.323 350.168 435.809 350.168ZM451.894 371H440.582V369.124L448.366 358.204H441.058V355.908H451.67V358.008L444.054 368.704H451.894V371ZM461.151 355.628C462.476 355.628 463.615 355.908 464.567 356.468C465.519 357.009 466.247 357.793 466.751 358.82C467.273 359.847 467.535 361.06 467.535 362.46V364.084H457.399C457.436 365.633 457.837 366.819 458.603 367.64C459.387 368.461 460.479 368.872 461.879 368.872C462.849 368.872 463.708 368.788 464.455 368.62C465.22 368.433 466.004 368.163 466.807 367.808V370.272C466.06 370.608 465.295 370.86 464.511 371.028C463.745 371.196 462.831 371.28 461.767 371.28C460.311 371.28 459.023 370.991 457.903 370.412C456.783 369.833 455.905 368.975 455.271 367.836C454.655 366.679 454.347 365.26 454.347 363.58C454.347 361.881 454.627 360.444 455.187 359.268C455.765 358.092 456.559 357.196 457.567 356.58C458.593 355.945 459.788 355.628 461.151 355.628ZM461.151 357.924C460.087 357.924 459.228 358.269 458.575 358.96C457.94 359.651 457.567 360.631 457.455 361.9H464.567C464.567 361.116 464.445 360.425 464.203 359.828C463.96 359.231 463.587 358.764 463.083 358.428C462.579 358.092 461.935 357.924 461.151 357.924ZM476.418 371.28C474.607 371.28 473.142 370.627 472.022 369.32C470.921 368.013 470.37 366.072 470.37 363.496C470.37 360.901 470.93 358.941 472.05 357.616C473.17 356.291 474.645 355.628 476.474 355.628C477.239 355.628 477.902 355.731 478.462 355.936C479.041 356.123 479.535 356.384 479.946 356.72C480.375 357.056 480.739 357.429 481.038 357.84H481.206C481.169 357.579 481.122 357.205 481.066 356.72C481.01 356.216 480.982 355.768 480.982 355.376V349.72H483.95V371H481.626L481.122 368.984H480.982C480.702 369.413 480.347 369.805 479.918 370.16C479.507 370.496 479.013 370.767 478.434 370.972C477.855 371.177 477.183 371.28 476.418 371.28ZM477.118 368.844C478.574 368.844 479.601 368.443 480.198 367.64C480.795 366.819 481.094 365.596 481.094 363.972V363.524C481.094 361.751 480.805 360.397 480.226 359.464C479.666 358.531 478.621 358.064 477.09 358.064C475.877 358.064 474.962 358.559 474.346 359.548C473.73 360.519 473.422 361.853 473.422 363.552C473.422 365.251 473.73 366.557 474.346 367.472C474.962 368.387 475.886 368.844 477.118 368.844ZM349.847 409H346.879V387.72H349.847V409ZM360.444 393.628C361.769 393.628 362.908 393.908 363.86 394.468C364.812 395.009 365.54 395.793 366.044 396.82C366.566 397.847 366.828 399.06 366.828 400.46V402.084H356.692C356.729 403.633 357.13 404.819 357.896 405.64C358.68 406.461 359.772 406.872 361.172 406.872C362.142 406.872 363.001 406.788 363.748 406.62C364.513 406.433 365.297 406.163 366.1 405.808V408.272C365.353 408.608 364.588 408.86 363.804 409.028C363.038 409.196 362.124 409.28 361.06 409.28C359.604 409.28 358.316 408.991 357.196 408.412C356.076 407.833 355.198 406.975 354.564 405.836C353.948 404.679 353.64 403.26 353.64 401.58C353.64 399.881 353.92 398.444 354.48 397.268C355.058 396.092 355.852 395.196 356.86 394.58C357.886 393.945 359.081 393.628 360.444 393.628ZM360.444 395.924C359.38 395.924 358.521 396.269 357.868 396.96C357.233 397.651 356.86 398.631 356.748 399.9H363.86C363.86 399.116 363.738 398.425 363.496 397.828C363.253 397.231 362.88 396.764 362.376 396.428C361.872 396.092 361.228 395.924 360.444 395.924ZM376.383 393.628C378.287 393.628 379.706 394.048 380.639 394.888C381.572 395.709 382.039 397.007 382.039 398.78V409H379.939L379.351 406.9H379.239C378.81 407.441 378.362 407.889 377.895 408.244C377.447 408.599 376.924 408.86 376.327 409.028C375.748 409.196 375.039 409.28 374.199 409.28C373.303 409.28 372.491 409.121 371.763 408.804C371.054 408.468 370.494 407.964 370.083 407.292C369.672 406.601 369.467 405.743 369.467 404.716C369.467 403.185 370.046 402.019 371.203 401.216C372.379 400.413 374.162 399.975 376.551 399.9L379.127 399.816V398.976C379.127 397.856 378.875 397.072 378.371 396.624C377.867 396.176 377.158 395.952 376.243 395.952C375.459 395.952 374.712 396.064 374.003 396.288C373.294 396.512 372.622 396.783 371.987 397.1L371.035 394.944C371.744 394.571 372.556 394.263 373.471 394.02C374.404 393.759 375.375 393.628 376.383 393.628ZM377.083 401.804C375.366 401.879 374.171 402.168 373.499 402.672C372.846 403.157 372.519 403.848 372.519 404.744C372.519 405.528 372.752 406.097 373.219 406.452C373.704 406.807 374.311 406.984 375.039 406.984C376.215 406.984 377.186 406.657 377.951 406.004C378.716 405.351 379.099 404.371 379.099 403.064V401.748L377.083 401.804ZM394.057 393.628C394.318 393.628 394.608 393.647 394.925 393.684C395.242 393.703 395.504 393.731 395.709 393.768L395.401 396.54C395.196 396.484 394.953 396.437 394.673 396.4C394.393 396.363 394.132 396.344 393.889 396.344C393.329 396.344 392.788 396.456 392.265 396.68C391.761 396.885 391.304 397.193 390.893 397.604C390.482 397.996 390.156 398.481 389.913 399.06C389.689 399.639 389.577 400.301 389.577 401.048V409H386.609V393.908H388.961L389.353 396.596H389.465C389.782 396.055 390.165 395.56 390.613 395.112C391.061 394.664 391.574 394.309 392.153 394.048C392.732 393.768 393.366 393.628 394.057 393.628ZM406.148 393.628C407.902 393.628 409.246 394.067 410.18 394.944C411.113 395.821 411.58 397.231 411.58 399.172V409H408.64V399.592C408.64 398.416 408.388 397.539 407.884 396.96C407.398 396.363 406.614 396.064 405.532 396.064C404.001 396.064 402.937 396.521 402.34 397.436C401.761 398.351 401.472 399.667 401.472 401.384V409H398.504V393.908H400.856L401.276 395.924H401.444C401.78 395.401 402.19 394.972 402.676 394.636C403.161 394.3 403.702 394.048 404.3 393.88C404.897 393.712 405.513 393.628 406.148 393.628ZM419.108 393.908V409H416.14V393.908H419.108ZM417.652 388.168C418.1 388.168 418.492 388.299 418.828 388.56C419.164 388.821 419.332 389.26 419.332 389.876C419.332 390.473 419.164 390.912 418.828 391.192C418.492 391.453 418.1 391.584 417.652 391.584C417.167 391.584 416.756 391.453 416.42 391.192C416.103 390.912 415.944 390.473 415.944 389.876C415.944 389.26 416.103 388.821 416.42 388.56C416.756 388.299 417.167 388.168 417.652 388.168ZM431.413 393.628C433.168 393.628 434.512 394.067 435.445 394.944C436.379 395.821 436.845 397.231 436.845 399.172V409H433.905V399.592C433.905 398.416 433.653 397.539 433.149 396.96C432.664 396.363 431.88 396.064 430.797 396.064C429.267 396.064 428.203 396.521 427.605 397.436C427.027 398.351 426.737 399.667 426.737 401.384V409H423.769V393.908H426.121L426.541 395.924H426.709C427.045 395.401 427.456 394.972 427.941 394.636C428.427 394.3 428.968 394.048 429.565 393.88C430.163 393.712 430.779 393.628 431.413 393.628ZM446.614 393.628C447.585 393.628 448.462 393.815 449.246 394.188C450.03 394.561 450.693 395.131 451.234 395.896H451.374L451.71 393.908H454.118V409.196C454.118 410.615 453.866 411.809 453.362 412.78C452.858 413.751 452.083 414.479 451.038 414.964C450.011 415.468 448.714 415.72 447.146 415.72C446.063 415.72 445.065 415.645 444.15 415.496C443.235 415.347 442.395 415.113 441.63 414.796V412.192C442.171 412.453 442.741 412.668 443.338 412.836C443.935 413.023 444.57 413.153 445.242 413.228C445.914 413.321 446.605 413.368 447.314 413.368C448.546 413.368 449.498 413.013 450.17 412.304C450.842 411.613 451.178 410.633 451.178 409.364V408.86C451.178 408.617 451.187 408.3 451.206 407.908C451.225 407.497 451.243 407.199 451.262 407.012H451.15C450.627 407.796 449.983 408.375 449.218 408.748C448.471 409.103 447.603 409.28 446.614 409.28C444.71 409.28 443.217 408.599 442.134 407.236C441.07 405.855 440.538 403.941 440.538 401.496C440.538 399.853 440.781 398.453 441.266 397.296C441.751 396.12 442.442 395.215 443.338 394.58C444.253 393.945 445.345 393.628 446.614 393.628ZM447.23 396.092C446.446 396.092 445.783 396.307 445.242 396.736C444.701 397.147 444.29 397.753 444.01 398.556C443.73 399.359 443.59 400.348 443.59 401.524C443.59 403.279 443.898 404.613 444.514 405.528C445.149 406.443 446.073 406.9 447.286 406.9C447.995 406.9 448.593 406.807 449.078 406.62C449.582 406.433 449.993 406.144 450.31 405.752C450.646 405.36 450.889 404.865 451.038 404.268C451.206 403.652 451.29 402.915 451.29 402.056V401.496C451.29 400.208 451.141 399.172 450.842 398.388C450.562 397.585 450.123 397.007 449.526 396.652C448.929 396.279 448.163 396.092 447.23 396.092Z" fill="white"/>
<path d="M89.1166 311.456C89.1166 312.632 88.8273 313.659 88.2486 314.536C87.6699 315.413 86.8299 316.095 85.7286 316.58C84.6459 317.047 83.3206 317.28 81.7526 317.28C81.0619 317.28 80.3806 317.233 79.7086 317.14C79.0553 317.047 78.4206 316.916 77.8046 316.748C77.2073 316.561 76.6379 316.337 76.0966 316.076V312.128C77.0486 312.539 78.0286 312.921 79.0366 313.276C80.0633 313.612 81.0806 313.78 82.0886 313.78C82.7793 313.78 83.3299 313.687 83.7406 313.5C84.1699 313.313 84.4779 313.061 84.6646 312.744C84.8699 312.427 84.9726 312.063 84.9726 311.652C84.9726 311.148 84.7953 310.719 84.4406 310.364C84.1046 310.009 83.6473 309.683 83.0686 309.384C82.4899 309.067 81.8273 308.731 81.0806 308.376C80.6139 308.152 80.1099 307.891 79.5686 307.592C79.0273 307.275 78.5046 306.892 78.0006 306.444C77.5153 305.977 77.1139 305.417 76.7966 304.764C76.4793 304.111 76.3206 303.327 76.3206 302.412C76.3206 301.217 76.5913 300.2 77.1326 299.36C77.6926 298.501 78.4766 297.848 79.4846 297.4C80.5113 296.952 81.7153 296.728 83.0966 296.728C84.1419 296.728 85.1313 296.849 86.0646 297.092C87.0166 297.335 88.0059 297.68 89.0326 298.128L87.6606 301.432C86.7459 301.059 85.9246 300.769 85.1966 300.564C84.4686 300.359 83.7219 300.256 82.9566 300.256C82.4339 300.256 81.9859 300.34 81.6126 300.508C81.2393 300.676 80.9499 300.909 80.7446 301.208C80.5579 301.507 80.4646 301.861 80.4646 302.272C80.4646 302.739 80.6046 303.14 80.8846 303.476C81.1646 303.793 81.5846 304.101 82.1446 304.4C82.7046 304.699 83.4046 305.053 84.2446 305.464C85.2713 305.949 86.1393 306.453 86.8486 306.976C87.5766 307.499 88.1366 308.115 88.5286 308.824C88.9206 309.533 89.1166 310.411 89.1166 311.456ZM98.6865 301.404C100.74 301.404 102.308 301.852 103.39 302.748C104.492 303.625 105.042 304.979 105.042 306.808V317H102.13L101.318 314.928H101.206C100.777 315.469 100.329 315.917 99.8625 316.272C99.4145 316.627 98.8918 316.879 98.2945 317.028C97.7158 317.196 96.9971 317.28 96.1385 317.28C95.2425 317.28 94.4305 317.112 93.7025 316.776C92.9931 316.421 92.4331 315.889 92.0225 315.18C91.6118 314.452 91.4065 313.537 91.4065 312.436C91.4065 310.812 91.9758 309.617 93.1145 308.852C94.2531 308.068 95.9611 307.639 98.2385 307.564L100.898 307.48V306.808C100.898 306.005 100.684 305.417 100.254 305.044C99.8438 304.671 99.2651 304.484 98.5185 304.484C97.7718 304.484 97.0438 304.596 96.3345 304.82C95.6251 305.025 94.9158 305.287 94.2065 305.604L92.8345 302.776C93.6558 302.347 94.5611 302.011 95.5505 301.768C96.5585 301.525 97.6038 301.404 98.6865 301.404ZM99.2745 309.972C97.9305 310.009 96.9971 310.252 96.4745 310.7C95.9518 311.148 95.6905 311.736 95.6905 312.464C95.6905 313.099 95.8771 313.556 96.2505 313.836C96.6238 314.097 97.1091 314.228 97.7065 314.228C98.6025 314.228 99.3585 313.967 99.9745 313.444C100.59 312.903 100.898 312.147 100.898 311.176V309.916L99.2745 309.972ZM117.993 301.432C119.636 301.432 120.952 301.88 121.941 302.776C122.93 303.653 123.425 305.072 123.425 307.032V317H119.253V308.068C119.253 306.967 119.057 306.145 118.665 305.604C118.273 305.044 117.648 304.764 116.789 304.764C115.52 304.764 114.652 305.203 114.185 306.08C113.718 306.939 113.485 308.18 113.485 309.804V317H109.313V301.712H112.505L113.065 303.672H113.289C113.625 303.149 114.036 302.729 114.521 302.412C115.006 302.076 115.548 301.833 116.145 301.684C116.742 301.516 117.358 301.432 117.993 301.432ZM126.483 323.72C126.017 323.72 125.531 323.683 125.027 323.608C124.505 323.552 124.075 323.477 123.739 323.384V320.108C124.075 320.183 124.393 320.239 124.691 320.276C124.99 320.332 125.326 320.36 125.699 320.36C126.259 320.36 126.735 320.201 127.127 319.884C127.519 319.567 127.715 318.951 127.715 318.036V301.712H131.887V318.652C131.887 319.585 131.71 320.435 131.355 321.2C131.001 321.965 130.422 322.572 129.619 323.02C128.835 323.487 127.79 323.72 126.483 323.72ZM127.547 297.764C127.547 296.98 127.762 296.448 128.191 296.168C128.639 295.869 129.181 295.72 129.815 295.72C130.431 295.72 130.963 295.869 131.411 296.168C131.859 296.448 132.083 296.98 132.083 297.764C132.083 298.529 131.859 299.061 131.411 299.36C130.963 299.659 130.431 299.808 129.815 299.808C129.181 299.808 128.639 299.659 128.191 299.36C127.762 299.061 127.547 298.529 127.547 297.764ZM142.519 301.404C144.572 301.404 146.14 301.852 147.223 302.748C148.324 303.625 148.875 304.979 148.875 306.808V317H145.963L145.151 314.928H145.039C144.609 315.469 144.161 315.917 143.695 316.272C143.247 316.627 142.724 316.879 142.127 317.028C141.548 317.196 140.829 317.28 139.971 317.28C139.075 317.28 138.263 317.112 137.535 316.776C136.825 316.421 136.265 315.889 135.855 315.18C135.444 314.452 135.239 313.537 135.239 312.436C135.239 310.812 135.808 309.617 136.947 308.852C138.085 308.068 139.793 307.639 142.071 307.564L144.731 307.48V306.808C144.731 306.005 144.516 305.417 144.087 305.044C143.676 304.671 143.097 304.484 142.351 304.484C141.604 304.484 140.876 304.596 140.167 304.82C139.457 305.025 138.748 305.287 138.039 305.604L136.667 302.776C137.488 302.347 138.393 302.011 139.383 301.768C140.391 301.525 141.436 301.404 142.519 301.404ZM143.107 309.972C141.763 310.009 140.829 310.252 140.307 310.7C139.784 311.148 139.523 311.736 139.523 312.464C139.523 313.099 139.709 313.556 140.083 313.836C140.456 314.097 140.941 314.228 141.539 314.228C142.435 314.228 143.191 313.967 143.807 313.444C144.423 312.903 144.731 312.147 144.731 311.176V309.916L143.107 309.972ZM161.685 301.432C161.89 301.432 162.133 301.441 162.413 301.46C162.693 301.479 162.917 301.507 163.085 301.544L162.777 305.464C162.646 305.427 162.45 305.399 162.189 305.38C161.946 305.343 161.732 305.324 161.545 305.324C161.004 305.324 160.481 305.399 159.977 305.548C159.473 305.679 159.016 305.893 158.605 306.192C158.213 306.491 157.896 306.892 157.653 307.396C157.429 307.881 157.317 308.488 157.317 309.216V317H153.145V301.712H156.309L156.925 304.288H157.121C157.42 303.765 157.793 303.289 158.241 302.86C158.689 302.431 159.202 302.085 159.781 301.824C160.378 301.563 161.013 301.432 161.685 301.432ZM170.032 301.712V317H165.86V301.712H170.032ZM167.96 295.72C168.576 295.72 169.108 295.869 169.556 296.168C170.004 296.448 170.228 296.98 170.228 297.764C170.228 298.529 170.004 299.061 169.556 299.36C169.108 299.659 168.576 299.808 167.96 299.808C167.325 299.808 166.784 299.659 166.336 299.36C165.906 299.061 165.692 298.529 165.692 297.764C165.692 296.98 165.906 296.448 166.336 296.168C166.784 295.869 167.325 295.72 167.96 295.72ZM178.479 314.06C178.311 314.713 178.096 315.423 177.835 316.188C177.574 316.935 177.294 317.681 176.995 318.428C176.696 319.193 176.388 319.921 176.071 320.612H173.075C173.262 319.865 173.439 319.081 173.607 318.26C173.775 317.457 173.934 316.664 174.083 315.88C174.232 315.096 174.354 314.387 174.447 313.752H178.283L178.479 314.06ZM52.4579 347.944C52.4579 349.325 52.1499 350.576 51.5339 351.696C50.9366 352.797 50.0219 353.675 48.7899 354.328C47.5766 354.963 46.0366 355.28 44.1699 355.28C41.5193 355.28 39.5033 354.608 38.1219 353.264C36.7406 351.901 36.0499 350.109 36.0499 347.888V335.008H40.2779V347.244C40.2779 348.887 40.6139 350.044 41.2859 350.716C41.9579 351.388 42.9566 351.724 44.2819 351.724C45.2153 351.724 45.9713 351.565 46.5499 351.248C47.1286 350.931 47.5486 350.436 47.8099 349.764C48.0899 349.092 48.2299 348.243 48.2299 347.216V335.008H52.4579V347.944ZM65.698 339.432C67.3407 339.432 68.6567 339.88 69.646 340.776C70.6353 341.653 71.13 343.072 71.13 345.032V355H66.958V346.068C66.958 344.967 66.762 344.145 66.37 343.604C65.978 343.044 65.3527 342.764 64.494 342.764C63.2247 342.764 62.3567 343.203 61.89 344.08C61.4233 344.939 61.19 346.18 61.19 347.804V355H57.018V339.712H60.21L60.77 341.672H60.994C61.33 341.149 61.7407 340.729 62.226 340.412C62.7113 340.076 63.2527 339.833 63.85 339.684C64.4473 339.516 65.0633 339.432 65.698 339.432ZM79.5923 339.712V355H75.4203V339.712H79.5923ZM77.5203 333.72C78.1363 333.72 78.6683 333.869 79.1163 334.168C79.5643 334.448 79.7883 334.98 79.7883 335.764C79.7883 336.529 79.5643 337.061 79.1163 337.36C78.6683 337.659 78.1363 337.808 77.5203 337.808C76.8857 337.808 76.3443 337.659 75.8963 337.36C75.467 337.061 75.2523 336.529 75.2523 335.764C75.2523 334.98 75.467 334.448 75.8963 334.168C76.3443 333.869 76.8857 333.72 77.5203 333.72ZM90.3916 351.948C90.8582 351.948 91.3062 351.901 91.7356 351.808C92.1649 351.715 92.5942 351.603 93.0236 351.472V354.58C92.5756 354.767 92.0156 354.925 91.3436 355.056C90.6902 355.205 89.9716 355.28 89.1876 355.28C88.2729 355.28 87.4516 355.131 86.7236 354.832C86.0142 354.533 85.4449 354.02 85.0156 353.292C84.6049 352.545 84.3996 351.519 84.3996 350.212V342.848H82.4116V341.084L84.7076 339.684L85.9116 336.464H88.5716V339.712H92.8556V342.848H88.5716V350.212C88.5716 350.791 88.7396 351.229 89.0756 351.528C89.4116 351.808 89.8502 351.948 90.3916 351.948ZM102.392 339.432C103.811 339.432 105.024 339.703 106.032 340.244C107.059 340.785 107.852 341.569 108.412 342.596C108.972 343.623 109.252 344.883 109.252 346.376V348.392H99.3962C99.4335 349.568 99.7789 350.492 100.432 351.164C101.104 351.836 102.028 352.172 103.204 352.172C104.194 352.172 105.09 352.079 105.892 351.892C106.695 351.687 107.526 351.379 108.384 350.968V354.188C107.638 354.561 106.844 354.832 106.004 355C105.183 355.187 104.184 355.28 103.008 355.28C101.478 355.28 100.124 355 98.9482 354.44C97.7722 353.861 96.8482 352.993 96.1762 351.836C95.5042 350.679 95.1682 349.223 95.1682 347.468C95.1682 345.676 95.4669 344.192 96.0642 343.016C96.6802 341.821 97.5295 340.925 98.6122 340.328C99.6949 339.731 100.955 339.432 102.392 339.432ZM102.42 342.4C101.618 342.4 100.946 342.661 100.404 343.184C99.8815 343.707 99.5735 344.519 99.4802 345.62H105.332C105.332 345.004 105.22 344.453 104.996 343.968C104.791 343.483 104.474 343.1 104.044 342.82C103.615 342.54 103.074 342.4 102.42 342.4ZM117.479 355.28C115.781 355.28 114.39 354.617 113.307 353.292C112.243 351.948 111.711 349.979 111.711 347.384C111.711 344.771 112.253 342.792 113.335 341.448C114.418 340.104 115.837 339.432 117.591 339.432C118.319 339.432 118.963 339.535 119.523 339.74C120.083 339.927 120.559 340.188 120.951 340.524C121.362 340.86 121.707 341.243 121.987 341.672H122.127C122.071 341.373 122.006 340.944 121.931 340.384C121.857 339.805 121.819 339.217 121.819 338.62V333.72H125.991V355H122.799L121.987 353.012H121.819C121.558 353.423 121.222 353.805 120.811 354.16C120.419 354.496 119.953 354.767 119.411 354.972C118.87 355.177 118.226 355.28 117.479 355.28ZM118.935 351.948C120.093 351.948 120.905 351.612 121.371 350.94C121.838 350.249 122.081 349.223 122.099 347.86V347.412C122.099 345.919 121.866 344.78 121.399 343.996C120.951 343.212 120.111 342.82 118.879 342.82C117.965 342.82 117.246 343.221 116.723 344.024C116.201 344.808 115.939 345.947 115.939 347.44C115.939 348.933 116.201 350.063 116.723 350.828C117.246 351.575 117.983 351.948 118.935 351.948ZM145.551 343.772H153.475V354.132C152.43 354.487 151.338 354.767 150.199 354.972C149.079 355.177 147.801 355.28 146.363 355.28C144.385 355.28 142.695 354.888 141.295 354.104C139.914 353.32 138.859 352.163 138.131 350.632C137.422 349.101 137.067 347.216 137.067 344.976C137.067 342.885 137.469 341.075 138.271 339.544C139.093 338.013 140.278 336.828 141.827 335.988C143.377 335.148 145.271 334.728 147.511 334.728C148.575 334.728 149.621 334.84 150.647 335.064C151.674 335.288 152.607 335.587 153.447 335.96L152.047 339.348C151.431 339.031 150.731 338.769 149.947 338.564C149.163 338.359 148.342 338.256 147.483 338.256C146.251 338.256 145.178 338.536 144.263 339.096C143.367 339.656 142.667 340.449 142.163 341.476C141.678 342.484 141.435 343.679 141.435 345.06C141.435 346.367 141.613 347.524 141.967 348.532C142.322 349.54 142.882 350.333 143.647 350.912C144.413 351.472 145.411 351.752 146.643 351.752C147.054 351.752 147.409 351.743 147.707 351.724C148.025 351.687 148.314 351.649 148.575 351.612C148.837 351.556 149.089 351.509 149.331 351.472V347.3H145.551V343.772ZM166.429 339.432C166.634 339.432 166.877 339.441 167.157 339.46C167.437 339.479 167.661 339.507 167.829 339.544L167.521 343.464C167.39 343.427 167.194 343.399 166.933 343.38C166.69 343.343 166.476 343.324 166.289 343.324C165.748 343.324 165.225 343.399 164.721 343.548C164.217 343.679 163.76 343.893 163.349 344.192C162.957 344.491 162.64 344.892 162.397 345.396C162.173 345.881 162.061 346.488 162.061 347.216V355H157.889V339.712H161.053L161.669 342.288H161.865C162.164 341.765 162.537 341.289 162.985 340.86C163.433 340.431 163.946 340.085 164.525 339.824C165.122 339.563 165.757 339.432 166.429 339.432ZM183.945 347.328C183.945 348.597 183.768 349.727 183.413 350.716C183.077 351.705 182.582 352.545 181.929 353.236C181.294 353.908 180.52 354.421 179.605 354.776C178.69 355.112 177.654 355.28 176.497 355.28C175.433 355.28 174.444 355.112 173.529 354.776C172.633 354.421 171.858 353.908 171.205 353.236C170.552 352.545 170.038 351.705 169.665 350.716C169.31 349.727 169.133 348.597 169.133 347.328C169.133 345.629 169.432 344.201 170.029 343.044C170.626 341.868 171.485 340.972 172.605 340.356C173.725 339.74 175.05 339.432 176.581 339.432C178.018 339.432 179.288 339.74 180.389 340.356C181.49 340.972 182.358 341.868 182.993 343.044C183.628 344.201 183.945 345.629 183.945 347.328ZM173.389 347.328C173.389 348.336 173.492 349.185 173.697 349.876C173.921 350.548 174.266 351.061 174.733 351.416C175.2 351.752 175.806 351.92 176.553 351.92C177.3 351.92 177.897 351.752 178.345 351.416C178.812 351.061 179.148 350.548 179.353 349.876C179.577 349.185 179.689 348.336 179.689 347.328C179.689 346.32 179.577 345.48 179.353 344.808C179.148 344.136 178.812 343.632 178.345 343.296C177.878 342.96 177.272 342.792 176.525 342.792C175.424 342.792 174.621 343.175 174.117 343.94C173.632 344.687 173.389 345.816 173.389 347.328ZM201.421 339.712V355H198.229L197.669 353.04H197.445C197.128 353.563 196.717 353.992 196.213 354.328C195.728 354.645 195.186 354.879 194.589 355.028C193.992 355.196 193.376 355.28 192.741 355.28C191.658 355.28 190.706 355.084 189.885 354.692C189.064 354.3 188.429 353.693 187.981 352.872C187.533 352.051 187.309 350.987 187.309 349.68V339.712H191.481V348.644C191.481 349.727 191.677 350.548 192.069 351.108C192.461 351.668 193.086 351.948 193.945 351.948C194.804 351.948 195.466 351.752 195.933 351.36C196.418 350.968 196.754 350.399 196.941 349.652C197.146 348.905 197.249 347.991 197.249 346.908V339.712H201.421ZM214.307 339.432C216.025 339.432 217.415 340.104 218.479 341.448C219.543 342.773 220.075 344.733 220.075 347.328C220.075 349.064 219.823 350.529 219.319 351.724C218.815 352.9 218.125 353.787 217.247 354.384C216.37 354.981 215.353 355.28 214.195 355.28C213.467 355.28 212.833 355.187 212.291 355C211.769 354.813 211.321 354.571 210.947 354.272C210.574 353.973 210.247 353.656 209.967 353.32H209.743C209.818 353.675 209.874 354.048 209.911 354.44C209.949 354.813 209.967 355.187 209.967 355.56V361.72H205.795V339.712H209.183L209.771 341.7H209.967C210.247 341.289 210.583 340.916 210.975 340.58C211.367 340.225 211.834 339.945 212.375 339.74C212.935 339.535 213.579 339.432 214.307 339.432ZM212.963 342.764C212.235 342.764 211.657 342.913 211.227 343.212C210.798 343.511 210.481 343.968 210.275 344.584C210.089 345.181 209.986 345.937 209.967 346.852V347.3C209.967 348.289 210.061 349.129 210.247 349.82C210.434 350.492 210.751 351.005 211.199 351.36C211.647 351.715 212.254 351.892 213.019 351.892C213.654 351.892 214.177 351.715 214.587 351.36C214.998 351.005 215.306 350.483 215.511 349.792C215.717 349.101 215.819 348.261 215.819 347.272C215.819 345.779 215.586 344.659 215.119 343.912C214.671 343.147 213.953 342.764 212.963 342.764Z" fill="white"/>
<path d="M207.02 187.373C197.631 187.373 190.02 179.762 190.02 170.373C190.02 167.145 190.02 163.93 190.02 160.713C190.02 142.733 190.04 124.743 190 106.763C190 103.213 190.29 99.893 194.6 99.133C199.06 98.343 200.8 101.173 201.86 104.903C203.67 111.303 205.71 117.633 207.43 124.053C208.2 126.923 209.55 127.993 212.63 127.953C219.176 127.856 225.722 127.843 232.32 127.852C241.709 127.865 249.32 135.494 249.32 144.883L249.32 170.373C249.32 179.762 241.709 187.373 232.32 187.373L207.02 187.373Z" fill="white"/>
<path d="M273.02 187.373C263.631 187.373 256.02 179.762 256.02 170.373C256.02 167.145 256.02 163.93 256.02 160.713C256.02 142.733 256.04 124.743 256 106.763C256 103.213 256.29 99.893 260.6 99.133C265.06 98.343 266.8 101.173 267.86 104.903C269.67 111.303 271.71 117.633 273.43 124.053C274.2 126.923 275.55 127.993 278.63 127.953C285.176 127.856 291.722 127.843 298.32 127.852C307.709 127.865 315.32 135.494 315.32 144.883L315.32 170.373C315.32 179.762 307.709 187.373 298.32 187.373L273.02 187.373Z" fill="white"/>
</svg>
