<svg width="539" height="539" viewBox="0 0 539 539" fill="none" xmlns="http://www.w3.org/2000/svg">
<circle cx="269.5" cy="269.5" r="269.5" fill="#F04C23"/>
<path d="M367.814 165H364.818V145.008H376.074V147.584H367.814V154.108H375.542V156.684H367.814V165ZM392.575 157.44C392.575 158.691 392.407 159.801 392.071 160.772C391.735 161.743 391.259 162.564 390.643 163.236C390.027 163.908 389.281 164.421 388.403 164.776C387.526 165.112 386.537 165.28 385.435 165.28C384.427 165.28 383.494 165.112 382.635 164.776C381.777 164.421 381.03 163.908 380.395 163.236C379.779 162.564 379.294 161.743 378.939 160.772C378.585 159.801 378.407 158.681 378.407 157.412C378.407 155.751 378.687 154.341 379.247 153.184C379.826 152.027 380.647 151.149 381.711 150.552C382.794 149.936 384.063 149.628 385.519 149.628C386.901 149.628 388.114 149.936 389.159 150.552C390.223 151.149 391.054 152.027 391.651 153.184C392.267 154.341 392.575 155.76 392.575 157.44ZM381.459 157.44C381.459 158.56 381.599 159.531 381.879 160.352C382.159 161.155 382.598 161.771 383.195 162.2C383.793 162.629 384.558 162.844 385.491 162.844C386.425 162.844 387.19 162.629 387.787 162.2C388.385 161.771 388.823 161.155 389.103 160.352C389.383 159.531 389.523 158.56 389.523 157.44C389.523 156.283 389.374 155.312 389.075 154.528C388.795 153.744 388.357 153.147 387.759 152.736C387.181 152.307 386.415 152.092 385.463 152.092C384.063 152.092 383.046 152.559 382.411 153.492C381.777 154.425 381.459 155.741 381.459 157.44ZM406.362 160.744C406.362 161.733 406.119 162.564 405.634 163.236C405.148 163.908 404.448 164.421 403.534 164.776C402.619 165.112 401.518 165.28 400.23 165.28C399.166 165.28 398.251 165.196 397.486 165.028C396.739 164.879 396.048 164.655 395.414 164.356V161.752C396.086 162.069 396.86 162.359 397.738 162.62C398.615 162.863 399.474 162.984 400.314 162.984C401.434 162.984 402.236 162.807 402.722 162.452C403.226 162.097 403.478 161.621 403.478 161.024C403.478 160.688 403.384 160.389 403.198 160.128C403.011 159.848 402.656 159.568 402.134 159.288C401.63 158.989 400.883 158.653 399.894 158.28C398.942 157.888 398.13 157.505 397.458 157.132C396.786 156.74 396.272 156.283 395.918 155.76C395.563 155.219 395.386 154.528 395.386 153.688C395.386 152.381 395.908 151.383 396.954 150.692C398.018 149.983 399.418 149.628 401.154 149.628C402.068 149.628 402.927 149.721 403.73 149.908C404.551 150.076 405.344 150.337 406.11 150.692L405.13 152.96C404.7 152.755 404.252 152.587 403.786 152.456C403.338 152.307 402.88 152.185 402.414 152.092C401.966 151.999 401.499 151.952 401.014 151.952C400.118 151.952 399.436 152.092 398.97 152.372C398.503 152.652 398.27 153.044 398.27 153.548C398.27 153.903 398.372 154.211 398.578 154.472C398.802 154.733 399.184 154.995 399.726 155.256C400.267 155.517 401.004 155.835 401.938 156.208C402.871 156.563 403.664 156.927 404.318 157.3C404.99 157.673 405.494 158.131 405.83 158.672C406.184 159.213 406.362 159.904 406.362 160.744ZM415.332 162.872C415.724 162.872 416.126 162.835 416.536 162.76C416.947 162.685 417.302 162.601 417.6 162.508V164.748C417.283 164.897 416.854 165.019 416.312 165.112C415.771 165.224 415.23 165.28 414.688 165.28C413.867 165.28 413.111 165.14 412.42 164.86C411.748 164.58 411.207 164.095 410.796 163.404C410.386 162.713 410.18 161.752 410.18 160.52V152.176H408.08V150.832L410.292 149.712L411.328 146.52H413.148V149.908H417.46V152.176H413.148V160.464C413.148 161.285 413.344 161.892 413.736 162.284C414.147 162.676 414.679 162.872 415.332 162.872ZM426.555 149.628C427.88 149.628 429.019 149.908 429.971 150.468C430.923 151.009 431.651 151.793 432.155 152.82C432.678 153.847 432.939 155.06 432.939 156.46V158.084H422.803C422.84 159.633 423.242 160.819 424.007 161.64C424.791 162.461 425.883 162.872 427.283 162.872C428.254 162.872 429.112 162.788 429.859 162.62C430.624 162.433 431.408 162.163 432.211 161.808V164.272C431.464 164.608 430.699 164.86 429.915 165.028C429.15 165.196 428.235 165.28 427.171 165.28C425.715 165.28 424.427 164.991 423.307 164.412C422.187 163.833 421.31 162.975 420.675 161.836C420.059 160.679 419.751 159.26 419.751 157.58C419.751 155.881 420.031 154.444 420.591 153.268C421.17 152.092 421.963 151.196 422.971 150.58C423.998 149.945 425.192 149.628 426.555 149.628ZM426.555 151.924C425.491 151.924 424.632 152.269 423.979 152.96C423.344 153.651 422.971 154.631 422.859 155.9H429.971C429.971 155.116 429.85 154.425 429.607 153.828C429.364 153.231 428.991 152.764 428.487 152.428C427.983 152.092 427.339 151.924 426.555 151.924ZM444.09 149.628C444.352 149.628 444.641 149.647 444.958 149.684C445.276 149.703 445.537 149.731 445.742 149.768L445.434 152.54C445.229 152.484 444.986 152.437 444.706 152.4C444.426 152.363 444.165 152.344 443.922 152.344C443.362 152.344 442.821 152.456 442.298 152.68C441.794 152.885 441.337 153.193 440.926 153.604C440.516 153.996 440.189 154.481 439.946 155.06C439.722 155.639 439.61 156.301 439.61 157.048V165H436.642V149.908H438.994L439.386 152.596H439.498C439.816 152.055 440.198 151.56 440.646 151.112C441.094 150.664 441.608 150.309 442.186 150.048C442.765 149.768 443.4 149.628 444.09 149.628ZM451.505 149.908V165H448.537V149.908H451.505ZM450.049 144.168C450.497 144.168 450.889 144.299 451.225 144.56C451.561 144.821 451.729 145.26 451.729 145.876C451.729 146.473 451.561 146.912 451.225 147.192C450.889 147.453 450.497 147.584 450.049 147.584C449.564 147.584 449.153 147.453 448.817 147.192C448.5 146.912 448.341 146.473 448.341 145.876C448.341 145.26 448.5 144.821 448.817 144.56C449.153 144.299 449.564 144.168 450.049 144.168ZM463.81 149.628C465.564 149.628 466.908 150.067 467.842 150.944C468.775 151.821 469.242 153.231 469.242 155.172V165H466.302V155.592C466.302 154.416 466.05 153.539 465.546 152.96C465.06 152.363 464.276 152.064 463.194 152.064C461.663 152.064 460.599 152.521 460.002 153.436C459.423 154.351 459.134 155.667 459.134 157.384V165H456.166V149.908H458.518L458.938 151.924H459.106C459.442 151.401 459.852 150.972 460.338 150.636C460.823 150.3 461.364 150.048 461.962 149.88C462.559 149.712 463.175 149.628 463.81 149.628ZM479.011 149.628C479.981 149.628 480.859 149.815 481.643 150.188C482.427 150.561 483.089 151.131 483.631 151.896H483.771L484.107 149.908H486.515V165.196C486.515 166.615 486.263 167.809 485.759 168.78C485.255 169.751 484.48 170.479 483.435 170.964C482.408 171.468 481.111 171.72 479.543 171.72C478.46 171.72 477.461 171.645 476.547 171.496C475.632 171.347 474.792 171.113 474.027 170.796V168.192C474.568 168.453 475.137 168.668 475.735 168.836C476.332 169.023 476.967 169.153 477.639 169.228C478.311 169.321 479.001 169.368 479.711 169.368C480.943 169.368 481.895 169.013 482.567 168.304C483.239 167.613 483.575 166.633 483.575 165.364V164.86C483.575 164.617 483.584 164.3 483.603 163.908C483.621 163.497 483.64 163.199 483.659 163.012H483.547C483.024 163.796 482.38 164.375 481.615 164.748C480.868 165.103 480 165.28 479.011 165.28C477.107 165.28 475.613 164.599 474.531 163.236C473.467 161.855 472.935 159.941 472.935 157.496C472.935 155.853 473.177 154.453 473.663 153.296C474.148 152.12 474.839 151.215 475.735 150.58C476.649 149.945 477.741 149.628 479.011 149.628ZM479.627 152.092C478.843 152.092 478.18 152.307 477.639 152.736C477.097 153.147 476.687 153.753 476.407 154.556C476.127 155.359 475.987 156.348 475.987 157.524C475.987 159.279 476.295 160.613 476.911 161.528C477.545 162.443 478.469 162.9 479.683 162.9C480.392 162.9 480.989 162.807 481.475 162.62C481.979 162.433 482.389 162.144 482.707 161.752C483.043 161.36 483.285 160.865 483.435 160.268C483.603 159.652 483.687 158.915 483.687 158.056V157.496C483.687 156.208 483.537 155.172 483.239 154.388C482.959 153.585 482.52 153.007 481.923 152.652C481.325 152.279 480.56 152.092 479.627 152.092ZM359.151 187.908V203H356.183V187.908H359.151ZM357.695 182.168C358.143 182.168 358.535 182.299 358.871 182.56C359.207 182.821 359.375 183.26 359.375 183.876C359.375 184.473 359.207 184.912 358.871 185.192C358.535 185.453 358.143 185.584 357.695 185.584C357.21 185.584 356.799 185.453 356.463 185.192C356.146 184.912 355.987 184.473 355.987 183.876C355.987 183.26 356.146 182.821 356.463 182.56C356.799 182.299 357.21 182.168 357.695 182.168ZM371.456 187.628C373.211 187.628 374.555 188.067 375.488 188.944C376.422 189.821 376.888 191.231 376.888 193.172V203H373.948V193.592C373.948 192.416 373.696 191.539 373.192 190.96C372.707 190.363 371.923 190.064 370.84 190.064C369.31 190.064 368.246 190.521 367.648 191.436C367.07 192.351 366.78 193.667 366.78 195.384V203H363.812V187.908H366.164L366.584 189.924H366.752C367.088 189.401 367.499 188.972 367.984 188.636C368.47 188.3 369.011 188.048 369.608 187.88C370.206 187.712 370.822 187.628 371.456 187.628ZM389.093 187.628C390.848 187.628 392.192 188.067 393.125 188.944C394.058 189.821 394.525 191.231 394.525 193.172V203H391.585V193.592C391.585 192.416 391.333 191.539 390.829 190.96C390.344 190.363 389.56 190.064 388.477 190.064C386.946 190.064 385.882 190.521 385.285 191.436C384.706 192.351 384.417 193.667 384.417 195.384V203H381.449V187.908H383.801L384.221 189.924H384.389C384.725 189.401 385.136 188.972 385.621 188.636C386.106 188.3 386.648 188.048 387.245 187.88C387.842 187.712 388.458 187.628 389.093 187.628ZM412.386 195.44C412.386 196.691 412.218 197.801 411.882 198.772C411.546 199.743 411.07 200.564 410.454 201.236C409.838 201.908 409.091 202.421 408.214 202.776C407.336 203.112 406.347 203.28 405.246 203.28C404.238 203.28 403.304 203.112 402.446 202.776C401.587 202.421 400.84 201.908 400.206 201.236C399.59 200.564 399.104 199.743 398.75 198.772C398.395 197.801 398.218 196.681 398.218 195.412C398.218 193.751 398.498 192.341 399.058 191.184C399.636 190.027 400.458 189.149 401.522 188.552C402.604 187.936 403.874 187.628 405.33 187.628C406.711 187.628 407.924 187.936 408.97 188.552C410.034 189.149 410.864 190.027 411.462 191.184C412.078 192.341 412.386 193.76 412.386 195.44ZM401.27 195.44C401.27 196.56 401.41 197.531 401.69 198.352C401.97 199.155 402.408 199.771 403.006 200.2C403.603 200.629 404.368 200.844 405.302 200.844C406.235 200.844 407 200.629 407.598 200.2C408.195 199.771 408.634 199.155 408.914 198.352C409.194 197.531 409.334 196.56 409.334 195.44C409.334 194.283 409.184 193.312 408.886 192.528C408.606 191.744 408.167 191.147 407.57 190.736C406.991 190.307 406.226 190.092 405.274 190.092C403.874 190.092 402.856 190.559 402.222 191.492C401.587 192.425 401.27 193.741 401.27 195.44ZM418.989 203L413.277 187.908H416.413L419.549 196.728C419.68 197.101 419.811 197.521 419.941 197.988C420.091 198.455 420.221 198.903 420.333 199.332C420.445 199.761 420.52 200.135 420.557 200.452H420.669C420.725 200.135 420.809 199.761 420.921 199.332C421.052 198.884 421.192 198.436 421.341 197.988C421.491 197.521 421.621 197.101 421.733 196.728L424.869 187.908H428.005L422.265 203H418.989ZM436.192 187.628C438.096 187.628 439.514 188.048 440.448 188.888C441.381 189.709 441.848 191.007 441.848 192.78V203H439.748L439.16 200.9H439.048C438.618 201.441 438.17 201.889 437.704 202.244C437.256 202.599 436.733 202.86 436.136 203.028C435.557 203.196 434.848 203.28 434.008 203.28C433.112 203.28 432.3 203.121 431.572 202.804C430.862 202.468 430.302 201.964 429.892 201.292C429.481 200.601 429.276 199.743 429.276 198.716C429.276 197.185 429.854 196.019 431.012 195.216C432.188 194.413 433.97 193.975 436.36 193.9L438.936 193.816V192.976C438.936 191.856 438.684 191.072 438.18 190.624C437.676 190.176 436.966 189.952 436.052 189.952C435.268 189.952 434.521 190.064 433.812 190.288C433.102 190.512 432.43 190.783 431.796 191.1L430.844 188.944C431.553 188.571 432.365 188.263 433.28 188.02C434.213 187.759 435.184 187.628 436.192 187.628ZM436.892 195.804C435.174 195.879 433.98 196.168 433.308 196.672C432.654 197.157 432.328 197.848 432.328 198.744C432.328 199.528 432.561 200.097 433.028 200.452C433.513 200.807 434.12 200.984 434.848 200.984C436.024 200.984 436.994 200.657 437.76 200.004C438.525 199.351 438.908 198.371 438.908 197.064V195.748L436.892 195.804ZM451.85 200.872C452.242 200.872 452.643 200.835 453.054 200.76C453.464 200.685 453.819 200.601 454.118 200.508V202.748C453.8 202.897 453.371 203.019 452.83 203.112C452.288 203.224 451.747 203.28 451.206 203.28C450.384 203.28 449.628 203.14 448.938 202.86C448.266 202.58 447.724 202.095 447.314 201.404C446.903 200.713 446.698 199.752 446.698 198.52V190.176H444.598V188.832L446.81 187.712L447.846 184.52H449.666V187.908H453.978V190.176H449.666V198.464C449.666 199.285 449.862 199.892 450.254 200.284C450.664 200.676 451.196 200.872 451.85 200.872ZM460.105 187.908V203H457.137V187.908H460.105ZM458.649 182.168C459.097 182.168 459.489 182.299 459.825 182.56C460.161 182.821 460.329 183.26 460.329 183.876C460.329 184.473 460.161 184.912 459.825 185.192C459.489 185.453 459.097 185.584 458.649 185.584C458.163 185.584 457.753 185.453 457.417 185.192C457.099 184.912 456.941 184.473 456.941 183.876C456.941 183.26 457.099 182.821 457.417 182.56C457.753 182.299 458.163 182.168 458.649 182.168ZM478.065 195.44C478.065 196.691 477.897 197.801 477.561 198.772C477.225 199.743 476.749 200.564 476.133 201.236C475.517 201.908 474.771 202.421 473.893 202.776C473.016 203.112 472.027 203.28 470.925 203.28C469.917 203.28 468.984 203.112 468.125 202.776C467.267 202.421 466.52 201.908 465.885 201.236C465.269 200.564 464.784 199.743 464.429 198.772C464.075 197.801 463.897 196.681 463.897 195.412C463.897 193.751 464.177 192.341 464.737 191.184C465.316 190.027 466.137 189.149 467.201 188.552C468.284 187.936 469.553 187.628 471.009 187.628C472.391 187.628 473.604 187.936 474.649 188.552C475.713 189.149 476.544 190.027 477.141 191.184C477.757 192.341 478.065 193.76 478.065 195.44ZM466.949 195.44C466.949 196.56 467.089 197.531 467.369 198.352C467.649 199.155 468.088 199.771 468.685 200.2C469.283 200.629 470.048 200.844 470.981 200.844C471.915 200.844 472.68 200.629 473.277 200.2C473.875 199.771 474.313 199.155 474.593 198.352C474.873 197.531 475.013 196.56 475.013 195.44C475.013 194.283 474.864 193.312 474.565 192.528C474.285 191.744 473.847 191.147 473.249 190.736C472.671 190.307 471.905 190.092 470.953 190.092C469.553 190.092 468.536 190.559 467.901 191.492C467.267 192.425 466.949 193.741 466.949 195.44ZM489.472 187.628C491.227 187.628 492.571 188.067 493.504 188.944C494.437 189.821 494.904 191.231 494.904 193.172V203H491.964V193.592C491.964 192.416 491.712 191.539 491.208 190.96C490.723 190.363 489.939 190.064 488.856 190.064C487.325 190.064 486.261 190.521 485.664 191.436C485.085 192.351 484.796 193.667 484.796 195.384V203H481.828V187.908H484.18L484.6 189.924H484.768C485.104 189.401 485.515 188.972 486 188.636C486.485 188.3 487.027 188.048 487.624 187.88C488.221 187.712 488.837 187.628 489.472 187.628ZM334.582 225.628C336.486 225.628 337.905 226.048 338.838 226.888C339.772 227.709 340.238 229.007 340.238 230.78V241H338.138L337.55 238.9H337.438C337.009 239.441 336.561 239.889 336.094 240.244C335.646 240.599 335.124 240.86 334.526 241.028C333.948 241.196 333.238 241.28 332.398 241.28C331.502 241.28 330.69 241.121 329.962 240.804C329.253 240.468 328.693 239.964 328.282 239.292C327.872 238.601 327.666 237.743 327.666 236.716C327.666 235.185 328.245 234.019 329.402 233.216C330.578 232.413 332.361 231.975 334.75 231.9L337.326 231.816V230.976C337.326 229.856 337.074 229.072 336.57 228.624C336.066 228.176 335.357 227.952 334.442 227.952C333.658 227.952 332.912 228.064 332.202 228.288C331.493 228.512 330.821 228.783 330.186 229.1L329.234 226.944C329.944 226.571 330.756 226.263 331.67 226.02C332.604 225.759 333.574 225.628 334.582 225.628ZM335.282 233.804C333.565 233.879 332.37 234.168 331.698 234.672C331.045 235.157 330.718 235.848 330.718 236.744C330.718 237.528 330.952 238.097 331.418 238.452C331.904 238.807 332.51 238.984 333.238 238.984C334.414 238.984 335.385 238.657 336.15 238.004C336.916 237.351 337.298 236.371 337.298 235.064V233.748L335.282 233.804ZM352.452 225.628C354.207 225.628 355.551 226.067 356.484 226.944C357.418 227.821 357.884 229.231 357.884 231.172V241H354.944V231.592C354.944 230.416 354.692 229.539 354.188 228.96C353.703 228.363 352.919 228.064 351.836 228.064C350.306 228.064 349.242 228.521 348.644 229.436C348.066 230.351 347.776 231.667 347.776 233.384V241H344.808V225.908H347.16L347.58 227.924H347.748C348.084 227.401 348.495 226.972 348.98 226.636C349.466 226.3 350.007 226.048 350.604 225.88C351.202 225.712 351.818 225.628 352.452 225.628ZM367.625 241.28C365.814 241.28 364.349 240.627 363.229 239.32C362.128 238.013 361.577 236.072 361.577 233.496C361.577 230.901 362.137 228.941 363.257 227.616C364.377 226.291 365.852 225.628 367.681 225.628C368.446 225.628 369.109 225.731 369.669 225.936C370.248 226.123 370.742 226.384 371.153 226.72C371.582 227.056 371.946 227.429 372.245 227.84H372.413C372.376 227.579 372.329 227.205 372.273 226.72C372.217 226.216 372.189 225.768 372.189 225.376V219.72H375.157V241H372.833L372.329 238.984H372.189C371.909 239.413 371.554 239.805 371.125 240.16C370.714 240.496 370.22 240.767 369.641 240.972C369.062 241.177 368.39 241.28 367.625 241.28ZM368.325 238.844C369.781 238.844 370.808 238.443 371.405 237.64C372.002 236.819 372.301 235.596 372.301 233.972V233.524C372.301 231.751 372.012 230.397 371.433 229.464C370.873 228.531 369.828 228.064 368.297 228.064C367.084 228.064 366.169 228.559 365.553 229.548C364.937 230.519 364.629 231.853 364.629 233.552C364.629 235.251 364.937 236.557 365.553 237.472C366.169 238.387 367.093 238.844 368.325 238.844ZM390.05 225.908V241H387.082V225.908H390.05ZM388.594 220.168C389.042 220.168 389.434 220.299 389.77 220.56C390.106 220.821 390.274 221.26 390.274 221.876C390.274 222.473 390.106 222.912 389.77 223.192C389.434 223.453 389.042 223.584 388.594 223.584C388.108 223.584 387.698 223.453 387.362 223.192C387.044 222.912 386.886 222.473 386.886 221.876C386.886 221.26 387.044 220.821 387.362 220.56C387.698 220.299 388.108 220.168 388.594 220.168ZM402.355 225.628C404.109 225.628 405.453 226.067 406.387 226.944C407.32 227.821 407.787 229.231 407.787 231.172V241H404.847V231.592C404.847 230.416 404.595 229.539 404.091 228.96C403.605 228.363 402.821 228.064 401.739 228.064C400.208 228.064 399.144 228.521 398.547 229.436C397.968 230.351 397.679 231.667 397.679 233.384V241H394.711V225.908H397.063L397.483 227.924H397.651C397.987 227.401 398.397 226.972 398.883 226.636C399.368 226.3 399.909 226.048 400.507 225.88C401.104 225.712 401.72 225.628 402.355 225.628ZM418.423 241.28C417.042 241.28 415.829 241.009 414.783 240.468C413.738 239.927 412.926 239.087 412.347 237.948C411.769 236.791 411.479 235.325 411.479 233.552C411.479 231.685 411.787 230.173 412.403 229.016C413.038 227.859 413.887 227.009 414.951 226.468C416.034 225.908 417.266 225.628 418.647 225.628C419.487 225.628 420.271 225.721 420.999 225.908C421.746 226.076 422.362 226.272 422.847 226.496L421.951 228.904C421.429 228.699 420.869 228.521 420.271 228.372C419.693 228.223 419.142 228.148 418.619 228.148C417.686 228.148 416.911 228.353 416.295 228.764C415.698 229.156 415.25 229.753 414.951 230.556C414.671 231.34 414.531 232.329 414.531 233.524C414.531 234.663 414.681 235.624 414.979 236.408C415.278 237.192 415.717 237.789 416.295 238.2C416.893 238.592 417.63 238.788 418.507 238.788C419.347 238.788 420.085 238.695 420.719 238.508C421.354 238.321 421.951 238.079 422.511 237.78V240.356C421.97 240.673 421.382 240.907 420.747 241.056C420.113 241.205 419.338 241.28 418.423 241.28ZM429.042 241H426.074V219.72H429.042V241ZM446.695 225.908V241H444.315L443.895 239.012H443.755C443.438 239.535 443.027 239.964 442.523 240.3C442.019 240.636 441.468 240.879 440.871 241.028C440.274 241.196 439.658 241.28 439.023 241.28C437.847 241.28 436.848 241.093 436.027 240.72C435.224 240.328 434.608 239.731 434.179 238.928C433.768 238.107 433.563 237.061 433.563 235.792V225.908H436.559V235.344C436.559 236.52 436.802 237.397 437.287 237.976C437.791 238.555 438.566 238.844 439.611 238.844C440.656 238.844 441.478 238.639 442.075 238.228C442.672 237.817 443.092 237.22 443.335 236.436C443.596 235.633 443.727 234.672 443.727 233.552V225.908H446.695ZM461.364 236.744C461.364 237.733 461.121 238.564 460.636 239.236C460.15 239.908 459.45 240.421 458.536 240.776C457.621 241.112 456.52 241.28 455.232 241.28C454.168 241.28 453.253 241.196 452.488 241.028C451.741 240.879 451.05 240.655 450.416 240.356V237.752C451.088 238.069 451.862 238.359 452.74 238.62C453.617 238.863 454.476 238.984 455.316 238.984C456.436 238.984 457.238 238.807 457.724 238.452C458.228 238.097 458.48 237.621 458.48 237.024C458.48 236.688 458.386 236.389 458.2 236.128C458.013 235.848 457.658 235.568 457.136 235.288C456.632 234.989 455.885 234.653 454.896 234.28C453.944 233.888 453.132 233.505 452.46 233.132C451.788 232.74 451.274 232.283 450.92 231.76C450.565 231.219 450.388 230.528 450.388 229.688C450.388 228.381 450.91 227.383 451.956 226.692C453.02 225.983 454.42 225.628 456.156 225.628C457.07 225.628 457.929 225.721 458.732 225.908C459.553 226.076 460.346 226.337 461.112 226.692L460.132 228.96C459.702 228.755 459.254 228.587 458.788 228.456C458.34 228.307 457.882 228.185 457.416 228.092C456.968 227.999 456.501 227.952 456.016 227.952C455.12 227.952 454.438 228.092 453.972 228.372C453.505 228.652 453.272 229.044 453.272 229.548C453.272 229.903 453.374 230.211 453.58 230.472C453.804 230.733 454.186 230.995 454.728 231.256C455.269 231.517 456.006 231.835 456.94 232.208C457.873 232.563 458.666 232.927 459.32 233.3C459.992 233.673 460.496 234.131 460.832 234.672C461.186 235.213 461.364 235.904 461.364 236.744ZM467.87 225.908V241H464.902V225.908H467.87ZM466.414 220.168C466.862 220.168 467.254 220.299 467.59 220.56C467.926 220.821 468.094 221.26 468.094 221.876C468.094 222.473 467.926 222.912 467.59 223.192C467.254 223.453 466.862 223.584 466.414 223.584C465.929 223.584 465.518 223.453 465.182 223.192C464.865 222.912 464.706 222.473 464.706 221.876C464.706 221.26 464.865 220.821 465.182 220.56C465.518 220.299 465.929 220.168 466.414 220.168ZM475.919 241L470.207 225.908H473.343L476.479 234.728C476.61 235.101 476.74 235.521 476.871 235.988C477.02 236.455 477.151 236.903 477.263 237.332C477.375 237.761 477.45 238.135 477.487 238.452H477.599C477.655 238.135 477.739 237.761 477.851 237.332C477.982 236.884 478.122 236.436 478.271 235.988C478.42 235.521 478.551 235.101 478.663 234.728L481.799 225.908H484.935L479.195 241H475.919ZM490.237 225.908V241H487.269V225.908H490.237ZM488.781 220.168C489.229 220.168 489.621 220.299 489.957 220.56C490.293 220.821 490.461 221.26 490.461 221.876C490.461 222.473 490.293 222.912 489.957 223.192C489.621 223.453 489.229 223.584 488.781 223.584C488.296 223.584 487.885 223.453 487.549 223.192C487.232 222.912 487.073 222.473 487.073 221.876C487.073 221.26 487.232 220.821 487.549 220.56C487.885 220.299 488.296 220.168 488.781 220.168ZM500.33 238.872C500.722 238.872 501.124 238.835 501.534 238.76C501.945 238.685 502.3 238.601 502.598 238.508V240.748C502.281 240.897 501.852 241.019 501.31 241.112C500.769 241.224 500.228 241.28 499.686 241.28C498.865 241.28 498.109 241.14 497.418 240.86C496.746 240.58 496.205 240.095 495.794 239.404C495.384 238.713 495.178 237.752 495.178 236.52V228.176H493.078V226.832L495.29 225.712L496.326 222.52H498.146V225.908H502.458V228.176H498.146V236.464C498.146 237.285 498.342 237.892 498.734 238.284C499.145 238.676 499.677 238.872 500.33 238.872ZM503.321 225.908H506.513L509.649 234.476C509.817 234.905 509.966 235.325 510.097 235.736C510.228 236.147 510.34 236.557 510.433 236.968C510.545 237.36 510.629 237.752 510.685 238.144H510.797C510.89 237.659 511.04 237.089 511.245 236.436C511.45 235.764 511.665 235.101 511.889 234.448L514.857 225.908H518.049L511.581 243.044C511.226 244.015 510.788 244.845 510.265 245.536C509.742 246.245 509.117 246.787 508.389 247.16C507.68 247.533 506.84 247.72 505.869 247.72C505.402 247.72 505.001 247.692 504.665 247.636C504.329 247.599 504.04 247.552 503.797 247.496V245.144C504.002 245.181 504.245 245.219 504.525 245.256C504.824 245.293 505.132 245.312 505.449 245.312C506.028 245.312 506.522 245.2 506.933 244.976C507.362 244.752 507.717 244.435 507.997 244.024C508.296 243.613 508.548 243.147 508.753 242.624L509.369 241L503.321 225.908ZM522.566 238.06C522.398 238.713 522.183 239.423 521.922 240.188C521.66 240.953 521.38 241.709 521.082 242.456C520.783 243.221 520.475 243.94 520.158 244.612H518.002C518.188 243.884 518.366 243.109 518.534 242.288C518.72 241.485 518.888 240.692 519.038 239.908C519.187 239.124 519.308 238.405 519.402 237.752H522.37L522.566 238.06ZM342.126 263.628C342.387 263.628 342.676 263.647 342.994 263.684C343.311 263.703 343.572 263.731 343.778 263.768L343.47 266.54C343.264 266.484 343.022 266.437 342.742 266.4C342.462 266.363 342.2 266.344 341.958 266.344C341.398 266.344 340.856 266.456 340.334 266.68C339.83 266.885 339.372 267.193 338.962 267.604C338.551 267.996 338.224 268.481 337.982 269.06C337.758 269.639 337.646 270.301 337.646 271.048V279H334.678V263.908H337.03L337.422 266.596H337.534C337.851 266.055 338.234 265.56 338.682 265.112C339.13 264.664 339.643 264.309 340.222 264.048C340.8 263.768 341.435 263.628 342.126 263.628ZM351.961 263.628C353.287 263.628 354.425 263.908 355.377 264.468C356.329 265.009 357.057 265.793 357.561 266.82C358.084 267.847 358.345 269.06 358.345 270.46V272.084H348.209C348.247 273.633 348.648 274.819 349.413 275.64C350.197 276.461 351.289 276.872 352.689 276.872C353.66 276.872 354.519 276.788 355.265 276.62C356.031 276.433 356.815 276.163 357.617 275.808V278.272C356.871 278.608 356.105 278.86 355.321 279.028C354.556 279.196 353.641 279.28 352.577 279.28C351.121 279.28 349.833 278.991 348.713 278.412C347.593 277.833 346.716 276.975 346.081 275.836C345.465 274.679 345.157 273.26 345.157 271.58C345.157 269.881 345.437 268.444 345.997 267.268C346.576 266.092 347.369 265.196 348.377 264.58C349.404 263.945 350.599 263.628 351.961 263.628ZM351.961 265.924C350.897 265.924 350.039 266.269 349.385 266.96C348.751 267.651 348.377 268.631 348.265 269.9H355.377C355.377 269.116 355.256 268.425 355.013 267.828C354.771 267.231 354.397 266.764 353.893 266.428C353.389 266.092 352.745 265.924 351.961 265.924ZM372.073 274.744C372.073 275.733 371.83 276.564 371.345 277.236C370.859 277.908 370.159 278.421 369.245 278.776C368.33 279.112 367.229 279.28 365.941 279.28C364.877 279.28 363.962 279.196 363.197 279.028C362.45 278.879 361.759 278.655 361.125 278.356V275.752C361.797 276.069 362.571 276.359 363.449 276.62C364.326 276.863 365.185 276.984 366.025 276.984C367.145 276.984 367.947 276.807 368.433 276.452C368.937 276.097 369.189 275.621 369.189 275.024C369.189 274.688 369.095 274.389 368.909 274.128C368.722 273.848 368.367 273.568 367.845 273.288C367.341 272.989 366.594 272.653 365.605 272.28C364.653 271.888 363.841 271.505 363.169 271.132C362.497 270.74 361.983 270.283 361.629 269.76C361.274 269.219 361.097 268.528 361.097 267.688C361.097 266.381 361.619 265.383 362.665 264.692C363.729 263.983 365.129 263.628 366.865 263.628C367.779 263.628 368.638 263.721 369.441 263.908C370.262 264.076 371.055 264.337 371.821 264.692L370.841 266.96C370.411 266.755 369.963 266.587 369.497 266.456C369.049 266.307 368.591 266.185 368.125 266.092C367.677 265.999 367.21 265.952 366.725 265.952C365.829 265.952 365.147 266.092 364.681 266.372C364.214 266.652 363.981 267.044 363.981 267.548C363.981 267.903 364.083 268.211 364.289 268.472C364.513 268.733 364.895 268.995 365.437 269.256C365.978 269.517 366.715 269.835 367.649 270.208C368.582 270.563 369.375 270.927 370.029 271.3C370.701 271.673 371.205 272.131 371.541 272.672C371.895 273.213 372.073 273.904 372.073 274.744ZM378.579 263.404C378.579 263.871 378.56 264.337 378.523 264.804C378.486 265.271 378.448 265.653 378.411 265.952H378.607C378.924 265.429 379.316 265 379.783 264.664C380.268 264.328 380.8 264.076 381.379 263.908C381.976 263.74 382.583 263.656 383.199 263.656C384.394 263.656 385.392 263.852 386.195 264.244C387.016 264.617 387.632 265.215 388.043 266.036C388.472 266.839 388.687 267.884 388.687 269.172V279H385.747V269.592C385.747 268.416 385.495 267.539 384.991 266.96C384.506 266.363 383.722 266.064 382.639 266.064C381.612 266.064 380.8 266.269 380.203 266.68C379.624 267.091 379.204 267.697 378.943 268.5C378.7 269.284 378.579 270.255 378.579 271.412V279H375.611V257.72H378.579V263.404ZM399.1 263.628C401.004 263.628 402.422 264.048 403.356 264.888C404.289 265.709 404.756 267.007 404.756 268.78V279H402.656L402.068 276.9H401.956C401.526 277.441 401.078 277.889 400.612 278.244C400.164 278.599 399.641 278.86 399.044 279.028C398.465 279.196 397.756 279.28 396.916 279.28C396.02 279.28 395.208 279.121 394.48 278.804C393.77 278.468 393.21 277.964 392.8 277.292C392.389 276.601 392.184 275.743 392.184 274.716C392.184 273.185 392.762 272.019 393.92 271.216C395.096 270.413 396.878 269.975 399.268 269.9L401.844 269.816V268.976C401.844 267.856 401.592 267.072 401.088 266.624C400.584 266.176 399.874 265.952 398.96 265.952C398.176 265.952 397.429 266.064 396.72 266.288C396.01 266.512 395.338 266.783 394.704 267.1L393.752 264.944C394.461 264.571 395.273 264.263 396.188 264.02C397.121 263.759 398.092 263.628 399.1 263.628ZM399.8 271.804C398.082 271.879 396.888 272.168 396.216 272.672C395.562 273.157 395.236 273.848 395.236 274.744C395.236 275.528 395.469 276.097 395.936 276.452C396.421 276.807 397.028 276.984 397.756 276.984C398.932 276.984 399.902 276.657 400.668 276.004C401.433 275.351 401.816 274.371 401.816 273.064V271.748L399.8 271.804ZM416.858 263.628C418.669 263.628 420.125 264.281 421.226 265.588C422.346 266.895 422.906 268.845 422.906 271.44C422.906 273.139 422.654 274.576 422.15 275.752C421.646 276.928 420.937 277.815 420.022 278.412C419.107 278.991 418.043 279.28 416.83 279.28C416.065 279.28 415.393 279.187 414.814 279C414.235 278.795 413.741 278.533 413.33 278.216C412.938 277.88 412.593 277.525 412.294 277.152H412.098C412.154 277.488 412.201 277.889 412.238 278.356C412.275 278.804 412.294 279.205 412.294 279.56V285.72H409.326V263.908H411.734L412.154 265.924H412.294C412.593 265.513 412.947 265.131 413.358 264.776C413.769 264.421 414.263 264.141 414.842 263.936C415.421 263.731 416.093 263.628 416.858 263.628ZM416.158 266.064C415.225 266.064 414.478 266.251 413.918 266.624C413.358 266.979 412.947 267.52 412.686 268.248C412.443 268.957 412.313 269.863 412.294 270.964V271.412C412.294 272.569 412.415 273.559 412.658 274.38C412.901 275.183 413.302 275.799 413.862 276.228C414.441 276.639 415.225 276.844 416.214 276.844C417.054 276.844 417.735 276.62 418.258 276.172C418.799 275.705 419.201 275.061 419.462 274.24C419.723 273.419 419.854 272.467 419.854 271.384C419.854 269.741 419.555 268.444 418.958 267.492C418.361 266.54 417.427 266.064 416.158 266.064ZM429.657 263.908V279H426.689V263.908H429.657ZM428.201 258.168C428.649 258.168 429.041 258.299 429.377 258.56C429.713 258.821 429.881 259.26 429.881 259.876C429.881 260.473 429.713 260.912 429.377 261.192C429.041 261.453 428.649 261.584 428.201 261.584C427.716 261.584 427.305 261.453 426.969 261.192C426.652 260.912 426.493 260.473 426.493 259.876C426.493 259.26 426.652 258.821 426.969 258.56C427.305 258.299 427.716 258.168 428.201 258.168ZM441.962 263.628C443.717 263.628 445.061 264.067 445.994 264.944C446.927 265.821 447.394 267.231 447.394 269.172V279H444.454V269.592C444.454 268.416 444.202 267.539 443.698 266.96C443.213 266.363 442.429 266.064 441.346 266.064C439.815 266.064 438.751 266.521 438.154 267.436C437.575 268.351 437.286 269.667 437.286 271.384V279H434.318V263.908H436.67L437.09 265.924H437.258C437.594 265.401 438.005 264.972 438.49 264.636C438.975 264.3 439.517 264.048 440.114 263.88C440.711 263.712 441.327 263.628 441.962 263.628ZM457.163 263.628C458.134 263.628 459.011 263.815 459.795 264.188C460.579 264.561 461.242 265.131 461.783 265.896H461.923L462.259 263.908H464.667V279.196C464.667 280.615 464.415 281.809 463.911 282.78C463.407 283.751 462.632 284.479 461.587 284.964C460.56 285.468 459.263 285.72 457.695 285.72C456.612 285.72 455.614 285.645 454.699 285.496C453.784 285.347 452.944 285.113 452.179 284.796V282.192C452.72 282.453 453.29 282.668 453.887 282.836C454.484 283.023 455.119 283.153 455.791 283.228C456.463 283.321 457.154 283.368 457.863 283.368C459.095 283.368 460.047 283.013 460.719 282.304C461.391 281.613 461.727 280.633 461.727 279.364V278.86C461.727 278.617 461.736 278.3 461.755 277.908C461.774 277.497 461.792 277.199 461.811 277.012H461.699C461.176 277.796 460.532 278.375 459.767 278.748C459.02 279.103 458.152 279.28 457.163 279.28C455.259 279.28 453.766 278.599 452.683 277.236C451.619 275.855 451.087 273.941 451.087 271.496C451.087 269.853 451.33 268.453 451.815 267.296C452.3 266.12 452.991 265.215 453.887 264.58C454.802 263.945 455.894 263.628 457.163 263.628ZM457.779 266.092C456.995 266.092 456.332 266.307 455.791 266.736C455.25 267.147 454.839 267.753 454.559 268.556C454.279 269.359 454.139 270.348 454.139 271.524C454.139 273.279 454.447 274.613 455.063 275.528C455.698 276.443 456.622 276.9 457.835 276.9C458.544 276.9 459.142 276.807 459.627 276.62C460.131 276.433 460.542 276.144 460.859 275.752C461.195 275.36 461.438 274.865 461.587 274.268C461.755 273.652 461.839 272.915 461.839 272.056V271.496C461.839 270.208 461.69 269.172 461.391 268.388C461.111 267.585 460.672 267.007 460.075 266.652C459.478 266.279 458.712 266.092 457.779 266.092ZM482.024 276.872C482.416 276.872 482.817 276.835 483.228 276.76C483.638 276.685 483.993 276.601 484.292 276.508V278.748C483.974 278.897 483.545 279.019 483.004 279.112C482.462 279.224 481.921 279.28 481.38 279.28C480.558 279.28 479.802 279.14 479.112 278.86C478.44 278.58 477.898 278.095 477.488 277.404C477.077 276.713 476.872 275.752 476.872 274.52V266.176H474.772V264.832L476.984 263.712L478.02 260.52H479.84V263.908H484.152V266.176H479.84V274.464C479.84 275.285 480.036 275.892 480.428 276.284C480.838 276.676 481.37 276.872 482.024 276.872ZM490.278 263.404C490.278 263.871 490.26 264.337 490.222 264.804C490.185 265.271 490.148 265.653 490.11 265.952H490.306C490.624 265.429 491.016 265 491.482 264.664C491.968 264.328 492.5 264.076 493.078 263.908C493.676 263.74 494.282 263.656 494.898 263.656C496.093 263.656 497.092 263.852 497.894 264.244C498.716 264.617 499.332 265.215 499.742 266.036C500.172 266.839 500.386 267.884 500.386 269.172V279H497.446V269.592C497.446 268.416 497.194 267.539 496.69 266.96C496.205 266.363 495.421 266.064 494.338 266.064C493.312 266.064 492.5 266.269 491.902 266.68C491.324 267.091 490.904 267.697 490.642 268.5C490.4 269.284 490.278 270.255 490.278 271.412V279H487.31V257.72H490.278V263.404ZM510.883 263.628C512.208 263.628 513.347 263.908 514.299 264.468C515.251 265.009 515.979 265.793 516.483 266.82C517.006 267.847 517.267 269.06 517.267 270.46V272.084H507.131C507.168 273.633 507.57 274.819 508.335 275.64C509.119 276.461 510.211 276.872 511.611 276.872C512.582 276.872 513.44 276.788 514.187 276.62C514.952 276.433 515.736 276.163 516.539 275.808V278.272C515.792 278.608 515.027 278.86 514.243 279.028C513.478 279.196 512.563 279.28 511.499 279.28C510.043 279.28 508.755 278.991 507.635 278.412C506.515 277.833 505.638 276.975 505.003 275.836C504.387 274.679 504.079 273.26 504.079 271.58C504.079 269.881 504.359 268.444 504.919 267.268C505.498 266.092 506.291 265.196 507.299 264.58C508.326 263.945 509.52 263.628 510.883 263.628ZM510.883 265.924C509.819 265.924 508.96 266.269 508.307 266.96C507.672 267.651 507.299 268.631 507.187 269.9H514.299C514.299 269.116 514.178 268.425 513.935 267.828C513.692 267.231 513.319 266.764 512.815 266.428C512.311 266.092 511.667 265.924 510.883 265.924ZM343.266 312.744C343.266 313.733 343.023 314.564 342.538 315.236C342.053 315.908 341.353 316.421 340.438 316.776C339.523 317.112 338.422 317.28 337.134 317.28C336.07 317.28 335.155 317.196 334.39 317.028C333.643 316.879 332.953 316.655 332.318 316.356V313.752C332.99 314.069 333.765 314.359 334.642 314.62C335.519 314.863 336.378 314.984 337.218 314.984C338.338 314.984 339.141 314.807 339.626 314.452C340.13 314.097 340.382 313.621 340.382 313.024C340.382 312.688 340.289 312.389 340.102 312.128C339.915 311.848 339.561 311.568 339.038 311.288C338.534 310.989 337.787 310.653 336.798 310.28C335.846 309.888 335.034 309.505 334.362 309.132C333.69 308.74 333.177 308.283 332.822 307.76C332.467 307.219 332.29 306.528 332.29 305.688C332.29 304.381 332.813 303.383 333.858 302.692C334.922 301.983 336.322 301.628 338.058 301.628C338.973 301.628 339.831 301.721 340.634 301.908C341.455 302.076 342.249 302.337 343.014 302.692L342.034 304.96C341.605 304.755 341.157 304.587 340.69 304.456C340.242 304.307 339.785 304.185 339.318 304.092C338.87 303.999 338.403 303.952 337.918 303.952C337.022 303.952 336.341 304.092 335.874 304.372C335.407 304.652 335.174 305.044 335.174 305.548C335.174 305.903 335.277 306.211 335.482 306.472C335.706 306.733 336.089 306.995 336.63 307.256C337.171 307.517 337.909 307.835 338.842 308.208C339.775 308.563 340.569 308.927 341.222 309.3C341.894 309.673 342.398 310.131 342.734 310.672C343.089 311.213 343.266 311.904 343.266 312.744ZM352.88 317.28C351.499 317.28 350.286 317.009 349.24 316.468C348.195 315.927 347.383 315.087 346.804 313.948C346.226 312.791 345.936 311.325 345.936 309.552C345.936 307.685 346.244 306.173 346.86 305.016C347.495 303.859 348.344 303.009 349.408 302.468C350.491 301.908 351.723 301.628 353.104 301.628C353.944 301.628 354.728 301.721 355.456 301.908C356.203 302.076 356.819 302.272 357.304 302.496L356.408 304.904C355.886 304.699 355.326 304.521 354.728 304.372C354.15 304.223 353.599 304.148 353.076 304.148C352.143 304.148 351.368 304.353 350.752 304.764C350.155 305.156 349.707 305.753 349.408 306.556C349.128 307.34 348.988 308.329 348.988 309.524C348.988 310.663 349.138 311.624 349.436 312.408C349.735 313.192 350.174 313.789 350.752 314.2C351.35 314.592 352.087 314.788 352.964 314.788C353.804 314.788 354.542 314.695 355.176 314.508C355.811 314.321 356.408 314.079 356.968 313.78V316.356C356.427 316.673 355.839 316.907 355.204 317.056C354.57 317.205 353.795 317.28 352.88 317.28ZM363.499 301.404C363.499 301.871 363.48 302.337 363.443 302.804C363.406 303.271 363.368 303.653 363.331 303.952H363.527C363.844 303.429 364.236 303 364.703 302.664C365.188 302.328 365.72 302.076 366.299 301.908C366.896 301.74 367.503 301.656 368.119 301.656C369.314 301.656 370.312 301.852 371.115 302.244C371.936 302.617 372.552 303.215 372.963 304.036C373.392 304.839 373.607 305.884 373.607 307.172V317H370.667V307.592C370.667 306.416 370.415 305.539 369.911 304.96C369.426 304.363 368.642 304.064 367.559 304.064C366.532 304.064 365.72 304.269 365.123 304.68C364.544 305.091 364.124 305.697 363.863 306.5C363.62 307.284 363.499 308.255 363.499 309.412V317H360.531V295.72H363.499V301.404ZM391.468 309.44C391.468 310.691 391.3 311.801 390.964 312.772C390.628 313.743 390.152 314.564 389.536 315.236C388.92 315.908 388.173 316.421 387.296 316.776C386.418 317.112 385.429 317.28 384.328 317.28C383.32 317.28 382.386 317.112 381.528 316.776C380.669 316.421 379.922 315.908 379.288 315.236C378.672 314.564 378.186 313.743 377.832 312.772C377.477 311.801 377.3 310.681 377.3 309.412C377.3 307.751 377.58 306.341 378.14 305.184C378.718 304.027 379.54 303.149 380.604 302.552C381.686 301.936 382.956 301.628 384.412 301.628C385.793 301.628 387.006 301.936 388.052 302.552C389.116 303.149 389.946 304.027 390.544 305.184C391.16 306.341 391.468 307.76 391.468 309.44ZM380.352 309.44C380.352 310.56 380.492 311.531 380.772 312.352C381.052 313.155 381.49 313.771 382.088 314.2C382.685 314.629 383.45 314.844 384.384 314.844C385.317 314.844 386.082 314.629 386.68 314.2C387.277 313.771 387.716 313.155 387.996 312.352C388.276 311.531 388.416 310.56 388.416 309.44C388.416 308.283 388.266 307.312 387.968 306.528C387.688 305.744 387.249 305.147 386.652 304.736C386.073 304.307 385.308 304.092 384.356 304.092C382.956 304.092 381.938 304.559 381.304 305.492C380.669 306.425 380.352 307.741 380.352 309.44ZM408.53 309.44C408.53 310.691 408.362 311.801 408.026 312.772C407.69 313.743 407.214 314.564 406.598 315.236C405.982 315.908 405.236 316.421 404.358 316.776C403.481 317.112 402.492 317.28 401.39 317.28C400.382 317.28 399.449 317.112 398.59 316.776C397.732 316.421 396.985 315.908 396.35 315.236C395.734 314.564 395.249 313.743 394.894 312.772C394.54 311.801 394.362 310.681 394.362 309.412C394.362 307.751 394.642 306.341 395.202 305.184C395.781 304.027 396.602 303.149 397.666 302.552C398.749 301.936 400.018 301.628 401.474 301.628C402.856 301.628 404.069 301.936 405.114 302.552C406.178 303.149 407.009 304.027 407.606 305.184C408.222 306.341 408.53 307.76 408.53 309.44ZM397.414 309.44C397.414 310.56 397.554 311.531 397.834 312.352C398.114 313.155 398.553 313.771 399.15 314.2C399.748 314.629 400.513 314.844 401.446 314.844C402.38 314.844 403.145 314.629 403.742 314.2C404.34 313.771 404.778 313.155 405.058 312.352C405.338 311.531 405.478 310.56 405.478 309.44C405.478 308.283 405.329 307.312 405.03 306.528C404.75 305.744 404.312 305.147 403.714 304.736C403.136 304.307 402.37 304.092 401.418 304.092C400.018 304.092 399.001 304.559 398.366 305.492C397.732 306.425 397.414 307.741 397.414 309.44ZM415.261 317H412.293V295.72H415.261V317ZM437.219 312.744C437.219 313.733 436.976 314.564 436.491 315.236C436.006 315.908 435.306 316.421 434.391 316.776C433.476 317.112 432.375 317.28 431.087 317.28C430.023 317.28 429.108 317.196 428.343 317.028C427.596 316.879 426.906 316.655 426.271 316.356V313.752C426.943 314.069 427.718 314.359 428.595 314.62C429.472 314.863 430.331 314.984 431.171 314.984C432.291 314.984 433.094 314.807 433.579 314.452C434.083 314.097 434.335 313.621 434.335 313.024C434.335 312.688 434.242 312.389 434.055 312.128C433.868 311.848 433.514 311.568 432.991 311.288C432.487 310.989 431.74 310.653 430.751 310.28C429.799 309.888 428.987 309.505 428.315 309.132C427.643 308.74 427.13 308.283 426.775 307.76C426.42 307.219 426.243 306.528 426.243 305.688C426.243 304.381 426.766 303.383 427.811 302.692C428.875 301.983 430.275 301.628 432.011 301.628C432.926 301.628 433.784 301.721 434.587 301.908C435.408 302.076 436.202 302.337 436.967 302.692L435.987 304.96C435.558 304.755 435.11 304.587 434.643 304.456C434.195 304.307 433.738 304.185 433.271 304.092C432.823 303.999 432.356 303.952 431.871 303.952C430.975 303.952 430.294 304.092 429.827 304.372C429.36 304.652 429.127 305.044 429.127 305.548C429.127 305.903 429.23 306.211 429.435 306.472C429.659 306.733 430.042 306.995 430.583 307.256C431.124 307.517 431.862 307.835 432.795 308.208C433.728 308.563 434.522 308.927 435.175 309.3C435.847 309.673 436.351 310.131 436.687 310.672C437.042 311.213 437.219 311.904 437.219 312.744ZM438.462 301.908H441.654L444.79 310.476C444.958 310.905 445.107 311.325 445.238 311.736C445.368 312.147 445.48 312.557 445.574 312.968C445.686 313.36 445.77 313.752 445.826 314.144H445.938C446.031 313.659 446.18 313.089 446.386 312.436C446.591 311.764 446.806 311.101 447.03 310.448L449.998 301.908H453.19L446.722 319.044C446.367 320.015 445.928 320.845 445.406 321.536C444.883 322.245 444.258 322.787 443.53 323.16C442.82 323.533 441.98 323.72 441.01 323.72C440.543 323.72 440.142 323.692 439.806 323.636C439.47 323.599 439.18 323.552 438.938 323.496V321.144C439.143 321.181 439.386 321.219 439.666 321.256C439.964 321.293 440.272 321.312 440.59 321.312C441.168 321.312 441.663 321.2 442.074 320.976C442.503 320.752 442.858 320.435 443.138 320.024C443.436 319.613 443.688 319.147 443.894 318.624L444.51 317L438.462 301.908ZM465.547 312.744C465.547 313.733 465.305 314.564 464.819 315.236C464.334 315.908 463.634 316.421 462.719 316.776C461.805 317.112 460.703 317.28 459.415 317.28C458.351 317.28 457.437 317.196 456.671 317.028C455.925 316.879 455.234 316.655 454.599 316.356V313.752C455.271 314.069 456.046 314.359 456.923 314.62C457.801 314.863 458.659 314.984 459.499 314.984C460.619 314.984 461.422 314.807 461.907 314.452C462.411 314.097 462.663 313.621 462.663 313.024C462.663 312.688 462.57 312.389 462.383 312.128C462.197 311.848 461.842 311.568 461.319 311.288C460.815 310.989 460.069 310.653 459.079 310.28C458.127 309.888 457.315 309.505 456.643 309.132C455.971 308.74 455.458 308.283 455.103 307.76C454.749 307.219 454.571 306.528 454.571 305.688C454.571 304.381 455.094 303.383 456.139 302.692C457.203 301.983 458.603 301.628 460.339 301.628C461.254 301.628 462.113 301.721 462.915 301.908C463.737 302.076 464.53 302.337 465.295 302.692L464.315 304.96C463.886 304.755 463.438 304.587 462.971 304.456C462.523 304.307 462.066 304.185 461.599 304.092C461.151 303.999 460.685 303.952 460.199 303.952C459.303 303.952 458.622 304.092 458.155 304.372C457.689 304.652 457.455 305.044 457.455 305.548C457.455 305.903 457.558 306.211 457.763 306.472C457.987 306.733 458.37 306.995 458.911 307.256C459.453 307.517 460.19 307.835 461.123 308.208C462.057 308.563 462.85 308.927 463.503 309.3C464.175 309.673 464.679 310.131 465.015 310.672C465.37 311.213 465.547 311.904 465.547 312.744ZM474.518 314.872C474.91 314.872 475.311 314.835 475.722 314.76C476.132 314.685 476.487 314.601 476.786 314.508V316.748C476.468 316.897 476.039 317.019 475.498 317.112C474.956 317.224 474.415 317.28 473.874 317.28C473.052 317.28 472.296 317.14 471.606 316.86C470.934 316.58 470.392 316.095 469.982 315.404C469.571 314.713 469.366 313.752 469.366 312.52V304.176H467.266V302.832L469.478 301.712L470.514 298.52H472.334V301.908H476.646V304.176H472.334V312.464C472.334 313.285 472.53 313.892 472.922 314.284C473.332 314.676 473.864 314.872 474.518 314.872ZM485.74 301.628C487.066 301.628 488.204 301.908 489.156 302.468C490.108 303.009 490.836 303.793 491.34 304.82C491.863 305.847 492.124 307.06 492.124 308.46V310.084H481.988C482.026 311.633 482.427 312.819 483.192 313.64C483.976 314.461 485.068 314.872 486.468 314.872C487.439 314.872 488.298 314.788 489.044 314.62C489.81 314.433 490.594 314.163 491.396 313.808V316.272C490.65 316.608 489.884 316.86 489.1 317.028C488.335 317.196 487.42 317.28 486.356 317.28C484.9 317.28 483.612 316.991 482.492 316.412C481.372 315.833 480.495 314.975 479.86 313.836C479.244 312.679 478.936 311.26 478.936 309.58C478.936 307.881 479.216 306.444 479.776 305.268C480.355 304.092 481.148 303.196 482.156 302.58C483.183 301.945 484.378 301.628 485.74 301.628ZM485.74 303.924C484.676 303.924 483.818 304.269 483.164 304.96C482.53 305.651 482.156 306.631 482.044 307.9H489.156C489.156 307.116 489.035 306.425 488.792 305.828C488.55 305.231 488.176 304.764 487.672 304.428C487.168 304.092 486.524 303.924 485.74 303.924ZM512.74 301.628C514.439 301.628 515.717 302.067 516.576 302.944C517.435 303.821 517.864 305.231 517.864 307.172V317H514.896V307.564C514.896 306.407 514.663 305.539 514.196 304.96C513.748 304.363 513.039 304.064 512.068 304.064C510.724 304.064 509.763 304.484 509.184 305.324C508.605 306.145 508.316 307.34 508.316 308.908V317H505.376V307.564C505.376 306.799 505.264 306.155 505.04 305.632C504.835 305.109 504.527 304.717 504.116 304.456C503.705 304.195 503.173 304.064 502.52 304.064C501.587 304.064 500.849 304.269 500.308 304.68C499.767 305.091 499.375 305.697 499.132 306.5C498.908 307.284 498.796 308.245 498.796 309.384V317H495.828V301.908H498.18L498.6 303.924H498.768C499.085 303.401 499.468 302.972 499.916 302.636C500.383 302.3 500.896 302.048 501.456 301.88C502.016 301.712 502.595 301.628 503.192 301.628C504.331 301.628 505.292 301.833 506.076 302.244C506.86 302.636 507.429 303.243 507.784 304.064H508.008C508.493 303.224 509.165 302.608 510.024 302.216C510.883 301.824 511.788 301.628 512.74 301.628ZM356.807 342.176H353.083V355H350.115V342.176H347.567V340.776L350.115 339.852V338.9C350.115 337.612 350.311 336.585 350.703 335.82C351.114 335.036 351.692 334.467 352.439 334.112C353.186 333.757 354.091 333.58 355.155 333.58C355.808 333.58 356.406 333.636 356.947 333.748C357.488 333.86 357.946 333.981 358.319 334.112L357.563 336.38C357.264 336.287 356.919 336.203 356.527 336.128C356.135 336.035 355.724 335.988 355.295 335.988C354.548 335.988 353.988 336.231 353.615 336.716C353.26 337.201 353.083 337.939 353.083 338.928V339.908H356.807V342.176ZM372.751 347.44C372.751 348.691 372.583 349.801 372.247 350.772C371.911 351.743 371.435 352.564 370.819 353.236C370.203 353.908 369.456 354.421 368.579 354.776C367.702 355.112 366.712 355.28 365.611 355.28C364.603 355.28 363.67 355.112 362.811 354.776C361.952 354.421 361.206 353.908 360.571 353.236C359.955 352.564 359.47 351.743 359.115 350.772C358.76 349.801 358.583 348.681 358.583 347.412C358.583 345.751 358.863 344.341 359.423 343.184C360.002 342.027 360.823 341.149 361.887 340.552C362.97 339.936 364.239 339.628 365.695 339.628C367.076 339.628 368.29 339.936 369.335 340.552C370.399 341.149 371.23 342.027 371.827 343.184C372.443 344.341 372.751 345.76 372.751 347.44ZM361.635 347.44C361.635 348.56 361.775 349.531 362.055 350.352C362.335 351.155 362.774 351.771 363.371 352.2C363.968 352.629 364.734 352.844 365.667 352.844C366.6 352.844 367.366 352.629 367.963 352.2C368.56 351.771 368.999 351.155 369.279 350.352C369.559 349.531 369.699 348.56 369.699 347.44C369.699 346.283 369.55 345.312 369.251 344.528C368.971 343.744 368.532 343.147 367.935 342.736C367.356 342.307 366.591 342.092 365.639 342.092C364.239 342.092 363.222 342.559 362.587 343.492C361.952 344.425 361.635 345.741 361.635 347.44ZM383.961 339.628C384.223 339.628 384.512 339.647 384.829 339.684C385.147 339.703 385.408 339.731 385.613 339.768L385.305 342.54C385.1 342.484 384.857 342.437 384.577 342.4C384.297 342.363 384.036 342.344 383.793 342.344C383.233 342.344 382.692 342.456 382.169 342.68C381.665 342.885 381.208 343.193 380.797 343.604C380.387 343.996 380.06 344.481 379.817 345.06C379.593 345.639 379.481 346.301 379.481 347.048V355H376.513V339.908H378.865L379.257 342.596H379.369C379.687 342.055 380.069 341.56 380.517 341.112C380.965 340.664 381.479 340.309 382.057 340.048C382.636 339.768 383.271 339.628 383.961 339.628ZM398.649 338.844C398.649 339.46 398.631 340.048 398.593 340.608C398.575 341.149 398.547 341.579 398.509 341.896H398.649C399.079 341.261 399.657 340.729 400.385 340.3C401.113 339.871 402.056 339.656 403.213 339.656C405.024 339.656 406.48 340.309 407.581 341.616C408.701 342.923 409.261 344.864 409.261 347.44C409.261 349.176 409.009 350.623 408.505 351.78C408.001 352.937 407.292 353.815 406.377 354.412C405.463 354.991 404.399 355.28 403.185 355.28C402.009 355.28 401.067 355.075 400.357 354.664C399.648 354.235 399.079 353.731 398.649 353.152H398.425L397.865 355H395.681V333.72H398.649V338.844ZM402.513 342.064C401.543 342.064 400.777 342.251 400.217 342.624C399.657 342.997 399.256 343.567 399.013 344.332C398.771 345.097 398.649 346.068 398.649 347.244V347.468C398.649 349.204 398.929 350.539 399.489 351.472C400.049 352.387 401.076 352.844 402.569 352.844C403.764 352.844 404.669 352.377 405.285 351.444C405.901 350.511 406.209 349.167 406.209 347.412C406.209 345.639 405.901 344.304 405.285 343.408C404.669 342.512 403.745 342.064 402.513 342.064ZM420.493 339.628C420.754 339.628 421.043 339.647 421.361 339.684C421.678 339.703 421.939 339.731 422.145 339.768L421.837 342.54C421.631 342.484 421.389 342.437 421.109 342.4C420.829 342.363 420.567 342.344 420.325 342.344C419.765 342.344 419.223 342.456 418.701 342.68C418.197 342.885 417.739 343.193 417.329 343.604C416.918 343.996 416.591 344.481 416.349 345.06C416.125 345.639 416.013 346.301 416.013 347.048V355H413.045V339.908H415.397L415.789 342.596H415.901C416.218 342.055 416.601 341.56 417.049 341.112C417.497 340.664 418.01 340.309 418.589 340.048C419.167 339.768 419.802 339.628 420.493 339.628ZM427.907 339.908V355H424.939V339.908H427.907ZM426.451 334.168C426.899 334.168 427.291 334.299 427.627 334.56C427.963 334.821 428.131 335.26 428.131 335.876C428.131 336.473 427.963 336.912 427.627 337.192C427.291 337.453 426.899 337.584 426.451 337.584C425.966 337.584 425.555 337.453 425.219 337.192C424.902 336.912 424.743 336.473 424.743 335.876C424.743 335.26 424.902 334.821 425.219 334.56C425.555 334.299 425.966 334.168 426.451 334.168ZM437.776 339.628C438.747 339.628 439.624 339.815 440.408 340.188C441.192 340.561 441.855 341.131 442.396 341.896H442.536L442.872 339.908H445.28V355.196C445.28 356.615 445.028 357.809 444.524 358.78C444.02 359.751 443.245 360.479 442.2 360.964C441.173 361.468 439.876 361.72 438.308 361.72C437.225 361.72 436.227 361.645 435.312 361.496C434.397 361.347 433.557 361.113 432.792 360.796V358.192C433.333 358.453 433.903 358.668 434.5 358.836C435.097 359.023 435.732 359.153 436.404 359.228C437.076 359.321 437.767 359.368 438.476 359.368C439.708 359.368 440.66 359.013 441.332 358.304C442.004 357.613 442.34 356.633 442.34 355.364V354.86C442.34 354.617 442.349 354.3 442.368 353.908C442.387 353.497 442.405 353.199 442.424 353.012H442.312C441.789 353.796 441.145 354.375 440.38 354.748C439.633 355.103 438.765 355.28 437.776 355.28C435.872 355.28 434.379 354.599 433.296 353.236C432.232 351.855 431.7 349.941 431.7 347.496C431.7 345.853 431.943 344.453 432.428 343.296C432.913 342.12 433.604 341.215 434.5 340.58C435.415 339.945 436.507 339.628 437.776 339.628ZM438.392 342.092C437.608 342.092 436.945 342.307 436.404 342.736C435.863 343.147 435.452 343.753 435.172 344.556C434.892 345.359 434.752 346.348 434.752 347.524C434.752 349.279 435.06 350.613 435.676 351.528C436.311 352.443 437.235 352.9 438.448 352.9C439.157 352.9 439.755 352.807 440.24 352.62C440.744 352.433 441.155 352.144 441.472 351.752C441.808 351.36 442.051 350.865 442.2 350.268C442.368 349.652 442.452 348.915 442.452 348.056V347.496C442.452 346.208 442.303 345.172 442.004 344.388C441.724 343.585 441.285 343.007 440.688 342.652C440.091 342.279 439.325 342.092 438.392 342.092ZM452.899 339.404C452.899 339.871 452.881 340.337 452.843 340.804C452.806 341.271 452.769 341.653 452.731 341.952H452.927C453.245 341.429 453.637 341 454.103 340.664C454.589 340.328 455.121 340.076 455.699 339.908C456.297 339.74 456.903 339.656 457.519 339.656C458.714 339.656 459.713 339.852 460.515 340.244C461.337 340.617 461.953 341.215 462.363 342.036C462.793 342.839 463.007 343.884 463.007 345.172V355H460.067V345.592C460.067 344.416 459.815 343.539 459.311 342.96C458.826 342.363 458.042 342.064 456.959 342.064C455.933 342.064 455.121 342.269 454.523 342.68C453.945 343.091 453.525 343.697 453.263 344.5C453.021 345.284 452.899 346.255 452.899 347.412V355H449.931V333.72H452.899V339.404ZM473 352.872C473.392 352.872 473.793 352.835 474.204 352.76C474.615 352.685 474.969 352.601 475.268 352.508V354.748C474.951 354.897 474.521 355.019 473.98 355.112C473.439 355.224 472.897 355.28 472.356 355.28C471.535 355.28 470.779 355.14 470.088 354.86C469.416 354.58 468.875 354.095 468.464 353.404C468.053 352.713 467.848 351.752 467.848 350.52V342.176H465.748V340.832L467.96 339.712L468.996 336.52H470.816V339.908H475.128V342.176H470.816V350.464C470.816 351.285 471.012 351.892 471.404 352.284C471.815 352.676 472.347 352.872 473 352.872ZM484.223 339.628C485.548 339.628 486.687 339.908 487.639 340.468C488.591 341.009 489.319 341.793 489.823 342.82C490.346 343.847 490.607 345.06 490.607 346.46V348.084H480.471C480.508 349.633 480.91 350.819 481.675 351.64C482.459 352.461 483.551 352.872 484.951 352.872C485.922 352.872 486.78 352.788 487.527 352.62C488.292 352.433 489.076 352.163 489.879 351.808V354.272C489.132 354.608 488.367 354.86 487.583 355.028C486.818 355.196 485.903 355.28 484.839 355.28C483.383 355.28 482.095 354.991 480.975 354.412C479.855 353.833 478.978 352.975 478.343 351.836C477.727 350.679 477.419 349.26 477.419 347.58C477.419 345.881 477.699 344.444 478.259 343.268C478.838 342.092 479.631 341.196 480.639 340.58C481.666 339.945 482.86 339.628 484.223 339.628ZM484.223 341.924C483.159 341.924 482.3 342.269 481.647 342.96C481.012 343.651 480.639 344.631 480.527 345.9H487.639C487.639 345.116 487.518 344.425 487.275 343.828C487.032 343.231 486.659 342.764 486.155 342.428C485.651 342.092 485.007 341.924 484.223 341.924ZM501.758 339.628C502.02 339.628 502.309 339.647 502.626 339.684C502.944 339.703 503.205 339.731 503.41 339.768L503.102 342.54C502.897 342.484 502.654 342.437 502.374 342.4C502.094 342.363 501.833 342.344 501.59 342.344C501.03 342.344 500.489 342.456 499.966 342.68C499.462 342.885 499.005 343.193 498.594 343.604C498.184 343.996 497.857 344.481 497.614 345.06C497.39 345.639 497.278 346.301 497.278 347.048V355H494.31V339.908H496.662L497.054 342.596H497.166C497.484 342.055 497.866 341.56 498.314 341.112C498.762 340.664 499.276 340.309 499.854 340.048C500.433 339.768 501.068 339.628 501.758 339.628ZM386.721 380.176H382.997V393H380.029V380.176H377.481V378.776L380.029 377.852V376.9C380.029 375.612 380.225 374.585 380.617 373.82C381.028 373.036 381.607 372.467 382.353 372.112C383.1 371.757 384.005 371.58 385.069 371.58C385.723 371.58 386.32 371.636 386.861 371.748C387.403 371.86 387.86 371.981 388.233 372.112L387.477 374.38C387.179 374.287 386.833 374.203 386.441 374.128C386.049 374.035 385.639 373.988 385.209 373.988C384.463 373.988 383.903 374.231 383.529 374.716C383.175 375.201 382.997 375.939 382.997 376.928V377.908H386.721V380.176ZM402.357 377.908V393H399.977L399.557 391.012H399.417C399.1 391.535 398.689 391.964 398.185 392.3C397.681 392.636 397.13 392.879 396.533 393.028C395.936 393.196 395.32 393.28 394.685 393.28C393.509 393.28 392.51 393.093 391.689 392.72C390.886 392.328 390.27 391.731 389.841 390.928C389.43 390.107 389.225 389.061 389.225 387.792V377.908H392.221V387.344C392.221 388.52 392.464 389.397 392.949 389.976C393.453 390.555 394.228 390.844 395.273 390.844C396.318 390.844 397.14 390.639 397.737 390.228C398.334 389.817 398.754 389.22 398.997 388.436C399.258 387.633 399.389 386.672 399.389 385.552V377.908H402.357ZM412.434 390.872C412.826 390.872 413.227 390.835 413.638 390.76C414.048 390.685 414.403 390.601 414.702 390.508V392.748C414.384 392.897 413.955 393.019 413.414 393.112C412.872 393.224 412.331 393.28 411.79 393.28C410.968 393.28 410.212 393.14 409.522 392.86C408.85 392.58 408.308 392.095 407.898 391.404C407.487 390.713 407.282 389.752 407.282 388.52V380.176H405.182V378.832L407.394 377.712L408.43 374.52H410.25V377.908H414.562V380.176H410.25V388.464C410.25 389.285 410.446 389.892 410.838 390.284C411.248 390.676 411.78 390.872 412.434 390.872ZM430.712 377.908V393H428.332L427.912 391.012H427.772C427.455 391.535 427.044 391.964 426.54 392.3C426.036 392.636 425.486 392.879 424.888 393.028C424.291 393.196 423.675 393.28 423.04 393.28C421.864 393.28 420.866 393.093 420.044 392.72C419.242 392.328 418.626 391.731 418.196 390.928C417.786 390.107 417.58 389.061 417.58 387.792V377.908H420.576V387.344C420.576 388.52 420.819 389.397 421.304 389.976C421.808 390.555 422.583 390.844 423.628 390.844C424.674 390.844 425.495 390.639 426.092 390.228C426.69 389.817 427.11 389.22 427.352 388.436C427.614 387.633 427.744 386.672 427.744 385.552V377.908H430.712ZM442.805 377.628C443.067 377.628 443.356 377.647 443.673 377.684C443.991 377.703 444.252 377.731 444.457 377.768L444.149 380.54C443.944 380.484 443.701 380.437 443.421 380.4C443.141 380.363 442.88 380.344 442.637 380.344C442.077 380.344 441.536 380.456 441.013 380.68C440.509 380.885 440.052 381.193 439.641 381.604C439.231 381.996 438.904 382.481 438.661 383.06C438.437 383.639 438.325 384.301 438.325 385.048V393H435.357V377.908H437.709L438.101 380.596H438.213C438.531 380.055 438.913 379.56 439.361 379.112C439.809 378.664 440.323 378.309 440.901 378.048C441.48 377.768 442.115 377.628 442.805 377.628ZM452.641 377.628C453.966 377.628 455.105 377.908 456.057 378.468C457.009 379.009 457.737 379.793 458.241 380.82C458.764 381.847 459.025 383.06 459.025 384.46V386.084H448.889C448.926 387.633 449.328 388.819 450.093 389.64C450.877 390.461 451.969 390.872 453.369 390.872C454.34 390.872 455.198 390.788 455.945 390.62C456.71 390.433 457.494 390.163 458.297 389.808V392.272C457.55 392.608 456.785 392.86 456.001 393.028C455.236 393.196 454.321 393.28 453.257 393.28C451.801 393.28 450.513 392.991 449.393 392.412C448.273 391.833 447.396 390.975 446.761 389.836C446.145 388.679 445.837 387.26 445.837 385.58C445.837 383.881 446.117 382.444 446.677 381.268C447.256 380.092 448.049 379.196 449.057 378.58C450.084 377.945 451.278 377.628 452.641 377.628ZM452.641 379.924C451.577 379.924 450.718 380.269 450.065 380.96C449.43 381.651 449.057 382.631 448.945 383.9H456.057C456.057 383.116 455.936 382.425 455.693 381.828C455.45 381.231 455.077 380.764 454.573 380.428C454.069 380.092 453.425 379.924 452.641 379.924ZM472.752 388.744C472.752 389.733 472.51 390.564 472.024 391.236C471.539 391.908 470.839 392.421 469.924 392.776C469.01 393.112 467.908 393.28 466.62 393.28C465.556 393.28 464.642 393.196 463.876 393.028C463.13 392.879 462.439 392.655 461.804 392.356V389.752C462.476 390.069 463.251 390.359 464.128 390.62C465.006 390.863 465.864 390.984 466.704 390.984C467.824 390.984 468.627 390.807 469.112 390.452C469.616 390.097 469.868 389.621 469.868 389.024C469.868 388.688 469.775 388.389 469.588 388.128C469.402 387.848 469.047 387.568 468.524 387.288C468.02 386.989 467.274 386.653 466.284 386.28C465.332 385.888 464.52 385.505 463.848 385.132C463.176 384.74 462.663 384.283 462.308 383.76C461.954 383.219 461.776 382.528 461.776 381.688C461.776 380.381 462.299 379.383 463.344 378.692C464.408 377.983 465.808 377.628 467.544 377.628C468.459 377.628 469.318 377.721 470.12 377.908C470.942 378.076 471.735 378.337 472.5 378.692L471.52 380.96C471.091 380.755 470.643 380.587 470.176 380.456C469.728 380.307 469.271 380.185 468.804 380.092C468.356 379.999 467.89 379.952 467.404 379.952C466.508 379.952 465.827 380.092 465.36 380.372C464.894 380.652 464.66 381.044 464.66 381.548C464.66 381.903 464.763 382.211 464.968 382.472C465.192 382.733 465.575 382.995 466.116 383.256C466.658 383.517 467.395 383.835 468.328 384.208C469.262 384.563 470.055 384.927 470.708 385.3C471.38 385.673 471.884 386.131 472.22 386.672C472.575 387.213 472.752 387.904 472.752 388.744Z" fill="white"/>
<path d="M49.1146 302.456C49.1146 303.632 48.8253 304.659 48.2466 305.536C47.668 306.413 46.828 307.095 45.7266 307.58C44.644 308.047 43.3186 308.28 41.7506 308.28C41.06 308.28 40.3786 308.233 39.7066 308.14C39.0533 308.047 38.4186 307.916 37.8026 307.748C37.2053 307.561 36.636 307.337 36.0946 307.076V303.128C37.0466 303.539 38.0266 303.921 39.0346 304.276C40.0613 304.612 41.0786 304.78 42.0866 304.78C42.7773 304.78 43.328 304.687 43.7386 304.5C44.168 304.313 44.476 304.061 44.6626 303.744C44.868 303.427 44.9706 303.063 44.9706 302.652C44.9706 302.148 44.7933 301.719 44.4386 301.364C44.1026 301.009 43.6453 300.683 43.0666 300.384C42.488 300.067 41.8253 299.731 41.0786 299.376C40.612 299.152 40.108 298.891 39.5666 298.592C39.0253 298.275 38.5026 297.892 37.9986 297.444C37.5133 296.977 37.112 296.417 36.7946 295.764C36.4773 295.111 36.3186 294.327 36.3186 293.412C36.3186 292.217 36.5893 291.2 37.1306 290.36C37.6906 289.501 38.4746 288.848 39.4826 288.4C40.5093 287.952 41.7133 287.728 43.0946 287.728C44.14 287.728 45.1293 287.849 46.0626 288.092C47.0146 288.335 48.004 288.68 49.0306 289.128L47.6586 292.432C46.744 292.059 45.9226 291.769 45.1946 291.564C44.4666 291.359 43.72 291.256 42.9546 291.256C42.432 291.256 41.984 291.34 41.6106 291.508C41.2373 291.676 40.948 291.909 40.7426 292.208C40.556 292.507 40.4626 292.861 40.4626 293.272C40.4626 293.739 40.6026 294.14 40.8826 294.476C41.1626 294.793 41.5826 295.101 42.1426 295.4C42.7026 295.699 43.4026 296.053 44.2426 296.464C45.2693 296.949 46.1373 297.453 46.8466 297.976C47.5746 298.499 48.1346 299.115 48.5266 299.824C48.9186 300.533 49.1146 301.411 49.1146 302.456ZM58.6845 292.404C60.7378 292.404 62.3058 292.852 63.3885 293.748C64.4899 294.625 65.0405 295.979 65.0405 297.808V308H62.1285L61.3165 305.928H61.2045C60.7752 306.469 60.3272 306.917 59.8605 307.272C59.4125 307.627 58.8898 307.879 58.2925 308.028C57.7138 308.196 56.9952 308.28 56.1365 308.28C55.2405 308.28 54.4285 308.112 53.7005 307.776C52.9912 307.421 52.4312 306.889 52.0205 306.18C51.6098 305.452 51.4045 304.537 51.4045 303.436C51.4045 301.812 51.9738 300.617 53.1125 299.852C54.2512 299.068 55.9592 298.639 58.2365 298.564L60.8965 298.48V297.808C60.8965 297.005 60.6818 296.417 60.2525 296.044C59.8418 295.671 59.2632 295.484 58.5165 295.484C57.7698 295.484 57.0418 295.596 56.3325 295.82C55.6232 296.025 54.9138 296.287 54.2045 296.604L52.8325 293.776C53.6538 293.347 54.5592 293.011 55.5485 292.768C56.5565 292.525 57.6018 292.404 58.6845 292.404ZM59.2725 300.972C57.9285 301.009 56.9952 301.252 56.4725 301.7C55.9498 302.148 55.6885 302.736 55.6885 303.464C55.6885 304.099 55.8752 304.556 56.2485 304.836C56.6218 305.097 57.1072 305.228 57.7045 305.228C58.6005 305.228 59.3565 304.967 59.9725 304.444C60.5885 303.903 60.8965 303.147 60.8965 302.176V300.916L59.2725 300.972ZM73.483 291.676C73.483 292.255 73.4643 292.824 73.427 293.384C73.3896 293.944 73.3523 294.383 73.315 294.7H73.483C73.8936 294.065 74.4443 293.533 75.135 293.104C75.8256 292.656 76.7216 292.432 77.823 292.432C79.5403 292.432 80.931 293.104 81.995 294.448C83.059 295.773 83.591 297.733 83.591 300.328C83.591 302.064 83.339 303.529 82.835 304.724C82.3496 305.9 81.6683 306.787 80.791 307.384C79.9136 307.981 78.887 308.28 77.711 308.28C76.591 308.28 75.7043 308.084 75.051 307.692C74.4163 307.281 73.8936 306.824 73.483 306.32H73.203L72.503 308H69.311V286.72H73.483V291.676ZM76.479 295.764C75.751 295.764 75.1723 295.913 74.743 296.212C74.3136 296.511 73.9963 296.968 73.791 297.584C73.6043 298.181 73.5016 298.937 73.483 299.852V300.3C73.483 301.775 73.6976 302.913 74.127 303.716C74.575 304.5 75.3776 304.892 76.535 304.892C77.3936 304.892 78.075 304.5 78.579 303.716C79.083 302.913 79.335 301.765 79.335 300.272C79.335 298.779 79.0736 297.659 78.551 296.912C78.047 296.147 77.3563 295.764 76.479 295.764ZM95.5697 292.432C95.775 292.432 96.0177 292.441 96.2977 292.46C96.5777 292.479 96.8017 292.507 96.9697 292.544L96.6617 296.464C96.531 296.427 96.335 296.399 96.0737 296.38C95.831 296.343 95.6164 296.324 95.4297 296.324C94.8884 296.324 94.3657 296.399 93.8617 296.548C93.3577 296.679 92.9004 296.893 92.4897 297.192C92.0977 297.491 91.7804 297.892 91.5377 298.396C91.3137 298.881 91.2017 299.488 91.2017 300.216V308H87.0297V292.712H90.1937L90.8097 295.288H91.0057C91.3044 294.765 91.6777 294.289 92.1257 293.86C92.5737 293.431 93.087 293.085 93.6657 292.824C94.263 292.563 94.8977 292.432 95.5697 292.432ZM103.917 292.712V308H99.7445V292.712H103.917ZM101.845 286.72C102.461 286.72 102.993 286.869 103.441 287.168C103.889 287.448 104.113 287.98 104.113 288.764C104.113 289.529 103.889 290.061 103.441 290.36C102.993 290.659 102.461 290.808 101.845 290.808C101.21 290.808 100.669 290.659 100.221 290.36C99.7912 290.061 99.5765 289.529 99.5765 288.764C99.5765 287.98 99.7912 287.448 100.221 287.168C100.669 286.869 101.21 286.72 101.845 286.72ZM116.956 292.432C118.598 292.432 119.914 292.88 120.904 293.776C121.893 294.653 122.388 296.072 122.388 298.032V308H118.216V299.068C118.216 297.967 118.02 297.145 117.628 296.604C117.236 296.044 116.61 295.764 115.752 295.764C114.482 295.764 113.614 296.203 113.148 297.08C112.681 297.939 112.448 299.18 112.448 300.804V308H108.276V292.712H111.468L112.028 294.672H112.252C112.588 294.149 112.998 293.729 113.484 293.412C113.969 293.076 114.51 292.833 115.108 292.684C115.705 292.516 116.321 292.432 116.956 292.432ZM132.95 292.404C135.003 292.404 136.571 292.852 137.654 293.748C138.755 294.625 139.306 295.979 139.306 297.808V308H136.394L135.582 305.928H135.47C135.041 306.469 134.593 306.917 134.126 307.272C133.678 307.627 133.155 307.879 132.558 308.028C131.979 308.196 131.261 308.28 130.402 308.28C129.506 308.28 128.694 308.112 127.966 307.776C127.257 307.421 126.697 306.889 126.286 306.18C125.875 305.452 125.67 304.537 125.67 303.436C125.67 301.812 126.239 300.617 127.378 299.852C128.517 299.068 130.225 298.639 132.502 298.564L135.162 298.48V297.808C135.162 297.005 134.947 296.417 134.518 296.044C134.107 295.671 133.529 295.484 132.782 295.484C132.035 295.484 131.307 295.596 130.598 295.82C129.889 296.025 129.179 296.287 128.47 296.604L127.098 293.776C127.919 293.347 128.825 293.011 129.814 292.768C130.822 292.525 131.867 292.404 132.95 292.404ZM133.538 300.972C132.194 301.009 131.261 301.252 130.738 301.7C130.215 302.148 129.954 302.736 129.954 303.464C129.954 304.099 130.141 304.556 130.514 304.836C130.887 305.097 131.373 305.228 131.97 305.228C132.866 305.228 133.622 304.967 134.238 304.444C134.854 303.903 135.162 303.147 135.162 302.176V300.916L133.538 300.972ZM162.974 302.456C162.974 303.632 162.685 304.659 162.106 305.536C161.527 306.413 160.687 307.095 159.586 307.58C158.503 308.047 157.178 308.28 155.61 308.28C154.919 308.28 154.238 308.233 153.566 308.14C152.913 308.047 152.278 307.916 151.662 307.748C151.065 307.561 150.495 307.337 149.954 307.076V303.128C150.906 303.539 151.886 303.921 152.894 304.276C153.921 304.612 154.938 304.78 155.946 304.78C156.637 304.78 157.187 304.687 157.598 304.5C158.027 304.313 158.335 304.061 158.522 303.744C158.727 303.427 158.83 303.063 158.83 302.652C158.83 302.148 158.653 301.719 158.298 301.364C157.962 301.009 157.505 300.683 156.926 300.384C156.347 300.067 155.685 299.731 154.938 299.376C154.471 299.152 153.967 298.891 153.426 298.592C152.885 298.275 152.362 297.892 151.858 297.444C151.373 296.977 150.971 296.417 150.654 295.764C150.337 295.111 150.178 294.327 150.178 293.412C150.178 292.217 150.449 291.2 150.99 290.36C151.55 289.501 152.334 288.848 153.342 288.4C154.369 287.952 155.573 287.728 156.954 287.728C157.999 287.728 158.989 287.849 159.922 288.092C160.874 288.335 161.863 288.68 162.89 289.128L161.518 292.432C160.603 292.059 159.782 291.769 159.054 291.564C158.326 291.359 157.579 291.256 156.814 291.256C156.291 291.256 155.843 291.34 155.47 291.508C155.097 291.676 154.807 291.909 154.602 292.208C154.415 292.507 154.322 292.861 154.322 293.272C154.322 293.739 154.462 294.14 154.742 294.476C155.022 294.793 155.442 295.101 156.002 295.4C156.562 295.699 157.262 296.053 158.102 296.464C159.129 296.949 159.997 297.453 160.706 297.976C161.434 298.499 161.994 299.115 162.386 299.824C162.778 300.533 162.974 301.411 162.974 302.456ZM170.444 291.06C170.444 291.807 170.416 292.525 170.36 293.216C170.323 293.907 170.285 294.392 170.248 294.672H170.472C170.808 294.149 171.2 293.729 171.648 293.412C172.096 293.076 172.591 292.833 173.132 292.684C173.692 292.516 174.28 292.432 174.896 292.432C175.997 292.432 176.959 292.628 177.78 293.02C178.601 293.412 179.236 294.019 179.684 294.84C180.151 295.661 180.384 296.725 180.384 298.032V308H176.212V299.068C176.212 297.967 176.007 297.145 175.596 296.604C175.204 296.044 174.588 295.764 173.748 295.764C172.908 295.764 172.245 295.96 171.76 296.352C171.293 296.744 170.957 297.313 170.752 298.06C170.547 298.807 170.444 299.721 170.444 300.804V308H166.272V286.72H170.444V291.06ZM190.946 292.404C193 292.404 194.568 292.852 195.65 293.748C196.752 294.625 197.302 295.979 197.302 297.808V308H194.39L193.578 305.928H193.466C193.037 306.469 192.589 306.917 192.122 307.272C191.674 307.627 191.152 307.879 190.554 308.028C189.976 308.196 189.257 308.28 188.398 308.28C187.502 308.28 186.69 308.112 185.962 307.776C185.253 307.421 184.693 306.889 184.282 306.18C183.872 305.452 183.666 304.537 183.666 303.436C183.666 301.812 184.236 300.617 185.374 299.852C186.513 299.068 188.221 298.639 190.498 298.564L193.158 298.48V297.808C193.158 297.005 192.944 296.417 192.514 296.044C192.104 295.671 191.525 295.484 190.778 295.484C190.032 295.484 189.304 295.596 188.594 295.82C187.885 296.025 187.176 296.287 186.466 296.604L185.094 293.776C185.916 293.347 186.821 293.011 187.81 292.768C188.818 292.525 189.864 292.404 190.946 292.404ZM191.534 300.972C190.19 301.009 189.257 301.252 188.734 301.7C188.212 302.148 187.95 302.736 187.95 303.464C187.95 304.099 188.137 304.556 188.51 304.836C188.884 305.097 189.369 305.228 189.966 305.228C190.862 305.228 191.618 304.967 192.234 304.444C192.85 303.903 193.158 303.147 193.158 302.176V300.916L191.534 300.972ZM207.873 292.432C209.291 292.432 210.505 292.703 211.513 293.244C212.539 293.785 213.333 294.569 213.893 295.596C214.453 296.623 214.733 297.883 214.733 299.376V301.392H204.877C204.914 302.568 205.259 303.492 205.913 304.164C206.585 304.836 207.509 305.172 208.685 305.172C209.674 305.172 210.57 305.079 211.373 304.892C212.175 304.687 213.006 304.379 213.865 303.968V307.188C213.118 307.561 212.325 307.832 211.485 308C210.663 308.187 209.665 308.28 208.489 308.28C206.958 308.28 205.605 308 204.429 307.44C203.253 306.861 202.329 305.993 201.657 304.836C200.985 303.679 200.649 302.223 200.649 300.468C200.649 298.676 200.947 297.192 201.545 296.016C202.161 294.821 203.01 293.925 204.093 293.328C205.175 292.731 206.435 292.432 207.873 292.432ZM207.901 295.4C207.098 295.4 206.426 295.661 205.885 296.184C205.362 296.707 205.054 297.519 204.961 298.62H210.813C210.813 298.004 210.701 297.453 210.477 296.968C210.271 296.483 209.954 296.1 209.525 295.82C209.095 295.54 208.554 295.4 207.901 295.4ZM224.416 292.432C225.834 292.432 227.048 292.703 228.056 293.244C229.082 293.785 229.876 294.569 230.436 295.596C230.996 296.623 231.276 297.883 231.276 299.376V301.392H221.42C221.457 302.568 221.802 303.492 222.456 304.164C223.128 304.836 224.052 305.172 225.228 305.172C226.217 305.172 227.113 305.079 227.916 304.892C228.718 304.687 229.549 304.379 230.408 303.968V307.188C229.661 307.561 228.868 307.832 228.028 308C227.206 308.187 226.208 308.28 225.032 308.28C223.501 308.28 222.148 308 220.972 307.44C219.796 306.861 218.872 305.993 218.2 304.836C217.528 303.679 217.192 302.223 217.192 300.468C217.192 298.676 217.49 297.192 218.088 296.016C218.704 294.821 219.553 293.925 220.636 293.328C221.718 292.731 222.978 292.432 224.416 292.432ZM224.444 295.4C223.641 295.4 222.969 295.661 222.428 296.184C221.905 296.707 221.597 297.519 221.504 298.62H227.356C227.356 298.004 227.244 297.453 227.02 296.968C226.814 296.483 226.497 296.1 226.068 295.82C225.638 295.54 225.097 295.4 224.444 295.4ZM239.503 308.28C237.804 308.28 236.413 307.617 235.331 306.292C234.267 304.948 233.735 302.979 233.735 300.384C233.735 297.771 234.276 295.792 235.359 294.448C236.441 293.104 237.86 292.432 239.615 292.432C240.343 292.432 240.987 292.535 241.547 292.74C242.107 292.927 242.583 293.188 242.975 293.524C243.385 293.86 243.731 294.243 244.011 294.672H244.151C244.095 294.373 244.029 293.944 243.955 293.384C243.88 292.805 243.843 292.217 243.843 291.62V286.72H248.015V308H244.823L244.011 306.012H243.843C243.581 306.423 243.245 306.805 242.835 307.16C242.443 307.496 241.976 307.767 241.435 307.972C240.893 308.177 240.249 308.28 239.503 308.28ZM240.959 304.948C242.116 304.948 242.928 304.612 243.395 303.94C243.861 303.249 244.104 302.223 244.123 300.86V300.412C244.123 298.919 243.889 297.78 243.423 296.996C242.975 296.212 242.135 295.82 240.903 295.82C239.988 295.82 239.269 296.221 238.747 297.024C238.224 297.808 237.963 298.947 237.963 300.44C237.963 301.933 238.224 303.063 238.747 303.828C239.269 304.575 240.007 304.948 240.959 304.948ZM52.601 340.456C52.601 341.632 52.3116 342.659 51.733 343.536C51.1543 344.413 50.3143 345.095 49.213 345.58C48.1303 346.047 46.805 346.28 45.237 346.28C44.5463 346.28 43.865 346.233 43.193 346.14C42.5396 346.047 41.905 345.916 41.289 345.748C40.6916 345.561 40.1223 345.337 39.581 345.076V341.128C40.533 341.539 41.513 341.921 42.521 342.276C43.5476 342.612 44.565 342.78 45.573 342.78C46.2636 342.78 46.8143 342.687 47.225 342.5C47.6543 342.313 47.9623 342.061 48.149 341.744C48.3543 341.427 48.457 341.063 48.457 340.652C48.457 340.148 48.2796 339.719 47.925 339.364C47.589 339.009 47.1316 338.683 46.553 338.384C45.9743 338.067 45.3116 337.731 44.565 337.376C44.0983 337.152 43.5943 336.891 43.053 336.592C42.5116 336.275 41.989 335.892 41.485 335.444C40.9996 334.977 40.5983 334.417 40.281 333.764C39.9636 333.111 39.805 332.327 39.805 331.412C39.805 330.217 40.0756 329.2 40.617 328.36C41.177 327.501 41.961 326.848 42.969 326.4C43.9956 325.952 45.1996 325.728 46.581 325.728C47.6263 325.728 48.6156 325.849 49.549 326.092C50.501 326.335 51.4903 326.68 52.517 327.128L51.145 330.432C50.2303 330.059 49.409 329.769 48.681 329.564C47.953 329.359 47.2063 329.256 46.441 329.256C45.9183 329.256 45.4703 329.34 45.097 329.508C44.7236 329.676 44.4343 329.909 44.229 330.208C44.0423 330.507 43.949 330.861 43.949 331.272C43.949 331.739 44.089 332.14 44.369 332.476C44.649 332.793 45.069 333.101 45.629 333.4C46.189 333.699 46.889 334.053 47.729 334.464C48.7556 334.949 49.6236 335.453 50.333 335.976C51.061 336.499 51.621 337.115 52.013 337.824C52.405 338.533 52.601 339.411 52.601 340.456ZM60.0708 330.712V346H55.8988V330.712H60.0708ZM57.9988 324.72C58.6148 324.72 59.1468 324.869 59.5948 325.168C60.0428 325.448 60.2668 325.98 60.2668 326.764C60.2668 327.529 60.0428 328.061 59.5948 328.36C59.1468 328.659 58.6148 328.808 57.9988 328.808C57.3642 328.808 56.8228 328.659 56.3748 328.36C55.9455 328.061 55.7308 327.529 55.7308 326.764C55.7308 325.98 55.9455 325.448 56.3748 325.168C56.8228 324.869 57.3642 324.72 57.9988 324.72ZM72.9701 330.432C73.1754 330.432 73.4181 330.441 73.6981 330.46C73.9781 330.479 74.2021 330.507 74.3701 330.544L74.0621 334.464C73.9314 334.427 73.7354 334.399 73.4741 334.38C73.2314 334.343 73.0168 334.324 72.8301 334.324C72.2888 334.324 71.7661 334.399 71.2621 334.548C70.7581 334.679 70.3008 334.893 69.8901 335.192C69.4981 335.491 69.1808 335.892 68.9381 336.396C68.7141 336.881 68.6021 337.488 68.6021 338.216V346H64.4301V330.712H67.5941L68.2101 333.288H68.4061C68.7048 332.765 69.0781 332.289 69.5261 331.86C69.9741 331.431 70.4874 331.085 71.0661 330.824C71.6634 330.563 72.2981 330.432 72.9701 330.432ZM82.6544 351.88C82.113 351.88 81.637 351.843 81.2264 351.768C80.8157 351.712 80.461 351.647 80.1624 351.572V348.044C80.461 348.119 80.7784 348.184 81.1144 348.24C81.4317 348.296 81.777 348.324 82.1504 348.324C82.6357 348.324 83.0744 348.231 83.4664 348.044C83.877 347.857 84.1944 347.503 84.4184 346.98C84.6424 346.457 84.7544 345.711 84.7544 344.74V326.008H88.9824V344.712C88.9824 346.429 88.7117 347.811 88.1704 348.856C87.6477 349.92 86.9104 350.685 85.9584 351.152C85.0064 351.637 83.905 351.88 82.6544 351.88ZM107.576 338.328C107.576 339.597 107.399 340.727 107.044 341.716C106.708 342.705 106.213 343.545 105.56 344.236C104.925 344.908 104.151 345.421 103.236 345.776C102.321 346.112 101.285 346.28 100.128 346.28C99.0639 346.28 98.0746 346.112 97.1599 345.776C96.2639 345.421 95.4892 344.908 94.8359 344.236C94.1826 343.545 93.6692 342.705 93.2959 341.716C92.9412 340.727 92.7639 339.597 92.7639 338.328C92.7639 336.629 93.0626 335.201 93.6599 334.044C94.2572 332.868 95.1159 331.972 96.2359 331.356C97.3559 330.74 98.6812 330.432 100.212 330.432C101.649 330.432 102.919 330.74 104.02 331.356C105.121 331.972 105.989 332.868 106.624 334.044C107.259 335.201 107.576 336.629 107.576 338.328ZM97.0199 338.328C97.0199 339.336 97.1226 340.185 97.3279 340.876C97.5519 341.548 97.8972 342.061 98.3639 342.416C98.8306 342.752 99.4372 342.92 100.184 342.92C100.931 342.92 101.528 342.752 101.976 342.416C102.443 342.061 102.779 341.548 102.984 340.876C103.208 340.185 103.32 339.336 103.32 338.328C103.32 337.32 103.208 336.48 102.984 335.808C102.779 335.136 102.443 334.632 101.976 334.296C101.509 333.96 100.903 333.792 100.156 333.792C99.0546 333.792 98.2519 334.175 97.7479 334.94C97.2626 335.687 97.0199 336.816 97.0199 338.328ZM115.196 329.06C115.196 329.807 115.168 330.525 115.112 331.216C115.075 331.907 115.037 332.392 115 332.672H115.224C115.56 332.149 115.952 331.729 116.4 331.412C116.848 331.076 117.343 330.833 117.884 330.684C118.444 330.516 119.032 330.432 119.648 330.432C120.749 330.432 121.711 330.628 122.532 331.02C123.353 331.412 123.988 332.019 124.436 332.84C124.903 333.661 125.136 334.725 125.136 336.032V346H120.964V337.068C120.964 335.967 120.759 335.145 120.348 334.604C119.956 334.044 119.34 333.764 118.5 333.764C117.66 333.764 116.997 333.96 116.512 334.352C116.045 334.744 115.709 335.313 115.504 336.06C115.299 336.807 115.196 337.721 115.196 338.804V346H111.024V324.72H115.196V329.06ZM138.106 330.432C139.749 330.432 141.065 330.88 142.054 331.776C143.044 332.653 143.538 334.072 143.538 336.032V346H139.366V337.068C139.366 335.967 139.17 335.145 138.778 334.604C138.386 334.044 137.761 333.764 136.902 333.764C135.633 333.764 134.765 334.203 134.298 335.08C133.832 335.939 133.598 337.18 133.598 338.804V346H129.426V330.712H132.618L133.178 332.672H133.402C133.738 332.149 134.149 331.729 134.634 331.412C135.12 331.076 135.661 330.833 136.258 330.684C136.856 330.516 137.472 330.432 138.106 330.432ZM179.994 326.008L174.898 346H170.082L167.366 335.5C167.31 335.295 167.235 334.987 167.142 334.576C167.067 334.165 166.974 333.717 166.862 333.232C166.769 332.747 166.685 332.289 166.61 331.86C166.535 331.412 166.479 331.067 166.442 330.824C166.423 331.067 166.367 331.412 166.274 331.86C166.199 332.289 166.115 332.747 166.022 333.232C165.929 333.699 165.835 334.147 165.742 334.576C165.649 334.987 165.574 335.304 165.518 335.528L162.83 346H158.014L152.918 326.008H157.09L159.638 336.928C159.713 337.245 159.797 337.637 159.89 338.104C159.983 338.552 160.077 339.028 160.17 339.532C160.263 340.017 160.347 340.493 160.422 340.96C160.515 341.427 160.581 341.828 160.618 342.164C160.655 341.809 160.711 341.408 160.786 340.96C160.861 340.493 160.945 340.027 161.038 339.56C161.131 339.075 161.215 338.627 161.29 338.216C161.383 337.787 161.467 337.451 161.542 337.208L164.454 326.008H168.458L171.37 337.208C171.426 337.451 171.501 337.787 171.594 338.216C171.687 338.627 171.781 339.075 171.874 339.56C171.967 340.045 172.051 340.521 172.126 340.988C172.201 341.436 172.257 341.828 172.294 342.164C172.35 341.697 172.434 341.147 172.546 340.512C172.658 339.859 172.779 339.205 172.91 338.552C173.059 337.899 173.181 337.357 173.274 336.928L175.822 326.008H179.994ZM186.344 330.712V346H182.172V330.712H186.344ZM184.272 324.72C184.888 324.72 185.42 324.869 185.868 325.168C186.316 325.448 186.54 325.98 186.54 326.764C186.54 327.529 186.316 328.061 185.868 328.36C185.42 328.659 184.888 328.808 184.272 328.808C183.638 328.808 183.096 328.659 182.648 328.36C182.219 328.061 182.004 327.529 182.004 326.764C182.004 325.98 182.219 325.448 182.648 325.168C183.096 324.869 183.638 324.72 184.272 324.72ZM194.876 346H190.704V324.72H194.876V346ZM209.903 341.464C209.903 342.491 209.66 343.368 209.175 344.096C208.689 344.805 207.961 345.347 206.991 345.72C206.02 346.093 204.816 346.28 203.379 346.28C202.315 346.28 201.4 346.205 200.635 346.056C199.869 345.925 199.104 345.701 198.339 345.384V341.94C199.16 342.313 200.047 342.621 200.999 342.864C201.951 343.107 202.791 343.228 203.519 343.228C204.34 343.228 204.919 343.107 205.255 342.864C205.609 342.621 205.787 342.304 205.787 341.912C205.787 341.651 205.712 341.417 205.563 341.212C205.432 341.007 205.133 340.773 204.667 340.512C204.2 340.251 203.472 339.915 202.483 339.504C201.531 339.093 200.747 338.692 200.131 338.3C199.515 337.889 199.057 337.404 198.759 336.844C198.46 336.265 198.311 335.547 198.311 334.688C198.311 333.269 198.861 332.205 199.963 331.496C201.064 330.787 202.529 330.432 204.359 330.432C205.311 330.432 206.216 330.525 207.075 330.712C207.933 330.899 208.82 331.207 209.735 331.636L208.475 334.632C207.971 334.408 207.485 334.212 207.019 334.044C206.552 333.876 206.095 333.745 205.647 333.652C205.217 333.559 204.769 333.512 204.303 333.512C203.687 333.512 203.22 333.596 202.903 333.764C202.604 333.932 202.455 334.184 202.455 334.52C202.455 334.763 202.529 334.987 202.679 335.192C202.847 335.379 203.155 335.584 203.603 335.808C204.069 336.032 204.751 336.331 205.647 336.704C206.524 337.059 207.28 337.432 207.915 337.824C208.549 338.197 209.035 338.673 209.371 339.252C209.725 339.812 209.903 340.549 209.903 341.464ZM227.041 338.328C227.041 339.597 226.863 340.727 226.509 341.716C226.173 342.705 225.678 343.545 225.025 344.236C224.39 344.908 223.615 345.421 222.701 345.776C221.786 346.112 220.75 346.28 219.593 346.28C218.529 346.28 217.539 346.112 216.625 345.776C215.729 345.421 214.954 344.908 214.301 344.236C213.647 343.545 213.134 342.705 212.761 341.716C212.406 340.727 212.229 339.597 212.229 338.328C212.229 336.629 212.527 335.201 213.125 334.044C213.722 332.868 214.581 331.972 215.701 331.356C216.821 330.74 218.146 330.432 219.677 330.432C221.114 330.432 222.383 330.74 223.485 331.356C224.586 331.972 225.454 332.868 226.089 334.044C226.723 335.201 227.041 336.629 227.041 338.328ZM216.485 338.328C216.485 339.336 216.587 340.185 216.793 340.876C217.017 341.548 217.362 342.061 217.829 342.416C218.295 342.752 218.902 342.92 219.649 342.92C220.395 342.92 220.993 342.752 221.441 342.416C221.907 342.061 222.243 341.548 222.449 340.876C222.673 340.185 222.785 339.336 222.785 338.328C222.785 337.32 222.673 336.48 222.449 335.808C222.243 335.136 221.907 334.632 221.441 334.296C220.974 333.96 220.367 333.792 219.621 333.792C218.519 333.792 217.717 334.175 217.213 334.94C216.727 335.687 216.485 336.816 216.485 338.328ZM239.169 330.432C240.811 330.432 242.127 330.88 243.117 331.776C244.106 332.653 244.601 334.072 244.601 336.032V346H240.429V337.068C240.429 335.967 240.233 335.145 239.841 334.604C239.449 334.044 238.823 333.764 237.965 333.764C236.695 333.764 235.827 334.203 235.361 335.08C234.894 335.939 234.661 337.18 234.661 338.804V346H230.489V330.712H233.681L234.241 332.672H234.465C234.801 332.149 235.211 331.729 235.697 331.412C236.182 331.076 236.723 330.833 237.321 330.684C237.918 330.516 238.534 330.432 239.169 330.432ZM111.103 378.456C111.103 379.632 110.814 380.659 110.235 381.536C109.656 382.413 108.816 383.095 107.715 383.58C106.632 384.047 105.307 384.28 103.739 384.28C103.048 384.28 102.367 384.233 101.695 384.14C101.042 384.047 100.407 383.916 99.7909 383.748C99.1936 383.561 98.6243 383.337 98.0829 383.076V379.128C99.0349 379.539 100.015 379.921 101.023 380.276C102.05 380.612 103.067 380.78 104.075 380.78C104.766 380.78 105.316 380.687 105.727 380.5C106.156 380.313 106.464 380.061 106.651 379.744C106.856 379.427 106.959 379.063 106.959 378.652C106.959 378.148 106.782 377.719 106.427 377.364C106.091 377.009 105.634 376.683 105.055 376.384C104.476 376.067 103.814 375.731 103.067 375.376C102.6 375.152 102.096 374.891 101.555 374.592C101.014 374.275 100.491 373.892 99.9869 373.444C99.5016 372.977 99.1003 372.417 98.7829 371.764C98.4656 371.111 98.3069 370.327 98.3069 369.412C98.3069 368.217 98.5776 367.2 99.1189 366.36C99.6789 365.501 100.463 364.848 101.471 364.4C102.498 363.952 103.702 363.728 105.083 363.728C106.128 363.728 107.118 363.849 108.051 364.092C109.003 364.335 109.992 364.68 111.019 365.128L109.647 368.432C108.732 368.059 107.911 367.769 107.183 367.564C106.455 367.359 105.708 367.256 104.943 367.256C104.42 367.256 103.972 367.34 103.599 367.508C103.226 367.676 102.936 367.909 102.731 368.208C102.544 368.507 102.451 368.861 102.451 369.272C102.451 369.739 102.591 370.14 102.871 370.476C103.151 370.793 103.571 371.101 104.131 371.4C104.691 371.699 105.391 372.053 106.231 372.464C107.258 372.949 108.126 373.453 108.835 373.976C109.563 374.499 110.123 375.115 110.515 375.824C110.907 376.533 111.103 377.411 111.103 378.456ZM120.617 384.28C119.105 384.28 117.817 384.009 116.753 383.468C115.689 382.908 114.877 382.049 114.317 380.892C113.757 379.735 113.477 378.251 113.477 376.44C113.477 374.573 113.794 373.052 114.429 371.876C115.063 370.7 115.941 369.832 117.061 369.272C118.199 368.712 119.506 368.432 120.981 368.432C122.026 368.432 122.931 368.535 123.697 368.74C124.481 368.945 125.162 369.188 125.741 369.468L124.509 372.688C123.855 372.427 123.239 372.212 122.661 372.044C122.101 371.876 121.541 371.792 120.981 371.792C120.253 371.792 119.646 371.969 119.161 372.324C118.675 372.66 118.311 373.173 118.069 373.864C117.845 374.536 117.733 375.385 117.733 376.412C117.733 377.42 117.854 378.26 118.097 378.932C118.358 379.585 118.731 380.08 119.217 380.416C119.702 380.733 120.29 380.892 120.981 380.892C121.858 380.892 122.633 380.78 123.305 380.556C123.977 380.313 124.63 379.987 125.265 379.576V383.132C124.63 383.543 123.958 383.832 123.249 384C122.558 384.187 121.681 384.28 120.617 384.28ZM132.956 367.06C132.956 367.807 132.928 368.525 132.872 369.216C132.834 369.907 132.797 370.392 132.76 370.672H132.984C133.32 370.149 133.712 369.729 134.16 369.412C134.608 369.076 135.102 368.833 135.644 368.684C136.204 368.516 136.792 368.432 137.408 368.432C138.509 368.432 139.47 368.628 140.292 369.02C141.113 369.412 141.748 370.019 142.196 370.84C142.662 371.661 142.896 372.725 142.896 374.032V384H138.724V375.068C138.724 373.967 138.518 373.145 138.108 372.604C137.716 372.044 137.1 371.764 136.26 371.764C135.42 371.764 134.757 371.96 134.272 372.352C133.805 372.744 133.469 373.313 133.264 374.06C133.058 374.807 132.956 375.721 132.956 376.804V384H128.784V362.72H132.956V367.06ZM161.074 376.328C161.074 377.597 160.897 378.727 160.542 379.716C160.206 380.705 159.711 381.545 159.058 382.236C158.423 382.908 157.649 383.421 156.734 383.776C155.819 384.112 154.783 384.28 153.626 384.28C152.562 384.28 151.573 384.112 150.658 383.776C149.762 383.421 148.987 382.908 148.334 382.236C147.681 381.545 147.167 380.705 146.794 379.716C146.439 378.727 146.262 377.597 146.262 376.328C146.262 374.629 146.561 373.201 147.158 372.044C147.755 370.868 148.614 369.972 149.734 369.356C150.854 368.74 152.179 368.432 153.71 368.432C155.147 368.432 156.417 368.74 157.518 369.356C158.619 369.972 159.487 370.868 160.122 372.044C160.757 373.201 161.074 374.629 161.074 376.328ZM150.518 376.328C150.518 377.336 150.621 378.185 150.826 378.876C151.05 379.548 151.395 380.061 151.862 380.416C152.329 380.752 152.935 380.92 153.682 380.92C154.429 380.92 155.026 380.752 155.474 380.416C155.941 380.061 156.277 379.548 156.482 378.876C156.706 378.185 156.818 377.336 156.818 376.328C156.818 375.32 156.706 374.48 156.482 373.808C156.277 373.136 155.941 372.632 155.474 372.296C155.007 371.96 154.401 371.792 153.654 371.792C152.553 371.792 151.75 372.175 151.246 372.94C150.761 373.687 150.518 374.816 150.518 376.328ZM178.41 376.328C178.41 377.597 178.233 378.727 177.878 379.716C177.542 380.705 177.047 381.545 176.394 382.236C175.759 382.908 174.985 383.421 174.07 383.776C173.155 384.112 172.119 384.28 170.962 384.28C169.898 384.28 168.909 384.112 167.994 383.776C167.098 383.421 166.323 382.908 165.67 382.236C165.017 381.545 164.503 380.705 164.13 379.716C163.775 378.727 163.598 377.597 163.598 376.328C163.598 374.629 163.897 373.201 164.494 372.044C165.091 370.868 165.95 369.972 167.07 369.356C168.19 368.74 169.515 368.432 171.046 368.432C172.483 368.432 173.753 368.74 174.854 369.356C175.955 369.972 176.823 370.868 177.458 372.044C178.093 373.201 178.41 374.629 178.41 376.328ZM167.854 376.328C167.854 377.336 167.957 378.185 168.162 378.876C168.386 379.548 168.731 380.061 169.198 380.416C169.665 380.752 170.271 380.92 171.018 380.92C171.765 380.92 172.362 380.752 172.81 380.416C173.277 380.061 173.613 379.548 173.818 378.876C174.042 378.185 174.154 377.336 174.154 376.328C174.154 375.32 174.042 374.48 173.818 373.808C173.613 373.136 173.277 372.632 172.81 372.296C172.343 371.96 171.737 371.792 170.99 371.792C169.889 371.792 169.086 372.175 168.582 372.94C168.097 373.687 167.854 374.816 167.854 376.328ZM186.03 384H181.858V362.72H186.03V384Z" fill="white"/>
<path d="M237.02 188.373C227.631 188.373 220.02 180.762 220.02 171.373C220.02 168.145 220.02 164.93 220.02 161.713C220.02 143.733 220.04 125.743 220 107.763C220 104.213 220.29 100.893 224.6 100.133C229.06 99.343 230.8 102.173 231.86 105.903C233.67 112.303 235.71 118.633 237.43 125.053C238.2 127.923 239.55 128.993 242.63 128.953C249.176 128.856 255.722 128.843 262.32 128.852C271.709 128.865 279.32 136.494 279.32 145.883L279.32 171.373C279.32 180.762 271.709 188.373 262.32 188.373L237.02 188.373Z" fill="white"/>
<path d="M303.02 188.373C293.631 188.373 286.02 180.762 286.02 171.373C286.02 168.145 286.02 164.93 286.02 161.713C286.02 143.733 286.04 125.743 286 107.763C286 104.213 286.29 100.893 290.6 100.133C295.06 99.343 296.8 102.173 297.86 105.903C299.67 112.303 301.71 118.633 303.43 125.053C304.2 127.923 305.55 128.993 308.63 128.953C315.176 128.856 321.722 128.843 328.32 128.852C337.709 128.865 345.32 136.494 345.32 145.883L345.32 171.373C345.32 180.762 337.709 188.373 328.32 188.373L303.02 188.373Z" fill="white"/>
</svg>
