<svg width="550" height="539" viewBox="0 0 550 539" fill="none" xmlns="http://www.w3.org/2000/svg">
<circle cx="280.5" cy="269.5" r="269.5" fill="#F04C23"/>
<path d="M349.202 161L343.154 144.004H343.042C343.061 144.377 343.089 144.881 343.126 145.516C343.163 146.151 343.191 146.832 343.21 147.56C343.229 148.288 343.238 149.007 343.238 149.716V161H340.494V141.008H344.806L350.546 157.052H350.658L356.566 141.008H360.878V161H357.938V149.548C357.938 148.895 357.947 148.223 357.966 147.532C358.003 146.823 358.031 146.16 358.05 145.544C358.087 144.928 358.115 144.424 358.134 144.032H358.022L351.806 161H349.202ZM371.797 145.628C373.122 145.628 374.261 145.908 375.213 146.468C376.165 147.009 376.893 147.793 377.397 148.82C377.92 149.847 378.181 151.06 378.181 152.46V154.084H368.045C368.082 155.633 368.484 156.819 369.249 157.64C370.033 158.461 371.125 158.872 372.525 158.872C373.496 158.872 374.354 158.788 375.101 158.62C375.866 158.433 376.65 158.163 377.453 157.808V160.272C376.706 160.608 375.941 160.86 375.157 161.028C374.392 161.196 373.477 161.28 372.413 161.28C370.957 161.28 369.669 160.991 368.549 160.412C367.429 159.833 366.552 158.975 365.917 157.836C365.301 156.679 364.993 155.26 364.993 153.58C364.993 151.881 365.273 150.444 365.833 149.268C366.412 148.092 367.205 147.196 368.213 146.58C369.24 145.945 370.434 145.628 371.797 145.628ZM371.797 147.924C370.733 147.924 369.874 148.269 369.221 148.96C368.586 149.651 368.213 150.631 368.101 151.9H375.213C375.213 151.116 375.092 150.425 374.849 149.828C374.606 149.231 374.233 148.764 373.729 148.428C373.225 148.092 372.581 147.924 371.797 147.924ZM391.909 156.744C391.909 157.733 391.666 158.564 391.181 159.236C390.695 159.908 389.995 160.421 389.081 160.776C388.166 161.112 387.065 161.28 385.777 161.28C384.713 161.28 383.798 161.196 383.033 161.028C382.286 160.879 381.595 160.655 380.961 160.356V157.752C381.633 158.069 382.407 158.359 383.285 158.62C384.162 158.863 385.021 158.984 385.861 158.984C386.981 158.984 387.783 158.807 388.269 158.452C388.773 158.097 389.025 157.621 389.025 157.024C389.025 156.688 388.931 156.389 388.745 156.128C388.558 155.848 388.203 155.568 387.681 155.288C387.177 154.989 386.43 154.653 385.441 154.28C384.489 153.888 383.677 153.505 383.005 153.132C382.333 152.74 381.819 152.283 381.465 151.76C381.11 151.219 380.933 150.528 380.933 149.688C380.933 148.381 381.455 147.383 382.501 146.692C383.565 145.983 384.965 145.628 386.701 145.628C387.615 145.628 388.474 145.721 389.277 145.908C390.098 146.076 390.891 146.337 391.657 146.692L390.677 148.96C390.247 148.755 389.799 148.587 389.333 148.456C388.885 148.307 388.427 148.185 387.961 148.092C387.513 147.999 387.046 147.952 386.561 147.952C385.665 147.952 384.983 148.092 384.517 148.372C384.05 148.652 383.817 149.044 383.817 149.548C383.817 149.903 383.919 150.211 384.125 150.472C384.349 150.733 384.731 150.995 385.273 151.256C385.814 151.517 386.551 151.835 387.485 152.208C388.418 152.563 389.211 152.927 389.865 153.3C390.537 153.673 391.041 154.131 391.377 154.672C391.731 155.213 391.909 155.904 391.909 156.744ZM412.359 145.628C414.058 145.628 415.336 146.067 416.195 146.944C417.054 147.821 417.483 149.231 417.483 151.172V161H414.515V151.564C414.515 150.407 414.282 149.539 413.815 148.96C413.367 148.363 412.658 148.064 411.687 148.064C410.343 148.064 409.382 148.484 408.803 149.324C408.224 150.145 407.935 151.34 407.935 152.908V161H404.995V151.564C404.995 150.799 404.883 150.155 404.659 149.632C404.454 149.109 404.146 148.717 403.735 148.456C403.324 148.195 402.792 148.064 402.139 148.064C401.206 148.064 400.468 148.269 399.927 148.68C399.386 149.091 398.994 149.697 398.751 150.5C398.527 151.284 398.415 152.245 398.415 153.384V161H395.447V145.908H397.799L398.219 147.924H398.387C398.704 147.401 399.087 146.972 399.535 146.636C400.002 146.3 400.515 146.048 401.075 145.88C401.635 145.712 402.214 145.628 402.811 145.628C403.95 145.628 404.911 145.833 405.695 146.244C406.479 146.636 407.048 147.243 407.403 148.064H407.627C408.112 147.224 408.784 146.608 409.643 146.216C410.502 145.824 411.407 145.628 412.359 145.628ZM427.961 145.628C429.287 145.628 430.425 145.908 431.377 146.468C432.329 147.009 433.057 147.793 433.561 148.82C434.084 149.847 434.345 151.06 434.345 152.46V154.084H424.209C424.247 155.633 424.648 156.819 425.413 157.64C426.197 158.461 427.289 158.872 428.689 158.872C429.66 158.872 430.519 158.788 431.265 158.62C432.031 158.433 432.815 158.163 433.617 157.808V160.272C432.871 160.608 432.105 160.86 431.321 161.028C430.556 161.196 429.641 161.28 428.577 161.28C427.121 161.28 425.833 160.991 424.713 160.412C423.593 159.833 422.716 158.975 422.081 157.836C421.465 156.679 421.157 155.26 421.157 153.58C421.157 151.881 421.437 150.444 421.997 149.268C422.576 148.092 423.369 147.196 424.377 146.58C425.404 145.945 426.599 145.628 427.961 145.628ZM427.961 147.924C426.897 147.924 426.039 148.269 425.385 148.96C424.751 149.651 424.377 150.631 424.265 151.9H431.377C431.377 151.116 431.256 150.425 431.013 149.828C430.771 149.231 430.397 148.764 429.893 148.428C429.389 148.092 428.745 147.924 427.961 147.924ZM445.497 145.628C445.758 145.628 446.047 145.647 446.365 145.684C446.682 145.703 446.943 145.731 447.149 145.768L446.841 148.54C446.635 148.484 446.393 148.437 446.113 148.4C445.833 148.363 445.571 148.344 445.329 148.344C444.769 148.344 444.227 148.456 443.705 148.68C443.201 148.885 442.743 149.193 442.333 149.604C441.922 149.996 441.595 150.481 441.353 151.06C441.129 151.639 441.017 152.301 441.017 153.048V161H438.049V145.908H440.401L440.793 148.596H440.905C441.222 148.055 441.605 147.56 442.053 147.112C442.501 146.664 443.014 146.309 443.593 146.048C444.171 145.768 444.806 145.628 445.497 145.628ZM452.911 145.908V161H449.943V145.908H452.911ZM451.455 140.168C451.903 140.168 452.295 140.299 452.631 140.56C452.967 140.821 453.135 141.26 453.135 141.876C453.135 142.473 452.967 142.912 452.631 143.192C452.295 143.453 451.903 143.584 451.455 143.584C450.97 143.584 450.559 143.453 450.223 143.192C449.906 142.912 449.747 142.473 449.747 141.876C449.747 141.26 449.906 140.821 450.223 140.56C450.559 140.299 450.97 140.168 451.455 140.168ZM467.54 161H456.228V159.124L464.012 148.204H456.704V145.908H467.316V148.008L459.7 158.704H467.54V161ZM473.829 145.908V161H470.861V145.908H473.829ZM472.373 140.168C472.821 140.168 473.213 140.299 473.549 140.56C473.885 140.821 474.053 141.26 474.053 141.876C474.053 142.473 473.885 142.912 473.549 143.192C473.213 143.453 472.821 143.584 472.373 143.584C471.888 143.584 471.477 143.453 471.141 143.192C470.824 142.912 470.665 142.473 470.665 141.876C470.665 141.26 470.824 140.821 471.141 140.56C471.477 140.299 471.888 140.168 472.373 140.168ZM486.134 145.628C487.889 145.628 489.233 146.067 490.166 146.944C491.099 147.821 491.566 149.231 491.566 151.172V161H488.626V151.592C488.626 150.416 488.374 149.539 487.87 148.96C487.385 148.363 486.601 148.064 485.518 148.064C483.987 148.064 482.923 148.521 482.326 149.436C481.747 150.351 481.458 151.667 481.458 153.384V161H478.49V145.908H480.842L481.262 147.924H481.43C481.766 147.401 482.177 146.972 482.662 146.636C483.147 146.3 483.689 146.048 484.286 145.88C484.883 145.712 485.499 145.628 486.134 145.628ZM501.335 145.628C502.305 145.628 503.183 145.815 503.967 146.188C504.751 146.561 505.413 147.131 505.955 147.896H506.095L506.431 145.908H508.839V161.196C508.839 162.615 508.587 163.809 508.083 164.78C507.579 165.751 506.804 166.479 505.759 166.964C504.732 167.468 503.435 167.72 501.867 167.72C500.784 167.72 499.785 167.645 498.871 167.496C497.956 167.347 497.116 167.113 496.351 166.796V164.192C496.892 164.453 497.461 164.668 498.059 164.836C498.656 165.023 499.291 165.153 499.963 165.228C500.635 165.321 501.325 165.368 502.035 165.368C503.267 165.368 504.219 165.013 504.891 164.304C505.563 163.613 505.899 162.633 505.899 161.364V160.86C505.899 160.617 505.908 160.3 505.927 159.908C505.945 159.497 505.964 159.199 505.983 159.012H505.871C505.348 159.796 504.704 160.375 503.939 160.748C503.192 161.103 502.324 161.28 501.335 161.28C499.431 161.28 497.937 160.599 496.855 159.236C495.791 157.855 495.259 155.941 495.259 153.496C495.259 151.853 495.501 150.453 495.987 149.296C496.472 148.12 497.163 147.215 498.059 146.58C498.973 145.945 500.065 145.628 501.335 145.628ZM501.951 148.092C501.167 148.092 500.504 148.307 499.963 148.736C499.421 149.147 499.011 149.753 498.731 150.556C498.451 151.359 498.311 152.348 498.311 153.524C498.311 155.279 498.619 156.613 499.235 157.528C499.869 158.443 500.793 158.9 502.007 158.9C502.716 158.9 503.313 158.807 503.799 158.62C504.303 158.433 504.713 158.144 505.031 157.752C505.367 157.36 505.609 156.865 505.759 156.268C505.927 155.652 506.011 154.915 506.011 154.056V153.496C506.011 152.208 505.861 151.172 505.563 150.388C505.283 149.585 504.844 149.007 504.247 148.652C503.649 148.279 502.884 148.092 501.951 148.092ZM372.508 183.628C373.833 183.628 374.972 183.908 375.924 184.468C376.876 185.009 377.604 185.793 378.108 186.82C378.631 187.847 378.892 189.06 378.892 190.46V192.084H368.756C368.793 193.633 369.195 194.819 369.96 195.64C370.744 196.461 371.836 196.872 373.236 196.872C374.207 196.872 375.065 196.788 375.812 196.62C376.577 196.433 377.361 196.163 378.164 195.808V198.272C377.417 198.608 376.652 198.86 375.868 199.028C375.103 199.196 374.188 199.28 373.124 199.28C371.668 199.28 370.38 198.991 369.26 198.412C368.14 197.833 367.263 196.975 366.628 195.836C366.012 194.679 365.704 193.26 365.704 191.58C365.704 189.881 365.984 188.444 366.544 187.268C367.123 186.092 367.916 185.196 368.924 184.58C369.951 183.945 371.145 183.628 372.508 183.628ZM372.508 185.924C371.444 185.924 370.585 186.269 369.932 186.96C369.297 187.651 368.924 188.631 368.812 189.9H375.924C375.924 189.116 375.803 188.425 375.56 187.828C375.317 187.231 374.944 186.764 374.44 186.428C373.936 186.092 373.292 185.924 372.508 185.924ZM387.775 199.28C385.965 199.28 384.499 198.627 383.379 197.32C382.278 196.013 381.727 194.072 381.727 191.496C381.727 188.901 382.287 186.941 383.407 185.616C384.527 184.291 386.002 183.628 387.831 183.628C388.597 183.628 389.259 183.731 389.819 183.936C390.398 184.123 390.893 184.384 391.303 184.72C391.733 185.056 392.097 185.429 392.395 185.84H392.563C392.526 185.579 392.479 185.205 392.423 184.72C392.367 184.216 392.339 183.768 392.339 183.376V177.72H395.307V199H392.983L392.479 196.984H392.339C392.059 197.413 391.705 197.805 391.275 198.16C390.865 198.496 390.37 198.767 389.791 198.972C389.213 199.177 388.541 199.28 387.775 199.28ZM388.475 196.844C389.931 196.844 390.958 196.443 391.555 195.64C392.153 194.819 392.451 193.596 392.451 191.972V191.524C392.451 189.751 392.162 188.397 391.583 187.464C391.023 186.531 389.978 186.064 388.447 186.064C387.234 186.064 386.319 186.559 385.703 187.548C385.087 188.519 384.779 189.853 384.779 191.552C384.779 193.251 385.087 194.557 385.703 195.472C386.319 196.387 387.243 196.844 388.475 196.844ZM412.951 183.908V199H410.571L410.151 197.012H410.011C409.693 197.535 409.283 197.964 408.779 198.3C408.275 198.636 407.724 198.879 407.127 199.028C406.529 199.196 405.913 199.28 405.279 199.28C404.103 199.28 403.104 199.093 402.283 198.72C401.48 198.328 400.864 197.731 400.435 196.928C400.024 196.107 399.819 195.061 399.819 193.792V183.908H402.815V193.344C402.815 194.52 403.057 195.397 403.543 195.976C404.047 196.555 404.821 196.844 405.867 196.844C406.912 196.844 407.733 196.639 408.331 196.228C408.928 195.817 409.348 195.22 409.591 194.436C409.852 193.633 409.983 192.672 409.983 191.552V183.908H412.951ZM423.671 199.28C422.29 199.28 421.077 199.009 420.031 198.468C418.986 197.927 418.174 197.087 417.595 195.948C417.017 194.791 416.727 193.325 416.727 191.552C416.727 189.685 417.035 188.173 417.651 187.016C418.286 185.859 419.135 185.009 420.199 184.468C421.282 183.908 422.514 183.628 423.895 183.628C424.735 183.628 425.519 183.721 426.247 183.908C426.994 184.076 427.61 184.272 428.095 184.496L427.199 186.904C426.677 186.699 426.117 186.521 425.519 186.372C424.941 186.223 424.39 186.148 423.867 186.148C422.934 186.148 422.159 186.353 421.543 186.764C420.946 187.156 420.498 187.753 420.199 188.556C419.919 189.34 419.779 190.329 419.779 191.524C419.779 192.663 419.929 193.624 420.227 194.408C420.526 195.192 420.965 195.789 421.543 196.2C422.141 196.592 422.878 196.788 423.755 196.788C424.595 196.788 425.333 196.695 425.967 196.508C426.602 196.321 427.199 196.079 427.759 195.78V198.356C427.218 198.673 426.63 198.907 425.995 199.056C425.361 199.205 424.586 199.28 423.671 199.28ZM437.174 183.628C439.078 183.628 440.497 184.048 441.43 184.888C442.363 185.709 442.83 187.007 442.83 188.78V199H440.73L440.142 196.9H440.03C439.601 197.441 439.153 197.889 438.686 198.244C438.238 198.599 437.715 198.86 437.118 199.028C436.539 199.196 435.83 199.28 434.99 199.28C434.094 199.28 433.282 199.121 432.554 198.804C431.845 198.468 431.285 197.964 430.874 197.292C430.463 196.601 430.258 195.743 430.258 194.716C430.258 193.185 430.837 192.019 431.994 191.216C433.17 190.413 434.953 189.975 437.342 189.9L439.918 189.816V188.976C439.918 187.856 439.666 187.072 439.162 186.624C438.658 186.176 437.949 185.952 437.034 185.952C436.25 185.952 435.503 186.064 434.794 186.288C434.085 186.512 433.413 186.783 432.778 187.1L431.826 184.944C432.535 184.571 433.347 184.263 434.262 184.02C435.195 183.759 436.166 183.628 437.174 183.628ZM437.874 191.804C436.157 191.879 434.962 192.168 434.29 192.672C433.637 193.157 433.31 193.848 433.31 194.744C433.31 195.528 433.543 196.097 434.01 196.452C434.495 196.807 435.102 196.984 435.83 196.984C437.006 196.984 437.977 196.657 438.742 196.004C439.507 195.351 439.89 194.371 439.89 193.064V191.748L437.874 191.804ZM452.832 196.872C453.224 196.872 453.626 196.835 454.036 196.76C454.447 196.685 454.802 196.601 455.1 196.508V198.748C454.783 198.897 454.354 199.019 453.812 199.112C453.271 199.224 452.73 199.28 452.188 199.28C451.367 199.28 450.611 199.14 449.92 198.86C449.248 198.58 448.707 198.095 448.296 197.404C447.886 196.713 447.68 195.752 447.68 194.52V186.176H445.58V184.832L447.792 183.712L448.828 180.52H450.648V183.908H454.96V186.176H450.648V194.464C450.648 195.285 450.844 195.892 451.236 196.284C451.647 196.676 452.179 196.872 452.832 196.872ZM471.419 191.44C471.419 192.691 471.251 193.801 470.915 194.772C470.579 195.743 470.103 196.564 469.487 197.236C468.871 197.908 468.124 198.421 467.247 198.776C466.37 199.112 465.38 199.28 464.279 199.28C463.271 199.28 462.338 199.112 461.479 198.776C460.62 198.421 459.874 197.908 459.239 197.236C458.623 196.564 458.138 195.743 457.783 194.772C457.428 193.801 457.251 192.681 457.251 191.412C457.251 189.751 457.531 188.341 458.091 187.184C458.67 186.027 459.491 185.149 460.555 184.552C461.638 183.936 462.907 183.628 464.363 183.628C465.744 183.628 466.958 183.936 468.003 184.552C469.067 185.149 469.898 186.027 470.495 187.184C471.111 188.341 471.419 189.76 471.419 191.44ZM460.303 191.44C460.303 192.56 460.443 193.531 460.723 194.352C461.003 195.155 461.442 195.771 462.039 196.2C462.636 196.629 463.402 196.844 464.335 196.844C465.268 196.844 466.034 196.629 466.631 196.2C467.228 195.771 467.667 195.155 467.947 194.352C468.227 193.531 468.367 192.56 468.367 191.44C468.367 190.283 468.218 189.312 467.919 188.528C467.639 187.744 467.2 187.147 466.603 186.736C466.024 186.307 465.259 186.092 464.307 186.092C462.907 186.092 461.89 186.559 461.255 187.492C460.62 188.425 460.303 189.741 460.303 191.44ZM482.629 183.628C482.891 183.628 483.18 183.647 483.497 183.684C483.815 183.703 484.076 183.731 484.281 183.768L483.973 186.54C483.768 186.484 483.525 186.437 483.245 186.4C482.965 186.363 482.704 186.344 482.461 186.344C481.901 186.344 481.36 186.456 480.837 186.68C480.333 186.885 479.876 187.193 479.465 187.604C479.055 187.996 478.728 188.481 478.485 189.06C478.261 189.639 478.149 190.301 478.149 191.048V199H475.181V183.908H477.533L477.925 186.596H478.037C478.355 186.055 478.737 185.56 479.185 185.112C479.633 184.664 480.147 184.309 480.725 184.048C481.304 183.768 481.939 183.628 482.629 183.628ZM344.544 229.44C344.544 230.691 344.376 231.801 344.04 232.772C343.704 233.743 343.228 234.564 342.612 235.236C341.996 235.908 341.249 236.421 340.372 236.776C339.495 237.112 338.505 237.28 337.404 237.28C336.396 237.28 335.463 237.112 334.604 236.776C333.745 236.421 332.999 235.908 332.364 235.236C331.748 234.564 331.263 233.743 330.908 232.772C330.553 231.801 330.376 230.681 330.376 229.412C330.376 227.751 330.656 226.341 331.216 225.184C331.795 224.027 332.616 223.149 333.68 222.552C334.763 221.936 336.032 221.628 337.488 221.628C338.869 221.628 340.083 221.936 341.128 222.552C342.192 223.149 343.023 224.027 343.62 225.184C344.236 226.341 344.544 227.76 344.544 229.44ZM333.428 229.44C333.428 230.56 333.568 231.531 333.848 232.352C334.128 233.155 334.567 233.771 335.164 234.2C335.761 234.629 336.527 234.844 337.46 234.844C338.393 234.844 339.159 234.629 339.756 234.2C340.353 233.771 340.792 233.155 341.072 232.352C341.352 231.531 341.492 230.56 341.492 229.44C341.492 228.283 341.343 227.312 341.044 226.528C340.764 225.744 340.325 225.147 339.728 224.736C339.149 224.307 338.384 224.092 337.432 224.092C336.032 224.092 335.015 224.559 334.38 225.492C333.745 226.425 333.428 227.741 333.428 229.44ZM355.754 221.628C356.016 221.628 356.305 221.647 356.622 221.684C356.94 221.703 357.201 221.731 357.406 221.768L357.098 224.54C356.893 224.484 356.65 224.437 356.37 224.4C356.09 224.363 355.829 224.344 355.586 224.344C355.026 224.344 354.485 224.456 353.962 224.68C353.458 224.885 353.001 225.193 352.59 225.604C352.18 225.996 351.853 226.481 351.61 227.06C351.386 227.639 351.274 228.301 351.274 229.048V237H348.306V221.908H350.658L351.05 224.596H351.162C351.48 224.055 351.862 223.56 352.31 223.112C352.758 222.664 353.272 222.309 353.85 222.048C354.429 221.768 355.064 221.628 355.754 221.628ZM365.73 237.28C364.349 237.28 363.135 237.009 362.09 236.468C361.045 235.927 360.233 235.087 359.654 233.948C359.075 232.791 358.786 231.325 358.786 229.552C358.786 227.685 359.094 226.173 359.71 225.016C360.345 223.859 361.194 223.009 362.258 222.468C363.341 221.908 364.573 221.628 365.954 221.628C366.794 221.628 367.578 221.721 368.306 221.908C369.053 222.076 369.669 222.272 370.154 222.496L369.258 224.904C368.735 224.699 368.175 224.521 367.578 224.372C366.999 224.223 366.449 224.148 365.926 224.148C364.993 224.148 364.218 224.353 363.602 224.764C363.005 225.156 362.557 225.753 362.258 226.556C361.978 227.34 361.838 228.329 361.838 229.524C361.838 230.663 361.987 231.624 362.286 232.408C362.585 233.192 363.023 233.789 363.602 234.2C364.199 234.592 364.937 234.788 365.814 234.788C366.654 234.788 367.391 234.695 368.026 234.508C368.661 234.321 369.258 234.079 369.818 233.78V236.356C369.277 236.673 368.689 236.907 368.054 237.056C367.419 237.205 366.645 237.28 365.73 237.28ZM376.349 221.404C376.349 221.871 376.33 222.337 376.293 222.804C376.255 223.271 376.218 223.653 376.181 223.952H376.377C376.694 223.429 377.086 223 377.553 222.664C378.038 222.328 378.57 222.076 379.149 221.908C379.746 221.74 380.353 221.656 380.969 221.656C382.163 221.656 383.162 221.852 383.965 222.244C384.786 222.617 385.402 223.215 385.813 224.036C386.242 224.839 386.457 225.884 386.457 227.172V237H383.517V227.592C383.517 226.416 383.265 225.539 382.761 224.96C382.275 224.363 381.491 224.064 380.409 224.064C379.382 224.064 378.57 224.269 377.973 224.68C377.394 225.091 376.974 225.697 376.713 226.5C376.47 227.284 376.349 228.255 376.349 229.412V237H373.381V215.72H376.349V221.404ZM396.953 221.628C398.279 221.628 399.417 221.908 400.369 222.468C401.321 223.009 402.049 223.793 402.553 224.82C403.076 225.847 403.337 227.06 403.337 228.46V230.084H393.201C393.239 231.633 393.64 232.819 394.405 233.64C395.189 234.461 396.281 234.872 397.681 234.872C398.652 234.872 399.511 234.788 400.257 234.62C401.023 234.433 401.807 234.163 402.609 233.808V236.272C401.863 236.608 401.097 236.86 400.313 237.028C399.548 237.196 398.633 237.28 397.569 237.28C396.113 237.28 394.825 236.991 393.705 236.412C392.585 235.833 391.708 234.975 391.073 233.836C390.457 232.679 390.149 231.26 390.149 229.58C390.149 227.881 390.429 226.444 390.989 225.268C391.568 224.092 392.361 223.196 393.369 222.58C394.396 221.945 395.591 221.628 396.953 221.628ZM396.953 223.924C395.889 223.924 395.031 224.269 394.377 224.96C393.743 225.651 393.369 226.631 393.257 227.9H400.369C400.369 227.116 400.248 226.425 400.005 225.828C399.763 225.231 399.389 224.764 398.885 224.428C398.381 224.092 397.737 223.924 396.953 223.924ZM417.065 232.744C417.065 233.733 416.822 234.564 416.337 235.236C415.851 235.908 415.151 236.421 414.237 236.776C413.322 237.112 412.221 237.28 410.933 237.28C409.869 237.28 408.954 237.196 408.189 237.028C407.442 236.879 406.751 236.655 406.117 236.356V233.752C406.789 234.069 407.563 234.359 408.441 234.62C409.318 234.863 410.177 234.984 411.017 234.984C412.137 234.984 412.939 234.807 413.425 234.452C413.929 234.097 414.181 233.621 414.181 233.024C414.181 232.688 414.087 232.389 413.901 232.128C413.714 231.848 413.359 231.568 412.837 231.288C412.333 230.989 411.586 230.653 410.597 230.28C409.645 229.888 408.833 229.505 408.161 229.132C407.489 228.74 406.975 228.283 406.621 227.76C406.266 227.219 406.089 226.528 406.089 225.688C406.089 224.381 406.611 223.383 407.657 222.692C408.721 221.983 410.121 221.628 411.857 221.628C412.771 221.628 413.63 221.721 414.433 221.908C415.254 222.076 416.047 222.337 416.813 222.692L415.833 224.96C415.403 224.755 414.955 224.587 414.489 224.456C414.041 224.307 413.583 224.185 413.117 224.092C412.669 223.999 412.202 223.952 411.717 223.952C410.821 223.952 410.139 224.092 409.673 224.372C409.206 224.652 408.973 225.044 408.973 225.548C408.973 225.903 409.075 226.211 409.281 226.472C409.505 226.733 409.887 226.995 410.429 227.256C410.97 227.517 411.707 227.835 412.641 228.208C413.574 228.563 414.367 228.927 415.021 229.3C415.693 229.673 416.197 230.131 416.533 230.672C416.887 231.213 417.065 231.904 417.065 232.744ZM426.035 234.872C426.427 234.872 426.829 234.835 427.239 234.76C427.65 234.685 428.005 234.601 428.303 234.508V236.748C427.986 236.897 427.557 237.019 427.015 237.112C426.474 237.224 425.933 237.28 425.391 237.28C424.57 237.28 423.814 237.14 423.123 236.86C422.451 236.58 421.91 236.095 421.499 235.404C421.089 234.713 420.883 233.752 420.883 232.52V224.176H418.783V222.832L420.995 221.712L422.031 218.52H423.851V221.908H428.163V224.176H423.851V232.464C423.851 233.285 424.047 233.892 424.439 234.284C424.85 234.676 425.382 234.872 426.035 234.872ZM438.77 221.628C439.031 221.628 439.321 221.647 439.638 221.684C439.955 221.703 440.217 221.731 440.422 221.768L440.114 224.54C439.909 224.484 439.666 224.437 439.386 224.4C439.106 224.363 438.845 224.344 438.602 224.344C438.042 224.344 437.501 224.456 436.978 224.68C436.474 224.885 436.017 225.193 435.606 225.604C435.195 225.996 434.869 226.481 434.626 227.06C434.402 227.639 434.29 228.301 434.29 229.048V237H431.322V221.908H433.674L434.066 224.596H434.178C434.495 224.055 434.878 223.56 435.326 223.112C435.774 222.664 436.287 222.309 436.866 222.048C437.445 221.768 438.079 221.628 438.77 221.628ZM448.522 221.628C450.426 221.628 451.844 222.048 452.778 222.888C453.711 223.709 454.178 225.007 454.178 226.78V237H452.078L451.49 234.9H451.378C450.948 235.441 450.5 235.889 450.034 236.244C449.586 236.599 449.063 236.86 448.466 237.028C447.887 237.196 447.178 237.28 446.338 237.28C445.442 237.28 444.63 237.121 443.902 236.804C443.192 236.468 442.632 235.964 442.222 235.292C441.811 234.601 441.606 233.743 441.606 232.716C441.606 231.185 442.184 230.019 443.342 229.216C444.518 228.413 446.3 227.975 448.69 227.9L451.266 227.816V226.976C451.266 225.856 451.014 225.072 450.51 224.624C450.006 224.176 449.296 223.952 448.382 223.952C447.598 223.952 446.851 224.064 446.142 224.288C445.432 224.512 444.76 224.783 444.126 225.1L443.174 222.944C443.883 222.571 444.695 222.263 445.61 222.02C446.543 221.759 447.514 221.628 448.522 221.628ZM449.222 229.804C447.504 229.879 446.31 230.168 445.638 230.672C444.984 231.157 444.658 231.848 444.658 232.744C444.658 233.528 444.891 234.097 445.358 234.452C445.843 234.807 446.45 234.984 447.178 234.984C448.354 234.984 449.324 234.657 450.09 234.004C450.855 233.351 451.238 232.371 451.238 231.064V229.748L449.222 229.804ZM464.18 234.872C464.572 234.872 464.973 234.835 465.384 234.76C465.794 234.685 466.149 234.601 466.448 234.508V236.748C466.13 236.897 465.701 237.019 465.16 237.112C464.618 237.224 464.077 237.28 463.536 237.28C462.714 237.28 461.958 237.14 461.268 236.86C460.596 236.58 460.054 236.095 459.644 235.404C459.233 234.713 459.028 233.752 459.028 232.52V224.176H456.928V222.832L459.14 221.712L460.176 218.52H461.996V221.908H466.308V224.176H461.996V232.464C461.996 233.285 462.192 233.892 462.584 234.284C462.994 234.676 463.526 234.872 464.18 234.872ZM475.403 221.628C476.728 221.628 477.867 221.908 478.819 222.468C479.771 223.009 480.499 223.793 481.003 224.82C481.525 225.847 481.787 227.06 481.787 228.46V230.084H471.651C471.688 231.633 472.089 232.819 472.855 233.64C473.639 234.461 474.731 234.872 476.131 234.872C477.101 234.872 477.96 234.788 478.707 234.62C479.472 234.433 480.256 234.163 481.059 233.808V236.272C480.312 236.608 479.547 236.86 478.763 237.028C477.997 237.196 477.083 237.28 476.019 237.28C474.563 237.28 473.275 236.991 472.155 236.412C471.035 235.833 470.157 234.975 469.523 233.836C468.907 232.679 468.599 231.26 468.599 229.58C468.599 227.881 468.879 226.444 469.439 225.268C470.017 224.092 470.811 223.196 471.819 222.58C472.845 221.945 474.04 221.628 475.403 221.628ZM475.403 223.924C474.339 223.924 473.48 224.269 472.827 224.96C472.192 225.651 471.819 226.631 471.707 227.9H478.819C478.819 227.116 478.697 226.425 478.455 225.828C478.212 225.231 477.839 224.764 477.335 224.428C476.831 224.092 476.187 223.924 475.403 223.924ZM495.514 232.744C495.514 233.733 495.271 234.564 494.786 235.236C494.301 235.908 493.601 236.421 492.686 236.776C491.771 237.112 490.67 237.28 489.382 237.28C488.318 237.28 487.403 237.196 486.638 237.028C485.891 236.879 485.201 236.655 484.566 236.356V233.752C485.238 234.069 486.013 234.359 486.89 234.62C487.767 234.863 488.626 234.984 489.466 234.984C490.586 234.984 491.389 234.807 491.874 234.452C492.378 234.097 492.63 233.621 492.63 233.024C492.63 232.688 492.537 232.389 492.35 232.128C492.163 231.848 491.809 231.568 491.286 231.288C490.782 230.989 490.035 230.653 489.046 230.28C488.094 229.888 487.282 229.505 486.61 229.132C485.938 228.74 485.425 228.283 485.07 227.76C484.715 227.219 484.538 226.528 484.538 225.688C484.538 224.381 485.061 223.383 486.106 222.692C487.17 221.983 488.57 221.628 490.306 221.628C491.221 221.628 492.079 221.721 492.882 221.908C493.703 222.076 494.497 222.337 495.262 222.692L494.282 224.96C493.853 224.755 493.405 224.587 492.938 224.456C492.49 224.307 492.033 224.185 491.566 224.092C491.118 223.999 490.651 223.952 490.166 223.952C489.27 223.952 488.589 224.092 488.122 224.372C487.655 224.652 487.422 225.044 487.422 225.548C487.422 225.903 487.525 226.211 487.73 226.472C487.954 226.733 488.337 226.995 488.878 227.256C489.419 227.517 490.157 227.835 491.09 228.208C492.023 228.563 492.817 228.927 493.47 229.3C494.142 229.673 494.646 230.131 494.982 230.672C495.337 231.213 495.514 231.904 495.514 232.744ZM512.178 221.628C514.082 221.628 515.501 222.048 516.434 222.888C517.367 223.709 517.834 225.007 517.834 226.78V237H515.734L515.146 234.9H515.034C514.605 235.441 514.157 235.889 513.69 236.244C513.242 236.599 512.719 236.86 512.122 237.028C511.543 237.196 510.834 237.28 509.994 237.28C509.098 237.28 508.286 237.121 507.558 236.804C506.849 236.468 506.289 235.964 505.878 235.292C505.467 234.601 505.262 233.743 505.262 232.716C505.262 231.185 505.841 230.019 506.998 229.216C508.174 228.413 509.957 227.975 512.346 227.9L514.922 227.816V226.976C514.922 225.856 514.67 225.072 514.166 224.624C513.662 224.176 512.953 223.952 512.038 223.952C511.254 223.952 510.507 224.064 509.798 224.288C509.089 224.512 508.417 224.783 507.782 225.1L506.83 222.944C507.539 222.571 508.351 222.263 509.266 222.02C510.199 221.759 511.17 221.628 512.178 221.628ZM512.878 229.804C511.161 229.879 509.966 230.168 509.294 230.672C508.641 231.157 508.314 231.848 508.314 232.744C508.314 233.528 508.547 234.097 509.014 234.452C509.499 234.807 510.106 234.984 510.834 234.984C512.01 234.984 512.981 234.657 513.746 234.004C514.511 233.351 514.894 232.371 514.894 231.064V229.748L512.878 229.804ZM332.219 272.872C332.611 272.872 333.012 272.835 333.423 272.76C333.834 272.685 334.188 272.601 334.487 272.508V274.748C334.17 274.897 333.74 275.019 333.199 275.112C332.658 275.224 332.116 275.28 331.575 275.28C330.754 275.28 329.998 275.14 329.307 274.86C328.635 274.58 328.094 274.095 327.683 273.404C327.272 272.713 327.067 271.752 327.067 270.52V262.176H324.967V260.832L327.179 259.712L328.215 256.52H330.035V259.908H334.347V262.176H330.035V270.464C330.035 271.285 330.231 271.892 330.623 272.284C331.034 272.676 331.566 272.872 332.219 272.872ZM344.954 259.628C345.215 259.628 345.504 259.647 345.822 259.684C346.139 259.703 346.4 259.731 346.606 259.768L346.298 262.54C346.092 262.484 345.85 262.437 345.57 262.4C345.29 262.363 345.028 262.344 344.786 262.344C344.226 262.344 343.684 262.456 343.162 262.68C342.658 262.885 342.2 263.193 341.79 263.604C341.379 263.996 341.052 264.481 340.81 265.06C340.586 265.639 340.474 266.301 340.474 267.048V275H337.506V259.908H339.858L340.25 262.596H340.362C340.679 262.055 341.062 261.56 341.51 261.112C341.958 260.664 342.471 260.309 343.05 260.048C343.628 259.768 344.263 259.628 344.954 259.628ZM354.705 259.628C356.609 259.628 358.028 260.048 358.961 260.888C359.895 261.709 360.361 263.007 360.361 264.78V275H358.261L357.673 272.9H357.561C357.132 273.441 356.684 273.889 356.217 274.244C355.769 274.599 355.247 274.86 354.649 275.028C354.071 275.196 353.361 275.28 352.521 275.28C351.625 275.28 350.813 275.121 350.085 274.804C349.376 274.468 348.816 273.964 348.405 273.292C347.995 272.601 347.789 271.743 347.789 270.716C347.789 269.185 348.368 268.019 349.525 267.216C350.701 266.413 352.484 265.975 354.873 265.9L357.449 265.816V264.976C357.449 263.856 357.197 263.072 356.693 262.624C356.189 262.176 355.48 261.952 354.565 261.952C353.781 261.952 353.035 262.064 352.325 262.288C351.616 262.512 350.944 262.783 350.309 263.1L349.357 260.944C350.067 260.571 350.879 260.263 351.793 260.02C352.727 259.759 353.697 259.628 354.705 259.628ZM355.405 267.804C353.688 267.879 352.493 268.168 351.821 268.672C351.168 269.157 350.841 269.848 350.841 270.744C350.841 271.528 351.075 272.097 351.541 272.452C352.027 272.807 352.633 272.984 353.361 272.984C354.537 272.984 355.508 272.657 356.273 272.004C357.039 271.351 357.421 270.371 357.421 269.064V267.748L355.405 267.804ZM372.575 259.628C374.33 259.628 375.674 260.067 376.607 260.944C377.541 261.821 378.007 263.231 378.007 265.172V275H375.067V265.592C375.067 264.416 374.815 263.539 374.311 262.96C373.826 262.363 373.042 262.064 371.959 262.064C370.429 262.064 369.365 262.521 368.767 263.436C368.189 264.351 367.899 265.667 367.899 267.384V275H364.931V259.908H367.283L367.703 261.924H367.871C368.207 261.401 368.618 260.972 369.103 260.636C369.589 260.3 370.13 260.048 370.727 259.88C371.325 259.712 371.941 259.628 372.575 259.628ZM392.592 270.744C392.592 271.733 392.349 272.564 391.864 273.236C391.379 273.908 390.679 274.421 389.764 274.776C388.849 275.112 387.748 275.28 386.46 275.28C385.396 275.28 384.481 275.196 383.716 275.028C382.969 274.879 382.279 274.655 381.644 274.356V271.752C382.316 272.069 383.091 272.359 383.968 272.62C384.845 272.863 385.704 272.984 386.544 272.984C387.664 272.984 388.467 272.807 388.952 272.452C389.456 272.097 389.708 271.621 389.708 271.024C389.708 270.688 389.615 270.389 389.428 270.128C389.241 269.848 388.887 269.568 388.364 269.288C387.86 268.989 387.113 268.653 386.124 268.28C385.172 267.888 384.36 267.505 383.688 267.132C383.016 266.74 382.503 266.283 382.148 265.76C381.793 265.219 381.616 264.528 381.616 263.688C381.616 262.381 382.139 261.383 383.184 260.692C384.248 259.983 385.648 259.628 387.384 259.628C388.299 259.628 389.157 259.721 389.96 259.908C390.781 260.076 391.575 260.337 392.34 260.692L391.36 262.96C390.931 262.755 390.483 262.587 390.016 262.456C389.568 262.307 389.111 262.185 388.644 262.092C388.196 261.999 387.729 261.952 387.244 261.952C386.348 261.952 385.667 262.092 385.2 262.372C384.733 262.652 384.5 263.044 384.5 263.548C384.5 263.903 384.603 264.211 384.808 264.472C385.032 264.733 385.415 264.995 385.956 265.256C386.497 265.517 387.235 265.835 388.168 266.208C389.101 266.563 389.895 266.927 390.548 267.3C391.22 267.673 391.724 268.131 392.06 268.672C392.415 269.213 392.592 269.904 392.592 270.744ZM403.495 262.176H399.771V275H396.803V262.176H394.255V260.776L396.803 259.852V258.9C396.803 257.612 396.999 256.585 397.391 255.82C397.801 255.036 398.38 254.467 399.127 254.112C399.873 253.757 400.779 253.58 401.843 253.58C402.496 253.58 403.093 253.636 403.635 253.748C404.176 253.86 404.633 253.981 405.007 254.112L404.251 256.38C403.952 256.287 403.607 256.203 403.215 256.128C402.823 256.035 402.412 255.988 401.983 255.988C401.236 255.988 400.676 256.231 400.303 256.716C399.948 257.201 399.771 257.939 399.771 258.928V259.908H403.495V262.176ZM419.438 267.44C419.438 268.691 419.27 269.801 418.934 270.772C418.598 271.743 418.122 272.564 417.506 273.236C416.89 273.908 416.144 274.421 415.266 274.776C414.389 275.112 413.4 275.28 412.298 275.28C411.29 275.28 410.357 275.112 409.498 274.776C408.64 274.421 407.893 273.908 407.258 273.236C406.642 272.564 406.157 271.743 405.802 270.772C405.448 269.801 405.27 268.681 405.27 267.412C405.27 265.751 405.55 264.341 406.11 263.184C406.689 262.027 407.51 261.149 408.574 260.552C409.657 259.936 410.926 259.628 412.382 259.628C413.764 259.628 414.977 259.936 416.022 260.552C417.086 261.149 417.917 262.027 418.514 263.184C419.13 264.341 419.438 265.76 419.438 267.44ZM408.322 267.44C408.322 268.56 408.462 269.531 408.742 270.352C409.022 271.155 409.461 271.771 410.058 272.2C410.656 272.629 411.421 272.844 412.354 272.844C413.288 272.844 414.053 272.629 414.65 272.2C415.248 271.771 415.686 271.155 415.966 270.352C416.246 269.531 416.386 268.56 416.386 267.44C416.386 266.283 416.237 265.312 415.938 264.528C415.658 263.744 415.22 263.147 414.622 262.736C414.044 262.307 413.278 262.092 412.326 262.092C410.926 262.092 409.909 262.559 409.274 263.492C408.64 264.425 408.322 265.741 408.322 267.44ZM430.649 259.628C430.91 259.628 431.2 259.647 431.517 259.684C431.834 259.703 432.096 259.731 432.301 259.768L431.993 262.54C431.788 262.484 431.545 262.437 431.265 262.4C430.985 262.363 430.724 262.344 430.481 262.344C429.921 262.344 429.38 262.456 428.857 262.68C428.353 262.885 427.896 263.193 427.485 263.604C427.074 263.996 426.748 264.481 426.505 265.06C426.281 265.639 426.169 266.301 426.169 267.048V275H423.201V259.908H425.553L425.945 262.596H426.057C426.374 262.055 426.757 261.56 427.205 261.112C427.653 260.664 428.166 260.309 428.745 260.048C429.324 259.768 429.958 259.628 430.649 259.628ZM452.007 259.628C453.706 259.628 454.985 260.067 455.843 260.944C456.702 261.821 457.131 263.231 457.131 265.172V275H454.163V265.564C454.163 264.407 453.93 263.539 453.463 262.96C453.015 262.363 452.306 262.064 451.335 262.064C449.991 262.064 449.03 262.484 448.451 263.324C447.873 264.145 447.583 265.34 447.583 266.908V275H444.643V265.564C444.643 264.799 444.531 264.155 444.307 263.632C444.102 263.109 443.794 262.717 443.383 262.456C442.973 262.195 442.441 262.064 441.787 262.064C440.854 262.064 440.117 262.269 439.575 262.68C439.034 263.091 438.642 263.697 438.399 264.5C438.175 265.284 438.063 266.245 438.063 267.384V275H435.095V259.908H437.447L437.867 261.924H438.035C438.353 261.401 438.735 260.972 439.183 260.636C439.65 260.3 440.163 260.048 440.723 259.88C441.283 259.712 441.862 259.628 442.459 259.628C443.598 259.628 444.559 259.833 445.343 260.244C446.127 260.636 446.697 261.243 447.051 262.064H447.275C447.761 261.224 448.433 260.608 449.291 260.216C450.15 259.824 451.055 259.628 452.007 259.628ZM467.526 259.628C469.43 259.628 470.848 260.048 471.782 260.888C472.715 261.709 473.182 263.007 473.182 264.78V275H471.082L470.494 272.9H470.382C469.952 273.441 469.504 273.889 469.038 274.244C468.59 274.599 468.067 274.86 467.47 275.028C466.891 275.196 466.182 275.28 465.342 275.28C464.446 275.28 463.634 275.121 462.906 274.804C462.196 274.468 461.636 273.964 461.226 273.292C460.815 272.601 460.61 271.743 460.61 270.716C460.61 269.185 461.188 268.019 462.346 267.216C463.522 266.413 465.304 265.975 467.694 265.9L470.27 265.816V264.976C470.27 263.856 470.018 263.072 469.514 262.624C469.01 262.176 468.3 261.952 467.386 261.952C466.602 261.952 465.855 262.064 465.146 262.288C464.436 262.512 463.764 262.783 463.13 263.1L462.178 260.944C462.887 260.571 463.699 260.263 464.614 260.02C465.547 259.759 466.518 259.628 467.526 259.628ZM468.226 267.804C466.508 267.879 465.314 268.168 464.642 268.672C463.988 269.157 463.662 269.848 463.662 270.744C463.662 271.528 463.895 272.097 464.362 272.452C464.847 272.807 465.454 272.984 466.182 272.984C467.358 272.984 468.328 272.657 469.094 272.004C469.859 271.351 470.242 270.371 470.242 269.064V267.748L468.226 267.804ZM483.184 272.872C483.576 272.872 483.977 272.835 484.388 272.76C484.798 272.685 485.153 272.601 485.452 272.508V274.748C485.134 274.897 484.705 275.019 484.164 275.112C483.622 275.224 483.081 275.28 482.54 275.28C481.718 275.28 480.962 275.14 480.272 274.86C479.6 274.58 479.058 274.095 478.648 273.404C478.237 272.713 478.032 271.752 478.032 270.52V262.176H475.932V260.832L478.144 259.712L479.18 256.52H481V259.908H485.312V262.176H481V270.464C481 271.285 481.196 271.892 481.588 272.284C481.998 272.676 482.53 272.872 483.184 272.872ZM491.438 259.908V275H488.47V259.908H491.438ZM489.982 254.168C490.43 254.168 490.822 254.299 491.158 254.56C491.494 254.821 491.662 255.26 491.662 255.876C491.662 256.473 491.494 256.912 491.158 257.192C490.822 257.453 490.43 257.584 489.982 257.584C489.497 257.584 489.086 257.453 488.75 257.192C488.433 256.912 488.274 256.473 488.274 255.876C488.274 255.26 488.433 254.821 488.75 254.56C489.086 254.299 489.497 254.168 489.982 254.168ZM499.487 275L493.775 259.908H496.911L500.047 268.728C500.178 269.101 500.309 269.521 500.439 269.988C500.589 270.455 500.719 270.903 500.831 271.332C500.943 271.761 501.018 272.135 501.055 272.452H501.167C501.223 272.135 501.307 271.761 501.419 271.332C501.55 270.884 501.69 270.436 501.839 269.988C501.989 269.521 502.119 269.101 502.231 268.728L505.367 259.908H508.503L502.763 275H499.487ZM516.774 259.628C518.099 259.628 519.238 259.908 520.19 260.468C521.142 261.009 521.87 261.793 522.374 262.82C522.896 263.847 523.158 265.06 523.158 266.46V268.084H513.022C513.059 269.633 513.46 270.819 514.226 271.64C515.01 272.461 516.102 272.872 517.502 272.872C518.472 272.872 519.331 272.788 520.078 272.62C520.843 272.433 521.627 272.163 522.43 271.808V274.272C521.683 274.608 520.918 274.86 520.134 275.028C519.368 275.196 518.454 275.28 517.39 275.28C515.934 275.28 514.646 274.991 513.526 274.412C512.406 273.833 511.528 272.975 510.894 271.836C510.278 270.679 509.97 269.26 509.97 267.58C509.97 265.881 510.25 264.444 510.81 263.268C511.388 262.092 512.182 261.196 513.19 260.58C514.216 259.945 515.411 259.628 516.774 259.628ZM516.774 261.924C515.71 261.924 514.851 262.269 514.198 262.96C513.563 263.651 513.19 264.631 513.078 265.9H520.19C520.19 265.116 520.068 264.425 519.826 263.828C519.583 263.231 519.21 262.764 518.706 262.428C518.202 262.092 517.558 261.924 516.774 261.924ZM370.594 308.744C370.594 309.733 370.351 310.564 369.866 311.236C369.381 311.908 368.681 312.421 367.766 312.776C366.851 313.112 365.75 313.28 364.462 313.28C363.398 313.28 362.483 313.196 361.718 313.028C360.971 312.879 360.281 312.655 359.646 312.356V309.752C360.318 310.069 361.093 310.359 361.97 310.62C362.847 310.863 363.706 310.984 364.546 310.984C365.666 310.984 366.469 310.807 366.954 310.452C367.458 310.097 367.71 309.621 367.71 309.024C367.71 308.688 367.617 308.389 367.43 308.128C367.243 307.848 366.889 307.568 366.366 307.288C365.862 306.989 365.115 306.653 364.126 306.28C363.174 305.888 362.362 305.505 361.69 305.132C361.018 304.74 360.505 304.283 360.15 303.76C359.795 303.219 359.618 302.528 359.618 301.688C359.618 300.381 360.141 299.383 361.186 298.692C362.25 297.983 363.65 297.628 365.386 297.628C366.301 297.628 367.159 297.721 367.962 297.908C368.783 298.076 369.577 298.337 370.342 298.692L369.362 300.96C368.933 300.755 368.485 300.587 368.018 300.456C367.57 300.307 367.113 300.185 366.646 300.092C366.198 299.999 365.731 299.952 365.246 299.952C364.35 299.952 363.669 300.092 363.202 300.372C362.735 300.652 362.502 301.044 362.502 301.548C362.502 301.903 362.605 302.211 362.81 302.472C363.034 302.733 363.417 302.995 363.958 303.256C364.499 303.517 365.237 303.835 366.17 304.208C367.103 304.563 367.897 304.927 368.55 305.3C369.222 305.673 369.726 306.131 370.062 306.672C370.417 307.213 370.594 307.904 370.594 308.744ZM381.665 297.628C383.475 297.628 384.931 298.281 386.033 299.588C387.153 300.895 387.713 302.845 387.713 305.44C387.713 307.139 387.461 308.576 386.957 309.752C386.453 310.928 385.743 311.815 384.829 312.412C383.914 312.991 382.85 313.28 381.637 313.28C380.871 313.28 380.199 313.187 379.621 313C379.042 312.795 378.547 312.533 378.137 312.216C377.745 311.88 377.399 311.525 377.101 311.152H376.905C376.961 311.488 377.007 311.889 377.045 312.356C377.082 312.804 377.101 313.205 377.101 313.56V319.72H374.133V297.908H376.541L376.961 299.924H377.101C377.399 299.513 377.754 299.131 378.165 298.776C378.575 298.421 379.07 298.141 379.649 297.936C380.227 297.731 380.899 297.628 381.665 297.628ZM380.965 300.064C380.031 300.064 379.285 300.251 378.725 300.624C378.165 300.979 377.754 301.52 377.493 302.248C377.25 302.957 377.119 303.863 377.101 304.964V305.412C377.101 306.569 377.222 307.559 377.465 308.38C377.707 309.183 378.109 309.799 378.669 310.228C379.247 310.639 380.031 310.844 381.021 310.844C381.861 310.844 382.542 310.62 383.065 310.172C383.606 309.705 384.007 309.061 384.269 308.24C384.53 307.419 384.661 306.467 384.661 305.384C384.661 303.741 384.362 302.444 383.765 301.492C383.167 300.54 382.234 300.064 380.965 300.064ZM397.432 297.628C398.757 297.628 399.896 297.908 400.848 298.468C401.8 299.009 402.528 299.793 403.032 300.82C403.555 301.847 403.816 303.06 403.816 304.46V306.084H393.68C393.717 307.633 394.119 308.819 394.884 309.64C395.668 310.461 396.76 310.872 398.16 310.872C399.131 310.872 399.989 310.788 400.736 310.62C401.501 310.433 402.285 310.163 403.088 309.808V312.272C402.341 312.608 401.576 312.86 400.792 313.028C400.027 313.196 399.112 313.28 398.048 313.28C396.592 313.28 395.304 312.991 394.184 312.412C393.064 311.833 392.187 310.975 391.552 309.836C390.936 308.679 390.628 307.26 390.628 305.58C390.628 303.881 390.908 302.444 391.468 301.268C392.047 300.092 392.84 299.196 393.848 298.58C394.875 297.945 396.069 297.628 397.432 297.628ZM397.432 299.924C396.368 299.924 395.509 300.269 394.856 300.96C394.221 301.651 393.848 302.631 393.736 303.9H400.848C400.848 303.116 400.727 302.425 400.484 301.828C400.241 301.231 399.868 300.764 399.364 300.428C398.86 300.092 398.216 299.924 397.432 299.924ZM413.595 313.28C412.214 313.28 411.001 313.009 409.955 312.468C408.91 311.927 408.098 311.087 407.519 309.948C406.941 308.791 406.651 307.325 406.651 305.552C406.651 303.685 406.959 302.173 407.575 301.016C408.21 299.859 409.059 299.009 410.123 298.468C411.206 297.908 412.438 297.628 413.819 297.628C414.659 297.628 415.443 297.721 416.171 297.908C416.918 298.076 417.534 298.272 418.019 298.496L417.123 300.904C416.601 300.699 416.041 300.521 415.443 300.372C414.865 300.223 414.314 300.148 413.791 300.148C412.858 300.148 412.083 300.353 411.467 300.764C410.87 301.156 410.422 301.753 410.123 302.556C409.843 303.34 409.703 304.329 409.703 305.524C409.703 306.663 409.853 307.624 410.151 308.408C410.45 309.192 410.889 309.789 411.467 310.2C412.065 310.592 412.802 310.788 413.679 310.788C414.519 310.788 415.257 310.695 415.891 310.508C416.526 310.321 417.123 310.079 417.683 309.78V312.356C417.142 312.673 416.554 312.907 415.919 313.056C415.285 313.205 414.51 313.28 413.595 313.28ZM426.678 310.872C427.07 310.872 427.471 310.835 427.882 310.76C428.293 310.685 428.647 310.601 428.946 310.508V312.748C428.629 312.897 428.199 313.019 427.658 313.112C427.117 313.224 426.575 313.28 426.034 313.28C425.213 313.28 424.457 313.14 423.766 312.86C423.094 312.58 422.553 312.095 422.142 311.404C421.731 310.713 421.526 309.752 421.526 308.52V300.176H419.426V298.832L421.638 297.712L422.674 294.52H424.494V297.908H428.806V300.176H424.494V308.464C424.494 309.285 424.69 309.892 425.082 310.284C425.493 310.676 426.025 310.872 426.678 310.872ZM437.817 297.628C439.721 297.628 441.139 298.048 442.073 298.888C443.006 299.709 443.473 301.007 443.473 302.78V313H441.373L440.785 310.9H440.673C440.243 311.441 439.795 311.889 439.329 312.244C438.881 312.599 438.358 312.86 437.761 313.028C437.182 313.196 436.473 313.28 435.633 313.28C434.737 313.28 433.925 313.121 433.197 312.804C432.487 312.468 431.927 311.964 431.517 311.292C431.106 310.601 430.901 309.743 430.901 308.716C430.901 307.185 431.479 306.019 432.637 305.216C433.813 304.413 435.595 303.975 437.985 303.9L440.561 303.816V302.976C440.561 301.856 440.309 301.072 439.805 300.624C439.301 300.176 438.591 299.952 437.677 299.952C436.893 299.952 436.146 300.064 435.437 300.288C434.727 300.512 434.055 300.783 433.421 301.1L432.469 298.944C433.178 298.571 433.99 298.263 434.905 298.02C435.838 297.759 436.809 297.628 437.817 297.628ZM438.517 305.804C436.799 305.879 435.605 306.168 434.933 306.672C434.279 307.157 433.953 307.848 433.953 308.744C433.953 309.528 434.186 310.097 434.653 310.452C435.138 310.807 435.745 310.984 436.473 310.984C437.649 310.984 438.619 310.657 439.385 310.004C440.15 309.351 440.533 308.371 440.533 307.064V305.748L438.517 305.804ZM454.119 313.28C452.737 313.28 451.524 313.009 450.479 312.468C449.433 311.927 448.621 311.087 448.043 309.948C447.464 308.791 447.175 307.325 447.175 305.552C447.175 303.685 447.483 302.173 448.099 301.016C448.733 299.859 449.583 299.009 450.647 298.468C451.729 297.908 452.961 297.628 454.343 297.628C455.183 297.628 455.967 297.721 456.695 297.908C457.441 298.076 458.057 298.272 458.543 298.496L457.647 300.904C457.124 300.699 456.564 300.521 455.967 300.372C455.388 300.223 454.837 300.148 454.315 300.148C453.381 300.148 452.607 300.353 451.991 300.764C451.393 301.156 450.945 301.753 450.647 302.556C450.367 303.34 450.227 304.329 450.227 305.524C450.227 306.663 450.376 307.624 450.675 308.408C450.973 309.192 451.412 309.789 451.991 310.2C452.588 310.592 453.325 310.788 454.203 310.788C455.043 310.788 455.78 310.695 456.415 310.508C457.049 310.321 457.647 310.079 458.207 309.78V312.356C457.665 312.673 457.077 312.907 456.443 313.056C455.808 313.205 455.033 313.28 454.119 313.28ZM464.737 313H461.769V291.72H464.737V313ZM475.334 297.628C476.66 297.628 477.798 297.908 478.75 298.468C479.702 299.009 480.43 299.793 480.934 300.82C481.457 301.847 481.718 303.06 481.718 304.46V306.084H471.582C471.62 307.633 472.021 308.819 472.786 309.64C473.57 310.461 474.662 310.872 476.062 310.872C477.033 310.872 477.892 310.788 478.638 310.62C479.404 310.433 480.188 310.163 480.99 309.808V312.272C480.244 312.608 479.478 312.86 478.694 313.028C477.929 313.196 477.014 313.28 475.95 313.28C474.494 313.28 473.206 312.991 472.086 312.412C470.966 311.833 470.089 310.975 469.454 309.836C468.838 308.679 468.53 307.26 468.53 305.58C468.53 303.881 468.81 302.444 469.37 301.268C469.949 300.092 470.742 299.196 471.75 298.58C472.777 297.945 473.972 297.628 475.334 297.628ZM475.334 299.924C474.27 299.924 473.412 300.269 472.758 300.96C472.124 301.651 471.75 302.631 471.638 303.9H478.75C478.75 303.116 478.629 302.425 478.386 301.828C478.144 301.231 477.77 300.764 477.266 300.428C476.762 300.092 476.118 299.924 475.334 299.924ZM488.726 310.06C488.558 310.713 488.343 311.423 488.082 312.188C487.82 312.953 487.54 313.709 487.242 314.456C486.943 315.221 486.635 315.94 486.318 316.612H484.162C484.348 315.884 484.526 315.109 484.694 314.288C484.88 313.485 485.048 312.692 485.198 311.908C485.347 311.124 485.468 310.405 485.562 309.752H488.53L488.726 310.06ZM341.126 335.628C341.387 335.628 341.676 335.647 341.994 335.684C342.311 335.703 342.572 335.731 342.778 335.768L342.47 338.54C342.264 338.484 342.022 338.437 341.742 338.4C341.462 338.363 341.2 338.344 340.958 338.344C340.398 338.344 339.856 338.456 339.334 338.68C338.83 338.885 338.372 339.193 337.962 339.604C337.551 339.996 337.224 340.481 336.982 341.06C336.758 341.639 336.646 342.301 336.646 343.048V351H333.678V335.908H336.03L336.422 338.596H336.534C336.851 338.055 337.234 337.56 337.682 337.112C338.13 336.664 338.643 336.309 339.222 336.048C339.8 335.768 340.435 335.628 341.126 335.628ZM350.961 335.628C352.287 335.628 353.425 335.908 354.377 336.468C355.329 337.009 356.057 337.793 356.561 338.82C357.084 339.847 357.345 341.06 357.345 342.46V344.084H347.209C347.247 345.633 347.648 346.819 348.413 347.64C349.197 348.461 350.289 348.872 351.689 348.872C352.66 348.872 353.519 348.788 354.265 348.62C355.031 348.433 355.815 348.163 356.617 347.808V350.272C355.871 350.608 355.105 350.86 354.321 351.028C353.556 351.196 352.641 351.28 351.577 351.28C350.121 351.28 348.833 350.991 347.713 350.412C346.593 349.833 345.716 348.975 345.081 347.836C344.465 346.679 344.157 345.26 344.157 343.58C344.157 341.881 344.437 340.444 344.997 339.268C345.576 338.092 346.369 337.196 347.377 336.58C348.404 335.945 349.599 335.628 350.961 335.628ZM350.961 337.924C349.897 337.924 349.039 338.269 348.385 338.96C347.751 339.651 347.377 340.631 347.265 341.9H354.377C354.377 341.116 354.256 340.425 354.013 339.828C353.771 339.231 353.397 338.764 352.893 338.428C352.389 338.092 351.745 337.924 350.961 337.924ZM371.073 346.744C371.073 347.733 370.83 348.564 370.345 349.236C369.859 349.908 369.159 350.421 368.245 350.776C367.33 351.112 366.229 351.28 364.941 351.28C363.877 351.28 362.962 351.196 362.197 351.028C361.45 350.879 360.759 350.655 360.125 350.356V347.752C360.797 348.069 361.571 348.359 362.449 348.62C363.326 348.863 364.185 348.984 365.025 348.984C366.145 348.984 366.947 348.807 367.433 348.452C367.937 348.097 368.189 347.621 368.189 347.024C368.189 346.688 368.095 346.389 367.909 346.128C367.722 345.848 367.367 345.568 366.845 345.288C366.341 344.989 365.594 344.653 364.605 344.28C363.653 343.888 362.841 343.505 362.169 343.132C361.497 342.74 360.983 342.283 360.629 341.76C360.274 341.219 360.097 340.528 360.097 339.688C360.097 338.381 360.619 337.383 361.665 336.692C362.729 335.983 364.129 335.628 365.865 335.628C366.779 335.628 367.638 335.721 368.441 335.908C369.262 336.076 370.055 336.337 370.821 336.692L369.841 338.96C369.411 338.755 368.963 338.587 368.497 338.456C368.049 338.307 367.591 338.185 367.125 338.092C366.677 337.999 366.21 337.952 365.725 337.952C364.829 337.952 364.147 338.092 363.681 338.372C363.214 338.652 362.981 339.044 362.981 339.548C362.981 339.903 363.083 340.211 363.289 340.472C363.513 340.733 363.895 340.995 364.437 341.256C364.978 341.517 365.715 341.835 366.649 342.208C367.582 342.563 368.375 342.927 369.029 343.3C369.701 343.673 370.205 344.131 370.541 344.672C370.895 345.213 371.073 345.904 371.073 346.744ZM377.579 335.404C377.579 335.871 377.56 336.337 377.523 336.804C377.486 337.271 377.448 337.653 377.411 337.952H377.607C377.924 337.429 378.316 337 378.783 336.664C379.268 336.328 379.8 336.076 380.379 335.908C380.976 335.74 381.583 335.656 382.199 335.656C383.394 335.656 384.392 335.852 385.195 336.244C386.016 336.617 386.632 337.215 387.043 338.036C387.472 338.839 387.687 339.884 387.687 341.172V351H384.747V341.592C384.747 340.416 384.495 339.539 383.991 338.96C383.506 338.363 382.722 338.064 381.639 338.064C380.612 338.064 379.8 338.269 379.203 338.68C378.624 339.091 378.204 339.697 377.943 340.5C377.7 341.284 377.579 342.255 377.579 343.412V351H374.611V329.72H377.579V335.404ZM398.1 335.628C400.004 335.628 401.422 336.048 402.356 336.888C403.289 337.709 403.756 339.007 403.756 340.78V351H401.656L401.068 348.9H400.956C400.526 349.441 400.078 349.889 399.612 350.244C399.164 350.599 398.641 350.86 398.044 351.028C397.465 351.196 396.756 351.28 395.916 351.28C395.02 351.28 394.208 351.121 393.48 350.804C392.77 350.468 392.21 349.964 391.8 349.292C391.389 348.601 391.184 347.743 391.184 346.716C391.184 345.185 391.762 344.019 392.92 343.216C394.096 342.413 395.878 341.975 398.268 341.9L400.844 341.816V340.976C400.844 339.856 400.592 339.072 400.088 338.624C399.584 338.176 398.874 337.952 397.96 337.952C397.176 337.952 396.429 338.064 395.72 338.288C395.01 338.512 394.338 338.783 393.704 339.1L392.752 336.944C393.461 336.571 394.273 336.263 395.188 336.02C396.121 335.759 397.092 335.628 398.1 335.628ZM398.8 343.804C397.082 343.879 395.888 344.168 395.216 344.672C394.562 345.157 394.236 345.848 394.236 346.744C394.236 347.528 394.469 348.097 394.936 348.452C395.421 348.807 396.028 348.984 396.756 348.984C397.932 348.984 398.902 348.657 399.668 348.004C400.433 347.351 400.816 346.371 400.816 345.064V343.748L398.8 343.804ZM415.858 335.628C417.669 335.628 419.125 336.281 420.226 337.588C421.346 338.895 421.906 340.845 421.906 343.44C421.906 345.139 421.654 346.576 421.15 347.752C420.646 348.928 419.937 349.815 419.022 350.412C418.107 350.991 417.043 351.28 415.83 351.28C415.065 351.28 414.393 351.187 413.814 351C413.235 350.795 412.741 350.533 412.33 350.216C411.938 349.88 411.593 349.525 411.294 349.152H411.098C411.154 349.488 411.201 349.889 411.238 350.356C411.275 350.804 411.294 351.205 411.294 351.56V357.72H408.326V335.908H410.734L411.154 337.924H411.294C411.593 337.513 411.947 337.131 412.358 336.776C412.769 336.421 413.263 336.141 413.842 335.936C414.421 335.731 415.093 335.628 415.858 335.628ZM415.158 338.064C414.225 338.064 413.478 338.251 412.918 338.624C412.358 338.979 411.947 339.52 411.686 340.248C411.443 340.957 411.313 341.863 411.294 342.964V343.412C411.294 344.569 411.415 345.559 411.658 346.38C411.901 347.183 412.302 347.799 412.862 348.228C413.441 348.639 414.225 348.844 415.214 348.844C416.054 348.844 416.735 348.62 417.258 348.172C417.799 347.705 418.201 347.061 418.462 346.24C418.723 345.419 418.854 344.467 418.854 343.384C418.854 341.741 418.555 340.444 417.958 339.492C417.361 338.54 416.427 338.064 415.158 338.064ZM428.657 335.908V351H425.689V335.908H428.657ZM427.201 330.168C427.649 330.168 428.041 330.299 428.377 330.56C428.713 330.821 428.881 331.26 428.881 331.876C428.881 332.473 428.713 332.912 428.377 333.192C428.041 333.453 427.649 333.584 427.201 333.584C426.716 333.584 426.305 333.453 425.969 333.192C425.652 332.912 425.493 332.473 425.493 331.876C425.493 331.26 425.652 330.821 425.969 330.56C426.305 330.299 426.716 330.168 427.201 330.168ZM440.962 335.628C442.717 335.628 444.061 336.067 444.994 336.944C445.927 337.821 446.394 339.231 446.394 341.172V351H443.454V341.592C443.454 340.416 443.202 339.539 442.698 338.96C442.213 338.363 441.429 338.064 440.346 338.064C438.815 338.064 437.751 338.521 437.154 339.436C436.575 340.351 436.286 341.667 436.286 343.384V351H433.318V335.908H435.67L436.09 337.924H436.258C436.594 337.401 437.005 336.972 437.49 336.636C437.975 336.3 438.517 336.048 439.114 335.88C439.711 335.712 440.327 335.628 440.962 335.628ZM456.163 335.628C457.134 335.628 458.011 335.815 458.795 336.188C459.579 336.561 460.242 337.131 460.783 337.896H460.923L461.259 335.908H463.667V351.196C463.667 352.615 463.415 353.809 462.911 354.78C462.407 355.751 461.632 356.479 460.587 356.964C459.56 357.468 458.263 357.72 456.695 357.72C455.612 357.72 454.614 357.645 453.699 357.496C452.784 357.347 451.944 357.113 451.179 356.796V354.192C451.72 354.453 452.29 354.668 452.887 354.836C453.484 355.023 454.119 355.153 454.791 355.228C455.463 355.321 456.154 355.368 456.863 355.368C458.095 355.368 459.047 355.013 459.719 354.304C460.391 353.613 460.727 352.633 460.727 351.364V350.86C460.727 350.617 460.736 350.3 460.755 349.908C460.774 349.497 460.792 349.199 460.811 349.012H460.699C460.176 349.796 459.532 350.375 458.767 350.748C458.02 351.103 457.152 351.28 456.163 351.28C454.259 351.28 452.766 350.599 451.683 349.236C450.619 347.855 450.087 345.941 450.087 343.496C450.087 341.853 450.33 340.453 450.815 339.296C451.3 338.12 451.991 337.215 452.887 336.58C453.802 335.945 454.894 335.628 456.163 335.628ZM456.779 338.092C455.995 338.092 455.332 338.307 454.791 338.736C454.25 339.147 453.839 339.753 453.559 340.556C453.279 341.359 453.139 342.348 453.139 343.524C453.139 345.279 453.447 346.613 454.063 347.528C454.698 348.443 455.622 348.9 456.835 348.9C457.544 348.9 458.142 348.807 458.627 348.62C459.131 348.433 459.542 348.144 459.859 347.752C460.195 347.36 460.438 346.865 460.587 346.268C460.755 345.652 460.839 344.915 460.839 344.056V343.496C460.839 342.208 460.69 341.172 460.391 340.388C460.111 339.585 459.672 339.007 459.075 338.652C458.478 338.279 457.712 338.092 456.779 338.092ZM481.024 348.872C481.416 348.872 481.817 348.835 482.228 348.76C482.638 348.685 482.993 348.601 483.292 348.508V350.748C482.974 350.897 482.545 351.019 482.004 351.112C481.462 351.224 480.921 351.28 480.38 351.28C479.558 351.28 478.802 351.14 478.112 350.86C477.44 350.58 476.898 350.095 476.488 349.404C476.077 348.713 475.872 347.752 475.872 346.52V338.176H473.772V336.832L475.984 335.712L477.02 332.52H478.84V335.908H483.152V338.176H478.84V346.464C478.84 347.285 479.036 347.892 479.428 348.284C479.838 348.676 480.37 348.872 481.024 348.872ZM489.278 335.404C489.278 335.871 489.26 336.337 489.222 336.804C489.185 337.271 489.148 337.653 489.11 337.952H489.306C489.624 337.429 490.016 337 490.482 336.664C490.968 336.328 491.5 336.076 492.078 335.908C492.676 335.74 493.282 335.656 493.898 335.656C495.093 335.656 496.092 335.852 496.894 336.244C497.716 336.617 498.332 337.215 498.742 338.036C499.172 338.839 499.386 339.884 499.386 341.172V351H496.446V341.592C496.446 340.416 496.194 339.539 495.69 338.96C495.205 338.363 494.421 338.064 493.338 338.064C492.312 338.064 491.5 338.269 490.902 338.68C490.324 339.091 489.904 339.697 489.642 340.5C489.4 341.284 489.278 342.255 489.278 343.412V351H486.31V329.72H489.278V335.404ZM509.883 335.628C511.208 335.628 512.347 335.908 513.299 336.468C514.251 337.009 514.979 337.793 515.483 338.82C516.006 339.847 516.267 341.06 516.267 342.46V344.084H506.131C506.168 345.633 506.57 346.819 507.335 347.64C508.119 348.461 509.211 348.872 510.611 348.872C511.582 348.872 512.44 348.788 513.187 348.62C513.952 348.433 514.736 348.163 515.539 347.808V350.272C514.792 350.608 514.027 350.86 513.243 351.028C512.478 351.196 511.563 351.28 510.499 351.28C509.043 351.28 507.755 350.991 506.635 350.412C505.515 349.833 504.638 348.975 504.003 347.836C503.387 346.679 503.079 345.26 503.079 343.58C503.079 341.881 503.359 340.444 503.919 339.268C504.498 338.092 505.291 337.196 506.299 336.58C507.326 335.945 508.52 335.628 509.883 335.628ZM509.883 337.924C508.819 337.924 507.96 338.269 507.307 338.96C506.672 339.651 506.299 340.631 506.187 341.9H513.299C513.299 341.116 513.178 340.425 512.935 339.828C512.692 339.231 512.319 338.764 511.815 338.428C511.311 338.092 510.667 337.924 509.883 337.924ZM342.266 384.744C342.266 385.733 342.023 386.564 341.538 387.236C341.053 387.908 340.353 388.421 339.438 388.776C338.523 389.112 337.422 389.28 336.134 389.28C335.07 389.28 334.155 389.196 333.39 389.028C332.643 388.879 331.953 388.655 331.318 388.356V385.752C331.99 386.069 332.765 386.359 333.642 386.62C334.519 386.863 335.378 386.984 336.218 386.984C337.338 386.984 338.141 386.807 338.626 386.452C339.13 386.097 339.382 385.621 339.382 385.024C339.382 384.688 339.289 384.389 339.102 384.128C338.915 383.848 338.561 383.568 338.038 383.288C337.534 382.989 336.787 382.653 335.798 382.28C334.846 381.888 334.034 381.505 333.362 381.132C332.69 380.74 332.177 380.283 331.822 379.76C331.467 379.219 331.29 378.528 331.29 377.688C331.29 376.381 331.813 375.383 332.858 374.692C333.922 373.983 335.322 373.628 337.058 373.628C337.973 373.628 338.831 373.721 339.634 373.908C340.455 374.076 341.249 374.337 342.014 374.692L341.034 376.96C340.605 376.755 340.157 376.587 339.69 376.456C339.242 376.307 338.785 376.185 338.318 376.092C337.87 375.999 337.403 375.952 336.918 375.952C336.022 375.952 335.341 376.092 334.874 376.372C334.407 376.652 334.174 377.044 334.174 377.548C334.174 377.903 334.277 378.211 334.482 378.472C334.706 378.733 335.089 378.995 335.63 379.256C336.171 379.517 336.909 379.835 337.842 380.208C338.775 380.563 339.569 380.927 340.222 381.3C340.894 381.673 341.398 382.131 341.734 382.672C342.089 383.213 342.266 383.904 342.266 384.744ZM351.88 389.28C350.499 389.28 349.286 389.009 348.24 388.468C347.195 387.927 346.383 387.087 345.804 385.948C345.226 384.791 344.936 383.325 344.936 381.552C344.936 379.685 345.244 378.173 345.86 377.016C346.495 375.859 347.344 375.009 348.408 374.468C349.491 373.908 350.723 373.628 352.104 373.628C352.944 373.628 353.728 373.721 354.456 373.908C355.203 374.076 355.819 374.272 356.304 374.496L355.408 376.904C354.886 376.699 354.326 376.521 353.728 376.372C353.15 376.223 352.599 376.148 352.076 376.148C351.143 376.148 350.368 376.353 349.752 376.764C349.155 377.156 348.707 377.753 348.408 378.556C348.128 379.34 347.988 380.329 347.988 381.524C347.988 382.663 348.138 383.624 348.436 384.408C348.735 385.192 349.174 385.789 349.752 386.2C350.35 386.592 351.087 386.788 351.964 386.788C352.804 386.788 353.542 386.695 354.176 386.508C354.811 386.321 355.408 386.079 355.968 385.78V388.356C355.427 388.673 354.839 388.907 354.204 389.056C353.57 389.205 352.795 389.28 351.88 389.28ZM362.499 373.404C362.499 373.871 362.48 374.337 362.443 374.804C362.406 375.271 362.368 375.653 362.331 375.952H362.527C362.844 375.429 363.236 375 363.703 374.664C364.188 374.328 364.72 374.076 365.299 373.908C365.896 373.74 366.503 373.656 367.119 373.656C368.314 373.656 369.312 373.852 370.115 374.244C370.936 374.617 371.552 375.215 371.963 376.036C372.392 376.839 372.607 377.884 372.607 379.172V389H369.667V379.592C369.667 378.416 369.415 377.539 368.911 376.96C368.426 376.363 367.642 376.064 366.559 376.064C365.532 376.064 364.72 376.269 364.123 376.68C363.544 377.091 363.124 377.697 362.863 378.5C362.62 379.284 362.499 380.255 362.499 381.412V389H359.531V367.72H362.499V373.404ZM390.468 381.44C390.468 382.691 390.3 383.801 389.964 384.772C389.628 385.743 389.152 386.564 388.536 387.236C387.92 387.908 387.173 388.421 386.296 388.776C385.418 389.112 384.429 389.28 383.328 389.28C382.32 389.28 381.386 389.112 380.528 388.776C379.669 388.421 378.922 387.908 378.288 387.236C377.672 386.564 377.186 385.743 376.832 384.772C376.477 383.801 376.3 382.681 376.3 381.412C376.3 379.751 376.58 378.341 377.14 377.184C377.718 376.027 378.54 375.149 379.604 374.552C380.686 373.936 381.956 373.628 383.412 373.628C384.793 373.628 386.006 373.936 387.052 374.552C388.116 375.149 388.946 376.027 389.544 377.184C390.16 378.341 390.468 379.76 390.468 381.44ZM379.352 381.44C379.352 382.56 379.492 383.531 379.772 384.352C380.052 385.155 380.49 385.771 381.088 386.2C381.685 386.629 382.45 386.844 383.384 386.844C384.317 386.844 385.082 386.629 385.68 386.2C386.277 385.771 386.716 385.155 386.996 384.352C387.276 383.531 387.416 382.56 387.416 381.44C387.416 380.283 387.266 379.312 386.968 378.528C386.688 377.744 386.249 377.147 385.652 376.736C385.073 376.307 384.308 376.092 383.356 376.092C381.956 376.092 380.938 376.559 380.304 377.492C379.669 378.425 379.352 379.741 379.352 381.44ZM407.53 381.44C407.53 382.691 407.362 383.801 407.026 384.772C406.69 385.743 406.214 386.564 405.598 387.236C404.982 387.908 404.236 388.421 403.358 388.776C402.481 389.112 401.492 389.28 400.39 389.28C399.382 389.28 398.449 389.112 397.59 388.776C396.732 388.421 395.985 387.908 395.35 387.236C394.734 386.564 394.249 385.743 393.894 384.772C393.54 383.801 393.362 382.681 393.362 381.412C393.362 379.751 393.642 378.341 394.202 377.184C394.781 376.027 395.602 375.149 396.666 374.552C397.749 373.936 399.018 373.628 400.474 373.628C401.856 373.628 403.069 373.936 404.114 374.552C405.178 375.149 406.009 376.027 406.606 377.184C407.222 378.341 407.53 379.76 407.53 381.44ZM396.414 381.44C396.414 382.56 396.554 383.531 396.834 384.352C397.114 385.155 397.553 385.771 398.15 386.2C398.748 386.629 399.513 386.844 400.446 386.844C401.38 386.844 402.145 386.629 402.742 386.2C403.34 385.771 403.778 385.155 404.058 384.352C404.338 383.531 404.478 382.56 404.478 381.44C404.478 380.283 404.329 379.312 404.03 378.528C403.75 377.744 403.312 377.147 402.714 376.736C402.136 376.307 401.37 376.092 400.418 376.092C399.018 376.092 398.001 376.559 397.366 377.492C396.732 378.425 396.414 379.741 396.414 381.44ZM414.261 389H411.293V367.72H414.261V389ZM436.219 384.744C436.219 385.733 435.976 386.564 435.491 387.236C435.006 387.908 434.306 388.421 433.391 388.776C432.476 389.112 431.375 389.28 430.087 389.28C429.023 389.28 428.108 389.196 427.343 389.028C426.596 388.879 425.906 388.655 425.271 388.356V385.752C425.943 386.069 426.718 386.359 427.595 386.62C428.472 386.863 429.331 386.984 430.171 386.984C431.291 386.984 432.094 386.807 432.579 386.452C433.083 386.097 433.335 385.621 433.335 385.024C433.335 384.688 433.242 384.389 433.055 384.128C432.868 383.848 432.514 383.568 431.991 383.288C431.487 382.989 430.74 382.653 429.751 382.28C428.799 381.888 427.987 381.505 427.315 381.132C426.643 380.74 426.13 380.283 425.775 379.76C425.42 379.219 425.243 378.528 425.243 377.688C425.243 376.381 425.766 375.383 426.811 374.692C427.875 373.983 429.275 373.628 431.011 373.628C431.926 373.628 432.784 373.721 433.587 373.908C434.408 374.076 435.202 374.337 435.967 374.692L434.987 376.96C434.558 376.755 434.11 376.587 433.643 376.456C433.195 376.307 432.738 376.185 432.271 376.092C431.823 375.999 431.356 375.952 430.871 375.952C429.975 375.952 429.294 376.092 428.827 376.372C428.36 376.652 428.127 377.044 428.127 377.548C428.127 377.903 428.23 378.211 428.435 378.472C428.659 378.733 429.042 378.995 429.583 379.256C430.124 379.517 430.862 379.835 431.795 380.208C432.728 380.563 433.522 380.927 434.175 381.3C434.847 381.673 435.351 382.131 435.687 382.672C436.042 383.213 436.219 383.904 436.219 384.744ZM437.462 373.908H440.654L443.79 382.476C443.958 382.905 444.107 383.325 444.238 383.736C444.368 384.147 444.48 384.557 444.574 384.968C444.686 385.36 444.77 385.752 444.826 386.144H444.938C445.031 385.659 445.18 385.089 445.386 384.436C445.591 383.764 445.806 383.101 446.03 382.448L448.998 373.908H452.19L445.722 391.044C445.367 392.015 444.928 392.845 444.406 393.536C443.883 394.245 443.258 394.787 442.53 395.16C441.82 395.533 440.98 395.72 440.01 395.72C439.543 395.72 439.142 395.692 438.806 395.636C438.47 395.599 438.18 395.552 437.938 395.496V393.144C438.143 393.181 438.386 393.219 438.666 393.256C438.964 393.293 439.272 393.312 439.59 393.312C440.168 393.312 440.663 393.2 441.074 392.976C441.503 392.752 441.858 392.435 442.138 392.024C442.436 391.613 442.688 391.147 442.894 390.624L443.51 389L437.462 373.908ZM464.547 384.744C464.547 385.733 464.305 386.564 463.819 387.236C463.334 387.908 462.634 388.421 461.719 388.776C460.805 389.112 459.703 389.28 458.415 389.28C457.351 389.28 456.437 389.196 455.671 389.028C454.925 388.879 454.234 388.655 453.599 388.356V385.752C454.271 386.069 455.046 386.359 455.923 386.62C456.801 386.863 457.659 386.984 458.499 386.984C459.619 386.984 460.422 386.807 460.907 386.452C461.411 386.097 461.663 385.621 461.663 385.024C461.663 384.688 461.57 384.389 461.383 384.128C461.197 383.848 460.842 383.568 460.319 383.288C459.815 382.989 459.069 382.653 458.079 382.28C457.127 381.888 456.315 381.505 455.643 381.132C454.971 380.74 454.458 380.283 454.103 379.76C453.749 379.219 453.571 378.528 453.571 377.688C453.571 376.381 454.094 375.383 455.139 374.692C456.203 373.983 457.603 373.628 459.339 373.628C460.254 373.628 461.113 373.721 461.915 373.908C462.737 374.076 463.53 374.337 464.295 374.692L463.315 376.96C462.886 376.755 462.438 376.587 461.971 376.456C461.523 376.307 461.066 376.185 460.599 376.092C460.151 375.999 459.685 375.952 459.199 375.952C458.303 375.952 457.622 376.092 457.155 376.372C456.689 376.652 456.455 377.044 456.455 377.548C456.455 377.903 456.558 378.211 456.763 378.472C456.987 378.733 457.37 378.995 457.911 379.256C458.453 379.517 459.19 379.835 460.123 380.208C461.057 380.563 461.85 380.927 462.503 381.3C463.175 381.673 463.679 382.131 464.015 382.672C464.37 383.213 464.547 383.904 464.547 384.744ZM473.518 386.872C473.91 386.872 474.311 386.835 474.722 386.76C475.132 386.685 475.487 386.601 475.786 386.508V388.748C475.468 388.897 475.039 389.019 474.498 389.112C473.956 389.224 473.415 389.28 472.874 389.28C472.052 389.28 471.296 389.14 470.606 388.86C469.934 388.58 469.392 388.095 468.982 387.404C468.571 386.713 468.366 385.752 468.366 384.52V376.176H466.266V374.832L468.478 373.712L469.514 370.52H471.334V373.908H475.646V376.176H471.334V384.464C471.334 385.285 471.53 385.892 471.922 386.284C472.332 386.676 472.864 386.872 473.518 386.872ZM484.74 373.628C486.066 373.628 487.204 373.908 488.156 374.468C489.108 375.009 489.836 375.793 490.34 376.82C490.863 377.847 491.124 379.06 491.124 380.46V382.084H480.988C481.026 383.633 481.427 384.819 482.192 385.64C482.976 386.461 484.068 386.872 485.468 386.872C486.439 386.872 487.298 386.788 488.044 386.62C488.81 386.433 489.594 386.163 490.396 385.808V388.272C489.65 388.608 488.884 388.86 488.1 389.028C487.335 389.196 486.42 389.28 485.356 389.28C483.9 389.28 482.612 388.991 481.492 388.412C480.372 387.833 479.495 386.975 478.86 385.836C478.244 384.679 477.936 383.26 477.936 381.58C477.936 379.881 478.216 378.444 478.776 377.268C479.355 376.092 480.148 375.196 481.156 374.58C482.183 373.945 483.378 373.628 484.74 373.628ZM484.74 375.924C483.676 375.924 482.818 376.269 482.164 376.96C481.53 377.651 481.156 378.631 481.044 379.9H488.156C488.156 379.116 488.035 378.425 487.792 377.828C487.55 377.231 487.176 376.764 486.672 376.428C486.168 376.092 485.524 375.924 484.74 375.924ZM511.74 373.628C513.439 373.628 514.717 374.067 515.576 374.944C516.435 375.821 516.864 377.231 516.864 379.172V389H513.896V379.564C513.896 378.407 513.663 377.539 513.196 376.96C512.748 376.363 512.039 376.064 511.068 376.064C509.724 376.064 508.763 376.484 508.184 377.324C507.605 378.145 507.316 379.34 507.316 380.908V389H504.376V379.564C504.376 378.799 504.264 378.155 504.04 377.632C503.835 377.109 503.527 376.717 503.116 376.456C502.705 376.195 502.173 376.064 501.52 376.064C500.587 376.064 499.849 376.269 499.308 376.68C498.767 377.091 498.375 377.697 498.132 378.5C497.908 379.284 497.796 380.245 497.796 381.384V389H494.828V373.908H497.18L497.6 375.924H497.768C498.085 375.401 498.468 374.972 498.916 374.636C499.383 374.3 499.896 374.048 500.456 373.88C501.016 373.712 501.595 373.628 502.192 373.628C503.331 373.628 504.292 373.833 505.076 374.244C505.86 374.636 506.429 375.243 506.784 376.064H507.008C507.493 375.224 508.165 374.608 509.024 374.216C509.883 373.824 510.788 373.628 511.74 373.628Z" fill="white"/>
<path d="M35.7034 281.008C37.514 281.008 39.0074 281.232 40.1834 281.68C41.3594 282.109 42.2367 282.772 42.8154 283.668C43.394 284.545 43.6834 285.656 43.6834 287C43.6834 287.915 43.506 288.717 43.1514 289.408C42.8154 290.08 42.358 290.659 41.7794 291.144C41.2194 291.611 40.6127 291.993 39.9594 292.292L45.8394 301H41.1354L36.3754 293.328H34.1074V301H29.8794V281.008H35.7034ZM35.3954 284.48H34.1074V289.884H35.4794C36.4127 289.884 37.1687 289.781 37.7474 289.576C38.326 289.371 38.746 289.063 39.0074 288.652C39.2687 288.223 39.3994 287.709 39.3994 287.112C39.3994 286.477 39.25 285.973 38.9514 285.6C38.6714 285.208 38.2327 284.928 37.6354 284.76C37.0567 284.573 36.31 284.48 35.3954 284.48ZM54.2998 285.404C56.3531 285.404 57.9211 285.852 59.0038 286.748C60.1051 287.625 60.6558 288.979 60.6558 290.808V301H57.7438L56.9318 298.928H56.8198C56.3904 299.469 55.9424 299.917 55.4758 300.272C55.0278 300.627 54.5051 300.879 53.9078 301.028C53.3291 301.196 52.6104 301.28 51.7518 301.28C50.8558 301.28 50.0438 301.112 49.3158 300.776C48.6064 300.421 48.0464 299.889 47.6358 299.18C47.2251 298.452 47.0198 297.537 47.0198 296.436C47.0198 294.812 47.5891 293.617 48.7278 292.852C49.8664 292.068 51.5744 291.639 53.8518 291.564L56.5118 291.48V290.808C56.5118 290.005 56.2971 289.417 55.8678 289.044C55.4571 288.671 54.8784 288.484 54.1318 288.484C53.3851 288.484 52.6571 288.596 51.9478 288.82C51.2384 289.025 50.5291 289.287 49.8198 289.604L48.4478 286.776C49.2691 286.347 50.1744 286.011 51.1638 285.768C52.1718 285.525 53.2171 285.404 54.2998 285.404ZM54.8878 293.972C53.5438 294.009 52.6104 294.252 52.0878 294.7C51.5651 295.148 51.3038 295.736 51.3038 296.464C51.3038 297.099 51.4904 297.556 51.8638 297.836C52.2371 298.097 52.7224 298.228 53.3198 298.228C54.2158 298.228 54.9718 297.967 55.5878 297.444C56.2038 296.903 56.5118 296.147 56.5118 295.176V293.916L54.8878 293.972ZM75.5942 296.464C75.5942 297.491 75.3515 298.368 74.8662 299.096C74.3809 299.805 73.6529 300.347 72.6822 300.72C71.7115 301.093 70.5075 301.28 69.0702 301.28C68.0062 301.28 67.0915 301.205 66.3262 301.056C65.5609 300.925 64.7955 300.701 64.0302 300.384V296.94C64.8515 297.313 65.7382 297.621 66.6902 297.864C67.6422 298.107 68.4822 298.228 69.2102 298.228C70.0315 298.228 70.6102 298.107 70.9462 297.864C71.3009 297.621 71.4782 297.304 71.4782 296.912C71.4782 296.651 71.4035 296.417 71.2542 296.212C71.1235 296.007 70.8249 295.773 70.3582 295.512C69.8915 295.251 69.1635 294.915 68.1742 294.504C67.2222 294.093 66.4382 293.692 65.8222 293.3C65.2062 292.889 64.7489 292.404 64.4502 291.844C64.1515 291.265 64.0022 290.547 64.0022 289.688C64.0022 288.269 64.5529 287.205 65.6542 286.496C66.7555 285.787 68.2209 285.432 70.0502 285.432C71.0022 285.432 71.9075 285.525 72.7662 285.712C73.6249 285.899 74.5115 286.207 75.4262 286.636L74.1662 289.632C73.6622 289.408 73.1769 289.212 72.7102 289.044C72.2435 288.876 71.7862 288.745 71.3382 288.652C70.9089 288.559 70.4609 288.512 69.9942 288.512C69.3782 288.512 68.9115 288.596 68.5942 288.764C68.2955 288.932 68.1462 289.184 68.1462 289.52C68.1462 289.763 68.2209 289.987 68.3702 290.192C68.5382 290.379 68.8462 290.584 69.2942 290.808C69.7609 291.032 70.4422 291.331 71.3382 291.704C72.2155 292.059 72.9715 292.432 73.6062 292.824C74.2409 293.197 74.7262 293.673 75.0622 294.252C75.4169 294.812 75.5942 295.549 75.5942 296.464ZM83.0162 284.06C83.0162 284.807 82.9882 285.525 82.9322 286.216C82.8948 286.907 82.8575 287.392 82.8202 287.672H83.0442C83.3802 287.149 83.7722 286.729 84.2202 286.412C84.6682 286.076 85.1628 285.833 85.7042 285.684C86.2642 285.516 86.8522 285.432 87.4682 285.432C88.5695 285.432 89.5308 285.628 90.3522 286.02C91.1735 286.412 91.8082 287.019 92.2562 287.84C92.7228 288.661 92.9562 289.725 92.9562 291.032V301H88.7842V292.068C88.7842 290.967 88.5788 290.145 88.1682 289.604C87.7762 289.044 87.1602 288.764 86.3202 288.764C85.4802 288.764 84.8175 288.96 84.3322 289.352C83.8655 289.744 83.5295 290.313 83.3242 291.06C83.1188 291.807 83.0162 292.721 83.0162 293.804V301H78.8442V279.72H83.0162V284.06ZM103.547 285.432C104.965 285.432 106.179 285.703 107.187 286.244C108.213 286.785 109.007 287.569 109.567 288.596C110.127 289.623 110.407 290.883 110.407 292.376V294.392H100.551C100.588 295.568 100.933 296.492 101.587 297.164C102.259 297.836 103.183 298.172 104.359 298.172C105.348 298.172 106.244 298.079 107.047 297.892C107.849 297.687 108.68 297.379 109.539 296.968V300.188C108.792 300.561 107.999 300.832 107.159 301C106.337 301.187 105.339 301.28 104.163 301.28C102.632 301.28 101.279 301 100.103 300.44C98.9265 299.861 98.0025 298.993 97.3305 297.836C96.6585 296.679 96.3225 295.223 96.3225 293.468C96.3225 291.676 96.6212 290.192 97.2185 289.016C97.8345 287.821 98.6838 286.925 99.7665 286.328C100.849 285.731 102.109 285.432 103.547 285.432ZM103.575 288.4C102.772 288.4 102.1 288.661 101.559 289.184C101.036 289.707 100.728 290.519 100.635 291.62H106.487C106.487 291.004 106.375 290.453 106.151 289.968C105.945 289.483 105.628 289.1 105.199 288.82C104.769 288.54 104.228 288.4 103.575 288.4ZM118.633 301.28C116.935 301.28 115.544 300.617 114.461 299.292C113.397 297.948 112.865 295.979 112.865 293.384C112.865 290.771 113.407 288.792 114.489 287.448C115.572 286.104 116.991 285.432 118.745 285.432C119.473 285.432 120.117 285.535 120.677 285.74C121.237 285.927 121.713 286.188 122.105 286.524C122.516 286.86 122.861 287.243 123.141 287.672H123.281C123.225 287.373 123.16 286.944 123.085 286.384C123.011 285.805 122.973 285.217 122.973 284.62V279.72H127.145V301H123.953L123.141 299.012H122.973C122.712 299.423 122.376 299.805 121.965 300.16C121.573 300.496 121.107 300.767 120.565 300.972C120.024 301.177 119.38 301.28 118.633 301.28ZM120.089 297.948C121.247 297.948 122.059 297.612 122.525 296.94C122.992 296.249 123.235 295.223 123.253 293.86V293.412C123.253 291.919 123.02 290.78 122.553 289.996C122.105 289.212 121.265 288.82 120.033 288.82C119.119 288.82 118.4 289.221 117.877 290.024C117.355 290.808 117.093 291.947 117.093 293.44C117.093 294.933 117.355 296.063 117.877 296.828C118.4 297.575 119.137 297.948 120.089 297.948ZM147.602 284.256C146.799 284.256 146.08 284.415 145.446 284.732C144.83 285.049 144.307 285.507 143.878 286.104C143.448 286.683 143.122 287.392 142.898 288.232C142.692 289.072 142.59 290.015 142.59 291.06C142.59 292.479 142.758 293.692 143.094 294.7C143.448 295.689 143.999 296.445 144.746 296.968C145.492 297.491 146.444 297.752 147.602 297.752C148.423 297.752 149.235 297.659 150.038 297.472C150.859 297.285 151.746 297.024 152.698 296.688V300.244C151.82 300.599 150.952 300.86 150.094 301.028C149.235 301.196 148.274 301.28 147.21 301.28C145.156 301.28 143.458 300.86 142.114 300.02C140.788 299.161 139.808 297.967 139.174 296.436C138.539 294.887 138.222 293.085 138.222 291.032C138.222 289.52 138.427 288.139 138.838 286.888C139.248 285.619 139.846 284.527 140.63 283.612C141.432 282.697 142.412 281.988 143.57 281.484C144.746 280.98 146.09 280.728 147.602 280.728C148.591 280.728 149.58 280.859 150.57 281.12C151.578 281.363 152.539 281.699 153.454 282.128L152.082 285.572C151.335 285.217 150.579 284.909 149.814 284.648C149.067 284.387 148.33 284.256 147.602 284.256ZM160.782 284.06C160.782 284.807 160.754 285.525 160.698 286.216C160.66 286.907 160.623 287.392 160.586 287.672H160.81C161.146 287.149 161.538 286.729 161.986 286.412C162.434 286.076 162.928 285.833 163.47 285.684C164.03 285.516 164.618 285.432 165.234 285.432C166.335 285.432 167.296 285.628 168.118 286.02C168.939 286.412 169.574 287.019 170.022 287.84C170.488 288.661 170.722 289.725 170.722 291.032V301H166.55V292.068C166.55 290.967 166.344 290.145 165.934 289.604C165.542 289.044 164.926 288.764 164.086 288.764C163.246 288.764 162.583 288.96 162.098 289.352C161.631 289.744 161.295 290.313 161.09 291.06C160.884 291.807 160.782 292.721 160.782 293.804V301H156.61V279.72H160.782V284.06ZM188.9 293.328C188.9 294.597 188.723 295.727 188.368 296.716C188.032 297.705 187.537 298.545 186.884 299.236C186.249 299.908 185.475 300.421 184.56 300.776C183.645 301.112 182.609 301.28 181.452 301.28C180.388 301.28 179.399 301.112 178.484 300.776C177.588 300.421 176.813 299.908 176.16 299.236C175.507 298.545 174.993 297.705 174.62 296.716C174.265 295.727 174.088 294.597 174.088 293.328C174.088 291.629 174.387 290.201 174.984 289.044C175.581 287.868 176.44 286.972 177.56 286.356C178.68 285.74 180.005 285.432 181.536 285.432C182.973 285.432 184.243 285.74 185.344 286.356C186.445 286.972 187.313 287.868 187.948 289.044C188.583 290.201 188.9 291.629 188.9 293.328ZM178.344 293.328C178.344 294.336 178.447 295.185 178.652 295.876C178.876 296.548 179.221 297.061 179.688 297.416C180.155 297.752 180.761 297.92 181.508 297.92C182.255 297.92 182.852 297.752 183.3 297.416C183.767 297.061 184.103 296.548 184.308 295.876C184.532 295.185 184.644 294.336 184.644 293.328C184.644 292.32 184.532 291.48 184.308 290.808C184.103 290.136 183.767 289.632 183.3 289.296C182.833 288.96 182.227 288.792 181.48 288.792C180.379 288.792 179.576 289.175 179.072 289.94C178.587 290.687 178.344 291.816 178.344 293.328ZM203.197 295.652C203.123 295.335 203.011 294.868 202.861 294.252C202.731 293.617 202.581 292.945 202.413 292.236C202.245 291.508 202.087 290.845 201.937 290.248C201.788 289.632 201.685 289.184 201.629 288.904H201.517C201.461 289.184 201.359 289.632 201.209 290.248C201.079 290.845 200.929 291.508 200.761 292.236C200.593 292.945 200.435 293.617 200.285 294.252C200.136 294.887 200.024 295.372 199.949 295.708L198.717 301H194.237L189.897 285.712H194.041L195.805 292.488C195.936 292.955 196.048 293.515 196.141 294.168C196.253 294.821 196.356 295.456 196.449 296.072C196.543 296.669 196.608 297.145 196.645 297.5H196.757C196.776 297.239 196.813 296.893 196.869 296.464C196.925 296.016 196.991 295.559 197.065 295.092C197.159 294.625 197.233 294.205 197.289 293.832C197.364 293.44 197.42 293.179 197.457 293.048L199.333 285.712H203.925L205.717 293.048C205.792 293.309 205.876 293.729 205.969 294.308C206.081 294.887 206.175 295.475 206.249 296.072C206.343 296.669 206.389 297.145 206.389 297.5H206.501C206.539 297.183 206.604 296.725 206.697 296.128C206.791 295.512 206.893 294.868 207.005 294.196C207.136 293.524 207.267 292.955 207.397 292.488L209.217 285.712H213.305L208.909 301H204.373L203.197 295.652ZM220.626 301.28C218.927 301.28 217.536 300.617 216.454 299.292C215.39 297.948 214.858 295.979 214.858 293.384C214.858 290.771 215.399 288.792 216.482 287.448C217.564 286.104 218.983 285.432 220.738 285.432C221.466 285.432 222.11 285.535 222.67 285.74C223.23 285.927 223.706 286.188 224.098 286.524C224.508 286.86 224.854 287.243 225.134 287.672H225.274C225.218 287.373 225.152 286.944 225.078 286.384C225.003 285.805 224.966 285.217 224.966 284.62V279.72H229.138V301H225.946L225.134 299.012H224.966C224.704 299.423 224.368 299.805 223.958 300.16C223.566 300.496 223.099 300.767 222.558 300.972C222.016 301.177 221.372 301.28 220.626 301.28ZM222.082 297.948C223.239 297.948 224.051 297.612 224.518 296.94C224.984 296.249 225.227 295.223 225.246 293.86V293.412C225.246 291.919 225.012 290.78 224.546 289.996C224.098 289.212 223.258 288.82 222.026 288.82C221.111 288.82 220.392 289.221 219.87 290.024C219.347 290.808 219.086 291.947 219.086 293.44C219.086 294.933 219.347 296.063 219.87 296.828C220.392 297.575 221.13 297.948 222.082 297.948ZM237.672 284.06C237.672 284.807 237.644 285.525 237.588 286.216C237.551 286.907 237.514 287.392 237.476 287.672H237.7C238.036 287.149 238.428 286.729 238.876 286.412C239.324 286.076 239.819 285.833 240.36 285.684C240.92 285.516 241.508 285.432 242.124 285.432C243.226 285.432 244.187 285.628 245.008 286.02C245.83 286.412 246.464 287.019 246.912 287.84C247.379 288.661 247.612 289.725 247.612 291.032V301H243.44V292.068C243.44 290.967 243.235 290.145 242.824 289.604C242.432 289.044 241.816 288.764 240.976 288.764C240.136 288.764 239.474 288.96 238.988 289.352C238.522 289.744 238.186 290.313 237.98 291.06C237.775 291.807 237.672 292.721 237.672 293.804V301H233.5V279.72H237.672V284.06ZM265.931 285.712V301H262.739L262.179 299.04H261.955C261.637 299.563 261.227 299.992 260.723 300.328C260.237 300.645 259.696 300.879 259.099 301.028C258.501 301.196 257.885 301.28 257.251 301.28C256.168 301.28 255.216 301.084 254.395 300.692C253.573 300.3 252.939 299.693 252.491 298.872C252.043 298.051 251.819 296.987 251.819 295.68V285.712H255.991V294.644C255.991 295.727 256.187 296.548 256.579 297.108C256.971 297.668 257.596 297.948 258.455 297.948C259.313 297.948 259.976 297.752 260.443 297.36C260.928 296.968 261.264 296.399 261.451 295.652C261.656 294.905 261.759 293.991 261.759 292.908V285.712H265.931ZM278.845 285.432C279.05 285.432 279.293 285.441 279.573 285.46C279.853 285.479 280.077 285.507 280.245 285.544L279.937 289.464C279.806 289.427 279.61 289.399 279.349 289.38C279.106 289.343 278.892 289.324 278.705 289.324C278.164 289.324 277.641 289.399 277.137 289.548C276.633 289.679 276.176 289.893 275.765 290.192C275.373 290.491 275.056 290.892 274.813 291.396C274.589 291.881 274.477 292.488 274.477 293.216V301H270.305V285.712H273.469L274.085 288.288H274.281C274.58 287.765 274.953 287.289 275.401 286.86C275.849 286.431 276.362 286.085 276.941 285.824C277.538 285.563 278.173 285.432 278.845 285.432ZM280.836 285.712H285.4L288.284 294.308C288.377 294.588 288.452 294.868 288.508 295.148C288.583 295.428 288.639 295.717 288.676 296.016C288.732 296.315 288.769 296.632 288.788 296.968H288.872C288.928 296.483 289.003 296.025 289.096 295.596C289.208 295.148 289.329 294.719 289.46 294.308L292.288 285.712H296.768L290.3 302.96C289.908 304.005 289.395 304.883 288.76 305.592C288.144 306.301 287.425 306.833 286.604 307.188C285.783 307.543 284.887 307.72 283.916 307.72C283.449 307.72 283.039 307.692 282.684 307.636C282.348 307.599 282.049 307.552 281.788 307.496V304.192C281.993 304.229 282.236 304.267 282.516 304.304C282.815 304.341 283.123 304.36 283.44 304.36C284.019 304.36 284.513 304.239 284.924 303.996C285.353 303.753 285.708 303.417 285.988 302.988C286.268 302.577 286.492 302.129 286.66 301.644L286.912 300.888L280.836 285.712ZM301.928 298.06C301.76 298.713 301.546 299.423 301.284 300.188C301.023 300.935 300.743 301.681 300.444 302.428C300.146 303.193 299.838 303.921 299.52 304.612H296.524C296.711 303.865 296.888 303.081 297.056 302.26C297.224 301.457 297.383 300.664 297.532 299.88C297.682 299.096 297.803 298.387 297.896 297.752H301.732L301.928 298.06ZM90.7192 339V319.008H94.9472V335.5H103.067V339H90.7192ZM120.103 331.328C120.103 332.597 119.926 333.727 119.571 334.716C119.235 335.705 118.741 336.545 118.087 337.236C117.453 337.908 116.678 338.421 115.763 338.776C114.849 339.112 113.813 339.28 112.655 339.28C111.591 339.28 110.602 339.112 109.687 338.776C108.791 338.421 108.017 337.908 107.363 337.236C106.71 336.545 106.197 335.705 105.823 334.716C105.469 333.727 105.291 332.597 105.291 331.328C105.291 329.629 105.59 328.201 106.187 327.044C106.785 325.868 107.643 324.972 108.763 324.356C109.883 323.74 111.209 323.432 112.739 323.432C114.177 323.432 115.446 323.74 116.547 324.356C117.649 324.972 118.517 325.868 119.151 327.044C119.786 328.201 120.103 329.629 120.103 331.328ZM109.547 331.328C109.547 332.336 109.65 333.185 109.855 333.876C110.079 334.548 110.425 335.061 110.891 335.416C111.358 335.752 111.965 335.92 112.711 335.92C113.458 335.92 114.055 335.752 114.503 335.416C114.97 335.061 115.306 334.548 115.511 333.876C115.735 333.185 115.847 332.336 115.847 331.328C115.847 330.32 115.735 329.48 115.511 328.808C115.306 328.136 114.97 327.632 114.503 327.296C114.037 326.96 113.43 326.792 112.683 326.792C111.582 326.792 110.779 327.175 110.275 327.94C109.79 328.687 109.547 329.816 109.547 331.328ZM137.579 323.712V339H134.387L133.827 337.04H133.603C133.286 337.563 132.875 337.992 132.371 338.328C131.886 338.645 131.345 338.879 130.747 339.028C130.15 339.196 129.534 339.28 128.899 339.28C127.817 339.28 126.865 339.084 126.043 338.692C125.222 338.3 124.587 337.693 124.139 336.872C123.691 336.051 123.467 334.987 123.467 333.68V323.712H127.639V332.644C127.639 333.727 127.835 334.548 128.227 335.108C128.619 335.668 129.245 335.948 130.103 335.948C130.962 335.948 131.625 335.752 132.091 335.36C132.577 334.968 132.913 334.399 133.099 333.652C133.305 332.905 133.407 331.991 133.407 330.908V323.712H137.579ZM146.798 339.28C145.099 339.28 143.708 338.617 142.626 337.292C141.562 335.948 141.03 333.979 141.03 331.384C141.03 328.771 141.571 326.792 142.654 325.448C143.736 324.104 145.155 323.432 146.91 323.432C147.638 323.432 148.282 323.535 148.842 323.74C149.402 323.927 149.878 324.188 150.27 324.524C150.68 324.86 151.026 325.243 151.306 325.672H151.446C151.39 325.373 151.324 324.944 151.25 324.384C151.175 323.805 151.138 323.217 151.138 322.62V317.72H155.31V339H152.118L151.306 337.012H151.138C150.876 337.423 150.54 337.805 150.13 338.16C149.738 338.496 149.271 338.767 148.73 338.972C148.188 339.177 147.544 339.28 146.798 339.28ZM148.254 335.948C149.411 335.948 150.223 335.612 150.69 334.94C151.156 334.249 151.399 333.223 151.418 331.86V331.412C151.418 329.919 151.184 328.78 150.718 327.996C150.27 327.212 149.43 326.82 148.198 326.82C147.283 326.82 146.564 327.221 146.042 328.024C145.519 328.808 145.258 329.947 145.258 331.44C145.258 332.933 145.519 334.063 146.042 334.828C146.564 335.575 147.302 335.948 148.254 335.948ZM171.068 333.652C170.994 333.335 170.882 332.868 170.732 332.252C170.602 331.617 170.452 330.945 170.284 330.236C170.116 329.508 169.958 328.845 169.808 328.248C169.659 327.632 169.556 327.184 169.5 326.904H169.388C169.332 327.184 169.23 327.632 169.08 328.248C168.95 328.845 168.8 329.508 168.632 330.236C168.464 330.945 168.306 331.617 168.156 332.252C168.007 332.887 167.895 333.372 167.82 333.708L166.588 339H162.108L157.768 323.712H161.912L163.676 330.488C163.807 330.955 163.919 331.515 164.012 332.168C164.124 332.821 164.227 333.456 164.32 334.072C164.414 334.669 164.479 335.145 164.516 335.5H164.628C164.647 335.239 164.684 334.893 164.74 334.464C164.796 334.016 164.862 333.559 164.936 333.092C165.03 332.625 165.104 332.205 165.16 331.832C165.235 331.44 165.291 331.179 165.328 331.048L167.204 323.712H171.796L173.588 331.048C173.663 331.309 173.747 331.729 173.84 332.308C173.952 332.887 174.046 333.475 174.12 334.072C174.214 334.669 174.26 335.145 174.26 335.5H174.372C174.41 335.183 174.475 334.725 174.568 334.128C174.662 333.512 174.764 332.868 174.876 332.196C175.007 331.524 175.138 330.955 175.268 330.488L177.088 323.712H181.176L176.78 339H172.244L171.068 333.652ZM197.541 331.328C197.541 332.597 197.363 333.727 197.009 334.716C196.673 335.705 196.178 336.545 195.525 337.236C194.89 337.908 194.115 338.421 193.201 338.776C192.286 339.112 191.25 339.28 190.093 339.28C189.029 339.28 188.039 339.112 187.125 338.776C186.229 338.421 185.454 337.908 184.801 337.236C184.147 336.545 183.634 335.705 183.261 334.716C182.906 333.727 182.729 332.597 182.729 331.328C182.729 329.629 183.027 328.201 183.625 327.044C184.222 325.868 185.081 324.972 186.201 324.356C187.321 323.74 188.646 323.432 190.177 323.432C191.614 323.432 192.883 323.74 193.985 324.356C195.086 324.972 195.954 325.868 196.589 327.044C197.223 328.201 197.541 329.629 197.541 331.328ZM186.985 331.328C186.985 332.336 187.087 333.185 187.293 333.876C187.517 334.548 187.862 335.061 188.329 335.416C188.795 335.752 189.402 335.92 190.149 335.92C190.895 335.92 191.493 335.752 191.941 335.416C192.407 335.061 192.743 334.548 192.949 333.876C193.173 333.185 193.285 332.336 193.285 331.328C193.285 330.32 193.173 329.48 192.949 328.808C192.743 328.136 192.407 327.632 191.941 327.296C191.474 326.96 190.867 326.792 190.121 326.792C189.019 326.792 188.217 327.175 187.713 327.94C187.227 328.687 186.985 329.816 186.985 331.328ZM209.529 323.432C209.734 323.432 209.977 323.441 210.257 323.46C210.537 323.479 210.761 323.507 210.929 323.544L210.621 327.464C210.49 327.427 210.294 327.399 210.033 327.38C209.79 327.343 209.575 327.324 209.389 327.324C208.847 327.324 208.325 327.399 207.821 327.548C207.317 327.679 206.859 327.893 206.449 328.192C206.057 328.491 205.739 328.892 205.497 329.396C205.273 329.881 205.161 330.488 205.161 331.216V339H200.989V323.712H204.153L204.769 326.288H204.965C205.263 325.765 205.637 325.289 206.085 324.86C206.533 324.431 207.046 324.085 207.625 323.824C208.222 323.563 208.857 323.432 209.529 323.432ZM217.876 327.24C217.876 327.819 217.848 328.397 217.792 328.976C217.754 329.536 217.708 330.105 217.652 330.684H217.708C217.894 330.423 218.081 330.161 218.268 329.9C218.473 329.639 218.678 329.377 218.884 329.116C219.089 328.855 219.304 328.603 219.528 328.36L223.812 323.712H228.516L222.44 330.348L228.88 339H224.064L219.668 332.812L217.876 334.24V339H213.704V317.72H217.876V327.24ZM241.735 334.464C241.735 335.491 241.492 336.368 241.007 337.096C240.521 337.805 239.793 338.347 238.823 338.72C237.852 339.093 236.648 339.28 235.211 339.28C234.147 339.28 233.232 339.205 232.467 339.056C231.701 338.925 230.936 338.701 230.171 338.384V334.94C230.992 335.313 231.879 335.621 232.831 335.864C233.783 336.107 234.623 336.228 235.351 336.228C236.172 336.228 236.751 336.107 237.087 335.864C237.441 335.621 237.619 335.304 237.619 334.912C237.619 334.651 237.544 334.417 237.395 334.212C237.264 334.007 236.965 333.773 236.499 333.512C236.032 333.251 235.304 332.915 234.315 332.504C233.363 332.093 232.579 331.692 231.963 331.3C231.347 330.889 230.889 330.404 230.591 329.844C230.292 329.265 230.143 328.547 230.143 327.688C230.143 326.269 230.693 325.205 231.795 324.496C232.896 323.787 234.361 323.432 236.191 323.432C237.143 323.432 238.048 323.525 238.907 323.712C239.765 323.899 240.652 324.207 241.567 324.636L240.307 327.632C239.803 327.408 239.317 327.212 238.851 327.044C238.384 326.876 237.927 326.745 237.479 326.652C237.049 326.559 236.601 326.512 236.135 326.512C235.519 326.512 235.052 326.596 234.735 326.764C234.436 326.932 234.287 327.184 234.287 327.52C234.287 327.763 234.361 327.987 234.511 328.192C234.679 328.379 234.987 328.584 235.435 328.808C235.901 329.032 236.583 329.331 237.479 329.704C238.356 330.059 239.112 330.432 239.747 330.824C240.381 331.197 240.867 331.673 241.203 332.252C241.557 332.812 241.735 333.549 241.735 334.464Z" fill="white"/>
<path d="M223.02 205.373C213.631 205.373 206.02 197.762 206.02 188.373C206.02 185.145 206.02 181.93 206.02 178.713C206.02 160.733 206.04 142.743 206 124.763C206 121.213 206.29 117.893 210.6 117.133C215.06 116.343 216.8 119.173 217.86 122.903C219.67 129.303 221.71 135.633 223.43 142.053C224.2 144.923 225.55 145.993 228.63 145.953C235.176 145.856 241.722 145.843 248.32 145.852C257.709 145.865 265.32 153.494 265.32 162.883L265.32 188.373C265.32 197.762 257.709 205.373 248.32 205.373L223.02 205.373Z" fill="white"/>
<path d="M289.02 205.373C279.631 205.373 272.02 197.762 272.02 188.373C272.02 185.145 272.02 181.93 272.02 178.713C272.02 160.733 272.04 142.743 272 124.763C272 121.213 272.29 117.893 276.6 117.133C281.06 116.343 282.8 119.173 283.86 122.903C285.67 129.303 287.71 135.633 289.43 142.053C290.2 144.923 291.55 145.993 294.63 145.953C301.176 145.856 307.722 145.843 314.32 145.852C323.709 145.865 331.32 153.494 331.32 162.883L331.32 188.373C331.32 197.762 323.709 205.373 314.32 205.373L289.02 205.373Z" fill="white"/>
</svg>
