<svg width="539" height="539" viewBox="0 0 539 539" fill="none" xmlns="http://www.w3.org/2000/svg">
<circle cx="269.5" cy="269.5" r="269.5" fill="#F04C23"/>
<path d="M314.192 165.628C315.517 165.628 316.656 165.908 317.608 166.468C318.56 167.009 319.288 167.793 319.792 168.82C320.314 169.847 320.576 171.06 320.576 172.46V174.084H310.44C310.477 175.633 310.878 176.819 311.644 177.64C312.428 178.461 313.52 178.872 314.92 178.872C315.89 178.872 316.749 178.788 317.496 178.62C318.261 178.433 319.045 178.163 319.848 177.808V180.272C319.101 180.608 318.336 180.86 317.552 181.028C316.786 181.196 315.872 181.28 314.808 181.28C313.352 181.28 312.064 180.991 310.944 180.412C309.824 179.833 308.946 178.975 308.312 177.836C307.696 176.679 307.388 175.26 307.388 173.58C307.388 171.881 307.668 170.444 308.228 169.268C308.806 168.092 309.6 167.196 310.608 166.58C311.634 165.945 312.829 165.628 314.192 165.628ZM314.192 167.924C313.128 167.924 312.269 168.269 311.616 168.96C310.981 169.651 310.608 170.631 310.496 171.9H317.608C317.608 171.116 317.486 170.425 317.244 169.828C317.001 169.231 316.628 168.764 316.124 168.428C315.62 168.092 314.976 167.924 314.192 167.924ZM327.12 181L321.408 165.908H324.544L327.68 174.728C327.811 175.101 327.942 175.521 328.072 175.988C328.222 176.455 328.352 176.903 328.464 177.332C328.576 177.761 328.651 178.135 328.688 178.452H328.8C328.856 178.135 328.94 177.761 329.052 177.332C329.183 176.884 329.323 176.436 329.472 175.988C329.622 175.521 329.752 175.101 329.864 174.728L333 165.908H336.136L330.396 181H327.12ZM351.77 173.44C351.77 174.691 351.602 175.801 351.266 176.772C350.93 177.743 350.454 178.564 349.838 179.236C349.222 179.908 348.476 180.421 347.598 180.776C346.721 181.112 345.732 181.28 344.63 181.28C343.622 181.28 342.689 181.112 341.83 180.776C340.972 180.421 340.225 179.908 339.59 179.236C338.974 178.564 338.489 177.743 338.134 176.772C337.78 175.801 337.602 174.681 337.602 173.412C337.602 171.751 337.882 170.341 338.442 169.184C339.021 168.027 339.842 167.149 340.906 166.552C341.989 165.936 343.258 165.628 344.714 165.628C346.096 165.628 347.309 165.936 348.354 166.552C349.418 167.149 350.249 168.027 350.846 169.184C351.462 170.341 351.77 171.76 351.77 173.44ZM340.654 173.44C340.654 174.56 340.794 175.531 341.074 176.352C341.354 177.155 341.793 177.771 342.39 178.2C342.988 178.629 343.753 178.844 344.686 178.844C345.62 178.844 346.385 178.629 346.982 178.2C347.58 177.771 348.018 177.155 348.298 176.352C348.578 175.531 348.718 174.56 348.718 173.44C348.718 172.283 348.569 171.312 348.27 170.528C347.99 169.744 347.552 169.147 346.954 168.736C346.376 168.307 345.61 168.092 344.658 168.092C343.258 168.092 342.241 168.559 341.606 169.492C340.972 170.425 340.654 171.741 340.654 173.44ZM358.501 181H355.533V159.72H358.501V181ZM376.154 165.908V181H373.774L373.354 179.012H373.214C372.897 179.535 372.486 179.964 371.982 180.3C371.478 180.636 370.927 180.879 370.33 181.028C369.733 181.196 369.117 181.28 368.482 181.28C367.306 181.28 366.307 181.093 365.486 180.72C364.683 180.328 364.067 179.731 363.638 178.928C363.227 178.107 363.022 177.061 363.022 175.792V165.908H366.018V175.344C366.018 176.52 366.261 177.397 366.746 177.976C367.25 178.555 368.025 178.844 369.07 178.844C370.115 178.844 370.937 178.639 371.534 178.228C372.131 177.817 372.551 177.22 372.794 176.436C373.055 175.633 373.186 174.672 373.186 173.552V165.908H376.154ZM386.231 178.872C386.623 178.872 387.024 178.835 387.435 178.76C387.845 178.685 388.2 178.601 388.499 178.508V180.748C388.181 180.897 387.752 181.019 387.211 181.112C386.669 181.224 386.128 181.28 385.587 181.28C384.765 181.28 384.009 181.14 383.319 180.86C382.647 180.58 382.105 180.095 381.695 179.404C381.284 178.713 381.079 177.752 381.079 176.52V168.176H378.979V166.832L381.191 165.712L382.227 162.52H384.047V165.908H388.359V168.176H384.047V176.464C384.047 177.285 384.243 177.892 384.635 178.284C385.045 178.676 385.577 178.872 386.231 178.872ZM394.485 165.908V181H391.517V165.908H394.485ZM393.029 160.168C393.477 160.168 393.869 160.299 394.205 160.56C394.541 160.821 394.709 161.26 394.709 161.876C394.709 162.473 394.541 162.912 394.205 163.192C393.869 163.453 393.477 163.584 393.029 163.584C392.544 163.584 392.133 163.453 391.797 163.192C391.48 162.912 391.321 162.473 391.321 161.876C391.321 161.26 391.48 160.821 391.797 160.56C392.133 160.299 392.544 160.168 393.029 160.168ZM412.446 173.44C412.446 174.691 412.278 175.801 411.942 176.772C411.606 177.743 411.13 178.564 410.514 179.236C409.898 179.908 409.152 180.421 408.274 180.776C407.397 181.112 406.408 181.28 405.306 181.28C404.298 181.28 403.365 181.112 402.506 180.776C401.648 180.421 400.901 179.908 400.266 179.236C399.65 178.564 399.165 177.743 398.81 176.772C398.456 175.801 398.278 174.681 398.278 173.412C398.278 171.751 398.558 170.341 399.118 169.184C399.697 168.027 400.518 167.149 401.582 166.552C402.665 165.936 403.934 165.628 405.39 165.628C406.772 165.628 407.985 165.936 409.03 166.552C410.094 167.149 410.925 168.027 411.522 169.184C412.138 170.341 412.446 171.76 412.446 173.44ZM401.33 173.44C401.33 174.56 401.47 175.531 401.75 176.352C402.03 177.155 402.469 177.771 403.066 178.2C403.664 178.629 404.429 178.844 405.362 178.844C406.296 178.844 407.061 178.629 407.658 178.2C408.256 177.771 408.694 177.155 408.974 176.352C409.254 175.531 409.394 174.56 409.394 173.44C409.394 172.283 409.245 171.312 408.946 170.528C408.666 169.744 408.228 169.147 407.63 168.736C407.052 168.307 406.286 168.092 405.334 168.092C403.934 168.092 402.917 168.559 402.282 169.492C401.648 170.425 401.33 171.741 401.33 173.44ZM423.853 165.628C425.607 165.628 426.951 166.067 427.885 166.944C428.818 167.821 429.285 169.231 429.285 171.172V181H426.345V171.592C426.345 170.416 426.093 169.539 425.589 168.96C425.103 168.363 424.319 168.064 423.237 168.064C421.706 168.064 420.642 168.521 420.045 169.436C419.466 170.351 419.177 171.667 419.177 173.384V181H416.209V165.908H418.561L418.981 167.924H419.149C419.485 167.401 419.895 166.972 420.381 166.636C420.866 166.3 421.407 166.048 422.005 165.88C422.602 165.712 423.218 165.628 423.853 165.628ZM436.813 165.908V181H433.845V165.908H436.813ZM435.357 160.168C435.805 160.168 436.197 160.299 436.533 160.56C436.869 160.821 437.037 161.26 437.037 161.876C437.037 162.473 436.869 162.912 436.533 163.192C436.197 163.453 435.805 163.584 435.357 163.584C434.872 163.584 434.461 163.453 434.125 163.192C433.808 162.912 433.649 162.473 433.649 161.876C433.649 161.26 433.808 160.821 434.125 160.56C434.461 160.299 434.872 160.168 435.357 160.168ZM451.442 181H440.13V179.124L447.914 168.204H440.606V165.908H451.218V168.008L443.602 178.704H451.442V181ZM457.731 165.908V181H454.763V165.908H457.731ZM456.275 160.168C456.723 160.168 457.115 160.299 457.451 160.56C457.787 160.821 457.955 161.26 457.955 161.876C457.955 162.473 457.787 162.912 457.451 163.192C457.115 163.453 456.723 163.584 456.275 163.584C455.79 163.584 455.379 163.453 455.043 163.192C454.726 162.912 454.567 162.473 454.567 161.876C454.567 161.26 454.726 160.821 455.043 160.56C455.379 160.299 455.79 160.168 456.275 160.168ZM470.036 165.628C471.791 165.628 473.135 166.067 474.068 166.944C475.002 167.821 475.468 169.231 475.468 171.172V181H472.528V171.592C472.528 170.416 472.276 169.539 471.772 168.96C471.287 168.363 470.503 168.064 469.42 168.064C467.89 168.064 466.826 168.521 466.228 169.436C465.65 170.351 465.36 171.667 465.36 173.384V181H462.392V165.908H464.744L465.164 167.924H465.332C465.668 167.401 466.079 166.972 466.564 166.636C467.05 166.3 467.591 166.048 468.188 165.88C468.786 165.712 469.402 165.628 470.036 165.628ZM485.237 165.628C486.208 165.628 487.085 165.815 487.869 166.188C488.653 166.561 489.316 167.131 489.857 167.896H489.997L490.333 165.908H492.741V181.196C492.741 182.615 492.489 183.809 491.985 184.78C491.481 185.751 490.706 186.479 489.661 186.964C488.634 187.468 487.337 187.72 485.769 187.72C484.686 187.72 483.688 187.645 482.773 187.496C481.858 187.347 481.018 187.113 480.253 186.796V184.192C480.794 184.453 481.364 184.668 481.961 184.836C482.558 185.023 483.193 185.153 483.865 185.228C484.537 185.321 485.228 185.368 485.937 185.368C487.169 185.368 488.121 185.013 488.793 184.304C489.465 183.613 489.801 182.633 489.801 181.364V180.86C489.801 180.617 489.81 180.3 489.829 179.908C489.848 179.497 489.866 179.199 489.885 179.012H489.773C489.25 179.796 488.606 180.375 487.841 180.748C487.094 181.103 486.226 181.28 485.237 181.28C483.333 181.28 481.84 180.599 480.757 179.236C479.693 177.855 479.161 175.941 479.161 173.496C479.161 171.853 479.404 170.453 479.889 169.296C480.374 168.12 481.065 167.215 481.961 166.58C482.876 165.945 483.968 165.628 485.237 165.628ZM485.853 168.092C485.069 168.092 484.406 168.307 483.865 168.736C483.324 169.147 482.913 169.753 482.633 170.556C482.353 171.359 482.213 172.348 482.213 173.524C482.213 175.279 482.521 176.613 483.137 177.528C483.772 178.443 484.696 178.9 485.909 178.9C486.618 178.9 487.216 178.807 487.701 178.62C488.205 178.433 488.616 178.144 488.933 177.752C489.269 177.36 489.512 176.865 489.661 176.268C489.829 175.652 489.913 174.915 489.913 174.056V173.496C489.913 172.208 489.764 171.172 489.465 170.388C489.185 169.585 488.746 169.007 488.149 168.652C487.552 168.279 486.786 168.092 485.853 168.092ZM324.295 203.628C325.62 203.628 326.759 203.908 327.711 204.468C328.663 205.009 329.391 205.793 329.895 206.82C330.418 207.847 330.679 209.06 330.679 210.46V212.084H320.543C320.58 213.633 320.982 214.819 321.747 215.64C322.531 216.461 323.623 216.872 325.023 216.872C325.994 216.872 326.852 216.788 327.599 216.62C328.364 216.433 329.148 216.163 329.951 215.808V218.272C329.204 218.608 328.439 218.86 327.655 219.028C326.89 219.196 325.975 219.28 324.911 219.28C323.455 219.28 322.167 218.991 321.047 218.412C319.927 217.833 319.05 216.975 318.415 215.836C317.799 214.679 317.491 213.26 317.491 211.58C317.491 209.881 317.771 208.444 318.331 207.268C318.91 206.092 319.703 205.196 320.711 204.58C321.738 203.945 322.932 203.628 324.295 203.628ZM324.295 205.924C323.231 205.924 322.372 206.269 321.719 206.96C321.084 207.651 320.711 208.631 320.599 209.9H327.711C327.711 209.116 327.59 208.425 327.347 207.828C327.104 207.231 326.731 206.764 326.227 206.428C325.723 206.092 325.079 205.924 324.295 205.924ZM339.563 219.28C337.752 219.28 336.287 218.627 335.167 217.32C334.065 216.013 333.515 214.072 333.515 211.496C333.515 208.901 334.075 206.941 335.195 205.616C336.315 204.291 337.789 203.628 339.619 203.628C340.384 203.628 341.047 203.731 341.607 203.936C342.185 204.123 342.68 204.384 343.091 204.72C343.52 205.056 343.884 205.429 344.183 205.84H344.351C344.313 205.579 344.267 205.205 344.211 204.72C344.155 204.216 344.127 203.768 344.127 203.376V197.72H347.095V219H344.771L344.267 216.984H344.127C343.847 217.413 343.492 217.805 343.063 218.16C342.652 218.496 342.157 218.767 341.579 218.972C341 219.177 340.328 219.28 339.563 219.28ZM340.263 216.844C341.719 216.844 342.745 216.443 343.343 215.64C343.94 214.819 344.239 213.596 344.239 211.972V211.524C344.239 209.751 343.949 208.397 343.371 207.464C342.811 206.531 341.765 206.064 340.235 206.064C339.021 206.064 338.107 206.559 337.491 207.548C336.875 208.519 336.567 209.853 336.567 211.552C336.567 213.251 336.875 214.557 337.491 215.472C338.107 216.387 339.031 216.844 340.263 216.844ZM364.738 203.908V219H362.358L361.938 217.012H361.798C361.481 217.535 361.07 217.964 360.566 218.3C360.062 218.636 359.511 218.879 358.914 219.028C358.317 219.196 357.701 219.28 357.066 219.28C355.89 219.28 354.891 219.093 354.07 218.72C353.267 218.328 352.651 217.731 352.222 216.928C351.811 216.107 351.606 215.061 351.606 213.792V203.908H354.602V213.344C354.602 214.52 354.845 215.397 355.33 215.976C355.834 216.555 356.609 216.844 357.654 216.844C358.699 216.844 359.521 216.639 360.118 216.228C360.715 215.817 361.135 215.22 361.378 214.436C361.639 213.633 361.77 212.672 361.77 211.552V203.908H364.738ZM375.459 219.28C374.077 219.28 372.864 219.009 371.819 218.468C370.773 217.927 369.961 217.087 369.383 215.948C368.804 214.791 368.515 213.325 368.515 211.552C368.515 209.685 368.823 208.173 369.439 207.016C370.073 205.859 370.923 205.009 371.987 204.468C373.069 203.908 374.301 203.628 375.683 203.628C376.523 203.628 377.307 203.721 378.035 203.908C378.781 204.076 379.397 204.272 379.883 204.496L378.987 206.904C378.464 206.699 377.904 206.521 377.307 206.372C376.728 206.223 376.177 206.148 375.655 206.148C374.721 206.148 373.947 206.353 373.331 206.764C372.733 207.156 372.285 207.753 371.987 208.556C371.707 209.34 371.567 210.329 371.567 211.524C371.567 212.663 371.716 213.624 372.015 214.408C372.313 215.192 372.752 215.789 373.331 216.2C373.928 216.592 374.665 216.788 375.543 216.788C376.383 216.788 377.12 216.695 377.755 216.508C378.389 216.321 378.987 216.079 379.547 215.78V218.356C379.005 218.673 378.417 218.907 377.783 219.056C377.148 219.205 376.373 219.28 375.459 219.28ZM388.961 203.628C390.865 203.628 392.284 204.048 393.217 204.888C394.15 205.709 394.617 207.007 394.617 208.78V219H392.517L391.929 216.9H391.817C391.388 217.441 390.94 217.889 390.473 218.244C390.025 218.599 389.502 218.86 388.905 219.028C388.326 219.196 387.617 219.28 386.777 219.28C385.881 219.28 385.069 219.121 384.341 218.804C383.632 218.468 383.072 217.964 382.661 217.292C382.25 216.601 382.045 215.743 382.045 214.716C382.045 213.185 382.624 212.019 383.781 211.216C384.957 210.413 386.74 209.975 389.129 209.9L391.705 209.816V208.976C391.705 207.856 391.453 207.072 390.949 206.624C390.445 206.176 389.736 205.952 388.821 205.952C388.037 205.952 387.29 206.064 386.581 206.288C385.872 206.512 385.2 206.783 384.565 207.1L383.613 204.944C384.322 204.571 385.134 204.263 386.049 204.02C386.982 203.759 387.953 203.628 388.961 203.628ZM389.661 211.804C387.944 211.879 386.749 212.168 386.077 212.672C385.424 213.157 385.097 213.848 385.097 214.744C385.097 215.528 385.33 216.097 385.797 216.452C386.282 216.807 386.889 216.984 387.617 216.984C388.793 216.984 389.764 216.657 390.529 216.004C391.294 215.351 391.677 214.371 391.677 213.064V211.748L389.661 211.804ZM404.619 216.872C405.011 216.872 405.413 216.835 405.823 216.76C406.234 216.685 406.589 216.601 406.887 216.508V218.748C406.57 218.897 406.141 219.019 405.599 219.112C405.058 219.224 404.517 219.28 403.975 219.28C403.154 219.28 402.398 219.14 401.707 218.86C401.035 218.58 400.494 218.095 400.083 217.404C399.673 216.713 399.467 215.752 399.467 214.52V206.176H397.367V204.832L399.579 203.712L400.615 200.52H402.435V203.908H406.747V206.176H402.435V214.464C402.435 215.285 402.631 215.892 403.023 216.284C403.434 216.676 403.966 216.872 404.619 216.872ZM412.874 203.908V219H409.906V203.908H412.874ZM411.418 198.168C411.866 198.168 412.258 198.299 412.594 198.56C412.93 198.821 413.098 199.26 413.098 199.876C413.098 200.473 412.93 200.912 412.594 201.192C412.258 201.453 411.866 201.584 411.418 201.584C410.933 201.584 410.522 201.453 410.186 201.192C409.869 200.912 409.71 200.473 409.71 199.876C409.71 199.26 409.869 198.821 410.186 198.56C410.522 198.299 410.933 198.168 411.418 198.168ZM430.835 211.44C430.835 212.691 430.667 213.801 430.331 214.772C429.995 215.743 429.519 216.564 428.903 217.236C428.287 217.908 427.54 218.421 426.663 218.776C425.786 219.112 424.796 219.28 423.695 219.28C422.687 219.28 421.754 219.112 420.895 218.776C420.036 218.421 419.29 217.908 418.655 217.236C418.039 216.564 417.554 215.743 417.199 214.772C416.844 213.801 416.667 212.681 416.667 211.412C416.667 209.751 416.947 208.341 417.507 207.184C418.086 206.027 418.907 205.149 419.971 204.552C421.054 203.936 422.323 203.628 423.779 203.628C425.16 203.628 426.374 203.936 427.419 204.552C428.483 205.149 429.314 206.027 429.911 207.184C430.527 208.341 430.835 209.76 430.835 211.44ZM419.719 211.44C419.719 212.56 419.859 213.531 420.139 214.352C420.419 215.155 420.858 215.771 421.455 216.2C422.052 216.629 422.818 216.844 423.751 216.844C424.684 216.844 425.45 216.629 426.047 216.2C426.644 215.771 427.083 215.155 427.363 214.352C427.643 213.531 427.783 212.56 427.783 211.44C427.783 210.283 427.634 209.312 427.335 208.528C427.055 207.744 426.616 207.147 426.019 206.736C425.44 206.307 424.675 206.092 423.723 206.092C422.323 206.092 421.306 206.559 420.671 207.492C420.036 208.425 419.719 209.741 419.719 211.44ZM442.241 203.628C443.996 203.628 445.34 204.067 446.273 204.944C447.207 205.821 447.673 207.231 447.673 209.172V219H444.733V209.592C444.733 208.416 444.481 207.539 443.977 206.96C443.492 206.363 442.708 206.064 441.625 206.064C440.095 206.064 439.031 206.521 438.433 207.436C437.855 208.351 437.565 209.667 437.565 211.384V219H434.597V203.908H436.949L437.369 205.924H437.537C437.873 205.401 438.284 204.972 438.769 204.636C439.255 204.3 439.796 204.048 440.393 203.88C440.991 203.712 441.607 203.628 442.241 203.628ZM464.94 216.872C465.332 216.872 465.733 216.835 466.144 216.76C466.554 216.685 466.909 216.601 467.208 216.508V218.748C466.89 218.897 466.461 219.019 465.92 219.112C465.378 219.224 464.837 219.28 464.296 219.28C463.474 219.28 462.718 219.14 462.028 218.86C461.356 218.58 460.814 218.095 460.404 217.404C459.993 216.713 459.788 215.752 459.788 214.52V206.176H457.688V204.832L459.9 203.712L460.936 200.52H462.756V203.908H467.068V206.176H462.756V214.464C462.756 215.285 462.952 215.892 463.344 216.284C463.754 216.676 464.286 216.872 464.94 216.872ZM483.526 211.44C483.526 212.691 483.358 213.801 483.022 214.772C482.686 215.743 482.21 216.564 481.594 217.236C480.978 217.908 480.232 218.421 479.354 218.776C478.477 219.112 477.488 219.28 476.386 219.28C475.378 219.28 474.445 219.112 473.586 218.776C472.728 218.421 471.981 217.908 471.346 217.236C470.73 216.564 470.245 215.743 469.89 214.772C469.536 213.801 469.358 212.681 469.358 211.412C469.358 209.751 469.638 208.341 470.198 207.184C470.777 206.027 471.598 205.149 472.662 204.552C473.745 203.936 475.014 203.628 476.47 203.628C477.852 203.628 479.065 203.936 480.11 204.552C481.174 205.149 482.005 206.027 482.602 207.184C483.218 208.341 483.526 209.76 483.526 211.44ZM472.41 211.44C472.41 212.56 472.55 213.531 472.83 214.352C473.11 215.155 473.549 215.771 474.146 216.2C474.744 216.629 475.509 216.844 476.442 216.844C477.376 216.844 478.141 216.629 478.738 216.2C479.336 215.771 479.774 215.155 480.054 214.352C480.334 213.531 480.474 212.56 480.474 211.44C480.474 210.283 480.325 209.312 480.026 208.528C479.746 207.744 479.308 207.147 478.71 206.736C478.132 206.307 477.366 206.092 476.414 206.092C475.014 206.092 473.997 206.559 473.362 207.492C472.728 208.425 472.41 209.741 472.41 211.44ZM283.02 241.628C284.345 241.628 285.484 241.908 286.436 242.468C287.388 243.009 288.116 243.793 288.62 244.82C289.142 245.847 289.404 247.06 289.404 248.46V250.084H279.268C279.305 251.633 279.706 252.819 280.472 253.64C281.256 254.461 282.348 254.872 283.748 254.872C284.718 254.872 285.577 254.788 286.324 254.62C287.089 254.433 287.873 254.163 288.676 253.808V256.272C287.929 256.608 287.164 256.86 286.38 257.028C285.614 257.196 284.7 257.28 283.636 257.28C282.18 257.28 280.892 256.991 279.772 256.412C278.652 255.833 277.774 254.975 277.14 253.836C276.524 252.679 276.216 251.26 276.216 249.58C276.216 247.881 276.496 246.444 277.056 245.268C277.634 244.092 278.428 243.196 279.436 242.58C280.462 241.945 281.657 241.628 283.02 241.628ZM283.02 243.924C281.956 243.924 281.097 244.269 280.444 244.96C279.809 245.651 279.436 246.631 279.324 247.9H286.436C286.436 247.116 286.314 246.425 286.072 245.828C285.829 245.231 285.456 244.764 284.952 244.428C284.448 244.092 283.804 243.924 283.02 243.924ZM310.019 241.628C311.718 241.628 312.997 242.067 313.855 242.944C314.714 243.821 315.143 245.231 315.143 247.172V257H312.175V247.564C312.175 246.407 311.942 245.539 311.475 244.96C311.027 244.363 310.318 244.064 309.347 244.064C308.003 244.064 307.042 244.484 306.463 245.324C305.885 246.145 305.595 247.34 305.595 248.908V257H302.655V247.564C302.655 246.799 302.543 246.155 302.319 245.632C302.114 245.109 301.806 244.717 301.395 244.456C300.985 244.195 300.453 244.064 299.799 244.064C298.866 244.064 298.129 244.269 297.587 244.68C297.046 245.091 296.654 245.697 296.411 246.5C296.187 247.284 296.075 248.245 296.075 249.384V257H293.107V241.908H295.459L295.879 243.924H296.047C296.365 243.401 296.747 242.972 297.195 242.636C297.662 242.3 298.175 242.048 298.735 241.88C299.295 241.712 299.874 241.628 300.471 241.628C301.61 241.628 302.571 241.833 303.355 242.244C304.139 242.636 304.709 243.243 305.063 244.064H305.287C305.773 243.224 306.445 242.608 307.303 242.216C308.162 241.824 309.067 241.628 310.019 241.628ZM327.217 241.628C329.028 241.628 330.484 242.281 331.585 243.588C332.705 244.895 333.265 246.845 333.265 249.44C333.265 251.139 333.013 252.576 332.509 253.752C332.005 254.928 331.296 255.815 330.381 256.412C329.467 256.991 328.403 257.28 327.189 257.28C326.424 257.28 325.752 257.187 325.173 257C324.595 256.795 324.1 256.533 323.689 256.216C323.297 255.88 322.952 255.525 322.653 255.152H322.457C322.513 255.488 322.56 255.889 322.597 256.356C322.635 256.804 322.653 257.205 322.653 257.56V263.72H319.685V241.908H322.093L322.513 243.924H322.653C322.952 243.513 323.307 243.131 323.717 242.776C324.128 242.421 324.623 242.141 325.201 241.936C325.78 241.731 326.452 241.628 327.217 241.628ZM326.517 244.064C325.584 244.064 324.837 244.251 324.277 244.624C323.717 244.979 323.307 245.52 323.045 246.248C322.803 246.957 322.672 247.863 322.653 248.964V249.412C322.653 250.569 322.775 251.559 323.017 252.38C323.26 253.183 323.661 253.799 324.221 254.228C324.8 254.639 325.584 254.844 326.573 254.844C327.413 254.844 328.095 254.62 328.617 254.172C329.159 253.705 329.56 253.061 329.821 252.24C330.083 251.419 330.213 250.467 330.213 249.384C330.213 247.741 329.915 246.444 329.317 245.492C328.72 244.54 327.787 244.064 326.517 244.064ZM350.349 249.44C350.349 250.691 350.181 251.801 349.845 252.772C349.509 253.743 349.033 254.564 348.417 255.236C347.801 255.908 347.054 256.421 346.177 256.776C345.299 257.112 344.31 257.28 343.209 257.28C342.201 257.28 341.267 257.112 340.409 256.776C339.55 256.421 338.803 255.908 338.169 255.236C337.553 254.564 337.067 253.743 336.713 252.772C336.358 251.801 336.181 250.681 336.181 249.412C336.181 247.751 336.461 246.341 337.021 245.184C337.599 244.027 338.421 243.149 339.485 242.552C340.567 241.936 341.837 241.628 343.293 241.628C344.674 241.628 345.887 241.936 346.933 242.552C347.997 243.149 348.827 244.027 349.425 245.184C350.041 246.341 350.349 247.76 350.349 249.44ZM339.233 249.44C339.233 250.56 339.373 251.531 339.653 252.352C339.933 253.155 340.371 253.771 340.969 254.2C341.566 254.629 342.331 254.844 343.265 254.844C344.198 254.844 344.963 254.629 345.561 254.2C346.158 253.771 346.597 253.155 346.877 252.352C347.157 251.531 347.297 250.56 347.297 249.44C347.297 248.283 347.147 247.312 346.849 246.528C346.569 245.744 346.13 245.147 345.533 244.736C344.954 244.307 344.189 244.092 343.237 244.092C341.837 244.092 340.819 244.559 340.185 245.492C339.55 246.425 339.233 247.741 339.233 249.44ZM363.756 249.44C363.663 249.067 363.551 248.656 363.42 248.208C363.308 247.76 363.196 247.312 363.084 246.864C362.972 246.397 362.87 245.968 362.776 245.576C362.683 245.184 362.608 244.876 362.552 244.652H362.44C362.403 244.876 362.338 245.184 362.244 245.576C362.17 245.968 362.076 246.397 361.964 246.864C361.852 247.312 361.74 247.769 361.628 248.236C361.516 248.684 361.395 249.095 361.264 249.468L359.024 256.972H355.72L351.548 241.88H354.572L356.532 249.524C356.682 250.047 356.812 250.597 356.924 251.176C357.055 251.755 357.167 252.315 357.26 252.856C357.372 253.379 357.447 253.817 357.484 254.172H357.596C357.634 253.929 357.69 253.631 357.764 253.276C357.839 252.903 357.914 252.52 357.988 252.128C358.082 251.717 358.166 251.325 358.24 250.952C358.334 250.579 358.427 250.271 358.52 250.028L360.928 241.88H364.176L366.528 250.028C366.64 250.401 366.762 250.849 366.892 251.372C367.023 251.876 367.135 252.38 367.228 252.884C367.34 253.369 367.415 253.789 367.452 254.144H367.564C367.602 253.827 367.667 253.416 367.76 252.912C367.854 252.389 367.966 251.829 368.096 251.232C368.246 250.635 368.386 250.065 368.516 249.524L370.532 241.88H373.528L369.3 256.972H365.912L363.756 249.44ZM382.086 241.628C383.412 241.628 384.55 241.908 385.502 242.468C386.454 243.009 387.182 243.793 387.686 244.82C388.209 245.847 388.47 247.06 388.47 248.46V250.084H378.334C378.372 251.633 378.773 252.819 379.538 253.64C380.322 254.461 381.414 254.872 382.814 254.872C383.785 254.872 384.644 254.788 385.39 254.62C386.156 254.433 386.94 254.163 387.742 253.808V256.272C386.996 256.608 386.23 256.86 385.446 257.028C384.681 257.196 383.766 257.28 382.702 257.28C381.246 257.28 379.958 256.991 378.838 256.412C377.718 255.833 376.841 254.975 376.206 253.836C375.59 252.679 375.282 251.26 375.282 249.58C375.282 247.881 375.562 246.444 376.122 245.268C376.701 244.092 377.494 243.196 378.502 242.58C379.529 241.945 380.724 241.628 382.086 241.628ZM382.086 243.924C381.022 243.924 380.164 244.269 379.51 244.96C378.876 245.651 378.502 246.631 378.39 247.9H385.502C385.502 247.116 385.381 246.425 385.138 245.828C384.896 245.231 384.522 244.764 384.018 244.428C383.514 244.092 382.87 243.924 382.086 243.924ZM399.622 241.628C399.883 241.628 400.172 241.647 400.49 241.684C400.807 241.703 401.068 241.731 401.274 241.768L400.966 244.54C400.76 244.484 400.518 244.437 400.238 244.4C399.958 244.363 399.696 244.344 399.454 244.344C398.894 244.344 398.352 244.456 397.83 244.68C397.326 244.885 396.868 245.193 396.458 245.604C396.047 245.996 395.72 246.481 395.478 247.06C395.254 247.639 395.142 248.301 395.142 249.048V257H392.174V241.908H394.526L394.918 244.596H395.03C395.347 244.055 395.73 243.56 396.178 243.112C396.626 242.664 397.139 242.309 397.718 242.048C398.296 241.768 398.931 241.628 399.622 241.628ZM421.366 252.744C421.366 253.733 421.123 254.564 420.638 255.236C420.152 255.908 419.452 256.421 418.538 256.776C417.623 257.112 416.522 257.28 415.234 257.28C414.17 257.28 413.255 257.196 412.49 257.028C411.743 256.879 411.052 256.655 410.418 256.356V253.752C411.09 254.069 411.864 254.359 412.742 254.62C413.619 254.863 414.478 254.984 415.318 254.984C416.438 254.984 417.24 254.807 417.726 254.452C418.23 254.097 418.482 253.621 418.482 253.024C418.482 252.688 418.388 252.389 418.202 252.128C418.015 251.848 417.66 251.568 417.138 251.288C416.634 250.989 415.887 250.653 414.898 250.28C413.946 249.888 413.134 249.505 412.462 249.132C411.79 248.74 411.276 248.283 410.922 247.76C410.567 247.219 410.39 246.528 410.39 245.688C410.39 244.381 410.912 243.383 411.958 242.692C413.022 241.983 414.422 241.628 416.158 241.628C417.072 241.628 417.931 241.721 418.734 241.908C419.555 242.076 420.348 242.337 421.114 242.692L420.134 244.96C419.704 244.755 419.256 244.587 418.79 244.456C418.342 244.307 417.884 244.185 417.418 244.092C416.97 243.999 416.503 243.952 416.018 243.952C415.122 243.952 414.44 244.092 413.974 244.372C413.507 244.652 413.274 245.044 413.274 245.548C413.274 245.903 413.376 246.211 413.582 246.472C413.806 246.733 414.188 246.995 414.73 247.256C415.271 247.517 416.008 247.835 416.942 248.208C417.875 248.563 418.668 248.927 419.322 249.3C419.994 249.673 420.498 250.131 420.834 250.672C421.188 251.213 421.366 251.904 421.366 252.744ZM430.336 254.872C430.728 254.872 431.129 254.835 431.54 254.76C431.951 254.685 432.305 254.601 432.604 254.508V256.748C432.287 256.897 431.857 257.019 431.316 257.112C430.775 257.224 430.233 257.28 429.692 257.28C428.871 257.28 428.115 257.14 427.424 256.86C426.752 256.58 426.211 256.095 425.8 255.404C425.389 254.713 425.184 253.752 425.184 252.52V244.176H423.084V242.832L425.296 241.712L426.332 238.52H428.152V241.908H432.464V244.176H428.152V252.464C428.152 253.285 428.348 253.892 428.74 254.284C429.151 254.676 429.683 254.872 430.336 254.872ZM448.615 241.908V257H446.235L445.815 255.012H445.675C445.357 255.535 444.947 255.964 444.443 256.3C443.939 256.636 443.388 256.879 442.791 257.028C442.193 257.196 441.577 257.28 440.943 257.28C439.767 257.28 438.768 257.093 437.947 256.72C437.144 256.328 436.528 255.731 436.099 254.928C435.688 254.107 435.483 253.061 435.483 251.792V241.908H438.479V251.344C438.479 252.52 438.721 253.397 439.207 253.976C439.711 254.555 440.485 254.844 441.531 254.844C442.576 254.844 443.397 254.639 443.995 254.228C444.592 253.817 445.012 253.22 445.255 252.436C445.516 251.633 445.647 250.672 445.647 249.552V241.908H448.615ZM458.44 257.28C456.629 257.28 455.164 256.627 454.044 255.32C452.942 254.013 452.392 252.072 452.392 249.496C452.392 246.901 452.952 244.941 454.072 243.616C455.192 242.291 456.666 241.628 458.496 241.628C459.261 241.628 459.924 241.731 460.484 241.936C461.062 242.123 461.557 242.384 461.968 242.72C462.397 243.056 462.761 243.429 463.06 243.84H463.228C463.19 243.579 463.144 243.205 463.088 242.72C463.032 242.216 463.004 241.768 463.004 241.376V235.72H465.972V257H463.648L463.144 254.984H463.004C462.724 255.413 462.369 255.805 461.94 256.16C461.529 256.496 461.034 256.767 460.456 256.972C459.877 257.177 459.205 257.28 458.44 257.28ZM459.14 254.844C460.596 254.844 461.622 254.443 462.22 253.64C462.817 252.819 463.116 251.596 463.116 249.972V249.524C463.116 247.751 462.826 246.397 462.248 245.464C461.688 244.531 460.642 244.064 459.112 244.064C457.898 244.064 456.984 244.559 456.368 245.548C455.752 246.519 455.444 247.853 455.444 249.552C455.444 251.251 455.752 252.557 456.368 253.472C456.984 254.387 457.908 254.844 459.14 254.844ZM476.559 241.628C477.884 241.628 479.023 241.908 479.975 242.468C480.927 243.009 481.655 243.793 482.159 244.82C482.681 245.847 482.943 247.06 482.943 248.46V250.084H472.807C472.844 251.633 473.245 252.819 474.011 253.64C474.795 254.461 475.887 254.872 477.287 254.872C478.257 254.872 479.116 254.788 479.863 254.62C480.628 254.433 481.412 254.163 482.215 253.808V256.272C481.468 256.608 480.703 256.86 479.919 257.028C479.153 257.196 478.239 257.28 477.175 257.28C475.719 257.28 474.431 256.991 473.311 256.412C472.191 255.833 471.313 254.975 470.679 253.836C470.063 252.679 469.755 251.26 469.755 249.58C469.755 247.881 470.035 246.444 470.595 245.268C471.173 244.092 471.967 243.196 472.975 242.58C474.001 241.945 475.196 241.628 476.559 241.628ZM476.559 243.924C475.495 243.924 474.636 244.269 473.983 244.96C473.348 245.651 472.975 246.631 472.863 247.9H479.975C479.975 247.116 479.853 246.425 479.611 245.828C479.368 245.231 478.995 244.764 478.491 244.428C477.987 244.092 477.343 243.924 476.559 243.924ZM494.29 241.628C496.045 241.628 497.389 242.067 498.322 242.944C499.256 243.821 499.722 245.231 499.722 247.172V257H496.782V247.592C496.782 246.416 496.53 245.539 496.026 244.96C495.541 244.363 494.757 244.064 493.674 244.064C492.144 244.064 491.08 244.521 490.482 245.436C489.904 246.351 489.614 247.667 489.614 249.384V257H486.646V241.908H488.998L489.418 243.924H489.586C489.922 243.401 490.333 242.972 490.818 242.636C491.304 242.3 491.845 242.048 492.442 241.88C493.04 241.712 493.656 241.628 494.29 241.628ZM509.715 254.872C510.107 254.872 510.508 254.835 510.919 254.76C511.33 254.685 511.684 254.601 511.983 254.508V256.748C511.666 256.897 511.236 257.019 510.695 257.112C510.154 257.224 509.612 257.28 509.071 257.28C508.25 257.28 507.494 257.14 506.803 256.86C506.131 256.58 505.59 256.095 505.179 255.404C504.768 254.713 504.563 253.752 504.563 252.52V244.176H502.463V242.832L504.675 241.712L505.711 238.52H507.531V241.908H511.843V244.176H507.531V252.464C507.531 253.285 507.727 253.892 508.119 254.284C508.53 254.676 509.062 254.872 509.715 254.872ZM525.026 252.744C525.026 253.733 524.783 254.564 524.298 255.236C523.812 255.908 523.112 256.421 522.198 256.776C521.283 257.112 520.182 257.28 518.894 257.28C517.83 257.28 516.915 257.196 516.15 257.028C515.403 256.879 514.712 256.655 514.078 256.356V253.752C514.75 254.069 515.524 254.359 516.402 254.62C517.279 254.863 518.138 254.984 518.978 254.984C520.098 254.984 520.9 254.807 521.386 254.452C521.89 254.097 522.142 253.621 522.142 253.024C522.142 252.688 522.048 252.389 521.862 252.128C521.675 251.848 521.32 251.568 520.798 251.288C520.294 250.989 519.547 250.653 518.558 250.28C517.606 249.888 516.794 249.505 516.122 249.132C515.45 248.74 514.936 248.283 514.582 247.76C514.227 247.219 514.05 246.528 514.05 245.688C514.05 244.381 514.572 243.383 515.618 242.692C516.682 241.983 518.082 241.628 519.818 241.628C520.732 241.628 521.591 241.721 522.394 241.908C523.215 242.076 524.008 242.337 524.774 242.692L523.794 244.96C523.364 244.755 522.916 244.587 522.45 244.456C522.002 244.307 521.544 244.185 521.078 244.092C520.63 243.999 520.163 243.952 519.678 243.952C518.782 243.952 518.1 244.092 517.634 244.372C517.167 244.652 516.934 245.044 516.934 245.548C516.934 245.903 517.036 246.211 517.242 246.472C517.466 246.733 517.848 246.995 518.39 247.256C518.931 247.517 519.668 247.835 520.602 248.208C521.535 248.563 522.328 248.927 522.982 249.3C523.654 249.673 524.158 250.131 524.494 250.672C524.848 251.213 525.026 251.904 525.026 252.744ZM315.139 287.44C315.046 287.067 314.934 286.656 314.803 286.208C314.691 285.76 314.579 285.312 314.467 284.864C314.355 284.397 314.252 283.968 314.159 283.576C314.066 283.184 313.991 282.876 313.935 282.652H313.823C313.786 282.876 313.72 283.184 313.627 283.576C313.552 283.968 313.459 284.397 313.347 284.864C313.235 285.312 313.123 285.769 313.011 286.236C312.899 286.684 312.778 287.095 312.647 287.468L310.407 294.972H307.103L302.931 279.88H305.955L307.915 287.524C308.064 288.047 308.195 288.597 308.307 289.176C308.438 289.755 308.55 290.315 308.643 290.856C308.755 291.379 308.83 291.817 308.867 292.172H308.979C309.016 291.929 309.072 291.631 309.147 291.276C309.222 290.903 309.296 290.52 309.371 290.128C309.464 289.717 309.548 289.325 309.623 288.952C309.716 288.579 309.81 288.271 309.903 288.028L312.311 279.88H315.559L317.911 288.028C318.023 288.401 318.144 288.849 318.275 289.372C318.406 289.876 318.518 290.38 318.611 290.884C318.723 291.369 318.798 291.789 318.835 292.144H318.947C318.984 291.827 319.05 291.416 319.143 290.912C319.236 290.389 319.348 289.829 319.479 289.232C319.628 288.635 319.768 288.065 319.899 287.524L321.915 279.88H324.911L320.683 294.972H317.295L315.139 287.44ZM330.501 279.908V295H327.533V279.908H330.501ZM329.045 274.168C329.493 274.168 329.885 274.299 330.221 274.56C330.557 274.821 330.725 275.26 330.725 275.876C330.725 276.473 330.557 276.912 330.221 277.192C329.885 277.453 329.493 277.584 329.045 277.584C328.56 277.584 328.149 277.453 327.813 277.192C327.496 276.912 327.337 276.473 327.337 275.876C327.337 275.26 327.496 274.821 327.813 274.56C328.149 274.299 328.56 274.168 329.045 274.168ZM340.594 292.872C340.986 292.872 341.387 292.835 341.798 292.76C342.209 292.685 342.563 292.601 342.862 292.508V294.748C342.545 294.897 342.115 295.019 341.574 295.112C341.033 295.224 340.491 295.28 339.95 295.28C339.129 295.28 338.373 295.14 337.682 294.86C337.01 294.58 336.469 294.095 336.058 293.404C335.647 292.713 335.442 291.752 335.442 290.52V282.176H333.342V280.832L335.554 279.712L336.59 276.52H338.41V279.908H342.722V282.176H338.41V290.464C338.41 291.285 338.606 291.892 338.998 292.284C339.409 292.676 339.941 292.872 340.594 292.872ZM348.849 279.404C348.849 279.871 348.83 280.337 348.793 280.804C348.755 281.271 348.718 281.653 348.681 281.952H348.877C349.194 281.429 349.586 281 350.053 280.664C350.538 280.328 351.07 280.076 351.649 279.908C352.246 279.74 352.853 279.656 353.469 279.656C354.663 279.656 355.662 279.852 356.465 280.244C357.286 280.617 357.902 281.215 358.313 282.036C358.742 282.839 358.957 283.884 358.957 285.172V295H356.017V285.592C356.017 284.416 355.765 283.539 355.261 282.96C354.775 282.363 353.991 282.064 352.909 282.064C351.882 282.064 351.07 282.269 350.473 282.68C349.894 283.091 349.474 283.697 349.213 284.5C348.97 285.284 348.849 286.255 348.849 287.412V295H345.881V273.72H348.849V279.404ZM376.867 295.28C375.485 295.28 374.272 295.009 373.227 294.468C372.181 293.927 371.369 293.087 370.791 291.948C370.212 290.791 369.923 289.325 369.923 287.552C369.923 285.685 370.231 284.173 370.847 283.016C371.481 281.859 372.331 281.009 373.395 280.468C374.477 279.908 375.709 279.628 377.091 279.628C377.931 279.628 378.715 279.721 379.443 279.908C380.189 280.076 380.805 280.272 381.291 280.496L380.395 282.904C379.872 282.699 379.312 282.521 378.715 282.372C378.136 282.223 377.585 282.148 377.063 282.148C376.129 282.148 375.355 282.353 374.739 282.764C374.141 283.156 373.693 283.753 373.395 284.556C373.115 285.34 372.975 286.329 372.975 287.524C372.975 288.663 373.124 289.624 373.423 290.408C373.721 291.192 374.16 291.789 374.739 292.2C375.336 292.592 376.073 292.788 376.951 292.788C377.791 292.788 378.528 292.695 379.163 292.508C379.797 292.321 380.395 292.079 380.955 291.78V294.356C380.413 294.673 379.825 294.907 379.191 295.056C378.556 295.205 377.781 295.28 376.867 295.28ZM391.965 279.628C392.227 279.628 392.516 279.647 392.833 279.684C393.151 279.703 393.412 279.731 393.617 279.768L393.309 282.54C393.104 282.484 392.861 282.437 392.581 282.4C392.301 282.363 392.04 282.344 391.797 282.344C391.237 282.344 390.696 282.456 390.173 282.68C389.669 282.885 389.212 283.193 388.801 283.604C388.391 283.996 388.064 284.481 387.821 285.06C387.597 285.639 387.485 286.301 387.485 287.048V295H384.517V279.908H386.869L387.261 282.596H387.373C387.691 282.055 388.073 281.56 388.521 281.112C388.969 280.664 389.483 280.309 390.061 280.048C390.64 279.768 391.275 279.628 391.965 279.628ZM401.801 279.628C403.126 279.628 404.265 279.908 405.217 280.468C406.169 281.009 406.897 281.793 407.401 282.82C407.924 283.847 408.185 285.06 408.185 286.46V288.084H398.049C398.086 289.633 398.488 290.819 399.253 291.64C400.037 292.461 401.129 292.872 402.529 292.872C403.5 292.872 404.358 292.788 405.105 292.62C405.87 292.433 406.654 292.163 407.457 291.808V294.272C406.71 294.608 405.945 294.86 405.161 295.028C404.396 295.196 403.481 295.28 402.417 295.28C400.961 295.28 399.673 294.991 398.553 294.412C397.433 293.833 396.556 292.975 395.921 291.836C395.305 290.679 394.997 289.26 394.997 287.58C394.997 285.881 395.277 284.444 395.837 283.268C396.416 282.092 397.209 281.196 398.217 280.58C399.244 279.945 400.438 279.628 401.801 279.628ZM401.801 281.924C400.737 281.924 399.878 282.269 399.225 282.96C398.59 283.651 398.217 284.631 398.105 285.9H405.217C405.217 285.116 405.096 284.425 404.853 283.828C404.61 283.231 404.237 282.764 403.733 282.428C403.229 282.092 402.585 281.924 401.801 281.924ZM417.74 279.628C419.644 279.628 421.063 280.048 421.996 280.888C422.93 281.709 423.396 283.007 423.396 284.78V295H421.296L420.708 292.9H420.596C420.167 293.441 419.719 293.889 419.252 294.244C418.804 294.599 418.282 294.86 417.684 295.028C417.106 295.196 416.396 295.28 415.556 295.28C414.66 295.28 413.848 295.121 413.12 294.804C412.411 294.468 411.851 293.964 411.44 293.292C411.03 292.601 410.824 291.743 410.824 290.716C410.824 289.185 411.403 288.019 412.56 287.216C413.736 286.413 415.519 285.975 417.908 285.9L420.484 285.816V284.976C420.484 283.856 420.232 283.072 419.728 282.624C419.224 282.176 418.515 281.952 417.6 281.952C416.816 281.952 416.07 282.064 415.36 282.288C414.651 282.512 413.979 282.783 413.344 283.1L412.392 280.944C413.102 280.571 413.914 280.263 414.828 280.02C415.762 279.759 416.732 279.628 417.74 279.628ZM418.44 287.804C416.723 287.879 415.528 288.168 414.856 288.672C414.203 289.157 413.876 289.848 413.876 290.744C413.876 291.528 414.11 292.097 414.576 292.452C415.062 292.807 415.668 292.984 416.396 292.984C417.572 292.984 418.543 292.657 419.308 292.004C420.074 291.351 420.456 290.371 420.456 289.064V287.748L418.44 287.804ZM433.399 292.872C433.791 292.872 434.192 292.835 434.603 292.76C435.013 292.685 435.368 292.601 435.667 292.508V294.748C435.349 294.897 434.92 295.019 434.379 295.112C433.837 295.224 433.296 295.28 432.755 295.28C431.933 295.28 431.177 295.14 430.487 294.86C429.815 294.58 429.273 294.095 428.863 293.404C428.452 292.713 428.247 291.752 428.247 290.52V282.176H426.147V280.832L428.359 279.712L429.395 276.52H431.215V279.908H435.527V282.176H431.215V290.464C431.215 291.285 431.411 291.892 431.803 292.284C432.213 292.676 432.745 292.872 433.399 292.872ZM441.653 279.908V295H438.685V279.908H441.653ZM440.197 274.168C440.645 274.168 441.037 274.299 441.373 274.56C441.709 274.821 441.877 275.26 441.877 275.876C441.877 276.473 441.709 276.912 441.373 277.192C441.037 277.453 440.645 277.584 440.197 277.584C439.712 277.584 439.301 277.453 438.965 277.192C438.648 276.912 438.489 276.473 438.489 275.876C438.489 275.26 438.648 274.821 438.965 274.56C439.301 274.299 439.712 274.168 440.197 274.168ZM449.702 295L443.99 279.908H447.126L450.262 288.728C450.393 289.101 450.524 289.521 450.654 289.988C450.804 290.455 450.934 290.903 451.046 291.332C451.158 291.761 451.233 292.135 451.27 292.452H451.382C451.438 292.135 451.522 291.761 451.634 291.332C451.765 290.884 451.905 290.436 452.054 289.988C452.204 289.521 452.334 289.101 452.446 288.728L455.582 279.908H458.718L452.978 295H449.702ZM464.021 279.908V295H461.053V279.908H464.021ZM462.565 274.168C463.013 274.168 463.405 274.299 463.741 274.56C464.077 274.821 464.245 275.26 464.245 275.876C464.245 276.473 464.077 276.912 463.741 277.192C463.405 277.453 463.013 277.584 462.565 277.584C462.079 277.584 461.669 277.453 461.333 277.192C461.015 276.912 460.857 276.473 460.857 275.876C460.857 275.26 461.015 274.821 461.333 274.56C461.669 274.299 462.079 274.168 462.565 274.168ZM474.113 292.872C474.505 292.872 474.907 292.835 475.317 292.76C475.728 292.685 476.083 292.601 476.381 292.508V294.748C476.064 294.897 475.635 295.019 475.093 295.112C474.552 295.224 474.011 295.28 473.469 295.28C472.648 295.28 471.892 295.14 471.201 294.86C470.529 294.58 469.988 294.095 469.577 293.404C469.167 292.713 468.961 291.752 468.961 290.52V282.176H466.861V280.832L469.073 279.712L470.109 276.52H471.929V279.908H476.241V282.176H471.929V290.464C471.929 291.285 472.125 291.892 472.517 292.284C472.928 292.676 473.46 292.872 474.113 292.872ZM477.104 279.908H480.296L483.432 288.476C483.6 288.905 483.75 289.325 483.88 289.736C484.011 290.147 484.123 290.557 484.216 290.968C484.328 291.36 484.412 291.752 484.468 292.144H484.58C484.674 291.659 484.823 291.089 485.028 290.436C485.234 289.764 485.448 289.101 485.672 288.448L488.64 279.908H491.832L485.364 297.044C485.01 298.015 484.571 298.845 484.048 299.536C483.526 300.245 482.9 300.787 482.172 301.16C481.463 301.533 480.623 301.72 479.652 301.72C479.186 301.72 478.784 301.692 478.448 301.636C478.112 301.599 477.823 301.552 477.58 301.496V299.144C477.786 299.181 478.028 299.219 478.308 299.256C478.607 299.293 478.915 299.312 479.232 299.312C479.811 299.312 480.306 299.2 480.716 298.976C481.146 298.752 481.5 298.435 481.78 298.024C482.079 297.613 482.331 297.147 482.536 296.624L483.152 295L477.104 279.908ZM496.349 292.06C496.181 292.713 495.966 293.423 495.705 294.188C495.443 294.953 495.163 295.709 494.865 296.456C494.566 297.221 494.258 297.94 493.941 298.612H491.785C491.971 297.884 492.149 297.109 492.317 296.288C492.503 295.485 492.671 294.692 492.821 293.908C492.97 293.124 493.091 292.405 493.185 291.752H496.153L496.349 292.06ZM300.974 333.28C299.593 333.28 298.38 333.009 297.334 332.468C296.289 331.927 295.477 331.087 294.898 329.948C294.32 328.791 294.03 327.325 294.03 325.552C294.03 323.685 294.338 322.173 294.954 321.016C295.589 319.859 296.438 319.009 297.502 318.468C298.585 317.908 299.817 317.628 301.198 317.628C302.038 317.628 302.822 317.721 303.55 317.908C304.297 318.076 304.913 318.272 305.398 318.496L304.502 320.904C303.98 320.699 303.42 320.521 302.822 320.372C302.244 320.223 301.693 320.148 301.17 320.148C300.237 320.148 299.462 320.353 298.846 320.764C298.249 321.156 297.801 321.753 297.502 322.556C297.222 323.34 297.082 324.329 297.082 325.524C297.082 326.663 297.232 327.624 297.53 328.408C297.829 329.192 298.268 329.789 298.846 330.2C299.444 330.592 300.181 330.788 301.058 330.788C301.898 330.788 302.636 330.695 303.27 330.508C303.905 330.321 304.502 330.079 305.062 329.78V332.356C304.521 332.673 303.933 332.907 303.298 333.056C302.664 333.205 301.889 333.28 300.974 333.28ZM316.073 317.628C316.334 317.628 316.623 317.647 316.941 317.684C317.258 317.703 317.519 317.731 317.725 317.768L317.417 320.54C317.211 320.484 316.969 320.437 316.689 320.4C316.409 320.363 316.147 320.344 315.905 320.344C315.345 320.344 314.803 320.456 314.281 320.68C313.777 320.885 313.319 321.193 312.909 321.604C312.498 321.996 312.171 322.481 311.929 323.06C311.705 323.639 311.593 324.301 311.593 325.048V333H308.625V317.908H310.977L311.369 320.596H311.481C311.798 320.055 312.181 319.56 312.629 319.112C313.077 318.664 313.59 318.309 314.169 318.048C314.747 317.768 315.382 317.628 316.073 317.628ZM323.487 317.908V333H320.519V317.908H323.487ZM322.031 312.168C322.479 312.168 322.871 312.299 323.207 312.56C323.543 312.821 323.711 313.26 323.711 313.876C323.711 314.473 323.543 314.912 323.207 315.192C322.871 315.453 322.479 315.584 322.031 315.584C321.546 315.584 321.135 315.453 320.799 315.192C320.482 314.912 320.323 314.473 320.323 313.876C320.323 313.26 320.482 312.821 320.799 312.56C321.135 312.299 321.546 312.168 322.031 312.168ZM333.58 330.872C333.972 330.872 334.374 330.835 334.784 330.76C335.195 330.685 335.55 330.601 335.848 330.508V332.748C335.531 332.897 335.102 333.019 334.56 333.112C334.019 333.224 333.478 333.28 332.936 333.28C332.115 333.28 331.359 333.14 330.668 332.86C329.996 332.58 329.455 332.095 329.044 331.404C328.634 330.713 328.428 329.752 328.428 328.52V320.176H326.328V318.832L328.54 317.712L329.576 314.52H331.396V317.908H335.708V320.176H331.396V328.464C331.396 329.285 331.592 329.892 331.984 330.284C332.395 330.676 332.927 330.872 333.58 330.872ZM341.835 317.908V333H338.867V317.908H341.835ZM340.379 312.168C340.827 312.168 341.219 312.299 341.555 312.56C341.891 312.821 342.059 313.26 342.059 313.876C342.059 314.473 341.891 314.912 341.555 315.192C341.219 315.453 340.827 315.584 340.379 315.584C339.894 315.584 339.483 315.453 339.147 315.192C338.83 314.912 338.671 314.473 338.671 313.876C338.671 313.26 338.83 312.821 339.147 312.56C339.483 312.299 339.894 312.168 340.379 312.168ZM352.572 333.28C351.191 333.28 349.977 333.009 348.932 332.468C347.887 331.927 347.075 331.087 346.496 329.948C345.917 328.791 345.628 327.325 345.628 325.552C345.628 323.685 345.936 322.173 346.552 321.016C347.187 319.859 348.036 319.009 349.1 318.468C350.183 317.908 351.415 317.628 352.796 317.628C353.636 317.628 354.42 317.721 355.148 317.908C355.895 318.076 356.511 318.272 356.996 318.496L356.1 320.904C355.577 320.699 355.017 320.521 354.42 320.372C353.841 320.223 353.291 320.148 352.768 320.148C351.835 320.148 351.06 320.353 350.444 320.764C349.847 321.156 349.399 321.753 349.1 322.556C348.82 323.34 348.68 324.329 348.68 325.524C348.68 326.663 348.829 327.624 349.128 328.408C349.427 329.192 349.865 329.789 350.444 330.2C351.041 330.592 351.779 330.788 352.656 330.788C353.496 330.788 354.233 330.695 354.868 330.508C355.503 330.321 356.1 330.079 356.66 329.78V332.356C356.119 332.673 355.531 332.907 354.896 333.056C354.261 333.205 353.487 333.28 352.572 333.28ZM366.074 317.628C367.978 317.628 369.397 318.048 370.33 318.888C371.264 319.709 371.73 321.007 371.73 322.78V333H369.63L369.042 330.9H368.93C368.501 331.441 368.053 331.889 367.586 332.244C367.138 332.599 366.616 332.86 366.018 333.028C365.44 333.196 364.73 333.28 363.89 333.28C362.994 333.28 362.182 333.121 361.454 332.804C360.745 332.468 360.185 331.964 359.774 331.292C359.364 330.601 359.158 329.743 359.158 328.716C359.158 327.185 359.737 326.019 360.894 325.216C362.07 324.413 363.853 323.975 366.242 323.9L368.818 323.816V322.976C368.818 321.856 368.566 321.072 368.062 320.624C367.558 320.176 366.849 319.952 365.934 319.952C365.15 319.952 364.404 320.064 363.694 320.288C362.985 320.512 362.313 320.783 361.678 321.1L360.726 318.944C361.436 318.571 362.248 318.263 363.162 318.02C364.096 317.759 365.066 317.628 366.074 317.628ZM366.774 325.804C365.057 325.879 363.862 326.168 363.19 326.672C362.537 327.157 362.21 327.848 362.21 328.744C362.21 329.528 362.444 330.097 362.91 330.452C363.396 330.807 364.002 330.984 364.73 330.984C365.906 330.984 366.877 330.657 367.642 330.004C368.408 329.351 368.79 328.371 368.79 327.064V325.748L366.774 325.804ZM379.269 333H376.301V311.72H379.269V333ZM396.635 330.872C397.027 330.872 397.428 330.835 397.839 330.76C398.25 330.685 398.604 330.601 398.903 330.508V332.748C398.586 332.897 398.156 333.019 397.615 333.112C397.074 333.224 396.532 333.28 395.991 333.28C395.17 333.28 394.414 333.14 393.723 332.86C393.051 332.58 392.51 332.095 392.099 331.404C391.688 330.713 391.483 329.752 391.483 328.52V320.176H389.383V318.832L391.595 317.712L392.631 314.52H394.451V317.908H398.763V320.176H394.451V328.464C394.451 329.285 394.647 329.892 395.039 330.284C395.45 330.676 395.982 330.872 396.635 330.872ZM404.89 317.404C404.89 317.871 404.871 318.337 404.834 318.804C404.796 319.271 404.759 319.653 404.722 319.952H404.918C405.235 319.429 405.627 319 406.094 318.664C406.579 318.328 407.111 318.076 407.69 317.908C408.287 317.74 408.894 317.656 409.51 317.656C410.704 317.656 411.703 317.852 412.506 318.244C413.327 318.617 413.943 319.215 414.354 320.036C414.783 320.839 414.998 321.884 414.998 323.172V333H412.058V323.592C412.058 322.416 411.806 321.539 411.302 320.96C410.816 320.363 410.032 320.064 408.95 320.064C407.923 320.064 407.111 320.269 406.514 320.68C405.935 321.091 405.515 321.697 405.254 322.5C405.011 323.284 404.89 324.255 404.89 325.412V333H401.922V311.72H404.89V317.404ZM422.526 317.908V333H419.558V317.908H422.526ZM421.07 312.168C421.518 312.168 421.91 312.299 422.246 312.56C422.582 312.821 422.75 313.26 422.75 313.876C422.75 314.473 422.582 314.912 422.246 315.192C421.91 315.453 421.518 315.584 421.07 315.584C420.585 315.584 420.174 315.453 419.838 315.192C419.521 314.912 419.362 314.473 419.362 313.876C419.362 313.26 419.521 312.821 419.838 312.56C420.174 312.299 420.585 312.168 421.07 312.168ZM434.831 317.628C436.586 317.628 437.93 318.067 438.863 318.944C439.797 319.821 440.263 321.231 440.263 323.172V333H437.323V323.592C437.323 322.416 437.071 321.539 436.567 320.96C436.082 320.363 435.298 320.064 434.215 320.064C432.685 320.064 431.621 320.521 431.023 321.436C430.445 322.351 430.155 323.667 430.155 325.384V333H427.187V317.908H429.539L429.959 319.924H430.127C430.463 319.401 430.874 318.972 431.359 318.636C431.845 318.3 432.386 318.048 432.983 317.88C433.581 317.712 434.197 317.628 434.831 317.628ZM447.764 322.36C447.764 322.752 447.745 323.2 447.708 323.704C447.689 324.208 447.661 324.675 447.624 325.104H447.708C447.857 324.917 448.035 324.693 448.24 324.432C448.464 324.152 448.688 323.872 448.912 323.592C449.136 323.312 449.341 323.069 449.528 322.864L454.148 317.908H457.592L451.516 324.376L457.984 333H454.484L449.5 326.252L447.764 327.708V333H444.824V311.72H447.764V322.36ZM463.433 317.908V333H460.465V317.908H463.433ZM461.977 312.168C462.425 312.168 462.817 312.299 463.153 312.56C463.489 312.821 463.657 313.26 463.657 313.876C463.657 314.473 463.489 314.912 463.153 315.192C462.817 315.453 462.425 315.584 461.977 315.584C461.491 315.584 461.081 315.453 460.745 315.192C460.427 314.912 460.269 314.473 460.269 313.876C460.269 313.26 460.427 312.821 460.745 312.56C461.081 312.299 461.491 312.168 461.977 312.168ZM475.738 317.628C477.492 317.628 478.836 318.067 479.77 318.944C480.703 319.821 481.17 321.231 481.17 323.172V333H478.23V323.592C478.23 322.416 477.978 321.539 477.474 320.96C476.988 320.363 476.204 320.064 475.122 320.064C473.591 320.064 472.527 320.521 471.93 321.436C471.351 322.351 471.062 323.667 471.062 325.384V333H468.094V317.908H470.446L470.866 319.924H471.034C471.37 319.401 471.78 318.972 472.266 318.636C472.751 318.3 473.292 318.048 473.89 317.88C474.487 317.712 475.103 317.628 475.738 317.628ZM490.938 317.628C491.909 317.628 492.786 317.815 493.57 318.188C494.354 318.561 495.017 319.131 495.558 319.896H495.698L496.034 317.908H498.442V333.196C498.442 334.615 498.19 335.809 497.686 336.78C497.182 337.751 496.408 338.479 495.362 338.964C494.336 339.468 493.038 339.72 491.47 339.72C490.388 339.72 489.389 339.645 488.474 339.496C487.56 339.347 486.72 339.113 485.954 338.796V336.192C486.496 336.453 487.065 336.668 487.662 336.836C488.26 337.023 488.894 337.153 489.566 337.228C490.238 337.321 490.929 337.368 491.638 337.368C492.87 337.368 493.822 337.013 494.494 336.304C495.166 335.613 495.502 334.633 495.502 333.364V332.86C495.502 332.617 495.512 332.3 495.53 331.908C495.549 331.497 495.568 331.199 495.586 331.012H495.474C494.952 331.796 494.308 332.375 493.542 332.748C492.796 333.103 491.928 333.28 490.938 333.28C489.034 333.28 487.541 332.599 486.458 331.236C485.394 329.855 484.862 327.941 484.862 325.496C484.862 323.853 485.105 322.453 485.59 321.296C486.076 320.12 486.766 319.215 487.662 318.58C488.577 317.945 489.669 317.628 490.938 317.628ZM491.554 320.092C490.77 320.092 490.108 320.307 489.566 320.736C489.025 321.147 488.614 321.753 488.334 322.556C488.054 323.359 487.914 324.348 487.914 325.524C487.914 327.279 488.222 328.613 488.838 329.528C489.473 330.443 490.397 330.9 491.61 330.9C492.32 330.9 492.917 330.807 493.402 330.62C493.906 330.433 494.317 330.144 494.634 329.752C494.97 329.36 495.213 328.865 495.362 328.268C495.53 327.652 495.614 326.915 495.614 326.056V325.496C495.614 324.208 495.465 323.172 495.166 322.388C494.886 321.585 494.448 321.007 493.85 320.652C493.253 320.279 492.488 320.092 491.554 320.092ZM506.398 330.06C506.23 330.713 506.015 331.423 505.754 332.188C505.492 332.953 505.212 333.709 504.914 334.456C504.615 335.221 504.307 335.94 503.99 336.612H501.834C502.02 335.884 502.198 335.109 502.366 334.288C502.552 333.485 502.72 332.692 502.87 331.908C503.019 331.124 503.14 330.405 503.234 329.752H506.202L506.398 330.06ZM321.395 355.628C323.299 355.628 324.717 356.048 325.651 356.888C326.584 357.709 327.051 359.007 327.051 360.78V371H324.951L324.363 368.9H324.251C323.821 369.441 323.373 369.889 322.907 370.244C322.459 370.599 321.936 370.86 321.339 371.028C320.76 371.196 320.051 371.28 319.211 371.28C318.315 371.28 317.503 371.121 316.775 370.804C316.065 370.468 315.505 369.964 315.095 369.292C314.684 368.601 314.479 367.743 314.479 366.716C314.479 365.185 315.057 364.019 316.215 363.216C317.391 362.413 319.173 361.975 321.563 361.9L324.139 361.816V360.976C324.139 359.856 323.887 359.072 323.383 358.624C322.879 358.176 322.169 357.952 321.255 357.952C320.471 357.952 319.724 358.064 319.015 358.288C318.305 358.512 317.633 358.783 316.999 359.1L316.047 356.944C316.756 356.571 317.568 356.263 318.483 356.02C319.416 355.759 320.387 355.628 321.395 355.628ZM322.095 363.804C320.377 363.879 319.183 364.168 318.511 364.672C317.857 365.157 317.531 365.848 317.531 366.744C317.531 367.528 317.764 368.097 318.231 368.452C318.716 368.807 319.323 368.984 320.051 368.984C321.227 368.984 322.197 368.657 322.963 368.004C323.728 367.351 324.111 366.371 324.111 365.064V363.748L322.095 363.804ZM339.265 355.628C341.02 355.628 342.364 356.067 343.297 356.944C344.23 357.821 344.697 359.231 344.697 361.172V371H341.757V361.592C341.757 360.416 341.505 359.539 341.001 358.96C340.516 358.363 339.732 358.064 338.649 358.064C337.118 358.064 336.054 358.521 335.457 359.436C334.878 360.351 334.589 361.667 334.589 363.384V371H331.621V355.908H333.973L334.393 357.924H334.561C334.897 357.401 335.308 356.972 335.793 356.636C336.278 356.3 336.82 356.048 337.417 355.88C338.014 355.712 338.63 355.628 339.265 355.628ZM354.438 371.28C352.627 371.28 351.162 370.627 350.042 369.32C348.94 368.013 348.39 366.072 348.39 363.496C348.39 360.901 348.95 358.941 350.07 357.616C351.19 356.291 352.664 355.628 354.494 355.628C355.259 355.628 355.922 355.731 356.482 355.936C357.06 356.123 357.555 356.384 357.966 356.72C358.395 357.056 358.759 357.429 359.058 357.84H359.226C359.188 357.579 359.142 357.205 359.086 356.72C359.03 356.216 359.002 355.768 359.002 355.376V349.72H361.97V371H359.646L359.142 368.984H359.002C358.722 369.413 358.367 369.805 357.938 370.16C357.527 370.496 357.032 370.767 356.454 370.972C355.875 371.177 355.203 371.28 354.438 371.28ZM355.138 368.844C356.594 368.844 357.62 368.443 358.218 367.64C358.815 366.819 359.114 365.596 359.114 363.972V363.524C359.114 361.751 358.824 360.397 358.246 359.464C357.686 358.531 356.64 358.064 355.11 358.064C353.896 358.064 352.982 358.559 352.366 359.548C351.75 360.519 351.442 361.853 351.442 363.552C351.442 365.251 351.75 366.557 352.366 367.472C352.982 368.387 353.906 368.844 355.138 368.844ZM376.862 355.908V371H373.894V355.908H376.862ZM375.406 350.168C375.854 350.168 376.246 350.299 376.582 350.56C376.918 350.821 377.086 351.26 377.086 351.876C377.086 352.473 376.918 352.912 376.582 353.192C376.246 353.453 375.854 353.584 375.406 353.584C374.921 353.584 374.51 353.453 374.174 353.192C373.857 352.912 373.698 352.473 373.698 351.876C373.698 351.26 373.857 350.821 374.174 350.56C374.51 350.299 374.921 350.168 375.406 350.168ZM389.167 355.628C390.922 355.628 392.266 356.067 393.199 356.944C394.133 357.821 394.599 359.231 394.599 361.172V371H391.659V361.592C391.659 360.416 391.407 359.539 390.903 358.96C390.418 358.363 389.634 358.064 388.551 358.064C387.021 358.064 385.957 358.521 385.359 359.436C384.781 360.351 384.491 361.667 384.491 363.384V371H381.523V355.908H383.875L384.295 357.924H384.463C384.799 357.401 385.21 356.972 385.695 356.636C386.181 356.3 386.722 356.048 387.319 355.88C387.917 355.712 388.533 355.628 389.167 355.628ZM405.236 371.28C403.855 371.28 402.641 371.009 401.596 370.468C400.551 369.927 399.739 369.087 399.16 367.948C398.581 366.791 398.292 365.325 398.292 363.552C398.292 361.685 398.6 360.173 399.216 359.016C399.851 357.859 400.7 357.009 401.764 356.468C402.847 355.908 404.079 355.628 405.46 355.628C406.3 355.628 407.084 355.721 407.812 355.908C408.559 356.076 409.175 356.272 409.66 356.496L408.764 358.904C408.241 358.699 407.681 358.521 407.084 358.372C406.505 358.223 405.955 358.148 405.432 358.148C404.499 358.148 403.724 358.353 403.108 358.764C402.511 359.156 402.063 359.753 401.764 360.556C401.484 361.34 401.344 362.329 401.344 363.524C401.344 364.663 401.493 365.624 401.792 366.408C402.091 367.192 402.529 367.789 403.108 368.2C403.705 368.592 404.443 368.788 405.32 368.788C406.16 368.788 406.897 368.695 407.532 368.508C408.167 368.321 408.764 368.079 409.324 367.78V370.356C408.783 370.673 408.195 370.907 407.56 371.056C406.925 371.205 406.151 371.28 405.236 371.28ZM415.855 371H412.887V349.72H415.855V371ZM433.507 355.908V371H431.127L430.707 369.012H430.567C430.25 369.535 429.839 369.964 429.335 370.3C428.831 370.636 428.281 370.879 427.683 371.028C427.086 371.196 426.47 371.28 425.835 371.28C424.659 371.28 423.661 371.093 422.839 370.72C422.037 370.328 421.421 369.731 420.991 368.928C420.581 368.107 420.375 367.061 420.375 365.792V355.908H423.371V365.344C423.371 366.52 423.614 367.397 424.099 367.976C424.603 368.555 425.378 368.844 426.423 368.844C427.469 368.844 428.29 368.639 428.887 368.228C429.485 367.817 429.905 367.22 430.147 366.436C430.409 365.633 430.539 364.672 430.539 363.552V355.908H433.507ZM448.176 366.744C448.176 367.733 447.933 368.564 447.448 369.236C446.963 369.908 446.263 370.421 445.348 370.776C444.433 371.112 443.332 371.28 442.044 371.28C440.98 371.28 440.065 371.196 439.3 371.028C438.553 370.879 437.863 370.655 437.228 370.356V367.752C437.9 368.069 438.675 368.359 439.552 368.62C440.429 368.863 441.288 368.984 442.128 368.984C443.248 368.984 444.051 368.807 444.536 368.452C445.04 368.097 445.292 367.621 445.292 367.024C445.292 366.688 445.199 366.389 445.012 366.128C444.825 365.848 444.471 365.568 443.948 365.288C443.444 364.989 442.697 364.653 441.708 364.28C440.756 363.888 439.944 363.505 439.272 363.132C438.6 362.74 438.087 362.283 437.732 361.76C437.377 361.219 437.2 360.528 437.2 359.688C437.2 358.381 437.723 357.383 438.768 356.692C439.832 355.983 441.232 355.628 442.968 355.628C443.883 355.628 444.741 355.721 445.544 355.908C446.365 356.076 447.159 356.337 447.924 356.692L446.944 358.96C446.515 358.755 446.067 358.587 445.6 358.456C445.152 358.307 444.695 358.185 444.228 358.092C443.78 357.999 443.313 357.952 442.828 357.952C441.932 357.952 441.251 358.092 440.784 358.372C440.317 358.652 440.084 359.044 440.084 359.548C440.084 359.903 440.187 360.211 440.392 360.472C440.616 360.733 440.999 360.995 441.54 361.256C442.081 361.517 442.819 361.835 443.752 362.208C444.685 362.563 445.479 362.927 446.132 363.3C446.804 363.673 447.308 364.131 447.644 364.672C447.999 365.213 448.176 365.904 448.176 366.744ZM454.683 355.908V371H451.715V355.908H454.683ZM453.227 350.168C453.675 350.168 454.067 350.299 454.403 350.56C454.739 350.821 454.907 351.26 454.907 351.876C454.907 352.473 454.739 352.912 454.403 353.192C454.067 353.453 453.675 353.584 453.227 353.584C452.741 353.584 452.331 353.453 451.995 353.192C451.677 352.912 451.519 352.473 451.519 351.876C451.519 351.26 451.677 350.821 451.995 350.56C452.331 350.299 452.741 350.168 453.227 350.168ZM462.732 371L457.02 355.908H460.156L463.292 364.728C463.422 365.101 463.553 365.521 463.684 365.988C463.833 366.455 463.964 366.903 464.076 367.332C464.188 367.761 464.262 368.135 464.3 368.452H464.412C464.468 368.135 464.552 367.761 464.664 367.332C464.794 366.884 464.934 366.436 465.084 365.988C465.233 365.521 465.364 365.101 465.476 364.728L468.612 355.908H471.748L466.008 371H462.732ZM480.018 355.628C481.343 355.628 482.482 355.908 483.434 356.468C484.386 357.009 485.114 357.793 485.618 358.82C486.14 359.847 486.402 361.06 486.402 362.46V364.084H476.266C476.303 365.633 476.704 366.819 477.47 367.64C478.254 368.461 479.346 368.872 480.746 368.872C481.716 368.872 482.575 368.788 483.322 368.62C484.087 368.433 484.871 368.163 485.674 367.808V370.272C484.927 370.608 484.162 370.86 483.378 371.028C482.612 371.196 481.698 371.28 480.634 371.28C479.178 371.28 477.89 370.991 476.77 370.412C475.65 369.833 474.772 368.975 474.138 367.836C473.522 366.679 473.214 365.26 473.214 363.58C473.214 361.881 473.494 360.444 474.054 359.268C474.632 358.092 475.426 357.196 476.434 356.58C477.46 355.945 478.655 355.628 480.018 355.628ZM480.018 357.924C478.954 357.924 478.095 358.269 477.442 358.96C476.807 359.651 476.434 360.631 476.322 361.9H483.434C483.434 361.116 483.312 360.425 483.07 359.828C482.827 359.231 482.454 358.764 481.95 358.428C481.446 358.092 480.802 357.924 480.018 357.924ZM349.847 409H346.879V387.72H349.847V409ZM360.444 393.628C361.769 393.628 362.908 393.908 363.86 394.468C364.812 395.009 365.54 395.793 366.044 396.82C366.566 397.847 366.828 399.06 366.828 400.46V402.084H356.692C356.729 403.633 357.13 404.819 357.896 405.64C358.68 406.461 359.772 406.872 361.172 406.872C362.142 406.872 363.001 406.788 363.748 406.62C364.513 406.433 365.297 406.163 366.1 405.808V408.272C365.353 408.608 364.588 408.86 363.804 409.028C363.038 409.196 362.124 409.28 361.06 409.28C359.604 409.28 358.316 408.991 357.196 408.412C356.076 407.833 355.198 406.975 354.564 405.836C353.948 404.679 353.64 403.26 353.64 401.58C353.64 399.881 353.92 398.444 354.48 397.268C355.058 396.092 355.852 395.196 356.86 394.58C357.886 393.945 359.081 393.628 360.444 393.628ZM360.444 395.924C359.38 395.924 358.521 396.269 357.868 396.96C357.233 397.651 356.86 398.631 356.748 399.9H363.86C363.86 399.116 363.738 398.425 363.496 397.828C363.253 397.231 362.88 396.764 362.376 396.428C361.872 396.092 361.228 395.924 360.444 395.924ZM376.383 393.628C378.287 393.628 379.706 394.048 380.639 394.888C381.572 395.709 382.039 397.007 382.039 398.78V409H379.939L379.351 406.9H379.239C378.81 407.441 378.362 407.889 377.895 408.244C377.447 408.599 376.924 408.86 376.327 409.028C375.748 409.196 375.039 409.28 374.199 409.28C373.303 409.28 372.491 409.121 371.763 408.804C371.054 408.468 370.494 407.964 370.083 407.292C369.672 406.601 369.467 405.743 369.467 404.716C369.467 403.185 370.046 402.019 371.203 401.216C372.379 400.413 374.162 399.975 376.551 399.9L379.127 399.816V398.976C379.127 397.856 378.875 397.072 378.371 396.624C377.867 396.176 377.158 395.952 376.243 395.952C375.459 395.952 374.712 396.064 374.003 396.288C373.294 396.512 372.622 396.783 371.987 397.1L371.035 394.944C371.744 394.571 372.556 394.263 373.471 394.02C374.404 393.759 375.375 393.628 376.383 393.628ZM377.083 401.804C375.366 401.879 374.171 402.168 373.499 402.672C372.846 403.157 372.519 403.848 372.519 404.744C372.519 405.528 372.752 406.097 373.219 406.452C373.704 406.807 374.311 406.984 375.039 406.984C376.215 406.984 377.186 406.657 377.951 406.004C378.716 405.351 379.099 404.371 379.099 403.064V401.748L377.083 401.804ZM394.057 393.628C394.318 393.628 394.608 393.647 394.925 393.684C395.242 393.703 395.504 393.731 395.709 393.768L395.401 396.54C395.196 396.484 394.953 396.437 394.673 396.4C394.393 396.363 394.132 396.344 393.889 396.344C393.329 396.344 392.788 396.456 392.265 396.68C391.761 396.885 391.304 397.193 390.893 397.604C390.482 397.996 390.156 398.481 389.913 399.06C389.689 399.639 389.577 400.301 389.577 401.048V409H386.609V393.908H388.961L389.353 396.596H389.465C389.782 396.055 390.165 395.56 390.613 395.112C391.061 394.664 391.574 394.309 392.153 394.048C392.732 393.768 393.366 393.628 394.057 393.628ZM406.148 393.628C407.902 393.628 409.246 394.067 410.18 394.944C411.113 395.821 411.58 397.231 411.58 399.172V409H408.64V399.592C408.64 398.416 408.388 397.539 407.884 396.96C407.398 396.363 406.614 396.064 405.532 396.064C404.001 396.064 402.937 396.521 402.34 397.436C401.761 398.351 401.472 399.667 401.472 401.384V409H398.504V393.908H400.856L401.276 395.924H401.444C401.78 395.401 402.19 394.972 402.676 394.636C403.161 394.3 403.702 394.048 404.3 393.88C404.897 393.712 405.513 393.628 406.148 393.628ZM419.108 393.908V409H416.14V393.908H419.108ZM417.652 388.168C418.1 388.168 418.492 388.299 418.828 388.56C419.164 388.821 419.332 389.26 419.332 389.876C419.332 390.473 419.164 390.912 418.828 391.192C418.492 391.453 418.1 391.584 417.652 391.584C417.167 391.584 416.756 391.453 416.42 391.192C416.103 390.912 415.944 390.473 415.944 389.876C415.944 389.26 416.103 388.821 416.42 388.56C416.756 388.299 417.167 388.168 417.652 388.168ZM431.413 393.628C433.168 393.628 434.512 394.067 435.445 394.944C436.379 395.821 436.845 397.231 436.845 399.172V409H433.905V399.592C433.905 398.416 433.653 397.539 433.149 396.96C432.664 396.363 431.88 396.064 430.797 396.064C429.267 396.064 428.203 396.521 427.605 397.436C427.027 398.351 426.737 399.667 426.737 401.384V409H423.769V393.908H426.121L426.541 395.924H426.709C427.045 395.401 427.456 394.972 427.941 394.636C428.427 394.3 428.968 394.048 429.565 393.88C430.163 393.712 430.779 393.628 431.413 393.628ZM446.614 393.628C447.585 393.628 448.462 393.815 449.246 394.188C450.03 394.561 450.693 395.131 451.234 395.896H451.374L451.71 393.908H454.118V409.196C454.118 410.615 453.866 411.809 453.362 412.78C452.858 413.751 452.083 414.479 451.038 414.964C450.011 415.468 448.714 415.72 447.146 415.72C446.063 415.72 445.065 415.645 444.15 415.496C443.235 415.347 442.395 415.113 441.63 414.796V412.192C442.171 412.453 442.741 412.668 443.338 412.836C443.935 413.023 444.57 413.153 445.242 413.228C445.914 413.321 446.605 413.368 447.314 413.368C448.546 413.368 449.498 413.013 450.17 412.304C450.842 411.613 451.178 410.633 451.178 409.364V408.86C451.178 408.617 451.187 408.3 451.206 407.908C451.225 407.497 451.243 407.199 451.262 407.012H451.15C450.627 407.796 449.983 408.375 449.218 408.748C448.471 409.103 447.603 409.28 446.614 409.28C444.71 409.28 443.217 408.599 442.134 407.236C441.07 405.855 440.538 403.941 440.538 401.496C440.538 399.853 440.781 398.453 441.266 397.296C441.751 396.12 442.442 395.215 443.338 394.58C444.253 393.945 445.345 393.628 446.614 393.628ZM447.23 396.092C446.446 396.092 445.783 396.307 445.242 396.736C444.701 397.147 444.29 397.753 444.01 398.556C443.73 399.359 443.59 400.348 443.59 401.524C443.59 403.279 443.898 404.613 444.514 405.528C445.149 406.443 446.073 406.9 447.286 406.9C447.995 406.9 448.593 406.807 449.078 406.62C449.582 406.433 449.993 406.144 450.31 405.752C450.646 405.36 450.889 404.865 451.038 404.268C451.206 403.652 451.29 402.915 451.29 402.056V401.496C451.29 400.208 451.141 399.172 450.842 398.388C450.562 397.585 450.123 397.007 449.526 396.652C448.929 396.279 448.163 396.092 447.23 396.092Z" fill="white"/>
<path d="M49.8693 317H45.0533L39.8173 308.572L38.0253 309.86V317H33.7973V297.008H38.0253V306.164C38.3053 305.772 38.5853 305.38 38.8653 304.988C39.1453 304.596 39.4253 304.204 39.7053 303.812L45.1093 297.008H49.8133L42.8413 305.856L49.8693 317ZM58.3271 301.404C60.3804 301.404 61.9484 301.852 63.0311 302.748C64.1324 303.625 64.6831 304.979 64.6831 306.808V317H61.7711L60.9591 314.928H60.8471C60.4178 315.469 59.9698 315.917 59.5031 316.272C59.0551 316.627 58.5324 316.879 57.9351 317.028C57.3564 317.196 56.6378 317.28 55.7791 317.28C54.8831 317.28 54.0711 317.112 53.3431 316.776C52.6338 316.421 52.0738 315.889 51.6631 315.18C51.2524 314.452 51.0471 313.537 51.0471 312.436C51.0471 310.812 51.6164 309.617 52.7551 308.852C53.8938 308.068 55.6018 307.639 57.8791 307.564L60.5391 307.48V306.808C60.5391 306.005 60.3244 305.417 59.8951 305.044C59.4844 304.671 58.9058 304.484 58.1591 304.484C57.4124 304.484 56.6844 304.596 55.9751 304.82C55.2658 305.025 54.5564 305.287 53.8471 305.604L52.4751 302.776C53.2964 302.347 54.2018 302.011 55.1911 301.768C56.1991 301.525 57.2444 301.404 58.3271 301.404ZM58.9151 309.972C57.5711 310.009 56.6378 310.252 56.1151 310.7C55.5924 311.148 55.3311 311.736 55.3311 312.464C55.3311 313.099 55.5178 313.556 55.8911 313.836C56.2644 314.097 56.7498 314.228 57.3471 314.228C58.2431 314.228 58.9991 313.967 59.6151 313.444C60.2311 312.903 60.5391 312.147 60.5391 311.176V309.916L58.9151 309.972ZM75.3935 313.948C75.8602 313.948 76.3082 313.901 76.7375 313.808C77.1669 313.715 77.5962 313.603 78.0255 313.472V316.58C77.5775 316.767 77.0175 316.925 76.3455 317.056C75.6922 317.205 74.9735 317.28 74.1895 317.28C73.2749 317.28 72.4535 317.131 71.7255 316.832C71.0162 316.533 70.4469 316.02 70.0175 315.292C69.6069 314.545 69.4015 313.519 69.4015 312.212V304.848H67.4135V303.084L69.7095 301.684L70.9135 298.464H73.5735V301.712H77.8575V304.848H73.5735V312.212C73.5735 312.791 73.7415 313.229 74.0775 313.528C74.4135 313.808 74.8522 313.948 75.3935 313.948ZM87.3942 301.432C88.8128 301.432 90.0262 301.703 91.0342 302.244C92.0608 302.785 92.8542 303.569 93.4142 304.596C93.9742 305.623 94.2542 306.883 94.2542 308.376V310.392H84.3982C84.4355 311.568 84.7808 312.492 85.4342 313.164C86.1062 313.836 87.0302 314.172 88.2062 314.172C89.1955 314.172 90.0915 314.079 90.8942 313.892C91.6968 313.687 92.5275 313.379 93.3862 312.968V316.188C92.6395 316.561 91.8462 316.832 91.0062 317C90.1848 317.187 89.1862 317.28 88.0102 317.28C86.4795 317.28 85.1262 317 83.9502 316.44C82.7742 315.861 81.8502 314.993 81.1782 313.836C80.5062 312.679 80.1702 311.223 80.1702 309.468C80.1702 307.676 80.4688 306.192 81.0662 305.016C81.6822 303.821 82.5315 302.925 83.6142 302.328C84.6968 301.731 85.9568 301.432 87.3942 301.432ZM87.4222 304.4C86.6195 304.4 85.9475 304.661 85.4062 305.184C84.8835 305.707 84.5755 306.519 84.4822 307.62H90.3342C90.3342 307.004 90.2222 306.453 89.9982 305.968C89.7928 305.483 89.4755 305.1 89.0462 304.82C88.6168 304.54 88.0755 304.4 87.4222 304.4ZM106.177 301.432C106.382 301.432 106.625 301.441 106.905 301.46C107.185 301.479 107.409 301.507 107.577 301.544L107.269 305.464C107.138 305.427 106.942 305.399 106.681 305.38C106.438 305.343 106.224 305.324 106.037 305.324C105.496 305.324 104.973 305.399 104.469 305.548C103.965 305.679 103.508 305.893 103.097 306.192C102.705 306.491 102.388 306.892 102.145 307.396C101.921 307.881 101.809 308.488 101.809 309.216V317H97.6371V301.712H100.801L101.417 304.288H101.613C101.912 303.765 102.285 303.289 102.733 302.86C103.181 302.431 103.694 302.085 104.273 301.824C104.87 301.563 105.505 301.432 106.177 301.432ZM114.524 301.712V317H110.352V301.712H114.524ZM112.452 295.72C113.068 295.72 113.6 295.869 114.048 296.168C114.496 296.448 114.72 296.98 114.72 297.764C114.72 298.529 114.496 299.061 114.048 299.36C113.6 299.659 113.068 299.808 112.452 299.808C111.817 299.808 111.276 299.659 110.828 299.36C110.399 299.061 110.184 298.529 110.184 297.764C110.184 296.98 110.399 296.448 110.828 296.168C111.276 295.869 111.817 295.72 112.452 295.72ZM127.563 301.432C129.206 301.432 130.522 301.88 131.511 302.776C132.501 303.653 132.995 305.072 132.995 307.032V317H128.823V308.068C128.823 306.967 128.627 306.145 128.235 305.604C127.843 305.044 127.218 304.764 126.359 304.764C125.09 304.764 124.222 305.203 123.755 306.08C123.289 306.939 123.055 308.18 123.055 309.804V317H118.883V301.712H122.075L122.635 303.672H122.859C123.195 303.149 123.606 302.729 124.091 302.412C124.577 302.076 125.118 301.833 125.715 301.684C126.313 301.516 126.929 301.432 127.563 301.432ZM143.558 301.404C145.611 301.404 147.179 301.852 148.262 302.748C149.363 303.625 149.914 304.979 149.914 306.808V317H147.002L146.19 314.928H146.078C145.648 315.469 145.2 315.917 144.734 316.272C144.286 316.627 143.763 316.879 143.166 317.028C142.587 317.196 141.868 317.28 141.01 317.28C140.114 317.28 139.302 317.112 138.574 316.776C137.864 316.421 137.304 315.889 136.894 315.18C136.483 314.452 136.278 313.537 136.278 312.436C136.278 310.812 136.847 309.617 137.986 308.852C139.124 308.068 140.832 307.639 143.11 307.564L145.77 307.48V306.808C145.77 306.005 145.555 305.417 145.126 305.044C144.715 304.671 144.136 304.484 143.39 304.484C142.643 304.484 141.915 304.596 141.206 304.82C140.496 305.025 139.787 305.287 139.078 305.604L137.706 302.776C138.527 302.347 139.432 302.011 140.422 301.768C141.43 301.525 142.475 301.404 143.558 301.404ZM144.146 309.972C142.802 310.009 141.868 310.252 141.346 310.7C140.823 311.148 140.562 311.736 140.562 312.464C140.562 313.099 140.748 313.556 141.122 313.836C141.495 314.097 141.98 314.228 142.578 314.228C143.474 314.228 144.23 313.967 144.846 313.444C145.462 312.903 145.77 312.147 145.77 311.176V309.916L144.146 309.972ZM178.369 306.808C178.369 309.048 177.94 310.924 177.081 312.436C176.223 313.948 174.972 315.087 173.329 315.852C171.705 316.617 169.745 317 167.449 317H161.793V297.008H168.065C170.156 297.008 171.967 297.381 173.497 298.128C175.047 298.875 176.241 299.976 177.081 301.432C177.94 302.869 178.369 304.661 178.369 306.808ZM173.973 306.92C173.973 305.445 173.759 304.232 173.329 303.28C172.9 302.328 172.256 301.628 171.397 301.18C170.557 300.713 169.521 300.48 168.289 300.48H166.021V313.5H167.841C169.913 313.5 171.453 312.949 172.461 311.848C173.469 310.747 173.973 309.104 173.973 306.92ZM196.072 309.328C196.072 310.597 195.895 311.727 195.54 312.716C195.204 313.705 194.709 314.545 194.056 315.236C193.421 315.908 192.647 316.421 191.732 316.776C190.817 317.112 189.781 317.28 188.624 317.28C187.56 317.28 186.571 317.112 185.656 316.776C184.76 316.421 183.985 315.908 183.332 315.236C182.679 314.545 182.165 313.705 181.792 312.716C181.437 311.727 181.26 310.597 181.26 309.328C181.26 307.629 181.559 306.201 182.156 305.044C182.753 303.868 183.612 302.972 184.732 302.356C185.852 301.74 187.177 301.432 188.708 301.432C190.145 301.432 191.415 301.74 192.516 302.356C193.617 302.972 194.485 303.868 195.12 305.044C195.755 306.201 196.072 307.629 196.072 309.328ZM185.516 309.328C185.516 310.336 185.619 311.185 185.824 311.876C186.048 312.548 186.393 313.061 186.86 313.416C187.327 313.752 187.933 313.92 188.68 313.92C189.427 313.92 190.024 313.752 190.472 313.416C190.939 313.061 191.275 312.548 191.48 311.876C191.704 311.185 191.816 310.336 191.816 309.328C191.816 308.32 191.704 307.48 191.48 306.808C191.275 306.136 190.939 305.632 190.472 305.296C190.005 304.96 189.399 304.792 188.652 304.792C187.551 304.792 186.748 305.175 186.244 305.94C185.759 306.687 185.516 307.816 185.516 309.328ZM208.2 301.432C209.843 301.432 211.159 301.88 212.148 302.776C213.137 303.653 213.632 305.072 213.632 307.032V317H209.46V308.068C209.46 306.967 209.264 306.145 208.872 305.604C208.48 305.044 207.855 304.764 206.996 304.764C205.727 304.764 204.859 305.203 204.392 306.08C203.925 306.939 203.692 308.18 203.692 309.804V317H199.52V301.712H202.712L203.272 303.672H203.496C203.832 303.149 204.243 302.729 204.728 302.412C205.213 302.076 205.755 301.833 206.352 301.684C206.949 301.516 207.565 301.432 208.2 301.432ZM222.01 314.06C221.842 314.713 221.628 315.423 221.366 316.188C221.105 316.935 220.825 317.681 220.526 318.428C220.228 319.193 219.92 319.921 219.602 320.612H216.606C216.793 319.865 216.97 319.081 217.138 318.26C217.306 317.457 217.465 316.664 217.614 315.88C217.764 315.096 217.885 314.387 217.978 313.752H221.814L222.01 314.06ZM79.3731 338.256C78.5705 338.256 77.8518 338.415 77.2171 338.732C76.6011 339.049 76.0785 339.507 75.6491 340.104C75.2198 340.683 74.8931 341.392 74.6691 342.232C74.4638 343.072 74.3611 344.015 74.3611 345.06C74.3611 346.479 74.5291 347.692 74.8651 348.7C75.2198 349.689 75.7705 350.445 76.5171 350.968C77.2638 351.491 78.2158 351.752 79.3731 351.752C80.1945 351.752 81.0065 351.659 81.8091 351.472C82.6305 351.285 83.5171 351.024 84.4691 350.688V354.244C83.5918 354.599 82.7238 354.86 81.8651 355.028C81.0065 355.196 80.0451 355.28 78.9811 355.28C76.9278 355.28 75.2291 354.86 73.8851 354.02C72.5598 353.161 71.5798 351.967 70.9451 350.436C70.3105 348.887 69.9931 347.085 69.9931 345.032C69.9931 343.52 70.1985 342.139 70.6091 340.888C71.0198 339.619 71.6171 338.527 72.4011 337.612C73.2038 336.697 74.1838 335.988 75.3411 335.484C76.5171 334.98 77.8611 334.728 79.3731 334.728C80.3625 334.728 81.3518 334.859 82.3411 335.12C83.3491 335.363 84.3105 335.699 85.2251 336.128L83.8531 339.572C83.1065 339.217 82.3505 338.909 81.5851 338.648C80.8385 338.387 80.1011 338.256 79.3731 338.256ZM92.5533 338.06C92.5533 338.807 92.5253 339.525 92.4693 340.216C92.4319 340.907 92.3946 341.392 92.3573 341.672H92.5813C92.9173 341.149 93.3093 340.729 93.7573 340.412C94.2053 340.076 94.6999 339.833 95.2413 339.684C95.8013 339.516 96.3893 339.432 97.0053 339.432C98.1066 339.432 99.0679 339.628 99.8893 340.02C100.711 340.412 101.345 341.019 101.793 341.84C102.26 342.661 102.493 343.725 102.493 345.032V355H98.3213V346.068C98.3213 344.967 98.1159 344.145 97.7053 343.604C97.3133 343.044 96.6973 342.764 95.8573 342.764C95.0173 342.764 94.3546 342.96 93.8693 343.352C93.4026 343.744 93.0666 344.313 92.8613 345.06C92.6559 345.807 92.5533 346.721 92.5533 347.804V355H88.3813V333.72H92.5533V338.06ZM120.672 347.328C120.672 348.597 120.494 349.727 120.14 350.716C119.804 351.705 119.309 352.545 118.656 353.236C118.021 353.908 117.246 354.421 116.332 354.776C115.417 355.112 114.381 355.28 113.224 355.28C112.16 355.28 111.17 355.112 110.256 354.776C109.36 354.421 108.585 353.908 107.932 353.236C107.278 352.545 106.765 351.705 106.392 350.716C106.037 349.727 105.86 348.597 105.86 347.328C105.86 345.629 106.158 344.201 106.756 343.044C107.353 341.868 108.212 340.972 109.332 340.356C110.452 339.74 111.777 339.432 113.308 339.432C114.745 339.432 116.014 339.74 117.116 340.356C118.217 340.972 119.085 341.868 119.72 343.044C120.354 344.201 120.672 345.629 120.672 347.328ZM110.116 347.328C110.116 348.336 110.218 349.185 110.424 349.876C110.648 350.548 110.993 351.061 111.46 351.416C111.926 351.752 112.533 351.92 113.28 351.92C114.026 351.92 114.624 351.752 115.072 351.416C115.538 351.061 115.874 350.548 116.08 349.876C116.304 349.185 116.416 348.336 116.416 347.328C116.416 346.32 116.304 345.48 116.08 344.808C115.874 344.136 115.538 343.632 115.072 343.296C114.605 342.96 113.998 342.792 113.252 342.792C112.15 342.792 111.348 343.175 110.844 343.94C110.358 344.687 110.116 345.816 110.116 347.328ZM128.292 355H124.12V333.72H128.292V355ZM139.371 335.008C141.947 335.008 143.823 335.568 144.999 336.688C146.193 337.789 146.791 339.311 146.791 341.252C146.791 342.129 146.66 342.969 146.399 343.772C146.137 344.556 145.699 345.265 145.083 345.9C144.485 346.516 143.692 347.001 142.703 347.356C141.713 347.711 140.491 347.888 139.035 347.888H137.215V355H132.987V335.008H139.371ZM139.147 338.48H137.215V344.416H138.615C139.417 344.416 140.108 344.313 140.687 344.108C141.265 343.903 141.713 343.576 142.031 343.128C142.348 342.68 142.507 342.101 142.507 341.392C142.507 340.403 142.236 339.675 141.695 339.208C141.153 338.723 140.304 338.48 139.147 338.48ZM164.121 347.328C164.121 348.597 163.943 349.727 163.589 350.716C163.253 351.705 162.758 352.545 162.105 353.236C161.47 353.908 160.695 354.421 159.781 354.776C158.866 355.112 157.83 355.28 156.673 355.28C155.609 355.28 154.619 355.112 153.705 354.776C152.809 354.421 152.034 353.908 151.381 353.236C150.727 352.545 150.214 351.705 149.841 350.716C149.486 349.727 149.309 348.597 149.309 347.328C149.309 345.629 149.607 344.201 150.205 343.044C150.802 341.868 151.661 340.972 152.781 340.356C153.901 339.74 155.226 339.432 156.757 339.432C158.194 339.432 159.463 339.74 160.565 340.356C161.666 340.972 162.534 341.868 163.169 343.044C163.803 344.201 164.121 345.629 164.121 347.328ZM153.565 347.328C153.565 348.336 153.667 349.185 153.873 349.876C154.097 350.548 154.442 351.061 154.909 351.416C155.375 351.752 155.982 351.92 156.729 351.92C157.475 351.92 158.073 351.752 158.521 351.416C158.987 351.061 159.323 350.548 159.529 349.876C159.753 349.185 159.865 348.336 159.865 347.328C159.865 346.32 159.753 345.48 159.529 344.808C159.323 344.136 158.987 343.632 158.521 343.296C158.054 342.96 157.447 342.792 156.701 342.792C155.599 342.792 154.797 343.175 154.293 343.94C153.807 344.687 153.565 345.816 153.565 347.328ZM176.109 339.432C176.314 339.432 176.557 339.441 176.837 339.46C177.117 339.479 177.341 339.507 177.509 339.544L177.201 343.464C177.07 343.427 176.874 343.399 176.613 343.38C176.37 343.343 176.155 343.324 175.969 343.324C175.427 343.324 174.905 343.399 174.401 343.548C173.897 343.679 173.439 343.893 173.029 344.192C172.637 344.491 172.319 344.892 172.077 345.396C171.853 345.881 171.741 346.488 171.741 347.216V355H167.569V339.712H170.733L171.349 342.288H171.545C171.843 341.765 172.217 341.289 172.665 340.86C173.113 340.431 173.626 340.085 174.205 339.824C174.802 339.563 175.437 339.432 176.109 339.432ZM184.456 339.712V355H180.284V339.712H184.456ZM182.384 333.72C183 333.72 183.532 333.869 183.98 334.168C184.428 334.448 184.652 334.98 184.652 335.764C184.652 336.529 184.428 337.061 183.98 337.36C183.532 337.659 183 337.808 182.384 337.808C181.749 337.808 181.208 337.659 180.76 337.36C180.33 337.061 180.116 336.529 180.116 335.764C180.116 334.98 180.33 334.448 180.76 334.168C181.208 333.869 181.749 333.72 182.384 333.72Z" fill="white"/>
<path d="M190.02 219.373C180.631 219.373 173.02 211.762 173.02 202.373C173.02 199.145 173.02 195.93 173.02 192.713C173.02 174.733 173.04 156.743 173 138.763C173 135.213 173.29 131.893 177.6 131.133C182.06 130.343 183.8 133.173 184.86 136.903C186.67 143.303 188.71 149.633 190.43 156.053C191.2 158.923 192.55 159.993 195.63 159.953C202.176 159.856 208.722 159.843 215.32 159.852C224.709 159.865 232.32 167.494 232.32 176.883L232.32 202.373C232.32 211.762 224.709 219.373 215.32 219.373L190.02 219.373Z" fill="white"/>
<path d="M256.02 219.373C246.631 219.373 239.02 211.762 239.02 202.373C239.02 199.145 239.02 195.93 239.02 192.713C239.02 174.733 239.04 156.743 239 138.763C239 135.213 239.29 131.893 243.6 131.133C248.06 130.343 249.8 133.173 250.86 136.903C252.67 143.303 254.71 149.633 256.43 156.053C257.2 158.923 258.55 159.993 261.63 159.953C268.176 159.856 274.722 159.843 281.32 159.852C290.709 159.865 298.32 167.494 298.32 176.883L298.32 202.373C298.32 211.762 290.709 219.373 281.32 219.373L256.02 219.373Z" fill="white"/>
</svg>
