<svg width="52" height="52" viewBox="0 0 52 52" fill="none" xmlns="http://www.w3.org/2000/svg">
<circle cx="26" cy="26" r="25.5" stroke="white"/>
<path d="M31.4208 14H20.5792C16.9514 14 14 16.9514 14 20.5793V31.4208C14 35.0486 16.9514 38 20.5792 38H31.4208C35.0486 38 38 35.0486 38 31.4208V20.5793C38 16.9514 35.0486 14 31.4208 14ZM26 32.5828C22.3702 32.5828 19.4173 29.6298 19.4173 26C19.4173 22.3702 22.3703 19.4173 26 19.4173C29.6297 19.4173 32.5828 22.3703 32.5828 26C32.5828 29.6297 29.6297 32.5828 26 32.5828ZM32.9765 21.0236C31.8737 21.0236 30.9765 20.1264 30.9765 19.0236C30.9765 17.9208 31.8737 17.0236 32.9765 17.0236C34.0792 17.0236 34.9764 17.9208 34.9764 19.0235C34.9764 20.1263 34.0792 21.0236 32.9765 21.0236Z" fill="white"/>
</svg>
