<svg width="52" height="52" viewBox="0 0 52 52" fill="none" xmlns="http://www.w3.org/2000/svg">
<circle cx="26" cy="26" r="25.5" stroke="white"/>
<path d="M35.5984 35.6004V28.5684C35.5984 25.1124 34.8544 22.4724 30.8224 22.4724C28.8784 22.4724 27.5824 23.5284 27.0544 24.5364H27.0064V22.7844H23.1904V35.6004H27.1744V29.2404C27.1744 27.5604 27.4864 25.9524 29.5504 25.9524C31.5904 25.9524 31.6144 27.8484 31.6144 29.3364V35.5764H35.5984V35.6004ZM16.7104 22.7844H20.6944V35.6004H16.7104V22.7844ZM18.7024 16.4004C17.4304 16.4004 16.3984 17.4324 16.3984 18.7044C16.3984 19.9764 17.4304 21.0324 18.7024 21.0324C19.9744 21.0324 21.0064 19.9764 21.0064 18.7044C21.0064 17.4324 19.9744 16.4004 18.7024 16.4004Z" fill="white"/>
</svg>
