<svg width="421" height="108" viewBox="0 0 421 108" fill="none" xmlns="http://www.w3.org/2000/svg">
<rect width="421" height="108" rx="54" fill="black"/>
<path d="M94.096 63.832C94.096 65.88 93.6 67.624 92.608 69.064C91.616 70.472 90.192 71.56 88.336 72.328C86.512 73.096 84.352 73.48 81.856 73.48C80.576 73.48 79.344 73.416 78.16 73.288C77.008 73.16 75.952 72.984 74.992 72.76C74.032 72.504 73.184 72.2 72.448 71.848V67.72C73.6 68.232 75.024 68.696 76.72 69.112C78.448 69.528 80.224 69.736 82.048 69.736C83.744 69.736 85.168 69.512 86.32 69.064C87.472 68.616 88.336 67.976 88.912 67.144C89.488 66.312 89.776 65.336 89.776 64.216C89.776 63.096 89.536 62.152 89.056 61.384C88.576 60.616 87.744 59.912 86.56 59.272C85.408 58.6 83.792 57.896 81.712 57.16C80.24 56.616 78.944 56.04 77.824 55.432C76.736 54.792 75.824 54.072 75.088 53.272C74.352 52.472 73.792 51.56 73.408 50.536C73.056 49.512 72.88 48.328 72.88 46.984C72.88 45.16 73.344 43.608 74.272 42.328C75.2 41.016 76.48 40.008 78.112 39.304C79.776 38.6 81.68 38.248 83.824 38.248C85.712 38.248 87.44 38.424 89.008 38.776C90.576 39.128 92 39.592 93.28 40.168L91.936 43.864C90.752 43.352 89.456 42.92 88.048 42.568C86.672 42.216 85.232 42.04 83.728 42.04C82.288 42.04 81.088 42.248 80.128 42.664C79.168 43.08 78.448 43.672 77.968 44.44C77.488 45.176 77.248 46.04 77.248 47.032C77.248 48.184 77.488 49.144 77.968 49.912C78.448 50.68 79.232 51.368 80.32 51.976C81.408 52.584 82.88 53.24 84.736 53.944C86.752 54.68 88.448 55.48 89.824 56.344C91.232 57.176 92.288 58.184 92.992 59.368C93.728 60.552 94.096 62.04 94.096 63.832ZM104.648 47.272V73H100.424V47.272H104.648ZM102.584 37.624C103.224 37.624 103.784 37.848 104.264 38.296C104.776 38.712 105.032 39.384 105.032 40.312C105.032 41.208 104.776 41.88 104.264 42.328C103.784 42.776 103.224 43 102.584 43C101.88 43 101.288 42.776 100.808 42.328C100.328 41.88 100.088 41.208 100.088 40.312C100.088 39.384 100.328 38.712 100.808 38.296C101.288 37.848 101.88 37.624 102.584 37.624ZM121.919 46.792C123.615 46.792 125.135 47.112 126.479 47.752C127.855 48.392 129.023 49.368 129.983 50.68H130.223L130.799 47.272H134.159V73.432C134.159 75.864 133.743 77.896 132.911 79.528C132.079 81.192 130.815 82.44 129.119 83.272C127.423 84.104 125.263 84.52 122.639 84.52C120.783 84.52 119.071 84.376 117.503 84.088C115.967 83.832 114.591 83.432 113.375 82.888V79C114.207 79.416 115.119 79.768 116.111 80.056C117.103 80.376 118.175 80.616 119.327 80.776C120.479 80.936 121.663 81.016 122.879 81.016C125.087 81.016 126.815 80.36 128.063 79.048C129.343 77.768 129.983 76.008 129.983 73.768V72.76C129.983 72.376 129.999 71.832 130.031 71.128C130.063 70.392 130.095 69.88 130.127 69.592H129.935C129.039 70.904 127.919 71.88 126.575 72.52C125.263 73.16 123.727 73.48 121.967 73.48C118.639 73.48 116.031 72.312 114.143 69.976C112.287 67.64 111.359 64.376 111.359 60.184C111.359 57.432 111.775 55.064 112.607 53.08C113.471 51.064 114.687 49.512 116.255 48.424C117.823 47.336 119.711 46.792 121.919 46.792ZM122.495 50.344C121.055 50.344 119.823 50.728 118.799 51.496C117.807 52.264 117.039 53.384 116.495 54.856C115.983 56.328 115.727 58.12 115.727 60.232C115.727 63.4 116.303 65.832 117.455 67.528C118.639 69.192 120.351 70.024 122.591 70.024C123.903 70.024 125.023 69.864 125.951 69.544C126.879 69.192 127.647 68.664 128.255 67.96C128.863 67.224 129.311 66.296 129.599 65.176C129.887 64.056 130.031 62.728 130.031 61.192V60.184C130.031 57.848 129.759 55.96 129.215 54.52C128.703 53.08 127.887 52.024 126.767 51.352C125.647 50.68 124.223 50.344 122.495 50.344ZM154.714 46.792C157.786 46.792 160.106 47.544 161.674 49.048C163.242 50.52 164.026 52.92 164.026 56.248V73H159.85V56.536C159.85 54.456 159.386 52.904 158.458 51.88C157.53 50.856 156.074 50.344 154.09 50.344C151.242 50.344 149.274 51.144 148.186 52.744C147.098 54.344 146.554 56.648 146.554 59.656V73H142.33V47.272H145.738L146.362 50.776H146.602C147.178 49.88 147.882 49.144 148.714 48.568C149.578 47.96 150.522 47.512 151.546 47.224C152.57 46.936 153.626 46.792 154.714 46.792ZM205.975 47.272V73H202.519L201.895 69.592H201.703C201.159 70.488 200.455 71.224 199.591 71.8C198.727 72.376 197.783 72.792 196.759 73.048C195.735 73.336 194.663 73.48 193.543 73.48C191.495 73.48 189.767 73.16 188.359 72.52C186.983 71.848 185.943 70.824 185.239 69.448C184.535 68.072 184.183 66.296 184.183 64.12V47.272H188.455V63.832C188.455 65.88 188.919 67.416 189.847 68.44C190.775 69.464 192.215 69.976 194.167 69.976C196.087 69.976 197.591 69.624 198.679 68.92C199.799 68.184 200.583 67.128 201.031 65.752C201.511 64.344 201.751 62.648 201.751 60.664V47.272H205.975ZM226.383 46.792C229.551 46.792 232.095 47.896 234.015 50.104C235.967 52.312 236.943 55.64 236.943 60.088C236.943 63 236.495 65.464 235.599 67.48C234.734 69.464 233.503 70.968 231.903 71.992C230.335 72.984 228.479 73.48 226.335 73.48C225.023 73.48 223.855 73.304 222.831 72.952C221.807 72.6 220.927 72.152 220.191 71.608C219.487 71.032 218.879 70.408 218.367 69.736H218.079C218.143 70.28 218.207 70.968 218.271 71.8C218.335 72.632 218.367 73.352 218.367 73.96V84.52H214.143V47.272H217.599L218.175 50.776H218.367C218.879 50.04 219.487 49.368 220.191 48.76C220.927 48.152 221.791 47.672 222.783 47.32C223.807 46.968 225.007 46.792 226.383 46.792ZM225.615 50.344C223.887 50.344 222.495 50.68 221.439 51.352C220.383 51.992 219.615 52.968 219.135 54.28C218.655 55.592 218.399 57.256 218.367 59.272V60.088C218.367 62.2 218.591 63.992 219.039 65.464C219.487 66.936 220.239 68.056 221.295 68.824C222.383 69.592 223.855 69.976 225.711 69.976C227.279 69.976 228.559 69.544 229.551 68.68C230.575 67.816 231.327 66.648 231.807 65.176C232.319 63.672 232.575 61.96 232.575 60.04C232.575 57.096 231.999 54.744 230.847 52.984C229.727 51.224 227.983 50.344 225.615 50.344ZM268.527 46.792C271.599 46.792 273.919 47.544 275.487 49.048C277.055 50.52 277.839 52.92 277.839 56.248V73H273.663V56.536C273.663 54.456 273.199 52.904 272.271 51.88C271.343 50.856 269.887 50.344 267.903 50.344C265.055 50.344 263.087 51.144 261.999 52.744C260.911 54.344 260.367 56.648 260.367 59.656V73H256.143V47.272H259.551L260.175 50.776H260.415C260.991 49.88 261.695 49.144 262.527 48.568C263.391 47.96 264.335 47.512 265.359 47.224C266.383 46.936 267.439 46.792 268.527 46.792ZM308.182 60.088C308.182 62.232 307.894 64.136 307.318 65.8C306.774 67.432 305.974 68.824 304.918 69.976C303.894 71.128 302.63 72.008 301.126 72.616C299.654 73.192 298.006 73.48 296.182 73.48C294.486 73.48 292.918 73.192 291.478 72.616C290.038 72.008 288.79 71.128 287.734 69.976C286.678 68.824 285.846 67.432 285.238 65.8C284.662 64.136 284.374 62.232 284.374 60.088C284.374 57.24 284.854 54.84 285.814 52.888C286.774 50.904 288.15 49.4 289.942 48.376C291.734 47.32 293.862 46.792 296.326 46.792C298.662 46.792 300.71 47.32 302.47 48.376C304.262 49.4 305.654 50.904 306.646 52.888C307.67 54.84 308.182 57.24 308.182 60.088ZM288.742 60.088C288.742 62.104 288.998 63.864 289.51 65.368C290.054 66.84 290.886 67.976 292.006 68.776C293.126 69.576 294.55 69.976 296.278 69.976C298.006 69.976 299.43 69.576 300.55 68.776C301.67 67.976 302.486 66.84 302.998 65.368C303.542 63.864 303.814 62.104 303.814 60.088C303.814 58.04 303.542 56.296 302.998 54.856C302.454 53.416 301.622 52.312 300.502 51.544C299.414 50.744 297.99 50.344 296.23 50.344C293.606 50.344 291.702 51.208 290.518 52.936C289.334 54.664 288.742 57.048 288.742 60.088ZM330.547 58.456C330.355 57.784 330.163 57.128 329.971 56.488C329.779 55.816 329.603 55.192 329.443 54.616C329.315 54.008 329.187 53.448 329.059 52.936C328.931 52.424 328.835 51.992 328.771 51.64H328.579C328.515 51.992 328.419 52.424 328.291 52.936C328.195 53.448 328.067 54.008 327.907 54.616C327.779 55.224 327.619 55.864 327.427 56.536C327.267 57.176 327.075 57.832 326.851 58.504L322.243 72.952H317.443L310.387 47.224H314.755L318.307 60.952C318.563 61.88 318.803 62.824 319.027 63.784C319.251 64.712 319.443 65.608 319.603 66.472C319.795 67.304 319.923 68.024 319.987 68.632H320.179C320.275 68.248 320.387 67.768 320.515 67.192C320.643 66.616 320.771 66.008 320.899 65.368C321.059 64.728 321.219 64.088 321.379 63.448C321.571 62.808 321.747 62.232 321.907 61.72L326.467 47.224H331.075L335.491 61.72C335.715 62.456 335.939 63.24 336.163 64.072C336.419 64.904 336.643 65.72 336.835 66.52C337.027 67.288 337.155 67.976 337.219 68.584H337.411C337.475 68.04 337.587 67.368 337.747 66.568C337.939 65.736 338.147 64.84 338.371 63.88C338.627 62.888 338.883 61.912 339.139 60.952L342.739 47.224H347.059L339.907 72.952H334.963L330.547 58.456Z" fill="white"/>
</svg>
