<svg width="1920" height="288" viewBox="0 0 1920 288" fill="none" xmlns="http://www.w3.org/2000/svg">
<rect width="1920" height="240" fill="#6BC06C"/>
<g clip-path="url(#clip0_1278_2197)">
<mask id="mask0_1278_2197" style="mask-type:luminance" maskUnits="userSpaceOnUse" x="272" y="-117" width="595" height="336">
<path d="M866.689 -116.34H272.547V219H866.689V-116.34Z" fill="white"/>
</mask>
<g mask="url(#mask0_1278_2197)">
<path d="M350.735 157.728C350.735 157.521 350.529 157.314 350.323 157.314C350.116 157.314 349.91 157.521 349.91 157.728C349.91 157.935 350.116 158.142 350.323 158.142C350.632 158.142 350.735 157.935 350.735 157.728Z" fill="#5948E6"/>
</g>
<mask id="mask1_1278_2197" style="mask-type:luminance" maskUnits="userSpaceOnUse" x="272" y="-117" width="595" height="336">
<path d="M866.689 -116.34H272.547V219H866.689V-116.34Z" fill="white"/>
</mask>
<g mask="url(#mask1_1278_2197)">
<path d="M355.995 150.896C355.995 150.896 355.892 150.896 355.789 150.896C350.941 152.242 347.64 156.589 347.95 161.35C348.259 166.111 352.076 170.044 357.027 170.768C357.13 170.768 357.13 170.768 357.13 170.768L355.995 150.896ZM353.417 155.554C353.417 155.036 353.726 154.622 354.242 154.622C354.758 154.622 355.17 154.933 355.17 155.45C355.17 155.968 354.861 156.382 354.345 156.382C353.829 156.485 353.417 156.071 353.417 155.554ZM351.973 159.694C351.973 159.28 352.282 158.969 352.695 158.866C353.107 158.866 353.417 159.176 353.52 159.59C353.623 160.004 353.21 160.315 352.798 160.418C352.282 160.418 351.973 160.108 351.973 159.694ZM350.735 164.765C350.632 163.42 351.663 162.281 353.004 162.178C354.345 162.074 355.48 163.109 355.583 164.455C355.686 165.8 354.654 166.939 353.314 167.042C351.973 167.146 350.838 166.111 350.735 164.765Z" fill="#5948E6"/>
</g>
<mask id="mask2_1278_2197" style="mask-type:luminance" maskUnits="userSpaceOnUse" x="272" y="-117" width="595" height="336">
<path d="M866.689 -116.34H272.547V219H866.689V-116.34Z" fill="white"/>
</mask>
<g mask="url(#mask2_1278_2197)">
<path d="M376.314 169.217C376.623 168.596 377.242 168.182 377.964 168.079L387.145 167.561C387.867 170.045 390.239 171.908 393.024 171.701C396.222 171.494 398.594 168.803 398.388 165.595L397.563 151.105C397.356 147.896 394.675 145.516 391.477 145.723C388.795 145.93 386.629 147.896 386.113 150.587L376.933 151.105C376.211 151.105 375.592 150.794 375.179 150.173C371.053 143.239 363.214 139.306 355.168 140.134C344.234 141.272 336.086 150.794 336.601 161.765C336.601 161.869 336.601 161.972 336.601 162.076C336.911 167.561 339.386 172.633 343.409 176.359C347.535 180.085 353.002 182.051 358.572 181.637C366.308 181.12 373.116 176.462 376.314 169.217ZM393.024 151.312L393.849 165.802C393.849 166.526 393.334 167.147 392.612 167.147C391.89 167.147 391.271 166.63 391.271 165.905L390.445 151.415C390.445 150.691 390.961 150.07 391.683 150.07C392.405 150.07 393.024 150.691 393.024 151.312ZM364.761 165.388C363.936 165.388 363.317 164.87 363.317 164.042C363.317 163.214 363.833 162.593 364.658 162.593C365.483 162.593 366.102 163.111 366.102 163.939C366.205 164.663 365.586 165.284 364.761 165.388ZM368.99 160.316C367.649 160.42 366.515 159.385 366.515 158.039C366.412 156.694 367.443 155.555 368.784 155.555C370.125 155.555 371.26 156.487 371.26 157.832C371.26 159.074 370.228 160.213 368.99 160.316ZM356.406 175.117C349.392 174.082 343.925 168.389 343.512 161.558C343.1 154.727 347.845 148.414 354.652 146.551C355.993 146.137 357.438 146.447 358.572 147.275C359.707 148.103 360.326 149.242 360.429 150.587L361.667 170.459C361.77 171.805 361.254 173.047 360.223 173.978C359.191 174.91 357.747 175.324 356.406 175.117Z" fill="#5948E6"/>
</g>
<mask id="mask3_1278_2197" style="mask-type:luminance" maskUnits="userSpaceOnUse" x="272" y="-117" width="595" height="336">
<path d="M866.689 -116.34H272.547V219H866.689V-116.34Z" fill="white"/>
</mask>
<g mask="url(#mask3_1278_2197)">
<path d="M421.906 133.612L413.964 135.268C413.035 135.475 412.417 136.407 412.623 137.338L414.376 145.825C414.583 146.757 415.511 147.378 416.439 147.171L424.382 145.515L438.513 142.616L439.957 149.447L398.594 175.633C398.182 175.84 397.872 176.151 397.563 176.461C392.818 173.563 387.042 172.321 381.265 173.46C371.054 175.53 363.936 184.327 363.317 194.263L351.868 196.643C349.186 197.161 347.02 199.541 347.02 202.336C347.123 205.958 350.424 208.546 353.828 207.822L365.587 205.441C370.022 214.445 379.924 219.724 390.136 217.654C395.809 216.516 400.554 213.204 403.752 208.857C404.268 209.064 404.783 209.167 405.402 209.271L464.61 219C468.736 219.724 472.656 217.551 474.409 214.032L477.916 213.928C479.773 213.928 480.289 211.34 478.639 210.616L475.544 209.167C475.544 208.65 475.441 208.132 475.338 207.718C474.616 203.992 471.624 200.887 467.602 200.266L409.941 190.847L459.35 159.591C462.754 157.417 464.301 153.484 463.579 149.655C463.372 148.516 462.96 147.481 462.341 146.446C459.865 142.513 455.017 141.064 450.788 142.72L450.272 140.133L457.08 138.787C457.287 138.787 457.596 138.58 457.802 138.476L465.848 132.473C466.983 131.645 466.673 129.782 465.229 129.368L455.43 126.988C455.224 126.885 454.914 126.885 454.708 126.988L447.9 128.333L447.591 126.678C447.384 125.746 446.456 125.125 445.528 125.332L437.069 127.091C436.141 127.298 435.522 128.23 435.728 129.161C435.935 130.093 435.316 131.024 434.387 131.231L421.906 133.612ZM377.346 199.748C374.148 193.228 378.996 185.776 386.216 186.294C389.414 186.501 392.302 188.467 393.746 191.262C396.944 197.782 392.096 205.234 384.876 204.717C381.678 204.51 378.79 202.646 377.346 199.748Z" fill="#F15C30"/>
</g>
<mask id="mask4_1278_2197" style="mask-type:luminance" maskUnits="userSpaceOnUse" x="272" y="-117" width="595" height="336">
<path d="M866.689 -116.34H272.547V219H866.689V-116.34Z" fill="white"/>
</mask>
<g mask="url(#mask4_1278_2197)">
<path d="M483.282 140.547L465.54 149.966C465.128 150.173 464.922 150.794 465.128 151.208L465.85 152.657C466.056 153.071 466.675 153.278 467.088 153.071L484.829 143.652C485.242 143.445 485.448 142.824 485.242 142.41L484.52 140.961C484.314 140.444 483.695 140.34 483.282 140.547Z" fill="#5948E6"/>
</g>
<mask id="mask5_1278_2197" style="mask-type:luminance" maskUnits="userSpaceOnUse" x="272" y="-117" width="595" height="336">
<path d="M866.689 -116.34H272.547V219H866.689V-116.34Z" fill="white"/>
</mask>
<g mask="url(#mask5_1278_2197)">
<path d="M468.324 132.267L466.983 132.991C462.341 135.475 460.382 141.064 462.341 145.929C462.548 146.446 463.167 146.653 463.579 146.446L481.218 137.028C481.734 136.821 481.837 136.2 481.527 135.682C478.742 131.232 472.966 129.679 468.324 132.267Z" fill="#5948E6"/>
</g>
<mask id="mask6_1278_2197" style="mask-type:luminance" maskUnits="userSpaceOnUse" x="272" y="-117" width="595" height="336">
<path d="M866.689 -116.34H272.547V219H866.689V-116.34Z" fill="white"/>
</mask>
<g mask="url(#mask6_1278_2197)">
<path d="M514.225 218.172L514.741 214.549C514.844 213.825 514.019 213.307 513.4 213.618L509.687 215.584C509.068 215.895 509.068 216.93 509.687 217.24L512.988 218.793C513.503 219.207 514.122 218.793 514.225 218.172Z" fill="#5948E6"/>
</g>
<mask id="mask7_1278_2197" style="mask-type:luminance" maskUnits="userSpaceOnUse" x="272" y="-117" width="595" height="336">
<path d="M866.689 -116.34H272.547V219H866.689V-116.34Z" fill="white"/>
</mask>
<g mask="url(#mask7_1278_2197)">
<path d="M468.739 157.935L495.352 208.029C495.455 208.132 495.558 208.339 495.661 208.443L506.389 214.446C506.698 214.549 507.008 214.549 507.214 214.446L513.197 211.237C513.506 211.134 513.609 210.823 513.712 210.513L514.744 198.3C514.744 198.093 514.744 197.989 514.641 197.782L488.028 147.585C487.822 147.171 487.203 146.964 486.79 147.171L469.048 156.589C468.739 156.9 468.533 157.417 468.739 157.935Z" fill="#5948E6"/>
</g>
<mask id="mask8_1278_2197" style="mask-type:luminance" maskUnits="userSpaceOnUse" x="272" y="-117" width="595" height="336">
<path d="M866.689 -116.34H272.547V219H866.689V-116.34Z" fill="white"/>
</mask>
<g mask="url(#mask8_1278_2197)">
<path d="M301.119 36.3233L275.126 46.2593C274.507 46.4663 274.197 47.1908 274.403 47.9153L275.229 49.9853C275.435 50.6063 276.157 50.9168 276.879 50.7098L302.873 40.7738C303.492 40.5668 303.801 39.8423 303.595 39.1178L302.77 37.0478C302.46 36.3233 301.738 36.0128 301.119 36.3233Z" fill="#F7F29B"/>
</g>
<mask id="mask9_1278_2197" style="mask-type:luminance" maskUnits="userSpaceOnUse" x="272" y="-117" width="595" height="336">
<path d="M866.689 -116.34H272.547V219H866.689V-116.34Z" fill="white"/>
</mask>
<g mask="url(#mask9_1278_2197)">
<path d="M282.038 22.2469L280.181 22.9714C273.373 25.5589 269.66 33.0109 271.62 39.9454C271.826 40.6699 272.548 41.0839 273.27 40.7734L299.057 30.8374C299.779 30.5269 300.089 29.6989 299.779 29.0779C296.479 22.7644 288.846 19.6594 282.038 22.2469Z" fill="#F7F29B"/>
</g>
<mask id="mask10_1278_2197" style="mask-type:luminance" maskUnits="userSpaceOnUse" x="272" y="-117" width="595" height="336">
<path d="M866.689 -116.34H272.547V219H866.689V-116.34Z" fill="white"/>
</mask>
<g mask="url(#mask10_1278_2197)">
<path d="M330.412 148.517L331.753 143.653C332.063 142.618 331.031 141.79 330.103 142.1L324.636 144.17C323.708 144.584 323.501 145.826 324.43 146.447L328.659 149.242C329.175 149.656 330.206 149.345 330.412 148.517Z" fill="#F7F29B"/>
</g>
<mask id="mask11_1278_2197" style="mask-type:luminance" maskUnits="userSpaceOnUse" x="272" y="-117" width="595" height="336">
<path d="M866.689 -116.34H272.547V219H866.689V-116.34Z" fill="white"/>
</mask>
<g mask="url(#mask11_1278_2197)">
<path d="M278.119 57.6435L306.072 131.129C306.175 131.336 306.278 131.543 306.485 131.646L320.1 141.686C320.41 141.893 320.926 141.996 321.338 141.893L330.209 138.477C330.622 138.374 330.931 137.96 331.034 137.546L334.541 120.882C334.541 120.675 334.541 120.365 334.438 120.158L306.485 46.6725C306.278 46.0515 305.556 45.741 304.834 45.948L278.841 55.884C278.222 56.298 277.912 57.0225 278.119 57.6435Z" fill="#F7F29B"/>
</g>
<mask id="mask12_1278_2197" style="mask-type:luminance" maskUnits="userSpaceOnUse" x="272" y="-117" width="595" height="336">
<path d="M866.689 -116.34H272.547V219H866.689V-116.34Z" fill="white"/>
</mask>
<g mask="url(#mask12_1278_2197)">
<path d="M388.18 76.5843C381.475 74.1003 374.048 74.5143 367.859 77.8263C361.567 81.1383 357.028 86.9343 355.275 93.8688C353.624 100.286 354.656 107.013 358.06 112.809C359.401 114.983 359.71 117.467 359.195 119.847L357.544 126.264C355.894 132.992 359.917 139.823 366.621 141.582L371.057 142.721C377.762 144.377 384.569 140.34 386.323 133.613L387.973 127.092C388.489 124.815 390.036 122.849 392.306 121.503C398.907 117.467 403.239 110.739 404.168 102.977C405.509 91.5918 398.804 80.5173 388.18 76.5843ZM372.913 135.269L368.478 134.13C365.796 133.406 364.146 130.715 364.868 128.024L365.693 124.815L379.824 128.334L378.999 131.543C378.38 134.234 375.595 135.89 372.913 135.269Z" fill="#5948E6"/>
</g>
<mask id="mask13_1278_2197" style="mask-type:luminance" maskUnits="userSpaceOnUse" x="272" y="-117" width="595" height="336">
<path d="M866.689 -116.34H272.547V219H866.689V-116.34Z" fill="white"/>
</mask>
<g mask="url(#mask13_1278_2197)">
<path d="M386.837 73.1686C388.9 73.6861 390.86 72.4441 391.376 70.3741L394.47 57.9541C394.986 55.8841 393.748 53.9176 391.685 53.4001C389.622 52.8826 387.662 54.1246 387.146 56.1946L384.052 68.6146C383.639 70.5811 384.877 72.6511 386.837 73.1686Z" fill="#5948E6"/>
</g>
<mask id="mask14_1278_2197" style="mask-type:luminance" maskUnits="userSpaceOnUse" x="272" y="-117" width="595" height="336">
<path d="M866.689 -116.34H272.547V219H866.689V-116.34Z" fill="white"/>
</mask>
<g mask="url(#mask14_1278_2197)">
<path d="M400.765 81.8624C401.281 82.4834 402.003 82.8974 402.725 83.1044C403.86 83.4149 405.097 83.1044 406.026 82.3799L415.928 74.2034C417.579 72.8579 417.785 70.4774 416.444 68.9249C415.103 67.2689 412.73 67.0619 411.183 68.4074L401.281 76.5838C399.734 77.8258 399.424 80.2064 400.765 81.8624Z" fill="#5948E6"/>
</g>
<mask id="mask15_1278_2197" style="mask-type:luminance" maskUnits="userSpaceOnUse" x="272" y="-117" width="595" height="336">
<path d="M866.689 -116.34H272.547V219H866.689V-116.34Z" fill="white"/>
</mask>
<g mask="url(#mask15_1278_2197)">
<path d="M423.143 92.5226L410.353 93.1436C408.29 93.2471 406.639 95.0066 406.743 97.0766C406.846 98.7326 407.98 100.182 409.631 100.596C409.94 100.699 410.353 100.699 410.765 100.699L423.556 100.078C425.619 99.9746 427.269 98.2151 427.166 96.1451C427.063 93.9716 425.31 92.4191 423.143 92.5226Z" fill="#5948E6"/>
</g>
<mask id="mask16_1278_2197" style="mask-type:luminance" maskUnits="userSpaceOnUse" x="272" y="-117" width="595" height="336">
<path d="M866.689 -116.34H272.547V219H866.689V-116.34Z" fill="white"/>
</mask>
<g mask="url(#mask16_1278_2197)">
<path d="M364.04 71.7192C364.556 72.8577 365.484 73.6857 366.619 73.9962C367.341 74.2032 368.166 74.0997 368.991 73.7892C370.951 72.9612 371.879 70.7877 371.054 68.8212L366.206 56.9187C365.381 54.9522 363.215 54.0207 361.255 54.8487C359.295 55.6767 358.367 57.8502 359.192 59.8167L364.04 71.7192Z" fill="#5948E6"/>
</g>
<mask id="mask17_1278_2197" style="mask-type:luminance" maskUnits="userSpaceOnUse" x="272" y="-117" width="595" height="336">
<path d="M866.689 -116.34H272.547V219H866.689V-116.34Z" fill="white"/>
</mask>
<g mask="url(#mask17_1278_2197)">
<path d="M340.316 79.0681L351.25 85.6921C351.56 85.8991 351.972 86.0026 352.282 86.1061C353.829 86.5201 355.583 85.8991 356.408 84.3466C357.439 82.5871 356.923 80.2066 355.17 79.1716L344.236 72.5476C342.483 71.5126 340.11 72.0301 339.079 73.7896C338.047 75.5491 338.563 78.0331 340.316 79.0681Z" fill="#5948E6"/>
</g>
<mask id="mask18_1278_2197" style="mask-type:luminance" maskUnits="userSpaceOnUse" x="272" y="-117" width="595" height="336">
<path d="M866.689 -116.34H272.547V219H866.689V-116.34Z" fill="white"/>
</mask>
<g mask="url(#mask18_1278_2197)">
<path d="M297.612 140.237C297.922 140.133 298.128 140.133 298.437 140.03C298.644 139.926 298.953 139.926 299.159 139.823C298.644 139.926 298.128 140.03 297.612 140.237ZM274.919 172.425C274.816 170.666 274.816 168.803 275.022 167.147C274.919 168.906 274.816 170.666 274.919 172.425Z" fill="#5948E6"/>
</g>
<mask id="mask19_1278_2197" style="mask-type:luminance" maskUnits="userSpaceOnUse" x="272" y="-117" width="595" height="336">
<path d="M866.689 -116.34H272.547V219H866.689V-116.34Z" fill="white"/>
</mask>
<g mask="url(#mask19_1278_2197)">
<path d="M337.121 164.144C337.018 163.627 336.811 163.109 336.708 162.592C335.574 158.348 333.717 154.519 331.035 151C330.932 150.896 330.932 150.793 330.829 150.689C327.115 146.032 322.164 142.616 316.697 140.65C315.356 140.236 314.015 139.925 312.674 139.511C312.468 139.408 312.262 138.994 312.159 138.683C311.54 136.303 310.508 134.026 308.652 132.37C305.97 129.886 302.875 128.747 299.162 129.058C298.749 129.058 298.337 129.161 297.924 129.265L293.798 130.3C293.076 130.507 292.354 130.817 291.735 131.128C291.013 131.542 290.291 131.956 289.672 132.473C285.752 135.785 284.411 140.029 285.649 144.997C285.855 145.825 285.752 146.342 285.34 146.86C285.237 146.963 285.03 147.17 284.927 147.274C284.618 147.481 284.308 147.791 284.102 147.998C283.999 148.102 283.896 148.205 283.793 148.309C283.689 148.412 283.689 148.412 283.586 148.516C279.151 153.173 276.159 159.073 275.128 165.49C275.128 165.593 275.128 165.593 275.128 165.697C275.231 166.214 275.128 166.525 275.128 166.939V167.042C274.922 168.802 274.922 170.561 275.025 172.321C275.025 172.424 275.025 172.528 275.025 172.631C275.025 172.735 275.025 172.942 275.025 173.045C275.128 174.805 275.437 176.564 275.953 178.324V178.427L276.056 178.841C279.048 190.226 282.039 201.508 285.03 212.893C286.268 217.55 290.188 219.827 294.83 218.689C309.889 214.756 324.846 210.823 339.906 206.786C343.826 205.751 346.095 202.957 346.095 199.024C346.095 198.299 345.889 197.471 345.682 196.747C342.794 185.879 339.906 175.012 337.121 164.144ZM289.981 143.548C289.466 140.96 289.981 138.683 291.838 136.82C292.663 135.992 293.798 135.371 294.933 134.957C296.893 134.233 298.955 133.612 301.122 133.715C304.01 133.922 306.692 136.096 307.414 138.994C304.938 138.89 302.463 139.097 300.09 139.615C299.884 139.615 299.781 139.718 299.574 139.718C299.471 139.718 299.368 139.718 299.368 139.822C299.265 139.822 299.265 139.822 299.162 139.822C298.955 139.925 298.646 139.925 298.44 140.029C298.13 140.132 297.924 140.132 297.615 140.236C297.305 140.339 297.099 140.339 296.789 140.443C296.686 140.443 296.583 140.546 296.377 140.546C296.274 140.546 296.17 140.65 295.964 140.65C295.758 140.753 295.448 140.857 295.242 140.96C295.139 140.96 295.036 141.064 294.83 141.064C294.726 141.064 294.623 141.167 294.417 141.167C294.107 141.271 293.798 141.478 293.489 141.581C293.385 141.685 293.179 141.685 293.076 141.788H292.973C292.87 141.892 292.767 141.892 292.56 141.995C292.457 141.995 292.354 142.099 292.354 142.099C291.632 142.616 290.807 143.03 289.981 143.548ZM281.936 177.185C281.007 172.735 281.111 168.284 282.555 163.937C285.03 156.589 289.775 151.31 296.893 148.205C298.027 147.688 299.162 147.377 299.884 147.067C311.849 143.962 324.124 149.654 329.281 160.418C330.004 161.867 330.519 163.42 331.035 164.972C331.448 166.318 330.829 167.56 329.591 167.974C328.456 168.388 327.218 167.767 326.703 166.525C325.981 164.869 325.465 163.006 324.64 161.453C320.72 154.208 312.365 149.965 304.216 151C293.385 152.345 285.443 161.66 285.855 172.631C285.855 173.873 286.165 175.219 286.371 176.461C286.681 178.22 286.062 179.462 284.721 179.773C283.38 179.876 282.348 178.945 281.936 177.185ZM335.574 182.153C336.708 186.604 337.843 191.054 339.081 195.505C339.596 197.368 338.978 198.403 337.121 198.92C329.9 200.783 322.577 202.75 315.356 204.613C308.136 206.476 300.915 208.442 293.695 210.305C291.632 210.823 290.704 210.305 290.085 208.235C288.95 203.888 287.815 199.438 286.681 194.987L286.268 193.435C285.752 191.468 286.268 190.433 288.331 189.916C302.875 186.086 317.316 182.36 331.86 178.531C333.82 178.013 334.852 178.634 335.367 180.497L335.574 182.153Z" fill="#5948E6"/>
</g>
<mask id="mask20_1278_2197" style="mask-type:luminance" maskUnits="userSpaceOnUse" x="195" y="-247" width="660" height="476">
<path d="M770.913 -246.749L195.699 -95.8267L279.73 228.196L854.944 77.2736L770.913 -246.749Z" fill="white"/>
</mask>
<g mask="url(#mask20_1278_2197)">
<path d="M331.15 183.503L291.02 194.021L293.979 205.421L334.11 194.903L331.15 183.503Z" fill="#5948E6"/>
</g>
</g>
<g clip-path="url(#clip1_1278_2197)">
<mask id="mask21_1278_2197" style="mask-type:luminance" maskUnits="userSpaceOnUse" x="951" y="-178" width="719" height="405">
<path d="M1669.62 -177.542H951.75V227H1669.62V-177.542Z" fill="white"/>
</mask>
<g mask="url(#mask21_1278_2197)">
<path d="M1667.63 166.443L1669.62 155.206C1669.87 153.832 1669 152.584 1667.63 152.334L1655.54 150.211C1654.17 149.961 1652.92 150.835 1652.67 152.209L1650.68 163.446L1647.06 183.673L1637.22 181.925L1624.38 113.628C1624.26 113.003 1624.01 112.379 1623.88 111.755C1630.24 107.01 1634.85 100.018 1636.35 91.6524C1638.96 77.044 1631.11 63.0598 1618.27 57.0665L1621.14 40.5852C1621.89 36.7146 1619.89 32.5942 1616.15 31.2208C1611.29 29.4728 1606.18 32.4694 1605.44 37.3389L1602.45 54.1948C1588.36 55.3185 1576.15 65.8067 1573.53 80.4152C1572.04 88.531 1573.91 96.5219 1578.02 103.015C1577.52 103.639 1577.02 104.263 1576.65 104.887L1532.9 178.18C1529.91 183.299 1530.66 189.542 1534.27 193.787L1532.53 198.407C1531.66 200.904 1534.65 202.902 1536.52 201.029L1540.01 197.658C1540.63 197.907 1541.38 198.032 1542 198.157C1547.36 199.156 1552.97 196.783 1555.83 191.789L1598.46 120.37L1613.91 202.152C1615.03 207.771 1619.4 211.891 1624.75 212.89C1626.25 213.14 1627.99 213.14 1629.62 212.89C1636.1 211.642 1640.58 205.898 1640.46 199.53L1644.07 200.155L1642.33 209.894C1642.2 210.268 1642.33 210.643 1642.33 211.017L1646.07 224.877C1646.56 226.874 1649.18 227.374 1650.43 225.626L1658.65 213.889C1658.9 213.639 1659.03 213.265 1659.03 212.89L1660.77 203.151L1663.14 203.526C1664.51 203.776 1665.76 202.902 1666.01 201.528L1668.13 189.417C1668.38 188.043 1667.5 186.795 1666.13 186.545C1664.76 186.295 1663.89 185.047 1664.14 183.673L1667.63 166.443ZM1603.69 73.0485C1613.91 72.1745 1621.14 82.5377 1616.78 91.9022C1614.91 96.0225 1610.8 98.8942 1606.31 99.2688C1596.09 100.143 1588.86 89.7796 1593.22 80.4152C1595.09 76.2948 1599.21 73.4231 1603.69 73.0485Z" fill="#3E3CEB"/>
</g>
<mask id="mask22_1278_2197" style="mask-type:luminance" maskUnits="userSpaceOnUse" x="951" y="-178" width="719" height="405">
<path d="M1669.62 -177.542H951.75V227H1669.62V-177.542Z" fill="white"/>
</mask>
<g mask="url(#mask22_1278_2197)">
<path d="M1476.94 202.778C1476.57 202.653 1476.32 202.902 1476.19 203.277C1476.07 203.652 1476.32 203.901 1476.69 204.026C1477.07 204.151 1477.31 203.901 1477.44 203.527C1477.44 203.277 1477.31 202.902 1476.94 202.778Z" fill="#F15C30"/>
</g>
<mask id="mask23_1278_2197" style="mask-type:luminance" maskUnits="userSpaceOnUse" x="951" y="-178" width="719" height="405">
<path d="M1669.62 -177.542H951.75V227H1669.62V-177.542Z" fill="white"/>
</mask>
<g mask="url(#mask23_1278_2197)">
<path d="M1469.22 191.791C1469.22 191.791 1469.1 191.916 1469.1 192.041C1468.85 199.907 1473.71 206.899 1480.93 208.647C1488.04 210.395 1495.77 206.649 1499.13 199.532C1499.13 199.407 1499.13 199.282 1499.13 199.282L1469.22 191.791ZM1474.95 197.909C1474.2 197.659 1473.71 196.91 1473.96 196.161C1474.2 195.412 1474.95 194.912 1475.7 195.162C1476.45 195.412 1476.95 196.161 1476.7 196.91C1476.45 197.534 1475.7 198.034 1474.95 197.909ZM1480.44 202.029C1479.81 201.904 1479.44 201.28 1479.56 200.656C1479.69 200.032 1480.31 199.657 1480.93 199.782C1481.56 199.907 1481.93 200.531 1481.81 201.155C1481.68 201.78 1481.06 202.154 1480.44 202.029ZM1487.42 206.15C1485.42 205.65 1484.18 203.528 1484.67 201.53C1485.17 199.532 1487.29 198.284 1489.29 198.783C1491.28 199.282 1492.53 201.405 1492.03 203.403C1491.53 205.401 1489.41 206.649 1487.42 206.15Z" fill="#F15C30"/>
</g>
<mask id="mask24_1278_2197" style="mask-type:luminance" maskUnits="userSpaceOnUse" x="951" y="-178" width="719" height="405">
<path d="M1669.62 -177.542H951.75V227H1669.62V-177.542Z" fill="white"/>
</mask>
<g mask="url(#mask24_1278_2197)">
<path d="M1505.98 170.064C1505.11 169.314 1504.86 168.191 1505.11 167.192L1508.6 153.208C1512.71 153.332 1516.45 150.586 1517.45 146.465C1518.69 141.721 1515.7 136.726 1510.97 135.603L1489.03 130.109C1484.3 128.86 1479.31 131.857 1478.19 136.601C1477.19 140.722 1479.19 144.967 1482.8 146.84L1479.31 160.824C1479.06 161.948 1478.19 162.697 1477.07 162.947C1464.85 165.818 1455.26 175.807 1452.76 188.168C1449.4 205.024 1459.62 221.63 1476.2 226C1476.32 226 1476.57 226.125 1476.69 226.125C1485.04 228.248 1493.64 226.999 1501 222.629C1508.6 218.134 1513.83 211.017 1515.95 202.527C1518.94 190.54 1515.08 178.179 1505.98 170.064ZM1487.29 136.851L1509.22 142.345C1510.22 142.595 1510.97 143.718 1510.72 144.717C1510.47 145.716 1509.35 146.465 1508.35 146.216L1486.41 140.722C1485.42 140.472 1484.67 139.348 1484.92 138.349C1485.17 137.226 1486.29 136.601 1487.29 136.851ZM1494.77 185.421C1494.52 186.545 1493.27 187.294 1492.15 187.044C1491.03 186.795 1490.28 185.546 1490.53 184.422C1490.78 183.299 1492.02 182.549 1493.14 182.799C1494.39 183.049 1495.14 184.297 1494.77 185.421ZM1489.28 176.931C1488.78 178.929 1486.79 180.177 1484.79 179.678C1482.8 179.178 1481.55 177.181 1482.05 175.183C1482.55 173.185 1484.55 171.936 1486.54 172.436C1488.53 172.935 1489.78 174.933 1489.28 176.931ZM1505.36 202.527C1500.5 212.516 1489.53 218.009 1479.19 215.387C1468.84 212.765 1461.74 202.901 1462.11 191.664C1462.24 189.417 1463.23 187.419 1464.98 186.17C1466.72 184.922 1468.84 184.422 1470.84 184.922L1500.87 192.413C1502.87 192.913 1504.61 194.286 1505.48 196.284C1506.36 198.282 1506.36 200.654 1505.36 202.527Z" fill="#F15C30"/>
</g>
<mask id="mask25_1278_2197" style="mask-type:luminance" maskUnits="userSpaceOnUse" x="951" y="-178" width="719" height="405">
<path d="M1669.62 -177.542H951.75V227H1669.62V-177.542Z" fill="white"/>
</mask>
<g mask="url(#mask25_1278_2197)">
<path d="M1529.53 100.02C1523.55 100.02 1517.82 102.517 1513.83 106.887C1509.84 111.257 1507.85 117.25 1508.47 123.119C1509.09 128.737 1511.71 133.732 1516.07 137.228C1517.69 138.601 1518.69 140.474 1518.94 142.472L1519.56 147.965C1520.19 153.709 1525.3 157.954 1531.15 157.33L1535.02 156.955C1540.75 156.331 1544.99 151.212 1544.37 145.343L1543.74 139.725C1543.49 137.727 1544.24 135.854 1545.49 134.106C1549.6 128.987 1551.1 122.494 1549.6 116.126C1547.48 106.887 1539.01 100.145 1529.53 100.02ZM1534.27 150.587L1530.41 150.962C1528.16 151.212 1526.04 149.464 1525.8 147.216L1525.55 144.469L1537.76 143.221L1538.01 145.968C1538.26 148.34 1536.51 150.338 1534.27 150.587Z" fill="#F7F29B"/>
</g>
<mask id="mask26_1278_2197" style="mask-type:luminance" maskUnits="userSpaceOnUse" x="951" y="-178" width="719" height="405">
<path d="M1669.62 -177.542H951.75V227H1669.62V-177.542Z" fill="white"/>
</mask>
<g mask="url(#mask26_1278_2197)">
<path d="M1527.54 97.7712C1529.29 97.6464 1530.53 96.0232 1530.41 94.2752L1529.29 83.5373C1529.16 81.7893 1527.54 80.5407 1525.8 80.6656C1524.05 80.7904 1522.81 82.4136 1522.93 84.1616L1524.05 94.8995C1524.18 96.6475 1525.8 97.8961 1527.54 97.7712Z" fill="#F7F29B"/>
</g>
<mask id="mask27_1278_2197" style="mask-type:luminance" maskUnits="userSpaceOnUse" x="951" y="-178" width="719" height="405">
<path d="M1669.62 -177.542H951.75V227H1669.62V-177.542Z" fill="white"/>
</mask>
<g mask="url(#mask27_1278_2197)">
<path d="M1541 100.517C1541.62 100.891 1542.25 101.016 1542.99 100.891C1543.99 100.767 1544.86 100.267 1545.36 99.3932L1550.85 90.1536C1551.72 88.6553 1551.22 86.6576 1549.72 85.7836C1548.23 84.9096 1546.23 85.409 1545.36 86.9073L1539.88 96.1469C1539.01 97.6452 1539.5 99.6429 1541 100.517Z" fill="#F7F29B"/>
</g>
<mask id="mask28_1278_2197" style="mask-type:luminance" maskUnits="userSpaceOnUse" x="951" y="-178" width="719" height="405">
<path d="M1669.62 -177.542H951.75V227H1669.62V-177.542Z" fill="white"/>
</mask>
<g mask="url(#mask28_1278_2197)">
<path d="M1561.69 102.516L1551.85 106.636C1550.23 107.26 1549.48 109.133 1550.1 110.756C1550.6 112.13 1551.97 112.879 1553.34 112.629C1553.59 112.629 1553.97 112.504 1554.21 112.38L1564.06 108.259C1565.68 107.635 1566.43 105.762 1565.8 104.139C1565.18 102.641 1563.31 101.891 1561.69 102.516Z" fill="#F7F29B"/>
</g>
<mask id="mask29_1278_2197" style="mask-type:luminance" maskUnits="userSpaceOnUse" x="951" y="-178" width="719" height="405">
<path d="M1669.62 -177.542H951.75V227H1669.62V-177.542Z" fill="white"/>
</mask>
<g mask="url(#mask29_1278_2197)">
<path d="M1509.1 103.141C1509.84 103.89 1510.84 104.265 1511.71 104.14C1512.34 104.015 1512.96 103.766 1513.58 103.266C1514.83 102.142 1514.95 100.02 1513.83 98.7712L1506.6 90.7803C1505.48 89.5317 1503.36 89.4068 1502.12 90.5306C1500.87 91.6543 1500.74 93.7769 1501.87 95.0255L1509.1 103.141Z" fill="#F7F29B"/>
</g>
<mask id="mask30_1278_2197" style="mask-type:luminance" maskUnits="userSpaceOnUse" x="951" y="-178" width="719" height="405">
<path d="M1669.62 -177.542H951.75V227H1669.62V-177.542Z" fill="white"/>
</mask>
<g mask="url(#mask30_1278_2197)">
<path d="M1492.52 115.75L1502.99 117.873C1503.36 117.873 1503.61 117.998 1503.86 117.873C1505.23 117.748 1506.35 116.749 1506.6 115.376C1506.98 113.628 1505.86 112.005 1504.11 111.63L1493.52 109.507C1491.77 109.133 1490.15 110.256 1489.78 112.005C1489.65 113.753 1490.78 115.376 1492.52 115.75Z" fill="#F7F29B"/>
</g>
</g>
<rect x="812" y="189" width="297" height="99" fill="#E65729"/>
<path d="M889.568 227.816L881.922 250H877.299L886.932 224.406H889.885L889.568 227.816ZM895.967 250L888.303 227.816L887.969 224.406H890.939L900.607 250H895.967ZM895.598 240.508V244.006H881.676V240.508H895.598ZM906.988 234.637V257.312H902.752V230.98H906.654L906.988 234.637ZM919.381 240.314V240.684C919.381 242.066 919.217 243.35 918.889 244.533C918.572 245.705 918.098 246.73 917.465 247.609C916.844 248.477 916.076 249.15 915.162 249.631C914.248 250.111 913.193 250.352 911.998 250.352C910.814 250.352 909.777 250.135 908.887 249.701C908.008 249.256 907.264 248.629 906.654 247.82C906.045 247.012 905.553 246.062 905.178 244.973C904.814 243.871 904.557 242.664 904.404 241.352V239.928C904.557 238.533 904.814 237.268 905.178 236.131C905.553 234.994 906.045 234.016 906.654 233.195C907.264 232.375 908.008 231.742 908.887 231.297C909.766 230.852 910.791 230.629 911.963 230.629C913.158 230.629 914.219 230.863 915.145 231.332C916.07 231.789 916.85 232.445 917.482 233.301C918.115 234.145 918.59 235.164 918.906 236.359C919.223 237.543 919.381 238.861 919.381 240.314ZM915.145 240.684V240.314C915.145 239.436 915.062 238.621 914.898 237.871C914.734 237.109 914.477 236.441 914.125 235.867C913.773 235.293 913.322 234.848 912.771 234.531C912.232 234.203 911.582 234.039 910.82 234.039C910.07 234.039 909.426 234.168 908.887 234.426C908.348 234.672 907.896 235.018 907.533 235.463C907.17 235.908 906.889 236.43 906.689 237.027C906.49 237.613 906.35 238.252 906.268 238.943V242.354C906.408 243.197 906.648 243.971 906.988 244.674C907.328 245.377 907.809 245.939 908.43 246.361C909.062 246.771 909.871 246.977 910.855 246.977C911.617 246.977 912.268 246.812 912.807 246.484C913.346 246.156 913.785 245.705 914.125 245.131C914.477 244.545 914.734 243.871 914.898 243.109C915.062 242.348 915.145 241.539 915.145 240.684ZM927.238 234.602V250H923.002V230.98H927.045L927.238 234.602ZM933.057 230.857L933.021 234.795C932.764 234.748 932.482 234.713 932.178 234.689C931.885 234.666 931.592 234.654 931.299 234.654C930.572 234.654 929.934 234.76 929.383 234.971C928.832 235.17 928.369 235.463 927.994 235.85C927.631 236.225 927.35 236.682 927.15 237.221C926.951 237.76 926.834 238.363 926.799 239.031L925.832 239.102C925.832 237.906 925.949 236.799 926.184 235.779C926.418 234.76 926.77 233.863 927.238 233.09C927.719 232.316 928.316 231.713 929.031 231.279C929.758 230.846 930.596 230.629 931.545 230.629C931.803 230.629 932.078 230.652 932.371 230.699C932.676 230.746 932.904 230.799 933.057 230.857ZM940.246 230.98V250H935.992V230.98H940.246ZM935.711 225.988C935.711 225.344 935.922 224.811 936.344 224.389C936.777 223.955 937.375 223.738 938.137 223.738C938.887 223.738 939.479 223.955 939.912 224.389C940.346 224.811 940.562 225.344 940.562 225.988C940.562 226.621 940.346 227.148 939.912 227.57C939.479 227.992 938.887 228.203 938.137 228.203C937.375 228.203 936.777 227.992 936.344 227.57C935.922 227.148 935.711 226.621 935.711 225.988ZM949.422 223V250H945.168V223H949.422ZM979.938 246.625V250H962.781V247.1L971.113 238.012C972.027 236.98 972.748 236.09 973.275 235.34C973.803 234.59 974.172 233.916 974.383 233.318C974.605 232.709 974.717 232.117 974.717 231.543C974.717 230.734 974.564 230.025 974.26 229.416C973.967 228.795 973.533 228.309 972.959 227.957C972.385 227.594 971.688 227.412 970.867 227.412C969.918 227.412 969.121 227.617 968.477 228.027C967.832 228.438 967.346 229.006 967.018 229.732C966.689 230.447 966.525 231.268 966.525 232.193H962.289C962.289 230.705 962.629 229.346 963.309 228.115C963.988 226.873 964.973 225.889 966.262 225.162C967.551 224.424 969.104 224.055 970.92 224.055C972.631 224.055 974.084 224.342 975.279 224.916C976.475 225.49 977.383 226.305 978.004 227.359C978.637 228.414 978.953 229.662 978.953 231.104C978.953 231.9 978.824 232.691 978.566 233.477C978.309 234.262 977.939 235.047 977.459 235.832C976.99 236.605 976.434 237.385 975.789 238.17C975.145 238.943 974.436 239.729 973.662 240.525L968.125 246.625H979.938ZM999.924 235.059V239.242C999.924 241.246 999.725 242.957 999.326 244.375C998.939 245.781 998.377 246.924 997.639 247.803C996.9 248.682 996.016 249.326 994.984 249.736C993.965 250.146 992.822 250.352 991.557 250.352C990.549 250.352 989.611 250.223 988.744 249.965C987.889 249.707 987.115 249.303 986.424 248.752C985.732 248.201 985.141 247.492 984.648 246.625C984.168 245.746 983.793 244.697 983.523 243.479C983.266 242.26 983.137 240.848 983.137 239.242V235.059C983.137 233.043 983.336 231.344 983.734 229.961C984.133 228.566 984.701 227.436 985.439 226.568C986.178 225.689 987.057 225.051 988.076 224.652C989.107 224.254 990.256 224.055 991.521 224.055C992.541 224.055 993.479 224.184 994.334 224.441C995.201 224.688 995.975 225.08 996.654 225.619C997.346 226.158 997.932 226.861 998.412 227.729C998.904 228.584 999.279 229.621 999.537 230.84C999.795 232.047 999.924 233.453 999.924 235.059ZM995.688 239.84V234.426C995.688 233.406 995.629 232.51 995.512 231.736C995.395 230.951 995.219 230.289 994.984 229.75C994.762 229.199 994.48 228.754 994.141 228.414C993.801 228.062 993.414 227.811 992.98 227.658C992.547 227.494 992.061 227.412 991.521 227.412C990.865 227.412 990.279 227.541 989.764 227.799C989.248 228.045 988.814 228.443 988.463 228.994C988.111 229.545 987.842 230.271 987.654 231.174C987.479 232.064 987.391 233.148 987.391 234.426V239.84C987.391 240.871 987.449 241.779 987.566 242.564C987.684 243.35 987.859 244.023 988.094 244.586C988.328 245.137 988.609 245.594 988.938 245.957C989.277 246.309 989.664 246.566 990.098 246.73C990.543 246.895 991.029 246.977 991.557 246.977C992.225 246.977 992.816 246.848 993.332 246.59C993.848 246.332 994.281 245.922 994.633 245.359C994.984 244.785 995.248 244.041 995.424 243.127C995.6 242.213 995.688 241.117 995.688 239.84ZM1020.86 246.625V250H1003.7V247.1L1012.04 238.012C1012.95 236.98 1013.67 236.09 1014.2 235.34C1014.72 234.59 1015.09 233.916 1015.3 233.318C1015.53 232.709 1015.64 232.117 1015.64 231.543C1015.64 230.734 1015.49 230.025 1015.18 229.416C1014.89 228.795 1014.46 228.309 1013.88 227.957C1013.31 227.594 1012.61 227.412 1011.79 227.412C1010.84 227.412 1010.04 227.617 1009.4 228.027C1008.75 228.438 1008.27 229.006 1007.94 229.732C1007.61 230.447 1007.45 231.268 1007.45 232.193H1003.21C1003.21 230.705 1003.55 229.346 1004.23 228.115C1004.91 226.873 1005.89 225.889 1007.18 225.162C1008.47 224.424 1010.03 224.055 1011.84 224.055C1013.55 224.055 1015.01 224.342 1016.2 224.916C1017.4 225.49 1018.3 226.305 1018.93 227.359C1019.56 228.414 1019.88 229.662 1019.88 231.104C1019.88 231.9 1019.75 232.691 1019.49 233.477C1019.23 234.262 1018.86 235.047 1018.38 235.832C1017.91 236.605 1017.36 237.385 1016.71 238.17C1016.07 238.943 1015.36 239.729 1014.58 240.525L1009.05 246.625H1020.86ZM1041.79 240.877V244.252H1023.34L1023.2 241.703L1034.24 224.406H1037.63L1033.96 230.699L1027.61 240.877H1041.79ZM1038.6 224.406V250H1034.36V224.406H1038.6Z" fill="white"/>
<defs>
<clipPath id="clip0_1278_2197">
<rect width="262" height="207" fill="white" transform="translate(271 12)"/>
</clipPath>
<clipPath id="clip1_1278_2197">
<rect width="253" height="221" fill="white" transform="translate(1416 6)"/>
</clipPath>
</defs>
</svg>
