<svg width="608" height="136" viewBox="0 0 608 136" fill="none" xmlns="http://www.w3.org/2000/svg">
<rect width="608" height="136" rx="68" fill="#F15C30"/>
<path d="M148.32 79.648C148.32 82.3787 147.659 84.704 146.336 86.624C145.013 88.544 143.115 90.0373 140.64 91.104C138.165 92.128 135.221 92.64 131.808 92.64C130.144 92.64 128.544 92.5333 127.008 92.32C125.472 92.1493 124.043 91.8933 122.72 91.552C121.397 91.2107 120.224 90.784 119.2 90.272V83.744C120.907 84.512 122.912 85.216 125.216 85.856C127.52 86.4533 129.867 86.752 132.256 86.752C134.304 86.752 136.011 86.4747 137.376 85.92C138.741 85.3653 139.765 84.5973 140.448 83.616C141.131 82.6347 141.472 81.4827 141.472 80.16C141.472 78.752 141.109 77.5787 140.384 76.64C139.701 75.6587 138.613 74.7627 137.12 73.952C135.669 73.0987 133.707 72.2027 131.232 71.264C129.525 70.624 127.968 69.92 126.56 69.152C125.195 68.3413 123.979 67.4027 122.912 66.336C121.888 65.2693 121.099 64.032 120.544 62.624C119.989 61.216 119.712 59.5733 119.712 57.696C119.712 55.1787 120.331 53.024 121.568 51.232C122.848 49.44 124.597 48.0747 126.816 47.136C129.035 46.1547 131.616 45.664 134.56 45.664C137.035 45.664 139.317 45.92 141.408 46.432C143.541 46.9013 145.568 47.5627 147.488 48.416L145.312 54.112C143.563 53.3867 141.792 52.7893 140 52.32C138.208 51.8507 136.331 51.616 134.368 51.616C132.661 51.616 131.232 51.872 130.08 52.384C128.928 52.896 128.053 53.6 127.456 54.496C126.901 55.392 126.624 56.4373 126.624 57.632C126.624 59.04 126.944 60.2133 127.584 61.152C128.224 62.0907 129.248 62.9653 130.656 63.776C132.064 64.544 133.92 65.3973 136.224 66.336C138.784 67.3173 140.96 68.384 142.752 69.536C144.587 70.688 145.973 72.0747 146.912 73.696C147.851 75.2747 148.32 77.2587 148.32 79.648ZM163.284 57.504V92H156.5V57.504H163.284ZM159.956 44.384C160.98 44.384 161.876 44.6827 162.644 45.28C163.412 45.8773 163.796 46.88 163.796 48.288C163.796 49.6533 163.412 50.656 162.644 51.296C161.876 51.8933 160.98 52.192 159.956 52.192C158.846 52.192 157.908 51.8933 157.14 51.296C156.414 50.656 156.052 49.6533 156.052 48.288C156.052 46.88 156.414 45.8773 157.14 45.28C157.908 44.6827 158.846 44.384 159.956 44.384ZM185.841 56.864C188.06 56.864 190.065 57.2907 191.857 58.144C193.649 58.9973 195.164 60.2987 196.401 62.048H196.721L197.489 57.504H202.993V92.448C202.993 95.6907 202.417 98.4213 201.265 100.64C200.113 102.859 198.342 104.523 195.953 105.632C193.606 106.784 190.641 107.36 187.057 107.36C184.582 107.36 182.3 107.189 180.209 106.848C178.118 106.507 176.198 105.973 174.449 105.248V99.296C175.686 99.8933 176.988 100.384 178.353 100.768C179.718 101.195 181.169 101.493 182.705 101.664C184.241 101.877 185.82 101.984 187.441 101.984C190.257 101.984 192.433 101.173 193.969 99.552C195.505 97.9733 196.273 95.7333 196.273 92.832V91.68C196.273 91.1253 196.294 90.4 196.337 89.504C196.38 88.5653 196.422 87.8827 196.465 87.456H196.209C195.014 89.248 193.542 90.5707 191.793 91.424C190.086 92.2347 188.102 92.64 185.841 92.64C181.489 92.64 178.076 91.0827 175.601 87.968C173.169 84.8107 171.953 80.4373 171.953 74.848C171.953 71.0933 172.508 67.8933 173.617 65.248C174.726 62.56 176.305 60.4907 178.353 59.04C180.444 57.5893 182.94 56.864 185.841 56.864ZM187.249 62.496C185.457 62.496 183.942 62.9867 182.705 63.968C181.468 64.9067 180.529 66.2933 179.889 68.128C179.249 69.9627 178.929 72.224 178.929 74.912C178.929 78.9227 179.633 81.9733 181.041 84.064C182.492 86.1547 184.604 87.2 187.377 87.2C188.998 87.2 190.364 86.9867 191.473 86.56C192.625 86.1333 193.564 85.472 194.289 84.576C195.057 83.68 195.612 82.5493 195.953 81.184C196.337 79.776 196.529 78.0907 196.529 76.128V74.848C196.529 71.904 196.188 69.536 195.505 67.744C194.865 65.9093 193.862 64.5867 192.497 63.776C191.132 62.9227 189.382 62.496 187.249 62.496ZM231.097 56.864C235.107 56.864 238.179 57.8667 240.312 59.872C242.446 61.8773 243.513 65.0987 243.513 69.536V92H236.793V70.496C236.793 67.808 236.217 65.8027 235.065 64.48C233.955 63.1147 232.163 62.432 229.689 62.432C226.19 62.432 223.758 63.4773 222.393 65.568C221.07 67.6587 220.409 70.6667 220.409 74.592V92H213.625V57.504H219.001L219.961 62.112H220.345C221.113 60.9173 222.051 59.936 223.161 59.168C224.27 58.4 225.507 57.824 226.873 57.44C228.238 57.056 229.646 56.864 231.097 56.864ZM300.258 57.504V92H294.818L293.858 87.456H293.538C292.813 88.6507 291.874 89.632 290.722 90.4C289.57 91.168 288.311 91.7227 286.946 92.064C285.581 92.448 284.173 92.64 282.722 92.64C280.034 92.64 277.751 92.2133 275.874 91.36C274.039 90.464 272.631 89.0987 271.65 87.264C270.711 85.3867 270.242 82.9973 270.242 80.096V57.504H277.09V79.072C277.09 81.76 277.645 83.7653 278.754 85.088C279.906 86.4107 281.677 87.072 284.066 87.072C286.455 87.072 288.333 86.6027 289.698 85.664C291.063 84.7253 292.023 83.36 292.578 81.568C293.175 79.7333 293.474 77.536 293.474 74.976V57.504H300.258ZM328.091 56.864C332.229 56.864 335.557 58.3573 338.075 61.344C340.635 64.3307 341.915 68.7893 341.915 74.72C341.915 78.6027 341.339 81.888 340.187 84.576C339.035 87.264 337.413 89.2907 335.323 90.656C333.232 91.9787 330.8 92.64 328.027 92.64C326.277 92.64 324.741 92.4267 323.419 92C322.096 91.5307 320.965 90.9333 320.027 90.208C319.131 89.44 318.341 88.6293 317.659 87.776H317.211C317.339 88.544 317.445 89.4613 317.531 90.528C317.616 91.552 317.659 92.4693 317.659 93.28V107.36H310.875V57.504H316.379L317.339 62.112H317.659C318.341 61.1733 319.152 60.2987 320.091 59.488C321.029 58.6773 322.16 58.0373 323.483 57.568C324.805 57.0987 326.341 56.864 328.091 56.864ZM326.491 62.432C324.357 62.432 322.651 62.8587 321.371 63.712C320.091 64.5227 319.152 65.76 318.555 67.424C318 69.0453 317.701 71.1147 317.659 73.632V74.656C317.659 77.3013 317.936 79.5627 318.491 81.44C319.045 83.2747 319.963 84.6827 321.243 85.664C322.565 86.6027 324.357 87.072 326.619 87.072C328.539 87.072 330.096 86.56 331.291 85.536C332.528 84.4693 333.445 82.9973 334.043 81.12C334.64 79.2427 334.939 77.0667 334.939 74.592C334.939 70.8373 334.256 67.872 332.891 65.696C331.525 63.52 329.392 62.432 326.491 62.432ZM384.659 56.864C388.67 56.864 391.742 57.8667 393.875 59.872C396.008 61.8773 397.075 65.0987 397.075 69.536V92H390.355V70.496C390.355 67.808 389.779 65.8027 388.627 64.48C387.518 63.1147 385.726 62.432 383.251 62.432C379.752 62.432 377.32 63.4773 375.955 65.568C374.632 67.6587 373.971 70.6667 373.971 74.592V92H367.187V57.504H372.563L373.523 62.112H373.907C374.675 60.9173 375.614 59.936 376.723 59.168C377.832 58.4 379.07 57.824 380.435 57.44C381.8 57.056 383.208 56.864 384.659 56.864ZM437.9 74.72C437.9 77.5787 437.516 80.1173 436.748 82.336C435.98 84.5547 434.892 86.432 433.484 87.968C432.076 89.504 430.369 90.6773 428.364 91.488C426.358 92.256 424.097 92.64 421.58 92.64C419.276 92.64 417.142 92.256 415.18 91.488C413.217 90.6773 411.51 89.504 410.06 87.968C408.652 86.432 407.542 84.5547 406.732 82.336C405.921 80.1173 405.516 77.5573 405.516 74.656C405.516 70.8587 406.156 67.6373 407.436 64.992C408.758 62.3467 410.636 60.3413 413.068 58.976C415.542 57.568 418.444 56.864 421.772 56.864C424.929 56.864 427.702 57.568 430.092 58.976C432.524 60.3413 434.422 62.3467 435.788 64.992C437.196 67.6373 437.9 70.88 437.9 74.72ZM412.492 74.72C412.492 77.28 412.812 79.4987 413.452 81.376C414.092 83.2107 415.094 84.6187 416.46 85.6C417.825 86.5813 419.574 87.072 421.708 87.072C423.841 87.072 425.59 86.5813 426.956 85.6C428.321 84.6187 429.324 83.2107 429.964 81.376C430.604 79.4987 430.924 77.28 430.924 74.72C430.924 72.0747 430.582 69.856 429.9 68.064C429.26 66.272 428.257 64.9067 426.892 63.968C425.569 62.9867 423.82 62.496 421.644 62.496C418.444 62.496 416.118 63.5627 414.668 65.696C413.217 67.8293 412.492 70.8373 412.492 74.72ZM468.546 74.72C468.332 73.8667 468.076 72.928 467.778 71.904C467.522 70.88 467.266 69.856 467.01 68.832C466.754 67.7653 466.519 66.784 466.306 65.888C466.092 64.992 465.922 64.288 465.794 63.776H465.538C465.452 64.288 465.303 64.992 465.09 65.888C464.919 66.784 464.706 67.7653 464.45 68.832C464.194 69.856 463.938 70.9013 463.682 71.968C463.426 72.992 463.148 73.9307 462.85 74.784L457.73 91.936H450.178L440.642 57.44H447.554L452.034 74.912C452.375 76.1067 452.674 77.3653 452.93 78.688C453.228 80.0107 453.484 81.2907 453.698 82.528C453.954 83.7227 454.124 84.7253 454.21 85.536H454.466C454.551 84.9813 454.679 84.2987 454.85 83.488C455.02 82.6347 455.191 81.76 455.362 80.864C455.575 79.9253 455.767 79.0293 455.938 78.176C456.151 77.3227 456.364 76.6187 456.578 76.064L462.082 57.44H469.506L474.882 76.064C475.138 76.9173 475.415 77.9413 475.714 79.136C476.012 80.288 476.268 81.44 476.482 82.592C476.738 83.7013 476.908 84.6613 476.994 85.472H477.25C477.335 84.7467 477.484 83.808 477.698 82.656C477.911 81.4613 478.167 80.1813 478.466 78.816C478.807 77.4507 479.127 76.1493 479.426 74.912L484.034 57.44H490.882L481.218 91.936H473.474L468.546 74.72Z" fill="white"/>
</svg>
