<svg width="143" height="48" viewBox="0 0 143 48" fill="none" xmlns="http://www.w3.org/2000/svg">
<rect x="0.926147" width="142" height="48" rx="24" fill="#F04C23"/>
<path d="M50.623 27.7656C50.623 27.4668 50.5762 27.2031 50.4824 26.9746C50.3945 26.7402 50.2363 26.5293 50.0078 26.3418C49.7852 26.1543 49.4746 25.9756 49.0762 25.8057C48.6836 25.6357 48.1855 25.4629 47.582 25.2871C46.9492 25.0996 46.3779 24.8916 45.8682 24.6631C45.3584 24.4287 44.9219 24.1621 44.5586 23.8633C44.1953 23.5645 43.917 23.2217 43.7236 22.835C43.5303 22.4482 43.4336 22.0059 43.4336 21.5078C43.4336 21.0098 43.5361 20.5498 43.7412 20.1279C43.9463 19.7061 44.2393 19.3398 44.6201 19.0293C45.0068 18.7129 45.4668 18.4668 46 18.291C46.5332 18.1152 47.1279 18.0273 47.7842 18.0273C48.7451 18.0273 49.5596 18.2119 50.2275 18.5811C50.9014 18.9443 51.4141 19.4219 51.7656 20.0137C52.1172 20.5996 52.293 21.2266 52.293 21.8945H50.6055C50.6055 21.4141 50.5029 20.9893 50.2979 20.6201C50.0928 20.2451 49.7822 19.9521 49.3662 19.7412C48.9502 19.5244 48.4229 19.416 47.7842 19.416C47.1807 19.416 46.6826 19.5068 46.29 19.6885C45.8975 19.8701 45.6045 20.1162 45.4111 20.4268C45.2236 20.7373 45.1299 21.0918 45.1299 21.4902C45.1299 21.7598 45.1855 22.0059 45.2969 22.2285C45.4141 22.4453 45.5928 22.6475 45.833 22.835C46.0791 23.0225 46.3896 23.1953 46.7646 23.3535C47.1455 23.5117 47.5996 23.6641 48.127 23.8105C48.8535 24.0156 49.4805 24.2441 50.0078 24.4961C50.5352 24.748 50.9688 25.0322 51.3086 25.3486C51.6543 25.6592 51.9092 26.0137 52.0732 26.4121C52.2432 26.8047 52.3281 27.25 52.3281 27.748C52.3281 28.2695 52.2227 28.7412 52.0117 29.1631C51.8008 29.585 51.499 29.9453 51.1064 30.2441C50.7139 30.543 50.2422 30.7744 49.6914 30.9385C49.1465 31.0967 48.5371 31.1758 47.8633 31.1758C47.2715 31.1758 46.6885 31.0938 46.1143 30.9297C45.5459 30.7656 45.0273 30.5195 44.5586 30.1914C44.0957 29.8633 43.7236 29.459 43.4424 28.9785C43.167 28.4922 43.0293 27.9297 43.0293 27.291H44.7168C44.7168 27.7305 44.8018 28.1084 44.9717 28.4248C45.1416 28.7354 45.373 28.9932 45.666 29.1982C45.9648 29.4033 46.3018 29.5557 46.6768 29.6553C47.0576 29.749 47.4531 29.7959 47.8633 29.7959C48.4551 29.7959 48.9561 29.7139 49.3662 29.5498C49.7764 29.3857 50.0869 29.1514 50.2979 28.8467C50.5146 28.542 50.623 28.1816 50.623 27.7656ZM56.0107 21.4902V31H54.376V21.4902H56.0107ZM54.2529 18.9678C54.2529 18.7041 54.332 18.4814 54.4902 18.2998C54.6543 18.1182 54.8945 18.0273 55.2109 18.0273C55.5215 18.0273 55.7588 18.1182 55.9229 18.2998C56.0928 18.4814 56.1777 18.7041 56.1777 18.9678C56.1777 19.2197 56.0928 19.4365 55.9229 19.6182C55.7588 19.7939 55.5215 19.8818 55.2109 19.8818C54.8945 19.8818 54.6543 19.7939 54.4902 19.6182C54.332 19.4365 54.2529 19.2197 54.2529 18.9678ZM64.7822 21.4902H66.2588V30.7979C66.2588 31.6357 66.0889 32.3506 65.749 32.9424C65.4092 33.5342 64.9346 33.9824 64.3252 34.2871C63.7217 34.5977 63.0244 34.7529 62.2334 34.7529C61.9053 34.7529 61.5186 34.7002 61.0732 34.5947C60.6338 34.4951 60.2002 34.3223 59.7725 34.0762C59.3506 33.8359 58.9961 33.5107 58.709 33.1006L59.5615 32.1338C59.96 32.6143 60.376 32.9482 60.8096 33.1357C61.249 33.3232 61.6826 33.417 62.1104 33.417C62.626 33.417 63.0713 33.3203 63.4463 33.127C63.8213 32.9336 64.1113 32.6465 64.3164 32.2656C64.5273 31.8906 64.6328 31.4277 64.6328 30.877V23.582L64.7822 21.4902ZM58.2344 26.3506V26.166C58.2344 25.4395 58.3193 24.7803 58.4893 24.1885C58.665 23.5908 58.9141 23.0781 59.2363 22.6504C59.5645 22.2227 59.96 21.8945 60.4229 21.666C60.8857 21.4316 61.4072 21.3145 61.9873 21.3145C62.585 21.3145 63.1064 21.4199 63.5518 21.6309C64.0029 21.8359 64.3838 22.1377 64.6943 22.5361C65.0107 22.9287 65.2598 23.4033 65.4414 23.96C65.623 24.5166 65.749 25.1465 65.8193 25.8496V26.6582C65.7549 27.3555 65.6289 27.9824 65.4414 28.5391C65.2598 29.0957 65.0107 29.5703 64.6943 29.9629C64.3838 30.3555 64.0029 30.6572 63.5518 30.8682C63.1006 31.0732 62.5732 31.1758 61.9697 31.1758C61.4014 31.1758 60.8857 31.0557 60.4229 30.8154C59.9658 30.5752 59.5732 30.2383 59.2451 29.8047C58.917 29.3711 58.665 28.8613 58.4893 28.2754C58.3193 27.6836 58.2344 27.042 58.2344 26.3506ZM59.8604 26.166V26.3506C59.8604 26.8252 59.9072 27.2705 60.001 27.6865C60.1006 28.1025 60.25 28.4688 60.4492 28.7852C60.6543 29.1016 60.915 29.3506 61.2314 29.5322C61.5479 29.708 61.9258 29.7959 62.3652 29.7959C62.9043 29.7959 63.3496 29.6816 63.7012 29.4531C64.0527 29.2246 64.3311 28.9229 64.5361 28.5479C64.7471 28.1729 64.9111 27.7656 65.0283 27.3262V25.208C64.9639 24.8857 64.8643 24.5752 64.7295 24.2764C64.6006 23.9717 64.4307 23.7021 64.2197 23.4678C64.0146 23.2275 63.7598 23.0371 63.4551 22.8965C63.1504 22.7559 62.793 22.6855 62.3828 22.6855C61.9375 22.6855 61.5537 22.7793 61.2314 22.9668C60.915 23.1484 60.6543 23.4004 60.4492 23.7227C60.25 24.0391 60.1006 24.4082 60.001 24.8301C59.9072 25.2461 59.8604 25.6914 59.8604 26.166ZM70.3545 23.5205V31H68.7285V21.4902H70.2666L70.3545 23.5205ZM69.9678 25.8848L69.291 25.8584C69.2969 25.208 69.3936 24.6074 69.5811 24.0566C69.7686 23.5 70.0322 23.0166 70.3721 22.6064C70.7119 22.1963 71.1162 21.8799 71.585 21.6572C72.0596 21.4287 72.584 21.3145 73.1582 21.3145C73.627 21.3145 74.0488 21.3789 74.4238 21.5078C74.7988 21.6309 75.1182 21.8301 75.3818 22.1055C75.6514 22.3809 75.8564 22.7383 75.9971 23.1777C76.1377 23.6113 76.208 24.1416 76.208 24.7686V31H74.5732V24.751C74.5732 24.2529 74.5 23.8545 74.3535 23.5557C74.207 23.251 73.9932 23.0312 73.7119 22.8965C73.4307 22.7559 73.085 22.6855 72.6748 22.6855C72.2705 22.6855 71.9014 22.7705 71.5674 22.9404C71.2393 23.1104 70.9551 23.3447 70.7148 23.6436C70.4805 23.9424 70.2959 24.2852 70.1611 24.6719C70.0322 25.0527 69.9678 25.457 69.9678 25.8848ZM90.71 18.2031H92.3975V26.8604C92.3975 27.8213 92.1836 28.6211 91.7559 29.2598C91.3281 29.8984 90.7598 30.3789 90.0508 30.7012C89.3477 31.0176 88.583 31.1758 87.7568 31.1758C86.8896 31.1758 86.1045 31.0176 85.4014 30.7012C84.7041 30.3789 84.1504 29.8984 83.7402 29.2598C83.3359 28.6211 83.1338 27.8213 83.1338 26.8604V18.2031H84.8125V26.8604C84.8125 27.5283 84.9355 28.0791 85.1816 28.5127C85.4277 28.9463 85.7705 29.2686 86.21 29.4795C86.6553 29.6904 87.1709 29.7959 87.7568 29.7959C88.3486 29.7959 88.8643 29.6904 89.3037 29.4795C89.749 29.2686 90.0947 28.9463 90.3408 28.5127C90.5869 28.0791 90.71 27.5283 90.71 26.8604V18.2031ZM96.4404 23.3184V34.6562H94.8057V21.4902H96.2998L96.4404 23.3184ZM102.848 26.166V26.3506C102.848 27.042 102.766 27.6836 102.602 28.2754C102.438 28.8613 102.197 29.3711 101.881 29.8047C101.57 30.2383 101.187 30.5752 100.729 30.8154C100.272 31.0557 99.748 31.1758 99.1562 31.1758C98.5527 31.1758 98.0195 31.0762 97.5566 30.877C97.0938 30.6777 96.7012 30.3877 96.3789 30.0068C96.0566 29.626 95.7988 29.1689 95.6055 28.6357C95.418 28.1025 95.2891 27.502 95.2188 26.834V25.8496C95.2891 25.1465 95.4209 24.5166 95.6143 23.96C95.8076 23.4033 96.0625 22.9287 96.3789 22.5361C96.7012 22.1377 97.0908 21.8359 97.5479 21.6309C98.0049 21.4199 98.5322 21.3145 99.1299 21.3145C99.7275 21.3145 100.258 21.4316 100.721 21.666C101.184 21.8945 101.573 22.2227 101.89 22.6504C102.206 23.0781 102.443 23.5908 102.602 24.1885C102.766 24.7803 102.848 25.4395 102.848 26.166ZM101.213 26.3506V26.166C101.213 25.6914 101.163 25.2461 101.063 24.8301C100.964 24.4082 100.809 24.0391 100.598 23.7227C100.393 23.4004 100.129 23.1484 99.8066 22.9668C99.4844 22.7793 99.1006 22.6855 98.6553 22.6855C98.2451 22.6855 97.8877 22.7559 97.583 22.8965C97.2842 23.0371 97.0293 23.2275 96.8184 23.4678C96.6074 23.7021 96.4346 23.9717 96.2998 24.2764C96.1709 24.5752 96.0742 24.8857 96.0098 25.208V27.4844C96.127 27.8945 96.291 28.2812 96.502 28.6445C96.7129 29.002 96.9941 29.292 97.3457 29.5146C97.6973 29.7314 98.1396 29.8398 98.6729 29.8398C99.1123 29.8398 99.4902 29.749 99.8066 29.5674C100.129 29.3799 100.393 29.125 100.598 28.8027C100.809 28.4805 100.964 28.1113 101.063 27.6953C101.163 27.2734 101.213 26.8252 101.213 26.3506Z" fill="white"/>
</svg>
