<svg width="616" height="144" viewBox="0 0 616 144" fill="none" xmlns="http://www.w3.org/2000/svg">
<g filter="url(#filter0_d_875_5298)">
<rect x="4" width="608" height="136" rx="68" fill="black"/>
<path d="M152.32 79.648C152.32 82.3787 151.659 84.704 150.336 86.624C149.013 88.544 147.115 90.0373 144.64 91.104C142.165 92.128 139.221 92.64 135.808 92.64C134.144 92.64 132.544 92.5333 131.008 92.32C129.472 92.1493 128.043 91.8933 126.72 91.552C125.397 91.2107 124.224 90.784 123.2 90.272V83.744C124.907 84.512 126.912 85.216 129.216 85.856C131.52 86.4533 133.867 86.752 136.256 86.752C138.304 86.752 140.011 86.4747 141.376 85.92C142.741 85.3653 143.765 84.5973 144.448 83.616C145.131 82.6347 145.472 81.4827 145.472 80.16C145.472 78.752 145.109 77.5787 144.384 76.64C143.701 75.6587 142.613 74.7627 141.12 73.952C139.669 73.0987 137.707 72.2027 135.232 71.264C133.525 70.624 131.968 69.92 130.56 69.152C129.195 68.3413 127.979 67.4027 126.912 66.336C125.888 65.2693 125.099 64.032 124.544 62.624C123.989 61.216 123.712 59.5733 123.712 57.696C123.712 55.1787 124.331 53.024 125.568 51.232C126.848 49.44 128.597 48.0747 130.816 47.136C133.035 46.1547 135.616 45.664 138.56 45.664C141.035 45.664 143.317 45.92 145.408 46.432C147.541 46.9013 149.568 47.5627 151.488 48.416L149.312 54.112C147.563 53.3867 145.792 52.7893 144 52.32C142.208 51.8507 140.331 51.616 138.368 51.616C136.661 51.616 135.232 51.872 134.08 52.384C132.928 52.896 132.053 53.6 131.456 54.496C130.901 55.392 130.624 56.4373 130.624 57.632C130.624 59.04 130.944 60.2133 131.584 61.152C132.224 62.0907 133.248 62.9653 134.656 63.776C136.064 64.544 137.92 65.3973 140.224 66.336C142.784 67.3173 144.96 68.384 146.752 69.536C148.587 70.688 149.973 72.0747 150.912 73.696C151.851 75.2747 152.32 77.2587 152.32 79.648ZM167.284 57.504V92H160.5V57.504H167.284ZM163.956 44.384C164.98 44.384 165.876 44.6827 166.644 45.28C167.412 45.8773 167.796 46.88 167.796 48.288C167.796 49.6533 167.412 50.656 166.644 51.296C165.876 51.8933 164.98 52.192 163.956 52.192C162.846 52.192 161.908 51.8933 161.14 51.296C160.414 50.656 160.052 49.6533 160.052 48.288C160.052 46.88 160.414 45.8773 161.14 45.28C161.908 44.6827 162.846 44.384 163.956 44.384ZM189.841 56.864C192.06 56.864 194.065 57.2907 195.857 58.144C197.649 58.9973 199.164 60.2987 200.401 62.048H200.721L201.489 57.504H206.993V92.448C206.993 95.6907 206.417 98.4213 205.265 100.64C204.113 102.859 202.342 104.523 199.953 105.632C197.606 106.784 194.641 107.36 191.057 107.36C188.582 107.36 186.3 107.189 184.209 106.848C182.118 106.507 180.198 105.973 178.449 105.248V99.296C179.686 99.8933 180.988 100.384 182.353 100.768C183.718 101.195 185.169 101.493 186.705 101.664C188.241 101.877 189.82 101.984 191.441 101.984C194.257 101.984 196.433 101.173 197.969 99.552C199.505 97.9733 200.273 95.7333 200.273 92.832V91.68C200.273 91.1253 200.294 90.4 200.337 89.504C200.38 88.5653 200.422 87.8827 200.465 87.456H200.209C199.014 89.248 197.542 90.5707 195.793 91.424C194.086 92.2347 192.102 92.64 189.841 92.64C185.489 92.64 182.076 91.0827 179.601 87.968C177.169 84.8107 175.953 80.4373 175.953 74.848C175.953 71.0933 176.508 67.8933 177.617 65.248C178.726 62.56 180.305 60.4907 182.353 59.04C184.444 57.5893 186.94 56.864 189.841 56.864ZM191.249 62.496C189.457 62.496 187.942 62.9867 186.705 63.968C185.468 64.9067 184.529 66.2933 183.889 68.128C183.249 69.9627 182.929 72.224 182.929 74.912C182.929 78.9227 183.633 81.9733 185.041 84.064C186.492 86.1547 188.604 87.2 191.377 87.2C192.998 87.2 194.364 86.9867 195.473 86.56C196.625 86.1333 197.564 85.472 198.289 84.576C199.057 83.68 199.612 82.5493 199.953 81.184C200.337 79.776 200.529 78.0907 200.529 76.128V74.848C200.529 71.904 200.188 69.536 199.505 67.744C198.865 65.9093 197.862 64.5867 196.497 63.776C195.132 62.9227 193.382 62.496 191.249 62.496ZM235.097 56.864C239.107 56.864 242.179 57.8667 244.312 59.872C246.446 61.8773 247.513 65.0987 247.513 69.536V92H240.793V70.496C240.793 67.808 240.217 65.8027 239.065 64.48C237.955 63.1147 236.163 62.432 233.689 62.432C230.19 62.432 227.758 63.4773 226.393 65.568C225.07 67.6587 224.409 70.6667 224.409 74.592V92H217.625V57.504H223.001L223.961 62.112H224.345C225.113 60.9173 226.051 59.936 227.161 59.168C228.27 58.4 229.507 57.824 230.873 57.44C232.238 57.056 233.646 56.864 235.097 56.864ZM304.258 57.504V92H298.818L297.858 87.456H297.538C296.813 88.6507 295.874 89.632 294.722 90.4C293.57 91.168 292.311 91.7227 290.946 92.064C289.581 92.448 288.173 92.64 286.722 92.64C284.034 92.64 281.751 92.2133 279.874 91.36C278.039 90.464 276.631 89.0987 275.65 87.264C274.711 85.3867 274.242 82.9973 274.242 80.096V57.504H281.09V79.072C281.09 81.76 281.645 83.7653 282.754 85.088C283.906 86.4107 285.677 87.072 288.066 87.072C290.455 87.072 292.333 86.6027 293.698 85.664C295.063 84.7253 296.023 83.36 296.578 81.568C297.175 79.7333 297.474 77.536 297.474 74.976V57.504H304.258ZM332.091 56.864C336.229 56.864 339.557 58.3573 342.075 61.344C344.635 64.3307 345.915 68.7893 345.915 74.72C345.915 78.6027 345.339 81.888 344.187 84.576C343.035 87.264 341.413 89.2907 339.323 90.656C337.232 91.9787 334.8 92.64 332.027 92.64C330.277 92.64 328.741 92.4267 327.419 92C326.096 91.5307 324.965 90.9333 324.027 90.208C323.131 89.44 322.341 88.6293 321.659 87.776H321.211C321.339 88.544 321.445 89.4613 321.531 90.528C321.616 91.552 321.659 92.4693 321.659 93.28V107.36H314.875V57.504H320.379L321.339 62.112H321.659C322.341 61.1733 323.152 60.2987 324.091 59.488C325.029 58.6773 326.16 58.0373 327.483 57.568C328.805 57.0987 330.341 56.864 332.091 56.864ZM330.491 62.432C328.357 62.432 326.651 62.8587 325.371 63.712C324.091 64.5227 323.152 65.76 322.555 67.424C322 69.0453 321.701 71.1147 321.659 73.632V74.656C321.659 77.3013 321.936 79.5627 322.491 81.44C323.045 83.2747 323.963 84.6827 325.243 85.664C326.565 86.6027 328.357 87.072 330.619 87.072C332.539 87.072 334.096 86.56 335.291 85.536C336.528 84.4693 337.445 82.9973 338.043 81.12C338.64 79.2427 338.939 77.0667 338.939 74.592C338.939 70.8373 338.256 67.872 336.891 65.696C335.525 63.52 333.392 62.432 330.491 62.432ZM388.659 56.864C392.67 56.864 395.742 57.8667 397.875 59.872C400.008 61.8773 401.075 65.0987 401.075 69.536V92H394.355V70.496C394.355 67.808 393.779 65.8027 392.627 64.48C391.518 63.1147 389.726 62.432 387.251 62.432C383.752 62.432 381.32 63.4773 379.955 65.568C378.632 67.6587 377.971 70.6667 377.971 74.592V92H371.187V57.504H376.563L377.523 62.112H377.907C378.675 60.9173 379.614 59.936 380.723 59.168C381.832 58.4 383.07 57.824 384.435 57.44C385.8 57.056 387.208 56.864 388.659 56.864ZM441.9 74.72C441.9 77.5787 441.516 80.1173 440.748 82.336C439.98 84.5547 438.892 86.432 437.484 87.968C436.076 89.504 434.369 90.6773 432.364 91.488C430.358 92.256 428.097 92.64 425.58 92.64C423.276 92.64 421.142 92.256 419.18 91.488C417.217 90.6773 415.51 89.504 414.06 87.968C412.652 86.432 411.542 84.5547 410.732 82.336C409.921 80.1173 409.516 77.5573 409.516 74.656C409.516 70.8587 410.156 67.6373 411.436 64.992C412.758 62.3467 414.636 60.3413 417.068 58.976C419.542 57.568 422.444 56.864 425.772 56.864C428.929 56.864 431.702 57.568 434.092 58.976C436.524 60.3413 438.422 62.3467 439.788 64.992C441.196 67.6373 441.9 70.88 441.9 74.72ZM416.492 74.72C416.492 77.28 416.812 79.4987 417.452 81.376C418.092 83.2107 419.094 84.6187 420.46 85.6C421.825 86.5813 423.574 87.072 425.708 87.072C427.841 87.072 429.59 86.5813 430.956 85.6C432.321 84.6187 433.324 83.2107 433.964 81.376C434.604 79.4987 434.924 77.28 434.924 74.72C434.924 72.0747 434.582 69.856 433.9 68.064C433.26 66.272 432.257 64.9067 430.892 63.968C429.569 62.9867 427.82 62.496 425.644 62.496C422.444 62.496 420.118 63.5627 418.668 65.696C417.217 67.8293 416.492 70.8373 416.492 74.72ZM472.546 74.72C472.332 73.8667 472.076 72.928 471.778 71.904C471.522 70.88 471.266 69.856 471.01 68.832C470.754 67.7653 470.519 66.784 470.306 65.888C470.092 64.992 469.922 64.288 469.794 63.776H469.538C469.452 64.288 469.303 64.992 469.09 65.888C468.919 66.784 468.706 67.7653 468.45 68.832C468.194 69.856 467.938 70.9013 467.682 71.968C467.426 72.992 467.148 73.9307 466.85 74.784L461.73 91.936H454.178L444.642 57.44H451.554L456.034 74.912C456.375 76.1067 456.674 77.3653 456.93 78.688C457.228 80.0107 457.484 81.2907 457.698 82.528C457.954 83.7227 458.124 84.7253 458.21 85.536H458.466C458.551 84.9813 458.679 84.2987 458.85 83.488C459.02 82.6347 459.191 81.76 459.362 80.864C459.575 79.9253 459.767 79.0293 459.938 78.176C460.151 77.3227 460.364 76.6187 460.578 76.064L466.082 57.44H473.506L478.882 76.064C479.138 76.9173 479.415 77.9413 479.714 79.136C480.012 80.288 480.268 81.44 480.482 82.592C480.738 83.7013 480.908 84.6613 480.994 85.472H481.25C481.335 84.7467 481.484 83.808 481.698 82.656C481.911 81.4613 482.167 80.1813 482.466 78.816C482.807 77.4507 483.127 76.1493 483.426 74.912L488.034 57.44H494.882L485.218 91.936H477.474L472.546 74.72Z" fill="white"/>
</g>
<defs>
<filter id="filter0_d_875_5298" x="0" y="0" width="616" height="144" filterUnits="userSpaceOnUse" color-interpolation-filters="sRGB">
<feFlood flood-opacity="0" result="BackgroundImageFix"/>
<feColorMatrix in="SourceAlpha" type="matrix" values="0 0 0 0 0 0 0 0 0 0 0 0 0 0 0 0 0 0 127 0" result="hardAlpha"/>
<feOffset dy="4"/>
<feGaussianBlur stdDeviation="2"/>
<feComposite in2="hardAlpha" operator="out"/>
<feColorMatrix type="matrix" values="0 0 0 0 0 0 0 0 0 0 0 0 0 0 0 0 0 0 0.25 0"/>
<feBlend mode="normal" in2="BackgroundImageFix" result="effect1_dropShadow_875_5298"/>
<feBlend mode="normal" in="SourceGraphic" in2="effect1_dropShadow_875_5298" result="shape"/>
</filter>
</defs>
</svg>
